<svg xmlns="http://www.w3.org/2000/svg" width="83" height="83" viewBox="0 0 83 83">
  <g id="Grupo_1149616" data-name="Grupo 1149616" transform="translate(13266 10348)">
    <circle id="Elipse_13113" data-name="Elipse 13113" cx="41.5" cy="41.5" r="41.5" transform="translate(-13266 -10348)" fill="#d1ced9"/>
    <g id="Grupo_1149611" data-name="Grupo 1149611" transform="translate(-13290.851 -10348)">
      <path id="Trazado_1008691" data-name="Trazado 1008691" d="M162.837,147.593h0a11.644,11.644,0,0,1,11.638,11.638v.811H152.259v-1.871a10.583,10.583,0,0,1,10.578-10.578Z" transform="translate(-96.815 -117.52)" fill="#e6e5e0"/>
      <path id="Trazado_1008692" data-name="Trazado 1008692" d="M234.665,194.283l-.793,5.852.793,1.6h3.174l.793-1.6-.793-5.852Z" transform="translate(-169.7 -159.217)" fill="#fdb641"/>
      <path id="Trazado_1008693" data-name="Trazado 1008693" d="M237.978,159.65l-.4,1.587.4,2.117h3.174l.4-2.117-.4-1.587Z" transform="translate(-173.013 -128.288)" fill="#fdb641"/>
      <circle id="Elipse_13160" data-name="Elipse 13160" cx="7.686" cy="7.686" r="7.686" transform="translate(58.866 16.856)" fill="#d2f5f4"/>
      <path id="Trazado_1008694" data-name="Trazado 1008694" d="M350.211,423.472h0a6.214,6.214,0,0,1,6.211,6.211v.69H344v-.69a6.214,6.214,0,0,1,6.211-6.211Z" transform="translate(-268.051 -363.896)" fill="#5ebef7"/>
      <path id="Trazado_1008695" data-name="Trazado 1008695" d="M372.693,424.746a6.838,6.838,0,0,1-7.743.158,6.21,6.21,0,0,1,7.743-.158Z" transform="translate(-286.76 -363.894)" fill="#5ebef7"/>
      <path id="Trazado_1008696" data-name="Trazado 1008696" d="M219.872,54.562l2.659.365a.428.428,0,0,1,.243.728l-1.907,1.889.475,2.642a.428.428,0,0,1-.617.456l-2.386-1.23-2.366,1.268a.428.428,0,0,1-.624-.446l.432-2.649-1.937-1.858a.428.428,0,0,1,.231-.732l2.653-.407L217.9,52.17a.428.428,0,0,1,.767-.006l1.207,2.4Z" transform="translate(-151.697 -32.086)" fill="#178d89"/>
      <g id="Grupo_1149609" data-name="Grupo 1149609" transform="translate(44.706 49.943)">
        <circle id="Elipse_13161" data-name="Elipse 13161" cx="5.355" cy="5.355" r="5.355" transform="translate(31.885)" fill="#22cac5"/>
        <path id="Trazado_1008697" data-name="Trazado 1008697" d="M204.211,423.472h0a6.214,6.214,0,0,1,6.211,6.211v.69H198v-.69a6.214,6.214,0,0,1,6.211-6.211Z" transform="translate(-182.37 -413.839)" fill="#22cac5"/>
        <path id="Trazado_1008698" data-name="Trazado 1008698" d="M226.693,424.746a6.838,6.838,0,0,1-7.743.158,6.21,6.21,0,0,1,7.743-.158Z" transform="translate(-201.08 -413.837)" fill="#22cac5"/>
        <circle id="Elipse_13162" data-name="Elipse 13162" cx="5.355" cy="5.355" r="5.355" transform="translate(16.271)" fill="#22cac5"/>
        <path id="Trazado_1008699" data-name="Trazado 1008699" d="M58.061,423.472h0a6.214,6.214,0,0,1,6.211,6.211v.69H51.85v-.69a6.214,6.214,0,0,1,6.211-6.211Z" transform="translate(-51.85 -413.839)" fill="#22cac5"/>
        <path id="Trazado_1008700" data-name="Trazado 1008700" d="M80.543,424.746a6.838,6.838,0,0,1-7.743.158,6.21,6.21,0,0,1,7.743-.158Z" transform="translate(-70.56 -413.837)" fill="#22cac5"/>
        <circle id="Elipse_13163" data-name="Elipse 13163" cx="5.355" cy="5.355" r="5.355" transform="translate(0.642)" fill="#22cac5"/>
      </g>
      <g id="Grupo_1149610" data-name="Grupo 1149610" transform="translate(43.851 16)">
        <path id="Trazado_1008701" data-name="Trazado 1008701" d="M86.094,59.915a6.206,6.206,0,0,0-3.3-10.768v-3.2a.856.856,0,0,0-.856-.856H67.394V43.377H77.66a.856.856,0,0,0,.856-.856v-.811a12.815,12.815,0,0,0-6.188-10.883,8.541,8.541,0,1,0-11.55,0,12.849,12.849,0,0,0-6.189,10.882v.811a.856.856,0,0,0,.856.856H65.683v1.711h-15.4a.856.856,0,0,0-.856.856V49.22a6.208,6.208,0,0,0-2.683,10.86,7.018,7.018,0,0,0-2.894,5.706v.69a.856.856,0,0,0,.856.856H57.127a.856.856,0,0,0,.856-.856v-.69a7.054,7.054,0,0,0-3.131-5.871A6.206,6.206,0,0,0,51.139,49.1V46.8H65.683v2.32a6.208,6.208,0,0,0-3.321,10.963,7.113,7.113,0,0,0-2.9,5.7v.69a.856.856,0,0,0,.856.856H72.741a.856.856,0,0,0,.856-.856v-.69a7.1,7.1,0,0,0-3.133-5.87,6.206,6.206,0,0,0-3.069-10.734V46.8H81.082v2.35a6.207,6.207,0,0,0-3.092,10.934,7.093,7.093,0,0,0-2.9,5.7v.69a.856.856,0,0,0,.856.856H88.37a.856.856,0,0,0,.856-.856v-.69a7.054,7.054,0,0,0-3.131-5.871ZM65.45,33.01a8.3,8.3,0,0,0,2.2,0l-.225,1.2H65.675l-.225-1.2ZM76.8,41.666H74.536V39.348a.856.856,0,1,0-1.711,0v2.318H69.517L69.7,41.3a.855.855,0,0,0,.081-.494l-.775-5.715.329-2.472a8.5,8.5,0,0,0,1.47-.671,11.11,11.11,0,0,1,6,9.721ZM59.722,24.542a6.83,6.83,0,1,1,6.83,6.83,6.838,6.838,0,0,1-6.83-6.83Zm2.578,7.4a8.5,8.5,0,0,0,1.47.671l.329,2.472L63.324,40.8a.855.855,0,0,0,.081.494l.183.369H60.254V39.348a.856.856,0,0,0-1.711,0v2.318H56.3a11.075,11.075,0,0,1,6-9.721Zm2.755,8.828.658-4.852h1.679l.658,4.852-.442.893H65.5ZM56.269,65.621H45.564a5.321,5.321,0,0,1,2.829-4.559,6.188,6.188,0,0,0,4.851-.1,5.346,5.346,0,0,1,3.025,4.658ZM55.2,55.3a4.5,4.5,0,1,1-4.5-4.5A4.5,4.5,0,0,1,55.2,55.3Zm16.68,10.323h-10.7a5.391,5.391,0,0,1,2.83-4.559,6.188,6.188,0,0,0,4.85-.1,5.381,5.381,0,0,1,3.025,4.658ZM70.816,55.3a4.5,4.5,0,1,1-4.5-4.5A4.5,4.5,0,0,1,70.816,55.3Zm6.63,0a4.5,4.5,0,1,1,4.5,4.5A4.5,4.5,0,0,1,77.446,55.3Zm-.639,10.323a5.376,5.376,0,0,1,2.83-4.559,6.188,6.188,0,0,0,4.85-.1,5.346,5.346,0,0,1,3.025,4.658Z" transform="translate(-43.851 -16)"/>
        <path id="Trazado_1008702" data-name="Trazado 1008702" d="M207.357,52.95a1.282,1.282,0,0,0,1.873,1.338l1.969-1.056,1.986,1.024a1.283,1.283,0,0,0,1.851-1.368l-.4-2.2,1.587-1.572a1.283,1.283,0,0,0-.729-2.183l-2.214-.3-1-2a1.275,1.275,0,0,0-1.146-.706h-.011a1.275,1.275,0,0,0-1.145.725l-.973,2.011L206.8,47A1.283,1.283,0,0,0,206.1,49.2l1.612,1.547Zm2.354-4.662a.855.855,0,0,0,.64-.473l.791-1.636.817,1.623a.855.855,0,0,0,.648.463l1.8.247-1.291,1.279a.855.855,0,0,0-.24.759l.322,1.789-1.615-.833a.856.856,0,0,0-.8.006l-1.6.859.293-1.794a.855.855,0,0,0-.252-.755l-1.312-1.258,1.8-.276Z" transform="translate(-188.4 -40.942)"/>
      </g>
    </g>
  </g>
</svg>
