<svg xmlns="http://www.w3.org/2000/svg" width="83" height="83" viewBox="0 0 83 83">
  <g id="Grupo_1149615" data-name="Grupo 1149615" transform="translate(12412 10348.187)">
    <circle id="Elipse_13114" data-name="Elipse 13114" cx="41.5" cy="41.5" r="41.5" transform="translate(-12412 -10348.187)" fill="#d1ced9"/>
    <g id="Grupo_1149614" data-name="Grupo 1149614" transform="translate(-12422.391 -10338.463)">
      <path id="Trazado_1008703" data-name="Trazado 1008703" d="M114.913,96.413H87.507a2.349,2.349,0,0,1-2.349-2.349V56.443a2.349,2.349,0,0,1,2.349-2.349h27.406a2.349,2.349,0,0,1,2.349,2.349V94.064A2.349,2.349,0,0,1,114.913,96.413Z" transform="translate(-49.319 -42.216)" fill="#0055a3"/>
      <path id="Trazado_1008704" data-name="Trazado 1008704" d="M115.366,54.094h-3.535a2.359,2.359,0,0,1,.047.47V87.472a7.062,7.062,0,0,1-7.062,7.062H85.658a2.35,2.35,0,0,0,2.3,1.879h27.406a2.349,2.349,0,0,0,2.349-2.349V56.443A2.349,2.349,0,0,0,115.366,54.094Z" transform="translate(-49.772 -42.216)" fill="#004281"/>
      <path id="Trazado_1008705" data-name="Trazado 1008705" d="M141.548,85.156H117.161a.94.94,0,0,0-.94.94v34.6a.94.94,0,0,0,.94.94h24.388a.94.94,0,0,0,.94-.94V86.1A.94.94,0,0,0,141.548,85.156Z" transform="translate(-77.464 -70.36)" fill="#c8effe"/>
      <path id="Trazado_1008706" data-name="Trazado 1008706" d="M334.179,85.156H332.2v30.459a7.058,7.058,0,0,1-3.372,6.023h5.351a.94.94,0,0,0,.94-.94V86.1A.94.94,0,0,0,334.179,85.156Z" transform="translate(-270.095 -70.36)" fill="#99e6fc"/>
      <path id="Trazado_1008707" data-name="Trazado 1008707" d="M155.935,391.924c4.216,0,7.743-2.617,9.386-4.378a1.57,1.57,0,0,0,0-2.919c-1.643-1.76-5.17-4.378-9.386-4.378s-7.743,2.617-9.386,4.378a1.57,1.57,0,0,0,0,2.919C148.192,389.307,151.719,391.924,155.935,391.924Z" transform="translate(-104.044 -337.727)" fill="#fff"/>
      <path id="Trazado_1008708" data-name="Trazado 1008708" d="M174.715,10.419a.235.235,0,0,1-.234-.219,2.919,2.919,0,0,0-5.821,0,.235.235,0,0,1-.234.219h-5.142a.47.47,0,0,0-.47.47v5.367a1.409,1.409,0,0,0,1.409,1.409h14.693a1.409,1.409,0,0,0,1.409-1.409V10.888a.47.47,0,0,0-.47-.47Z" transform="translate(-119.68 0)" fill="#b2caec"/>
      <path id="Trazado_1008709" data-name="Trazado 1008709" d="M317.008,38.563h-1.879a.47.47,0,0,1,.47.47V44.4a1.409,1.409,0,0,1-1.409,1.409h1.879a1.409,1.409,0,0,0,1.409-1.409V39.033A.47.47,0,0,0,317.008,38.563Z" transform="translate(-256.831 -28.144)" fill="#82aee3"/>
      <path id="Trazado_1008710" data-name="Trazado 1008710" d="M151.191,221.465h-3.438a.47.47,0,0,1-.47-.47v-11.1l4.378-1.56V221A.47.47,0,0,1,151.191,221.465Z" transform="translate(-105.607 -181.962)" fill="#e53950"/>
      <path id="Trazado_1008711" data-name="Trazado 1008711" d="M236.613,207.393h-3.438a.47.47,0,0,1-.47-.47V192.8l4.378,4.378v9.745A.47.47,0,0,1,236.613,207.393Z" transform="translate(-183.003 -167.89)" fill="#ffc344"/>
      <path id="Trazado_1008712" data-name="Trazado 1008712" d="M322.035,207.394H318.6a.47.47,0,0,1-.47-.47V194.26L322.5,192.8v14.123A.47.47,0,0,1,322.035,207.394Z" transform="translate(-260.399 -167.891)" fill="#01c0fa"/>
      <circle id="Elipse_13164" data-name="Elipse 13164" cx="5.837" cy="5.837" r="5.837" transform="translate(46.054 42.523)" fill="#80d261"/>
      <path id="Trazado_1008713" data-name="Trazado 1008713" d="M72.931,117.589l-.52-.9a.939.939,0,0,0-1.283-.344l-16.472,9.51a.47.47,0,0,1-.642-.172l-2.709-4.692a1.409,1.409,0,0,0-1.925-.516l-18.186,10.5a.939.939,0,0,0-.344,1.283l.52.9a.939.939,0,0,0,1.283.344l16.472-9.51a.47.47,0,0,1,.642.172l2.709,4.691a1.409,1.409,0,0,0,1.925.516l18.186-10.5A.939.939,0,0,0,72.931,117.589Z" transform="translate(0 -98.504)" fill="#80d261"/>
      <path id="Trazado_1008714" data-name="Trazado 1008714" d="M227.089,430.464l1.891,1.891a.513.513,0,0,0,.726,0l2.76-2.76" transform="translate(-177.915 -382.436)" fill="none" stroke="#000" stroke-linecap="round" stroke-linejoin="round" stroke-miterlimit="10" stroke-width="1"/>
      <path id="Trazado_1008715" data-name="Trazado 1008715" d="M170.152,17.665h8.765a1.409,1.409,0,0,0,1.409-1.409V10.888a.47.47,0,0,0-.47-.47h-5.142a.235.235,0,0,1-.234-.219,2.919,2.919,0,0,0-5.821,0,.235.235,0,0,1-.234.219h-5.142a.47.47,0,0,0-.47.47v5.367a1.409,1.409,0,0,0,1.409,1.409h2.546" transform="translate(-119.68 0)" fill="none" stroke="#000" stroke-linecap="round" stroke-linejoin="round" stroke-miterlimit="10" stroke-width="1"/>
      <line id="Línea_3754" data-name="Línea 3754" x2="11.674" transform="translate(46.054 14.796)" fill="none" stroke="#000" stroke-linecap="round" stroke-linejoin="round" stroke-miterlimit="10" stroke-width="1"/>
      <g id="Grupo_1149613" data-name="Grupo 1149613" transform="translate(51.891 10.419)">
        <g id="Grupo_1149612" data-name="Grupo 1149612">
          <line id="Línea_3755" data-name="Línea 3755" fill="none" stroke="#000" stroke-linecap="round" stroke-linejoin="round" stroke-miterlimit="10" stroke-width="1"/>
        </g>
      </g>
      <path id="Trazado_1008716" data-name="Trazado 1008716" d="M60.149,122.684l-5.493,3.171a.47.47,0,0,1-.642-.172l-2.709-4.692a1.409,1.409,0,0,0-1.925-.516l-18.186,10.5a.939.939,0,0,0-.344,1.283l.52.9a.939.939,0,0,0,1.283.344l16.472-9.51a.47.47,0,0,1,.642.172l2.709,4.691a1.409,1.409,0,0,0,1.925.516l18.186-10.5a.939.939,0,0,0,.344-1.283l-.52-.9a.939.939,0,0,0-1.283-.344l-8.137,4.7" transform="translate(0 -98.504)" fill="none" stroke="#000" stroke-linecap="round" stroke-linejoin="round" stroke-miterlimit="10" stroke-width="1"/>
      <path id="Trazado_1008717" data-name="Trazado 1008717" d="M155.935,391.924c4.216,0,7.743-2.617,9.386-4.378a1.57,1.57,0,0,0,0-2.919c-1.643-1.76-5.17-4.378-9.386-4.378s-7.743,2.617-9.386,4.378a1.57,1.57,0,0,0,0,2.919C148.192,389.307,151.719,391.924,155.935,391.924Z" transform="translate(-104.044 -337.727)" fill="none" stroke="#000" stroke-linecap="round" stroke-linejoin="round" stroke-miterlimit="10" stroke-width="1"/>
      <circle id="Elipse_13165" data-name="Elipse 13165" cx="5.837" cy="5.837" r="5.837" transform="translate(46.054 42.523)" fill="none" stroke="#000" stroke-linecap="round" stroke-linejoin="round" stroke-miterlimit="10" stroke-width="1"/>
      <path id="Trazado_1008718" data-name="Trazado 1008718" d="M349.189,54.094h4.948a2.349,2.349,0,0,1,2.349,2.349V61.9" transform="translate(-288.543 -42.216)" fill="none" stroke="#000" stroke-linecap="round" stroke-linejoin="round" stroke-miterlimit="10" stroke-width="1"/>
      <path id="Trazado_1008719" data-name="Trazado 1008719" d="M117.263,173v28.8a2.35,2.35,0,0,1-2.349,2.349H87.508a2.349,2.349,0,0,1-2.349-2.349V183.114" transform="translate(-49.32 -149.954)" fill="none" stroke="#000" stroke-linecap="round" stroke-linejoin="round" stroke-miterlimit="10" stroke-width="1"/>
      <path id="Trazado_1008720" data-name="Trazado 1008720" d="M85.159,72.006V56.443a2.349,2.349,0,0,1,2.349-2.349h4.947" transform="translate(-49.32 -42.216)" fill="none" stroke="#000" stroke-linecap="round" stroke-linejoin="round" stroke-miterlimit="10" stroke-width="1"/>
      <line id="Línea_3756" data-name="Línea 3756" y1="5.075" transform="translate(46.054 27.263)" fill="none" stroke="#000" stroke-linecap="round" stroke-linejoin="round" stroke-miterlimit="10" stroke-width="1"/>
      <path id="Trazado_1008721" data-name="Trazado 1008721" d="M147.283,244.737v9.243a.47.47,0,0,0,.47.47h3.438a.47.47,0,0,0,.47-.47v-3.314" transform="translate(-105.607 -214.947)" fill="none" stroke="#000" stroke-linecap="round" stroke-linejoin="round" stroke-miterlimit="10" stroke-width="1"/>
      <path id="Trazado_1008722" data-name="Trazado 1008722" d="M232.7,199.852v13.46a.47.47,0,0,0,.47.47h3.438a.47.47,0,0,0,.47-.47v-8.029" transform="translate(-183.003 -174.279)" fill="none" stroke="#000" stroke-linecap="round" stroke-linejoin="round" stroke-miterlimit="10" stroke-width="1"/>
      <path id="Trazado_1008723" data-name="Trazado 1008723" d="M318.127,211.4v10.086a.47.47,0,0,0,.47.47h3.438a.47.47,0,0,0,.47-.47V208.869" transform="translate(-260.399 -182.449)" fill="none" stroke="#000" stroke-linecap="round" stroke-linejoin="round" stroke-miterlimit="10" stroke-width="1"/>
      <path id="Trazado_1008724" data-name="Trazado 1008724" d="M116.219,262.674v18.863a.939.939,0,0,0,.94.94h4.417" transform="translate(-77.462 -231.199)" fill="none" stroke="#000" stroke-linecap="round" stroke-linejoin="round" stroke-miterlimit="10" stroke-width="1"/>
      <path id="Trazado_1008725" data-name="Trazado 1008725" d="M349.189,85.154h3.438a.939.939,0,0,1,.94.94v5.63" transform="translate(-288.543 -70.358)" fill="none" stroke="#000" stroke-linecap="round" stroke-linejoin="round" stroke-miterlimit="10" stroke-width="1"/>
      <path id="Trazado_1008726" data-name="Trazado 1008726" d="M116.219,98.463V86.094a.94.94,0,0,1,.94-.94H120.6" transform="translate(-77.462 -70.358)" fill="none" stroke="#000" stroke-linecap="round" stroke-linejoin="round" stroke-miterlimit="10" stroke-width="1"/>
      <path id="Trazado_1008727" data-name="Trazado 1008727" d="M344.135,190.944v25.6a.939.939,0,0,1-.94.94h-4.416" transform="translate(-279.111 -166.208)" fill="none" stroke="#000" stroke-linecap="round" stroke-linejoin="round" stroke-miterlimit="10" stroke-width="1"/>
    </g>
  </g>
</svg>
