<svg xmlns="http://www.w3.org/2000/svg" width="84.696" height="81.342" viewBox="0 0 84.696 81.342"><g transform="translate(-5158.636 10267.85)"><g transform="translate(0 -304)"><g transform="translate(5158.636 -9963.85)"><path d="M32.829,61.313A32.866,32.866,0,0,0,0,28.484V0A61.382,61.382,0,0,1,61.313,61.313Z" transform="translate(23.383 20.029)" fill="#22cac5"/><path d="M40.671,0A40.671,40.671,0,1,1,0,40.671,40.671,40.671,0,0,1,40.671,0Z" transform="translate(0)" fill="#31313c" opacity="0.444" style="mix-blend-mode:multiply;isolation:isolate"/><g transform="translate(15.879 16.813)"><path d="M415.319,50.752a.553.553,0,1,1-.553-.528A.541.541,0,0,1,415.319,50.752Z" transform="translate(-414.214 -50.224)" fill="#fff"/><path d="M423.765,50.752a.553.553,0,1,1-.552-.528A.54.54,0,0,1,423.765,50.752Z" transform="translate(-417.69 -50.224)" fill="#fff"/><path d="M432.21,50.752a.553.553,0,1,1-.552-.528A.54.54,0,0,1,432.21,50.752Z" transform="translate(-421.166 -50.224)" fill="#fff"/><path d="M440.658,50.752a.553.553,0,1,1-.553-.528A.541.541,0,0,1,440.658,50.752Z" transform="translate(-424.642 -50.224)" fill="#fff"/><path d="M449.1,50.752a.553.553,0,1,1-.552-.528A.541.541,0,0,1,449.1,50.752Z" transform="translate(-428.118 -50.224)" fill="#fff"/><path d="M457.55,50.752a.553.553,0,1,1-.552-.528A.541.541,0,0,1,457.55,50.752Z" transform="translate(-431.594 -50.224)" fill="#fff"/><path d="M466,50.752a.553.553,0,1,1-.553-.528A.541.541,0,0,1,466,50.752Z" transform="translate(-435.07 -50.224)" fill="#fff"/><path d="M474.443,50.752a.553.553,0,1,1-.552-.528A.54.54,0,0,1,474.443,50.752Z" transform="translate(-438.546 -50.224)" fill="#fff"/><path d="M482.888,50.752a.553.553,0,1,1-.552-.528A.541.541,0,0,1,482.888,50.752Z" transform="translate(-442.022 -50.224)" fill="#fff"/><path d="M491.335,50.752a.553.553,0,1,1-.552-.528A.541.541,0,0,1,491.335,50.752Z" transform="translate(-445.498 -50.224)" fill="#fff"/><path d="M499.782,50.752a.553.553,0,1,1-.553-.528A.541.541,0,0,1,499.782,50.752Z" transform="translate(-448.974 -50.224)" fill="#fff"/><g transform="translate(0 4.225)"><path d="M415.319,58.26a.553.553,0,1,1-.553-.528A.541.541,0,0,1,415.319,58.26Z" transform="translate(-414.214 -57.732)" fill="#fff"/><path d="M423.765,58.26a.553.553,0,1,1-.552-.528A.54.54,0,0,1,423.765,58.26Z" transform="translate(-417.69 -57.732)" fill="#fff"/><path d="M432.21,58.26a.553.553,0,1,1-.552-.528A.54.54,0,0,1,432.21,58.26Z" transform="translate(-421.166 -57.732)" fill="#fff"/><path d="M440.658,58.26a.553.553,0,1,1-.553-.528A.541.541,0,0,1,440.658,58.26Z" transform="translate(-424.642 -57.732)" fill="#fff"/><path d="M449.1,58.26a.553.553,0,1,1-.552-.528A.54.54,0,0,1,449.1,58.26Z" transform="translate(-428.118 -57.732)" fill="#fff"/><path d="M457.55,58.26a.553.553,0,1,1-.552-.528A.54.54,0,0,1,457.55,58.26Z" transform="translate(-431.594 -57.732)" fill="#fff"/><path d="M466,58.26a.553.553,0,1,1-.553-.528A.541.541,0,0,1,466,58.26Z" transform="translate(-435.07 -57.732)" fill="#fff"/><path d="M474.443,58.26a.553.553,0,1,1-.552-.528A.54.54,0,0,1,474.443,58.26Z" transform="translate(-438.546 -57.732)" fill="#fff"/><path d="M482.888,58.26a.553.553,0,1,1-.552-.528A.541.541,0,0,1,482.888,58.26Z" transform="translate(-442.022 -57.732)" fill="#fff"/><path d="M491.335,58.26a.553.553,0,1,1-.552-.528A.541.541,0,0,1,491.335,58.26Z" transform="translate(-445.498 -57.732)" fill="#fff"/><path d="M499.782,58.26a.553.553,0,1,1-.553-.528A.541.541,0,0,1,499.782,58.26Z" transform="translate(-448.974 -57.732)" fill="#fff"/></g><g transform="translate(0 8.45)"><ellipse cx="0.552" cy="0.528" rx="0.552" ry="0.528" fill="#fff"/><path d="M423.765,65.768a.553.553,0,1,1-.552-.528A.541.541,0,0,1,423.765,65.768Z" transform="translate(-417.69 -65.24)" fill="#fff"/><ellipse cx="0.552" cy="0.528" rx="0.552" ry="0.528" transform="translate(9.941)" fill="#fff"/><path d="M440.658,65.768a.553.553,0,1,1-.553-.528A.541.541,0,0,1,440.658,65.768Z" transform="translate(-424.642 -65.24)" fill="#fff"/><path d="M449.1,65.768a.553.553,0,1,1-.552-.528A.541.541,0,0,1,449.1,65.768Z" transform="translate(-428.118 -65.24)" fill="#fff"/><ellipse cx="0.552" cy="0.528" rx="0.552" ry="0.528" transform="translate(24.852)" fill="#fff"/><path d="M466,65.768a.553.553,0,1,1-.553-.528A.541.541,0,0,1,466,65.768Z" transform="translate(-435.07 -65.24)" fill="#fff"/><ellipse cx="0.552" cy="0.528" rx="0.552" ry="0.528" transform="translate(34.792)" fill="#fff"/><ellipse cx="0.552" cy="0.528" rx="0.552" ry="0.528" transform="translate(39.763)" fill="#fff"/><path d="M491.335,65.768a.553.553,0,1,1-.552-.528A.541.541,0,0,1,491.335,65.768Z" transform="translate(-445.498 -65.24)" fill="#fff"/><path d="M499.782,65.768a.553.553,0,1,1-.553-.528A.541.541,0,0,1,499.782,65.768Z" transform="translate(-448.974 -65.24)" fill="#fff"/></g><g transform="translate(0 12.675)"><ellipse cx="0.552" cy="0.528" rx="0.552" ry="0.528" transform="translate(0 0)" fill="#fff"/><path d="M423.765,73.275a.553.553,0,1,1-.552-.528A.54.54,0,0,1,423.765,73.275Z" transform="translate(-417.69 -72.747)" fill="#fff"/><ellipse cx="0.552" cy="0.528" rx="0.552" ry="0.528" transform="translate(9.941 0)" fill="#fff"/><path d="M440.658,73.275a.553.553,0,1,1-.553-.528A.541.541,0,0,1,440.658,73.275Z" transform="translate(-424.642 -72.747)" fill="#fff"/><path d="M449.1,73.275a.553.553,0,1,1-.552-.528A.54.54,0,0,1,449.1,73.275Z" transform="translate(-428.118 -72.747)" fill="#fff"/><ellipse cx="0.552" cy="0.528" rx="0.552" ry="0.528" transform="translate(24.852 0)" fill="#fff"/><path d="M466,73.275a.553.553,0,1,1-.553-.528A.541.541,0,0,1,466,73.275Z" transform="translate(-435.07 -72.747)" fill="#fff"/><ellipse cx="0.552" cy="0.528" rx="0.552" ry="0.528" transform="translate(34.792 0)" fill="#fff"/><ellipse cx="0.552" cy="0.528" rx="0.552" ry="0.528" transform="translate(39.763 0)" fill="#fff"/><path d="M491.335,73.275a.553.553,0,1,1-.552-.528A.541.541,0,0,1,491.335,73.275Z" transform="translate(-445.498 -72.747)" fill="#fff"/><path d="M499.782,73.275a.553.553,0,1,1-.553-.528A.541.541,0,0,1,499.782,73.275Z" transform="translate(-448.974 -72.747)" fill="#fff"/></g><g transform="translate(0 16.9)"><path d="M415.319,80.783a.553.553,0,1,1-.553-.528A.541.541,0,0,1,415.319,80.783Z" transform="translate(-414.214 -80.255)" fill="#fff"/><path d="M423.765,80.783a.553.553,0,1,1-.552-.528A.54.54,0,0,1,423.765,80.783Z" transform="translate(-417.69 -80.255)" fill="#fff"/><path d="M432.21,80.783a.553.553,0,1,1-.552-.528A.54.54,0,0,1,432.21,80.783Z" transform="translate(-421.166 -80.255)" fill="#fff"/><path d="M440.658,80.783a.553.553,0,1,1-.553-.528A.541.541,0,0,1,440.658,80.783Z" transform="translate(-424.642 -80.255)" fill="#fff"/><path d="M449.1,80.783a.553.553,0,1,1-.552-.528A.54.54,0,0,1,449.1,80.783Z" transform="translate(-428.118 -80.255)" fill="#fff"/><path d="M457.55,80.783a.553.553,0,1,1-.552-.528A.54.54,0,0,1,457.55,80.783Z" transform="translate(-431.594 -80.255)" fill="#fff"/><path d="M466,80.783a.553.553,0,1,1-.553-.528A.541.541,0,0,1,466,80.783Z" transform="translate(-435.07 -80.255)" fill="#fff"/><path d="M474.443,80.783a.553.553,0,1,1-.552-.528A.54.54,0,0,1,474.443,80.783Z" transform="translate(-438.546 -80.255)" fill="#fff"/><path d="M482.888,80.783a.553.553,0,1,1-.552-.528A.54.54,0,0,1,482.888,80.783Z" transform="translate(-442.022 -80.255)" fill="#fff"/><path d="M491.335,80.783a.553.553,0,1,1-.552-.528A.541.541,0,0,1,491.335,80.783Z" transform="translate(-445.498 -80.255)" fill="#fff"/><path d="M499.782,80.783a.553.553,0,1,1-.553-.528A.541.541,0,0,1,499.782,80.783Z" transform="translate(-448.974 -80.255)" fill="#fff"/></g><g transform="translate(0 21.125)"><ellipse cx="0.552" cy="0.528" rx="0.552" ry="0.528" transform="translate(0 0)" fill="#fff"/><path d="M423.765,88.291a.553.553,0,1,1-.552-.528A.54.54,0,0,1,423.765,88.291Z" transform="translate(-417.69 -87.763)" fill="#fff"/><ellipse cx="0.552" cy="0.528" rx="0.552" ry="0.528" transform="translate(9.941 0)" fill="#fff"/><path d="M440.658,88.291a.553.553,0,1,1-.553-.528A.541.541,0,0,1,440.658,88.291Z" transform="translate(-424.642 -87.763)" fill="#fff"/><path d="M449.1,88.291a.553.553,0,1,1-.552-.528A.54.54,0,0,1,449.1,88.291Z" transform="translate(-428.118 -87.763)" fill="#fff"/><ellipse cx="0.552" cy="0.528" rx="0.552" ry="0.528" transform="translate(24.852 0)" fill="#fff"/><path d="M466,88.291a.553.553,0,1,1-.553-.528A.541.541,0,0,1,466,88.291Z" transform="translate(-435.07 -87.763)" fill="#fff"/><ellipse cx="0.552" cy="0.528" rx="0.552" ry="0.528" transform="translate(34.792 0)" fill="#fff"/><ellipse cx="0.552" cy="0.528" rx="0.552" ry="0.528" transform="translate(39.763 0)" fill="#fff"/><path d="M491.335,88.291a.553.553,0,1,1-.552-.528A.541.541,0,0,1,491.335,88.291Z" transform="translate(-445.498 -87.763)" fill="#fff"/><path d="M499.782,88.291a.553.553,0,1,1-.553-.528A.541.541,0,0,1,499.782,88.291Z" transform="translate(-448.974 -87.763)" fill="#fff"/></g><g transform="translate(0 25.35)"><ellipse cx="0.552" cy="0.528" rx="0.552" ry="0.528" fill="#fff"/><path d="M423.765,95.8a.553.553,0,1,1-.552-.528A.54.54,0,0,1,423.765,95.8Z" transform="translate(-417.69 -95.271)" fill="#fff"/><ellipse cx="0.552" cy="0.528" rx="0.552" ry="0.528" transform="translate(9.941)" fill="#fff"/><path d="M440.658,95.8a.553.553,0,1,1-.553-.528A.541.541,0,0,1,440.658,95.8Z" transform="translate(-424.642 -95.271)" fill="#fff"/><path d="M449.1,95.8a.553.553,0,1,1-.552-.528A.541.541,0,0,1,449.1,95.8Z" transform="translate(-428.118 -95.271)" fill="#fff"/><ellipse cx="0.552" cy="0.528" rx="0.552" ry="0.528" transform="translate(24.852)" fill="#fff"/><path d="M466,95.8a.553.553,0,1,1-.553-.528A.541.541,0,0,1,466,95.8Z" transform="translate(-435.07 -95.271)" fill="#fff"/><ellipse cx="0.552" cy="0.528" rx="0.552" ry="0.528" transform="translate(34.792)" fill="#fff"/><ellipse cx="0.552" cy="0.528" rx="0.552" ry="0.528" transform="translate(39.763)" fill="#fff"/><path d="M491.335,95.8a.553.553,0,1,1-.552-.528A.541.541,0,0,1,491.335,95.8Z" transform="translate(-445.498 -95.271)" fill="#fff"/><path d="M499.782,95.8a.553.553,0,1,1-.553-.528A.541.541,0,0,1,499.782,95.8Z" transform="translate(-448.974 -95.271)" fill="#fff"/></g><g transform="translate(0 29.576)"><path d="M415.319,103.307a.553.553,0,1,1-.553-.528A.541.541,0,0,1,415.319,103.307Z" transform="translate(-414.214 -102.779)" fill="#fff"/><path d="M423.765,103.307a.553.553,0,1,1-.552-.528A.54.54,0,0,1,423.765,103.307Z" transform="translate(-417.69 -102.779)" fill="#fff"/><path d="M432.21,103.307a.553.553,0,1,1-.552-.528A.54.54,0,0,1,432.21,103.307Z" transform="translate(-421.166 -102.779)" fill="#fff"/><path d="M440.658,103.307a.553.553,0,1,1-.553-.528A.541.541,0,0,1,440.658,103.307Z" transform="translate(-424.642 -102.779)" fill="#fff"/><path d="M449.1,103.307a.553.553,0,1,1-.552-.528A.541.541,0,0,1,449.1,103.307Z" transform="translate(-428.118 -102.779)" fill="#fff"/><path d="M457.55,103.307a.553.553,0,1,1-.552-.528A.541.541,0,0,1,457.55,103.307Z" transform="translate(-431.594 -102.779)" fill="#fff"/><path d="M466,103.307a.553.553,0,1,1-.553-.528A.541.541,0,0,1,466,103.307Z" transform="translate(-435.07 -102.779)" fill="#fff"/><path d="M474.443,103.307a.553.553,0,1,1-.552-.528A.54.54,0,0,1,474.443,103.307Z" transform="translate(-438.546 -102.779)" fill="#fff"/><path d="M482.888,103.307a.553.553,0,1,1-.552-.528A.541.541,0,0,1,482.888,103.307Z" transform="translate(-442.022 -102.779)" fill="#fff"/><path d="M491.335,103.307a.553.553,0,1,1-.552-.528A.541.541,0,0,1,491.335,103.307Z" transform="translate(-445.498 -102.779)" fill="#fff"/><path d="M499.782,103.307a.553.553,0,1,1-.553-.528A.541.541,0,0,1,499.782,103.307Z" transform="translate(-448.974 -102.779)" fill="#fff"/></g><g transform="translate(0 33.801)"><ellipse cx="0.552" cy="0.528" rx="0.552" ry="0.528" fill="#fff"/><path d="M423.765,110.815a.553.553,0,1,1-.552-.528A.541.541,0,0,1,423.765,110.815Z" transform="translate(-417.69 -110.287)" fill="#fff"/><ellipse cx="0.552" cy="0.528" rx="0.552" ry="0.528" transform="translate(9.941)" fill="#fff"/><path d="M440.658,110.815a.553.553,0,1,1-.553-.528A.541.541,0,0,1,440.658,110.815Z" transform="translate(-424.642 -110.287)" fill="#fff"/><path d="M449.1,110.815a.553.553,0,1,1-.552-.528A.541.541,0,0,1,449.1,110.815Z" transform="translate(-428.118 -110.287)" fill="#fff"/><ellipse cx="0.552" cy="0.528" rx="0.552" ry="0.528" transform="translate(24.852)" fill="#fff"/><path d="M466,110.815a.553.553,0,1,1-.553-.528A.541.541,0,0,1,466,110.815Z" transform="translate(-435.07 -110.287)" fill="#fff"/><ellipse cx="0.552" cy="0.528" rx="0.552" ry="0.528" transform="translate(34.792)" fill="#fff"/><ellipse cx="0.552" cy="0.528" rx="0.552" ry="0.528" transform="translate(39.763)" fill="#fff"/><path d="M491.335,110.815a.553.553,0,1,1-.552-.528A.541.541,0,0,1,491.335,110.815Z" transform="translate(-445.498 -110.287)" fill="#fff"/><path d="M499.782,110.815a.553.553,0,1,1-.553-.528A.541.541,0,0,1,499.782,110.815Z" transform="translate(-448.974 -110.287)" fill="#fff"/></g><g transform="translate(0 38.025)"><path d="M415.319,118.322a.553.553,0,1,1-.553-.528A.541.541,0,0,1,415.319,118.322Z" transform="translate(-414.214 -117.794)" fill="#fff"/><path d="M423.765,118.322a.553.553,0,1,1-.552-.528A.541.541,0,0,1,423.765,118.322Z" transform="translate(-417.69 -117.794)" fill="#fff"/><path d="M432.21,118.322a.553.553,0,1,1-.552-.528A.541.541,0,0,1,432.21,118.322Z" transform="translate(-421.166 -117.794)" fill="#fff"/><path d="M440.658,118.322a.553.553,0,1,1-.553-.528A.541.541,0,0,1,440.658,118.322Z" transform="translate(-424.642 -117.794)" fill="#fff"/><path d="M449.1,118.322a.553.553,0,1,1-.552-.528A.541.541,0,0,1,449.1,118.322Z" transform="translate(-428.118 -117.794)" fill="#fff"/><path d="M457.55,118.322a.553.553,0,1,1-.552-.528A.541.541,0,0,1,457.55,118.322Z" transform="translate(-431.594 -117.794)" fill="#fff"/><path d="M466,118.322a.553.553,0,1,1-.553-.528A.541.541,0,0,1,466,118.322Z" transform="translate(-435.07 -117.794)" fill="#fff"/><path d="M474.443,118.322a.553.553,0,1,1-.552-.528A.541.541,0,0,1,474.443,118.322Z" transform="translate(-438.546 -117.794)" fill="#fff"/><path d="M482.888,118.322a.553.553,0,1,1-.552-.528A.541.541,0,0,1,482.888,118.322Z" transform="translate(-442.022 -117.794)" fill="#fff"/><path d="M491.335,118.322a.553.553,0,1,1-.552-.528A.541.541,0,0,1,491.335,118.322Z" transform="translate(-445.498 -117.794)" fill="#fff"/><path d="M499.782,118.322a.553.553,0,1,1-.553-.528A.541.541,0,0,1,499.782,118.322Z" transform="translate(-448.974 -117.794)" fill="#fff"/></g><g transform="translate(0 42.251)"><ellipse cx="0.552" cy="0.528" rx="0.552" ry="0.528" transform="translate(0 0)" fill="#fff"/><path d="M423.765,125.83a.553.553,0,1,1-.552-.528A.54.54,0,0,1,423.765,125.83Z" transform="translate(-417.69 -125.302)" fill="#fff"/><ellipse cx="0.552" cy="0.528" rx="0.552" ry="0.528" transform="translate(9.941 0)" fill="#fff"/><path d="M440.658,125.83a.553.553,0,1,1-.553-.528A.541.541,0,0,1,440.658,125.83Z" transform="translate(-424.642 -125.302)" fill="#fff"/><path d="M449.1,125.83a.553.553,0,1,1-.552-.528A.54.54,0,0,1,449.1,125.83Z" transform="translate(-428.118 -125.302)" fill="#fff"/><ellipse cx="0.552" cy="0.528" rx="0.552" ry="0.528" transform="translate(24.852 0)" fill="#fff"/><path d="M466,125.83a.553.553,0,1,1-.553-.528A.541.541,0,0,1,466,125.83Z" transform="translate(-435.07 -125.302)" fill="#fff"/><ellipse cx="0.552" cy="0.528" rx="0.552" ry="0.528" transform="translate(34.792 0)" fill="#fff"/><ellipse cx="0.552" cy="0.528" rx="0.552" ry="0.528" transform="translate(39.763 0)" fill="#fff"/><path d="M491.335,125.83a.553.553,0,1,1-.552-.528A.541.541,0,0,1,491.335,125.83Z" transform="translate(-445.498 -125.302)" fill="#fff"/><path d="M499.782,125.83a.553.553,0,1,1-.553-.528A.541.541,0,0,1,499.782,125.83Z" transform="translate(-448.974 -125.302)" fill="#fff"/></g><g transform="translate(0 46.476)"><ellipse cx="0.552" cy="0.528" rx="0.552" ry="0.528" transform="translate(0 0)" fill="#fff"/><path d="M423.765,133.338a.553.553,0,1,1-.552-.528A.54.54,0,0,1,423.765,133.338Z" transform="translate(-417.69 -132.81)" fill="#fff"/><ellipse cx="0.552" cy="0.528" rx="0.552" ry="0.528" transform="translate(9.941 0)" fill="#fff"/><path d="M440.658,133.338a.553.553,0,1,1-.553-.528A.541.541,0,0,1,440.658,133.338Z" transform="translate(-424.642 -132.81)" fill="#fff"/><path d="M449.1,133.338a.553.553,0,1,1-.552-.528A.54.54,0,0,1,449.1,133.338Z" transform="translate(-428.118 -132.81)" fill="#fff"/><ellipse cx="0.552" cy="0.528" rx="0.552" ry="0.528" transform="translate(24.852 0)" fill="#fff"/><path d="M466,133.338a.553.553,0,1,1-.553-.528A.541.541,0,0,1,466,133.338Z" transform="translate(-435.07 -132.81)" fill="#fff"/><ellipse cx="0.552" cy="0.528" rx="0.552" ry="0.528" transform="translate(34.792 0)" fill="#fff"/><ellipse cx="0.552" cy="0.528" rx="0.552" ry="0.528" transform="translate(39.763 0)" fill="#fff"/><path d="M491.335,133.338a.553.553,0,1,1-.552-.528A.541.541,0,0,1,491.335,133.338Z" transform="translate(-445.498 -132.81)" fill="#fff"/><path d="M499.782,133.338a.553.553,0,1,1-.553-.528A.541.541,0,0,1,499.782,133.338Z" transform="translate(-448.974 -132.81)" fill="#fff"/></g></g></g><g transform="translate(5174.333 -9949.667)"><g transform="translate(1.828 1.828)"><g transform="translate(0 6.624)"><path d="M23.527,16.624v7.452a.83.83,0,0,1-.828.828H2.828A.83.83,0,0,1,2,24.075V10H23.527Z" transform="translate(-2 -10)" fill="#e6e9ed"/></g><g transform="translate(28.151 9.936)"><path d="M57.527,14V28.075a.83.83,0,0,1-.828.828H36.828A.83.83,0,0,1,36,28.075V14Z" transform="translate(-36 -14)" fill="#e6e9ed"/></g><g transform="translate(0)"><path d="M2,8.624v-5.8A.83.83,0,0,1,2.828,2H22.7a.83.83,0,0,1,.828.828v5.8Z" transform="translate(-2 -2)" fill="#b4dd7f"/></g><g transform="translate(28.151 3.312)"><path d="M36,12.624v-5.8A.83.83,0,0,1,36.828,6H56.7a.83.83,0,0,1,.828.828v5.8Z" transform="translate(-36 -6)" fill="#b4dd7f"/></g><g transform="translate(3.312 9.936)"><path d="M6,14H9.312v4.968H6Z" transform="translate(-6 -14)" fill="#ff826e"/></g><g transform="translate(38.087 38.087)"><circle cx="3.5" cy="3.5" r="3.5" transform="translate(-0.248 -0.248)" fill="#ff826e"/></g><g transform="translate(31.463 13.247)"><path d="M40,18h3.312v4.968H40Z" transform="translate(-40 -18)" fill="#fcd770"/></g><g transform="translate(16.51 33.119)"><path d="M38.549,50.28v3.312a4.972,4.972,0,0,1-4.968,4.968H23.646V56.324a4.926,4.926,0,0,0-1.656-3.7L22,52.615l-.008-9.787a6.806,6.806,0,0,0-.05-.82L21.99,42H38.549Z" transform="translate(-21.94 -42)" fill="#e6e9ed"/></g><g transform="translate(13.786 28.151)"><path d="M18.658,36h18.5a.83.83,0,0,1,.828.828v4.14H21.424l-.05.008a7.354,7.354,0,0,0-2.136-4.446,5.878,5.878,0,0,0-.588-.522Z" transform="translate(-18.65 -36)" fill="#b4dd7f"/></g><g transform="translate(1.656 26.495)"><path d="M11.452,38.968l-.646.646a5.983,5.983,0,0,1-2.36,1.457,1.664,1.664,0,0,0-1.134,1.573v2.12A3.3,3.3,0,0,0,9.44,47.852v.008l-.058.224a2.473,2.473,0,0,1-1.962,1.83l-.141.025-.58.075a4.907,4.907,0,0,0-2.691,1.234L4,51.238V41.452A7.452,7.452,0,0,1,11.452,34a7.363,7.363,0,0,1,4.678,1.664,5.877,5.877,0,0,1,.588.522,7.354,7.354,0,0,1,2.136,4.446,6.806,6.806,0,0,1,.05.82l.008,9.787-.008.008a4.932,4.932,0,0,0-2.7-1.234l-.58-.075-.141-.025a2.473,2.473,0,0,1-1.962-1.83l-.058-.224v-.008a3.3,3.3,0,0,0,2.128-3.088v-2.12a1.664,1.664,0,0,0-1.134-1.573,5.983,5.983,0,0,1-2.36-1.457Z" transform="translate(-4 -34)" fill="#656d78"/></g><g transform="translate(0 42.408)"><path d="M8.806,56.35l2.3,4.14H2V58.254a5,5,0,0,1,4.355-4.935l.58-.075.141-.025v.008Z" transform="translate(-2 -53.22)" fill="#4fc1e9"/></g><g transform="translate(9.108 42.408)"><path d="M17.032,53.228V53.22l.141.025.58.075a4.983,4.983,0,0,1,4.355,4.935V60.49H13l2.3-4.14Z" transform="translate(-13 -53.22)" fill="#4fc1e9"/></g><g transform="translate(6.806 45.538)"><path d="M14.823,57l-2.3,4.14L10.22,57Z" transform="translate(-10.22 -57)" fill="#ffeaa7"/></g><g transform="translate(5.075 40.347)"><path d="M14.232,50.962a2.473,2.473,0,0,0,1.962,1.83V52.8l-1.73,3.121H9.86L8.13,52.8v-.008a2.473,2.473,0,0,0,1.962-1.83l.058-.224V50.73a3.107,3.107,0,0,0,1.184.224H12.99a3.107,3.107,0,0,0,1.184-.224v.008Z" transform="translate(-8.13 -50.73)" fill="#f0d0b4"/></g><g transform="translate(4.968 31.463)"><path d="M16.28,43.676V45.8a3.3,3.3,0,0,1-2.128,3.088,3.107,3.107,0,0,1-1.184.224H11.312a3.107,3.107,0,0,1-1.184-.224A3.3,3.3,0,0,1,8,45.8v-2.12A1.664,1.664,0,0,1,9.134,42.1a5.983,5.983,0,0,0,2.36-1.457L12.14,40l.646.646a5.983,5.983,0,0,0,2.36,1.457A1.664,1.664,0,0,1,16.28,43.676Z" transform="translate(-8 -40)" fill="#f0d0b4"/></g></g><g transform="translate(1 1)"><path d="M5,5H6.656V6.656H5Z" transform="translate(-1.688 -1.688)"/><path d="M9,5h1.656V6.656H9Z" transform="translate(-2.376 -1.688)"/><path d="M5,19.624H9.968V13H5Zm1.656-4.968H8.312v3.312H6.656Z" transform="translate(-1.688 -3.064)"/><path d="M13,13h9.936v1.656H13Z" transform="translate(-3.064 -3.064)"/><path d="M13,17h9.936v1.656H13Z" transform="translate(-3.064 -3.753)"/><path d="M5,23H6.656v1.656H5Z" transform="translate(-1.688 -4.785)"/><path d="M9,23h1.656v1.656H9Z" transform="translate(-2.376 -4.785)"/><path d="M13,21h9.936v1.656H13Z" transform="translate(-3.064 -4.441)"/><path d="M13,5h1.656V6.656H13Z" transform="translate(-3.064 -1.688)"/><path d="M50.678,4.312H30.807a1.658,1.658,0,0,0-1.656,1.656v8.28H24.183V2.656A1.658,1.658,0,0,0,22.527,1H2.656A1.658,1.658,0,0,0,1,2.656V22.527a1.658,1.658,0,0,0,1.656,1.656H22.527a1.658,1.658,0,0,0,1.656-1.656V15.9h4.968v9.936a1.658,1.658,0,0,0,1.656,1.656H42.4V39.17A4.153,4.153,0,0,0,39.17,42.4h-3.4V30.807a1.658,1.658,0,0,0-1.656-1.656H15.882A8.264,8.264,0,0,0,2.656,35.775v9.449A5.784,5.784,0,0,0,1,49.268v3.066H29.979a5.8,5.8,0,0,0,5.8-5.8V44.054h3.4a4.14,4.14,0,1,0,4.884-4.884V27.495h6.624a1.658,1.658,0,0,0,1.656-1.656V5.968A1.658,1.658,0,0,0,50.678,4.312ZM22.527,2.656V7.624H2.656V2.656ZM2.656,22.527V9.28H22.527V22.527ZM34.119,34.119H19.048a8.239,8.239,0,0,0-1.505-3.312H34.119Zm-23.246.406.063-.063.063.063a6.877,6.877,0,0,0,2.683,1.658.827.827,0,0,1,.566.786v2.119a2.487,2.487,0,0,1-2.484,2.484H10.108a2.487,2.487,0,0,1-2.484-2.484V36.968a.827.827,0,0,1,.567-.786,6.893,6.893,0,0,0,2.682-1.658ZM9.468,43.162a4.069,4.069,0,0,0,.64.065h1.656a4.09,4.09,0,0,0,.641-.065,3.341,3.341,0,0,0,1.383,1.509l-1.038,1.868H9.122L8.084,44.669A3.337,3.337,0,0,0,9.468,43.162Zm2.361,5.032L10.936,49.8l-.893-1.607Zm3.592-3.055.169.022a4.145,4.145,0,0,1,3.626,4.108v1.41H12.343ZM10.936,29.151a6.632,6.632,0,0,1,6.624,6.625l.01,8.267a5.746,5.746,0,0,0-1.774-.526l-.584-.073a1.66,1.66,0,0,1-1.244-.866A4.134,4.134,0,0,0,15.9,39.087V36.968a2.481,2.481,0,0,0-1.7-2.356h0a5.233,5.233,0,0,1-2.035-1.258l-.406-.406V30.807H10.108v2.141l-.406.406a5.224,5.224,0,0,1-2.036,1.258,2.481,2.481,0,0,0-1.7,2.356v2.119A4.131,4.131,0,0,0,7.9,42.577a1.66,1.66,0,0,1-1.244.866l-.582.073a5.783,5.783,0,0,0-1.765.522V35.775a6.631,6.631,0,0,1,6.624-6.624ZM2.656,49.268A4.146,4.146,0,0,1,6.283,45.16l.168-.021,3.077,5.538H2.656Zm27.323,1.41H20.871v-1.41a5.783,5.783,0,0,0-1.645-4.033l-.011-9.46h14.9V46.538a4.145,4.145,0,0,1-4.14,4.14ZM45.71,43.226a2.484,2.484,0,1,1-2.484-2.484A2.487,2.487,0,0,1,45.71,43.226ZM50.678,5.968v4.968H30.807V5.968ZM30.807,25.839V12.592H50.678V25.839Z" transform="translate(-1 -1)"/><path d="M39,9h1.656v1.656H39Z" transform="translate(-7.537 -2.376)"/><path d="M43,9h1.656v1.656H43Z" transform="translate(-8.225 -2.376)"/><path d="M39,23.624h4.968V17H39Zm1.656-4.968h1.656v3.312H40.656Z" transform="translate(-7.537 -3.753)"/><path d="M47,17h9.936v1.656H47Z" transform="translate(-8.913 -3.753)"/><path d="M47,21h9.936v1.656H47Z" transform="translate(-8.913 -4.441)"/><path d="M39,27h1.656v1.656H39Z" transform="translate(-7.537 -5.473)"/><path d="M43,27h1.656v1.656H43Z" transform="translate(-8.225 -5.473)"/><path d="M47,25h9.936v1.656H47Z" transform="translate(-8.913 -5.129)"/><path d="M47,9h1.656v1.656H47Z" transform="translate(-8.913 -2.376)"/><path d="M25,45h3.312v1.656H25Z" transform="translate(-5.129 -8.569)"/><path d="M31,45h6.624v1.656H31Z" transform="translate(-6.161 -8.569)"/><path d="M25,49H36.592v1.656H25Z" transform="translate(-5.129 -9.258)"/><path d="M25,53h4.968v1.656H25Z" transform="translate(-5.129 -9.946)"/><path d="M33,53h4.968v1.656H33Z" transform="translate(-6.505 -9.946)"/><path d="M27,57h1.656v1.656H27Z" transform="translate(-5.473 -10.634)"/><path d="M31,57h1.656v1.656H31Z" transform="translate(-6.161 -10.634)"/></g></g></g></g></svg>