<svg xmlns="http://www.w3.org/2000/svg" xmlns:xlink="http://www.w3.org/1999/xlink" width="84.696" height="81.342" viewBox="0 0 84.696 81.342"><defs><clipPath id="a"><path d="M0-682.665H46.665V-636H0Z"/></clipPath></defs><g transform="translate(-1125.305 -1101.514)"><g transform="translate(0 -312.637)"><g transform="translate(1125.305 1414.15)"><path d="M32.829,61.313A32.866,32.866,0,0,0,0,28.484V0A61.382,61.382,0,0,1,61.313,61.313Z" transform="translate(23.383 20.029)" fill="#22cac5"/><path d="M40.671,0A40.671,40.671,0,1,1,0,40.671,40.671,40.671,0,0,1,40.671,0Z" transform="translate(0)" fill="#31313c" opacity="0.444" style="mix-blend-mode:multiply;isolation:isolate"/><g transform="translate(15.879 16.813)"><path d="M415.319,50.752a.553.553,0,1,1-.553-.528A.541.541,0,0,1,415.319,50.752Z" transform="translate(-414.214 -50.224)" fill="#fff"/><path d="M423.765,50.752a.553.553,0,1,1-.552-.528A.54.54,0,0,1,423.765,50.752Z" transform="translate(-417.69 -50.224)" fill="#fff"/><path d="M432.21,50.752a.553.553,0,1,1-.552-.528A.54.54,0,0,1,432.21,50.752Z" transform="translate(-421.166 -50.224)" fill="#fff"/><path d="M440.658,50.752a.553.553,0,1,1-.553-.528A.541.541,0,0,1,440.658,50.752Z" transform="translate(-424.642 -50.224)" fill="#fff"/><path d="M449.1,50.752a.553.553,0,1,1-.552-.528A.541.541,0,0,1,449.1,50.752Z" transform="translate(-428.118 -50.224)" fill="#fff"/><path d="M457.55,50.752a.553.553,0,1,1-.552-.528A.541.541,0,0,1,457.55,50.752Z" transform="translate(-431.594 -50.224)" fill="#fff"/><path d="M466,50.752a.553.553,0,1,1-.553-.528A.541.541,0,0,1,466,50.752Z" transform="translate(-435.07 -50.224)" fill="#fff"/><path d="M474.443,50.752a.553.553,0,1,1-.552-.528A.54.54,0,0,1,474.443,50.752Z" transform="translate(-438.546 -50.224)" fill="#fff"/><path d="M482.888,50.752a.553.553,0,1,1-.552-.528A.541.541,0,0,1,482.888,50.752Z" transform="translate(-442.022 -50.224)" fill="#fff"/><path d="M491.335,50.752a.553.553,0,1,1-.552-.528A.541.541,0,0,1,491.335,50.752Z" transform="translate(-445.498 -50.224)" fill="#fff"/><path d="M499.782,50.752a.553.553,0,1,1-.553-.528A.541.541,0,0,1,499.782,50.752Z" transform="translate(-448.974 -50.224)" fill="#fff"/><g transform="translate(0 4.225)"><path d="M415.319,58.26a.553.553,0,1,1-.553-.528A.541.541,0,0,1,415.319,58.26Z" transform="translate(-414.214 -57.732)" fill="#fff"/><path d="M423.765,58.26a.553.553,0,1,1-.552-.528A.54.54,0,0,1,423.765,58.26Z" transform="translate(-417.69 -57.732)" fill="#fff"/><path d="M432.21,58.26a.553.553,0,1,1-.552-.528A.54.54,0,0,1,432.21,58.26Z" transform="translate(-421.166 -57.732)" fill="#fff"/><path d="M440.658,58.26a.553.553,0,1,1-.553-.528A.541.541,0,0,1,440.658,58.26Z" transform="translate(-424.642 -57.732)" fill="#fff"/><path d="M449.1,58.26a.553.553,0,1,1-.552-.528A.54.54,0,0,1,449.1,58.26Z" transform="translate(-428.118 -57.732)" fill="#fff"/><path d="M457.55,58.26a.553.553,0,1,1-.552-.528A.54.54,0,0,1,457.55,58.26Z" transform="translate(-431.594 -57.732)" fill="#fff"/><path d="M466,58.26a.553.553,0,1,1-.553-.528A.541.541,0,0,1,466,58.26Z" transform="translate(-435.07 -57.732)" fill="#fff"/><path d="M474.443,58.26a.553.553,0,1,1-.552-.528A.54.54,0,0,1,474.443,58.26Z" transform="translate(-438.546 -57.732)" fill="#fff"/><path d="M482.888,58.26a.553.553,0,1,1-.552-.528A.541.541,0,0,1,482.888,58.26Z" transform="translate(-442.022 -57.732)" fill="#fff"/><path d="M491.335,58.26a.553.553,0,1,1-.552-.528A.541.541,0,0,1,491.335,58.26Z" transform="translate(-445.498 -57.732)" fill="#fff"/><path d="M499.782,58.26a.553.553,0,1,1-.553-.528A.541.541,0,0,1,499.782,58.26Z" transform="translate(-448.974 -57.732)" fill="#fff"/></g><g transform="translate(0 8.45)"><ellipse cx="0.552" cy="0.528" rx="0.552" ry="0.528" fill="#fff"/><path d="M423.765,65.768a.553.553,0,1,1-.552-.528A.541.541,0,0,1,423.765,65.768Z" transform="translate(-417.69 -65.24)" fill="#fff"/><ellipse cx="0.552" cy="0.528" rx="0.552" ry="0.528" transform="translate(9.941)" fill="#fff"/><path d="M440.658,65.768a.553.553,0,1,1-.553-.528A.541.541,0,0,1,440.658,65.768Z" transform="translate(-424.642 -65.24)" fill="#fff"/><path d="M449.1,65.768a.553.553,0,1,1-.552-.528A.541.541,0,0,1,449.1,65.768Z" transform="translate(-428.118 -65.24)" fill="#fff"/><ellipse cx="0.552" cy="0.528" rx="0.552" ry="0.528" transform="translate(24.852)" fill="#fff"/><path d="M466,65.768a.553.553,0,1,1-.553-.528A.541.541,0,0,1,466,65.768Z" transform="translate(-435.07 -65.24)" fill="#fff"/><ellipse cx="0.552" cy="0.528" rx="0.552" ry="0.528" transform="translate(34.792)" fill="#fff"/><ellipse cx="0.552" cy="0.528" rx="0.552" ry="0.528" transform="translate(39.763)" fill="#fff"/><path d="M491.335,65.768a.553.553,0,1,1-.552-.528A.541.541,0,0,1,491.335,65.768Z" transform="translate(-445.498 -65.24)" fill="#fff"/><path d="M499.782,65.768a.553.553,0,1,1-.553-.528A.541.541,0,0,1,499.782,65.768Z" transform="translate(-448.974 -65.24)" fill="#fff"/></g><g transform="translate(0 12.675)"><ellipse cx="0.552" cy="0.528" rx="0.552" ry="0.528" transform="translate(0 0)" fill="#fff"/><path d="M423.765,73.275a.553.553,0,1,1-.552-.528A.54.54,0,0,1,423.765,73.275Z" transform="translate(-417.69 -72.747)" fill="#fff"/><ellipse cx="0.552" cy="0.528" rx="0.552" ry="0.528" transform="translate(9.941 0)" fill="#fff"/><path d="M440.658,73.275a.553.553,0,1,1-.553-.528A.541.541,0,0,1,440.658,73.275Z" transform="translate(-424.642 -72.747)" fill="#fff"/><path d="M449.1,73.275a.553.553,0,1,1-.552-.528A.54.54,0,0,1,449.1,73.275Z" transform="translate(-428.118 -72.747)" fill="#fff"/><ellipse cx="0.552" cy="0.528" rx="0.552" ry="0.528" transform="translate(24.852 0)" fill="#fff"/><path d="M466,73.275a.553.553,0,1,1-.553-.528A.541.541,0,0,1,466,73.275Z" transform="translate(-435.07 -72.747)" fill="#fff"/><ellipse cx="0.552" cy="0.528" rx="0.552" ry="0.528" transform="translate(34.792 0)" fill="#fff"/><ellipse cx="0.552" cy="0.528" rx="0.552" ry="0.528" transform="translate(39.763 0)" fill="#fff"/><path d="M491.335,73.275a.553.553,0,1,1-.552-.528A.541.541,0,0,1,491.335,73.275Z" transform="translate(-445.498 -72.747)" fill="#fff"/><path d="M499.782,73.275a.553.553,0,1,1-.553-.528A.541.541,0,0,1,499.782,73.275Z" transform="translate(-448.974 -72.747)" fill="#fff"/></g><g transform="translate(0 16.9)"><path d="M415.319,80.783a.553.553,0,1,1-.553-.528A.541.541,0,0,1,415.319,80.783Z" transform="translate(-414.214 -80.255)" fill="#fff"/><path d="M423.765,80.783a.553.553,0,1,1-.552-.528A.54.54,0,0,1,423.765,80.783Z" transform="translate(-417.69 -80.255)" fill="#fff"/><path d="M432.21,80.783a.553.553,0,1,1-.552-.528A.54.54,0,0,1,432.21,80.783Z" transform="translate(-421.166 -80.255)" fill="#fff"/><path d="M440.658,80.783a.553.553,0,1,1-.553-.528A.541.541,0,0,1,440.658,80.783Z" transform="translate(-424.642 -80.255)" fill="#fff"/><path d="M449.1,80.783a.553.553,0,1,1-.552-.528A.54.54,0,0,1,449.1,80.783Z" transform="translate(-428.118 -80.255)" fill="#fff"/><path d="M457.55,80.783a.553.553,0,1,1-.552-.528A.54.54,0,0,1,457.55,80.783Z" transform="translate(-431.594 -80.255)" fill="#fff"/><path d="M466,80.783a.553.553,0,1,1-.553-.528A.541.541,0,0,1,466,80.783Z" transform="translate(-435.07 -80.255)" fill="#fff"/><path d="M474.443,80.783a.553.553,0,1,1-.552-.528A.54.54,0,0,1,474.443,80.783Z" transform="translate(-438.546 -80.255)" fill="#fff"/><path d="M482.888,80.783a.553.553,0,1,1-.552-.528A.54.54,0,0,1,482.888,80.783Z" transform="translate(-442.022 -80.255)" fill="#fff"/><path d="M491.335,80.783a.553.553,0,1,1-.552-.528A.541.541,0,0,1,491.335,80.783Z" transform="translate(-445.498 -80.255)" fill="#fff"/><path d="M499.782,80.783a.553.553,0,1,1-.553-.528A.541.541,0,0,1,499.782,80.783Z" transform="translate(-448.974 -80.255)" fill="#fff"/></g><g transform="translate(0 21.125)"><ellipse cx="0.552" cy="0.528" rx="0.552" ry="0.528" transform="translate(0 0)" fill="#fff"/><path d="M423.765,88.291a.553.553,0,1,1-.552-.528A.54.54,0,0,1,423.765,88.291Z" transform="translate(-417.69 -87.763)" fill="#fff"/><ellipse cx="0.552" cy="0.528" rx="0.552" ry="0.528" transform="translate(9.941 0)" fill="#fff"/><path d="M440.658,88.291a.553.553,0,1,1-.553-.528A.541.541,0,0,1,440.658,88.291Z" transform="translate(-424.642 -87.763)" fill="#fff"/><path d="M449.1,88.291a.553.553,0,1,1-.552-.528A.54.54,0,0,1,449.1,88.291Z" transform="translate(-428.118 -87.763)" fill="#fff"/><ellipse cx="0.552" cy="0.528" rx="0.552" ry="0.528" transform="translate(24.852 0)" fill="#fff"/><path d="M466,88.291a.553.553,0,1,1-.553-.528A.541.541,0,0,1,466,88.291Z" transform="translate(-435.07 -87.763)" fill="#fff"/><ellipse cx="0.552" cy="0.528" rx="0.552" ry="0.528" transform="translate(34.792 0)" fill="#fff"/><ellipse cx="0.552" cy="0.528" rx="0.552" ry="0.528" transform="translate(39.763 0)" fill="#fff"/><path d="M491.335,88.291a.553.553,0,1,1-.552-.528A.541.541,0,0,1,491.335,88.291Z" transform="translate(-445.498 -87.763)" fill="#fff"/><path d="M499.782,88.291a.553.553,0,1,1-.553-.528A.541.541,0,0,1,499.782,88.291Z" transform="translate(-448.974 -87.763)" fill="#fff"/></g><g transform="translate(0 25.35)"><ellipse cx="0.552" cy="0.528" rx="0.552" ry="0.528" fill="#fff"/><path d="M423.765,95.8a.553.553,0,1,1-.552-.528A.54.54,0,0,1,423.765,95.8Z" transform="translate(-417.69 -95.271)" fill="#fff"/><ellipse cx="0.552" cy="0.528" rx="0.552" ry="0.528" transform="translate(9.941)" fill="#fff"/><path d="M440.658,95.8a.553.553,0,1,1-.553-.528A.541.541,0,0,1,440.658,95.8Z" transform="translate(-424.642 -95.271)" fill="#fff"/><path d="M449.1,95.8a.553.553,0,1,1-.552-.528A.541.541,0,0,1,449.1,95.8Z" transform="translate(-428.118 -95.271)" fill="#fff"/><ellipse cx="0.552" cy="0.528" rx="0.552" ry="0.528" transform="translate(24.852)" fill="#fff"/><path d="M466,95.8a.553.553,0,1,1-.553-.528A.541.541,0,0,1,466,95.8Z" transform="translate(-435.07 -95.271)" fill="#fff"/><ellipse cx="0.552" cy="0.528" rx="0.552" ry="0.528" transform="translate(34.792)" fill="#fff"/><ellipse cx="0.552" cy="0.528" rx="0.552" ry="0.528" transform="translate(39.763)" fill="#fff"/><path d="M491.335,95.8a.553.553,0,1,1-.552-.528A.541.541,0,0,1,491.335,95.8Z" transform="translate(-445.498 -95.271)" fill="#fff"/><path d="M499.782,95.8a.553.553,0,1,1-.553-.528A.541.541,0,0,1,499.782,95.8Z" transform="translate(-448.974 -95.271)" fill="#fff"/></g><g transform="translate(0 29.576)"><path d="M415.319,103.307a.553.553,0,1,1-.553-.528A.541.541,0,0,1,415.319,103.307Z" transform="translate(-414.214 -102.779)" fill="#fff"/><path d="M423.765,103.307a.553.553,0,1,1-.552-.528A.54.54,0,0,1,423.765,103.307Z" transform="translate(-417.69 -102.779)" fill="#fff"/><path d="M432.21,103.307a.553.553,0,1,1-.552-.528A.54.54,0,0,1,432.21,103.307Z" transform="translate(-421.166 -102.779)" fill="#fff"/><path d="M440.658,103.307a.553.553,0,1,1-.553-.528A.541.541,0,0,1,440.658,103.307Z" transform="translate(-424.642 -102.779)" fill="#fff"/><path d="M449.1,103.307a.553.553,0,1,1-.552-.528A.541.541,0,0,1,449.1,103.307Z" transform="translate(-428.118 -102.779)" fill="#fff"/><path d="M457.55,103.307a.553.553,0,1,1-.552-.528A.541.541,0,0,1,457.55,103.307Z" transform="translate(-431.594 -102.779)" fill="#fff"/><path d="M466,103.307a.553.553,0,1,1-.553-.528A.541.541,0,0,1,466,103.307Z" transform="translate(-435.07 -102.779)" fill="#fff"/><path d="M474.443,103.307a.553.553,0,1,1-.552-.528A.54.54,0,0,1,474.443,103.307Z" transform="translate(-438.546 -102.779)" fill="#fff"/><path d="M482.888,103.307a.553.553,0,1,1-.552-.528A.541.541,0,0,1,482.888,103.307Z" transform="translate(-442.022 -102.779)" fill="#fff"/><path d="M491.335,103.307a.553.553,0,1,1-.552-.528A.541.541,0,0,1,491.335,103.307Z" transform="translate(-445.498 -102.779)" fill="#fff"/><path d="M499.782,103.307a.553.553,0,1,1-.553-.528A.541.541,0,0,1,499.782,103.307Z" transform="translate(-448.974 -102.779)" fill="#fff"/></g><g transform="translate(0 33.801)"><ellipse cx="0.552" cy="0.528" rx="0.552" ry="0.528" fill="#fff"/><path d="M423.765,110.815a.553.553,0,1,1-.552-.528A.541.541,0,0,1,423.765,110.815Z" transform="translate(-417.69 -110.287)" fill="#fff"/><ellipse cx="0.552" cy="0.528" rx="0.552" ry="0.528" transform="translate(9.941)" fill="#fff"/><path d="M440.658,110.815a.553.553,0,1,1-.553-.528A.541.541,0,0,1,440.658,110.815Z" transform="translate(-424.642 -110.287)" fill="#fff"/><path d="M449.1,110.815a.553.553,0,1,1-.552-.528A.541.541,0,0,1,449.1,110.815Z" transform="translate(-428.118 -110.287)" fill="#fff"/><ellipse cx="0.552" cy="0.528" rx="0.552" ry="0.528" transform="translate(24.852)" fill="#fff"/><path d="M466,110.815a.553.553,0,1,1-.553-.528A.541.541,0,0,1,466,110.815Z" transform="translate(-435.07 -110.287)" fill="#fff"/><ellipse cx="0.552" cy="0.528" rx="0.552" ry="0.528" transform="translate(34.792)" fill="#fff"/><ellipse cx="0.552" cy="0.528" rx="0.552" ry="0.528" transform="translate(39.763)" fill="#fff"/><path d="M491.335,110.815a.553.553,0,1,1-.552-.528A.541.541,0,0,1,491.335,110.815Z" transform="translate(-445.498 -110.287)" fill="#fff"/><path d="M499.782,110.815a.553.553,0,1,1-.553-.528A.541.541,0,0,1,499.782,110.815Z" transform="translate(-448.974 -110.287)" fill="#fff"/></g><g transform="translate(0 38.025)"><path d="M415.319,118.322a.553.553,0,1,1-.553-.528A.541.541,0,0,1,415.319,118.322Z" transform="translate(-414.214 -117.794)" fill="#fff"/><path d="M423.765,118.322a.553.553,0,1,1-.552-.528A.541.541,0,0,1,423.765,118.322Z" transform="translate(-417.69 -117.794)" fill="#fff"/><path d="M432.21,118.322a.553.553,0,1,1-.552-.528A.541.541,0,0,1,432.21,118.322Z" transform="translate(-421.166 -117.794)" fill="#fff"/><path d="M440.658,118.322a.553.553,0,1,1-.553-.528A.541.541,0,0,1,440.658,118.322Z" transform="translate(-424.642 -117.794)" fill="#fff"/><path d="M449.1,118.322a.553.553,0,1,1-.552-.528A.541.541,0,0,1,449.1,118.322Z" transform="translate(-428.118 -117.794)" fill="#fff"/><path d="M457.55,118.322a.553.553,0,1,1-.552-.528A.541.541,0,0,1,457.55,118.322Z" transform="translate(-431.594 -117.794)" fill="#fff"/><path d="M466,118.322a.553.553,0,1,1-.553-.528A.541.541,0,0,1,466,118.322Z" transform="translate(-435.07 -117.794)" fill="#fff"/><path d="M474.443,118.322a.553.553,0,1,1-.552-.528A.541.541,0,0,1,474.443,118.322Z" transform="translate(-438.546 -117.794)" fill="#fff"/><path d="M482.888,118.322a.553.553,0,1,1-.552-.528A.541.541,0,0,1,482.888,118.322Z" transform="translate(-442.022 -117.794)" fill="#fff"/><path d="M491.335,118.322a.553.553,0,1,1-.552-.528A.541.541,0,0,1,491.335,118.322Z" transform="translate(-445.498 -117.794)" fill="#fff"/><path d="M499.782,118.322a.553.553,0,1,1-.553-.528A.541.541,0,0,1,499.782,118.322Z" transform="translate(-448.974 -117.794)" fill="#fff"/></g><g transform="translate(0 42.251)"><ellipse cx="0.552" cy="0.528" rx="0.552" ry="0.528" transform="translate(0 0)" fill="#fff"/><path d="M423.765,125.83a.553.553,0,1,1-.552-.528A.54.54,0,0,1,423.765,125.83Z" transform="translate(-417.69 -125.302)" fill="#fff"/><ellipse cx="0.552" cy="0.528" rx="0.552" ry="0.528" transform="translate(9.941 0)" fill="#fff"/><path d="M440.658,125.83a.553.553,0,1,1-.553-.528A.541.541,0,0,1,440.658,125.83Z" transform="translate(-424.642 -125.302)" fill="#fff"/><path d="M449.1,125.83a.553.553,0,1,1-.552-.528A.54.54,0,0,1,449.1,125.83Z" transform="translate(-428.118 -125.302)" fill="#fff"/><ellipse cx="0.552" cy="0.528" rx="0.552" ry="0.528" transform="translate(24.852 0)" fill="#fff"/><path d="M466,125.83a.553.553,0,1,1-.553-.528A.541.541,0,0,1,466,125.83Z" transform="translate(-435.07 -125.302)" fill="#fff"/><ellipse cx="0.552" cy="0.528" rx="0.552" ry="0.528" transform="translate(34.792 0)" fill="#fff"/><ellipse cx="0.552" cy="0.528" rx="0.552" ry="0.528" transform="translate(39.763 0)" fill="#fff"/><path d="M491.335,125.83a.553.553,0,1,1-.552-.528A.541.541,0,0,1,491.335,125.83Z" transform="translate(-445.498 -125.302)" fill="#fff"/><path d="M499.782,125.83a.553.553,0,1,1-.553-.528A.541.541,0,0,1,499.782,125.83Z" transform="translate(-448.974 -125.302)" fill="#fff"/></g><g transform="translate(0 46.476)"><ellipse cx="0.552" cy="0.528" rx="0.552" ry="0.528" transform="translate(0 0)" fill="#fff"/><path d="M423.765,133.338a.553.553,0,1,1-.552-.528A.54.54,0,0,1,423.765,133.338Z" transform="translate(-417.69 -132.81)" fill="#fff"/><ellipse cx="0.552" cy="0.528" rx="0.552" ry="0.528" transform="translate(9.941 0)" fill="#fff"/><path d="M440.658,133.338a.553.553,0,1,1-.553-.528A.541.541,0,0,1,440.658,133.338Z" transform="translate(-424.642 -132.81)" fill="#fff"/><path d="M449.1,133.338a.553.553,0,1,1-.552-.528A.54.54,0,0,1,449.1,133.338Z" transform="translate(-428.118 -132.81)" fill="#fff"/><ellipse cx="0.552" cy="0.528" rx="0.552" ry="0.528" transform="translate(24.852 0)" fill="#fff"/><path d="M466,133.338a.553.553,0,1,1-.553-.528A.541.541,0,0,1,466,133.338Z" transform="translate(-435.07 -132.81)" fill="#fff"/><ellipse cx="0.552" cy="0.528" rx="0.552" ry="0.528" transform="translate(34.792 0)" fill="#fff"/><ellipse cx="0.552" cy="0.528" rx="0.552" ry="0.528" transform="translate(39.763 0)" fill="#fff"/><path d="M491.335,133.338a.553.553,0,1,1-.552-.528A.541.541,0,0,1,491.335,133.338Z" transform="translate(-445.498 -132.81)" fill="#fff"/><path d="M499.782,133.338a.553.553,0,1,1-.553-.528A.541.541,0,0,1,499.782,133.338Z" transform="translate(-448.974 -132.81)" fill="#fff"/></g></g></g><g transform="translate(926.668 1865.332)"><g transform="translate(217 249)" clip-path="url(#a)"><g transform="translate(1.063 -681.98)"><path d="M-305.085-606.415v-10.747a4.117,4.117,0,0,1,2.4-3.727l6.49-2.516v-2h0a4.3,4.3,0,0,1-1.974-3.517,1.708,1.708,0,0,1-2.032-1.662,1.594,1.594,0,0,1,.532-1.172v-2.17a5.346,5.346,0,0,1,5.331-5.331h.055V-649.1a1.806,1.806,0,0,0-1.806-1.806h-22.208l-9.176,9.176v34.313a1.806,1.806,0,0,0,1.806,1.806h21.38a.8.8,0,0,1-.8-.8" transform="translate(327.47 650.909)" fill="#fff6e9"/></g><g transform="translate(1.063 -675.538)"><path d="M-37.266,0-40,2.734V37.047a1.806,1.806,0,0,0,1.806,1.806h.928Z" transform="translate(40)" fill="#f9e4c7"/></g><g transform="translate(1.063 -681.98)"><path d="M0-125.062H7.37a1.806,1.806,0,0,0,1.806-1.806v-7.37Z" transform="translate(0 134.238)" fill="#f9e4c7"/></g><g transform="translate(1.063 -681.98)"><path d="M-125.062,0l-9.176,9.176h2.734l6.442-6.442Z" transform="translate(134.238)" fill="#f2d5b1"/></g><g transform="translate(8.133 -669.827)"><path d="M-174.6,0H-185a2.425,2.425,0,0,0-2.418,2.418V11.55A2.425,2.425,0,0,0-185,13.968h5.511a.436.436,0,0,1,.309.128l3.608,3.608a.17.17,0,0,0,.29-.12V14.4a.436.436,0,0,1,.436-.436h.24a2.425,2.425,0,0,0,2.418-2.418V2.418A2.425,2.425,0,0,0-174.6,0" transform="translate(187.416)" fill="#54a0ff"/></g><g transform="translate(8.133 -669.827)"><path d="M-37.266-157.41v-9.132a2.425,2.425,0,0,1,2.418-2.418h-2.734A2.425,2.425,0,0,0-40-166.541v9.132a2.425,2.425,0,0,0,2.418,2.418h2.734a2.425,2.425,0,0,1-2.418-2.418" transform="translate(40 168.96)" fill="#338def"/></g><g transform="translate(16.062 -655.859)"><path d="M-41.472-1.742a.436.436,0,0,0-.309-.128h-2.734a.436.436,0,0,1,.309.128L-40.6,1.866a.17.17,0,0,0,.29-.12V-.579Z" transform="translate(44.515 1.869)" fill="#338def"/></g><g transform="translate(28.32 -670.868)"><path d="M-80.1,0A5.877,5.877,0,0,0-85.98,5.877V8.269a2.037,2.037,0,0,1,1.571-.489V7.487a.4.4,0,0,1,.429-.4,10.3,10.3,0,0,0,6.26-1.7.4.4,0,0,1,.512.062C-75.713,7.056-75.8,6.994-75.8,7.2v.575a1.94,1.94,0,0,1,1.571.438V5.877A5.877,5.877,0,0,0-80.1,0" transform="translate(85.98)" fill="#576574"/></g><g transform="translate(28.32 -670.868)"><path d="M-37.266-80.1a5.878,5.878,0,0,1,4.51-5.716,5.888,5.888,0,0,0-1.367-.162A5.877,5.877,0,0,0-40-80.1v2.392a2.038,2.038,0,0,1,1.571-.489v-.293a.4.4,0,0,1,.429-.4c.245.018.49.024.734.022Z" transform="translate(40 85.98)" fill="#3e4b5a"/></g><g transform="translate(38.563 -663.344)"><path d="M-.036-.309V2.93c0,.035,0,.07,0,.1A1.718,1.718,0,0,0,2,1.363,1.718,1.718,0,0,0-.036-.309" transform="translate(0.039 0.331)" fill="#ffbeab"/></g><g transform="translate(27.788 -663.358)"><path d="M-28.2-44.939v-3.282a1.821,1.821,0,0,0-2.069,1.694A1.742,1.742,0,0,0-28.2-44.833c0-.035,0-.071,0-.106" transform="translate(30.271 48.237)" fill="#ffbeab"/></g><g transform="translate(38.563 -663.344)"><path d="M-20.636-6.381a1.788,1.788,0,0,0-1.511-.446v3.238c0,.035,0,.07,0,.1a1.787,1.787,0,0,0,1.514-.445Z" transform="translate(22.151 6.85)" fill="#f7af9f"/></g><g transform="translate(27.788 -663.358)"><path d="M-28.2-40.49a1.7,1.7,0,0,1-.558-1.262,1.629,1.629,0,0,1,.558-1.209v-.485a1.821,1.821,0,0,0-2.069,1.694A1.742,1.742,0,0,0-28.2-40.057c0-.035,0-.071,0-.106Z" transform="translate(30.271 43.461)" fill="#f7af9f"/></g><g transform="translate(31.794 -656.684)"><path d="M-33.616-10.382a4.534,4.534,0,0,1-2.467-.7v2.291l2.456,3.031,2.456-3.031v-2.356a4.293,4.293,0,0,1-2.445.762" transform="translate(36.083 11.144)" fill="#ffbeab"/></g><g transform="translate(31.794 -656.618)"><path d="M-37.266-9.372c-.089.005-.178.009-.268.009A4.534,4.534,0,0,1-40-10.06v2.291l2.456,3.031.278-.344Z" transform="translate(40 10.06)" fill="#f7af9f"/></g><g transform="translate(22.9 -654.475)"><path d="M-276.693-34.292l-6.5-2.516-2.456,3.031-2.456-3.031-6.49,2.516a4.117,4.117,0,0,0-2.4,3.727v10.747a.8.8,0,0,0,.8.8h21.1a.8.8,0,0,0,.8-.8V-30.565a4.117,4.117,0,0,0-2.4-3.727" transform="translate(296.995 36.808)" fill="#e4eaf8"/></g><g transform="translate(22.9 -652.767)"><path d="M-37.266-208.274v-11.931a4.005,4.005,0,0,1,1.752-3.35l-2.084.808A4.117,4.117,0,0,0-40-219.02v10.747a.8.8,0,0,0,.8.8h2.734a.8.8,0,0,1-.8-.8" transform="translate(40 223.555)" fill="#d8dce5"/></g><g transform="translate(34.249 -654.475)"><path d="M-40.413-62.544l1.836-3.681-2.346-.909L-43.379-64.1l2.394,1.7a.387.387,0,0,0,.571-.143" transform="translate(43.379 67.133)" fill="#d8dce5"/></g><g transform="translate(29.451 -654.475)"><path d="M-25.029-62.544l-1.836-3.681,2.346-.909,2.456,3.031-2.394,1.7a.387.387,0,0,1-.571-.143" transform="translate(26.865 67.133)" fill="#d8dce5"/></g><g transform="translate(32.508 -651.444)"><path d="M-23.775-.029v0h0v0L-25.52,1.208l.823,1.239h1.84l.823-1.239Z" transform="translate(25.52 0.031)" fill="#ee5253"/></g><g transform="translate(31.751 -648.966)"><path d="M-68.091-126.922l-1.576-9.313h-1.84l-1.576,9.313a.4.4,0,0,0,.094.324l2.4,2.641v0l2.4-2.641a.4.4,0,0,0,.094-.324" transform="translate(73.087 136.234)" fill="#ff6b6b"/></g><g transform="translate(32.508 -651.444)"><path d="M-33.06-14.58l.411-.292-1.092-.776v0h0v0l-1.742,1.237.823,1.239h1.84l.174-.262-.488-.734a.3.3,0,0,1,.076-.413" transform="translate(35.485 15.649)" fill="#d83941"/></g><g transform="translate(31.751 -648.966)"><path d="M-29.867-126.92l1.4-8.285-.174-1.027h-1.84l-1.576,9.313a.4.4,0,0,0,.094.325l2.4,2.641v0l0,0v0l1.092-1.2-1.309-1.439a.4.4,0,0,1-.094-.325" transform="translate(32.059 136.233)" fill="#ee5253"/></g><g transform="translate(29.817 -665.768)"><path d="M-99.149-1.739a.4.4,0,0,0-.512-.062,10.522,10.522,0,0,1-6.334,1.7.4.4,0,0,0-.429.4V3.81a4.322,4.322,0,0,0,4.443,4.318A4.323,4.323,0,0,0-97.663,3.81V.015c0-.21.009-.148-1.486-1.754" transform="translate(106.424 1.867)" fill="#ffcdbf"/></g><g transform="translate(29.817 -664.124)"><path d="M-37.266-54.958v-4.032a9.561,9.561,0,0,1-2.305.122.4.4,0,0,0-.429.4v3.511a4.322,4.322,0,0,0,4.443,4.318,4.3,4.3,0,0,0,1.322-.208,4.29,4.29,0,0,1-3.031-4.11" transform="translate(40 58.991)" fill="#ffbeab"/></g><g transform="translate(1.061 -681.98)"><path d="M7.37-124.562H0a.5.5,0,0,1-.462-.309.5.5,0,0,1,.108-.545l9.176-9.176a.5.5,0,0,1,.545-.108.5.5,0,0,1,.309.462v7.37A2.309,2.309,0,0,1,7.37-124.562Zm-6.163-1H7.37a1.307,1.307,0,0,0,1.306-1.306v-6.163Z" transform="translate(0 134.238)"/></g><g transform="translate(8.131 -669.827)"><path d="M-185-.5H-174.6a2.921,2.921,0,0,1,2.918,2.918V11.55a2.921,2.921,0,0,1-2.918,2.918h-.176v3.115a.671.671,0,0,1-.671.67.664.664,0,0,1-.472-.2l-3.589-3.589H-185a2.921,2.921,0,0,1-2.918-2.918V2.418A2.921,2.921,0,0,1-185-.5ZM-174.6,13.468a1.92,1.92,0,0,0,1.918-1.918V2.418A1.92,1.92,0,0,0-174.6.5H-185a1.92,1.92,0,0,0-1.918,1.918V11.55A1.92,1.92,0,0,0-185,13.468h5.511a.93.93,0,0,1,.662.274l3.044,3.044V14.4a.937.937,0,0,1,.936-.936Z" transform="translate(187.416)"/></g><g transform="translate(11.645 -666.042)"><path d="M7.825.5H0A.5.5,0,0,1-.5,0,.5.5,0,0,1,0-.5H7.825a.5.5,0,0,1,.5.5A.5.5,0,0,1,7.825.5Z"/></g><g transform="translate(11.645 -662.82)"><path d="M7.825.5H0A.5.5,0,0,1-.5,0,.5.5,0,0,1,0-.5H7.825a.5.5,0,0,1,.5.5A.5.5,0,0,1,7.825.5Z"/></g><g transform="translate(11.645 -659.599)"><path d="M7.825.5H0A.5.5,0,0,1-.5,0,.5.5,0,0,1,0-.5H7.825a.5.5,0,0,1,.5.5A.5.5,0,0,1,7.825.5Z"/></g><g transform="translate(29.816 -665.768)"><path d="M-99.442-2.367a.9.9,0,0,1,.659.287c.3.321.537.576.728.779.825.879.892.951.892,1.313v3.8a4.823,4.823,0,0,1-4.818,4.818,4.94,4.94,0,0,1-3.583-1.464,4.781,4.781,0,0,1-1.36-3.354V.3a.9.9,0,0,1,.967-.9c.2.014.4.022.607.022A10.173,10.173,0,0,0-99.934-2.22.9.9,0,0,1-99.442-2.367ZM-98.163.06c-.085-.105-.308-.343-.621-.677-.179-.191-.4-.427-.674-.72a11.2,11.2,0,0,1-5.891,1.76c-.192,0-.385-.006-.574-.017v3.4a3.838,3.838,0,0,0,1.077,2.656,3.949,3.949,0,0,0,2.866,1.161A3.822,3.822,0,0,0-98.163,3.81Z" transform="translate(106.424 1.867)"/></g><g transform="translate(31.792 -656.536)"><path d="M-31.171-11.644a.5.5,0,0,1,.232.057.5.5,0,0,1,.268.443v2.06a.5.5,0,0,1-.111.315l-2.456,3.031a.5.5,0,0,1-.389.185.5.5,0,0,1-.388-.185l-2.456-3.031a.5.5,0,0,1-.111-.315v-2a.5.5,0,0,1,.26-.439.5.5,0,0,1,.509.017,4.011,4.011,0,0,0,2.2.618,3.79,3.79,0,0,0,2.161-.673A.5.5,0,0,1-31.171-11.644Zm-.5,2.383v-1.032a4.786,4.786,0,0,1-1.945.411,5.2,5.2,0,0,1-1.967-.378v1l1.956,2.414Z" transform="translate(36.083 11.144)"/></g><g transform="translate(38.574 -663.334)"><path d="M.262-.829a2.185,2.185,0,1,1,0,4.369,2.518,2.518,0,0,1-.376-.029.5.5,0,0,1-.425-.506V2.963c0-.017,0-.033,0-.05V-.307A.5.5,0,0,1-.11-.8,2.518,2.518,0,0,1,.262-.829Zm.2,3.354a1.179,1.179,0,0,0,0-2.339Z" transform="translate(0.039 0.329)"/></g><g transform="translate(27.787 -663.325)"><path d="M-27.953-43.44h0a2.185,2.185,0,0,1-2.23-2.185,2.272,2.272,0,0,1,2.3-2.176,2.221,2.221,0,0,1,.293.019.5.5,0,0,1,.434.5v3.218c0,.017,0,.035,0,.052v.041a.5.5,0,0,1-.425.506A2.52,2.52,0,0,1-27.953-43.44Zm-.2-3.33a1.244,1.244,0,0,0-1.029,1.145,1.184,1.184,0,0,0,1.029,1.17Z" transform="translate(29.684 47.3)"/></g><g transform="translate(28.319 -670.868)"><path d="M-80.1-.5a6.385,6.385,0,0,1,6.377,6.377V7.995a.5.5,0,0,1-.3.458.5.5,0,0,1-.54-.092,1.292,1.292,0,0,0-1.082-.309.5.5,0,0,1-.4-.116.5.5,0,0,1-.174-.379v-.53c-.085-.105-.308-.343-.621-.677-.179-.191-.4-.427-.674-.72a11.2,11.2,0,0,1-5.891,1.76c-.192,0-.385-.006-.574-.017v.186a.5.5,0,0,1-.171.376.5.5,0,0,1-.4.119,1.216,1.216,0,0,0-.16-.011,1.387,1.387,0,0,0-.931.371.5.5,0,0,1-.54.092.5.5,0,0,1-.3-.458V5.877A6.385,6.385,0,0,1-80.1-.5Zm5.377,7.641V5.877A5.383,5.383,0,0,0-80.1.5,5.383,5.383,0,0,0-85.48,5.877v1.3a2.37,2.37,0,0,1,.521-.119.9.9,0,0,1,.943-.69c.2.014.4.022.607.022a10.173,10.173,0,0,0,5.415-1.643A.9.9,0,0,1-77.5,4.6a.9.9,0,0,1,.659.287c.3.321.537.575.728.779.825.879.892.951.892,1.313v.065A2.306,2.306,0,0,1-74.725,7.141Z" transform="translate(85.98)"/></g><g transform="translate(41.514 -647.382)"><path d="M0-144.046a.5.5,0,0,1-.5-.5v-10.606a.5.5,0,0,1,.5-.5.5.5,0,0,1,.5.5v10.606A.5.5,0,0,1,0-144.046Z" transform="translate(0 155.152)"/></g><g transform="translate(26.989 -647.382)"><path d="M0-144.046a.5.5,0,0,1-.5-.5v-10.606a.5.5,0,0,1,.5-.5.5.5,0,0,1,.5.5v10.606A.5.5,0,0,1,0-144.046Z" transform="translate(0 155.152)"/></g><g transform="translate(34.248 -654.475)"><path d="M-40.76-61.83h0a.882.882,0,0,1-.513-.164l-2.394-1.7a.5.5,0,0,1-.206-.34.5.5,0,0,1,.107-.383l2.456-3.031a.5.5,0,0,1,.569-.152l2.346.909a.5.5,0,0,1,.286.286.5.5,0,0,1-.019.4l-1.836,3.681A.883.883,0,0,1-40.76-61.83ZM-42.655-64.2l1.853,1.316,1.533-3.072-1.494-.579Z" transform="translate(43.379 67.133)"/></g><g transform="translate(29.45 -654.475)"><path d="M-24.682-61.83a.883.883,0,0,1-.795-.491L-27.313-66a.5.5,0,0,1-.019-.4.5.5,0,0,1,.286-.286L-24.7-67.6a.5.5,0,0,1,.569.152l2.456,3.031a.5.5,0,0,1,.107.383.5.5,0,0,1-.206.34l-2.394,1.7A.881.881,0,0,1-24.682-61.83Zm-1.491-4.127,1.533,3.072,1.853-1.316-1.891-2.334Z" transform="translate(26.865 67.133)"/></g><g transform="translate(32.507 -651.444)"><path d="M-23.777-.53l.045,0a.5.5,0,0,1,.18.051.5.5,0,0,1,.09.058L-21.744.8a.5.5,0,0,1,.127.684l-.823,1.239a.5.5,0,0,1-.416.223H-24.7a.5.5,0,0,1-.416-.223l-.823-1.239A.5.5,0,0,1-25.809.8L-24.091-.42a.5.5,0,0,1,.082-.054A.5.5,0,0,1-23.777-.53Zm1.058,1.865L-23.777.584l-1.058.752.407.612h1.3Z" transform="translate(25.52 0.031)"/></g><g transform="translate(31.75 -648.966)"><path d="M-70.589-123.454a.5.5,0,0,1-.178-.033.5.5,0,0,1-.217-.161l-2.376-2.613a.908.908,0,0,1-.219-.73l0-.015L-72-136.318a.5.5,0,0,1,.493-.417h1.84a.5.5,0,0,1,.493.417l1.576,9.313,0,.015a.908.908,0,0,1-.219.729l-2.384,2.622a.5.5,0,0,1-.21.152.506.506,0,0,1-.088.025A.5.5,0,0,1-70.589-123.454Zm-1.992-3.438,1.994,2.194,1.994-2.194-1.5-8.843h-.995Z" transform="translate(73.087 136.234)"/></g><g transform="translate(1.061 -681.98)"><path d="M-176.771-616.829h-9.008a.5.5,0,0,1-.5-.5.5.5,0,0,1,.5-.5h7.742a1.3,1.3,0,0,1-.035-.3v-10.746a4.451,4.451,0,0,1,1.351-3.248,4.712,4.712,0,0,1,1.362-.942l.009,0,6.171-2.392v-1.389a4.781,4.781,0,0,1-1.935-3.263,2.217,2.217,0,0,1-1.315-.532,2.171,2.171,0,0,1-.755-1.648,2.062,2.062,0,0,1,.532-1.375v-1.967A6.386,6.386,0,0,1-166.72-652v-8.821a1.307,1.307,0,0,0-1.306-1.306h-22l-8.883,8.883v34.106a1.307,1.307,0,0,0,1.306,1.306h8.635a.5.5,0,0,1,.5.5.5.5,0,0,1-.5.5H-197.6a2.309,2.309,0,0,1-2.306-2.306v-34.313a.5.5,0,0,1,.146-.354l9.176-9.176a.5.5,0,0,1,.354-.146h22.208a2.309,2.309,0,0,1,2.306,2.306v9.307a.5.5,0,0,1-.148.355.5.5,0,0,1-.357.145h-.051a5.383,5.383,0,0,0-5.377,5.377v2.17a.5.5,0,0,1-.16.367,1.1,1.1,0,0,0-.372.8,1.172,1.172,0,0,0,.407.89,1.284,1.284,0,0,0,1.05.278.5.5,0,0,1,.4.111.5.5,0,0,1,.178.371,3.787,3.787,0,0,0,1.743,3.108.5.5,0,0,1,.231.439v1.977a.5.5,0,0,1-.319.466l-6.484,2.514a3.59,3.59,0,0,0-2.09,3.264v10.746a.3.3,0,0,0,.3.3.5.5,0,0,1,.5.5A.5.5,0,0,1-176.771-616.829Z" transform="translate(199.41 662.624)"/></g><g transform="translate(22.899 -654.475)"><path d="M-310.243-125.36h-21.1a1.3,1.3,0,0,1-1.3-1.3v-10.747a4.451,4.451,0,0,1,1.351-3.248,4.712,4.712,0,0,1,1.361-.942l.009,0,6.49-2.516a.5.5,0,0,1,.569.151l2.067,2.552,2.067-2.552a.5.5,0,0,1,.569-.152l6.5,2.516.01,0a4.712,4.712,0,0,1,1.362.942,4.451,4.451,0,0,1,1.351,3.248v3.576a.5.5,0,0,1-.5.5.5.5,0,0,1-.5-.5v-3.576a3.618,3.618,0,0,0-2.09-3.263l-6.151-2.382-2.227,2.748a.5.5,0,0,1-.388.185.5.5,0,0,1-.388-.185l-2.227-2.748-6.144,2.382a3.59,3.59,0,0,0-2.09,3.263v10.747a.3.3,0,0,0,.3.3h21.1a.3.3,0,0,0,.3-.3v-3.98a.5.5,0,0,1,.5-.5.5.5,0,0,1,.5.5v3.98A1.3,1.3,0,0,1-310.243-125.36Z" transform="translate(332.147 143.65)"/></g></g></g></g></g></svg>