<svg xmlns="http://www.w3.org/2000/svg" width="84.696" height="81.342" viewBox="0 0 84.696 81.342"><g transform="translate(-5788.638 10267.85)"><g transform="translate(0 -304)"><g transform="translate(5788.638 -9963.85)"><path d="M32.829,61.313A32.866,32.866,0,0,0,0,28.484V0A61.382,61.382,0,0,1,61.313,61.313Z" transform="translate(23.383 20.029)" fill="#22cac5"/><path d="M40.671,0A40.671,40.671,0,1,1,0,40.671,40.671,40.671,0,0,1,40.671,0Z" transform="translate(0)" fill="#31313c" opacity="0.444" style="mix-blend-mode:multiply;isolation:isolate"/><g transform="translate(15.879 16.813)"><path d="M415.319,50.752a.553.553,0,1,1-.553-.528A.541.541,0,0,1,415.319,50.752Z" transform="translate(-414.214 -50.224)" fill="#fff"/><path d="M423.765,50.752a.553.553,0,1,1-.552-.528A.54.54,0,0,1,423.765,50.752Z" transform="translate(-417.69 -50.224)" fill="#fff"/><path d="M432.21,50.752a.553.553,0,1,1-.552-.528A.54.54,0,0,1,432.21,50.752Z" transform="translate(-421.166 -50.224)" fill="#fff"/><path d="M440.658,50.752a.553.553,0,1,1-.553-.528A.541.541,0,0,1,440.658,50.752Z" transform="translate(-424.642 -50.224)" fill="#fff"/><path d="M449.1,50.752a.553.553,0,1,1-.552-.528A.541.541,0,0,1,449.1,50.752Z" transform="translate(-428.118 -50.224)" fill="#fff"/><path d="M457.55,50.752a.553.553,0,1,1-.552-.528A.541.541,0,0,1,457.55,50.752Z" transform="translate(-431.594 -50.224)" fill="#fff"/><path d="M466,50.752a.553.553,0,1,1-.553-.528A.541.541,0,0,1,466,50.752Z" transform="translate(-435.07 -50.224)" fill="#fff"/><path d="M474.443,50.752a.553.553,0,1,1-.552-.528A.54.54,0,0,1,474.443,50.752Z" transform="translate(-438.546 -50.224)" fill="#fff"/><path d="M482.888,50.752a.553.553,0,1,1-.552-.528A.541.541,0,0,1,482.888,50.752Z" transform="translate(-442.022 -50.224)" fill="#fff"/><path d="M491.335,50.752a.553.553,0,1,1-.552-.528A.541.541,0,0,1,491.335,50.752Z" transform="translate(-445.498 -50.224)" fill="#fff"/><path d="M499.782,50.752a.553.553,0,1,1-.553-.528A.541.541,0,0,1,499.782,50.752Z" transform="translate(-448.974 -50.224)" fill="#fff"/><g transform="translate(0 4.225)"><path d="M415.319,58.26a.553.553,0,1,1-.553-.528A.541.541,0,0,1,415.319,58.26Z" transform="translate(-414.214 -57.732)" fill="#fff"/><path d="M423.765,58.26a.553.553,0,1,1-.552-.528A.54.54,0,0,1,423.765,58.26Z" transform="translate(-417.69 -57.732)" fill="#fff"/><path d="M432.21,58.26a.553.553,0,1,1-.552-.528A.54.54,0,0,1,432.21,58.26Z" transform="translate(-421.166 -57.732)" fill="#fff"/><path d="M440.658,58.26a.553.553,0,1,1-.553-.528A.541.541,0,0,1,440.658,58.26Z" transform="translate(-424.642 -57.732)" fill="#fff"/><path d="M449.1,58.26a.553.553,0,1,1-.552-.528A.54.54,0,0,1,449.1,58.26Z" transform="translate(-428.118 -57.732)" fill="#fff"/><path d="M457.55,58.26a.553.553,0,1,1-.552-.528A.54.54,0,0,1,457.55,58.26Z" transform="translate(-431.594 -57.732)" fill="#fff"/><path d="M466,58.26a.553.553,0,1,1-.553-.528A.541.541,0,0,1,466,58.26Z" transform="translate(-435.07 -57.732)" fill="#fff"/><path d="M474.443,58.26a.553.553,0,1,1-.552-.528A.54.54,0,0,1,474.443,58.26Z" transform="translate(-438.546 -57.732)" fill="#fff"/><path d="M482.888,58.26a.553.553,0,1,1-.552-.528A.541.541,0,0,1,482.888,58.26Z" transform="translate(-442.022 -57.732)" fill="#fff"/><path d="M491.335,58.26a.553.553,0,1,1-.552-.528A.541.541,0,0,1,491.335,58.26Z" transform="translate(-445.498 -57.732)" fill="#fff"/><path d="M499.782,58.26a.553.553,0,1,1-.553-.528A.541.541,0,0,1,499.782,58.26Z" transform="translate(-448.974 -57.732)" fill="#fff"/></g><g transform="translate(0 8.45)"><ellipse cx="0.552" cy="0.528" rx="0.552" ry="0.528" fill="#fff"/><path d="M423.765,65.768a.553.553,0,1,1-.552-.528A.541.541,0,0,1,423.765,65.768Z" transform="translate(-417.69 -65.24)" fill="#fff"/><ellipse cx="0.552" cy="0.528" rx="0.552" ry="0.528" transform="translate(9.941)" fill="#fff"/><path d="M440.658,65.768a.553.553,0,1,1-.553-.528A.541.541,0,0,1,440.658,65.768Z" transform="translate(-424.642 -65.24)" fill="#fff"/><path d="M449.1,65.768a.553.553,0,1,1-.552-.528A.541.541,0,0,1,449.1,65.768Z" transform="translate(-428.118 -65.24)" fill="#fff"/><ellipse cx="0.552" cy="0.528" rx="0.552" ry="0.528" transform="translate(24.852)" fill="#fff"/><path d="M466,65.768a.553.553,0,1,1-.553-.528A.541.541,0,0,1,466,65.768Z" transform="translate(-435.07 -65.24)" fill="#fff"/><ellipse cx="0.552" cy="0.528" rx="0.552" ry="0.528" transform="translate(34.792)" fill="#fff"/><ellipse cx="0.552" cy="0.528" rx="0.552" ry="0.528" transform="translate(39.763)" fill="#fff"/><path d="M491.335,65.768a.553.553,0,1,1-.552-.528A.541.541,0,0,1,491.335,65.768Z" transform="translate(-445.498 -65.24)" fill="#fff"/><path d="M499.782,65.768a.553.553,0,1,1-.553-.528A.541.541,0,0,1,499.782,65.768Z" transform="translate(-448.974 -65.24)" fill="#fff"/></g><g transform="translate(0 12.675)"><ellipse cx="0.552" cy="0.528" rx="0.552" ry="0.528" transform="translate(0 0)" fill="#fff"/><path d="M423.765,73.275a.553.553,0,1,1-.552-.528A.54.54,0,0,1,423.765,73.275Z" transform="translate(-417.69 -72.747)" fill="#fff"/><ellipse cx="0.552" cy="0.528" rx="0.552" ry="0.528" transform="translate(9.941 0)" fill="#fff"/><path d="M440.658,73.275a.553.553,0,1,1-.553-.528A.541.541,0,0,1,440.658,73.275Z" transform="translate(-424.642 -72.747)" fill="#fff"/><path d="M449.1,73.275a.553.553,0,1,1-.552-.528A.54.54,0,0,1,449.1,73.275Z" transform="translate(-428.118 -72.747)" fill="#fff"/><ellipse cx="0.552" cy="0.528" rx="0.552" ry="0.528" transform="translate(24.852 0)" fill="#fff"/><path d="M466,73.275a.553.553,0,1,1-.553-.528A.541.541,0,0,1,466,73.275Z" transform="translate(-435.07 -72.747)" fill="#fff"/><ellipse cx="0.552" cy="0.528" rx="0.552" ry="0.528" transform="translate(34.792 0)" fill="#fff"/><ellipse cx="0.552" cy="0.528" rx="0.552" ry="0.528" transform="translate(39.763 0)" fill="#fff"/><path d="M491.335,73.275a.553.553,0,1,1-.552-.528A.541.541,0,0,1,491.335,73.275Z" transform="translate(-445.498 -72.747)" fill="#fff"/><path d="M499.782,73.275a.553.553,0,1,1-.553-.528A.541.541,0,0,1,499.782,73.275Z" transform="translate(-448.974 -72.747)" fill="#fff"/></g><g transform="translate(0 16.9)"><path d="M415.319,80.783a.553.553,0,1,1-.553-.528A.541.541,0,0,1,415.319,80.783Z" transform="translate(-414.214 -80.255)" fill="#fff"/><path d="M423.765,80.783a.553.553,0,1,1-.552-.528A.54.54,0,0,1,423.765,80.783Z" transform="translate(-417.69 -80.255)" fill="#fff"/><path d="M432.21,80.783a.553.553,0,1,1-.552-.528A.54.54,0,0,1,432.21,80.783Z" transform="translate(-421.166 -80.255)" fill="#fff"/><path d="M440.658,80.783a.553.553,0,1,1-.553-.528A.541.541,0,0,1,440.658,80.783Z" transform="translate(-424.642 -80.255)" fill="#fff"/><path d="M449.1,80.783a.553.553,0,1,1-.552-.528A.54.54,0,0,1,449.1,80.783Z" transform="translate(-428.118 -80.255)" fill="#fff"/><path d="M457.55,80.783a.553.553,0,1,1-.552-.528A.54.54,0,0,1,457.55,80.783Z" transform="translate(-431.594 -80.255)" fill="#fff"/><path d="M466,80.783a.553.553,0,1,1-.553-.528A.541.541,0,0,1,466,80.783Z" transform="translate(-435.07 -80.255)" fill="#fff"/><path d="M474.443,80.783a.553.553,0,1,1-.552-.528A.54.54,0,0,1,474.443,80.783Z" transform="translate(-438.546 -80.255)" fill="#fff"/><path d="M482.888,80.783a.553.553,0,1,1-.552-.528A.54.54,0,0,1,482.888,80.783Z" transform="translate(-442.022 -80.255)" fill="#fff"/><path d="M491.335,80.783a.553.553,0,1,1-.552-.528A.541.541,0,0,1,491.335,80.783Z" transform="translate(-445.498 -80.255)" fill="#fff"/><path d="M499.782,80.783a.553.553,0,1,1-.553-.528A.541.541,0,0,1,499.782,80.783Z" transform="translate(-448.974 -80.255)" fill="#fff"/></g><g transform="translate(0 21.125)"><ellipse cx="0.552" cy="0.528" rx="0.552" ry="0.528" transform="translate(0 0)" fill="#fff"/><path d="M423.765,88.291a.553.553,0,1,1-.552-.528A.54.54,0,0,1,423.765,88.291Z" transform="translate(-417.69 -87.763)" fill="#fff"/><ellipse cx="0.552" cy="0.528" rx="0.552" ry="0.528" transform="translate(9.941 0)" fill="#fff"/><path d="M440.658,88.291a.553.553,0,1,1-.553-.528A.541.541,0,0,1,440.658,88.291Z" transform="translate(-424.642 -87.763)" fill="#fff"/><path d="M449.1,88.291a.553.553,0,1,1-.552-.528A.54.54,0,0,1,449.1,88.291Z" transform="translate(-428.118 -87.763)" fill="#fff"/><ellipse cx="0.552" cy="0.528" rx="0.552" ry="0.528" transform="translate(24.852 0)" fill="#fff"/><path d="M466,88.291a.553.553,0,1,1-.553-.528A.541.541,0,0,1,466,88.291Z" transform="translate(-435.07 -87.763)" fill="#fff"/><ellipse cx="0.552" cy="0.528" rx="0.552" ry="0.528" transform="translate(34.792 0)" fill="#fff"/><ellipse cx="0.552" cy="0.528" rx="0.552" ry="0.528" transform="translate(39.763 0)" fill="#fff"/><path d="M491.335,88.291a.553.553,0,1,1-.552-.528A.541.541,0,0,1,491.335,88.291Z" transform="translate(-445.498 -87.763)" fill="#fff"/><path d="M499.782,88.291a.553.553,0,1,1-.553-.528A.541.541,0,0,1,499.782,88.291Z" transform="translate(-448.974 -87.763)" fill="#fff"/></g><g transform="translate(0 25.35)"><ellipse cx="0.552" cy="0.528" rx="0.552" ry="0.528" fill="#fff"/><path d="M423.765,95.8a.553.553,0,1,1-.552-.528A.54.54,0,0,1,423.765,95.8Z" transform="translate(-417.69 -95.271)" fill="#fff"/><ellipse cx="0.552" cy="0.528" rx="0.552" ry="0.528" transform="translate(9.941)" fill="#fff"/><path d="M440.658,95.8a.553.553,0,1,1-.553-.528A.541.541,0,0,1,440.658,95.8Z" transform="translate(-424.642 -95.271)" fill="#fff"/><path d="M449.1,95.8a.553.553,0,1,1-.552-.528A.541.541,0,0,1,449.1,95.8Z" transform="translate(-428.118 -95.271)" fill="#fff"/><ellipse cx="0.552" cy="0.528" rx="0.552" ry="0.528" transform="translate(24.852)" fill="#fff"/><path d="M466,95.8a.553.553,0,1,1-.553-.528A.541.541,0,0,1,466,95.8Z" transform="translate(-435.07 -95.271)" fill="#fff"/><ellipse cx="0.552" cy="0.528" rx="0.552" ry="0.528" transform="translate(34.792)" fill="#fff"/><ellipse cx="0.552" cy="0.528" rx="0.552" ry="0.528" transform="translate(39.763)" fill="#fff"/><path d="M491.335,95.8a.553.553,0,1,1-.552-.528A.541.541,0,0,1,491.335,95.8Z" transform="translate(-445.498 -95.271)" fill="#fff"/><path d="M499.782,95.8a.553.553,0,1,1-.553-.528A.541.541,0,0,1,499.782,95.8Z" transform="translate(-448.974 -95.271)" fill="#fff"/></g><g transform="translate(0 29.576)"><path d="M415.319,103.307a.553.553,0,1,1-.553-.528A.541.541,0,0,1,415.319,103.307Z" transform="translate(-414.214 -102.779)" fill="#fff"/><path d="M423.765,103.307a.553.553,0,1,1-.552-.528A.54.54,0,0,1,423.765,103.307Z" transform="translate(-417.69 -102.779)" fill="#fff"/><path d="M432.21,103.307a.553.553,0,1,1-.552-.528A.54.54,0,0,1,432.21,103.307Z" transform="translate(-421.166 -102.779)" fill="#fff"/><path d="M440.658,103.307a.553.553,0,1,1-.553-.528A.541.541,0,0,1,440.658,103.307Z" transform="translate(-424.642 -102.779)" fill="#fff"/><path d="M449.1,103.307a.553.553,0,1,1-.552-.528A.541.541,0,0,1,449.1,103.307Z" transform="translate(-428.118 -102.779)" fill="#fff"/><path d="M457.55,103.307a.553.553,0,1,1-.552-.528A.541.541,0,0,1,457.55,103.307Z" transform="translate(-431.594 -102.779)" fill="#fff"/><path d="M466,103.307a.553.553,0,1,1-.553-.528A.541.541,0,0,1,466,103.307Z" transform="translate(-435.07 -102.779)" fill="#fff"/><path d="M474.443,103.307a.553.553,0,1,1-.552-.528A.54.54,0,0,1,474.443,103.307Z" transform="translate(-438.546 -102.779)" fill="#fff"/><path d="M482.888,103.307a.553.553,0,1,1-.552-.528A.541.541,0,0,1,482.888,103.307Z" transform="translate(-442.022 -102.779)" fill="#fff"/><path d="M491.335,103.307a.553.553,0,1,1-.552-.528A.541.541,0,0,1,491.335,103.307Z" transform="translate(-445.498 -102.779)" fill="#fff"/><path d="M499.782,103.307a.553.553,0,1,1-.553-.528A.541.541,0,0,1,499.782,103.307Z" transform="translate(-448.974 -102.779)" fill="#fff"/></g><g transform="translate(0 33.801)"><ellipse cx="0.552" cy="0.528" rx="0.552" ry="0.528" fill="#fff"/><path d="M423.765,110.815a.553.553,0,1,1-.552-.528A.541.541,0,0,1,423.765,110.815Z" transform="translate(-417.69 -110.287)" fill="#fff"/><ellipse cx="0.552" cy="0.528" rx="0.552" ry="0.528" transform="translate(9.941)" fill="#fff"/><path d="M440.658,110.815a.553.553,0,1,1-.553-.528A.541.541,0,0,1,440.658,110.815Z" transform="translate(-424.642 -110.287)" fill="#fff"/><path d="M449.1,110.815a.553.553,0,1,1-.552-.528A.541.541,0,0,1,449.1,110.815Z" transform="translate(-428.118 -110.287)" fill="#fff"/><ellipse cx="0.552" cy="0.528" rx="0.552" ry="0.528" transform="translate(24.852)" fill="#fff"/><path d="M466,110.815a.553.553,0,1,1-.553-.528A.541.541,0,0,1,466,110.815Z" transform="translate(-435.07 -110.287)" fill="#fff"/><ellipse cx="0.552" cy="0.528" rx="0.552" ry="0.528" transform="translate(34.792)" fill="#fff"/><ellipse cx="0.552" cy="0.528" rx="0.552" ry="0.528" transform="translate(39.763)" fill="#fff"/><path d="M491.335,110.815a.553.553,0,1,1-.552-.528A.541.541,0,0,1,491.335,110.815Z" transform="translate(-445.498 -110.287)" fill="#fff"/><path d="M499.782,110.815a.553.553,0,1,1-.553-.528A.541.541,0,0,1,499.782,110.815Z" transform="translate(-448.974 -110.287)" fill="#fff"/></g><g transform="translate(0 38.025)"><path d="M415.319,118.322a.553.553,0,1,1-.553-.528A.541.541,0,0,1,415.319,118.322Z" transform="translate(-414.214 -117.794)" fill="#fff"/><path d="M423.765,118.322a.553.553,0,1,1-.552-.528A.541.541,0,0,1,423.765,118.322Z" transform="translate(-417.69 -117.794)" fill="#fff"/><path d="M432.21,118.322a.553.553,0,1,1-.552-.528A.541.541,0,0,1,432.21,118.322Z" transform="translate(-421.166 -117.794)" fill="#fff"/><path d="M440.658,118.322a.553.553,0,1,1-.553-.528A.541.541,0,0,1,440.658,118.322Z" transform="translate(-424.642 -117.794)" fill="#fff"/><path d="M449.1,118.322a.553.553,0,1,1-.552-.528A.541.541,0,0,1,449.1,118.322Z" transform="translate(-428.118 -117.794)" fill="#fff"/><path d="M457.55,118.322a.553.553,0,1,1-.552-.528A.541.541,0,0,1,457.55,118.322Z" transform="translate(-431.594 -117.794)" fill="#fff"/><path d="M466,118.322a.553.553,0,1,1-.553-.528A.541.541,0,0,1,466,118.322Z" transform="translate(-435.07 -117.794)" fill="#fff"/><path d="M474.443,118.322a.553.553,0,1,1-.552-.528A.541.541,0,0,1,474.443,118.322Z" transform="translate(-438.546 -117.794)" fill="#fff"/><path d="M482.888,118.322a.553.553,0,1,1-.552-.528A.541.541,0,0,1,482.888,118.322Z" transform="translate(-442.022 -117.794)" fill="#fff"/><path d="M491.335,118.322a.553.553,0,1,1-.552-.528A.541.541,0,0,1,491.335,118.322Z" transform="translate(-445.498 -117.794)" fill="#fff"/><path d="M499.782,118.322a.553.553,0,1,1-.553-.528A.541.541,0,0,1,499.782,118.322Z" transform="translate(-448.974 -117.794)" fill="#fff"/></g><g transform="translate(0 42.251)"><ellipse cx="0.552" cy="0.528" rx="0.552" ry="0.528" transform="translate(0 0)" fill="#fff"/><path d="M423.765,125.83a.553.553,0,1,1-.552-.528A.54.54,0,0,1,423.765,125.83Z" transform="translate(-417.69 -125.302)" fill="#fff"/><ellipse cx="0.552" cy="0.528" rx="0.552" ry="0.528" transform="translate(9.941 0)" fill="#fff"/><path d="M440.658,125.83a.553.553,0,1,1-.553-.528A.541.541,0,0,1,440.658,125.83Z" transform="translate(-424.642 -125.302)" fill="#fff"/><path d="M449.1,125.83a.553.553,0,1,1-.552-.528A.54.54,0,0,1,449.1,125.83Z" transform="translate(-428.118 -125.302)" fill="#fff"/><ellipse cx="0.552" cy="0.528" rx="0.552" ry="0.528" transform="translate(24.852 0)" fill="#fff"/><path d="M466,125.83a.553.553,0,1,1-.553-.528A.541.541,0,0,1,466,125.83Z" transform="translate(-435.07 -125.302)" fill="#fff"/><ellipse cx="0.552" cy="0.528" rx="0.552" ry="0.528" transform="translate(34.792 0)" fill="#fff"/><ellipse cx="0.552" cy="0.528" rx="0.552" ry="0.528" transform="translate(39.763 0)" fill="#fff"/><path d="M491.335,125.83a.553.553,0,1,1-.552-.528A.541.541,0,0,1,491.335,125.83Z" transform="translate(-445.498 -125.302)" fill="#fff"/><path d="M499.782,125.83a.553.553,0,1,1-.553-.528A.541.541,0,0,1,499.782,125.83Z" transform="translate(-448.974 -125.302)" fill="#fff"/></g><g transform="translate(0 46.476)"><ellipse cx="0.552" cy="0.528" rx="0.552" ry="0.528" transform="translate(0 0)" fill="#fff"/><path d="M423.765,133.338a.553.553,0,1,1-.552-.528A.54.54,0,0,1,423.765,133.338Z" transform="translate(-417.69 -132.81)" fill="#fff"/><ellipse cx="0.552" cy="0.528" rx="0.552" ry="0.528" transform="translate(9.941 0)" fill="#fff"/><path d="M440.658,133.338a.553.553,0,1,1-.553-.528A.541.541,0,0,1,440.658,133.338Z" transform="translate(-424.642 -132.81)" fill="#fff"/><path d="M449.1,133.338a.553.553,0,1,1-.552-.528A.54.54,0,0,1,449.1,133.338Z" transform="translate(-428.118 -132.81)" fill="#fff"/><ellipse cx="0.552" cy="0.528" rx="0.552" ry="0.528" transform="translate(24.852 0)" fill="#fff"/><path d="M466,133.338a.553.553,0,1,1-.553-.528A.541.541,0,0,1,466,133.338Z" transform="translate(-435.07 -132.81)" fill="#fff"/><ellipse cx="0.552" cy="0.528" rx="0.552" ry="0.528" transform="translate(34.792 0)" fill="#fff"/><ellipse cx="0.552" cy="0.528" rx="0.552" ry="0.528" transform="translate(39.763 0)" fill="#fff"/><path d="M491.335,133.338a.553.553,0,1,1-.552-.528A.541.541,0,0,1,491.335,133.338Z" transform="translate(-445.498 -132.81)" fill="#fff"/><path d="M499.782,133.338a.553.553,0,1,1-.553-.528A.541.541,0,0,1,499.782,133.338Z" transform="translate(-448.974 -132.81)" fill="#fff"/></g></g></g><g transform="translate(5804 -9946)"><path d="M52,3l6.3,7H53.4A1.4,1.4,0,0,1,52,8.6Z" transform="translate(-15 -0.3)" fill="#bcbec0"/><path d="M46.6,10V40.8a2.8,2.8,0,0,1-2.8,2.8h-28A2.8,2.8,0,0,1,13,40.8V5.8A2.8,2.8,0,0,1,15.8,3H40.3V8.6A1.4,1.4,0,0,0,41.7,10Z" transform="translate(-3.3 -0.3)" fill="#e6e7e8"/><g transform="translate(16.641 17.234)"><path d="M51.77,28.346a.7.7,0,0,1-1.078.784l-.917-.672-.917.672a.7.7,0,0,1-1.078-.784l.35-1.085-.924-.665a.7.7,0,0,1,.413-1.267H48.76l.35-1.085a.7.7,0,0,1,1.33,0l.35,1.085h1.141a.7.7,0,0,1,.413,1.267l-.924.665Z" transform="translate(-30.116 -23.762)" fill="#d8d7da"/><path d="M39.77,28.346a.7.7,0,0,1-1.078.784l-.917-.672-.917.672a.7.7,0,0,1-1.078-.784l.35-1.085-.924-.665a.7.7,0,0,1,.413-1.267H36.76l.35-1.085a.7.7,0,0,1,1.33,0l.35,1.085h1.141a.7.7,0,0,1,.413,1.267l-.924.665Z" transform="translate(-26.516 -23.762)" fill="#d8d7da"/><path d="M27.77,28.346a.7.7,0,0,1-1.078.784l-.917-.672-.917.672a.7.7,0,0,1-1.078-.784l.35-1.085-.924-.665a.7.7,0,0,1,.413-1.267H24.76l.35-1.085a.7.7,0,0,1,1.33,0l.35,1.085h1.141a.7.7,0,0,1,.413,1.267l-.924.665Z" transform="translate(-22.916 -23.762)" fill="#d8d7da"/></g><path d="M49.77,26.346a.7.7,0,0,1-1.078.784l-.917-.672-.917.672a.7.7,0,0,1-1.078-.784l.35-1.085-.924-.665a.7.7,0,0,1,.413-1.267H46.76l.35-1.085a.7.7,0,0,1,1.33,0l.35,1.085h1.141a.7.7,0,0,1,.413,1.267l-.924.665Z" transform="translate(-12.875 -5.929)" fill="#b15815"/><path d="M37.77,26.346a.7.7,0,0,1-1.078.784l-.917-.672-.917.672a.7.7,0,0,1-1.078-.784l.35-1.085-.924-.665a.7.7,0,0,1,.413-1.267H34.76l.35-1.085a.7.7,0,0,1,1.33,0l.35,1.085h1.141a.7.7,0,0,1,.413,1.267l-.924.665Z" transform="translate(-9.275 -5.929)" fill="#b15815"/><path d="M25.77,26.346a.7.7,0,0,1-1.078.784l-.917-.672-.917.672a.7.7,0,0,1-1.078-.784l.35-1.085-.924-.665a.7.7,0,0,1,.413-1.267H22.76l.35-1.085a.7.7,0,0,1,1.33,0l.35,1.085h1.141a.7.7,0,0,1,.413,1.267l-.924.665Z" transform="translate(-5.675 -5.929)" fill="#b15815"/><path d="M27,43.1a1.41,1.41,0,0,1-1.4,1.4h-.7a1.4,1.4,0,1,1,0,2.8h-.7a1.4,1.4,0,1,1,0,2.8H17.9l-2.8-1.4H13V40.3h2.1l2.1-2.8V35.4a1.4,1.4,0,1,1,2.8,0v3.5h5.6a1.4,1.4,0,1,1,0,2.8A1.4,1.4,0,0,1,27,43.1Z" transform="translate(-3.3 -9.6)" fill="#d8d7da"/><path d="M8.6,40.7v9.1H3V40H8.6Z" transform="translate(-0.3 -11.4)" fill="#22cac5"/><path d="M23.6,39.7a1.4,1.4,0,1,1,0,2.8h-.7a1.4,1.4,0,1,1,0,2.8h-.7a1.4,1.4,0,1,1,0,2.8H15.9l-2.8-1.4H11V38.3h2.1l2.1-2.8V33.4a1.4,1.4,0,1,1,2.8,0v3.5h5.6a1.4,1.4,0,1,1,0,2.8Z" transform="translate(-2.7 -9)" fill="#ffc477"/><path d="M43.818,9.231l-6.3-7A.7.7,0,0,0,37,2H12.5A3.5,3.5,0,0,0,9,5.5V28.6a.7.7,0,0,0-.7-.7H2.7a.7.7,0,0,0-.7.7v9.8a.7.7,0,0,0,.7.7H8.3a.7.7,0,0,0,.7-.7v2.1A3.5,3.5,0,0,0,12.5,44h28A3.5,3.5,0,0,0,44,40.5V9.7A.68.68,0,0,0,43.818,9.231ZM7.6,37.7H3.4V29.3H7.6ZM37.7,4.527,41.725,9H38.4a.7.7,0,0,1-.7-.7ZM9,37V30h1.4a.71.71,0,0,0,.56-.28l2.1-2.8a.689.689,0,0,0,.14-.42V24.4a.7.7,0,0,1,1.4,0v3.5a.7.7,0,0,0,.7.7h5.6a.7.7,0,1,1,0,1.4H18.8a.7.7,0,0,0,0,1.4h2.1a.7.7,0,0,1,0,1.4H18.8a.7.7,0,1,0,0,1.4h1.4a.7.7,0,1,1,0,1.4H18.8a.7.7,0,1,0,0,1.4h.7a.7.7,0,1,1,0,1.4H13.368l-2.653-1.323A.7.7,0,0,0,10.4,37Zm33.6,3.5a2.106,2.106,0,0,1-2.1,2.1h-28a2.106,2.106,0,0,1-2.1-2.1V38.484l2.485,1.239a.7.7,0,0,0,.315.077h6.3a2.106,2.106,0,0,0,2.1-2.1,2.054,2.054,0,0,0-.273-1.029A2.1,2.1,0,0,0,22.3,34.9a2.054,2.054,0,0,0-.273-1.029A2.1,2.1,0,0,0,23,32.1a2.075,2.075,0,0,0-.539-1.4A2.075,2.075,0,0,0,23,29.3a2.106,2.106,0,0,0-2.1-2.1H16V24.4a2.1,2.1,0,0,0-4.2,0v1.869l-1.4,1.862V5.5a2.106,2.106,0,0,1,2.1-2.1H36.3V8.3a2.106,2.106,0,0,0,2.1,2.1h4.2Z" transform="translate(0 0)"/><path d="M35.477,27.027l.509.369a1.4,1.4,0,0,0,2.151-1.564l-.194-.6.508-.37a1.4,1.4,0,0,0-.82-2.532H37l-.195-.6a1.4,1.4,0,0,0-2.66,0l-.2.6h-.63a1.4,1.4,0,0,0-.822,2.532l.508.37-.19.6A1.4,1.4,0,0,0,34.97,27.4ZM34.242,24.4l-.921-.668h1.138a.7.7,0,0,0,.666-.484l.35-1.09,0,.008.35,1.081a.7.7,0,0,0,.666.484h1.137l-.921.668a.7.7,0,0,0-.254.782l.35,1.082-.92-.668a.7.7,0,0,0-.823,0l-.92.668.35-1.081a.7.7,0,0,0-.252-.782Z" transform="translate(-8.977 -5.631)"/><path d="M44.5,24.863l.508.37-.191.6A1.4,1.4,0,0,0,46.97,27.4l.506-.369.509.369a1.4,1.4,0,0,0,2.151-1.564l-.194-.6.508-.37a1.4,1.4,0,0,0-.82-2.532H49l-.195-.6a1.4,1.4,0,0,0-2.66,0l-.2.6h-.63a1.4,1.4,0,0,0-.822,2.532Zm1.96-1.132a.7.7,0,0,0,.666-.484l.35-1.09,0,.008.35,1.081a.7.7,0,0,0,.666.484h1.138l-.92.668a.7.7,0,0,0-.254.782l.35,1.082-.92-.668a.7.7,0,0,0-.823,0l-.92.668.35-1.081a.7.7,0,0,0-.254-.782l-.918-.668Z" transform="translate(-12.577 -5.631)"/><path d="M25.631,22.331H25l-.195-.6a1.4,1.4,0,0,0-2.66,0l-.2.6h-.63a1.4,1.4,0,0,0-.822,2.532l.508.37-.19.6A1.4,1.4,0,0,0,22.97,27.4l.506-.369.509.369a1.4,1.4,0,0,0,2.151-1.564l-.194-.6.508-.37a1.4,1.4,0,0,0-.82-2.532Zm-.92,2.068a.7.7,0,0,0-.254.782l.35,1.082-.92-.668a.7.7,0,0,0-.823,0l-.92.668.35-1.081a.7.7,0,0,0-.254-.782l-.918-.668h1.137a.7.7,0,0,0,.666-.484l.35-1.09v.008l.35,1.081a.7.7,0,0,0,.666.484h1.137Z" transform="translate(-5.377 -5.631)"/><path d="M19,8h1.4V9.4H19Z" transform="translate(-5.1 -1.8)"/><path d="M23,8H35.6V9.4H23Z" transform="translate(-6.3 -1.8)"/><path d="M19,12H34.4v1.4H19Z" transform="translate(-5.1 -3)"/><path d="M54,54h1.4v1.4H54Z" transform="translate(-15.6 -15.6)"/><path d="M36,54H47.2v1.4H36Z" transform="translate(-10.2 -15.6)"/><path d="M36,50H50v1.4H36Z" transform="translate(-10.2 -14.4)"/><path d="M36,46H50v1.4H36Z" transform="translate(-10.2 -13.2)"/><path d="M36,42H50v1.4H36Z" transform="translate(-10.2 -12)"/><path d="M36,38h1.4v1.4H36Z" transform="translate(-10.2 -10.8)"/><path d="M40,38H51.2v1.4H40Z" transform="translate(-11.4 -10.8)"/></g></g></g></svg>