<svg xmlns="http://www.w3.org/2000/svg" width="84.696" height="81.342" viewBox="0 0 84.696 81.342"><g transform="translate(-5473.637 10267.85)"><g transform="translate(0 -304)"><g transform="translate(5473.637 -9963.85)"><path d="M32.829,61.313A32.866,32.866,0,0,0,0,28.484V0A61.382,61.382,0,0,1,61.313,61.313Z" transform="translate(23.383 20.029)" fill="#22cac5"/><path d="M40.671,0A40.671,40.671,0,1,1,0,40.671,40.671,40.671,0,0,1,40.671,0Z" transform="translate(0)" fill="#31313c" opacity="0.444" style="mix-blend-mode:multiply;isolation:isolate"/><g transform="translate(15.879 16.813)"><path d="M415.319,50.752a.553.553,0,1,1-.553-.528A.541.541,0,0,1,415.319,50.752Z" transform="translate(-414.214 -50.224)" fill="#fff"/><path d="M423.765,50.752a.553.553,0,1,1-.552-.528A.54.54,0,0,1,423.765,50.752Z" transform="translate(-417.69 -50.224)" fill="#fff"/><path d="M432.21,50.752a.553.553,0,1,1-.552-.528A.54.54,0,0,1,432.21,50.752Z" transform="translate(-421.166 -50.224)" fill="#fff"/><path d="M440.658,50.752a.553.553,0,1,1-.553-.528A.541.541,0,0,1,440.658,50.752Z" transform="translate(-424.642 -50.224)" fill="#fff"/><path d="M449.1,50.752a.553.553,0,1,1-.552-.528A.541.541,0,0,1,449.1,50.752Z" transform="translate(-428.118 -50.224)" fill="#fff"/><path d="M457.55,50.752a.553.553,0,1,1-.552-.528A.541.541,0,0,1,457.55,50.752Z" transform="translate(-431.594 -50.224)" fill="#fff"/><path d="M466,50.752a.553.553,0,1,1-.553-.528A.541.541,0,0,1,466,50.752Z" transform="translate(-435.07 -50.224)" fill="#fff"/><path d="M474.443,50.752a.553.553,0,1,1-.552-.528A.54.54,0,0,1,474.443,50.752Z" transform="translate(-438.546 -50.224)" fill="#fff"/><path d="M482.888,50.752a.553.553,0,1,1-.552-.528A.541.541,0,0,1,482.888,50.752Z" transform="translate(-442.022 -50.224)" fill="#fff"/><path d="M491.335,50.752a.553.553,0,1,1-.552-.528A.541.541,0,0,1,491.335,50.752Z" transform="translate(-445.498 -50.224)" fill="#fff"/><path d="M499.782,50.752a.553.553,0,1,1-.553-.528A.541.541,0,0,1,499.782,50.752Z" transform="translate(-448.974 -50.224)" fill="#fff"/><g transform="translate(0 4.225)"><path d="M415.319,58.26a.553.553,0,1,1-.553-.528A.541.541,0,0,1,415.319,58.26Z" transform="translate(-414.214 -57.732)" fill="#fff"/><path d="M423.765,58.26a.553.553,0,1,1-.552-.528A.54.54,0,0,1,423.765,58.26Z" transform="translate(-417.69 -57.732)" fill="#fff"/><path d="M432.21,58.26a.553.553,0,1,1-.552-.528A.54.54,0,0,1,432.21,58.26Z" transform="translate(-421.166 -57.732)" fill="#fff"/><path d="M440.658,58.26a.553.553,0,1,1-.553-.528A.541.541,0,0,1,440.658,58.26Z" transform="translate(-424.642 -57.732)" fill="#fff"/><path d="M449.1,58.26a.553.553,0,1,1-.552-.528A.54.54,0,0,1,449.1,58.26Z" transform="translate(-428.118 -57.732)" fill="#fff"/><path d="M457.55,58.26a.553.553,0,1,1-.552-.528A.54.54,0,0,1,457.55,58.26Z" transform="translate(-431.594 -57.732)" fill="#fff"/><path d="M466,58.26a.553.553,0,1,1-.553-.528A.541.541,0,0,1,466,58.26Z" transform="translate(-435.07 -57.732)" fill="#fff"/><path d="M474.443,58.26a.553.553,0,1,1-.552-.528A.54.54,0,0,1,474.443,58.26Z" transform="translate(-438.546 -57.732)" fill="#fff"/><path d="M482.888,58.26a.553.553,0,1,1-.552-.528A.541.541,0,0,1,482.888,58.26Z" transform="translate(-442.022 -57.732)" fill="#fff"/><path d="M491.335,58.26a.553.553,0,1,1-.552-.528A.541.541,0,0,1,491.335,58.26Z" transform="translate(-445.498 -57.732)" fill="#fff"/><path d="M499.782,58.26a.553.553,0,1,1-.553-.528A.541.541,0,0,1,499.782,58.26Z" transform="translate(-448.974 -57.732)" fill="#fff"/></g><g transform="translate(0 8.45)"><ellipse cx="0.552" cy="0.528" rx="0.552" ry="0.528" fill="#fff"/><path d="M423.765,65.768a.553.553,0,1,1-.552-.528A.541.541,0,0,1,423.765,65.768Z" transform="translate(-417.69 -65.24)" fill="#fff"/><ellipse cx="0.552" cy="0.528" rx="0.552" ry="0.528" transform="translate(9.941)" fill="#fff"/><path d="M440.658,65.768a.553.553,0,1,1-.553-.528A.541.541,0,0,1,440.658,65.768Z" transform="translate(-424.642 -65.24)" fill="#fff"/><path d="M449.1,65.768a.553.553,0,1,1-.552-.528A.541.541,0,0,1,449.1,65.768Z" transform="translate(-428.118 -65.24)" fill="#fff"/><ellipse cx="0.552" cy="0.528" rx="0.552" ry="0.528" transform="translate(24.852)" fill="#fff"/><path d="M466,65.768a.553.553,0,1,1-.553-.528A.541.541,0,0,1,466,65.768Z" transform="translate(-435.07 -65.24)" fill="#fff"/><ellipse cx="0.552" cy="0.528" rx="0.552" ry="0.528" transform="translate(34.792)" fill="#fff"/><ellipse cx="0.552" cy="0.528" rx="0.552" ry="0.528" transform="translate(39.763)" fill="#fff"/><path d="M491.335,65.768a.553.553,0,1,1-.552-.528A.541.541,0,0,1,491.335,65.768Z" transform="translate(-445.498 -65.24)" fill="#fff"/><path d="M499.782,65.768a.553.553,0,1,1-.553-.528A.541.541,0,0,1,499.782,65.768Z" transform="translate(-448.974 -65.24)" fill="#fff"/></g><g transform="translate(0 12.675)"><ellipse cx="0.552" cy="0.528" rx="0.552" ry="0.528" transform="translate(0 0)" fill="#fff"/><path d="M423.765,73.275a.553.553,0,1,1-.552-.528A.54.54,0,0,1,423.765,73.275Z" transform="translate(-417.69 -72.747)" fill="#fff"/><ellipse cx="0.552" cy="0.528" rx="0.552" ry="0.528" transform="translate(9.941 0)" fill="#fff"/><path d="M440.658,73.275a.553.553,0,1,1-.553-.528A.541.541,0,0,1,440.658,73.275Z" transform="translate(-424.642 -72.747)" fill="#fff"/><path d="M449.1,73.275a.553.553,0,1,1-.552-.528A.54.54,0,0,1,449.1,73.275Z" transform="translate(-428.118 -72.747)" fill="#fff"/><ellipse cx="0.552" cy="0.528" rx="0.552" ry="0.528" transform="translate(24.852 0)" fill="#fff"/><path d="M466,73.275a.553.553,0,1,1-.553-.528A.541.541,0,0,1,466,73.275Z" transform="translate(-435.07 -72.747)" fill="#fff"/><ellipse cx="0.552" cy="0.528" rx="0.552" ry="0.528" transform="translate(34.792 0)" fill="#fff"/><ellipse cx="0.552" cy="0.528" rx="0.552" ry="0.528" transform="translate(39.763 0)" fill="#fff"/><path d="M491.335,73.275a.553.553,0,1,1-.552-.528A.541.541,0,0,1,491.335,73.275Z" transform="translate(-445.498 -72.747)" fill="#fff"/><path d="M499.782,73.275a.553.553,0,1,1-.553-.528A.541.541,0,0,1,499.782,73.275Z" transform="translate(-448.974 -72.747)" fill="#fff"/></g><g transform="translate(0 16.9)"><path d="M415.319,80.783a.553.553,0,1,1-.553-.528A.541.541,0,0,1,415.319,80.783Z" transform="translate(-414.214 -80.255)" fill="#fff"/><path d="M423.765,80.783a.553.553,0,1,1-.552-.528A.54.54,0,0,1,423.765,80.783Z" transform="translate(-417.69 -80.255)" fill="#fff"/><path d="M432.21,80.783a.553.553,0,1,1-.552-.528A.54.54,0,0,1,432.21,80.783Z" transform="translate(-421.166 -80.255)" fill="#fff"/><path d="M440.658,80.783a.553.553,0,1,1-.553-.528A.541.541,0,0,1,440.658,80.783Z" transform="translate(-424.642 -80.255)" fill="#fff"/><path d="M449.1,80.783a.553.553,0,1,1-.552-.528A.54.54,0,0,1,449.1,80.783Z" transform="translate(-428.118 -80.255)" fill="#fff"/><path d="M457.55,80.783a.553.553,0,1,1-.552-.528A.54.54,0,0,1,457.55,80.783Z" transform="translate(-431.594 -80.255)" fill="#fff"/><path d="M466,80.783a.553.553,0,1,1-.553-.528A.541.541,0,0,1,466,80.783Z" transform="translate(-435.07 -80.255)" fill="#fff"/><path d="M474.443,80.783a.553.553,0,1,1-.552-.528A.54.54,0,0,1,474.443,80.783Z" transform="translate(-438.546 -80.255)" fill="#fff"/><path d="M482.888,80.783a.553.553,0,1,1-.552-.528A.54.54,0,0,1,482.888,80.783Z" transform="translate(-442.022 -80.255)" fill="#fff"/><path d="M491.335,80.783a.553.553,0,1,1-.552-.528A.541.541,0,0,1,491.335,80.783Z" transform="translate(-445.498 -80.255)" fill="#fff"/><path d="M499.782,80.783a.553.553,0,1,1-.553-.528A.541.541,0,0,1,499.782,80.783Z" transform="translate(-448.974 -80.255)" fill="#fff"/></g><g transform="translate(0 21.125)"><ellipse cx="0.552" cy="0.528" rx="0.552" ry="0.528" transform="translate(0 0)" fill="#fff"/><path d="M423.765,88.291a.553.553,0,1,1-.552-.528A.54.54,0,0,1,423.765,88.291Z" transform="translate(-417.69 -87.763)" fill="#fff"/><ellipse cx="0.552" cy="0.528" rx="0.552" ry="0.528" transform="translate(9.941 0)" fill="#fff"/><path d="M440.658,88.291a.553.553,0,1,1-.553-.528A.541.541,0,0,1,440.658,88.291Z" transform="translate(-424.642 -87.763)" fill="#fff"/><path d="M449.1,88.291a.553.553,0,1,1-.552-.528A.54.54,0,0,1,449.1,88.291Z" transform="translate(-428.118 -87.763)" fill="#fff"/><ellipse cx="0.552" cy="0.528" rx="0.552" ry="0.528" transform="translate(24.852 0)" fill="#fff"/><path d="M466,88.291a.553.553,0,1,1-.553-.528A.541.541,0,0,1,466,88.291Z" transform="translate(-435.07 -87.763)" fill="#fff"/><ellipse cx="0.552" cy="0.528" rx="0.552" ry="0.528" transform="translate(34.792 0)" fill="#fff"/><ellipse cx="0.552" cy="0.528" rx="0.552" ry="0.528" transform="translate(39.763 0)" fill="#fff"/><path d="M491.335,88.291a.553.553,0,1,1-.552-.528A.541.541,0,0,1,491.335,88.291Z" transform="translate(-445.498 -87.763)" fill="#fff"/><path d="M499.782,88.291a.553.553,0,1,1-.553-.528A.541.541,0,0,1,499.782,88.291Z" transform="translate(-448.974 -87.763)" fill="#fff"/></g><g transform="translate(0 25.35)"><ellipse cx="0.552" cy="0.528" rx="0.552" ry="0.528" fill="#fff"/><path d="M423.765,95.8a.553.553,0,1,1-.552-.528A.54.54,0,0,1,423.765,95.8Z" transform="translate(-417.69 -95.271)" fill="#fff"/><ellipse cx="0.552" cy="0.528" rx="0.552" ry="0.528" transform="translate(9.941)" fill="#fff"/><path d="M440.658,95.8a.553.553,0,1,1-.553-.528A.541.541,0,0,1,440.658,95.8Z" transform="translate(-424.642 -95.271)" fill="#fff"/><path d="M449.1,95.8a.553.553,0,1,1-.552-.528A.541.541,0,0,1,449.1,95.8Z" transform="translate(-428.118 -95.271)" fill="#fff"/><ellipse cx="0.552" cy="0.528" rx="0.552" ry="0.528" transform="translate(24.852)" fill="#fff"/><path d="M466,95.8a.553.553,0,1,1-.553-.528A.541.541,0,0,1,466,95.8Z" transform="translate(-435.07 -95.271)" fill="#fff"/><ellipse cx="0.552" cy="0.528" rx="0.552" ry="0.528" transform="translate(34.792)" fill="#fff"/><ellipse cx="0.552" cy="0.528" rx="0.552" ry="0.528" transform="translate(39.763)" fill="#fff"/><path d="M491.335,95.8a.553.553,0,1,1-.552-.528A.541.541,0,0,1,491.335,95.8Z" transform="translate(-445.498 -95.271)" fill="#fff"/><path d="M499.782,95.8a.553.553,0,1,1-.553-.528A.541.541,0,0,1,499.782,95.8Z" transform="translate(-448.974 -95.271)" fill="#fff"/></g><g transform="translate(0 29.576)"><path d="M415.319,103.307a.553.553,0,1,1-.553-.528A.541.541,0,0,1,415.319,103.307Z" transform="translate(-414.214 -102.779)" fill="#fff"/><path d="M423.765,103.307a.553.553,0,1,1-.552-.528A.54.54,0,0,1,423.765,103.307Z" transform="translate(-417.69 -102.779)" fill="#fff"/><path d="M432.21,103.307a.553.553,0,1,1-.552-.528A.54.54,0,0,1,432.21,103.307Z" transform="translate(-421.166 -102.779)" fill="#fff"/><path d="M440.658,103.307a.553.553,0,1,1-.553-.528A.541.541,0,0,1,440.658,103.307Z" transform="translate(-424.642 -102.779)" fill="#fff"/><path d="M449.1,103.307a.553.553,0,1,1-.552-.528A.541.541,0,0,1,449.1,103.307Z" transform="translate(-428.118 -102.779)" fill="#fff"/><path d="M457.55,103.307a.553.553,0,1,1-.552-.528A.541.541,0,0,1,457.55,103.307Z" transform="translate(-431.594 -102.779)" fill="#fff"/><path d="M466,103.307a.553.553,0,1,1-.553-.528A.541.541,0,0,1,466,103.307Z" transform="translate(-435.07 -102.779)" fill="#fff"/><path d="M474.443,103.307a.553.553,0,1,1-.552-.528A.54.54,0,0,1,474.443,103.307Z" transform="translate(-438.546 -102.779)" fill="#fff"/><path d="M482.888,103.307a.553.553,0,1,1-.552-.528A.541.541,0,0,1,482.888,103.307Z" transform="translate(-442.022 -102.779)" fill="#fff"/><path d="M491.335,103.307a.553.553,0,1,1-.552-.528A.541.541,0,0,1,491.335,103.307Z" transform="translate(-445.498 -102.779)" fill="#fff"/><path d="M499.782,103.307a.553.553,0,1,1-.553-.528A.541.541,0,0,1,499.782,103.307Z" transform="translate(-448.974 -102.779)" fill="#fff"/></g><g transform="translate(0 33.801)"><ellipse cx="0.552" cy="0.528" rx="0.552" ry="0.528" fill="#fff"/><path d="M423.765,110.815a.553.553,0,1,1-.552-.528A.541.541,0,0,1,423.765,110.815Z" transform="translate(-417.69 -110.287)" fill="#fff"/><ellipse cx="0.552" cy="0.528" rx="0.552" ry="0.528" transform="translate(9.941)" fill="#fff"/><path d="M440.658,110.815a.553.553,0,1,1-.553-.528A.541.541,0,0,1,440.658,110.815Z" transform="translate(-424.642 -110.287)" fill="#fff"/><path d="M449.1,110.815a.553.553,0,1,1-.552-.528A.541.541,0,0,1,449.1,110.815Z" transform="translate(-428.118 -110.287)" fill="#fff"/><ellipse cx="0.552" cy="0.528" rx="0.552" ry="0.528" transform="translate(24.852)" fill="#fff"/><path d="M466,110.815a.553.553,0,1,1-.553-.528A.541.541,0,0,1,466,110.815Z" transform="translate(-435.07 -110.287)" fill="#fff"/><ellipse cx="0.552" cy="0.528" rx="0.552" ry="0.528" transform="translate(34.792)" fill="#fff"/><ellipse cx="0.552" cy="0.528" rx="0.552" ry="0.528" transform="translate(39.763)" fill="#fff"/><path d="M491.335,110.815a.553.553,0,1,1-.552-.528A.541.541,0,0,1,491.335,110.815Z" transform="translate(-445.498 -110.287)" fill="#fff"/><path d="M499.782,110.815a.553.553,0,1,1-.553-.528A.541.541,0,0,1,499.782,110.815Z" transform="translate(-448.974 -110.287)" fill="#fff"/></g><g transform="translate(0 38.025)"><path d="M415.319,118.322a.553.553,0,1,1-.553-.528A.541.541,0,0,1,415.319,118.322Z" transform="translate(-414.214 -117.794)" fill="#fff"/><path d="M423.765,118.322a.553.553,0,1,1-.552-.528A.541.541,0,0,1,423.765,118.322Z" transform="translate(-417.69 -117.794)" fill="#fff"/><path d="M432.21,118.322a.553.553,0,1,1-.552-.528A.541.541,0,0,1,432.21,118.322Z" transform="translate(-421.166 -117.794)" fill="#fff"/><path d="M440.658,118.322a.553.553,0,1,1-.553-.528A.541.541,0,0,1,440.658,118.322Z" transform="translate(-424.642 -117.794)" fill="#fff"/><path d="M449.1,118.322a.553.553,0,1,1-.552-.528A.541.541,0,0,1,449.1,118.322Z" transform="translate(-428.118 -117.794)" fill="#fff"/><path d="M457.55,118.322a.553.553,0,1,1-.552-.528A.541.541,0,0,1,457.55,118.322Z" transform="translate(-431.594 -117.794)" fill="#fff"/><path d="M466,118.322a.553.553,0,1,1-.553-.528A.541.541,0,0,1,466,118.322Z" transform="translate(-435.07 -117.794)" fill="#fff"/><path d="M474.443,118.322a.553.553,0,1,1-.552-.528A.541.541,0,0,1,474.443,118.322Z" transform="translate(-438.546 -117.794)" fill="#fff"/><path d="M482.888,118.322a.553.553,0,1,1-.552-.528A.541.541,0,0,1,482.888,118.322Z" transform="translate(-442.022 -117.794)" fill="#fff"/><path d="M491.335,118.322a.553.553,0,1,1-.552-.528A.541.541,0,0,1,491.335,118.322Z" transform="translate(-445.498 -117.794)" fill="#fff"/><path d="M499.782,118.322a.553.553,0,1,1-.553-.528A.541.541,0,0,1,499.782,118.322Z" transform="translate(-448.974 -117.794)" fill="#fff"/></g><g transform="translate(0 42.251)"><ellipse cx="0.552" cy="0.528" rx="0.552" ry="0.528" transform="translate(0 0)" fill="#fff"/><path d="M423.765,125.83a.553.553,0,1,1-.552-.528A.54.54,0,0,1,423.765,125.83Z" transform="translate(-417.69 -125.302)" fill="#fff"/><ellipse cx="0.552" cy="0.528" rx="0.552" ry="0.528" transform="translate(9.941 0)" fill="#fff"/><path d="M440.658,125.83a.553.553,0,1,1-.553-.528A.541.541,0,0,1,440.658,125.83Z" transform="translate(-424.642 -125.302)" fill="#fff"/><path d="M449.1,125.83a.553.553,0,1,1-.552-.528A.54.54,0,0,1,449.1,125.83Z" transform="translate(-428.118 -125.302)" fill="#fff"/><ellipse cx="0.552" cy="0.528" rx="0.552" ry="0.528" transform="translate(24.852 0)" fill="#fff"/><path d="M466,125.83a.553.553,0,1,1-.553-.528A.541.541,0,0,1,466,125.83Z" transform="translate(-435.07 -125.302)" fill="#fff"/><ellipse cx="0.552" cy="0.528" rx="0.552" ry="0.528" transform="translate(34.792 0)" fill="#fff"/><ellipse cx="0.552" cy="0.528" rx="0.552" ry="0.528" transform="translate(39.763 0)" fill="#fff"/><path d="M491.335,125.83a.553.553,0,1,1-.552-.528A.541.541,0,0,1,491.335,125.83Z" transform="translate(-445.498 -125.302)" fill="#fff"/><path d="M499.782,125.83a.553.553,0,1,1-.553-.528A.541.541,0,0,1,499.782,125.83Z" transform="translate(-448.974 -125.302)" fill="#fff"/></g><g transform="translate(0 46.476)"><ellipse cx="0.552" cy="0.528" rx="0.552" ry="0.528" transform="translate(0 0)" fill="#fff"/><path d="M423.765,133.338a.553.553,0,1,1-.552-.528A.54.54,0,0,1,423.765,133.338Z" transform="translate(-417.69 -132.81)" fill="#fff"/><ellipse cx="0.552" cy="0.528" rx="0.552" ry="0.528" transform="translate(9.941 0)" fill="#fff"/><path d="M440.658,133.338a.553.553,0,1,1-.553-.528A.541.541,0,0,1,440.658,133.338Z" transform="translate(-424.642 -132.81)" fill="#fff"/><path d="M449.1,133.338a.553.553,0,1,1-.552-.528A.54.54,0,0,1,449.1,133.338Z" transform="translate(-428.118 -132.81)" fill="#fff"/><ellipse cx="0.552" cy="0.528" rx="0.552" ry="0.528" transform="translate(24.852 0)" fill="#fff"/><path d="M466,133.338a.553.553,0,1,1-.553-.528A.541.541,0,0,1,466,133.338Z" transform="translate(-435.07 -132.81)" fill="#fff"/><ellipse cx="0.552" cy="0.528" rx="0.552" ry="0.528" transform="translate(34.792 0)" fill="#fff"/><ellipse cx="0.552" cy="0.528" rx="0.552" ry="0.528" transform="translate(39.763 0)" fill="#fff"/><path d="M491.335,133.338a.553.553,0,1,1-.552-.528A.541.541,0,0,1,491.335,133.338Z" transform="translate(-445.498 -132.81)" fill="#fff"/><path d="M499.782,133.338a.553.553,0,1,1-.553-.528A.541.541,0,0,1,499.782,133.338Z" transform="translate(-448.974 -132.81)" fill="#fff"/></g></g></g><g transform="translate(5483.754 -9954.928)"><g transform="translate(6.037 6.039)"><path d="M33.827,54.7a15.941,15.941,0,0,0,27.219,0,15.941,15.941,0,0,0-27.219,0Z" transform="translate(-21.727 -28.992)" fill="#e6f2ff"/><circle cx="5.347" cy="5.347" r="5.347" transform="translate(20.363 20.364)" fill="#a6eae8"/><path d="M64.559,61.429,60.33,63.543V59.314Z" transform="translate(-36.276 -35.718)" fill="#e6f2ff"/><path d="M52.077,83.43a17.521,17.521,0,0,1-30.347,0l-7.09,4.091v.009a25.716,25.716,0,0,0,44.528,0v-.009Z" transform="translate(-11.194 -48.956)" fill="#7b3d0e"/><path d="M86.264,45.574v-.009l-7.09-4.091A17.522,17.522,0,0,0,64,15.187V7A25.715,25.715,0,0,1,86.264,45.574Z" transform="translate(-38.29 -7)" fill="#dfbba0"/><path d="M32.71,7v8.187A17.522,17.522,0,0,0,17.536,41.474l-7.09,4.091v.009A25.715,25.715,0,0,1,32.71,7Z" transform="translate(-7 -7)" fill="#22cac5"/></g><g transform="translate(5.245 5.25)"><path d="M63.951,59.76l-4.229-2.115a.79.79,0,0,0-1.143.706v4.229a.789.789,0,0,0,1.143.706l4.229-2.115a.789.789,0,0,0,0-1.412ZM60.159,61.3V59.629l1.674.837Z" transform="translate(-34.523 -33.967)"/><path d="M60.781,53.367a16.728,16.728,0,0,0-28.61,0,.791.791,0,0,0,0,.747,16.728,16.728,0,0,0,28.61,0,.791.791,0,0,0,0-.747ZM46.476,60.592a14.954,14.954,0,0,1-12.689-6.848,15.136,15.136,0,0,1,12.689-6.855,14.955,14.955,0,0,1,12.69,6.848A15.138,15.138,0,0,1,46.476,60.592Z" transform="translate(-19.975 -27.241)"/><path d="M56.537,50.4a6.134,6.134,0,1,0,6.137,6.135A6.134,6.134,0,0,0,56.537,50.4Zm0,10.694a4.558,4.558,0,1,1,4.558-4.56,4.558,4.558,0,0,1-4.558,4.56Z" transform="translate(-30.036 -30.035)"/><path d="M31.746,5.25A26.431,26.431,0,0,0,17.674,9.292a.789.789,0,1,0,.839,1.337A24.829,24.829,0,0,1,30.958,6.841v6.616A18.3,18.3,0,0,0,15.514,40.209L9.786,43.517A24.9,24.9,0,0,1,11.437,17.3a.79.79,0,0,0-1.286-.917A26.5,26.5,0,0,0,50.217,50.75a.789.789,0,0,0-1.1-1.132,24.906,24.906,0,0,1-38.537-4.736l5.728-3.306a18.29,18.29,0,0,0,30.881,0l5.736,3.312c-.426.683-.883,1.353-1.379,2a.789.789,0,1,0,1.253.96,26.256,26.256,0,0,0,5.446-16.1A26.529,26.529,0,0,0,31.746,5.25Zm0,43.233A16.734,16.734,0,1,1,48.48,31.749,16.734,16.734,0,0,1,31.746,48.483Zm16.232-8.274A18.3,18.3,0,0,0,32.536,13.457V6.849a24.946,24.946,0,0,1,24.131,24.9,24.7,24.7,0,0,1-2.949,11.772Z" transform="translate(-5.245 -5.25)"/><path d="M22.519,22.326a.788.788,0,0,0,.562-.234c.382-.386.782-.767,1.189-1.128a.79.79,0,0,0-1.047-1.182c-.433.384-.857.787-1.263,1.2a.789.789,0,0,0,.561,1.344Z" transform="translate(-14.295 -13.118)"/></g></g></g></g></svg>