<svg xmlns="http://www.w3.org/2000/svg" width="75.332" height="62.7" viewBox="0 0 75.332 62.7"><g transform="translate(-1 -597)"><path d="M70.536,651.1H6.8A5.807,5.807,0,0,1,1,645.289V602.807A5.807,5.807,0,0,1,6.8,597H70.536a5.807,5.807,0,0,1,5.8,5.807v42.482A5.807,5.807,0,0,1,70.536,651.1ZM6.8,598.77a4.043,4.043,0,0,0-4.037,4.037v42.482A4.043,4.043,0,0,0,6.8,649.327H70.536a4.043,4.043,0,0,0,4.037-4.037V602.807a4.043,4.043,0,0,0-4.037-4.037Z" fill-rule="evenodd"/><path d="M552.131,1041.993H488.88a.886.886,0,0,1-.88-.89V1005.88a.877.877,0,0,1,.88-.88h63.252a.877.877,0,0,1,.88.88V1041.1A.88.88,0,0,1,552.131,1041.993Zm-62.372-1.77h61.493v-33.464H489.759Z" transform="translate(-481.839 -403.677)" fill-rule="evenodd"/><path d="M75.452,4738.759H1.88a.879.879,0,1,1,0-1.759H75.452a.879.879,0,1,1,0,1.759Z" transform="translate(0 -4096.129)" fill-rule="evenodd"/><path d="M5281.073,5137.77h-2.194a.886.886,0,0,1-.879-.89.877.877,0,0,1,.879-.879h2.194a.885.885,0,1,1,0,1.77Z" transform="translate(-5221.081 -4490.901)" fill-rule="evenodd"/><path d="M5787.073,5137.77h-2.194a.886.886,0,0,1-.879-.89.877.877,0,0,1,.879-.879h2.194a.885.885,0,1,1,0,1.77Z" transform="translate(-5721.719 -4490.901)" fill-rule="evenodd"/><path d="M6293.073,5137.77h-2.194a.886.886,0,0,1-.879-.89.877.877,0,0,1,.879-.879h2.194a.885.885,0,1,1,0,1.77Z" transform="translate(-6222.357 -4490.901)" fill-rule="evenodd"/><path d="M2699.92,5545.676a.879.879,0,0,1-.837-.583l-3.062-8.615a.887.887,0,0,1,.541-1.124.878.878,0,0,1,1.123.541l3.062,8.6A.887.887,0,0,1,2699.92,5545.676Zm-16.753,0a.887.887,0,0,1-.826-1.176l3.063-8.6a.878.878,0,0,1,1.123-.541.887.887,0,0,1,.541,1.124l-3.062,8.615A.879.879,0,0,1,2683.167,5545.676Z" transform="translate(-2652.877 -4885.975)" fill-rule="evenodd"/><path d="M2392.288,6349.759h-23.408a.879.879,0,1,1,0-1.759h23.408a.879.879,0,1,1,0,1.759Z" transform="translate(-2341.917 -5690.059)" fill-rule="evenodd"/><path d="M891.272,2397.544a9.272,9.272,0,1,1,9.272-9.272A9.282,9.282,0,0,1,891.272,2397.544Zm0-16.775a7.5,7.5,0,1,0,7.5,7.5A7.516,7.516,0,0,0,891.272,2380.77Z" transform="translate(-871.664 -1763.117)" fill-rule="evenodd"/><path d="M1503.057,2791.239a4.061,4.061,0,0,1-1.812-.413.892.892,0,0,1-.382-1.2.88.88,0,0,1,1.187-.382c.678.35,1.95.35,2.289-.392a1.231,1.231,0,0,0,.021-.89c-.477-1.07-2.522-.88-3.37-2.745a3.048,3.048,0,0,1,.032-2.363c.795-1.706,3.115-2.024,4.694-1.219a.881.881,0,1,1-.805,1.568c-.678-.339-1.939-.339-2.289.4a1.286,1.286,0,0,0-.011.89c.477,1.07,2.522.869,3.359,2.745a3,3,0,0,1-.021,2.363A3.057,3.057,0,0,1,1503.057,2791.239Z" transform="translate(-1483.873 -2161.071)" fill-rule="evenodd"/><path d="M1674.88,2679.44a.877.877,0,0,1-.88-.879v-1.24a.878.878,0,0,1,.88-.88.887.887,0,0,1,.89.88v1.24A.886.886,0,0,1,1674.88,2679.44Zm0-9.431a.886.886,0,0,1-.88-.89v-1.229a.886.886,0,0,1,.88-.89.9.9,0,0,1,.89.89v1.229A.9.9,0,0,1,1674.88,2670.009Z" transform="translate(-1655.272 -2048.065)" fill-rule="evenodd"/><path d="M1806.791,1681.509a.891.891,0,0,1-.625-.254l-8.1-8.106a.88.88,0,0,1,1.24-1.25l8.106,8.106A.884.884,0,0,1,1806.791,1681.509Zm-12.737-10.024H1786.2a.88.88,0,1,1,0-1.759h7.852a.88.88,0,1,1,0,1.759Zm-12.494-1.918a.91.91,0,0,1-.625-.254l-3.878-3.889a.876.876,0,0,1,0-1.25.9.9,0,0,1,1.25,0l3.878,3.889A.881.881,0,0,1,1781.56,1669.566Zm-8.52-5.807h-5.161a.88.88,0,0,1,0-1.759h5.161a.88.88,0,1,1,0,1.759Z" transform="translate(-1747.286 -1053.714)" fill-rule="evenodd"/><path d="M1257.6,1413.2a3.6,3.6,0,1,1,3.592-3.6A3.613,3.613,0,0,1,1257.6,1413.2Zm0-5.436a1.833,1.833,0,1,0,1.833,1.833A1.841,1.841,0,0,0,1257.6,1407.759Z" transform="translate(-1239.722 -800.427)" fill-rule="evenodd"/><path d="M2257.592,1413.2a3.6,3.6,0,1,1,3.6-3.6A3.6,3.6,0,0,1,2257.592,1413.2Zm0-5.436a1.833,1.833,0,1,0,1.833,1.833A1.832,1.832,0,0,0,2257.592,1407.759Z" transform="translate(-2229.126 -800.427)" fill-rule="evenodd"/><path d="M2986.6,2142.2a3.6,3.6,0,1,1,3.593-3.6A3.607,3.607,0,0,1,2986.6,2142.2Zm0-5.436a1.833,1.833,0,1,0,1.823,1.833A1.834,1.834,0,0,0,2986.6,2136.759Z" transform="translate(-2950.401 -1521.702)" fill-rule="evenodd"/><path d="M4240.592,2142.2a3.6,3.6,0,1,1,3.6-3.6A3.6,3.6,0,0,1,4240.592,2142.2Zm0-5.436a1.833,1.833,0,1,0,1.833,1.833A1.832,1.832,0,0,0,4240.592,2136.759Z" transform="translate(-4191.112 -1521.702)" fill-rule="evenodd"/><path d="M5367.592,3268.206a3.6,3.6,0,1,1,3.6-3.6A3.6,3.6,0,0,1,5367.592,3268.206Zm0-5.436a1.833,1.833,0,1,0,1.833,1.833A1.841,1.841,0,0,0,5367.592,3262.77Z" transform="translate(-5306.17 -2635.771)" fill-rule="evenodd"/><path d="M4365.063,1372.77h-18.184a.877.877,0,0,1-.879-.88.886.886,0,0,1,.879-.89h18.184a.9.9,0,0,1,.89.89A.887.887,0,0,1,4365.063,1372.77Z" transform="translate(-4298.958 -765.798)" fill-rule="evenodd"/><path d="M3082.063,3809.77h-18.184a.885.885,0,0,1,0-1.77h18.184a.885.885,0,1,1,0,1.77Z" transform="translate(-3029.553 -3176.974)" fill-rule="evenodd"/><path d="M4365.063,1718.77h-18.184a.885.885,0,0,1,0-1.77h18.184a.885.885,0,1,1,0,1.77Z" transform="translate(-4298.958 -1108.132)" fill-rule="evenodd"/><path d="M3082.063,3463.77h-18.184a.877.877,0,0,1-.879-.879.886.886,0,0,1,.879-.89h18.184a.9.9,0,0,1,.89.89A.887.887,0,0,1,3082.063,3463.77Z" transform="translate(-3029.553 -2834.64)" fill-rule="evenodd"/><path d="M2894.815,5702h-9.378l-2.437,6.846h14.252Z" transform="translate(-2851.46 -5050.904)" fill="#b3b3b3" fill-rule="evenodd"/><path d="M197.635,4909.7h37.141a4.043,4.043,0,0,0,4.037-4.038V4903H167v2.66a4.043,4.043,0,0,0,4.037,4.038h26.6Zm31.96-2.459H227.4a.885.885,0,0,1,0-1.77h2.194a.885.885,0,1,1,0,1.77Zm3.168,0a.885.885,0,0,1,0-1.77h2.194a.885.885,0,1,1,0,1.77Zm-8.53,0h-2.194a.885.885,0,0,1,0-1.77h2.194a.885.885,0,1,1,0,1.77Z" transform="translate(-164.241 -4260.371)" fill="#273941" fill-rule="evenodd"/><path d="M167,806.1h71.814V768.037A4.043,4.043,0,0,0,234.777,764H171.037A4.043,4.043,0,0,0,167,768.037Zm67.533-2.554H171.281a.886.886,0,0,1-.88-.89V767.433a.877.877,0,0,1,.88-.88h63.252a.877.877,0,0,1,.88.88v35.223A.88.88,0,0,1,234.533,803.547Z" transform="translate(-164.241 -165.23)" fill="#77b5fe" fill-rule="evenodd"/><path d="M654,1204.464h61.493V1171H654Zm45.481-4.631a.893.893,0,0,1-.89.88H680.407a.885.885,0,0,1,0-1.77h18.184A.9.9,0,0,1,699.481,1199.834Zm-.89-2.787H680.407a.877.877,0,0,1-.88-.879.886.886,0,0,1,.88-.89h18.184a.9.9,0,0,1,.89.89A.886.886,0,0,1,698.591,1197.047Zm8.912,3.306a3.6,3.6,0,0,1-3.592-3.6,3.544,3.544,0,0,1,.509-1.844l-7.015-7a3.594,3.594,0,0,1-5.33-2.215h-6.305a3.6,3.6,0,1,1-6.581-2.723l-2.8-2.787a3.594,3.594,0,0,1-5.33-2.215h-3.614a3.592,3.592,0,1,1,0-1.759h3.614a3.6,3.6,0,0,1,7.089.88,3.545,3.545,0,0,1-.509,1.844l2.8,2.787a3.614,3.614,0,0,1,5.33,2.215h6.305a3.6,3.6,0,1,1,6.581,2.723l7,7a3.648,3.648,0,0,1,1.844-.509,3.6,3.6,0,1,1,0,7.206Zm4.684-21.8H694a.885.885,0,0,1,0-1.77h18.184a.885.885,0,1,1,0,1.77Zm0-3.667H694a.877.877,0,0,1-.88-.879.886.886,0,0,1,.88-.89h18.184a.9.9,0,0,1,.89.89A.886.886,0,0,1,712.187,1174.889Zm-37.226,18.184a9.272,9.272,0,1,1-9.272-9.272A9.275,9.275,0,0,1,674.96,1193.073Z" transform="translate(-646.08 -567.917)" fill="#cdd5f6" fill-rule="evenodd"/><path d="M5530,3429.833a1.833,1.833,0,1,0,1.833-1.833A1.84,1.84,0,0,0,5530,3429.833Z" transform="translate(-5470.411 -2801.001)" fill="#cb313b" fill-rule="evenodd"/><path d="M4405.822,2304.667a1.814,1.814,0,0,0,1.272-.509l.032-.032.021-.021a1.814,1.814,0,0,0,.508-1.271,1.828,1.828,0,1,0-3.656-.011v.021A1.822,1.822,0,0,0,4405.822,2304.667Z" transform="translate(-4356.343 -1685.943)" fill="#4682bf" fill-rule="evenodd"/><path d="M3151.833,2304.667a1.823,1.823,0,0,0,1.823-1.791v-.085a1.828,1.828,0,1,0-1.823,1.876Z" transform="translate(-3115.631 -1685.943)" fill="#00bbd3" fill-rule="evenodd"/><path d="M2424.136,1575.115a1.8,1.8,0,0,0,.519-1.282,1.828,1.828,0,0,0-3.656-.042v.085a1.823,1.823,0,0,0,1.823,1.791,1.872,1.872,0,0,0,1.292-.519c0-.011,0-.011.011-.021Z" transform="translate(-2394.356 -964.668)" fill="#204067" fill-rule="evenodd"/><path d="M1422.833,1575.667a1.839,1.839,0,0,0,1.833-1.823v-.021a1.833,1.833,0,1,0-1.833,1.844Z" transform="translate(-1404.953 -964.668)" fill="#f63" fill-rule="evenodd"/><path d="M1064,2553.5a7.5,7.5,0,1,0-7.5,7.5A7.509,7.509,0,0,0,1064,2553.5Zm-5.012,1.017a3,3,0,0,1-.021,2.363,2.785,2.785,0,0,1-1.579,1.409v.551a.886.886,0,0,1-.89.879.877.877,0,0,1-.88-.879v-.35a3.936,3.936,0,0,1-1.356-.392.892.892,0,0,1-.382-1.2.88.88,0,0,1,1.187-.381c.678.35,1.95.35,2.289-.392a1.231,1.231,0,0,0,.021-.89c-.477-1.07-2.522-.879-3.37-2.745a3.047,3.047,0,0,1,.032-2.363,2.785,2.785,0,0,1,1.579-1.409v-.551a.886.886,0,0,1,.88-.89.9.9,0,0,1,.89.89v.35a3.724,3.724,0,0,1,1.346.392.882.882,0,1,1-.805,1.568c-.678-.339-1.939-.339-2.289.4a1.287,1.287,0,0,0-.01.89C1056.11,2552.845,1058.156,2552.644,1058.993,2554.52Z" transform="translate(-1036.895 -1928.347)" fill="#faa300" fill-rule="evenodd"/></g></svg>