<svg xmlns="http://www.w3.org/2000/svg" xmlns:xlink="http://www.w3.org/1999/xlink" width="72.665" height="72.665" viewBox="0 0 72.665 72.665"><defs><clipPath id="a"><path d="M0-682.665H72.665V-610H0Z" transform="translate(0 682.665)"/></clipPath></defs><g transform="translate(0 682.665)"><g transform="translate(0 -682.665)"><g clip-path="url(#a)"><g transform="translate(3.706 18.855)"><path d="M-547.785-11.914v38.72h-65.254v-38.72a1.42,1.42,0,0,1,1.419-1.419H-549.2a1.42,1.42,0,0,1,1.419,1.419" transform="translate(613.038 13.333)" fill="#618baa"/></g><g transform="translate(3.706 52.848)"><path d="M-547.785,0V6.145h-65.254V0h22.867a2.684,2.684,0,0,1,2.5,1.695l.305.762h13.9l.3-.762A2.685,2.685,0,0,1-570.651,0Z" transform="translate(613.038 0)" fill="#4e7693"/></g><g transform="translate(3.706 42.189)"><path d="M65.254,17.305H0a.5.5,0,0,1-.5-.5V0A.5.5,0,0,1,0-.5.5.5,0,0,1,.5,0V16.305H64.754V6.245a.5.5,0,0,1,1,0v10.56A.5.5,0,0,1,65.254,17.305Z"/></g><g transform="translate(3.706 18.855)"><path d="M-547.785-206.672a.5.5,0,0,1-.5-.5v-23.26a.92.92,0,0,0-.919-.919h-62.415a.92.92,0,0,0-.919.919v17.015a.5.5,0,0,1-.5.5.5.5,0,0,1-.5-.5v-17.015a1.921,1.921,0,0,1,1.919-1.919H-549.2a1.921,1.921,0,0,1,1.919,1.919v23.26A.5.5,0,0,1-547.785-206.672Z" transform="translate(613.038 231.851)"/></g><path d="M128.845-431.784H71.374v-36.135h57.471Z" transform="translate(-63.777 490.777)" fill="#7bcdff"/><g transform="translate(7.597 52.848)"><path d="M-482.447,0V6.145h-57.471V0h18.975a2.684,2.684,0,0,1,2.5,1.695l.305.762h13.9l.305-.762A2.685,2.685,0,0,1-501.422,0Z" transform="translate(539.917 0)" fill="#43a3f9"/></g><path d="M128.839-431.287H71.366a.5.5,0,0,1-.5-.5v-36.136a.5.5,0,0,1,.5-.5h57.472a.5.5,0,0,1,.5.5v36.136A.5.5,0,0,1,128.839-431.287Zm-56.972-1h56.472v-35.136H71.866Z" transform="translate(-63.77 490.781)"/><g transform="translate(12.631 11.773)"><path d="M-397.93-11.914v45.8h-47.4v-45.8a1.42,1.42,0,0,1,1.419-1.419h44.564a1.42,1.42,0,0,1,1.419,1.419" transform="translate(445.332 13.333)" fill="#e3f4ff"/></g><g transform="translate(12.631 52.848)"><path d="M-397.93,0V6.145h-47.4V0h13.941a2.685,2.685,0,0,1,2.5,1.695l.305.762h13.9l.305-.762A2.684,2.684,0,0,1-411.871,0Z" transform="translate(445.332 0)" fill="#bddff4"/></g><g transform="translate(12.631 11.773)"><path d="M-397.93-395.9h-47.4a.5.5,0,0,1-.5-.5v-45.8a1.921,1.921,0,0,1,1.919-1.919h44.564a1.921,1.921,0,0,1,1.919,1.919v45.8A.5.5,0,0,1-397.93-395.9Zm-46.9-1h46.4v-45.3a.92.92,0,0,0-.919-.919h-44.564a.92.92,0,0,0-.919.919Z" transform="translate(445.332 443.624)"/></g><g transform="translate(1.064 54.693)"><path d="M-592.129-7.148v3.077A2.271,2.271,0,0,1-594.4-1.8h-65.995a2.271,2.271,0,0,1-2.271-2.271V-7.148A.852.852,0,0,1-661.814-8h24.656a.852.852,0,0,1,.791.535l.555,1.387a.851.851,0,0,0,.791.535h15.25a.851.851,0,0,0,.791-.535l.555-1.387A.851.851,0,0,1-617.636-8h24.656a.852.852,0,0,1,.852.852" transform="translate(662.665 8)" fill="#e3f4ff"/></g><g transform="translate(1.064 54.693)"><path d="M-415.416-51.544H-432.2a.5.5,0,0,1-.5-.5.5.5,0,0,1,.5-.5h16.781a1.773,1.773,0,0,0,1.771-1.771v-3.077a.352.352,0,0,0-.352-.352h-24.656a.35.35,0,0,0-.327.221l-.555,1.386a1.345,1.345,0,0,1-1.255.85h-15.25a1.345,1.345,0,0,1-1.255-.85l-.555-1.387a.35.35,0,0,0-.326-.221H-482.83a.352.352,0,0,0-.352.352v3.077a1.773,1.773,0,0,0,1.771,1.771H-437.1a.5.5,0,0,1,.5.5.5.5,0,0,1-.5.5h-44.314a2.774,2.774,0,0,1-2.771-2.771v-3.077a1.353,1.353,0,0,1,1.352-1.352h24.656a1.345,1.345,0,0,1,1.255.85l.555,1.387a.35.35,0,0,0,.326.221h15.25a.35.35,0,0,0,.326-.221l.555-1.387a1.346,1.346,0,0,1,1.255-.85H-414a1.353,1.353,0,0,1,1.352,1.352v3.077A2.774,2.774,0,0,1-415.416-51.544Z" transform="translate(483.681 58.244)"/></g><g transform="translate(19.396 17.577)"><path d="M-179.722-89.867a10.7,10.7,0,0,1-10.705,10.7,10.7,10.7,0,0,1-10.7-10.7,10.7,10.7,0,0,1,10.7-10.705,10.705,10.705,0,0,1,10.705,10.705" transform="translate(201.132 100.572)" fill="#fd6096"/></g><g transform="translate(30.1 17.577)"><path d="M-89.867-89.867h-10.705v-10.705A10.705,10.705,0,0,1-89.867-89.867" transform="translate(100.572 100.572)" fill="#82e7a5"/></g><g transform="translate(30.1 17.973)"><path d="M-86.547-86.047h-10.31a.5.5,0,0,1-.5-.5v-10.31a.5.5,0,0,1,.5-.5.5.5,0,0,1,.5.5v9.81h9.81a.5.5,0,0,1,.5.5A.5.5,0,0,1-86.547-86.047Z" transform="translate(96.857 96.857)"/></g><g transform="translate(19.396 17.577)"><path d="M-190.428-78.663a11.131,11.131,0,0,1-7.923-3.281,11.131,11.131,0,0,1-3.281-7.923,11.133,11.133,0,0,1,3.281-7.923,11.13,11.13,0,0,1,7.923-3.282A11.132,11.132,0,0,1-182.5-97.79a11.132,11.132,0,0,1,3.282,7.923,11.13,11.13,0,0,1-3.282,7.923A11.133,11.133,0,0,1-190.428-78.663Zm0-21.409a10.216,10.216,0,0,0-10.2,10.205,10.137,10.137,0,0,0,2.988,7.215,10.137,10.137,0,0,0,7.215,2.988,10.216,10.216,0,0,0,10.205-10.2A10.217,10.217,0,0,0-190.428-100.072Z" transform="translate(201.132 100.572)"/></g><g transform="translate(46.031 24.775)"><path d="M6.387.5H0A.5.5,0,0,1-.5,0,.5.5,0,0,1,0-.5H6.387a.5.5,0,0,1,.5.5A.5.5,0,0,1,6.387.5Z"/></g><g transform="translate(46.024 21.085)"><path d="M.013.5H0A.5.5,0,0,1-.5,0,.5.5,0,0,1,0-.5H.013a.5.5,0,0,1,.5.5A.5.5,0,0,1,.013.5Z" transform="translate(0 0)"/></g><g transform="translate(46.031 33.487)"><path d="M6.387.5H0A.5.5,0,0,1-.5,0,.5.5,0,0,1,0-.5H6.387a.5.5,0,0,1,.5.5A.5.5,0,0,1,6.387.5Z" transform="translate(0 0)"/></g><g transform="translate(46.024 29.797)"><path d="M.013.5H0A.5.5,0,0,1-.5,0,.5.5,0,0,1,0-.5H.013a.5.5,0,0,1,.5.5A.5.5,0,0,1,.013.5Z"/></g><g transform="translate(19.396 45.409)"><path d="M21.014.5H0A.5.5,0,0,1-.5,0,.5.5,0,0,1,0-.5H21.014a.5.5,0,0,1,.5.5A.5.5,0,0,1,21.014.5Z"/></g><g transform="translate(25.783 49.458)"><path d="M14.627.5H0A.5.5,0,0,1-.5,0,.5.5,0,0,1,0-.5H14.627a.5.5,0,0,1,.5.5A.5.5,0,0,1,14.627.5Z"/></g><g transform="translate(19.396 49.458)"><path d="M2.791.5H0A.5.5,0,0,1-.5,0,.5.5,0,0,1,0-.5H2.791a.5.5,0,0,1,.5.5A.5.5,0,0,1,2.791.5Z"/></g><g transform="translate(46.024 38.149)"><path d="M-46.521-94.934h-4.69a.852.852,0,0,1-.852-.852v-9.606a.852.852,0,0,1,.852-.852h4.69a.852.852,0,0,1,.852.852v9.606a.852.852,0,0,1-.852.852" transform="translate(52.063 106.242)" fill="#82e7a5"/></g><g transform="translate(46.024 45.409)"><path d="M-46.521-34h-4.69a.852.852,0,0,1-.852-.852v-3.2h6.393v3.2a.852.852,0,0,1-.852.852" transform="translate(52.063 38.045)" fill="#19c88d"/></g><g transform="translate(46.45 45.409)"><path d="M5.542.5H0A.5.5,0,0,1-.5,0,.5.5,0,0,1,0-.5H5.542a.5.5,0,0,1,.5.5A.5.5,0,0,1,5.542.5Z"/></g><g transform="translate(46.024 38.149)"><path d="M-46.521-94.434h-4.69a1.353,1.353,0,0,1-1.352-1.352v-9.606a1.353,1.353,0,0,1,1.352-1.352h4.69a1.353,1.353,0,0,1,1.352,1.352v9.606A1.353,1.353,0,0,1-46.521-94.434Zm-4.69-11.309a.352.352,0,0,0-.352.352v9.606a.352.352,0,0,0,.352.352h4.69a.352.352,0,0,0,.352-.352v-9.606a.352.352,0,0,0-.352-.352Z" transform="translate(52.063 106.242)"/></g></g></g></g></svg>