<svg xmlns="http://www.w3.org/2000/svg" width="68.004" height="69.953" viewBox="0 0 68.004 69.953"><g transform="translate(-11.992 -4.999)"><g transform="translate(12.831 16.219)"><path d="M174.465,398.406H197.2v10.631H174.465Z" transform="translate(-152.664 -354.805)" fill="#7986bf"/><path d="M174.465,398.406h3.269v10.631h-3.269Z" transform="translate(-152.664 -354.805)" fill="#6a75ad"/><rect width="66.336" height="40.249" rx="17.697" transform="translate(0 4.708)" fill="#cfcfff"/><rect width="63.911" height="40.249" rx="17.697" transform="translate(2.425 4.708)" fill="#e9e9ff"/><g transform="translate(4.222)"><path d="M116.323,464.967h31.988A4.045,4.045,0,0,1,152.348,469v.98H112.286V469A4.045,4.045,0,0,1,116.323,464.967Z" transform="translate(-103.371 -412.091)" fill="#323e66" fill-rule="evenodd"/><path d="M146.323,464.967H174.13A4.045,4.045,0,0,1,178.168,469v.98H142.286V469A4.045,4.045,0,0,1,146.323,464.967Z" transform="translate(-129.19 -412.091)" fill="#3d4a75" fill-rule="evenodd"/><path d="M242.49,107.951a2.193,2.193,0,1,0-2.193-2.193A2.2,2.2,0,0,0,242.49,107.951Z" transform="translate(-213.544 -101.05)" fill="#5caeff" fill-rule="evenodd"/><path d="M57.354,159.9H48.645v-1.569c0-3.3,3.524-4.54,6.151-5.414h5.117c2.627.873,6.151,2.11,6.151,5.414V159.9H57.354Z" transform="translate(-48.598 -143.526)" fill="#2a93fc" fill-rule="evenodd"/><path d="M73.287,159.9h-6.13v-1.569c0-3.3,3.524-4.54,6.151-5.414h2.538c2.627.873,6.151,2.11,6.151,5.414V159.9H73.287Z" transform="translate(-64.53 -143.526)" fill="#5caeff" fill-rule="evenodd"/><path d="M93.732,136.375l1.61.048,1.61-.048c.135,1.134.133,1.991.949,2.305a2.747,2.747,0,0,1-5.117,0C93.6,138.366,93.6,137.509,93.732,136.375Z" transform="translate(-86.585 -129.288)" fill="#edbb8a" fill-rule="evenodd"/><path d="M97.955,136.406l.617.019,1.61-.048c.135,1.134.133,1.991.949,2.305a3,3,0,0,1-2.559,1.747,2.723,2.723,0,0,1-2.036-1c.662-.287.991-.741,1.419-3.025Z" transform="translate(-89.815 -129.289)" fill="#f9c795" fill-rule="evenodd"/><path d="M87.142,93.961c2.426,0,3.895-2.369,3.886-4.6a3.886,3.886,0,0,0-7.773,0C83.247,91.592,84.716,93.961,87.142,93.961Z" transform="translate(-78.386 -85.517)" fill="#f2cb9f" fill-rule="evenodd"/><path d="M93.651,93.961c2.426,0,3.895-2.369,3.886-4.6a3.71,3.71,0,0,0-3.886-3.846,4.29,4.29,0,0,0-1.189.16,4.32,4.32,0,0,0-1.643,3.637,5.806,5.806,0,0,0,1.949,4.536,3.494,3.494,0,0,0,.884.111Z" transform="translate(-84.895 -85.517)" fill="#fdd7ad" fill-rule="evenodd"/><path d="M347.469,159.9H338.76v-1.569c0-3.3,3.524-4.54,6.151-5.414h5.117c2.627.873,6.151,2.11,6.151,5.414V159.9h-8.709Z" transform="translate(-298.286 -143.526)" fill="#e68207" fill-rule="evenodd"/><path d="M363.4,159.9h-6.13v-1.569c0-3.3,3.524-4.54,6.151-5.414h2.538c2.627.873,6.151,2.11,6.151,5.414V159.9H363.4Z" transform="translate(-314.218 -143.526)" fill="#fda02f" fill-rule="evenodd"/><path d="M383.847,136.375l1.61.048,1.61-.048c.135,1.134.134,1.991.949,2.305a2.747,2.747,0,0,1-5.117,0C383.714,138.366,383.712,137.509,383.847,136.375Z" transform="translate(-336.273 -129.288)" fill="#edbb8a" fill-rule="evenodd"/><path d="M388.07,136.406l.617.019,1.61-.048c.135,1.134.133,1.991.949,2.305a3,3,0,0,1-2.559,1.747,2.723,2.723,0,0,1-2.036-1c.662-.287.991-.741,1.419-3.025Z" transform="translate(-339.503 -129.289)" fill="#f9c795" fill-rule="evenodd"/><path d="M377.257,93.961c2.426,0,3.895-2.369,3.886-4.6a3.886,3.886,0,0,0-7.773,0C373.362,91.592,374.831,93.961,377.257,93.961Z" transform="translate(-328.074 -85.517)" fill="#f2cb9f" fill-rule="evenodd"/><path d="M383.766,93.961c2.427,0,3.895-2.369,3.886-4.6a3.71,3.71,0,0,0-3.886-3.846,2.793,2.793,0,0,0-2.832,3.8,5.806,5.806,0,0,0,1.949,4.536,3.494,3.494,0,0,0,.884.111Z" transform="translate(-334.583 -85.517)" fill="#fdd7ad" fill-rule="evenodd"/><path d="M347.469,334.712H338.76v-1.569c0-3.3,3.524-4.54,6.151-5.414h5.117c2.627.873,6.151,2.11,6.151,5.414v1.569h-8.709Z" transform="translate(-298.286 -293.977)" fill="#f9ac00" fill-rule="evenodd"/><path d="M363.4,334.712h-6.13v-1.569c0-3.3,3.524-4.54,6.151-5.414h2.538c2.627.873,6.151,2.11,6.151,5.414v1.569H363.4Z" transform="translate(-314.218 -293.977)" fill="#fdc72e" fill-rule="evenodd"/><path d="M383.847,311.186l1.61.048,1.61-.048c.135,1.134.134,1.991.949,2.305a2.747,2.747,0,0,1-5.117,0C383.714,313.177,383.712,312.32,383.847,311.186Z" transform="translate(-336.273 -279.739)" fill="#edbb8a" fill-rule="evenodd"/><path d="M388.07,311.217l.617.018,1.61-.048c.135,1.134.133,1.991.949,2.305a3,3,0,0,1-2.559,1.747,2.723,2.723,0,0,1-2.036-1c.662-.287.991-.741,1.419-3.025Z" transform="translate(-339.503 -279.74)" fill="#f9c795" fill-rule="evenodd"/><path d="M377.257,268.772c2.426,0,3.895-2.369,3.886-4.6a3.886,3.886,0,0,0-7.773,0C373.362,266.4,374.831,268.772,377.257,268.772Z" transform="translate(-328.074 -235.968)" fill="#f2cb9f" fill-rule="evenodd"/><path d="M383.766,268.772c2.427,0,3.895-2.369,3.886-4.6a3.71,3.71,0,0,0-3.886-3.846,2.793,2.793,0,0,0-2.832,3.8,5.806,5.806,0,0,0,1.949,4.536,3.494,3.494,0,0,0,.884.111Z" transform="translate(-334.583 -235.968)" fill="#fdd7ad" fill-rule="evenodd"/><path d="M57.017,334.712H48.308v-1.569c0-3.3,3.524-4.54,6.151-5.414h5.117c2.627.873,6.151,2.11,6.151,5.414v1.569H57.017Z" transform="translate(-48.308 -293.977)" fill="#29b933" fill-rule="evenodd"/><path d="M72.95,334.712H66.82v-1.569c0-3.3,3.524-4.54,6.151-5.414h2.538c2.627.873,6.151,2.11,6.151,5.414v1.569H72.95Z" transform="translate(-64.24 -293.977)" fill="#2dd62d" fill-rule="evenodd"/><path d="M93.4,311.186l1.61.048,1.61-.048c.135,1.134.133,1.991.949,2.305a2.747,2.747,0,0,1-5.117,0C93.262,313.177,93.26,312.32,93.4,311.186Z" transform="translate(-86.295 -279.739)" fill="#edbb8a" fill-rule="evenodd"/><path d="M97.618,311.217l.617.018,1.61-.048c.135,1.134.133,1.991.949,2.305a3,3,0,0,1-2.559,1.747,2.723,2.723,0,0,1-2.036-1c.662-.287.991-.741,1.419-3.025Z" transform="translate(-89.525 -279.74)" fill="#f9c795" fill-rule="evenodd"/><path d="M86.805,268.772c2.426,0,3.895-2.369,3.886-4.6a3.886,3.886,0,0,0-7.773,0c-.008,2.229,1.46,4.6,3.886,4.6Z" transform="translate(-78.096 -235.968)" fill="#f2cb9f" fill-rule="evenodd"/><path d="M93.314,268.772c2.426,0,3.895-2.369,3.886-4.6a3.71,3.71,0,0,0-3.886-3.846,4.283,4.283,0,0,0-1.189.16,4.32,4.32,0,0,0-1.643,3.637,5.806,5.806,0,0,0,1.949,4.536,3.494,3.494,0,0,0,.884.111Z" transform="translate(-84.605 -235.968)" fill="#fdd7ad" fill-rule="evenodd"/><path d="M175.395,196.438a5.3,5.3,0,0,1,10.577.748,5.032,5.032,0,1,1,0,10.064H169.54a3.648,3.648,0,0,1,0-7.3,3.547,3.547,0,0,1,5.855-3.517Z" transform="translate(-149.532 -176.79)" fill="#2a93fc" fill-rule="evenodd"/><path d="M196.759,204.31a5.032,5.032,0,0,1,0,10.064H182.074a3.648,3.648,0,0,1,0-7.3,2.786,2.786,0,0,1,4.952-2.327c.725-6.657,9.327-6.281,9.732-.442Z" transform="translate(-160.319 -183.914)" fill="#5caeff" fill-rule="evenodd"/></g></g><path d="M51.912,17.045a.838.838,0,1,1-1.3,1.055,5.7,5.7,0,0,0-9.24,0,.822.822,0,0,1-.644.309.836.836,0,0,1-.65-1.364,7.366,7.366,0,0,1,11.835,0ZM45.991,11.2a9.317,9.317,0,0,1,7.235,3.687.834.834,0,0,0,.65.309.82.82,0,0,0,.524-.188.835.835,0,0,0,.119-1.176,10.6,10.6,0,0,0-17.052,0,.835.835,0,1,0,1.294,1.055A9.315,9.315,0,0,1,45.991,11.2Zm-11.138-.578A14.316,14.316,0,0,1,45.991,5a14.328,14.328,0,0,1,11.145,5.628.836.836,0,0,1-.126,1.176.82.82,0,0,1-.524.187.834.834,0,0,1-.65-.308,12.666,12.666,0,0,0-9.844-5.011,12.654,12.654,0,0,0-9.837,5.011.838.838,0,0,1-1.3-1.055Zm-1.175,45.5H17.886v-.737c0-2.384,2.29-3.5,4.978-4.428a3.468,3.468,0,0,0,5.828,0c2.695.933,4.985,2.045,4.985,4.428Zm-7.9-6.28a4.384,4.384,0,0,0,1.162-.155,1.832,1.832,0,0,0,.272.45,1.937,1.937,0,0,1-1.434.735,1.913,1.913,0,0,1-1.427-.735,2.354,2.354,0,0,0,.272-.45,4.335,4.335,0,0,0,1.155.155Zm-2.237-7.614a3.159,3.159,0,0,1,2.224-.854h.04a3.147,3.147,0,0,1,2.21.855,2.929,2.929,0,0,1,.823,2.169A4.276,4.276,0,0,1,27.7,47.356a2.66,2.66,0,0,1-3.83,0A4.312,4.312,0,0,1,22.719,44.4,2.958,2.958,0,0,1,23.542,42.228Zm5.091,6.942c-.066-.027-.133-.065-.2-.24a4.517,4.517,0,0,0,.445-.394,5.924,5.924,0,0,0,1.633-4.143,4.581,4.581,0,0,0-1.321-3.351A4.808,4.808,0,0,0,25.812,39.7h-.053a4.828,4.828,0,0,0-3.392,1.339,4.634,4.634,0,0,0-1.321,3.351,5.924,5.924,0,0,0,1.633,4.143,5.413,5.413,0,0,0,.445.394c-.06.175-.126.214-.192.24-2.522.838-6.717,2.244-6.717,6.214v1.573a.835.835,0,0,0,.836.836H34.514a.839.839,0,0,0,.836-.836V55.384c0-3.97-4.2-5.376-6.717-6.214ZM74.1,56.122H58.311v-.737c0-2.384,2.29-3.5,4.985-4.428a3.462,3.462,0,0,0,5.821,0C71.812,51.889,74.1,53,74.1,55.384Zm-7.892-6.28a4.336,4.336,0,0,0,1.155-.155,2.059,2.059,0,0,0,.272.45,1.759,1.759,0,0,1-2.861,0,1.825,1.825,0,0,0,.272-.45,4.384,4.384,0,0,0,1.162.155Zm-2.237-7.614a3.154,3.154,0,0,1,2.217-.854h.04a3.124,3.124,0,0,1,2.21.855,2.959,2.959,0,0,1,.83,2.169,4.312,4.312,0,0,1-1.148,2.958,2.66,2.66,0,0,1-3.83,0A4.276,4.276,0,0,1,63.149,44.4,2.931,2.931,0,0,1,63.973,42.228Zm5.085,6.942c-.066-.027-.133-.065-.192-.24a5.416,5.416,0,0,0,.445-.394,5.953,5.953,0,0,0,1.633-4.143,4.635,4.635,0,0,0-1.321-3.351A4.832,4.832,0,0,0,66.243,39.7h-.06a4.839,4.839,0,0,0-3.392,1.339,4.6,4.6,0,0,0-1.314,3.351,5.924,5.924,0,0,0,1.633,4.143,4.484,4.484,0,0,0,.445.394c-.066.176-.133.214-.2.24-2.522.839-6.717,2.245-6.717,6.214v1.573a.835.835,0,0,0,.836.836H74.938a.835.835,0,0,0,.836-.836V55.384c0-3.97-4.2-5.376-6.717-6.214ZM53.518,45.86H37.063a2.818,2.818,0,0,1,0-5.636.827.827,0,0,0,.65-.325.84.84,0,0,0,.153-.716,2.817,2.817,0,0,1,.345-2.139,2.525,2.525,0,0,1,2.23-1.3,2.89,2.89,0,0,1,1.918.742.835.835,0,0,0,1.394-.551,4.475,4.475,0,0,1,8.928.631.835.835,0,0,0,.836.886,4.2,4.2,0,0,1,0,8.41Zm5.875-4.2a5.883,5.883,0,0,1-5.875,5.877H37.056a4.49,4.49,0,0,1-.936-8.875,4.548,4.548,0,0,1,.664-2.481,4.332,4.332,0,0,1,2.662-1.991,4.5,4.5,0,0,1,2.894.307,6.148,6.148,0,0,1,12.008,1.344,5.885,5.885,0,0,1,5.045,5.819ZM78.323,58.713V23.4a1.631,1.631,0,0,0-1.626-1.63h-6a5.729,5.729,0,0,1-1.387,2.409,5.41,5.41,0,0,1-.445.394c.06.176.126.214.192.24,2.522.839,6.717,2.245,6.717,6.215V32.6a.835.835,0,0,1-.836.836H57.474a.835.835,0,0,1-.836-.836V31.025c0-3.97,4.2-5.376,6.717-6.215.066-.026.133-.064.2-.24a4.494,4.494,0,0,1-.445-.394,5.594,5.594,0,0,1-1.387-2.409H48.9a3.028,3.028,0,0,1-5.821,0H30.265a5.591,5.591,0,0,1-1.387,2.409,4.575,4.575,0,0,1-.445.394c.066.175.133.213.2.24,2.522.839,6.717,2.245,6.717,6.215V32.6a.839.839,0,0,1-.836.836H17.05a.835.835,0,0,1-.836-.836V31.025c0-3.97,4.2-5.376,6.717-6.215.066-.027.133-.064.192-.24a5.358,5.358,0,0,1-.445-.394,5.729,5.729,0,0,1-1.387-2.409h-6a1.631,1.631,0,0,0-1.626,1.63V58.713a1.631,1.631,0,0,0,1.626,1.63H76.7a1.63,1.63,0,0,0,1.626-1.63Zm-21.8,9.549H35.463V62.015H56.525Zm8.662,4.873v.143H26.8v-.143a3.2,3.2,0,0,1,3.2-3.2H61.988a3.2,3.2,0,0,1,3.2,3.2ZM27.212,25.777a1.936,1.936,0,0,1-1.434.735,1.912,1.912,0,0,1-1.427-.735,2.353,2.353,0,0,0,.272-.45,4.364,4.364,0,0,0,1.155.155,4.414,4.414,0,0,0,1.162-.155,1.832,1.832,0,0,0,.272.45Zm6.465,5.248c0-2.384-2.29-3.5-4.985-4.428a3.469,3.469,0,0,1-5.828,0c-2.688.933-4.978,2.044-4.978,4.428v.737H33.678ZM23.542,17.869a3.156,3.156,0,0,1,2.224-.854h.04a3.146,3.146,0,0,1,2.21.854,2.93,2.93,0,0,1,.823,2.17A4.273,4.273,0,0,1,27.7,23a2.659,2.659,0,0,1-3.83,0,4.309,4.309,0,0,1-1.148-2.957A2.957,2.957,0,0,1,23.542,17.869Zm22.449,1.705a1.357,1.357,0,1,1-1.354,1.357A1.36,1.36,0,0,1,45.991,19.574Zm21.646,6.2a1.759,1.759,0,0,1-2.861,0,1.812,1.812,0,0,0,.272-.449,4.413,4.413,0,0,0,1.162.155,4.364,4.364,0,0,0,1.155-.155,2.039,2.039,0,0,0,.272.449ZM74.1,31.025c0-2.384-2.29-3.5-4.985-4.428a3.463,3.463,0,0,1-5.821,0c-2.695.933-4.985,2.044-4.985,4.428v.737H74.1ZM63.972,17.869a3.151,3.151,0,0,1,2.217-.854h.02a3.143,3.143,0,0,1,2.23.854,2.96,2.96,0,0,1,.83,2.17A4.309,4.309,0,0,1,68.121,23a2.658,2.658,0,0,1-3.83,0,4.273,4.273,0,0,1-1.142-2.957,2.93,2.93,0,0,1,.823-2.17ZM76.7,20.095H70.935c0-.021.007-.041.007-.062a4.634,4.634,0,0,0-1.321-3.351,4.829,4.829,0,0,0-3.379-1.339h-.06a4.84,4.84,0,0,0-3.392,1.339,4.6,4.6,0,0,0-1.314,3.351v.062H48.9a3.028,3.028,0,0,0-5.821,0H30.511v-.062a4.58,4.58,0,0,0-1.321-3.351,4.805,4.805,0,0,0-3.379-1.339h-.053a4.828,4.828,0,0,0-3.392,1.339,4.632,4.632,0,0,0-1.321,3.351c0,.021.007.042.007.062H15.291a3.3,3.3,0,0,0-3.3,3.3V58.713a3.3,3.3,0,0,0,3.3,3.3h18.5v6.247H30a4.877,4.877,0,0,0-4.872,4.873v.98a.835.835,0,0,0,.836.836H66.024a.835.835,0,0,0,.836-.836v-.98a4.877,4.877,0,0,0-4.872-4.873H58.2V62.016H76.7a3.3,3.3,0,0,0,3.3-3.3V23.4a3.3,3.3,0,0,0-3.3-3.3Z" transform="translate(0 0)" fill-rule="evenodd"/></g></svg>