<svg xmlns="http://www.w3.org/2000/svg" xmlns:xlink="http://www.w3.org/1999/xlink" width="140" height="140" viewBox="0 0 140 140"><defs><filter id="a" x="0" y="0" width="140" height="140" filterUnits="userSpaceOnUse"><feOffset dy="3" input="SourceAlpha"/><feGaussianBlur stdDeviation="3" result="b"/><feFlood flood-opacity="0.161"/><feComposite operator="in" in2="b"/><feComposite in="SourceGraphic"/></filter></defs><g transform="translate(-310.151 -822.955)"><g transform="translate(319.151 828.955)"><g transform="matrix(1, 0, 0, 1, -9, -6)" filter="url(#a)"><circle cx="61" cy="61" r="61" transform="translate(9 6)" fill="#fff" opacity="0.45"/></g><circle cx="49" cy="49" r="49" transform="translate(12 12)" fill="#fff"/></g><g transform="translate(305.959 856.423)"><g transform="translate(48.247 1.061)"><path d="M276.216,17.358l9.13-9.134a.723.723,0,0,1,1.014,0l9.13,9.134a.7.7,0,0,1,.155.777.7.7,0,0,1-.661.443h-3.966a.717.717,0,0,0-.715.715V42.819a.718.718,0,0,1-.715.719H282.12a.718.718,0,0,1-.715-.719V19.292a.717.717,0,0,0-.715-.715h-3.966a.715.715,0,0,1-.508-1.219Z" transform="translate(-247.091 -8.017)" fill="#22cac5" fill-rule="evenodd"/><path d="M85.772,109.238,94.9,100.1a.72.72,0,0,1,1.011,0l9.134,9.134a.714.714,0,0,1-.507,1.219h-3.966a.717.717,0,0,0-.715.715v17.069a.719.719,0,0,1-.715.715H91.678a.717.717,0,0,1-.715-.715V111.172a.719.719,0,0,0-.715-.715H86.277a.712.712,0,0,1-.5-1.219Z" transform="translate(-81.583 -87.866)" fill="#22cac5" fill-rule="evenodd"/><g transform="translate(19.802 33.105)"><path d="M270.1,260.83h-21.28a3.184,3.184,0,1,0,0,6.368H270.1a3.184,3.184,0,1,0,0-6.368Z" transform="translate(-240.496 -260.83)" fill="#efddcf" fill-rule="evenodd"/><path d="M230.886,315.828H209.6a3.184,3.184,0,0,1,0-6.368h21.283a3.184,3.184,0,1,1,0,6.368Z" transform="translate(-206.42 -303.092)" fill="#efddcf" fill-rule="evenodd"/><path d="M270.1,358.09h-21.28a3.184,3.184,0,1,0,0,6.368H270.1a3.184,3.184,0,1,0,0-6.368Z" transform="translate(-240.496 -345.354)" fill="#efddcf" fill-rule="evenodd"/><path d="M230.886,413.088H209.6a3.184,3.184,0,0,1,0-6.368h21.283a3.184,3.184,0,1,1,0,6.368Z" transform="translate(-206.42 -387.616)" fill="#efddcf" fill-rule="evenodd"/><path d="M230.886,461.718H209.6a3.184,3.184,0,0,1,0-6.368h21.283a3.184,3.184,0,1,1,0,6.368Z" transform="translate(-206.42 -429.878)" fill="#efddcf" fill-rule="evenodd"/></g><path d="M69.025,320.471A13.825,13.825,0,1,0,55.2,306.645,13.853,13.853,0,0,0,69.025,320.471Z" transform="translate(-55.2 -255.526)" fill="#d2f5f4" fill-rule="evenodd"/><path d="M96.035,343.437a9.754,9.754,0,1,0-9.756-9.755A9.772,9.772,0,0,0,96.035,343.437Z" transform="translate(-82.21 -282.562)" fill="#b15815" fill-rule="evenodd"/><path d="M69.025,292.82c.241,0,.482.008.719.022a13.824,13.824,0,0,0,0,27.611c-.237.014-.478.018-.719.018a13.826,13.826,0,0,1,0-27.652Z" transform="translate(-55.2 -255.526)" fill="#116562" fill-rule="evenodd"/><path d="M276.216,17.358l9.13-9.134a.723.723,0,0,1,1.014,0l.346.346-8.788,8.788a.715.715,0,0,0,.507,1.219h-1.7a.715.715,0,0,1-.508-1.219Zm5.189,23.764V19.292a.717.717,0,0,0-.715-.715h1.7a.717.717,0,0,1,.715.715v21.83Z" transform="translate(-247.091 -8.017)" fill="#116562" fill-rule="evenodd"/><path d="M85.772,109.238,94.9,100.1a.72.72,0,0,1,1.011,0l.346.346-8.784,8.788a.714.714,0,0,0,.507,1.219h-1.7a.712.712,0,0,1-.5-1.219Zm5.189,16.655V111.172a.719.719,0,0,0-.715-.715h1.7a.717.717,0,0,1,.715.715v14.26A13.952,13.952,0,0,0,90.962,125.893Z" transform="translate(-81.583 -87.866)" fill="#116562" fill-rule="evenodd"/><path d="M250.053,260.83h-1.237a3.184,3.184,0,1,0,0,6.368h1.237a3.184,3.184,0,1,1,0-6.368Z" transform="translate(-220.694 -227.725)" fill="#e6ce2d" fill-rule="evenodd"/><path d="M223.363,309.46h-1.237a3.135,3.135,0,0,0-1.3.276c.191.134.377.27.56.41A3.171,3.171,0,0,1,223.363,309.46Z" transform="translate(-199.141 -269.987)" fill="#e6ce2d" fill-rule="evenodd"/><path d="M209.77,488.214a3.185,3.185,0,0,0,2.743,1.575h1.237a3.2,3.2,0,0,1-3.007-2.14C210.429,487.85,210.1,488.038,209.77,488.214Z" transform="translate(-189.53 -424.844)" fill="#e6ce2d" fill-rule="evenodd"/></g><path d="M97.651,45.855H96.167a4.215,4.215,0,0,0,0-4.277h1.484a4.231,4.231,0,0,0,0-8.462H92.507V12.668h3.634a1.766,1.766,0,0,0,1.628-1.079c0-.005,0-.01.007-.016a1.763,1.763,0,0,0-.386-1.913L88.258.528a1.765,1.765,0,0,0-2.493,0L76.634,9.659a1.765,1.765,0,0,0-.386,1.913c0,.005,0,.01.007.016a1.767,1.767,0,0,0,1.628,1.079h3.634V33.115H76.371a4.227,4.227,0,0,0-3.648,6.369H71.235a4.225,4.225,0,0,0-1.161.164,14.886,14.886,0,0,0-2.506-1.287V24.7H71.2A1.762,1.762,0,0,0,72.45,21.69l-9.131-9.131a1.771,1.771,0,0,0-2.493,0L51.7,21.683A1.762,1.762,0,0,0,52.942,24.7h3.634V38.362a14.871,14.871,0,1,0,11.6,27.377,4.248,4.248,0,0,0,3.054,1.312H92.518A4.228,4.228,0,0,0,95.3,59.636a4.22,4.22,0,0,0,.867-5.323H97.65a4.229,4.229,0,1,0,0-8.458Zm-15.8-35.281H78.679l8.332-8.332,8.332,8.332H92.176a1.765,1.765,0,0,0-1.763,1.763V33.115h-6.8V12.337a1.765,1.765,0,0,0-1.763-1.763ZM74.234,37.348a2.141,2.141,0,0,1,2.138-2.138h21.28a2.138,2.138,0,0,1,0,4.277H76.371a2.14,2.14,0,0,1-2.137-2.138ZM92.518,41.58a2.138,2.138,0,0,1,0,4.277H75.531a14.936,14.936,0,0,0-3.041-4.277ZM56.91,22.6H53.743l8.328-8.332L70.4,22.6H67.236a1.765,1.765,0,0,0-1.763,1.763V37.7a14.927,14.927,0,0,0-6.8,0V24.367A1.763,1.763,0,0,0,56.91,22.6ZM49.294,52.18a12.78,12.78,0,0,1,25.561,0c0,.322-.012.643-.035.959,0,.024,0,.047-.005.072a12.781,12.781,0,0,1-25.52-1.031ZM94.656,62.822a2.141,2.141,0,0,1-2.138,2.138H71.234a2.128,2.128,0,0,1-1.08-.3,15.006,15.006,0,0,0,4.116-3.977H92.518A2.14,2.14,0,0,1,94.656,62.822Zm0-6.369a2.141,2.141,0,0,1-2.138,2.138H75.493a14.759,14.759,0,0,0,1.3-4.277H92.519a2.141,2.141,0,0,1,2.137,2.138Zm2.995-4.232H76.946V52.18a14.794,14.794,0,0,0-.614-4.23l.038,0H97.65a2.136,2.136,0,1,1,0,4.273ZM62.073,41.382a10.8,10.8,0,1,0,10.8,10.8A10.812,10.812,0,0,0,62.073,41.382Zm0,19.506a8.706,8.706,0,1,1,8.7-8.708A8.717,8.717,0,0,1,62.073,60.888Zm2.865-8.619a2.81,2.81,0,0,1,.871,2.319A3.028,3.028,0,0,1,64.449,56.8a3.781,3.781,0,0,1-1.33.537v.849a1.046,1.046,0,0,1-2.093,0v-.976A4.308,4.308,0,0,1,58.4,54.693a1.047,1.047,0,1,1,1.931-.808,2.2,2.2,0,0,0,1.383,1.346,1.961,1.961,0,0,0,1.587-.183.917.917,0,0,0,.423-.661.741.741,0,0,0-.249-.618,3.468,3.468,0,0,0-1.257-.44,5.306,5.306,0,0,1-2.741-1.271,2.985,2.985,0,0,1,1.269-4.878c.092-.031.186-.058.28-.082v-.915a1.046,1.046,0,0,1,2.093,0v.873a3.778,3.778,0,0,1,.991.368,3.074,3.074,0,0,1,1.554,2,1.046,1.046,0,1,1-2.032.5,1,1,0,0,0-.526-.668,2.237,2.237,0,0,0-1.687-.1.889.889,0,0,0-.626.647.852.852,0,0,0,.183.786,3.6,3.6,0,0,0,1.721.7,4.546,4.546,0,0,1,2.238.979Z"/></g></g></svg>