<svg xmlns="http://www.w3.org/2000/svg" width="62" height="58" viewBox="0 0 62 58"><g transform="translate(-1 -3)"><path d="M45,18V8a4,4,0,0,0-4-4H23a4,4,0,0,0-4,4V18a4,4,0,0,0,4,4h6l3,4,3-4h6A4,4,0,0,0,45,18Z" fill="#dfbba0"/><path d="M23,4a4,4,0,0,0-4,4V18a3.944,3.944,0,0,0,.175,1.108A19.546,19.546,0,0,0,25,20c9.389,0,17-6.492,17-14.5a12.436,12.436,0,0,0-.082-1.384A3.973,3.973,0,0,0,41,4Z" fill="#efddcf"/><path d="M2,30H62V60H2Z" fill="#22cac5"/><path d="M10,56a4,4,0,0,0-4-4V38a4,4,0,0,0,4-4H54a4,4,0,0,0,4,4V52a4,4,0,0,0-4,4Z" fill="#f5f5f5"/><circle cx="11" cy="11" r="11" transform="translate(21 34)" fill="#22cac5"/><path d="M40.916,38.575A10.991,10.991,0,1,0,25.452,53.824C33.688,52.762,40.148,46.455,40.916,38.575Z" fill="#178d89"/><path d="M62,29H2a1,1,0,0,0-1,1V60a1,1,0,0,0,1,1H62a1,1,0,0,0,1-1V30A1,1,0,0,0,62,29ZM61,59H3V31H61Z"/><path d="M6,53a3,3,0,0,1,3,3,1,1,0,0,0,1,1H54a1,1,0,0,0,1-1,3,3,0,0,1,3-3,1,1,0,0,0,1-1V38a1,1,0,0,0-1-1,3,3,0,0,1-3-3,1,1,0,0,0-1-1H10a1,1,0,0,0-1,1,3,3,0,0,1-3,3,1,1,0,0,0-1,1V52A1,1,0,0,0,6,53ZM53.1,35A5.013,5.013,0,0,0,57,38.9V51.1A5.013,5.013,0,0,0,53.1,55H38.619a11.982,11.982,0,0,0,0-20ZM32,55A10,10,0,1,1,42,45,10,10,0,0,1,32,55ZM7,38.9A5.013,5.013,0,0,0,10.9,35H25.381a11.982,11.982,0,0,0,0,20H10.9A5.013,5.013,0,0,0,7,51.1Z"/><path d="M32,40a2,2,0,0,1,2,2h2a4,4,0,0,0-3-3.858V36H31v2.142A3.992,3.992,0,0,0,32,46a2,2,0,1,1-2,2H28a4,4,0,0,0,3,3.858V54h2V51.858A3.992,3.992,0,0,0,32,44a2,2,0,0,1,0-4Z"/><path d="M30.707,15.707,34,12.414,38.586,17H37v2h4a1,1,0,0,0,1-1V14H40v1.586l-5.293-5.293a1,1,0,0,0-1.414,0L30,13.586,23.707,7.293,22.293,8.707l7,7a1,1,0,0,0,1.414,0Z"/><path d="M23,23h5.5l2.7,3.6a1,1,0,0,0,1.6,0L35.5,23H41a5.006,5.006,0,0,0,5-5V8a5.006,5.006,0,0,0-5-5H23a5.006,5.006,0,0,0-5,5V18a5.006,5.006,0,0,0,5,5ZM20,8a3,3,0,0,1,3-3H41a3,3,0,0,1,3,3V18a3,3,0,0,1-3,3H35a1,1,0,0,0-.8.4L32,24.333,29.8,21.4A1,1,0,0,0,29,21H23a3,3,0,0,1-3-3Z"/></g></svg>