<svg xmlns="http://www.w3.org/2000/svg" width="61.263" height="61.262" viewBox="0 0 61.263 61.262"><g transform="translate(0)"><g transform="translate(8.184 20.625)"><path d="M343.783,329.854H348.7a.931.931,0,0,0,.929-.929V315.493a.933.933,0,0,0-.929-.929h-4.921a.933.933,0,0,0-.929.929v13.431A.931.931,0,0,0,343.783,329.854Z" transform="translate(-310.015 -297.551)" fill="#80b4fb" fill-rule="evenodd"/><path d="M160.83,306.672h4.925a.931.931,0,0,0,.929-.929V289.16a.931.931,0,0,0-.929-.929H160.83a.93.93,0,0,0-.926.929v16.582A.93.93,0,0,0,160.83,306.672Z" transform="translate(-148.955 -274.369)" fill="#80b4fb" fill-rule="evenodd"/><path d="M367.488,329.854h2.9a.931.931,0,0,0,.929-.929V315.493a.933.933,0,0,0-.929-.929h-2.9a.933.933,0,0,1,.929.929v13.431A.931.931,0,0,1,367.488,329.854Z" transform="translate(-331.701 -297.551)" fill="#61a2f9" fill-rule="evenodd"/><path d="M184.538,306.672h2.9a.931.931,0,0,0,.929-.929V289.16a.931.931,0,0,0-.929-.929h-2.9a.931.931,0,0,1,.929.929v16.582A.931.931,0,0,1,184.538,306.672Z" transform="translate(-170.642 -274.369)" fill="#61a2f9" fill-rule="evenodd"/><path d="M435.259,289.6h4.925a.933.933,0,0,0,.929-.929v-18.9a.933.933,0,0,0-.929-.929h-4.925a.933.933,0,0,0-.929.929v18.9A.933.933,0,0,0,435.259,289.6Z" transform="translate(-390.545 -257.298)" fill="#e27f84" fill-rule="evenodd"/><path d="M69.329,338.614h4.925a.933.933,0,0,0,.929-.929V325.443a.933.933,0,0,0-.929-.929H69.329a.933.933,0,0,0-.929.929v12.241A.933.933,0,0,0,69.329,338.614Z" transform="translate(-68.4 -306.31)" fill="#e27f84" fill-rule="evenodd"/><path d="M252.308,363.12h4.921a.931.931,0,0,0,.929-.929v-8.91a.933.933,0,0,0-.929-.929h-4.921a.933.933,0,0,0-.929.929v8.91A.931.931,0,0,0,252.308,363.12Z" transform="translate(-229.485 -330.816)" fill="#e27f84" fill-rule="evenodd"/><path d="M458.992,289.6h2.9a.933.933,0,0,0,.929-.929v-18.9a.933.933,0,0,0-.929-.929h-2.9a.933.933,0,0,1,.929.929v18.9A.933.933,0,0,1,458.992,289.6Z" transform="translate(-412.256 -257.298)" fill="#c9646d" fill-rule="evenodd"/><path d="M93.062,338.614h2.9a.933.933,0,0,0,.929-.929V325.443a.933.933,0,0,0-.929-.929h-2.9a.933.933,0,0,1,.929.929v12.241A.933.933,0,0,1,93.062,338.614Z" transform="translate(-90.111 -306.31)" fill="#c9646d" fill-rule="evenodd"/><path d="M276.013,363.12h2.9a.931.931,0,0,0,.929-.929v-8.91a.933.933,0,0,0-.929-.929h-2.9a.933.933,0,0,1,.929.929v8.91A.931.931,0,0,1,276.013,363.12Z" transform="translate(-251.171 -330.816)" fill="#c9646d" fill-rule="evenodd"/><g transform="translate(0)"><path d="M437.722,172.377a3.39,3.39,0,1,1-3.392,3.392A3.393,3.393,0,0,1,437.722,172.377Z" transform="translate(-390.545 -172.377)" fill="#b3e59f" fill-rule="evenodd"/><path d="M71.793,228.051a3.392,3.392,0,1,1-3.392,3.392A3.393,3.393,0,0,1,71.793,228.051Z" transform="translate(-68.401 -221.389)" fill="#b3e59f" fill-rule="evenodd"/><path d="M163.293,191.766a3.392,3.392,0,1,1-3.388,3.392A3.393,3.393,0,0,1,163.293,191.766Z" transform="translate(-148.956 -189.446)" fill="#b3e59f" fill-rule="evenodd"/><path d="M254.767,255.915a3.39,3.39,0,1,1-3.388,3.388A3.388,3.388,0,0,1,254.767,255.915Z" transform="translate(-229.485 -245.919)" fill="#b3e59f" fill-rule="evenodd"/><path d="M346.246,218.128a3.39,3.39,0,1,1-3.392,3.388A3.387,3.387,0,0,1,346.246,218.128Z" transform="translate(-310.015 -212.654)" fill="#b3e59f" fill-rule="evenodd"/></g><path d="M452,172.377a3.39,3.39,0,1,1-1.452,6.455,3.39,3.39,0,0,0,0-6.129A3.41,3.41,0,0,1,452,172.377Z" transform="translate(-404.819 -172.377)" fill="#95d6a4" fill-rule="evenodd"/><path d="M86.067,228.051a3.392,3.392,0,1,1-1.452,6.458,3.39,3.39,0,0,0,0-6.129,3.364,3.364,0,0,1,1.452-.329Z" transform="translate(-82.675 -221.389)" fill="#95d6a4" fill-rule="evenodd"/><path d="M177.543,191.766a3.392,3.392,0,1,1-1.452,6.455,3.39,3.39,0,0,0,0-6.129A3.408,3.408,0,0,1,177.543,191.766Z" transform="translate(-163.205 -189.446)" fill="#95d6a4" fill-rule="evenodd"/><path d="M269.017,255.915a3.39,3.39,0,1,1-1.452,6.455,3.39,3.39,0,0,0,0-6.129A3.361,3.361,0,0,1,269.017,255.915Z" transform="translate(-243.734 -245.919)" fill="#95d6a4" fill-rule="evenodd"/><path d="M360.521,218.128a3.39,3.39,0,0,1,0,6.78,3.348,3.348,0,0,1-1.452-.326,3.393,3.393,0,0,0,0-6.129A3.349,3.349,0,0,1,360.521,218.128Z" transform="translate(-324.29 -212.654)" fill="#95d6a4" fill-rule="evenodd"/></g><path d="M37.357,3.568a.9.9,0,1,1-1.2,1.329,3.858,3.858,0,0,0-1.9-.824v6.065c.383.146.787.3,1.218.444a4.825,4.825,0,0,1,3.1,3,5.068,5.068,0,0,1,.163,2.568,5.625,5.625,0,0,1-1.068,2.371,5.353,5.353,0,0,1-3.416,2.032v1.594a.9.9,0,1,1-1.794,0v-1.53A6.75,6.75,0,0,1,28.5,19.309a.9.9,0,1,1,.98-1.5,5.908,5.908,0,0,0,1.825.875,5.577,5.577,0,0,0,1.157.146V11.339a11.556,11.556,0,0,1-2.523-1.425,3.485,3.485,0,0,1-1.18-1.764,4.477,4.477,0,0,1-.088-2.143A4.735,4.735,0,0,1,29.59,4a4.275,4.275,0,0,1,2.154-1.479,6.976,6.976,0,0,1,.722-.176V.9A.9.9,0,1,1,34.26.9V2.273a5.821,5.821,0,0,1,3.1,1.3ZM15.144,28.3,18.3,27.053a4.161,4.161,0,0,1-.061-.716,4.289,4.289,0,1,1,8.235,1.676l4.077,2.859a4.287,4.287,0,0,1,5.953.105,4.338,4.338,0,0,1,.505.607L40.2,30.265a4.493,4.493,0,0,1-.071-.777,4.291,4.291,0,0,1,7.323-3.032c.112.115.217.234.319.36l3.443-1.723a4.322,4.322,0,0,1-.136-1.075,4.285,4.285,0,1,1,1.255,3.032,4.543,4.543,0,0,1-.319-.36l-3.443,1.723a4.324,4.324,0,0,1,.136,1.075,4.286,4.286,0,0,1-7.319,3.032,4.113,4.113,0,0,1-.505-.6l-3.192,1.319a4.15,4.15,0,0,1,.071.773,4.289,4.289,0,0,1-8.578,0,4.31,4.31,0,0,1,.339-1.676l-4.077-2.859a4.287,4.287,0,0,1-5.953-.105,4.3,4.3,0,0,1-.536-.655l-3.148,1.248a4.523,4.523,0,0,1,.058.716,4.291,4.291,0,1,1-.719-2.378Zm41.98-6.048a2.5,2.5,0,1,0,.729,1.764A2.486,2.486,0,0,0,57.125,22.253ZM13.34,28.915a2.5,2.5,0,1,0,.729,1.764,2.486,2.486,0,0,0-.729-1.764Zm10.945-4.341a2.5,2.5,0,1,0,.729,1.764A2.486,2.486,0,0,0,24.285,24.573ZM35.23,32.249a2.485,2.485,0,1,0,.733,1.76A2.483,2.483,0,0,0,35.23,32.249Zm10.949-4.521a2.493,2.493,0,1,0,.729,1.76A2.489,2.489,0,0,0,46.179,27.728ZM59.648,40.515a.9.9,0,1,1-1.794,0V33.063H52.868V52.03h4.986V44.582a.9.9,0,1,1,1.794,0v8.347a.9.9,0,0,1-.9.9H51.969a.9.9,0,0,1-.9-.9V32.168a.9.9,0,0,1,.9-.9h6.784a.9.9,0,0,1,.9.9ZM41.923,52.03h4.986V38.538H41.923Zm5.881,1.8h-6.78a.9.9,0,0,1-.9-.9V37.639a.9.9,0,0,1,.9-.9H47.8a.9.9,0,0,1,.9.9v15.29A.9.9,0,0,1,47.8,53.828ZM37.757,45.511a.9.9,0,1,1-1.794,0V43.059H30.974V52.03h4.989V49.578a.9.9,0,1,1,1.794,0v3.351a.9.9,0,0,1-.9.9h-6.78a.9.9,0,0,1-.9-.9V42.16a.9.9,0,0,1,.9-.9h6.78a.9.9,0,0,1,.9.9ZM20.029,52.03h4.986V35.383H20.029Zm5.885,1.8h-6.78a.9.9,0,0,1-.9-.9V34.488a.9.9,0,0,1,.9-.9h6.78a.9.9,0,0,1,.9.9V52.929A.9.9,0,0,1,25.913,53.828Zm-10.05-9.982a.9.9,0,1,1-1.794,0V39.728H9.083v12.3h4.986V47.912a.9.9,0,1,1,1.794,0v5.016a.9.9,0,0,1-.9.9H8.184a.9.9,0,0,1-.9-.9v-14.1a.9.9,0,0,1,.9-.9h6.784a.9.9,0,0,1,.9.9ZM59.648,60.367a.9.9,0,0,1-1.794,0v-.441H53.329v.441a.9.9,0,0,1-1.794,0v-.441H47.007v.441a.9.9,0,0,1-1.794,0v-.441H40.688v.441a.9.9,0,0,1-1.8,0v-.441H34.366v.441a.9.9,0,0,1-1.794,0v-.441H28.047v.441a.9.9,0,0,1-1.8,0v-.441H21.724v.441a.9.9,0,0,1-1.794,0v-.441H15.4v.441a.9.9,0,0,1-1.794,0v-.441H9.083v.441a.9.9,0,0,1-1.794,0v-.441H2.235a.9.9,0,0,1-.9-.9v-5.05H.9a.9.9,0,0,1,0-1.8H1.34V47.665H.9a.9.9,0,1,1,0-1.794H1.34V41.356H.9a.9.9,0,1,1,0-1.794H1.34V35.047H.9a.9.9,0,0,1,0-1.8H1.34V28.735H.9a.9.9,0,1,1,0-1.794H1.34V22.427H.9a.9.9,0,1,1,0-1.794H1.34V16.118H.9a.9.9,0,1,1,0-1.794H1.34V9.806H.9a.9.9,0,1,1,0-1.794H1.34V3.5H.9A.9.9,0,1,1,.9,1.7H1.34V.9A.9.9,0,1,1,3.134.9v.8h.441a.9.9,0,1,1,0,1.794H3.134V8.011h.441a.9.9,0,1,1,0,1.794H3.134v4.518h.441a.9.9,0,1,1,0,1.794H3.134v4.515h.441a.9.9,0,1,1,0,1.794H3.134v4.515h.441a.9.9,0,1,1,0,1.794H3.134V33.25h.441a.9.9,0,0,1,0,1.8H3.134v4.514h.441a.9.9,0,1,1,0,1.794H3.134V45.87h.441a.9.9,0,1,1,0,1.794H3.134v4.515h.441a.9.9,0,0,1,0,1.8H3.134v4.151H7.289v-.441a.9.9,0,0,1,1.794,0v.441h4.525v-.441a.9.9,0,0,1,1.794,0v.441H19.93v-.441a.9.9,0,0,1,1.794,0v.441h4.525v-.441a.9.9,0,0,1,1.8,0v.441h4.525v-.441a.9.9,0,0,1,1.794,0v.441H38.89v-.441a.9.9,0,0,1,1.8,0v.441h4.525v-.441a.9.9,0,0,1,1.794,0v.441h4.528v-.441a.9.9,0,0,1,1.794,0v.441h4.525v-.441a.9.9,0,0,1,1.794,0v.441h.719a.9.9,0,0,1,0,1.8h-.719v.441ZM32.466,4.175c-.068.017-.139.037-.21.058A2.5,2.5,0,0,0,31,5.094a2.948,2.948,0,0,0-.566,1.255,2.7,2.7,0,0,0,.044,1.289,1.7,1.7,0,0,0,.566.868,8.244,8.244,0,0,0,1.421.862Zm2.415,8.1c-.214-.075-.417-.146-.621-.221v6.678a3.555,3.555,0,0,0,2-1.3,3.763,3.763,0,0,0,.726-1.6,3.291,3.291,0,0,0-.1-1.665,3.075,3.075,0,0,0-2-1.886Z"/></g></svg>