<svg xmlns="http://www.w3.org/2000/svg" width="56.469" height="56.944" viewBox="0 0 56.469 56.944"><g transform="translate(-18.008 -16.012)"><path d="M67.237,33.189v6.484a.758.758,0,0,1-.758.758h-3.5a16.523,16.523,0,0,1-1.9,4.6l2.477,2.477a.758.758,0,0,1,0,1.072l-4.585,4.585a.758.758,0,0,1-1.072,0l-2.477-2.477a16.549,16.549,0,0,1-4.6,1.905v3.5a.758.758,0,0,1-.758.758H43.576a.758.758,0,0,1-.758-.758v-3.5a16.527,16.527,0,0,1-4.6-1.9l-2.477,2.477a.758.758,0,0,1-1.072,0l-4.585-4.584a.758.758,0,0,1,0-1.072l2.477-2.477a16.559,16.559,0,0,1-1.905-4.6h-3.5a.758.758,0,0,1-.758-.758V33.189a.758.758,0,0,1,.758-.758h3.5a16.52,16.52,0,0,1,1.9-4.6l-2.477-2.477a.758.758,0,0,1,0-1.072L34.672,19.7a.758.758,0,0,1,1.072,0l2.477,2.477a16.549,16.549,0,0,1,4.6-1.905v-3.5a.758.758,0,0,1,.758-.758H50.06a.758.758,0,0,1,.758.758v3.5a16.524,16.524,0,0,1,4.6,1.9L57.892,19.7a.758.758,0,0,1,1.072,0l4.585,4.585a.758.758,0,0,1,0,1.072l-2.477,2.477a16.55,16.55,0,0,1,1.905,4.6h3.5a.758.758,0,0,1,.758.758ZM57.677,58.333,35.869,58.5a9.6,9.6,0,1,0-.14,9.924l22.007-.291a9.588,9.588,0,0,0,16.623.016.759.759,0,0,0-.638-1.167H66.2l-2.318-3.636L66.2,59.716H73.72a.758.758,0,0,0,.657-1.133,9.643,9.643,0,0,0-3.524-3.544,9.54,9.54,0,0,0-4.8-1.292,10.084,10.084,0,0,0-5.035,1.343,9.334,9.334,0,0,0-3.338,3.243ZM30.313,64.975l-.933,1.617H25.638l-1.869-3.241,1.869-3.241h3.743l1.869,3.241Z" fill-rule="evenodd"/><path d="M194.237,108.294a9.812,9.812,0,1,0,2.873,6.938A9.812,9.812,0,0,0,194.237,108.294Zm-9.37,6.687a3.442,3.442,0,0,1,1.675-5.79v-.925a.758.758,0,1,1,1.516,0v.925a3.443,3.443,0,0,1,2.683,3.357.758.758,0,1,1-1.516,0,1.925,1.925,0,1,0-3.286,1.361c1.035,1.035,2.307.084,3.794,1.572a3.442,3.442,0,0,1-1.675,5.79v.925a.758.758,0,1,1-1.516,0v-.925a3.443,3.443,0,0,1-2.683-3.358.758.758,0,1,1,1.516,0,1.925,1.925,0,1,0,3.286-1.361c-1.039-1.038-2.3-.08-3.794-1.571Z" transform="translate(-140.558 -78.801)" fill="#b15815" fill-rule="evenodd"/><path d="M72.359,347.98a7.766,7.766,0,0,0-2.978,3.033.755.755,0,0,1-.664.408l-22.632.178a.758.758,0,0,1-.741-.4,8.1,8.1,0,1,0-.116,7.7.755.755,0,0,1,.65-.386l22.887-.3a.755.755,0,0,1,.681.411,8.077,8.077,0,0,0,13.427,1.469l-6.493,0a.754.754,0,0,1-.637-.349l-2.793-4.381a.755.755,0,0,1-.008-.823l2.762-4.334a.758.758,0,0,1,.674-.411h6.493a8.048,8.048,0,0,0-6.229-2.938,8.574,8.574,0,0,0-4.284,1.135Zm-28.921,7.34-2.3,3.988a.754.754,0,0,1-.654.379l-4.611,0a.758.758,0,0,1-.69-.444l-2.27-3.936a.754.754,0,0,1,.006-.762l2.3-3.988a.754.754,0,0,1,.654-.379l4.611,0a.758.758,0,0,1,.69.444l2.27,3.937A.754.754,0,0,1,43.438,355.319Zm9.778-2.932h6.85a2.552,2.552,0,1,1,0,5.1h-6.85a2.552,2.552,0,1,1,0-5.1Z" transform="translate(-10.67 -291.582)" fill="#999" fill-rule="evenodd"/><path d="M223.989,406.347h-6.85a1.036,1.036,0,1,0,0,2.073h6.85a1.036,1.036,0,1,0,0-2.073Z" transform="translate(-174.593 -344.025)" fill="#22cac5" fill-rule="evenodd"/><path d="M138.673,50.174V45.206l-3.347,0a.756.756,0,0,1-.74-.6,15.036,15.036,0,0,0-2.14-5.174.758.758,0,0,1,.079-.979l2.368-2.369-3.513-3.513-2.369,2.368a.757.757,0,0,1-.949.1,15.063,15.063,0,0,0-5.143-2.147.758.758,0,0,1-.664-.752V28.787h-4.968l0,3.347a.756.756,0,0,1-.6.74,15.036,15.036,0,0,0-5.174,2.14.758.758,0,0,1-.979-.079l-2.368-2.368-3.513,3.513,2.368,2.369a.757.757,0,0,1,.1.95,15.061,15.061,0,0,0-2.147,5.143.758.758,0,0,1-.752.664h-3.347v4.968l3.347,0a.756.756,0,0,1,.74.6,15.038,15.038,0,0,0,2.14,5.174.758.758,0,0,1-.079.979L104.646,59.3l3.513,3.513,2.369-2.368a.757.757,0,0,1,.949-.1,15.055,15.055,0,0,0,5.144,2.146.758.758,0,0,1,.664.752v3.347h4.968l0-3.347a.756.756,0,0,1,.6-.74,15.038,15.038,0,0,0,5.174-2.14.758.758,0,0,1,.979.079l2.368,2.368,3.513-3.513-2.368-2.369a.758.758,0,0,1-.1-.95,15.054,15.054,0,0,0,2.147-5.143.758.758,0,0,1,.752-.664Zm-18.9-13.811a11.327,11.327,0,1,1-8.009,3.318A11.327,11.327,0,0,1,119.769,36.364Z" transform="translate(-73.028 -11.259)" fill="#a6eae8" fill-rule="evenodd"/></g></svg>