<svg xmlns="http://www.w3.org/2000/svg" width="56.461" height="56.58" viewBox="0 0 56.461 56.58"><g transform="translate(-1 -1)"><g transform="translate(1.913 1.913)"><path d="M34.853,32.077v21.9a3.649,3.649,0,0,1-3.65,3.65H5.65A3.649,3.649,0,0,1,2,53.979V15.65A3.649,3.649,0,0,1,5.65,12H9.3a9.017,9.017,0,0,0,.767,3.65h-3.5a.915.915,0,0,0-.913.913v7.3a.915.915,0,0,0,.913.913H30.29a.915.915,0,0,0,.913-.913v-7.3a.915.915,0,0,0-.913-.913h-3.5A9.017,9.017,0,0,0,27.552,12H31.2a3.649,3.649,0,0,1,3.65,3.65Z" transform="translate(-2 -2.874)" fill="#aab2bd"/><g transform="translate(3.65 32.853)"><path d="M6,54H9.65v3.65H6Z" transform="translate(-6 -39.399)" fill="#ff826e"/><path d="M14,54h3.65v3.65H14Z" transform="translate(-6.699 -39.399)" fill="#ff826e"/><path d="M22,54h3.65v3.65H22Z" transform="translate(-7.399 -39.399)" fill="#ff826e"/><path d="M30,46h3.65V56.951H30Z" transform="translate(-8.098 -38.699)" fill="#ff826e"/><path d="M22,46h3.65v3.65H22Z" transform="translate(-7.399 -38.699)" fill="#ff826e"/><path d="M14,46h3.65v3.65H14Z" transform="translate(-6.699 -38.699)" fill="#ff826e"/><path d="M6,46H9.65v3.65H6Z" transform="translate(-6 -38.699)" fill="#ff826e"/><path d="M6,38H9.65v3.65H6Z" transform="translate(-6 -38)" fill="#ff826e"/><path d="M14,38h3.65v3.65H14Z" transform="translate(-6.699 -38)" fill="#ff826e"/><path d="M22,38h3.65v3.65H22Z" transform="translate(-7.399 -38)" fill="#ff826e"/><path d="M30,38h3.65v3.65H30Z" transform="translate(-8.098 -38)" fill="#ff826e"/></g><path d="M33.65,30.913v1.825a.915.915,0,0,1-.913.913H30.913A.915.915,0,0,1,30,32.738V30.913A.915.915,0,0,1,30.913,30h1.825A.915.915,0,0,1,33.65,30.913Z" transform="translate(-4.448 -4.448)" fill="#e6e9ed"/><path d="M25.65,30.913v1.825a.915.915,0,0,1-.913.913H22.913A.915.915,0,0,1,22,32.738V30.913A.915.915,0,0,1,22.913,30h1.825A.915.915,0,0,1,25.65,30.913Z" transform="translate(-3.748 -4.448)" fill="#e6e9ed"/><path d="M17.65,30.913v1.825a.915.915,0,0,1-.913.913H14.913A.915.915,0,0,1,14,32.738V30.913A.915.915,0,0,1,14.913,30h1.825A.915.915,0,0,1,17.65,30.913Z" transform="translate(-3.049 -4.448)" fill="#e6e9ed"/><path d="M9.65,30.913v1.825a.915.915,0,0,1-.913.913H6.913A.915.915,0,0,1,6,32.738V30.913A.915.915,0,0,1,6.913,30H8.738A.915.915,0,0,1,9.65,30.913Z" transform="translate(-2.35 -4.448)" fill="#e6e9ed"/><path d="M31.552,16.913v7.3a.915.915,0,0,1-.913.913H6.913A.915.915,0,0,1,6,24.213v-7.3A.915.915,0,0,1,6.913,16h3.5a9.119,9.119,0,0,0,16.719,0h3.5A.915.915,0,0,1,31.552,16.913Z" transform="translate(-2.35 -3.224)" fill="#69d6f4"/><path d="M28.252,11.126a9.017,9.017,0,0,1-.767,3.65,9.119,9.119,0,0,1-16.719,0A9.017,9.017,0,0,1,10,11.126a9.126,9.126,0,0,1,18.252,0Z" transform="translate(-2.699 -2)" fill="#fcd770"/><path d="M57.164,36.738,58.989,34H38V55.9H58.989l-1.825-2.738,1.825-2.747L57.164,47.68l1.825-2.738L57.164,42.2l1.825-2.729Z" transform="translate(-5.147 -4.797)" fill="#e6e9ed"/><path d="M55.65,33.126v7.3H52V24h3.65Z" transform="translate(-6.371 -3.923)" fill="#b4dd7f"/><path d="M51.65,24V40.427H48V24Z" transform="translate(-6.021 -3.923)" fill="#ff826e"/><path d="M55.3,21.65v1.825H48V21.65a3.65,3.65,0,1,1,7.3,0Z" transform="translate(-6.021 -3.399)" fill="#aab2bd"/><path d="M55.3,42l-2.418,6.443a1.314,1.314,0,0,1-2.464,0L48,42h7.3Z" transform="translate(-6.021 -5.497)" fill="#aab2bd"/></g><g transform="translate(1 1)"><path d="M18.738,14.126a.914.914,0,0,1-.913-.913H16a2.741,2.741,0,0,0,2.738,2.738v1.825h1.825V15.951H23.3V13.213a2.741,2.741,0,0,0-2.738-2.738H18.738a.914.914,0,0,1-.913-.913V8.65h2.738a.914.914,0,0,1,.913.913H23.3a2.741,2.741,0,0,0-2.738-2.738V5H18.738V6.825H16V9.563A2.741,2.741,0,0,0,18.738,12.3h1.825a.914.914,0,0,1,.913.913v.913Z" transform="translate(-2.311 -1.35)"/><path d="M29,57.776h5.476V45H29Zm1.825-10.951H32.65v9.126H30.825Z" transform="translate(-3.448 -4.846)"/><path d="M21,58.476h5.476V53H21Zm1.825-3.65H24.65V56.65H22.825Z" transform="translate(-2.748 -5.546)"/><path d="M13,58.476h5.476V53H13Zm1.825-3.65H16.65V56.65H14.825Z" transform="translate(-2.049 -5.546)"/><path d="M5,58.476h5.476V53H5Zm1.825-3.65H8.65V56.65H6.825Z" transform="translate(-1.35 -5.546)"/><path d="M21,50.476h5.476V45H21Zm1.825-3.65H24.65V48.65H22.825Z" transform="translate(-2.748 -4.846)"/><path d="M13,50.476h5.476V45H13Zm1.825-3.65H16.65V48.65H14.825Z" transform="translate(-2.049 -4.846)"/><path d="M5,50.476h5.476V45H5Zm1.825-3.65H8.65V48.65H6.825Z" transform="translate(-1.35 -4.846)"/><path d="M21,42.476h5.476V37H21Zm1.825-3.65H24.65V40.65H22.825Z" transform="translate(-2.748 -4.147)"/><path d="M29,42.476h5.476V37H29Zm1.825-3.65H32.65V40.65H30.825Z" transform="translate(-3.448 -4.147)"/><path d="M13,42.476h5.476V37H13Zm1.825-3.65H16.65V40.65H14.825Z" transform="translate(-2.049 -4.147)"/><path d="M5,42.476h5.476V37H5Zm1.825-3.65H8.65V40.65H6.825Z" transform="translate(-1.35 -4.147)"/><path d="M24.65,29H22.825A1.827,1.827,0,0,0,21,30.825V32.65a1.827,1.827,0,0,0,1.825,1.825H24.65a1.827,1.827,0,0,0,1.825-1.825V30.825A1.827,1.827,0,0,0,24.65,29Zm0,3.65H22.825V30.825H24.65Z" transform="translate(-2.748 -3.448)"/><path d="M32.65,29H30.825A1.827,1.827,0,0,0,29,30.825V32.65a1.827,1.827,0,0,0,1.825,1.825H32.65a1.827,1.827,0,0,0,1.825-1.825V30.825A1.827,1.827,0,0,0,32.65,29Zm0,3.65H30.825V30.825H32.65Z" transform="translate(-3.448 -3.448)"/><path d="M16.65,29H14.825A1.827,1.827,0,0,0,13,30.825V32.65a1.827,1.827,0,0,0,1.825,1.825H16.65a1.827,1.827,0,0,0,1.825-1.825V30.825A1.827,1.827,0,0,0,16.65,29Zm0,3.65H14.825V30.825H16.65Z" transform="translate(-2.049 -3.448)"/><path d="M8.65,29H6.825A1.827,1.827,0,0,0,5,30.825V32.65a1.827,1.827,0,0,0,1.825,1.825H8.65a1.827,1.827,0,0,0,1.825-1.825V30.825A1.827,1.827,0,0,0,8.65,29Zm0,3.65H6.825V30.825H8.65Z" transform="translate(-1.35 -3.448)"/><path d="M55.026,50.275l1.825-2.742L55.026,44.8l1.825-2.737-1.825-2.737,1.825-2.733-1.825-2.737L57.461,30.2H52.1V20.164a4.563,4.563,0,0,0-9.126,0V30.2h-7.3V14.689a4.568,4.568,0,0,0-4.563-4.563H28.331a10.033,10.033,0,0,0-19.984,0H5.563A4.568,4.568,0,0,0,1,14.689V53.017A4.568,4.568,0,0,0,5.563,57.58H31.115a4.571,4.571,0,0,0,4.471-3.65H57.459Zm-36.687-29.2A10.043,10.043,0,0,0,27.27,15.6H30.2v7.3H6.476V15.6H9.409A10.043,10.043,0,0,0,18.339,21.077Zm0-18.252a8.213,8.213,0,1,1-8.213,8.213A8.223,8.223,0,0,1,18.339,2.825ZM33.853,53.017a2.741,2.741,0,0,1-2.738,2.738H5.563a2.741,2.741,0,0,1-2.738-2.738V14.689a2.741,2.741,0,0,1,2.738-2.738H8.347a9.875,9.875,0,0,0,.343,1.825H6.476A1.827,1.827,0,0,0,4.65,15.6v7.3a1.827,1.827,0,0,0,1.825,1.825H30.2A1.827,1.827,0,0,0,32.028,22.9V15.6A1.827,1.827,0,0,0,30.2,13.776H27.989a10.029,10.029,0,0,0,.343-1.825h2.783a2.741,2.741,0,0,1,2.738,2.738ZM44.8,37.5V22.9h1.825V37.5Zm5.071,1.825-1.955,5.214a.422.422,0,0,1-.757,0l-1.956-5.214Zm.4-1.825H48.454V22.9H50.28ZM47.542,17.427a2.741,2.741,0,0,1,2.738,2.738v.913H44.8v-.913A2.741,2.741,0,0,1,47.542,17.427ZM54.051,52.1H35.678V32.028h7.3v6.553l2.475,6.6a2.23,2.23,0,0,0,4.176,0l2.475-6.6V32.028H54.05l-1.216,1.824,1.825,2.736-1.825,2.733,1.825,2.738L52.833,44.8l1.825,2.738-1.825,2.741Z" transform="translate(-1 -1)"/><path d="M51,53h1.825v1.825H51Z" transform="translate(-5.371 -5.546)"/><path d="M47,53h1.825v1.825H47Z" transform="translate(-5.021 -5.546)"/><path d="M43,37h1.825V53.427H43Z" transform="translate(-4.671 -4.147)"/></g></g></svg>