<svg xmlns="http://www.w3.org/2000/svg" width="61" height="61" viewBox="0 0 61 61"><g transform="translate(0.715 0.715)"><circle cx="14.535" cy="14.535" r="14.535" transform="translate(15.25)" fill="#b15815"/><ellipse cx="10" cy="10.5" rx="10" ry="10.5" transform="translate(19.785 3.785)" fill="#dfbba0"/><circle cx="5.48" cy="5.48" r="5.48" transform="translate(48.609 48.609)" fill="#dfbba0"/><path d="M62.131,114.461h-9.5a1.276,1.276,0,0,1-1.111-1.9l4.75-8.409a1.275,1.275,0,0,1,2.222,0l4.751,8.409a1.276,1.276,0,0,1-1.112,1.9Z" transform="translate(-27.597 -54.89)" fill="#b15815"/><rect width="10.961" height="10.961" rx="2.943" transform="translate(0 48.609)" fill="#22cac5"/><path d="M37.141,73.527V69.715A.715.715,0,0,0,36.426,69H34.52a.715.715,0,0,0-.715.715v3.813H10.93a1.43,1.43,0,0,0-1.43,1.43v5.719a.715.715,0,0,0,.715.715h1.906a.715.715,0,0,0,.715-.715V76.863H33.8v3.813a.715.715,0,0,0,.715.715h1.906a.715.715,0,0,0,.715-.715V76.863H58.109v3.813a.715.715,0,0,0,.715.715H60.73a.715.715,0,0,0,.715-.715V74.957a1.43,1.43,0,0,0-1.43-1.43Z" transform="translate(-5.688 -36.832)" fill="#a59eb3"/></g><g transform="translate(0)"><path d="M62.5,15.25A15.25,15.25,0,1,0,47.25,30.5,15.25,15.25,0,0,0,62.5,15.25Zm-29.07,0A13.82,13.82,0,1,1,47.25,29.07,13.82,13.82,0,0,1,33.43,15.25Z" transform="translate(-16.75)"/><path d="M62.9,19.7A11.2,11.2,0,1,0,51.7,30.9,11.2,11.2,0,0,0,62.9,19.7Zm-20.969,0a9.77,9.77,0,1,1,9.77,9.77A9.77,9.77,0,0,1,41.93,19.7Z" transform="translate(-21.199 -4.449)"/><path d="M61.236,30.663v-.908a2.716,2.716,0,0,0-.314-5.417h-.8a1.289,1.289,0,0,1,0-2.578h1.2a.889.889,0,0,1,.888.888.715.715,0,1,0,1.43,0,2.32,2.32,0,0,0-2.318-2.318h-.087v-.888a.715.715,0,0,0-1.43,0v.905a2.716,2.716,0,0,0,.314,5.419h.8a1.289,1.289,0,0,1,0,2.578h-1.2a.889.889,0,0,1-.888-.888.715.715,0,1,0-1.43,0,2.32,2.32,0,0,0,2.318,2.318h.087v.888a.715.715,0,1,0,1.43,0Z" transform="translate(-30.021 -9.803)"/><path d="M108.2,102a6.2,6.2,0,1,0,6.2,6.2,6.2,6.2,0,0,0-6.2-6.2Zm0,10.961a4.766,4.766,0,1,1,4.766-4.766A4.766,4.766,0,0,1,108.2,112.961Z" transform="translate(-53.391 -53.391)"/><path d="M58.332,103.012a1.99,1.99,0,0,0-3.467,0l-4.748,8.408a1.991,1.991,0,0,0,1.732,2.97h9.5a1.991,1.991,0,0,0,1.734-2.97Zm3.5,9.67a.55.55,0,0,1-.485.278h-9.5a.561.561,0,0,1-.488-.837l4.749-8.408a.561.561,0,0,1,.977,0l4.749,8.409A.55.55,0,0,1,61.833,112.683Z" transform="translate(-26.099 -53.391)"/><path d="M2.117,114.391h8.156a2.12,2.12,0,0,0,2.117-2.117v-8.156A2.12,2.12,0,0,0,10.273,102H2.117A2.12,2.12,0,0,0,0,104.117v8.156A2.12,2.12,0,0,0,2.117,114.391ZM1.43,104.117a.688.688,0,0,1,.688-.688h8.156a.688.688,0,0,1,.688.688v8.156a.688.688,0,0,1-.688.688H2.117a.688.688,0,0,1-.688-.688Z" transform="translate(0 -53.391)"/><path d="M8,74.172v5.719a1.43,1.43,0,0,0,1.43,1.43h1.906a1.43,1.43,0,0,0,1.43-1.43v-3.1H32.3v3.1a1.43,1.43,0,0,0,1.43,1.43h1.906a1.43,1.43,0,0,0,1.43-1.43v-3.1H56.609v3.1a1.43,1.43,0,0,0,1.43,1.43h1.906a1.43,1.43,0,0,0,1.43-1.43V74.172a2.147,2.147,0,0,0-2.145-2.145H37.07v-3.1a1.43,1.43,0,0,0-1.43-1.43H33.734a1.43,1.43,0,0,0-1.43,1.43v3.1H10.145A2.147,2.147,0,0,0,8,74.172Zm25.02-.715a.715.715,0,0,0,.715-.715V68.93h1.906v3.813a.715.715,0,0,0,.715.715H59.23a.715.715,0,0,1,.715.715v5.719H58.039V76.078a.715.715,0,0,0-.715-.715H36.355a.715.715,0,0,0-.715.715v3.813H33.734V76.078a.715.715,0,0,0-.715-.715H12.051a.715.715,0,0,0-.715.715v3.813H9.43V74.172a.715.715,0,0,1,.715-.715Z" transform="translate(-4.187 -35.332)"/></g></svg>