<svg xmlns="http://www.w3.org/2000/svg" width="83" height="83" viewBox="0 0 83 83"><g transform="translate(8625.949 8951.281)"><circle cx="41.5" cy="41.5" r="41.5" transform="translate(-8625.949 -8951.281)" fill="#d1ced9"/><g transform="translate(-8609.899 -8985.607)"><path d="M269.879,62.25a10.4,10.4,0,1,0,10.4,10.4A10.414,10.414,0,0,0,269.879,62.25Z" transform="translate(-233.682 -5.686)" fill="#f7ac16"/><path d="M9.179,203.479a1.7,1.7,0,0,0-1.7,1.7v21.094a1.7,1.7,0,0,0,1.7,1.7H41.64a1.7,1.7,0,0,0,1.7-1.7V205.176a1.7,1.7,0,0,0-1.7-1.7Z" transform="translate(-6.739 -132.875)" fill="#4a94cc"/><path d="M9.467,226.269V205.176a1.7,1.7,0,0,1,1.7-1.7H9.179a1.7,1.7,0,0,0-1.7,1.7v21.094a1.7,1.7,0,0,0,1.7,1.7h1.984A1.7,1.7,0,0,1,9.467,226.269Z" transform="translate(-6.739 -132.875)" fill="#2a82ad"/><path d="M96.525,141.9H64.064a1.7,1.7,0,0,0-1.7,1.7v4.591H90.9a1.7,1.7,0,0,1,1.7,1.7v16.5h3.926a1.7,1.7,0,0,0,1.7-1.7V143.6A1.7,1.7,0,0,0,96.525,141.9Z" transform="translate(-56.168 -77.419)" fill="#4a94cc"/><g transform="translate(6.2 64.482)"><path d="M65.976,141.9H64.064a1.7,1.7,0,0,0-1.7,1.7v4.591H64.28V143.6A1.7,1.7,0,0,1,65.976,141.9Z" transform="translate(-62.368 -141.902)" fill="#2a82ad"/><path d="M351.318,205.149h-1.912a1.7,1.7,0,0,1,1.7,1.7v16.5h1.912v-16.5A1.7,1.7,0,0,0,351.318,205.149Z" transform="translate(-320.871 -198.861)" fill="#2a82ad"/></g><path d="M72.391,203.479H41.628v2.928H74.087v-1.232A1.7,1.7,0,0,0,72.391,203.479Z" transform="translate(-37.49 -132.875)" fill="#585a60"/><path d="M11.379,203.479h-2.2a1.7,1.7,0,0,0-1.7,1.7v1.232h3.9v-2.928Z" transform="translate(-6.738 -132.875)" fill="#f74c48"/><path d="M9.467,205.176a1.7,1.7,0,0,1,1.7-1.7H9.179a1.7,1.7,0,0,0-1.7,1.7v1.232H9.467Z" transform="translate(-6.739 -132.875)" fill="#d63322"/><path d="M129.363,141.9H98.831v2.928H131.06V143.6A1.7,1.7,0,0,0,129.363,141.9Z" transform="translate(-89.006 -77.419)" fill="#585a60"/><path d="M66.265,141.9h-2.2a1.7,1.7,0,0,0-1.7,1.7v1.231h3.9V141.9Z" transform="translate(-56.168 -77.419)" fill="#f74c48"/><path d="M64.28,143.6a1.7,1.7,0,0,1,1.7-1.7H64.064a1.7,1.7,0,0,0-1.7,1.7v1.231H64.28V143.6Z" transform="translate(-56.168 -77.419)" fill="#d63322"/><path d="M329.7,86.264a8.015,8.015,0,1,0,8.015,8.015A8.024,8.024,0,0,0,329.7,86.264Z" transform="translate(-289.707 -27.313)" fill="#f7ac16"/><path d="M333.584,101.207a10.383,10.383,0,0,0,0-14.016,8.013,8.013,0,1,0,0,14.016Z" transform="translate(-289.706 -27.233)" fill="#ed8e11"/><path d="M310.259,85A10.161,10.161,0,1,1,320.42,74.836,10.172,10.172,0,0,1,310.259,85Zm0-18.126a7.965,7.965,0,1,0,7.965,7.965A7.974,7.974,0,0,0,310.259,66.871Z" transform="translate(-270.264 -7.87)" fill="#fcbc56"/><path d="M314.247,82.417a7.963,7.963,0,1,1,0-13.781,10.415,10.415,0,0,0-5.233-3.194,10.161,10.161,0,0,0,0,20.169A10.416,10.416,0,0,0,314.247,82.417Z" transform="translate(-270.264 -8.561)" fill="#f4b251"/><path d="M273.976,86.264a8.015,8.015,0,1,0,8.015,8.015A8.024,8.024,0,0,0,273.976,86.264Z" transform="translate(-239.521 -27.313)" fill="#f7ac16"/><path d="M267.946,94.289a8.025,8.025,0,0,1,7.023-7.951,8.015,8.015,0,1,0,0,15.9A8.025,8.025,0,0,1,267.946,94.289Z" transform="translate(-239.522 -27.323)" fill="#ed8e11"/><path d="M254.533,85a10.161,10.161,0,1,1,10.161-10.161A10.172,10.172,0,0,1,254.533,85Zm0-18.126a7.965,7.965,0,1,0,7.965,7.965A7.974,7.974,0,0,0,254.533,66.871Z" transform="translate(-220.078 -7.87)" fill="#fcbc56"/><path d="M246.458,74.829a10.175,10.175,0,0,1,9.119-10.108,10.161,10.161,0,1,0,0,20.216A10.176,10.176,0,0,1,246.458,74.829Z" transform="translate(-220.079 -7.863)" fill="#f4b251"/><path d="M267.686,95.485a8.709,8.709,0,1,0-8.709-8.709A8.719,8.719,0,0,0,267.686,95.485Zm0-15.93a7.221,7.221,0,1,1-7.221,7.221A7.23,7.23,0,0,1,267.686,79.555Z" transform="translate(-233.231 -19.931)"/><path d="M50.9,66.846A10.914,10.914,0,0,0,37.227,56.3a10.918,10.918,0,0,0-13.19,7.32H7.9a2.443,2.443,0,0,0-2.44,2.44V69.74H2.44A2.443,2.443,0,0,0,0,72.18V93.274a2.443,2.443,0,0,0,2.44,2.44H34.9a2.443,2.443,0,0,0,2.44-2.44V89.592h3.016a2.443,2.443,0,0,0,2.44-2.44V84.471a.744.744,0,0,0-1.488,0v2.681a.954.954,0,0,1-.953.952H37.342V77.424a11.1,11.1,0,0,0,3.968.247V81A.744.744,0,0,0,42.8,81V77.385A10.924,10.924,0,0,0,50.9,66.846ZM34.455,57.428a9.419,9.419,0,0,1,1.987,18.623h0a9.417,9.417,0,1,1-1.986-18.623Zm8.78,2.958a7.231,7.231,0,0,1,0,12.919A10.878,10.878,0,0,0,43.235,60.386Zm-19.681,6.16H10.842v-1.44H23.689A11.143,11.143,0,0,0,23.554,66.546Zm-16.61-.487a.954.954,0,0,1,.953-.953H9.354v1.44H6.944v-.488Zm0,1.975H23.615a10.811,10.811,0,0,0,.325,1.706h-17ZM1.488,72.18a.954.954,0,0,1,.953-.953H3.9v1.44H1.488ZM35.854,93.274a.954.954,0,0,1-.953.952H2.44a.954.954,0,0,1-.953-.952V74.155H8.362a.744.744,0,0,0,0-1.488H5.385v-1.44H24.47a10.958,10.958,0,0,0,.768,1.44h-13.4a.744.744,0,0,0,0,1.488H26.368a10.891,10.891,0,0,0,9.485,3.506C35.854,78.2,35.854,92.227,35.854,93.274ZM41.9,76.068h0a9.389,9.389,0,0,1-1.952.194,11.407,11.407,0,0,0,1.151-.777,8.711,8.711,0,0,0,0-17.278,11.348,11.348,0,0,0-1.152-.778A9.418,9.418,0,0,1,41.9,76.068Z"/><path d="M315.949,120.382l-.678,1.323a5.747,5.747,0,0,0,2.857,1v1.234h.667v-1.223c2.9-.119,2.959-2.362,2.535-3.252-.438-.917-1.567-1.228-2.635-1.484v-1.923a3.745,3.745,0,0,1,1.857.756l.678-1.245a4.937,4.937,0,0,0-2.435-.867v-1.123h-.667v1.134a2.428,2.428,0,0,0-2.4,3.241,2,2,0,0,0,1.112,1.012,9.606,9.606,0,0,0,1.384.45v1.912A4.663,4.663,0,0,1,315.949,120.382Zm2.746-.823c.869.278,1.178.528,1.178.978q0,.778-1.178.812Zm-1.523-2.635q0-.812,1.056-.878v1.8C317.51,117.638,317.172,117.43,317.172,116.925Z" transform="translate(-283.929 -51.912)"/><path d="M88.45,279.423H65.683a.744.744,0,0,1,0-1.488H88.45a.744.744,0,1,1,0,1.488Z" transform="translate(-58.483 -199.929)"/><path d="M88.45,315.8H65.683a.744.744,0,0,1,0-1.488H88.45a.744.744,0,1,1,0,1.488Z" transform="translate(-58.483 -232.689)"/><path d="M88.45,352.175H65.683a.744.744,0,0,1,0-1.488H88.45a.744.744,0,1,1,0,1.488Z" transform="translate(-58.483 -265.449)"/><path d="M88.45,388.551H65.683a.744.744,0,0,1,0-1.488H88.45a.744.744,0,1,1,0,1.488Z" transform="translate(-58.483 -298.208)"/></g></g></svg>