<svg xmlns="http://www.w3.org/2000/svg" width="83" height="83" viewBox="0 0 83 83"><g transform="translate(-1231.668 -2656.719)"><circle cx="41.5" cy="41.5" r="41.5" transform="translate(1231.668 2656.719)" fill="#d1ced9"/><g transform="translate(1249.668 2674)"><path d="M3,18H43.333v5.133H3Z" transform="translate(-0.267 -4.267)" fill="#898890"/><path d="M36.667,3H11V19.133H41.8V7.4Z" transform="translate(-2.4 -0.267)" fill="#6bbef2"/><path d="M46,3V7.4h5.133" transform="translate(-11.733 -0.267)" fill="#2b86bb"/><path d="M22.276,20.4,19.133,16H3V43.133H45.533V20.4Z" transform="translate(-0.267 -3.733)" fill="#e4e6f2"/><path d="M41,31H19V47.133H49.8V31Z" transform="translate(-4.533 -7.733)" fill="#16bb87"/><path d="M45,35H25.933A2.933,2.933,0,0,1,23,37.933v4.4a2.933,2.933,0,0,1,2.933,2.933H45a2.933,2.933,0,0,1,2.933-2.933v-4.4A2.933,2.933,0,0,1,45,35Z" transform="translate(-5.6 -8.8)" fill="#0beaa2"/><circle cx="5" cy="5" r="5" transform="translate(25 26)" fill="#fbdf63"/><path d="M31,53H53v2.933H31Z" transform="translate(-7.733 -13.6)" fill="#14a87a"/><path d="M25,57H51.4v2.933H25Z" transform="translate(-6.133 -14.667)" fill="#12966c"/><rect width="20" height="25" rx="2" transform="translate(3 20)" fill="#016ca9"/><g transform="translate(5.667 22.533)"><path d="M7,30H21.667v3.667H7Z" transform="translate(-7 -30)" fill="#bce8fe"/><path d="M7,39H9.933v2.933H7Z" transform="translate(-7 -32.4)" fill="#bce8fe"/><path d="M7,46H9.933v2.933H7Z" transform="translate(-7 -34.267)" fill="#bce8fe"/><path d="M7,53H9.933v2.933H7Z" transform="translate(-7 -36.133)" fill="#bce8fe"/><path d="M15,39h2.933v2.933H15Z" transform="translate(-9.133 -32.4)" fill="#bce8fe"/><path d="M15,46h2.933v2.933H15Z" transform="translate(-9.133 -34.267)" fill="#bce8fe"/><path d="M15,53h2.933v2.933H15Z" transform="translate(-9.133 -36.133)" fill="#bce8fe"/><path d="M23,39h2.933v2.933H23Z" transform="translate(-11.267 -32.4)" fill="#bce8fe"/></g><path d="M23,46h2.933v8.067H23Z" transform="translate(-5.6 -11.733)" fill="#ff6b81"/><path d="M36,53h5.867v5.867H36Z" transform="translate(-9.067 -13.6)" fill="#d9f0f4"/><path d="M45.267,15.933H43.8v-2.2A.733.733,0,0,0,43.067,13H40.133V7.133a.758.758,0,0,0-.213-.521l-4.4-4.4A.758.758,0,0,0,35,2H8.6a.733.733,0,0,0-.733.733v8.8H2.733A.733.733,0,0,0,2,12.267V43.8A2.207,2.207,0,0,0,4.2,46H45.267A.733.733,0,0,0,46,45.267v-28.6A.733.733,0,0,0,45.267,15.933Zm-5.133-1.467h2.2v1.467h-2.2ZM35,3.767,37.633,6.4H35Zm-25.667-.3h24.2V7.133a.733.733,0,0,0,.733.733h4.4v8.067H22.387l-2.926-4.092a.733.733,0,0,0-.594-.308H9.333ZM22.533,43.8a.733.733,0,0,1-.733.733H4.2a.733.733,0,0,1-.733-.733V21.067a.733.733,0,0,1,.733-.733H21.8a.733.733,0,0,1,.733.733Zm3.667.733H23.868A2.2,2.2,0,0,0,24,43.8v-.733h2.2Zm0-2.933H24V40.133h2.2Zm5.867,2.933h-4.4v-4.4h4.4Zm12.467,0h-11V43.067h11Zm0-2.933h-11V40.133h11Zm0-2.933H24V37.2H39.4a.733.733,0,0,0,.733-.733,2.207,2.207,0,0,1,2.2-2.2.733.733,0,0,0,.733-.733v-4.4a.733.733,0,0,0-.733-.733,2.207,2.207,0,0,1-2.2-2.2.733.733,0,0,0-.733-.733H24V24H44.533ZM34.267,31.333a4.4,4.4,0,1,1-4.4-4.4A4.4,4.4,0,0,1,34.267,31.333Zm-.535-4.4H38.74a3.674,3.674,0,0,0,2.86,2.86v3.08a3.674,3.674,0,0,0-2.86,2.86H33.731a5.836,5.836,0,0,0,0-8.8ZM24,31.333a5.848,5.848,0,0,0,2,4.4H24v-8.8h2a5.848,5.848,0,0,0-2,4.4Zm20.533-8.8H24V21.067a2.207,2.207,0,0,0-2.2-2.2H4.2A2.2,2.2,0,0,0,3.467,19V13H18.493l2.926,4.092a.733.733,0,0,0,.594.308H44.533Z"/><path d="M21.4,29H6.733A.733.733,0,0,0,6,29.733V33.4a.733.733,0,0,0,.733.733H21.4a.733.733,0,0,0,.733-.733V29.733A.733.733,0,0,0,21.4,29Zm-.733,3.667H7.467v-2.2h13.2Z" transform="translate(-1.067 -7.2)"/><path d="M9.667,38H6.733A.733.733,0,0,0,6,38.733v2.933a.733.733,0,0,0,.733.733H9.667a.733.733,0,0,0,.733-.733V38.733A.733.733,0,0,0,9.667,38Zm-.733,2.933H7.467V39.467H8.933Z" transform="translate(-1.067 -9.6)"/><path d="M9.667,45H6.733A.733.733,0,0,0,6,45.733v2.933a.733.733,0,0,0,.733.733H9.667a.733.733,0,0,0,.733-.733V45.733A.733.733,0,0,0,9.667,45Zm-.733,2.933H7.467V46.467H8.933Z" transform="translate(-1.067 -11.467)"/><path d="M9.667,52H6.733A.733.733,0,0,0,6,52.733v2.933a.733.733,0,0,0,.733.733H9.667a.733.733,0,0,0,.733-.733V52.733A.733.733,0,0,0,9.667,52Zm-.733,2.933H7.467V53.467H8.933Z" transform="translate(-1.067 -13.333)"/><path d="M17.667,38H14.733a.733.733,0,0,0-.733.733v2.933a.733.733,0,0,0,.733.733h2.933a.733.733,0,0,0,.733-.733V38.733A.733.733,0,0,0,17.667,38Zm-.733,2.933H15.467V39.467h1.467Z" transform="translate(-3.2 -9.6)"/><path d="M17.667,45H14.733a.733.733,0,0,0-.733.733v2.933a.733.733,0,0,0,.733.733h2.933a.733.733,0,0,0,.733-.733V45.733A.733.733,0,0,0,17.667,45Zm-.733,2.933H15.467V46.467h1.467Z" transform="translate(-3.2 -11.467)"/><path d="M17.667,52H14.733a.733.733,0,0,0-.733.733v2.933a.733.733,0,0,0,.733.733h2.933a.733.733,0,0,0,.733-.733V52.733A.733.733,0,0,0,17.667,52Zm-.733,2.933H15.467V53.467h1.467Z" transform="translate(-3.2 -13.333)"/><path d="M25.667,38H22.733a.733.733,0,0,0-.733.733v2.933a.733.733,0,0,0,.733.733h2.933a.733.733,0,0,0,.733-.733V38.733A.733.733,0,0,0,25.667,38Zm-.733,2.933H23.467V39.467h1.467Z" transform="translate(-5.333 -9.6)"/><path d="M25.667,45H22.733a.733.733,0,0,0-.733.733V53.8a.733.733,0,0,0,.733.733h2.933A.733.733,0,0,0,26.4,53.8V45.733A.733.733,0,0,0,25.667,45Zm-.733,8.067H23.467v-6.6h1.467Z" transform="translate(-5.333 -11.467)"/><path d="M15,7h1.467V8.467H15Z" transform="translate(-3.467 -1.333)"/><path d="M19,7h1.467V8.467H19Z" transform="translate(-4.533 -1.333)"/><path d="M23,7H36.933V8.467H23Z" transform="translate(-5.6 -1.333)"/><path d="M15,11H39.933v1.467H15Z" transform="translate(-3.467 -2.4)"/><path d="M30,15H43.933v1.467H30Z" transform="translate(-7.467 -3.467)"/></g></g></svg>