<svg xmlns="http://www.w3.org/2000/svg" xmlns:xlink="http://www.w3.org/1999/xlink" width="140" height="140" viewBox="0 0 140 140"><defs><filter id="a" x="0" y="0" width="140" height="140" filterUnits="userSpaceOnUse"><feOffset dy="3" input="SourceAlpha"/><feGaussianBlur stdDeviation="3" result="b"/><feFlood flood-opacity="0.161"/><feComposite operator="in" in2="b"/><feComposite in="SourceGraphic"/></filter></defs><g transform="translate(-782.814 -4405.258)"><g transform="translate(487.007 788.207)"><g transform="matrix(1, 0, 0, 1, 295.81, 3617.05)" filter="url(#a)"><circle cx="61" cy="61" r="61" transform="translate(9 6)" fill="#fff" opacity="0.45"/></g><circle cx="49" cy="49" r="49" transform="translate(316.808 3635.051)" fill="#fff"/></g><g transform="translate(820.668 4441)"><path d="M50,3a5,5,0,0,0-5,5V44H13V7a4,4,0,0,1,4-4Z" fill="#a6eae8"/><path d="M41,16V58H11a4,4,0,0,1-4-4V18H31V16a5,5,0,0,1,10,0Z" fill="#22cac5"/><path d="M36,11a5,5,0,0,0-5,5v2H3V15a4,4,0,0,1,4-4Z" fill="#178d89"/><path d="M55,8v4H45V8A5,5,0,0,1,55,8Z" fill="#178d89"/><path d="M61,43v6H33V43H61Z" fill="#dfbba0"/><path d="M60,55v6H32V55H60Z" fill="#dfbba0"/><path d="M54,49v6H26V49H54Z" fill="#efddcf"/><path d="M14,0A14,14,0,1,1,0,14,14,14,0,0,1,14,0Z" transform="translate(31 15)" fill="#b15815"/><path d="M61,42H52.45A14.976,14.976,0,0,0,46,14.05V13h9a1,1,0,0,0,1-1V8a6,6,0,0,0-6-6H17a5,5,0,0,0-5,5v3H7a5,5,0,0,0-5,5v3a1,1,0,0,0,1,1H6V54a5,5,0,0,0,5,5H31v2a1,1,0,0,0,1,1H60a1,1,0,0,0,1-1V55a1,1,0,0,0-1-1H55V50h6a1,1,0,0,0,1-1V43A1,1,0,0,0,61,42ZM46,8a4,4,0,0,1,8,0v3H46ZM58,29A13,13,0,1,1,45,16,13,13,0,0,1,58,29ZM14,7a3.009,3.009,0,0,1,3-3H45.54A5.979,5.979,0,0,0,44,8v6.05a15.1,15.1,0,0,0-2.24.31,6.062,6.062,0,0,0-1.52-2.61A5.977,5.977,0,0,0,36,10H14ZM4,17V15a3.009,3.009,0,0,1,3-3H31.53A5.971,5.971,0,0,0,30,16v1ZM31,57H11a3.009,3.009,0,0,1-3-3V19H31a1,1,0,0,0,1-1V16a4.009,4.009,0,0,1,6.83-2.84,4.157,4.157,0,0,1,1.02,1.77A15.1,15.1,0,0,0,31.74,22H18v2H30.88a14.293,14.293,0,0,0-.73,3H18v2H30a14.819,14.819,0,0,0,.3,3H18v2H30.88a14.833,14.833,0,0,0,1.45,3H18v2H33.85a15.32,15.32,0,0,0,3.7,3H18v2H32v4H26a1,1,0,0,0-1,1v6a1,1,0,0,0,1,1h5Zm-4-3V50H53v4Zm32,2v4H33V56Zm1-8H34V44H60Z"/><path d="M49,26V25a1,1,0,0,0-1-1H42a1,1,0,0,0-1,1v2a1,1,0,0,0,1,1h6a3.009,3.009,0,0,1,3,3v2a3.009,3.009,0,0,1-3,3H46v2H44V36H42a3.009,3.009,0,0,1-3-3V32h2v1a1,1,0,0,0,1,1h6a1,1,0,0,0,1-1V31a1,1,0,0,0-1-1H42a3.009,3.009,0,0,1-3-3V25a3.009,3.009,0,0,1,3-3h2V20h2v2h2a3.009,3.009,0,0,1,3,3v1Z"/><path d="M11,22h4v2H11Z"/><path d="M11,27h4v2H11Z"/><path d="M11,32h4v2H11Z"/><path d="M11,37h4v2H11Z"/><path d="M11,42h4v2H11Z"/></g></g></svg>