<svg xmlns="http://www.w3.org/2000/svg" xmlns:xlink="http://www.w3.org/1999/xlink" width="140" height="140" viewBox="0 0 140 140"><defs><filter id="a" x="0" y="0" width="140" height="140" filterUnits="userSpaceOnUse"><feOffset dy="3" input="SourceAlpha"/><feGaussianBlur stdDeviation="3" result="b"/><feFlood flood-opacity="0.161"/><feComposite operator="in" in2="b"/><feComposite in="SourceGraphic"/></filter></defs><g transform="translate(10056.854 7188.001)"><g transform="translate(-10352.661 -10805.052)"><g transform="matrix(1, 0, 0, 1, 295.81, 3617.05)" filter="url(#a)"><circle cx="61" cy="61" r="61" transform="translate(9 6)" fill="#fff" opacity="0.45"/></g><circle cx="49" cy="49" r="49" transform="translate(316.808 3635.051)" fill="#fff"/></g><g transform="translate(-10028.152 -7158.167)"><path d="M108.253,39.474a9.87,9.87,0,0,1,9.19-9.834V22.184h-.814c-.528,0-.732.647-.795.923l-.735,3.232a.664.664,0,0,1-.471.493,13.37,13.37,0,0,0-2.993,1.241.662.662,0,0,1-.685-.016l-2.8-1.762c-.242-.154-.845-.468-1.212-.094l-2.1,2.095c-.374.374-.06.974.091,1.215l1.768,2.8a.677.677,0,0,1,.016.685,13.057,13.057,0,0,0-1.244,2.99.664.664,0,0,1-.493.474l-3.232.735c-.276.063-.927.267-.927.795v2.962c0,.528.65.732.927.795l3.232.735a.668.668,0,0,1,.493.474,13.258,13.258,0,0,0,1.241,2.987.669.669,0,0,1-.013.685L104.93,49.44c-.154.242-.468.842-.094,1.215l2.095,2.095c.374.374.974.06,1.215-.091l2.8-1.765a.665.665,0,0,1,.355-.1.657.657,0,0,1,.33.088,13.206,13.206,0,0,0,2.993,1.241.67.67,0,0,1,.471.493l.735,3.229c.063.28.267.927.795.927h.814V49.311a9.873,9.873,0,0,1-9.19-9.837Z" transform="translate(-78.158 -10.686)" fill="#7b849b"/><path d="M243.681,158.759c0,.361.16.537.8.694v-1.432C244,158.175,243.681,158.48,243.681,158.759Z" transform="translate(-205.193 -131.472)" fill="#f6ca56"/><path d="M262.9,185.545v1.432c.484-.154.8-.459.8-.738C263.7,185.878,263.538,185.7,262.9,185.545Z" transform="translate(-222.282 -155.947)" fill="#f6ca56"/><path d="M303.268,39.567l7.359-1.972a17.309,17.309,0,0,0-11.018-9.485v7.984a9.857,9.857,0,0,1,3.659,3.474Z" transform="translate(-254.924 -15.955)" fill="#00aede"/><path d="M308.233,246.782l-6.6-3.807a9.986,9.986,0,0,1-2.029,1.476v7.984a17.3,17.3,0,0,0,8.625-5.654Z" transform="translate(-254.923 -207.013)" fill="#29ce69"/><path d="M351.187,164.746a16.641,16.641,0,0,0-.082-1.68l-7.356,1.973a9.822,9.822,0,0,1-.261,1.982l6.6,3.807a17.2,17.2,0,0,0,1.1-6.081Z" transform="translate(-293.942 -135.958)" fill="#fd7a6e"/><path d="M210.825,135.115v.666a.666.666,0,1,1-1.332,0v-.666a2.567,2.567,0,0,1-2.02-1.5.666.666,0,0,1,1.25-.458,1.171,1.171,0,0,0,.77.59v-1.687c-1-.207-2.129-.628-2.129-2.06a2.336,2.336,0,0,1,2.129-2.111v-.666a.666.666,0,0,1,1.332,0v.669a2.571,2.571,0,0,1,2.038,1.545.666.666,0,1,1-1.263.427,1.154,1.154,0,0,0-.776-.6v1.687c1,.2,2.13.628,2.13,2.057a2.331,2.331,0,0,1-2.13,2.111Zm-.666-9.438a5.825,5.825,0,1,0,5.826,5.823A5.831,5.831,0,0,0,210.159,125.677Z" transform="translate(-170.207 -102.712)" fill="#f6ca56"/><path d="M30.262,256.836l8.38,4.837a.112.112,0,0,0,.025.016,2.6,2.6,0,0,1,1.369,1.709l.578,2.151,7.145-1.913-2.249-8.38a2.067,2.067,0,0,0-1.005-1.228.339.339,0,0,0-.035-.019l-8.4-4.853a1.55,1.55,0,0,0-2.114.565,1.5,1.5,0,0,0,.572,2.054l0,0a0,0,0,0,1,0,0l6.3,3.662a.666.666,0,0,1-.336,1.241.641.641,0,0,1-.333-.091l-6.326-3.678a.009.009,0,0,1-.006,0l-.977-.565c-.747-.437-.967-.883-1.294-2.095l-2.987-11.147a1.869,1.869,0,0,0-1.8-1.376,1.758,1.758,0,0,0-.474.063,1.86,1.86,0,0,0-1.313,2.274l4.071,15.2a2.574,2.574,0,0,0,1.2,1.574Z" transform="translate(-10.676 -202.35)" fill="#ffddcf"/><path d="M304.28,237.792a1.857,1.857,0,0,0-2.271,1.313l-2.987,11.147c-.324,1.209-.543,1.655-1.291,2.092l-.98.572h0l-6.326,3.678a.652.652,0,0,1-.336.091.665.665,0,0,1-.333-1.241l6.3-3.662v0h0a1.5,1.5,0,0,0,.572-2.057,1.555,1.555,0,0,0-2.114-.569l-8.4,4.856a.342.342,0,0,1-.035.019,2.059,2.059,0,0,0-1.005,1.225l-2.246,8.383,7.142,1.913.575-2.151a2.6,2.6,0,0,1,1.372-1.709.068.068,0,0,0,.025-.016l8.38-4.837a2.586,2.586,0,0,0,1.2-1.573l4.071-15.2a1.861,1.861,0,0,0-1.313-2.274Z" transform="translate(-240 -202.348)" fill="#ffddcf"/><g transform="translate(12.919 10.166)"><path d="M106.755,46.081h-.814c-.528,0-.732-.647-.795-.927l-.735-3.229a.67.67,0,0,0-.471-.493,13.207,13.207,0,0,1-2.993-1.241.657.657,0,0,0-.33-.088.665.665,0,0,0-.355.1l-2.8,1.765c-.242.151-.842.465-1.215.091l-2.095-2.095c-.374-.374-.06-.974.094-1.215l1.765-2.808a.669.669,0,0,0,.013-.685,13.253,13.253,0,0,1-1.241-2.987.669.669,0,0,0-.493-.474l-3.232-.735c-.276-.063-.927-.267-.927-.795V27.309c0-.528.65-.732.927-.795l3.232-.735a.663.663,0,0,0,.493-.474,13.069,13.069,0,0,1,1.244-2.99.677.677,0,0,0-.016-.685l-1.768-2.8c-.151-.242-.465-.842-.091-1.215l2.1-2.095c.368-.374.971-.06,1.212.094l2.8,1.762a.662.662,0,0,0,.685.016,13.372,13.372,0,0,1,2.993-1.241.665.665,0,0,0,.471-.493l.735-3.232c.063-.276.267-.923.795-.923h.814v7.456a9.858,9.858,0,0,0,0,19.671v7.456Zm.666-8.766a8.526,8.526,0,0,1,0-17.052.666.666,0,0,0,.666-.666V10.832a.666.666,0,0,0-.666-.666h-1.479a2.229,2.229,0,0,0-2.095,1.96l-.647,2.852a14.455,14.455,0,0,0-2.56,1.058l-2.472-1.555a2.22,2.22,0,0,0-2.868.091l-2.095,2.095a2.224,2.224,0,0,0-.091,2.868l1.555,2.472a14.629,14.629,0,0,0-1.062,2.56l-2.849.647A2.232,2.232,0,0,0,88.8,27.309V30.27a2.23,2.23,0,0,0,1.963,2.095l2.849.647a14.4,14.4,0,0,0,1.062,2.557l-1.555,2.475a2.224,2.224,0,0,0,.091,2.868L95.3,43a2.219,2.219,0,0,0,2.868.1l2.472-1.558A14.706,14.706,0,0,0,103.2,42.6l.647,2.846a2.227,2.227,0,0,0,2.095,1.963h1.479a.666.666,0,0,0,.666-.666V37.981a.666.666,0,0,0-.666-.666Z" transform="translate(-80.389 -10.166)" fill="#030403"/><path d="M288.922,15.868a17.308,17.308,0,0,1,11.018,9.485l-7.359,1.972a9.858,9.858,0,0,0-3.659-3.474Zm2.755,12.554a.667.667,0,0,0,.584.345.655.655,0,0,0,.173-.022l8.593-2.305a.665.665,0,0,0,.446-.892A18.633,18.633,0,0,0,288.407,14.36a.663.663,0,0,0-.817.647v9.249a.667.667,0,0,0,.371.6,8.512,8.512,0,0,1,3.716,3.568Z" transform="translate(-257.156 -13.88)" fill="#030403"/><path d="M288.922,232.438a9.981,9.981,0,0,0,2.029-1.476l6.6,3.807a17.3,17.3,0,0,1-8.625,5.654v-7.984Zm-1.08,9.366a.672.672,0,0,0,.415.144.819.819,0,0,0,.151-.016,18.649,18.649,0,0,0,10.672-6.957.667.667,0,0,0-.2-.977l-7.7-4.444a.663.663,0,0,0-.814.116,8.626,8.626,0,0,1-2.4,1.765.67.67,0,0,0-.371.6v9.25A.668.668,0,0,0,287.841,241.8Z" transform="translate(-257.156 -205.166)" fill="#030403"/><path d="M332.187,152.944l7.356-1.972a16.64,16.64,0,0,1,.082,1.68,17.2,17.2,0,0,1-1.1,6.081l-6.6-3.807a9.822,9.822,0,0,0,.261-1.982Zm6.668,7.416a.685.685,0,0,0,.21-.035.661.661,0,0,0,.4-.371,18.45,18.45,0,0,0,1.489-7.3,19.036,19.036,0,0,0-.182-2.616.66.66,0,0,0-.292-.462.682.682,0,0,0-.54-.088l-8.593,2.3a.666.666,0,0,0-.493.644c0,.041,0,.082,0,.126v.094a8.553,8.553,0,0,1-.345,2.406.669.669,0,0,0,.3.766l7.7,4.447a.694.694,0,0,0,.333.088Z" transform="translate(-295.299 -134.03)" fill="#030403"/><path d="M293.708,229.371l-4.071,15.2a2.585,2.585,0,0,1-1.2,1.574l-8.38,4.837a.07.07,0,0,1-.025.016,2.6,2.6,0,0,0-1.372,1.709l-.575,2.151-7.142-1.913,2.246-8.383a2.059,2.059,0,0,1,1.005-1.225.346.346,0,0,0,.035-.019l8.4-4.856a1.555,1.555,0,0,1,2.114.569,1.5,1.5,0,0,1-.572,2.057h0v0l-6.3,3.662a.665.665,0,0,0,.333,1.241.652.652,0,0,0,.336-.091l6.326-3.678h0l.98-.572c.748-.437.967-.883,1.291-2.092l2.987-11.147a1.855,1.855,0,1,1,3.584.961Zm-.967-3.562a3.2,3.2,0,0,0-3.9,2.255l-2.82,10.528c-.035-.079-.075-.154-.119-.232a2.883,2.883,0,0,0-3.932-1.052l-8.389,4.843a3.389,3.389,0,0,0-1.677,2.064l-2.415,9.024a.666.666,0,0,0,.471.817l8.427,2.258a.65.65,0,0,0,.173.022.684.684,0,0,0,.333-.088.669.669,0,0,0,.311-.405l.747-2.8c.122-.462.242-.575.788-.923l8.367-4.834a3.881,3.881,0,0,0,1.822-2.378l4.074-15.2a3.2,3.2,0,0,0-2.255-3.907Z" transform="translate(-241.034 -201.82)" fill="#030403"/><path d="M235.122,140.8v-1.432c.638.157.8.333.8.694C235.92,140.342,235.606,140.646,235.122,140.8Zm-1.332-3.05c-.638-.157-.8-.333-.8-.694,0-.28.317-.584.8-.738Zm1.332.254v-1.687a1.154,1.154,0,0,1,.776.6.666.666,0,0,0,1.263-.427,2.571,2.571,0,0,0-2.038-1.545v-.669a.666.666,0,0,0-1.332,0v.666a2.336,2.336,0,0,0-2.129,2.111c0,1.432,1.134,1.853,2.129,2.06V140.8a1.171,1.171,0,0,1-.77-.59.666.666,0,1,0-1.25.458,2.567,2.567,0,0,0,2.02,1.5v.666a.666.666,0,1,0,1.332,0v-.666a2.33,2.33,0,0,0,2.129-2.111c0-1.429-1.134-1.853-2.129-2.057Z" transform="translate(-207.424 -119.936)" fill="#030403"/><path d="M15.626,227.1a1.758,1.758,0,0,1,.474-.063,1.869,1.869,0,0,1,1.8,1.376l2.987,11.147c.327,1.212.546,1.658,1.294,2.095l.977.565a.009.009,0,0,0,.006,0l6.326,3.678a.641.641,0,0,0,.333.091.666.666,0,0,0,.336-1.241l-6.3-3.662a0,0,0,0,0,0,0l0,0a1.5,1.5,0,0,1-.572-2.054,1.55,1.55,0,0,1,2.114-.565l8.4,4.853a.338.338,0,0,1,.035.019,2.067,2.067,0,0,1,1.005,1.228l2.249,8.38-7.145,1.913-.578-2.151a2.6,2.6,0,0,0-1.369-1.709.108.108,0,0,1-.025-.016l-8.38-4.837a2.574,2.574,0,0,1-1.2-1.573l-4.071-15.2a1.86,1.86,0,0,1,1.313-2.274Zm3.295,20.192,8.367,4.834c.543.345.663.459.788.923l.748,2.8a.669.669,0,0,0,.644.493.656.656,0,0,0,.173-.022l8.43-2.258a.666.666,0,0,0,.471-.817l-2.418-9.024a3.4,3.4,0,0,0-1.677-2.064l-8.389-4.843a2.888,2.888,0,0,0-3.935,1.052c-.041.075-.082.154-.116.229l-2.82-10.525a3.187,3.187,0,1,0-6.156,1.652l4.067,15.2a3.9,3.9,0,0,0,1.825,2.378Z" transform="translate(-12.919 -201.82)" fill="#030403"/><path d="M199.472,126.639a5.825,5.825,0,1,1,5.826-5.826A5.832,5.832,0,0,1,199.472,126.639Zm7.158-5.826a7.156,7.156,0,1,0-7.158,7.158A7.164,7.164,0,0,0,206.63,120.813Z" transform="translate(-172.439 -102.191)" fill="#030403"/></g></g></g></svg>