<svg xmlns="http://www.w3.org/2000/svg" xmlns:xlink="http://www.w3.org/1999/xlink" width="140" height="140" viewBox="0 0 140 140"><defs><filter id="a" x="0" y="0" width="140" height="140" filterUnits="userSpaceOnUse"><feOffset dy="3" input="SourceAlpha"/><feGaussianBlur stdDeviation="3" result="b"/><feFlood flood-opacity="0.161"/><feComposite operator="in" in2="b"/><feComposite in="SourceGraphic"/></filter></defs><g transform="translate(-1097.814 -4405.258)"><g transform="translate(802.007 788.207)"><g transform="matrix(1, 0, 0, 1, 295.81, 3617.05)" filter="url(#a)"><circle cx="61" cy="61" r="61" transform="translate(9 6)" fill="#fff" opacity="0.45"/></g><circle cx="49" cy="49" r="49" transform="translate(316.808 3635.051)" fill="#fff"/></g><g transform="translate(1130.314 4443.51)"><path d="M46.915,33.166a9.849,9.849,0,0,0,10.4,9.821c-.959.256-48.169-.079-49.058.05a3.016,3.016,0,0,1-3.006-3.007V14.375a3.015,3.015,0,0,1,3.007-3.007H56.711a3.015,3.015,0,0,1,3.007,3.007v9.4a9.895,9.895,0,0,0-12.8,9.4Z" transform="translate(6.118 6.117)" fill="#22cac5"/><path d="M55.928,10.609v6.164H13.66a3.015,3.015,0,0,0-3.007,3.007V39.247H4.49a3,3,0,0,1-3.032-3.006V10.609A3.026,3.026,0,0,1,4.49,7.578H52.921a3,3,0,0,1,3.007,3.032Z" transform="translate(0.713 0.712)" fill="#22cac5"/><path d="M52.836,13.155v7.717a9.916,9.916,0,0,0-6.765,15.283H7.036v-23Z" transform="translate(8.666 8.665)" fill="#e8e6eb"/><path d="M49.046,9.364v4.861H11.113a3.015,3.015,0,0,0-3.007,3.007V32.365H3.245v-23Z" transform="translate(3.261 3.26)" fill="#e8e6eb"/><path d="M46.784,38.082H7.749a1.212,1.212,0,0,1-1.213-1.213v-23a1.212,1.212,0,0,1,1.213-1.213h45.8a1.212,1.212,0,0,1,1.213,1.213v7.719a1.21,1.21,0,0,1-1.09,1.206,8.188,8.188,0,0,0-6.562,5.027,8.277,8.277,0,0,0,.655,8.337,1.221,1.221,0,0,1-.981,1.926ZM8.962,35.656H44.7a11.348,11.348,0,0,1,7.633-15.1V15.08H8.962Z" transform="translate(7.953 7.952)"/><g transform="translate(30.91 28.633)"><path d="M42.117,26.141a9.847,9.847,0,1,1-9.847-9.847,9.846,9.846,0,0,1,9.847,9.847Z" transform="translate(-0.302 -15.491)" fill="#b15815"/><path d="M19.1,15.963V23.4c-.116.021-5.926-.056-5.8.057A7.661,7.661,0,0,1,19.1,15.963Z" transform="translate(-13.305 -15.963)" fill="#b15815"/><path d="M23.051,23.4v.057c.145-.112-5.688-.037-5.8-.057v-7.44a7.658,7.658,0,0,1,5.8,7.44Z" transform="translate(-7.671 -15.963)" fill="#b15815"/></g><path d="M32.944,37.778c-14.705-.133-14.584-21.83-.01-21.95C47.556,15.957,47.569,37.65,32.944,37.778Zm-.011-19.524c-11.369.109-11.477,16.981.012,17.1,11.477-.051,11.32-17.026-.012-17.1Z" transform="translate(29.947 12.477)"/><path d="M47.938,45.012c-4.559,0-11.073-.014-20.369-.045-8.765-.028-17.822-.052-18.482-.009a4.247,4.247,0,0,1-4.339-4.215V15.088a4.224,4.224,0,0,1,4.219-4.219H57.424a4.224,4.224,0,0,1,4.219,4.219v9.4a1.22,1.22,0,0,1-1.6,1.149A8.651,8.651,0,0,0,51.57,40.167a8.376,8.376,0,0,0,6.374,2.322,1.211,1.211,0,1,1,.162,2.417v0c-1.223.078-3.353.1-10.169.1ZM12.644,42.506c8.367,0,28.641.1,38.02.078a11.094,11.094,0,0,1,8.554-19.645V15.088a1.8,1.8,0,0,0-1.793-1.793H8.969a1.8,1.8,0,0,0-1.793,1.793V40.743a1.8,1.8,0,0,0,1.793,1.8c.109-.021,1.085-.033,3.676-.033Z" transform="translate(5.405 5.405)"/><path d="M8.819,34.292H3.958a1.212,1.212,0,0,1-1.213-1.213v-23A1.212,1.212,0,0,1,3.958,8.864h45.8a1.212,1.212,0,0,1,1.213,1.213v4.861a1.212,1.212,0,0,1-1.213,1.213H11.826a1.8,1.8,0,0,0-1.793,1.793V33.079A1.212,1.212,0,0,1,8.82,34.292ZM5.171,31.866H7.607V17.945a4.224,4.224,0,0,1,4.219-4.219h36.72V11.29H5.171Z" transform="translate(2.548 2.547)"/><path d="M11.367,41.172H5.2A4.237,4.237,0,0,1,.959,36.953V11.321A4.248,4.248,0,0,1,5.2,7.078H53.635a4.235,4.235,0,0,1,4.219,4.243v6.164A1.212,1.212,0,0,1,56.641,18.7H14.374a1.8,1.8,0,0,0-1.793,1.793V39.959a1.212,1.212,0,0,1-1.213,1.213ZM5.2,9.5a1.82,1.82,0,0,0-1.818,1.817V36.953A1.787,1.787,0,0,0,5.2,38.746h4.951V20.492a4.224,4.224,0,0,1,4.219-4.219H55.428V11.321A1.786,1.786,0,0,0,53.635,9.5Z" transform="translate(0 0)"/><path d="M30.955,20.9A1.886,1.886,0,0,1,29.062,22.8H14.6a1.884,1.884,0,1,1,0-3.768H29.062A1.9,1.9,0,0,1,30.955,20.9Z" transform="translate(16.77 17.043)" fill="#ffa845"/><path d="M19.482,17.037v7.44H15.695v-7.44a1.895,1.895,0,0,1,3.787,0Z" transform="translate(21.013 11.596)" fill="#ffa845"/><path d="M29.777,24.723H15.318a3.1,3.1,0,1,1-.008-6.193H29.791a3.1,3.1,0,1,1-.014,6.193ZM15.314,20.956a.67.67,0,1,0,0,1.341H29.777a.674.674,0,0,0,.681-.689c-.007-.352-.388-.778-.675-.652Z" transform="translate(16.054 16.33)"/><path d="M20.194,26.4H16.407a1.212,1.212,0,0,1-1.213-1.213V17.744a3.107,3.107,0,0,1,6.213,0v7.441A1.212,1.212,0,0,1,20.194,26.4ZM17.62,23.973h1.361V17.782c-.045-.59-.488-.547-.7-.654a.609.609,0,0,0-.657.666Z" transform="translate(20.3 10.888)"/><path d="M14.019,25.386a1.226,1.226,0,0,1-1.213-1.277A8.825,8.825,0,0,1,19.524,15.5a1.221,1.221,0,0,1,1.5,1.177v7.441a1.212,1.212,0,0,1-1.018,1.2C18.771,25.37,15.1,25.25,14.019,25.386Zm2.475-2.49c.585,0,1.31,0,2.107.007V18.43A6.4,6.4,0,0,0,15.344,22.9c.332-.007.712-.007,1.15-.007Z" transform="translate(16.893 11.958)"/><path d="M23.764,25.386c-1.085-.13-4.769-.018-6.006-.076a1.211,1.211,0,0,1-1-1.194V16.675a1.22,1.22,0,0,1,1.5-1.177,8.845,8.845,0,0,1,6.718,8.6,1.228,1.228,0,0,1-1.213,1.291Zm-4.583-6.953V22.9c1.385-.006,2.492-.01,3.258,0A6.425,6.425,0,0,0,19.181,18.433Z" transform="translate(22.526 11.958)"/><path d="M26.339,28.883a1.213,1.213,0,1,1,0-2.426H28.43a.868.868,0,1,0-.02-1.737,3.293,3.293,0,1,1,.015-6.586H30.5a1.213,1.213,0,1,1,0,2.426H28.43a.867.867,0,1,0,0,1.734,3.295,3.295,0,1,1,.019,6.589Z" transform="translate(34.46 15.765)"/><path d="M27.209,25.5c-1.492-.036-1.2-1.714-1.213-2.725a1.212,1.212,0,0,1,1.213-1.213c1.492.036,1.2,1.714,1.213,2.725A1.212,1.212,0,0,1,27.209,25.5Z" transform="translate(35.681 20.657)"/><path d="M27.208,21.436A1.212,1.212,0,0,1,26,20.223c.011-1.009-.271-2.668,1.213-2.7a1.212,1.212,0,0,1,1.213,1.213C28.41,19.741,28.692,21.4,27.208,21.436Z" transform="translate(35.681 14.889)"/></g></g></svg>