<svg xmlns="http://www.w3.org/2000/svg" xmlns:xlink="http://www.w3.org/1999/xlink" width="140" height="140" viewBox="0 0 140 140"><defs><filter id="a" x="0" y="0" width="140" height="140" filterUnits="userSpaceOnUse"><feOffset dy="3" input="SourceAlpha"/><feGaussianBlur stdDeviation="3" result="b"/><feFlood flood-opacity="0.161"/><feComposite operator="in" in2="b"/><feComposite in="SourceGraphic"/></filter></defs><g transform="translate(9080.854 7187.743)"><g transform="translate(-9376.661 -10804.794)"><g transform="matrix(1, 0, 0, 1, 295.81, 3617.05)" filter="url(#a)"><circle cx="61" cy="61" r="61" transform="translate(9 6)" fill="#fff" opacity="0.45"/></g><circle cx="49" cy="49" r="49" transform="translate(316.808 3635.051)" fill="#fff"/></g><g transform="translate(-9040 -7152.743)"><path d="M62,34H40v6l-8-8,8-8v6H62" fill="#22cac5"/><path d="M53,2,39,16l4,4H32V9l4,4L47,2" fill="#22cac5"/><path d="M53,62,39,48l4-4H32V55l4-4L47,62" fill="#22cac5"/><path d="M22,56H4a2,2,0,0,1-2-2V38a2,2,0,0,1,2-2H22a2,2,0,0,1,2,2V54A2,2,0,0,1,22,56Z" fill="#22cac5"/><path d="M6,28H20v4H6Z" fill="#4d5d7a"/><circle cx="8" cy="8" r="8" transform="translate(5 8)" fill="#b15815"/><path d="M8,32H18v4H8Z" fill="#8892a0"/><path d="M21.847,36H4a2,2,0,0,0-2,2V50.269A13.064,13.064,0,0,0,8.5,52,13.757,13.757,0,0,0,22,38,14.638,14.638,0,0,0,21.847,36Z" fill="#a6eae8"/><path d="M40,41a1,1,0,0,1-.707-.293l-8-8a1,1,0,0,1,0-1.414l8-8A1,1,0,0,1,41,24v5H62v2H40a1,1,0,0,1-1-1V26.414L33.414,32,39,37.586V34a1,1,0,0,1,1-1H62v2H41v5a1,1,0,0,1-1,1Z"/><path d="M43,21H32a1,1,0,0,1-1-1V9a1,1,0,0,1,1.707-.707L36,11.586,46.293,1.293l1.414,1.414-11,11a1,1,0,0,1-1.414,0L33,11.414V19h7.586l-2.293-2.293a1,1,0,0,1,0-1.414l14-14,1.414,1.414L40.414,16l3.293,3.293A1,1,0,0,1,43,21Z"/><path d="M52.293,62.707l-14-14a1,1,0,0,1,0-1.414L40.586,45H33v7.586l2.293-2.293a1,1,0,0,1,1.414,0l11,11-1.414,1.414L36,52.414l-3.293,3.293A1,1,0,0,1,31,55V44a1,1,0,0,1,1-1H43a1,1,0,0,1,.707,1.707L40.414,48,53.707,61.293Z"/><path d="M22,57H4a3,3,0,0,1-3-3V38a3,3,0,0,1,3-3H22a3,3,0,0,1,3,3V54A3,3,0,0,1,22,57ZM4,37a1,1,0,0,0-1,1V54a1,1,0,0,0,1,1H22a1,1,0,0,0,1-1V38a1,1,0,0,0-1-1Z"/><path d="M20,33H6a1,1,0,0,1-1-1V28a1,1,0,0,1,1-1H20a1,1,0,0,1,1,1v4A1,1,0,0,1,20,33ZM7,31H19V29H7Z"/><path d="M7,32H9v4H7Z"/><path d="M17,32h2v4H17Z"/><path d="M3.1,45H22.9v2H3.1Z" transform="translate(-28.719 22.666) rotate(-45)"/><path d="M17,52a3,3,0,1,1,3-3A3,3,0,0,1,17,52Zm0-4a1,1,0,1,0,1,1A1,1,0,0,0,17,48Z"/><path d="M10,45a3,3,0,1,1,3-3A3,3,0,0,1,10,45Zm0-4a1,1,0,1,0,1,1A1,1,0,0,0,10,41Z"/><path d="M15,19H10V17h2.586l-2.293-2.293A1,1,0,0,1,11,13h5v2H13.414l2.293,2.293A1,1,0,0,1,15,19Z"/><path d="M12,11h2v3H12Z"/><path d="M12,18h2v3H12Z"/><path d="M13,25a9,9,0,1,1,9-9A9.01,9.01,0,0,1,13,25ZM13,9a7,7,0,1,0,7,7A7.008,7.008,0,0,0,13,9Z"/></g></g></svg>