<svg xmlns="http://www.w3.org/2000/svg" width="294.999" height="198.068" viewBox="0 0 294.999 198.068"><g transform="translate(9185.006 6535.193)"><g transform="translate(-9185.006 -6535.193)"><g transform="translate(228.775 109.857)"><g transform="translate(0 0.72)"><g transform="translate(27.741)"><g transform="translate(16.275 77.769)"><path d="M2494.846,1691.646h-20.285l-.251-1.2H2494.6Z" transform="translate(-2474.31 -1690.45)" fill="#64464d"/></g><g transform="translate(14.241 68.048)"><path d="M2479.025,1616.046H2458.74l-.251-1.2h20.286Z" transform="translate(-2458.49 -1614.85)" fill="#64464d"/></g><g transform="translate(12.206 58.327)"><path d="M2463.205,1540.456H2442.92l-.251-1.2h20.286Z" transform="translate(-2442.67 -1539.26)" fill="#64464d"/></g><g transform="translate(10.172 48.605)"><path d="M2447.385,1464.856H2427.1l-.251-1.2h20.286Z" transform="translate(-2426.85 -1463.66)" fill="#64464d"/></g><g transform="translate(8.138 38.885)"><path d="M2431.566,1389.266h-20.286l-.251-1.2h20.286Z" transform="translate(-2411.03 -1388.07)" fill="#64464d"/></g><g transform="translate(6.103 29.163)"><path d="M2415.747,1313.666h-20.286l-.251-1.2H2415.5Z" transform="translate(-2395.21 -1312.47)" fill="#64464d"/></g><g transform="translate(4.069 19.442)"><path d="M2399.925,1238.076h-20.284l-.251-1.2h20.286Z" transform="translate(-2379.389 -1236.88)" fill="#64464d"/></g><g transform="translate(2.034 9.722)"><path d="M2384.105,1162.486h-20.285l-.251-1.2h20.286Z" transform="translate(-2363.57 -1161.29)" fill="#64464d"/></g><g transform="translate(19.09)"><path d="M2496.2,1085.69l18.184,86.892a.776.776,0,0,0,.723.6.471.471,0,0,0,.473-.6L2497.4,1085.69Z" transform="translate(-2496.2 -1085.69)" fill="#64464d"/></g><path d="M2347.75,1085.69l18.184,86.892a.776.776,0,0,0,.723.6.471.471,0,0,0,.473-.6l-18.184-86.892Z" transform="translate(-2347.75 -1085.69)" fill="#64464d"/><path d="M2368.286,1086.886H2348l-.251-1.2h20.286Z" transform="translate(-2347.75 -1085.69)" fill="#64464d"/></g><g transform="translate(1.673 77.769)"><path d="M2145.03,1691.646h20.285l.251-1.2h-20.286Z" transform="translate(-2145.03 -1690.45)" fill="#7d4e52"/></g><g transform="translate(3.707 68.048)"><path d="M2160.85,1616.046h20.285l.251-1.2H2161.1Z" transform="translate(-2160.85 -1614.85)" fill="#7d4e52"/></g><g transform="translate(5.741 58.327)"><path d="M2176.67,1540.456h20.284l.251-1.2h-20.286Z" transform="translate(-2176.67 -1539.26)" fill="#7d4e52"/></g><g transform="translate(7.776 48.605)"><path d="M2192.49,1464.856h20.285l.25-1.2H2192.74Z" transform="translate(-2192.49 -1463.66)" fill="#7d4e52"/></g><g transform="translate(9.81 38.885)"><path d="M2208.31,1389.266h20.285l.25-1.2H2208.56Z" transform="translate(-2208.31 -1388.07)" fill="#7d4e52"/></g><g transform="translate(11.844 29.163)"><path d="M2224.13,1313.666h20.284l.251-1.2h-20.286Z" transform="translate(-2224.13 -1312.47)" fill="#7d4e52"/></g><g transform="translate(13.879 19.442)"><path d="M2239.95,1238.076h20.285l.251-1.2H2240.2Z" transform="translate(-2239.95 -1236.88)" fill="#7d4e52"/></g><g transform="translate(15.912 9.722)"><path d="M2255.76,1162.486h20.286l.251-1.2h-20.286Z" transform="translate(-2255.76 -1161.29)" fill="#7d4e52"/></g><g transform="translate(17.946)"><path d="M2271.58,1086.886h20.286l.25-1.2h-20.286Z" transform="translate(-2271.58 -1085.69)" fill="#7d4e52"/></g><path d="M2151.417,1085.69l-18.184,86.892a.776.776,0,0,1-.723.6.471.471,0,0,1-.473-.6l18.184-86.892Z" transform="translate(-2132.023 -1085.69)" fill="#7d4e52"/><g transform="translate(19.09)"><path d="M2299.866,1085.69l-18.184,86.892a.776.776,0,0,1-.723.6.471.471,0,0,1-.473-.6l18.184-86.892Z" transform="translate(-2280.473 -1085.69)" fill="#7d4e52"/></g></g><g transform="translate(17.009 0)"><rect width="32.207" height="1.915" transform="translate(32.207 1.915) rotate(180)" fill="#7d4e52"/></g></g><g transform="translate(148.111 148.742)"><g transform="translate(0 0.719)"><g transform="translate(19.716)"><g transform="translate(8.138 38.885)"><path d="M1741.886,1691.636H1721.6l-.251-1.2h20.286Z" transform="translate(-1721.35 -1690.44)" fill="#64464d"/></g><g transform="translate(6.103 29.164)"><path d="M1726.067,1616.046h-20.286l-.251-1.2h20.286Z" transform="translate(-1705.53 -1614.85)" fill="#64464d"/></g><g transform="translate(4.069 19.442)"><path d="M1710.246,1540.446h-20.286l-.251-1.2H1710Z" transform="translate(-1689.71 -1539.25)" fill="#64464d"/></g><g transform="translate(2.034 9.722)"><path d="M1694.427,1464.856h-20.286l-.251-1.2h20.286Z" transform="translate(-1673.89 -1463.66)" fill="#64464d"/></g><g transform="translate(19.09)"><path d="M1817.888,1436.667h-1.2l-1.783-8.526-.251-1.2-1.784-8.525-.25-1.2-1.784-8.526-.251-1.2-1.784-8.525-.251-1.2-1.783-8.526-.251-1.2h1.2l.251,1.2,1.784,8.526.25,1.2,1.784,8.525.251,1.2,1.783,8.526.251,1.2,1.784,8.525.251,1.2Z" transform="translate(-1806.52 -1388.06)" fill="#64464d"/></g><path d="M1669.438,1436.667h-1.2l-1.784-8.526-.251-1.2-1.783-8.525-.251-1.2-.732-3.5h0l-.6-2.856h0l-.454-2.168-.251-1.2-1.784-8.525-.251-1.2-1.783-8.526-.251-1.2h1.2l.251,1.2,1.784,8.526.25,1.2,1.784,8.525.107.507h0l.144.688.454,2.168h0l1.33,6.357.251,1.2,1.783,8.525.251,1.2Z" transform="translate(-1658.07 -1388.06)" fill="#64464d"/><path d="M1678.607,1389.256h-20.286l-.251-1.2h20.286Z" transform="translate(-1658.07 -1388.06)" fill="#64464d"/></g><g transform="translate(1.785 38.885)"><path d="M1518.63,1691.636h20.286l.25-1.2h-20.286Z" transform="translate(-1518.63 -1690.44)" fill="#7d4e52"/></g><g transform="translate(3.819 29.164)"><path d="M1534.45,1616.046h20.285l.251-1.2H1534.7Z" transform="translate(-1534.45 -1614.85)" fill="#7d4e52"/></g><g transform="translate(5.854 19.442)"><path d="M1550.27,1540.446h20.286l.249-1.2H1550.52Z" transform="translate(-1550.27 -1539.25)" fill="#7d4e52"/></g><g transform="translate(7.888 9.722)"><path d="M1566.09,1464.856h20.285l.251-1.2h-20.286Z" transform="translate(-1566.09 -1463.66)" fill="#7d4e52"/></g><g transform="translate(9.922)"><path d="M1581.91,1389.256h20.285l.251-1.2h-20.286Z" transform="translate(-1581.91 -1388.06)" fill="#7d4e52"/></g><path d="M1516.118,1388.06l-.251,1.2-1.784,8.526-.251,1.2-1.784,8.525-.249,1.2-1.785,8.526-.251,1.2-1.784,8.525-.249,1.2-1.785,8.526h-1.2l1.785-8.526.25-1.2,1.785-8.525.25-1.2,1.785-8.526.249-1.2,2.034-9.72,2.034-9.722Z" transform="translate(-1504.75 -1388.06)" fill="#7d4e52"/><g transform="translate(19.09)"><path d="M1664.568,1388.06l-.251,1.2-1.783,8.526-.251,1.2-1.783,8.525-.25,1.2-.454,2.168h0l-.6,2.856h0l-.733,3.5-.251,1.2-1.783,8.525-.249,1.2-1.785,8.526h-1.2l1.785-8.526.25-1.2,1.783-8.525.251-1.2,1.331-6.357h0l.454-2.168.144-.688h0l.105-.507,1.783-8.525.251-1.2,1.784-8.526.251-1.2Z" transform="translate(-1653.2 -1388.06)" fill="#7d4e52"/></g></g><g transform="translate(8.984 0)"><rect width="32.207" height="1.915" transform="translate(32.207 1.915) rotate(180)" fill="#7d4e52"/></g></g><g transform="translate(96.323 114.885)"><g transform="translate(8.689 74.13)"><g transform="translate(1.646)"><path d="M1185.727,1695.65h4.255l.223,2.065-.256,2.19-4.937,4.028-2.534.065-.073-1.27a10.064,10.064,0,0,0,3.58-2.271C1187.122,1699.213,1185.727,1695.65,1185.727,1695.65Z" transform="translate(-1182.406 -1695.65)" fill="#fec5a4"/></g><g transform="translate(0 2.054)"><path d="M1179.735,1718.366a.251.251,0,0,1-.25.253h-.666a.252.252,0,0,1-.25-.248l-.032-3.179a.19.19,0,0,0-.129-.179.188.188,0,0,0-.2.05.084.084,0,0,0-.011.011c-.019.023-.038.047-.058.071a12.346,12.346,0,0,1-1.932,1.777l-.048.035a8.222,8.222,0,0,1-2.851,1.485,4.456,4.456,0,0,1-2.613-.019c-.519-.207-1.083-.581-1.093-.917,0-.155.118-.293.366-.408.228-.107.931-.338,1.27-.448l.011,0a1.443,1.443,0,0,0,.609.8,1.2,1.2,0,0,0,.913.168,6.3,6.3,0,0,0,1.5-.684,13.263,13.263,0,0,0,2.03-1.46c.089-.079.169-.151.243-.22a8.417,8.417,0,0,0,2.4-3.5.172.172,0,0,1,.107-.111.212.212,0,0,1,.056-.011h0a.17.17,0,0,1,.162.111,6.81,6.81,0,0,1,.411,2.331Z" transform="translate(-1169.603 -1711.622)" fill="#27191c"/></g></g><g transform="translate(22.057 74.13)"><g transform="translate(1.646)"><path d="M1289.677,1695.65h4.255l.224,2.065-.256,2.19-4.937,4.028-2.534.065-.072-1.27a10.066,10.066,0,0,0,3.581-2.271C1291.072,1699.213,1289.677,1695.65,1289.677,1695.65Z" transform="translate(-1286.356 -1695.65)" fill="#fec5a4"/></g><g transform="translate(0 2.054)"><path d="M1283.684,1718.366a.25.25,0,0,1-.25.253h-.666a.252.252,0,0,1-.25-.248l-.032-3.179a.19.19,0,0,0-.329-.129l-.011.011c-.019.023-.038.047-.058.071a12.337,12.337,0,0,1-1.932,1.777l-.047.035a8.219,8.219,0,0,1-2.851,1.485,4.456,4.456,0,0,1-2.613-.019c-.519-.207-1.083-.581-1.093-.917,0-.155.118-.293.365-.408.228-.107.932-.338,1.27-.448l.011,0a1.443,1.443,0,0,0,.609.8,1.2,1.2,0,0,0,.913.168,6.3,6.3,0,0,0,1.5-.684,13.263,13.263,0,0,0,2.03-1.46c.089-.079.169-.151.243-.22a8.417,8.417,0,0,0,2.4-3.5.172.172,0,0,1,.107-.111.211.211,0,0,1,.056-.011h.005a.17.17,0,0,1,.162.111,6.8,6.8,0,0,1,.411,2.331Z" transform="translate(-1273.553 -1711.622)" fill="#27191c"/></g></g><g transform="translate(11.687 36.79)"><path d="M1194.6,1443.077h4.932a.315.315,0,0,0,.315-.308l.278-12.38a1.61,1.61,0,0,1,.15-.644l4.351-9.323a.178.178,0,0,1,.338.06l.82,9.618,1.845,12.707a.315.315,0,0,0,.312.27h4.925a.315.315,0,0,0,.314-.324l-.429-13.968,1.571-19.235a3.95,3.95,0,0,0-4.713-4.194l-10.647,2.136-5.716,19.669a8.554,8.554,0,0,0-.29,3.3l1.331,12.331A.315.315,0,0,0,1194.6,1443.077Z" transform="translate(-1192.911 -1405.277)" fill="#2f4154"/></g><path d="M1105.307,1125.137l-.013,0c-.058-.023-.14-.2-.179-.249q-.1-.137-.2-.272-.2-.26-.4-.513-.41-.506-.857-.981c-.237-.253-.48-.5-.741-.729a3.516,3.516,0,0,1-.746-.723,1.142,1.142,0,0,1,.045-1.153,2.728,2.728,0,0,1,.944-.873,2.2,2.2,0,0,1,.554-.319,1.381,1.381,0,0,1,1.262.04,1.076,1.076,0,0,1,.364.77.515.515,0,0,0,.289.449.458.458,0,0,0,.383-.093c.112-.077.207-.178.325-.245a.386.386,0,0,1,.387-.024.358.358,0,0,1,.134.363,1.18,1.18,0,0,1-.161.374,1.861,1.861,0,0,0-.093,1.571,4.708,4.708,0,0,0,.783,1.081s-.962.726-1.05.792c-.179.132-.359.265-.537.4C1105.7,1124.869,1105.422,1125.153,1105.307,1125.137Z" transform="translate(-1102.031 -1119.19)" fill="#178d89"/><g transform="translate(2.594 3.537)"><path d="M1122.247,1149.132l3.512,5.869c1.273,2.128,2.364,4.3,4.248,5.972,1.33,1.178,2.677,2.337,4.015,3.5l3.152,2.751,5.826-5.588-10.37-5.918a3.051,3.051,0,0,1-.831-.7l-6.863-8.216a.322.322,0,0,0-.462-.033l-2.167,1.949A.321.321,0,0,0,1122.247,1149.132Z" transform="translate(-1122.201 -1146.695)" fill="#178d89"/></g><g transform="translate(16.588 18.475)"><path d="M1237.827,1262.865s-7.9,2.454-6.186,8.585c1.851,6.627,1.949,7.455-.533,12.12-.344.647.408,1.388,1.141,1.375l14.434-.245a.948.948,0,0,0,.88-1.256,33.934,33.934,0,0,1-1.426-7.367c-.219-3.654,4.458-12.425-5.143-13.22Z" transform="translate(-1231.022 -1262.858)" fill="#178d89"/></g><g transform="translate(30.398 37.596)"><path d="M1340.642,1411.55a9.5,9.5,0,0,1-1.856,1.763c-.177.153-.468.392-.338.659.1.2.356.213.547.208s.62-.167.554.182c-.107.571-.24,1.131-.313,1.71a3.2,3.2,0,0,0,.426,2.029,1.616,1.616,0,0,0,.572.6.825.825,0,0,0,.8.024c.463-.274.41-.944.357-1.479a7.135,7.135,0,0,1,1.164-4.627A5.676,5.676,0,0,0,1340.642,1411.55Z" transform="translate(-1338.415 -1411.55)" fill="#fec5a4"/></g><g transform="translate(26.514 19.994)"><path d="M1308.21,1278.671l9.688,6.584a.427.427,0,0,1,.115.59l-4.107,6.174a.314.314,0,0,0,.077.429l2.1,1.522a.315.315,0,0,0,.426-.053l5.51-6.571a4.025,4.025,0,0,0-.583-5.739l-8.746-6.939Z" transform="translate(-1308.21 -1274.667)" fill="#178d89"/></g><g transform="translate(19.537 8.088)"><g transform="translate(3.855 5.805)"><path d="M1287.282,1227.22l-.181,4.583-2.613,1.946a.2.2,0,0,1-.314-.031l-.239-1.909.01-.211.011-.242.094-1.965.009-.2Z" transform="translate(-1283.936 -1227.22)" fill="#fec5a4"/></g><g transform="translate(3.866 6.979)"><path d="M1286.365,1236.35a4.773,4.773,0,0,1-2.346,3.2l.011-.242.094-1.965Z" transform="translate(-1284.019 -1236.35)" fill="#dd9169"/></g><g transform="translate(1.193 3.205)"><path d="M1264.076,1207.488a21.165,21.165,0,0,1-.814,3.3.221.221,0,0,0-.018.156c.03.075.125.091.2.11a1.31,1.31,0,0,1,.769.76,2.6,2.6,0,0,0,.6.929,1.8,1.8,0,0,0,1.015.489,1.435,1.435,0,0,0,1.1-.593c.693-.823,1.543-2.039,2.443-3.381l-.4-2.253Z" transform="translate(-1263.236 -1207.003)" fill="#fec5a4"/></g><path d="M1261.938,1184.515a3.1,3.1,0,0,0-1.463-1.661,5.148,5.148,0,0,0-2.572-.772,2.518,2.518,0,0,0-1.667.5,5.335,5.335,0,0,0-1.661,3.79c-.051.6-.058.665-.058.665a1.288,1.288,0,0,0-.229,1.916.966.966,0,0,1,.087,1.431,1.157,1.157,0,0,0,.559-1,.894.894,0,0,0-.116-.432.847.847,0,0,0-.07-.1c-.282-.361-.552-.74-.169-1.143a6.029,6.029,0,0,0,.533-.668,2.24,2.24,0,0,1,.482-.522,2.826,2.826,0,0,1,.792-.314,5,5,0,0,1,1.5-.224c.257,0,.514,0,.771,0,.153,0,.463-.035.523.16.038.125-.055.264-.106.371-.229.475-.424.97-.632,1.454-.053.123-.23.587.038.59a.284.284,0,0,0,.112-.028,1.854,1.854,0,0,0,.683-.6l.475-.567a1.016,1.016,0,0,1,.469-.407c.307-.083.368.245.408.469a6.821,6.821,0,0,0,.2.87c.051.158.2.448.4.457.226.01.332-.309.405-.477a7.268,7.268,0,0,0,.464-2.477A3.524,3.524,0,0,0,1261.938,1184.515Z" transform="translate(-1253.958 -1182.082)" fill="#27191c"/><g transform="translate(8.118 1.155)"><path d="M1319.259,1199.053a1.58,1.58,0,0,1-.129-1.076,6.446,6.446,0,0,1,.347-1.049,11.576,11.576,0,0,0,.689-2.946,4.217,4.217,0,0,0-.081-1.585,1.873,1.873,0,0,0-.965-1.209,1.442,1.442,0,0,0-1.978,1.717,9.221,9.221,0,0,0,.452.952,3.162,3.162,0,0,1,.1,1.811c-.115.6-.32,1.185-.443,1.786a3.317,3.317,0,0,0,.053,1.816,1.664,1.664,0,0,0,1.337,1.119c.355.029,1.225-.182,1.38-.567C1320.142,1199.529,1319.422,1199.339,1319.259,1199.053Z" transform="translate(-1317.088 -1191.066)" fill="#27191c"/></g><g transform="translate(7.744 2.029)"><path d="M1314.842,1199.53h0a.349.349,0,0,0,.257-.421l-.236-.979a.349.349,0,0,0-.421-.257h0a.349.349,0,0,0-.257.421l.236.979A.347.347,0,0,0,1314.842,1199.53Z" transform="translate(-1314.176 -1197.864)" fill="#27191c"/></g></g></g><g transform="translate(236.98 34.087)"><g transform="translate(0 2.136)"><path d="M2200.335,513.324a13.988,13.988,0,0,1-2.223-1.753,2.242,2.242,0,0,1-.443-.6,1.006,1.006,0,0,1-.089-.611c.044-.223.226-.368.315-.572a.6.6,0,0,0-.033-.528,1.134,1.134,0,0,0-.45-.379q-.381-.243-.781-.454c-.158-.083-.316-.165-.474-.25a.606.606,0,0,1-.319-.323.285.285,0,0,1,.052-.284c.111-.119.29-.086.44-.043a7.228,7.228,0,0,1,1.457.606,7.151,7.151,0,0,1,.676.424c.21.149.384.321.58.485a1.39,1.39,0,0,0,.594.328.132.132,0,0,0,.157-.138,1.144,1.144,0,0,0-.226-.478c-.132-.2-.219-.509-.007-.646a.316.316,0,0,1,.314-.006.781.781,0,0,1,.333.449c.21.527.352,1.079.58,1.6a2.81,2.81,0,0,0,1.039,1.313A11.075,11.075,0,0,1,2200.335,513.324Z" transform="translate(-2195.823 -507.491)" fill="#fec5a4"/><g transform="translate(4.121 3.608)"><path d="M2250.012,541.109l-11.247.567a.317.317,0,0,1-.2-.055l-8.721-6.015a.316.316,0,0,0-.43.068l-1.485,1.935a.316.316,0,0,0,.034.422l8.092,7.631a5.034,5.034,0,0,0,2.835,1.333c2.573.318,7.433.9,9.07.923,2.7.044,5.659-3.008,6.384-5.025Z" transform="translate(-2227.868 -535.549)" fill="#7b3d0e"/></g></g><g transform="translate(14.996 11.304)"><g transform="translate(1.308 59.551)"><g transform="translate(4.583)"><rect width="3.156" height="2.349" fill="#fff"/></g><g transform="translate(0 0.93)"><path d="M2322.916,1052.059l3.853-1.929a.544.544,0,0,1,.312-.054,5.42,5.42,0,0,0,3.295-.9.551.551,0,0,1,.8.312l.892,2.892a.55.55,0,0,1-.525.712l-8.383.008A.55.55,0,0,1,2322.916,1052.059Z" transform="translate(-2322.611 -1049.102)" fill="#27191c"/></g></g><g transform="translate(9.879 59.551)"><g transform="translate(4.582)"><rect width="3.156" height="2.349" fill="#fff"/></g><g transform="translate(0 0.93)"><path d="M2389.56,1052.059l3.854-1.929a.543.543,0,0,1,.312-.054,5.418,5.418,0,0,0,3.294-.9.551.551,0,0,1,.8.312l.892,2.892a.55.55,0,0,1-.525.712l-8.383.008A.55.55,0,0,1,2389.56,1052.059Z" transform="translate(-2389.255 -1049.102)" fill="#27191c"/></g></g><g transform="translate(8.17)"><path d="M2379.069,578.779l-2.806,4.851-.293,15.713,6.314-.587.954-18.111-.989-1.606Z" transform="translate(-2375.97 -578.779)" fill="#fff"/></g><g transform="translate(0 17.7)"><path d="M2318.2,758.8h3.34a.214.214,0,0,0,.212-.245L2319.41,742.5a3.413,3.413,0,0,1,.188-1.709l3.192-8.438.709,9.066a6.292,6.292,0,0,0,.1.861l2.894,16.344a.214.214,0,0,0,.211.177h3.407a.214.214,0,0,0,.214-.211l.2-18.176,1.235-23.994c-5.536,1.145-10.607,2.524-14.79,2.594l-4.386,20.972a6.748,6.748,0,0,0,.224,3.574l5.194,15.1A.213.213,0,0,0,2318.2,758.8Z" transform="translate(-2312.437 -716.418)" fill="#2f4154"/></g></g><g transform="translate(17.454 11.304)"><path d="M2340.365,578.779s-4.7.622-6.005,4.821a53.551,53.551,0,0,0-1.353,10.03c-.128,2.356-1,5.589-1.447,9.432a1.037,1.037,0,0,0,1.652.875l3.884-2.031a2.566,2.566,0,0,0,1.089-2.086C2338.206,594.082,2339.187,586.739,2340.365,578.779Z" transform="translate(-2331.554 -578.779)" fill="#7b3d0e"/></g><g transform="translate(28.168 11.563)"><path d="M2422.373,590.066a50.155,50.155,0,0,0-.782,15.21.656.656,0,0,1-1.02.618l-1.457-.987-1.812-1.142-1.069-.675a2.712,2.712,0,0,1-1.257-2.078c-.561-6.978,1.165-20.218,1.165-20.218Z" transform="translate(-2414.864 -580.793)" fill="#7b3d0e"/></g><g transform="translate(38.037 35.208)"><path d="M2491.628,767.892a.313.313,0,0,0,.222.165.466.466,0,0,1,.055-.015l.707-.163a.093.093,0,0,1,.034-.008.057.057,0,0,1,.053.02c.156.2.019.4-.08.591a.851.851,0,0,0-.068.163.357.357,0,0,0,.2.416,1.678,1.678,0,0,0,1.046.068,4.419,4.419,0,0,0,1-.292c.362-.153.9-.434.8-.913l-.025-.119c-.04-.193-.082-.385-.118-.579-.013-.07-.026-.141-.036-.211-.061-.382-.106-.768-.138-1.153q-.024-.29-.038-.58c0-.1-.008-.2-.011-.3,0-.058.025-.227-.006-.274a.046.046,0,0,0-.008-.009c-.077-.068-.427,0-.532,0-.2.009-.4.017-.6.024-.1,0-1.166.057-1.172.055a4.189,4.189,0,0,1,.033,1.19,2.351,2.351,0,0,1-.941,1.4,1.047,1.047,0,0,0-.307.195A.321.321,0,0,0,2491.628,767.892Z" transform="translate(-2491.609 -764.666)" fill="#fec5a4"/></g><g transform="translate(29.446 11.563)"><path d="M2426.38,584.551l3.883,5.668,3.73,3.813.434,10.465a.217.217,0,0,0,.175.206l2.689.421a.217.217,0,0,0,.258-.194s1-11.719,1-11.72c.206-2.409-1.2-4.406-2.784-6.058a24.071,24.071,0,0,0-6.365-4.873,14.724,14.724,0,0,0-2.093-.96c-.37-.124-.986-.257-1.366-.347-.121-.029-1.044-.16-1.143-.177Z" transform="translate(-2424.801 -580.794)" fill="#7b3d0e"/></g><g transform="translate(23.2)"><g transform="translate(3.804 12.852)"><path d="M2406.236,590.817s1.792,3.341,5.238,2.544,4.615.367,6.8,2.077c1.853,1.452,4.023,1.457,6.441.791l1.968.691-1.6,1.082c-3.029.77-5.669.833-7.691-1.065s-3.083-3.161-6.586-2.674-4.99-3-4.99-3Z" transform="translate(-2405.813 -590.817)" fill="#ff7f2b"/></g><g transform="translate(0.422 3.893)"><g transform="translate(2.642 2.745)"><path d="M2403.8,542.495l-.552,4.925-2.3,1.831a.206.206,0,0,1-.329-.047l-.556-2.043.021-.221.024-.254.191-2.061.019-.206Z" transform="translate(-2400.063 -542.495)" fill="#fec5a4"/></g><g transform="translate(2.664 3.933)"><path d="M2402.845,551.73a5.021,5.021,0,0,1-2.616,3.257l.024-.254.191-2.061Z" transform="translate(-2400.229 -551.73)" fill="#dd9169"/></g><path d="M2380.559,521.429a22.317,22.317,0,0,1-1.01,3.427.233.233,0,0,0-.026.163c.028.08.127.1.208.125a1.379,1.379,0,0,1,.772.835,2.728,2.728,0,0,0,.589,1,1.894,1.894,0,0,0,1.043.561,1.509,1.509,0,0,0,1.181-.572c.768-.833,1.718-2.071,2.727-3.438l-.319-2.387Z" transform="translate(-2379.515 -521.149)" fill="#fec5a4"/></g><path d="M2385.325,494.468a3.728,3.728,0,0,0-.9-.84,1.629,1.629,0,0,1-.587-.729c-.131-.388-.011-.811-.128-1.2a1.235,1.235,0,0,0-1.343-.777,19.2,19.2,0,0,1-2.12.225c-.125-.006-.25-.019-.374-.034a4.264,4.264,0,0,0-.624-.1,5.93,5.93,0,0,0-1.13-.128c-.626.009-1.375.226-1.426.946a2.034,2.034,0,0,0,.028.464,2.8,2.8,0,0,1,.08,1.412c-.137.384-.418.782-.526,1.193a1.028,1.028,0,0,0,.063.753.711.711,0,0,0,.15.2,1.648,1.648,0,0,0,.11.22,1.008,1.008,0,0,0,.5.5.374.374,0,0,0,.449-.211,8.665,8.665,0,0,0,.283-1.1c.078-.209.328-.123.5-.1.506.064.754.1,1.261.155.276.031.551.065.828.1.162.02.6-.015.613.221a.713.713,0,0,1-.134.346c-.262.488-.491,1-.732,1.5-.062.126-.27.605.013.621a.278.278,0,0,0,.117-.025,2.333,2.333,0,0,0,.909-.774,5.89,5.89,0,0,1,.388-.448,1.221,1.221,0,0,1,.489-.355c.288-.064.359.2.394.425,0,.03.008.059.012.086.034.237.085.47.141.7s.073.492.263.642c.243.193.59-.023.826-.112s.656-.146.785-.386a3.408,3.408,0,0,0,.2-.974c.138-.665.854-1.028.835-1.754A1.255,1.255,0,0,0,2385.325,494.468Z" transform="translate(-2376.232 -490.878)" fill="#27191c"/></g></g><g transform="translate(36.966 0)"><g transform="translate(116.781 77.546)"><g transform="translate(0 0)"><path d="M1548.584,829.839l3.046,10.66a2.241,2.241,0,0,0,2.1,1.637c.066,0,.133,0,.2,0l9.7.167.251-3.884.931-3.221-10.029,1.239-2.831-7.418a.294.294,0,0,0-.35-.176l-2.811.651A.3.3,0,0,0,1548.584,829.839Z" transform="translate(-1548.577 -828.829)" fill="#7b3d0e"/></g></g><g transform="translate(0 15.123)"><path d="M644.3,495.654l-3.844-3.418L669.4,459.689l8.057,6.219L725.646,411.1l14.2,13.55,35.686-41.217L801.8,408.414l55.853-65.007,3.9,3.352-59.38,69.111-26.278-25L740.2,432.095l-14.232-13.578L678.13,472.928l-8.078-6.236Z" transform="translate(-640.452 -343.407)" fill="#22cac5"/></g><g transform="translate(204.542)"><path d="M2254.385,256.05l5.7-30.243-29.041,10.185Z" transform="translate(-2231.04 -225.807)" fill="#22cac5"/></g><g transform="translate(108.602 74.114)"><g transform="translate(0 0)"><g transform="translate(19.368 9.974)"><path d="M1635.59,881.882l3.778,1.579,1.444-1.246-.688-2.512A10.448,10.448,0,0,0,1635.59,881.882Z" transform="translate(-1635.59 -879.703)" fill="#7b3d0e"/></g><g transform="translate(19.682 9.974)"><path d="M1645.413,879.951l1.368,19.483-5.2.82-3.556-.638,4.219-19.914Z" transform="translate(-1638.03 -879.702)" fill="#fff"/></g><g transform="translate(13.987 28.362)"><g transform="translate(1.136 41.234)"><g transform="translate(4.682)"><rect width="3.225" height="2.4" fill="#fff"/></g><g transform="translate(0 0.949)"><path d="M1602.889,1353.753l3.937-1.971a.556.556,0,0,1,.318-.055,5.539,5.539,0,0,0,3.366-.919.563.563,0,0,1,.822.319l.911,2.955a.562.562,0,0,1-.536.727l-8.565.008A.562.562,0,0,1,1602.889,1353.753Z" transform="translate(-1602.578 -1350.732)" fill="#27191c"/></g></g><g transform="translate(21.443 38.209)"><g transform="translate(0.934 0)"><rect width="3.225" height="2.4" transform="matrix(0.745, -0.667, 0.667, 0.745, 0, 2.15)" fill="#fff"/></g><g transform="translate(0.763 0.362)"><path d="M1766.42,1329.2l1.426,1.067,5.415-5.056a.562.562,0,0,0-.085-.9l-2.648-1.6a.563.563,0,0,0-.825.311,5.531,5.531,0,0,1-1.9,2.928.558.558,0,0,0-.2.253Z" transform="translate(-1766.42 -1322.639)" fill="#27191c"/></g><g transform="translate(0 6.433)"><path d="M1761.076,1371.481l1.6-.067-.86-1.559-1.037.574A.561.561,0,0,0,1761.076,1371.481Z" transform="translate(-1760.49 -1369.855)" fill="#27191c"/></g></g><path d="M1603.166,1064.2h-4.229a.3.3,0,0,1-.284-.209l-4.429-14.187a10.56,10.56,0,0,1-.289-5.145l3.616-18.757a1.79,1.79,0,0,1,1.421-1.419,56.859,56.859,0,0,1,8.794-1.687,5,5,0,0,1,5.876,5.743l-2.433,17.53,8.078,14.349a.3.3,0,0,1-.052.37l-3.082,2.9a.3.3,0,0,1-.438-.033l-10.979-14.011a5.444,5.444,0,0,1-1.16-3.324l.181-6.483-2.731,7.292a.725.725,0,0,0-.038.362l2.471,16.374A.3.3,0,0,1,1603.166,1064.2Z" transform="translate(-1593.745 -1022.7)" fill="#2f4154"/></g><g transform="translate(25.905 10.222)"><path d="M1687.585,881.637c-.474,1.154-1.734,15.295-.856,21.744a1.143,1.143,0,0,0,.881.96l6.709,1.517a.538.538,0,0,0,.647-.631c-1.437-7.029.642-16.869-.589-19.375C1692.412,881.851,1687.585,881.637,1687.585,881.637Z" transform="translate(-1686.426 -881.637)" fill="#7b3d0e"/></g><g transform="translate(17.521 9.974)"><path d="M1621.6,901.509a4.177,4.177,0,0,0,1.249.373,2.333,2.333,0,0,0,1.284-.032c.482-.2.583-.769.6-1.229.021-.714.1-1.417.192-2.124.387-3,.919-5.973,1.518-8.934.079-.392.12-.793.178-1.19.446-3.029.816-6.153.992-8.668,0,0-.989.577-1.249.737a8.451,8.451,0,0,0-1.152.851,7.718,7.718,0,0,0-1.738,2.165,7.618,7.618,0,0,0-.767,3.265c-.034.733-.016,1.476-.005,2.2,0,.358.008.712,0,1.058-.036,2.087-.141,4.172-.194,6.258a9.943,9.943,0,0,1-.36,2.4,9.741,9.741,0,0,1-.4,1.166c-.065.155-.133.313-.206.464s-.185.289-.248.451A.562.562,0,0,0,1621.6,901.509Z" transform="translate(-1621.229 -879.705)" fill="#7b3d0e"/></g><g transform="translate(24.838 19.259)"><path d="M1678.13,954.651s2.514.213,6.438-2.744Z" transform="translate(-1678.13 -951.907)" fill="#7b3d0e"/></g><g transform="translate(0 14.194)"><path d="M1492.407,915.476l-.72,2.467-1.509-.845a8.51,8.51,0,0,1-3.575-1.177,6.661,6.661,0,0,1-.773-.544,1.987,1.987,0,0,1-.851-1.319,1.366,1.366,0,0,1,1-1.3,2.127,2.127,0,0,1,1.692.3,2.281,2.281,0,0,0,.689.365.62.62,0,0,0,.49-.1.387.387,0,0,0,.1-.12l.589-.68a.985.985,0,0,1,.069.085,10.752,10.752,0,0,1,1.309,2.418Z" transform="translate(-1484.978 -912.52)" fill="#fec5a4"/></g><g transform="translate(5.465 12.842)"><path d="M1527.494,908.321l.867-2.506a.294.294,0,0,1,.369-.184l10.308,3.325a.576.576,0,0,0,.475-.075l10.492-6.87,5.492,5.609-14.812,6.338a2.175,2.175,0,0,1-1.778-.03l-11.256-5.242A.294.294,0,0,1,1527.494,908.321Z" transform="translate(-1527.477 -902.012)" fill="#7b3d0e"/></g><g transform="translate(20.031)"><g transform="translate(4.979 11.461)"><path d="M1679.888,891.271s1.791,3.317,5.215,2.515,4.591.352,6.765,2.046c1.847,1.438,4.005,1.437,6.407.769l1.958.682-1.588,1.081c-3.009.774-5.634.844-7.65-1.037s-3.074-3.134-6.557-2.64-4.971-2.969-4.971-2.969Z" transform="translate(-1679.469 -891.271)" fill="#ff7f2b"/></g><g transform="translate(3.87 5.323)"><path d="M1674.537,843.541l-.536,4.9-1.756,1.805a.2.2,0,0,1-.327-.046l-1.081-2.009.02-.22.022-.252.185-2.05.018-.2Z" transform="translate(-1670.839 -843.541)" fill="#fec5a4"/></g><g transform="translate(3.889 6.507)"><path d="M1673.586,852.748a4.992,4.992,0,0,1-2.592,3.246l.022-.252.184-2.05Z" transform="translate(-1670.994 -852.748)" fill="#dd9169"/></g><g transform="translate(1.231 2.594)"><path d="M1651.346,822.613a22.149,22.149,0,0,1-1,3.41.232.232,0,0,0-.025.163c.028.079.127.1.208.124a1.371,1.371,0,0,1,.771.828,2.718,2.718,0,0,0,.589,1,1.886,1.886,0,0,0,1.039.555,1.5,1.5,0,0,0,1.174-.572c.761-.83,1.7-2.064,2.7-3.426l-.324-2.372Z" transform="translate(-1650.318 -822.32)" fill="#fec5a4"/></g><path d="M1648.95,804.522a2.379,2.379,0,0,0-.611-.763,4.286,4.286,0,0,0-.955-.52l-.072-.028a2.843,2.843,0,0,0-3.091-.975c-1.466.2-2.137.712-2.82.41-.273-.121-.505-.379-.574-.219a2.1,2.1,0,0,0,.452,1.958,2.466,2.466,0,0,0,.424.369,1.9,1.9,0,0,0,.529.225,19.224,19.224,0,0,0,3.688.411c.141.018.355,0,.4.168.034.132-.069.273-.127.383-.26.487-.486,1-.725,1.492-.061.127-.266.6.015.618a.287.287,0,0,0,.117-.024,2.316,2.316,0,0,0,.9-.772c.124-.152.247-.306.385-.446a1.207,1.207,0,0,1,.486-.354c.324-.073.374.272.406.507a6,6,0,0,0,.213,1.016.632.632,0,0,0,.192.32c.276.215.508-.124.595-.356s.165-.463.232-.7A3.57,3.57,0,0,0,1648.95,804.522Z" transform="translate(-1640.748 -802.145)" fill="#27191c"/></g></g></g><g transform="translate(115.88 73.604)"><path d="M1545.209,798.577a.98.98,0,0,1,.1.529c0,.028-.005.055-.01.082s-.009.059-.014.089a2.761,2.761,0,0,1-1.165,1.692c-.434.309-1.4.892-1.994.705a.612.612,0,0,1-.153-.071l-.021-.014a.692.692,0,0,1-.082-.065l-.035-.034a1.871,1.871,0,0,1,.043-1.98,3.254,3.254,0,0,1,2.137-1.288,1.845,1.845,0,0,1,.6-.037l.039.005A.73.73,0,0,1,1545.209,798.577Z" transform="translate(-1541.571 -798.173)" fill="#fec5a4"/></g></g><g transform="translate(0 119.803)"><g transform="translate(4.269 38.122)"><path d="M390.139,1457.07a.309.309,0,0,1-.22.163.5.5,0,0,0-.054-.015l-.7-.161a.088.088,0,0,0-.034-.008.055.055,0,0,0-.052.02c-.154.194-.019.395.079.584a.851.851,0,0,1,.067.161.353.353,0,0,1-.2.412,1.659,1.659,0,0,1-1.034.067A4.375,4.375,0,0,1,387,1458c-.358-.151-.892-.429-.795-.9l.025-.118c.04-.19.081-.381.116-.573.013-.069.025-.139.036-.209q.089-.568.136-1.141.024-.287.038-.574c0-.1.008-.2.011-.3,0-.057-.025-.225.006-.271l.008-.009c.076-.067.422,0,.526,0,.2.009.393.017.589.023.1,0,1.153.057,1.16.054a4.143,4.143,0,0,0-.032,1.178,2.326,2.326,0,0,0,.931,1.38,1.043,1.043,0,0,1,.3.193A.318.318,0,0,1,390.139,1457.07Z" transform="translate(-386.191 -1453.878)" fill="#fec5a4"/></g><g transform="translate(3.112 14.707)"><path d="M389.252,1275.532l-3.842,5.607-3.691,3.772-.429,10.354a.215.215,0,0,1-.173.2l-2.661.416a.215.215,0,0,1-.255-.192l-.992-11.6c-.2-2.384,1.188-4.359,2.754-5.993a23.8,23.8,0,0,1,6.3-4.821,17.663,17.663,0,0,1,2.31-.974c.366-.122.737-.23,1.112-.32a7.263,7.263,0,0,0,1.075-.2Z" transform="translate(-377.19 -1271.793)" fill="#7b3d0e"/></g><g transform="translate(38.32)"><path d="M652.823,1163.984a13.868,13.868,0,0,0,1.768-2.172,2.222,2.222,0,0,0,.3-.671,1,1,0,0,0-.046-.609c-.091-.206-.3-.306-.428-.484a.592.592,0,0,1-.082-.517,1.119,1.119,0,0,1,.352-.464q.316-.317.656-.607c.134-.115.27-.228.4-.343a.6.6,0,0,0,.238-.381.283.283,0,0,0-.112-.263.42.42,0,0,0-.434.054,7.086,7.086,0,0,0-1.837,1.456c-.171.189-.3.393-.455.593a1.375,1.375,0,0,1-.5.444.13.13,0,0,1-.182-.1,1.133,1.133,0,0,1,.115-.511c.084-.223.1-.539-.133-.625a.313.313,0,0,0-.3.062.772.772,0,0,0-.224.506c-.089.554-.107,1.118-.214,1.669a2.779,2.779,0,0,1-.72,1.492A11.008,11.008,0,0,0,652.823,1163.984Z" transform="translate(-650.98 -1157.43)" fill="#fec5a4"/></g><g transform="translate(16.082 4.703)"><path d="M481.851,1203.77l10.981-1.882a.313.313,0,0,0,.177-.1l7.121-7.691a.313.313,0,0,1,.43-.027l1.852,1.548a.313.313,0,0,1,.059.415l-6.163,9.115a4.979,4.979,0,0,1-2.449,1.9c-2.415.864-6.983,2.471-8.557,2.851-2.593.625-6.113-1.681-7.249-3.472Z" transform="translate(-478.051 -1194.001)" fill="#7b3d0e"/></g><g transform="translate(11.874 14.472)"><g transform="translate(8.479 58.916)"><g transform="translate(1.727)"><rect width="3.123" height="2.324" fill="#fff"/></g><g transform="translate(0 0.92)"><path d="M520.348,1738.2l-3.812-1.908a.538.538,0,0,0-.308-.054,5.361,5.361,0,0,1-3.259-.89.545.545,0,0,0-.8.309l-.882,2.861a.544.544,0,0,0,.519.7l8.294.008A.544.544,0,0,0,520.348,1738.2Z" transform="translate(-511.267 -1735.276)" fill="#27191c"/></g></g><g transform="translate(0 58.916)"><g transform="translate(1.727)"><rect width="3.123" height="2.324" fill="#fff"/></g><g transform="translate(0 0.92)"><path d="M454.414,1738.2l-3.812-1.908a.539.539,0,0,0-.308-.054,5.362,5.362,0,0,1-3.259-.89.545.545,0,0,0-.8.309l-.882,2.861a.544.544,0,0,0,.519.7l8.294.008A.544.544,0,0,0,454.414,1738.2Z" transform="translate(-445.332 -1735.276)" fill="#27191c"/></g></g><g transform="translate(3.882)"><path d="M479.649,1269.97l2.776,4.8.29,15.544-6.247-.581-.944-17.919.923-1.61Z" transform="translate(-475.524 -1269.97)" fill="#fff"/></g><g transform="translate(0.043 17.512)"><path d="M459.078,1448.075h-3.305a.211.211,0,0,1-.209-.242l2.316-15.885a3.379,3.379,0,0,0-.186-1.69l-3.158-8.349-.7,8.969a6.172,6.172,0,0,1-.1.852l-2.863,16.17a.211.211,0,0,1-.208.174h-3.371a.212.212,0,0,1-.211-.209l-.194-17.982-1.222-23.738c5.477,1.133,10.494,2.5,14.632,2.567l4.34,20.749a6.67,6.67,0,0,1-.222,3.535l-5.139,14.936A.21.21,0,0,1,459.078,1448.075Z" transform="translate(-445.666 -1406.146)" fill="#2f4154"/></g></g><g transform="translate(19.882 14.472)"><path d="M507.6,1269.97s4.649.616,5.941,4.769a53,53,0,0,1,1.338,9.922c.127,2.33.99,5.529,1.431,9.331a1.026,1.026,0,0,1-1.634.866l-3.842-2.009a2.54,2.54,0,0,1-1.078-2.064C509.737,1285.109,508.766,1277.845,507.6,1269.97Z" transform="translate(-507.602 -1269.97)" fill="#7b3d0e"/></g><g transform="translate(10.57 14.707)"><path d="M435.189,1280.992a49.619,49.619,0,0,1,.774,15.048.649.649,0,0,0,1.009.611l1.442-.977,1.793-1.13,1.058-.667a2.684,2.684,0,0,0,1.244-2.056c.555-6.9-1.209-20.025-1.209-20.025Z" transform="translate(-435.189 -1271.796)" fill="#7b3d0e"/></g><g transform="translate(0 3.294)"><g transform="translate(0 12.878)"><path d="M371.62,1283.19s-1.307,3.367-4.658,3.013-4.322.882-6.188,2.752c-1.584,1.588-3.636,1.844-6,1.495l-1.781.882,1.638.838c2.953.377,5.457.13,7.149-1.9s2.549-3.347,5.918-3.292,4.372-3.416,4.372-3.416Z" transform="translate(-352.994 -1283.19)" fill="#ff7f2b"/></g><g transform="translate(16.165 6.452)"><path d="M478.7,1233.22l.515,4.96,2.149,1.928a.207.207,0,0,0,.331-.044l.722-2.118-.019-.223-.021-.255-.175-2.075-.018-.208Z" transform="translate(-478.699 -1233.22)" fill="#fec5a4"/></g><g transform="translate(17.258 7.657)"><path d="M487.2,1242.59a5.052,5.052,0,0,0,2.6,3.3l-.021-.255-.175-2.076Z" transform="translate(-487.197 -1242.59)" fill="#dd9169"/></g><g transform="translate(16.015 3.692)"><path d="M483.067,1212.085a22.423,22.423,0,0,0,.988,3.457.233.233,0,0,1,.025.165c-.029.08-.129.1-.211.124a1.387,1.387,0,0,0-.784.834,2.751,2.751,0,0,1-.6,1.006,1.912,1.912,0,0,1-1.055.556,1.519,1.519,0,0,1-1.185-.586c-.765-.844-1.711-2.1-2.714-3.482l.341-2.4Z" transform="translate(-477.53 -1211.76)" fill="#fec5a4"/></g><g transform="translate(15.231)"><path d="M471.744,1186.513a2.409,2.409,0,0,1,.623-.769,4.333,4.333,0,0,1,.969-.521l.073-.028c.006-.1.026-.258.032-.278a1.042,1.042,0,0,1,.117-.274.9.9,0,0,1,.048-.076,1.217,1.217,0,0,1,1.171-.512,8.1,8.1,0,0,1,.978.155,1.7,1.7,0,0,0,.515.02,1.422,1.422,0,0,0,.64-.245,9.4,9.4,0,0,1,1.062-.836,1.351,1.351,0,0,1,1.7.7,1.371,1.371,0,0,1,.13.45,2.647,2.647,0,0,1-1.121,2.549,2.763,2.763,0,0,1-1.2.3c-.546.045-1.091.1-1.635.161l-.834.093c-.163.018-.605-.021-.619.218a.7.7,0,0,0,.132.348c.26.494.485,1.01.725,1.514.061.128.266.612-.019.625a.3.3,0,0,1-.118-.026,2.341,2.341,0,0,1-.907-.786c-.124-.155-.248-.311-.387-.453a1.223,1.223,0,0,0-.489-.361c-.328-.076-.38.274-.413.511a6.117,6.117,0,0,1-.222,1.026.643.643,0,0,1-.2.323c-.28.216-.513-.129-.6-.364s-.163-.469-.231-.707A3.612,3.612,0,0,1,471.744,1186.513Z" transform="translate(-471.434 -1183.046)" fill="#27191c"/></g></g></g><g transform="translate(198.284 118.838)"><g transform="translate(4.611 32.505)"><g transform="translate(1.692 13.006)"><path d="M1947.2,1532.294c.741-1.316-.162-8.177-.927-13.047a19.5,19.5,0,0,1,1.033-9.944l2.072-5.462,6.594.79-3.988,11.3-.042,14.442-.263,2.251-5.076,4.141-2.6.067-.074-1.3A11.15,11.15,0,0,0,1947.2,1532.294Z" transform="translate(-1943.925 -1503.841)" fill="#fec5a4"/></g><g transform="translate(11.644 13.797)"><path d="M2026.41,1537.087c1.364-2.919-5.1-27.1-5.1-27.1h8.316l.667,9.54,1.133,16.2-.263,2.252-5.076,4.141-2.6.067-.074-1.3A14.948,14.948,0,0,0,2026.41,1537.087Z" transform="translate(-2021.313 -1509.991)" fill="#fec5a4"/></g><g transform="translate(12.049 39.531)"><path d="M2034.881,1717.039a.258.258,0,0,1-.257.26h-.685a.258.258,0,0,1-.257-.255l-.033-3.268a.2.2,0,0,0-.132-.184.193.193,0,0,0-.206.052.065.065,0,0,0-.011.012c-.019.023-.039.048-.06.072a12.689,12.689,0,0,1-1.986,1.827l-.049.036a8.45,8.45,0,0,1-2.931,1.526,4.58,4.58,0,0,1-2.686-.019c-.534-.212-1.113-.6-1.124-.943-.005-.159.121-.3.376-.42.234-.111.958-.347,1.306-.461l.011,0a1.481,1.481,0,0,0,.625.82,1.238,1.238,0,0,0,.939.173,6.463,6.463,0,0,0,1.542-.7,13.645,13.645,0,0,0,2.087-1.5c.092-.081.174-.155.25-.226a8.652,8.652,0,0,0,2.465-3.6.173.173,0,0,1,.063-.089.169.169,0,0,1,.047-.025.2.2,0,0,1,.057-.011h.005a.175.175,0,0,1,.167.114,7,7,0,0,1,.423,2.4Z" transform="translate(-2024.465 -1710.106)" fill="#27191c"/></g><g transform="translate(0 39.531)"><path d="M1941.183,1717.039a.258.258,0,0,1-.257.26h-.684a.259.259,0,0,1-.257-.255l-.033-3.268a.2.2,0,0,0-.338-.132.063.063,0,0,0-.011.012c-.019.023-.039.048-.06.072a12.689,12.689,0,0,1-1.986,1.827l-.049.036a8.451,8.451,0,0,1-2.93,1.526,4.58,4.58,0,0,1-2.686-.019c-.533-.212-1.114-.6-1.124-.943,0-.159.122-.3.376-.42.234-.111.958-.347,1.306-.461l.011,0a1.482,1.482,0,0,0,.625.82,1.239,1.239,0,0,0,.939.173,6.467,6.467,0,0,0,1.542-.7,13.656,13.656,0,0,0,2.087-1.5c.092-.081.174-.155.25-.226a8.656,8.656,0,0,0,2.465-3.6.177.177,0,0,1,.11-.114.2.2,0,0,1,.057-.011h.005a.175.175,0,0,1,.167.114,7,7,0,0,1,.422,2.4Z" transform="translate(-1930.768 -1710.106)" fill="#27191c"/></g><g transform="translate(3.554)"><path d="M1959.114,1402.7c-.195,1.52-.278,4.682-.365,6.124,0,.028,0,.056,0,.084-.086,1.436-.121,2.831-.115,4.186,0,.065,0,.129,0,.193.022,3.227-.457,6.215-.081,8.936a1.467,1.467,0,0,0,1.527,1.456l16.078-.63a1.466,1.466,0,0,0,1.394-1.653c-.391-1.242-.716-2.4-.985-3.477a43.347,43.347,0,0,1-.906-4.642c-.019-.133-.036-.266-.052-.4a39.937,39.937,0,0,1-.3-4.265c-.032-1.551.009-3.007.025-4.5Z" transform="translate(-1958.404 -1402.7)" fill="#2f4154"/></g></g><g transform="translate(7.26)"><g transform="translate(28.365)"><path d="M2172.536,1150.847a1.165,1.165,0,0,0,.15.373,1.835,1.835,0,0,1,.055,1.55,4.683,4.683,0,0,1-.8,1.047c.008,0,.931.738,1.017.8.173.135.347.269.52.405.091.071.362.357.475.346a.032.032,0,0,0,.013,0c.059-.021.144-.19.183-.241q.1-.132.2-.264.2-.252.408-.5.416-.489.868-.947c.239-.243.484-.481.747-.7.129-.109.27-.21.4-.321.041-.034.081-.069.12-.105.021-.02.042-.04.062-.061s.016-.022.022-.033a1.549,1.549,0,0,0-.376-1.595,2.689,2.689,0,0,0-1.951-.675,1.527,1.527,0,0,0-.493.073,1.747,1.747,0,0,0-.121.434.842.842,0,0,1-.049.176.4.4,0,0,1-.232.255l-.015,0a.453.453,0,0,1-.375-.1c-.108-.078-.2-.18-.314-.25a.385.385,0,0,0-.381-.033A.356.356,0,0,0,2172.536,1150.847Z" transform="translate(-2171.944 -1149.932)" fill="#fec5a4"/></g><g transform="translate(0 3.434)"><path d="M1952.567,1210.005l4.81.674a1.073,1.073,0,0,0,1.129-.655l1.178-2.858.625,3.4a.734.734,0,0,0,.645.6l7.422.749a1.419,1.419,0,0,0,1.6-1.551c-.785-4.327-.455-8.311-.086-12.757a1.163,1.163,0,0,1,.378-.793l7.356-6.414a7.561,7.561,0,0,0,2.131-3.1l3.252-8.888a.291.291,0,0,0-.152-.365l-3-1.379a.292.292,0,0,0-.385.137l-4.455,9.152a12.441,12.441,0,0,1-9.465,2.614,7.943,7.943,0,0,1-1.392-.286h0l-3.06-.5c-.037,0-.06.01-.1.013l-6.576,7.185a1.242,1.242,0,0,1,.011.348c-.427,4.127-.629,7.546-2.98,12.967A1.3,1.3,0,0,0,1952.567,1210.005Z" transform="translate(-1951.369 -1176.634)" fill="#178d89"/></g><g transform="translate(7.196 4.242)"><g transform="translate(2.265 6.268)"><path d="M2029.1,1231.66l-.889,4.871-.537,1.92a11.382,11.382,0,0,1-2.739-.286l.124-2.111.036-.219.041-.251.333-2.041.033-.2Z" transform="translate(-2024.934 -1231.66)" fill="#fec5a4"/></g><g transform="translate(2.424 7.375)"><path d="M2029.006,1240.27a5.017,5.017,0,0,1-2.831,3.066l.041-.251.332-2.041Z" transform="translate(-2026.175 -1240.27)" fill="#dd9169"/></g><g transform="translate(0 3.444)"><path d="M2008.608,1209.7a22.277,22.277,0,0,1-1.243,3.346.234.234,0,0,0-.037.161c.023.081.12.11.2.139a1.377,1.377,0,0,1,.713.885,2.732,2.732,0,0,0,.518,1.042,1.9,1.9,0,0,0,1,.631,1.508,1.508,0,0,0,1.217-.489c.822-.777,1.854-1.945,2.953-3.239l-.154-2.4Z" transform="translate(-2007.324 -1209.7)" fill="#fec5a4"/></g><g transform="translate(0.228)"><path d="M2016.551,1185.747l.057-.007a.922.922,0,0,0,.8-.814,1.745,1.745,0,0,0-.782-1.728,1.375,1.375,0,0,0-1.5-.1,1.015,1.015,0,0,0-.39.675,7.025,7.025,0,0,0-3.021-.339,3.776,3.776,0,0,0-1.714.6,2.446,2.446,0,0,0-.811,1.266,2.089,2.089,0,0,0,.079,1.515.559.559,0,0,0,.517.258c.327-.032.653-.074.98-.107.3-.03.6-.056.9-.081a4.921,4.921,0,0,1,1.372.04c.139.028.356.022.388.2.025.135-.089.269-.155.375-.3.469-.559.962-.833,1.443-.071.123-.311.586-.03.621a.308.308,0,0,0,.12-.016,1.957,1.957,0,0,0,.784-.543l.564-.536a1.069,1.069,0,0,1,.539-.37c.331-.05.355.3.37.538a7.1,7.1,0,0,0,.11.933c.034.171.152.491.359.524.235.037.384-.283.48-.45a7.6,7.6,0,0,0,.78-2.531A11.586,11.586,0,0,0,2016.551,1185.747Z" transform="translate(-2009.094 -1182.918)" fill="#27191c"/></g></g></g><g transform="translate(0 11.659)"><g transform="translate(0.715)"><g transform="translate(0.047 0.361)"><path d="M1904.433,1245.814a.99.99,0,0,1-.3.156,1.55,1.55,0,0,0-.89.962,3.957,3.957,0,0,0-.067,1.109c-.007,0-1-.041-1.094-.046-.186-.01-.37-.019-.556-.027-.1,0-.428.029-.495-.041a.034.034,0,0,1-.006-.009c-.026-.046.013-.2.016-.255.006-.094.01-.187.014-.282.008-.18.011-.361.012-.542q0-.542-.033-1.084a8.552,8.552,0,0,0-.092-.86c-.023-.141-.057-.283-.08-.427-.007-.044-.014-.089-.018-.133,0-.024,0-.048-.006-.073s0-.023,0-.034c.073-.453.729-.783,1.12-.813a2.273,2.273,0,0,1,1.62.644,1.287,1.287,0,0,1,.275.319,1.459,1.459,0,0,1-.162.344.7.7,0,0,0-.065.14.342.342,0,0,0,.008.291l.007.011a.381.381,0,0,0,.295.142c.113.01.227,0,.339.014a.326.326,0,0,1,.262.189A.3.3,0,0,1,1904.433,1245.814Z" transform="translate(-1900.837 -1243.411)" fill="#fec5a4"/></g><path d="M1903.523,1242.061a.683.683,0,0,1-.25.282l-.049.029-.056.03a1.927,1.927,0,0,1-1.434.067c-.355-.111-1.087-.4-1.235-.811a.434.434,0,0,1-.025-.115c0-.006,0-.011,0-.018a.48.48,0,0,1,0-.073c0-.011,0-.022,0-.034.073-.453.729-.783,1.12-.813a2.273,2.273,0,0,1,1.62.644,1.283,1.283,0,0,1,.274.319.227.227,0,0,1,.014.024A.51.51,0,0,1,1903.523,1242.061Z" transform="translate(-1900.472 -1240.6)" fill="#fec5a4"/></g><g transform="translate(0 2.934)"><path d="M1894.919,1265.321l1.977,11.026a2.9,2.9,0,0,0,4.67,1.751l4.065-3.255.536-.429c.135-.108,1.253-1.718,1.253-1.718l3.733-7.732s.683-1.549.655-1.545a6.773,6.773,0,0,0-.884.191c-4.04,1.13-8.8,5.818-10.113,7.174a.284.284,0,0,1-.479-.126l-1.454-5.586a.287.287,0,0,0-.288-.214l-3.4.127A.287.287,0,0,0,1894.919,1265.321Z" transform="translate(-1894.914 -1263.419)" fill="#178d89"/></g></g><g transform="translate(17.104 16.037)"><path d="M2027.92,1274.64l2.095.332-1.267,1.959-.467-.083Z" transform="translate(-2027.92 -1274.64)" fill="#fff"/></g><g transform="translate(16.011 14.594)"><path d="M2019.651,1264.968l-.115,1.269,1.4,2.337a.009.009,0,0,0,.013,0l2.33-2.113.566-1.481,1.016-.789a10.265,10.265,0,0,1-1.128-.22c-.266-.068-.26-.065-.268-.068a28.618,28.618,0,0,0-2.056,2.708.232.232,0,0,1-.421-.069c-.209-.856-.675-3.076-.68-3.122a6.777,6.777,0,0,0-.884.191l.264.966Z" transform="translate(-2019.423 -1263.423)" fill="#bde1fd"/></g></g><g transform="translate(17.481 2.316)"><g transform="translate(0 24.94)"><path d="M524.284,449.044a3.4,3.4,0,0,1-.409,1.6c-.027.049-.055.1-.084.144a3.071,3.071,0,0,1-.524.637H489.923a4.43,4.43,0,0,1-.445-.639,4.153,4.153,0,0,1-.4-3.163,4.324,4.324,0,0,1,5.323-2.948,8.673,8.673,0,0,1,.961-2.948A7.58,7.58,0,0,1,500.01,438a9.356,9.356,0,0,1,6.318.787,7.677,7.677,0,0,1,2.461,2.354,8.32,8.32,0,0,1,.7,1.114,9.016,9.016,0,0,1,.6,1.607,7.856,7.856,0,0,1,.8-.893,5.611,5.611,0,0,1,6.654-.611,5.378,5.378,0,0,1,.577.418,5.86,5.86,0,0,1,1.795,2.975,3.548,3.548,0,0,1,2.831.406A3.327,3.327,0,0,1,524.284,449.044Z" transform="translate(-488.933 -437.759)" fill="#d2f5f4"/></g><g transform="translate(170.537)"><path d="M1848.222,254.4a3.192,3.192,0,0,1-.384,1.5c-.025.046-.051.091-.079.135a2.867,2.867,0,0,1-.492.6h-31.255a4.171,4.171,0,0,1-.417-.6,3.9,3.9,0,0,1-.374-2.965,4.053,4.053,0,0,1,4.99-2.764,8.132,8.132,0,0,1,.9-2.763,7.105,7.105,0,0,1,4.355-3.489,8.77,8.77,0,0,1,5.922.738,7.2,7.2,0,0,1,2.307,2.206,7.779,7.779,0,0,1,.66,1.044,8.472,8.472,0,0,1,.563,1.506,7.326,7.326,0,0,1,.75-.837,5.259,5.259,0,0,1,6.238-.573,5.051,5.051,0,0,1,.541.391,5.494,5.494,0,0,1,1.683,2.789,3.326,3.326,0,0,1,2.653.381A3.12,3.12,0,0,1,1848.222,254.4Z" transform="translate(-1815.085 -243.817)" fill="#d2f5f4"/></g><g transform="translate(88.295 41.287)"><path d="M1183.013,571.246a7.116,7.116,0,0,1,14.189.444,2.521,2.521,0,0,1,4.124,1.808,4.338,4.338,0,0,1,3.8.751c2.186,1.721,2.294,5.746-.346,7.094a9.234,9.234,0,0,1-4.211.676l-19.03.056a8.056,8.056,0,0,1-3.949-.659,4,4,0,0,1,2.642-7.439A2.985,2.985,0,0,1,1183.013,571.246Z" transform="translate(-1175.545 -564.881)" fill="#d2f5f4"/></g></g><g transform="translate(73.807 20.852)"><g transform="translate(0 125.452)"><path d="M928.231,1366.809a3.286,3.286,0,0,0,2.109-2.023l.457-1.275.375,1.283a3.081,3.081,0,0,0,1.977,2.061l1.266.427-1.293.4a3.285,3.285,0,0,0-2.109,2.023l-.457,1.275-.374-1.283a3.082,3.082,0,0,0-1.977-2.061l-1.266-.427Z" transform="translate(-926.938 -1363.51)" fill="#fece00"/></g><g transform="translate(55.632 56.034)"><path d="M1360.847,826.989a3.286,3.286,0,0,0,2.109-2.023l.457-1.275.375,1.283a3.082,3.082,0,0,0,1.977,2.061l1.266.427-1.293.4a3.286,3.286,0,0,0-2.109,2.023l-.457,1.275-.374-1.283a3.082,3.082,0,0,0-1.977-2.061l-1.266-.427Z" transform="translate(-1359.554 -823.69)" fill="#fece00"/></g><g transform="translate(154.003)"><path d="M2126.211,392.288a4.316,4.316,0,0,0,2.77-2.658l.6-1.675.492,1.685a4.046,4.046,0,0,0,2.6,2.707l1.663.561-1.7.53a4.315,4.315,0,0,0-2.77,2.658l-.6,1.675-.492-1.685a4.048,4.048,0,0,0-2.6-2.707l-1.663-.561Z" transform="translate(-2124.513 -387.955)" fill="#fece00"/></g></g></g></g></svg>