<svg xmlns="http://www.w3.org/2000/svg" xmlns:xlink="http://www.w3.org/1999/xlink" width="108" height="108" viewBox="0 0 108 108"><defs><filter id="a" x="0" y="0" width="108" height="108" filterUnits="userSpaceOnUse"><feOffset dy="3" input="SourceAlpha"/><feGaussianBlur stdDeviation="3" result="b"/><feFlood flood-opacity="0.161"/><feComposite operator="in" in2="b"/><feComposite in="SourceGraphic"/></filter></defs><g transform="translate(-956.332 -135)"><g transform="translate(965.332 141)"><g transform="matrix(1, 0, 0, 1, -9, -6)" filter="url(#a)"><circle cx="45" cy="45" r="45" transform="translate(9 6)" fill="#fff" opacity="0.45"/></g><circle cx="36" cy="36" r="36" transform="translate(9 9)" fill="#b15815"/></g><g transform="translate(986 161.62)"><g transform="translate(1.84 2.38)"><path d="M34.167,4.005V25.677H5.6a3.021,3.021,0,0,1-3.01-3.01V4.005a.875.875,0,0,1,.875-.875H33.292a.875.875,0,0,1,.876.875Z" transform="translate(-1.906 -2.446)" fill="#fff"/><path d="M34.1,26.3H5.534A3.7,3.7,0,0,1,1.84,22.6V3.939A1.561,1.561,0,0,1,3.4,2.38H33.226a1.561,1.561,0,0,1,1.56,1.559V25.612a.684.684,0,0,1-.684.684ZM3.4,3.748a.191.191,0,0,0-.191.191V22.6a2.336,2.336,0,0,0,2.326,2.326H33.417V3.939a.191.191,0,0,0-.192-.191H3.4Z" transform="translate(-1.84 -2.38)"/></g><g transform="translate(10.642 14.694)"><path d="M12.24,16.63h.228a1.907,1.907,0,0,0-.228.009Z" transform="translate(-11.556 -15.946)" fill="#fff"/><path d="M12.174,17.257a.684.684,0,0,1-.684-.684.692.692,0,0,1,.684-.693H12.4a.684.684,0,1,1,0,1.368h-.085a.539.539,0,0,0-.061,0A.738.738,0,0,1,12.174,17.257Z" transform="translate(-11.49 -15.88)"/></g><g transform="translate(10.87 14.694)"><path d="M47.077,19.64V46.073a.876.876,0,0,1-.875.876H16.375a.876.876,0,0,1-.876-.876V19.64a3.021,3.021,0,0,0-3.01-3.01H44.067a3.021,3.021,0,0,1,3.01,3.01Z" transform="translate(-11.806 -15.946)" fill="#fff"/><path d="M46.136,47.567H16.31a1.561,1.561,0,0,1-1.56-1.56V19.574a2.336,2.336,0,0,0-2.326-2.326.684.684,0,0,1,0-1.368H44A3.7,3.7,0,0,1,47.7,19.574V46.007a1.561,1.561,0,0,1-1.56,1.56ZM15.289,17.248a3.659,3.659,0,0,1,.829,2.326V46.007a.192.192,0,0,0,.192.192H46.136a.192.192,0,0,0,.192-.192V19.574A2.336,2.336,0,0,0,44,17.248H15.289Z" transform="translate(-11.74 -15.88)"/></g><g transform="translate(4.85 14.694)"><path d="M14.92,19.64v7.224H5.89a3.013,3.013,0,0,0,3.01-3.01V19.64a3.01,3.01,0,0,1,6.02,0Z" transform="translate(-5.206 -15.946)" fill="#cdd5d7"/><path d="M14.854,27.482H5.824a.684.684,0,1,1,0-1.368A2.329,2.329,0,0,0,8.15,23.788V19.574a3.694,3.694,0,0,1,7.388,0V26.8a.684.684,0,0,1-.684.684ZM8.692,26.114H14.17v-6.54a2.326,2.326,0,0,0-4.652,0v4.214a3.675,3.675,0,0,1-.826,2.326Z" transform="translate(-5.14 -15.88)"/></g><g transform="translate(18.394 32.639)"><path d="M25.62,36.932v6.394a.627.627,0,0,1-.627.627H21.366a.627.627,0,0,1-.627-.627V36.932a.627.627,0,0,1,.627-.627h3.627A.627.627,0,0,1,25.62,36.932Z" transform="translate(-20.054 -35.621)" fill="#9fd25a"/><path d="M24.927,44.571H21.3a1.313,1.313,0,0,1-1.311-1.311V36.866A1.313,1.313,0,0,1,21.3,35.555h3.627a1.313,1.313,0,0,1,1.311,1.311V43.26A1.313,1.313,0,0,1,24.927,44.571ZM21.3,36.923l.057,6.337,3.57-.057-.057-6.28Zm3.57-.057h0Z" transform="translate(-19.989 -35.555)"/></g><g transform="translate(27.296 26.746)"><path d="M35.38,30.47V42.758a.627.627,0,0,1-.627.627H31.126a.627.627,0,0,1-.627-.627V30.47a.627.627,0,0,1,.627-.627h3.627A.627.627,0,0,1,35.38,30.47Z" transform="translate(-29.815 -29.159)" fill="#986de7"/><path d="M34.687,44H31.06a1.313,1.313,0,0,1-1.311-1.311V30.4a1.313,1.313,0,0,1,1.311-1.311h3.627A1.313,1.313,0,0,1,36,30.4V42.692A1.313,1.313,0,0,1,34.687,44ZM31.06,30.462l.057,12.231,3.57-.057L34.63,30.462Zm3.57-.057h0Z" transform="translate(-29.749 -29.094)"/></g><g transform="translate(36.198 32.903)"><path d="M45.14,37.22v6.131a.627.627,0,0,1-.627.627H40.886a.627.627,0,0,1-.627-.627V37.22a.627.627,0,0,1,.627-.627h3.627A.627.627,0,0,1,45.14,37.22Z" transform="translate(-39.574 -35.909)" fill="#ff6f5c"/><path d="M44.447,44.6H40.82a1.313,1.313,0,0,1-1.311-1.311V37.155a1.313,1.313,0,0,1,1.311-1.311h3.627a1.313,1.313,0,0,1,1.311,1.311v6.131A1.313,1.313,0,0,1,44.447,44.6ZM40.82,37.212l.057,6.074,3.57-.057-.057-6.017Zm3.57-.057h0Z" transform="translate(-39.509 -35.844)"/></g><g transform="translate(18.394 18.808)"><path d="M30.014,21.759H20.673a.684.684,0,1,1,0-1.368h9.342a.684.684,0,1,1,0,1.368Z" transform="translate(-19.988 -20.39)"/></g><g transform="translate(18.394 21.964)"><path d="M27.006,25.219H20.673a.684.684,0,1,1,0-1.368h6.334a.684.684,0,1,1,0,1.368Z" transform="translate(-19.989 -23.851)"/></g><g transform="translate(12.557 6.465)"><path d="M30.54,8.227H14.274a.684.684,0,0,1,0-1.368H30.54a.684.684,0,0,1,0,1.368Z" transform="translate(-13.59 -6.859)"/></g><g transform="translate(12.557 10.082)"><path d="M24.635,12.193H14.274a.684.684,0,0,1,0-1.368H24.635a.684.684,0,0,1,0,1.368Z" transform="translate(-13.59 -10.825)"/></g><g transform="translate(5.638 6.465)"><path d="M9.257,8.227H6.688a.684.684,0,0,1,0-1.368H9.257a.684.684,0,0,1,0,1.368Z" transform="translate(-6.004 -6.859)"/><g transform="translate(0 3.617)"><path d="M9.257,12.193H6.688a.684.684,0,1,1,0-1.368H9.257a.684.684,0,0,1,0,1.368Z" transform="translate(-6.004 -10.825)"/></g></g><g transform="translate(1.84 30.627)"><circle cx="7.193" cy="7.193" r="7.193" transform="translate(0.684 0.684)" fill="#ffd364"/><path d="M9.717,49.1a7.877,7.877,0,1,1,7.877-7.877A7.886,7.886,0,0,1,9.717,49.1Zm0-14.385a6.509,6.509,0,1,0,6.509,6.509A6.516,6.516,0,0,0,9.717,34.717Z" transform="translate(-1.84 -33.348)"/></g><g transform="translate(7.045 33.39)"><g transform="translate(0 1.242)"><path d="M11.692,45.482H8.744a1.2,1.2,0,0,1-1.2-1.2.684.684,0,0,1,1.347-.171h2.629V42.3H8.744a1.2,1.2,0,0,1-1.2-1.2v-2.16a1.2,1.2,0,0,1,1.2-1.2h2.948a1.2,1.2,0,0,1,1.2,1.2.684.684,0,0,1-1.347.171H8.915v1.819h2.777a1.2,1.2,0,0,1,1.2,1.2v2.16a1.2,1.2,0,0,1-1.2,1.2Zm-2.777-1.2h.009Z" transform="translate(-7.547 -37.74)"/></g><g transform="translate(1.988)"><path d="M10.41,38.935a.684.684,0,0,1-.684-.684V37.062a.684.684,0,0,1,1.368,0v1.189A.684.684,0,0,1,10.41,38.935Z" transform="translate(-9.726 -36.378)"/></g><g transform="translate(1.988 7.67)"><path d="M10.41,47.344a.684.684,0,0,1-.684-.684V45.471a.684.684,0,1,1,1.368,0V46.66A.684.684,0,0,1,10.41,47.344Z" transform="translate(-9.726 -44.787)"/></g></g></g></g></svg>