<svg xmlns="http://www.w3.org/2000/svg" xmlns:xlink="http://www.w3.org/1999/xlink" width="75" height="74.999" viewBox="0 0 75 74.999"><defs><clipPath id="a"><path d="M0-682.665H75v75H0Z" transform="translate(0 682.665)"/></clipPath></defs><g transform="translate(0 682.665)"><g transform="translate(5.552 -645.165)"><path d="M-17.8,0-20,2.2V34.2l2.2,2.2h4.394V0Z" transform="translate(20)" fill="#ff8630"/></g><path d="M10-304.932h6.65v-36.4H10Z" transform="translate(-8.901 -303.833)" fill="#ffa436"/><g transform="translate(20.991 -662.89)"><path d="M-17.8,0-20,2.2V34.2l2.2,2.2h4.394V0Z" transform="translate(20)" fill="#ffbc2b"/></g><path d="M150.533-466.264h6.65v-36.4h-6.65Z" transform="translate(-133.995 -160.224)" fill="#ffcf66"/><g transform="translate(36.43 -654.266)"><path d="M-17.8,0-20,2.2V34.2l2.2,2.2h4.394V0Z" transform="translate(20)" fill="#61ce5a"/></g><path d="M291.066-387.765h6.65v-36.4h-6.65Z" transform="translate(-259.089 -230.1)" fill="#94e368"/><g transform="translate(51.87 -672.466)"><path d="M-17.8,0-20,2.2V34.2l2.2,2.2h4.394V0Z" transform="translate(20)" fill="#24c0ff"/></g><path d="M431.6-553.431h6.65v-36.4H431.6Z" transform="translate(-384.182 -82.634)" fill="#47d4ff"/><g transform="translate(67.309 -681.566)"><path d="M-17.8,0-20,2.2V34.2l2.2,2.2h4.394V0Z" transform="translate(20)" fill="#3a6fd8"/></g><path d="M572.132-636.264h6.65v-36.4h-6.65Z" transform="translate(-509.276 -8.901)" fill="#3b88f5"/><g transform="translate(0 -682.665)"><g clip-path="url(#a)"><path d="M21.045-304.432H10a.5.5,0,0,1-.5-.5v-36.4a.5.5,0,0,1,.5-.5H21.045a.5.5,0,0,1,.5.5v36.4A.5.5,0,0,1,21.045-304.432Zm-10.545-1H20.545v-35.4H10.5Z" transform="translate(-8.901 378.832)"/></g></g><g transform="translate(16.538 -662.89)"><path d="M-89.488-41.6h-11.045a.5.5,0,0,1-.5-.5V-78.5a.5.5,0,0,1,.5-.5h11.045a.5.5,0,0,1,.5.5v8.624a.5.5,0,0,1-.5.5.5.5,0,0,1-.5-.5V-78h-10.045v35.4h10.045V-65.481a.5.5,0,0,1,.5-.5.5.5,0,0,1,.5.5V-42.1A.5.5,0,0,1-89.488-41.6Z" transform="translate(100.533 78.5)"/></g><path d="M302.111-387.265H291.066a.5.5,0,0,1-.5-.5v-36.4a.5.5,0,0,1,.5-.5h11.045a.5.5,0,0,1,.5.5v36.4A.5.5,0,0,1,302.111-387.265Zm-10.545-1h10.045v-35.4H291.566Z" transform="translate(-259.089 -230.1)"/><path d="M442.644-552.931H431.6a.5.5,0,0,1-.5-.5v-36.4a.5.5,0,0,1,.5-.5h11.045a.5.5,0,0,1,.5.5v36.4A.5.5,0,0,1,442.644-552.931Zm-10.545-1h10.045v-35.4H432.1Z" transform="translate(-384.182 -82.634)"/><g transform="translate(0 -682.665)"><g clip-path="url(#a)"><path d="M583.177-635.764H572.132a.5.5,0,0,1-.5-.5v-36.4a.5.5,0,0,1,.5-.5h11.045a.5.5,0,0,1,.5.5v36.4A.5.5,0,0,1,583.177-635.764Zm-10.545-1h10.045v-35.4H572.632Z" transform="translate(-509.276 673.764)"/></g></g></g></svg>