<svg xmlns="http://www.w3.org/2000/svg" xmlns:xlink="http://www.w3.org/1999/xlink" width="120" height="120" viewBox="0 0 120 120"><defs><filter id="a" x="0" y="0" width="120" height="120" filterUnits="userSpaceOnUse"><feOffset dy="3" input="SourceAlpha"/><feGaussianBlur stdDeviation="3" result="b"/><feFlood flood-opacity="0.161"/><feComposite operator="in" in2="b"/><feComposite in="SourceGraphic"/></filter></defs><g transform="translate(-882.332 -420)"><g transform="translate(891.395 426.063)"><g transform="matrix(1, 0, 0, 1, -9.06, -6.06)" filter="url(#a)"><circle cx="51" cy="51" r="51" transform="translate(9 6)" fill="#fff" opacity="0.45"/></g><circle cx="40" cy="40" r="40" transform="translate(10.938 10.938)" fill="#22cac5"/></g><g transform="translate(884.035 449.564)"><g transform="translate(36.36 2.039)"><path d="M158.072,44.421V8.956a1.643,1.643,0,0,0-1.643-1.643H129.172a1.643,1.643,0,0,0-1.643,1.643V51.626a1.643,1.643,0,0,0,1.643,1.643h20.052Z" transform="translate(-118.433 -6.787)" fill="#fdcf17"/><path d="M164.242,52.872V88.337a1.643,1.643,0,0,0,1.643,1.643h27.257a1.643,1.643,0,0,0,1.643-1.643V45.667a1.643,1.643,0,0,0-1.643-1.643H173.091Z" transform="translate(-151.483 -39.835)" fill="#e8f1f8"/><path d="M194.8,45.668V88.34a1.643,1.643,0,0,1-1.642,1.642H165.906a1.643,1.643,0,0,1-1.643-1.642V87.186A28.9,28.9,0,0,0,188.927,58.6V44.026h4.235A1.643,1.643,0,0,1,194.8,45.668Z" transform="translate(-151.503 -39.837)" opacity="0.12"/><path d="M164.242,52.872h7.206a1.643,1.643,0,0,0,1.643-1.643V44.024Z" transform="translate(-151.483 -39.835)" fill="#acbadf"/><path d="M240.646,377.433v3.688a.688.688,0,0,1-.688.688H236.9a.688.688,0,0,1-.688-.688v-3.687a.688.688,0,0,1,.688-.688h3.055A.688.688,0,0,1,240.646,377.433Z" transform="translate(-216.277 -339.361)" fill="#0e9c4a"/><path d="M240.641,377.432v3.688a.688.688,0,0,1-.688.688H236.9a.688.688,0,0,1-.688-.688v-.069a3.741,3.741,0,0,0,3.139-3.691v-.615h.605A.689.689,0,0,1,240.641,377.432Z" transform="translate(-216.27 -339.36)" opacity="0.1"/><path d="M304.815,313.857v10.031a.688.688,0,0,1-.688.688h-3.055a.688.688,0,0,1-.688-.688V313.857a.688.688,0,0,1,.688-.688h3.055A.688.688,0,0,1,304.815,313.857Z" transform="translate(-274.044 -282.128)" fill="#475da9"/><path d="M304.81,313.856v10.031a.688.688,0,0,1-.688.688h-3.056a.688.688,0,0,1-.688-.688v-.069a3.741,3.741,0,0,0,3.139-3.691v-6.958h.605A.689.689,0,0,1,304.81,313.856Z" transform="translate(-274.037 -282.127)" opacity="0.1"/><path d="M368.983,356.241v5.8a.688.688,0,0,1-.688.688h-3.055a.688.688,0,0,1-.688-.688v-5.8a.688.688,0,0,1,.688-.688H368.3A.688.688,0,0,1,368.983,356.241Z" transform="translate(-331.81 -320.283)" fill="#f14f4a"/><path d="M368.978,356.24v5.8a.688.688,0,0,1-.688.688h-3.056a.688.688,0,0,1-.688-.688v-.069a3.741,3.741,0,0,0,3.139-3.691v-2.729h.605A.689.689,0,0,1,368.978,356.24Z" transform="translate(-331.803 -320.282)" opacity="0.1"/><g transform="translate(0.528 24.125)"><path d="M242.693,308.345a1.96,1.96,0,1,1-1.963-1.958A1.962,1.962,0,0,1,242.693,308.345Z" transform="translate(-219.107 -300.148)" fill="#f78721"/><path d="M306.861,245.811a1.96,1.96,0,1,1-1.963-1.958A1.962,1.962,0,0,1,306.861,245.811Z" transform="translate(-276.873 -243.853)" fill="#f78721"/><path d="M371.029,295.969a1.96,1.96,0,1,1-1.963-1.958A1.962,1.962,0,0,1,371.029,295.969Z" transform="translate(-334.639 -289.007)" fill="#f78721"/><path d="M56.61,362.213a7.479,7.479,0,1,1-7.477-7.477A7.478,7.478,0,0,1,56.61,362.213Z" transform="translate(-41.653 -343.673)" fill="#f78721"/></g><path d="M74.655,382.508a5.229,5.229,0,1,1-5.229-5.229A5.229,5.229,0,0,1,74.655,382.508Z" transform="translate(-61.419 -339.842)" fill="#fdcf17"/><path d="M79.989,387.846a5.228,5.228,0,0,1-9.866,2.415,5.165,5.165,0,0,0,2.412.592,5.231,5.231,0,0,0,5.231-5.231,5.165,5.165,0,0,0-.592-2.412A5.214,5.214,0,0,1,79.989,387.846Z" transform="translate(-66.755 -345.182)" opacity="0.1"/><path d="M200.714,232.864a.528.528,0,1,0-1.056,0v21.454a.528.528,0,0,0,.528.528h23.473a.528.528,0,0,0,0-1.056H200.714Z" transform="translate(-183.366 -209.36)"/><path d="M312.544,176.347h11.609a.528.528,0,1,0,0-1.056H312.544a.528.528,0,1,0,0,1.056Z" transform="translate(-284.514 -158.006)"/><path d="M312.544,142.406h11.609a.528.528,0,1,0,0-1.056H312.544a.528.528,0,1,0,0,1.056Z" transform="translate(-284.514 -127.451)"/><path d="M375.239,107.412a.528.528,0,1,0,0,1.056h5.354a.528.528,0,0,0,0-1.056Z" transform="translate(-340.954 -96.899)"/><path d="M296.31,307.878a1.217,1.217,0,0,0-1.215,1.216v10.03a1.217,1.217,0,0,0,1.215,1.216h3.055a1.217,1.217,0,0,0,1.215-1.216v-10.03a1.217,1.217,0,0,0-1.215-1.216Zm3.215,1.216v10.03a.16.16,0,0,1-.16.16H296.31a.16.16,0,0,1-.16-.16v-10.03a.16.16,0,0,1,.16-.16h3.055A.16.16,0,0,1,299.525,309.094Z" transform="translate(-269.281 -277.365)"/><path d="M232.138,377.572h3.055a1.217,1.217,0,0,0,1.215-1.216v-3.688a1.217,1.217,0,0,0-1.215-1.216h-3.055a1.217,1.217,0,0,0-1.216,1.216v3.688a1.217,1.217,0,0,0,1.216,1.216Zm-.16-4.9a.161.161,0,0,1,.16-.16h3.055a.16.16,0,0,1,.16.16v3.688a.16.16,0,0,1-.16.16h-3.055a.161.161,0,0,1-.16-.16Z" transform="translate(-211.511 -334.597)"/><path d="M235.964,249.778a2.493,2.493,0,0,0,2.49-2.491,2.458,2.458,0,0,0-.383-1.31L241,243.124a2.45,2.45,0,0,0,2.948-.165l2.592,2.019a2.455,2.455,0,0,0-.255,1.075,2.488,2.488,0,1,0,2.485-2.485,2.461,2.461,0,0,0-1.577.581L244.6,242.13a2.459,2.459,0,0,0,.258-1.082,2.488,2.488,0,1,0-4.593,1.315l-2.926,2.854a2.487,2.487,0,1,0-1.374,4.56Zm12.8-5.155a1.432,1.432,0,1,1-1.429,1.429A1.434,1.434,0,0,1,248.768,244.623Zm-6.4-5a1.432,1.432,0,1,1-1.43,1.43A1.434,1.434,0,0,1,242.366,239.619Zm-6.4,6.239a1.432,1.432,0,1,1-1.43,1.43A1.438,1.438,0,0,1,235.964,245.858Z" transform="translate(-213.812 -214.965)"/><path d="M363.532,350.261h-3.055a1.217,1.217,0,0,0-1.215,1.216v5.8a1.217,1.217,0,0,0,1.215,1.216h3.055a1.217,1.217,0,0,0,1.215-1.216v-5.8A1.217,1.217,0,0,0,363.532,350.261Zm.16,7.018a.16.16,0,0,1-.16.16h-3.055a.16.16,0,0,1-.16-.16v-5.8a.16.16,0,0,1,.16-.16h3.055a.16.16,0,0,1,.16.16Z" transform="translate(-327.047 -315.519)"/><path d="M100.337,401.182H98.7a.528.528,0,1,0,0,1.056h.784v.292a.528.528,0,1,0,1.056,0v-.312a1.51,1.51,0,0,0-.2-3.008h-.652a.458.458,0,0,1,0-.917h1.638a.528.528,0,0,0,0-1.056h-.785v-.292a.528.528,0,1,0-1.056,0v.312a1.51,1.51,0,0,0,.2,3.008h.652a.458.458,0,1,1,0,.917Z" transform="translate(-92.004 -357.071)"/><path d="M36.36,44.7a8,8,0,0,0,12.4,6.685,2.177,2.177,0,0,0,2,1.324H78.017a2.175,2.175,0,0,0,2.169-2.175V7.872A2.172,2.172,0,0,0,78.017,5.7H76.528V4.208a2.175,2.175,0,0,0-2.175-2.169H47.1a2.172,2.172,0,0,0-2.17,2.169l0,32.519c-.185-.013-.37-.028-.558-.028A8.016,8.016,0,0,0,36.36,44.7ZM79.131,7.872V50.539a1.118,1.118,0,0,1-1.113,1.119H50.763a1.117,1.117,0,0,1-1.1-.962,7.972,7.972,0,0,0-.016-12V15.6h6.68a2.173,2.173,0,0,0,2.171-2.17V6.758H78.017A1.115,1.115,0,0,1,79.131,7.872ZM57.439,7.506v5.928a1.116,1.116,0,0,1-1.115,1.115H50.393Zm-11.453-3.3A1.115,1.115,0,0,1,47.1,3.095H74.354a1.118,1.118,0,0,1,1.119,1.114V5.7h-17.5a.579.579,0,0,0-.375.152L48.744,14.7a.614.614,0,0,0-.155.373V37.915a7.945,7.945,0,0,0-2.608-1.053ZM44.368,37.755a6.951,6.951,0,1,1-6.952,6.95A6.958,6.958,0,0,1,44.368,37.755Z" transform="translate(-36.36 -2.039)"/><path d="M64.666,383.5a5.757,5.757,0,1,0-5.758-5.758A5.764,5.764,0,0,0,64.666,383.5Zm0-10.459a4.7,4.7,0,1,1-4.7,4.7A4.706,4.706,0,0,1,64.666,373.044Z" transform="translate(-56.658 -335.079)"/></g></g></g></svg>