<svg xmlns="http://www.w3.org/2000/svg" xmlns:xlink="http://www.w3.org/1999/xlink" width="130" height="130" viewBox="0 0 130 130"><defs><filter id="a" x="0" y="0" width="130" height="130" filterUnits="userSpaceOnUse"><feOffset dy="3" input="SourceAlpha"/><feGaussianBlur stdDeviation="3" result="b"/><feFlood flood-opacity="0.161"/><feComposite operator="in" in2="b"/><feComposite in="SourceGraphic"/></filter></defs><g transform="translate(-1278.332 -421)"><g transform="translate(1286.906 426.573)"><g transform="matrix(1, 0, 0, 1, -8.57, -5.57)" filter="url(#a)"><circle cx="56" cy="56" r="56" transform="translate(9 6)" fill="#fff" opacity="0.45"/></g><circle cx="45" cy="45" r="45" transform="translate(11.427 11.427)" fill="#116562"/></g><g transform="translate(1243.727 405.778)"><path d="M84.393,56.059h26.053v9.024H119.6v40.031h-36l-2.838-1.681-.59-1.592V57.724Z" transform="translate(-3.933 -5.884)" fill="#e5eaff"/><path d="M298.819,60.222v8.085h8.714Z" transform="translate(-192.084 -9.467)" fill="#b2c6f9"/><path d="M80.176,213.389v11.677l.59,1.592,2.838,1.681h36V199.254c-6.935,7.7-21.632,20.317-39.427,14.135Z" transform="translate(-3.932 -129.109)" fill="#b2c6f9"/><path d="M123.736,102.684h12.8v15.865h-12.8Z" transform="translate(-41.418 -46.007)" fill="#feb800"/><path d="M136.533,129.534c-2.39,3.074-7.275,8.12-12.8,6.791v5.33h12.8Z" transform="translate(-41.417 -69.112)" fill="#fa8700"/><path d="M333.961,276.5H341.5v23h-7.543Z" transform="translate(-222.325 -195.582)" fill="#fd5426"/><path d="M250,318.323h7.87v17.169H250Z" transform="translate(-150.073 -231.573)" fill="#01d0fb"/><path d="M171.524,358.966H178.6v11.5h-7.074Z" transform="translate(-82.541 -266.548)" fill="#39af00"/><path d="M337.937,318.323s-4.187,9.737-8.67,6.906v11.029h8.67Z" transform="translate(-218.286 -231.573)" fill="#d83e1a"/><path d="M256.607,343.107s-3.893,8.811-8.537,5.511v8.968h8.758Z" transform="translate(-148.413 -252.901)" fill="#13b8ce"/><path d="M177.391,362.138s-.064,7.873-7.982,6.237v5.588h8.272Z" transform="translate(-80.722 -269.278)" fill="#026400"/><g transform="translate(75.606 49.221)"><path d="M151.839,127.673a2.063,2.063,0,0,0,.944.62v.533a.767.767,0,0,0,1.534,0v-.494a2.151,2.151,0,0,0,.939-.516,2.2,2.2,0,0,0,.662-1.68,2.63,2.63,0,0,0-.367-1.351,4.91,4.91,0,0,0-.848-1.045l-.364-.345s-.008-.011-.013-.016l-.46-.436a3.378,3.378,0,0,1-.584-.713,1.1,1.1,0,0,1-.155-.573c0-.395.134-.52.177-.562a.783.783,0,0,1,.586-.186.728.728,0,0,1,.617.208,1.54,1.54,0,0,1,.29.89.767.767,0,1,0,1.53-.115,3.005,3.005,0,0,0-.654-1.773,2.063,2.063,0,0,0-.944-.62v-.533a.767.767,0,1,0-1.534,0v.494a2.152,2.152,0,0,0-.939.516,2.2,2.2,0,0,0-.662,1.68,2.629,2.629,0,0,0,.367,1.351,4.908,4.908,0,0,0,.848,1.046l.364.345s.008.011.014.016l.46.436a3.384,3.384,0,0,1,.584.712,1.1,1.1,0,0,1,.155.573c0,.395-.134.52-.178.562a.783.783,0,0,1-.586.186.728.728,0,0,1-.617-.208,1.54,1.54,0,0,1-.29-.89.767.767,0,0,0-1.53.115,3.005,3.005,0,0,0,.654,1.773Z" transform="translate(-140.642 -108.58)" fill="#161616"/><path d="M243.851,156.859h3.627a.767.767,0,1,0,0-1.534h-3.627a.767.767,0,1,0,0,1.534Z" transform="translate(-219.728 -140.528)" fill="#161616"/><path d="M243.851,183.417H254.99a.767.767,0,0,0,0-1.534H243.851a.767.767,0,1,0,0,1.534Z" transform="translate(-219.728 -163.382)" fill="#161616"/><path d="M243.851,209.976H254.99a.767.767,0,0,0,0-1.534H243.851a.767.767,0,1,0,0,1.534Z" transform="translate(-219.728 -186.237)" fill="#161616"/><path d="M131.932,111.4V94.8a.767.767,0,0,0-.767-.767H118.117a.767.767,0,0,0-.767.767v16.6a.767.767,0,0,0,.767.767h13.049A.767.767,0,0,0,131.932,111.4Zm-1.534-.767H118.884V95.571H130.4Z" transform="translate(-111.528 -87.787)" fill="#161616"/><path d="M153.106,252.313a.767.767,0,1,0,1.265.868l2.035-2.964a.767.767,0,0,0-.493-1.188l-4.069-.752a.767.767,0,1,0-.279,1.508l1.63.3-17.154,6.463a.767.767,0,1,0,.541,1.435l17.038-6.419Z" transform="translate(-127.185 -220.506)" fill="#161616"/><path d="M123.481,103.673h-3.492V80.527a.767.767,0,0,0-.767-.767h-2.715V60.433a4.038,4.038,0,0,0-1.191-2.875l-7.146-7.146a4.038,4.038,0,0,0-2.875-1.191H79.672a4.07,4.07,0,0,0-4.066,4.066v42.5a4.07,4.07,0,0,0,4.066,4.066h8.245l.035,0v3.827h-8.7a.767.767,0,0,0,0,1.534H88.57a.772.772,0,0,0,.149.015h7.926a.771.771,0,0,0,.149-.015h2.9a.771.771,0,0,0,.149.015h7.926a.771.771,0,0,0,.149-.015h15.564a.767.767,0,1,0,0-1.534Zm-5.026-.015h-6.392V81.294h6.392ZM114.2,58.608h-6.768V51.84ZM87.917,98.314H79.672a2.534,2.534,0,0,1-2.532-2.531v-42.5a2.534,2.534,0,0,1,2.532-2.531H105.3a2.543,2.543,0,0,1,.6.074v8.546a.767.767,0,0,0,.767.767h8.293a2.571,2.571,0,0,1,.018.29V79.76H111.3a.767.767,0,0,0-.767.767v23.146h-1.994V85.983a.767.767,0,0,0-.767-.767H99.842a.767.767,0,0,0-.767.767v17.69H97.412V91.929a.767.767,0,0,0-.767-.767H88.719a.767.767,0,0,0-.767.767v6.387l-.035,0Zm12.692,5.359V86.75H107v16.923ZM89.486,92.7h6.392v10.977H89.486Z" transform="translate(-75.606 -49.221)" fill="#161616"/></g></g></g></svg>