<svg xmlns="http://www.w3.org/2000/svg" width="83" height="83" viewBox="0 0 83 83">
  <g id="Grupo_1149617" data-name="Grupo 1149617" transform="translate(14120 10348)">
    <circle id="Elipse_13112" data-name="Elipse 13112" cx="41.5" cy="41.5" r="41.5" transform="translate(-14120 -10348)" fill="#d1ced9"/>
    <g id="layer2" transform="translate(-14102.529 -10330.529)">
      <path id="path5023" d="M5,.794A1.558,1.558,0,0,0,3.44,2.356V23.433A1.558,1.558,0,0,0,5,25H18.534c.912.916,1.842,1.843,2.761,2.762a1.251,1.251,0,0,0,1.772,0c.916-.916,1.851-1.849,2.757-2.762H39.361a1.558,1.558,0,0,0,1.562-1.562V2.356A1.558,1.558,0,0,0,39.361.794Z" transform="translate(5.68 0.516)" fill="#e4eff8"/>
      <path id="path5025" d="M5,.794A1.558,1.558,0,0,0,3.44,2.356V23.434A1.558,1.558,0,0,0,5,25h13.55c.03.035.054.072.087.105L21.3,27.758a1.251,1.251,0,0,0,1.772,0L24.629,26.2a1.251,1.251,0,0,1-1.772,0L20.2,23.539c-.033-.033-.057-.07-.087-.105H6.563A1.558,1.558,0,0,1,5,21.872Z" transform="translate(5.68 0.516)" fill="#c4dcf0"/>
      <path id="path5027" d="M12.205,8.465c-.481.532-1.027,1.047-1.542,1.562h14.6a1.558,1.558,0,0,0,1.562-1.562Z" transform="translate(19.776 15.486)" fill="#c4dcf0"/>
      <path id="path5029" d="M10.73,4.052a4.6,4.6,0,0,1,3.444,4.481V9.3a2.294,2.294,0,0,1-2.287,2.311H7.314A2.294,2.294,0,0,1,5.027,9.3v-.77A4.6,4.6,0,0,1,8.471,4.052" transform="translate(8.777 6.875)" fill="#ffca28"/>
      <path id="path5031" d="M7.12,4.254A4.621,4.621,0,0,0,5.027,8.14V8.91a2.293,2.293,0,0,0,2.287,2.31h4.573a2.278,2.278,0,0,0,2.128-1.474,2.262,2.262,0,0,1-.822.159H8.62A2.293,2.293,0,0,1,6.334,7.6V6.825A4.624,4.624,0,0,1,7.12,4.254Z" transform="translate(8.777 7.268)" fill="#ecb200"/>
      <path id="path5033" d="M17.156,4.052A4.6,4.6,0,0,1,20.6,8.533V9.3a2.294,2.294,0,0,1-2.287,2.311H13.74A2.294,2.294,0,0,1,11.453,9.3v-.77A4.6,4.6,0,0,1,14.9,4.052" transform="translate(21.317 6.875)" fill="#b4d305"/>
      <path id="path5035" d="M13.546,4.254A4.621,4.621,0,0,0,11.453,8.14V8.91a2.293,2.293,0,0,0,2.287,2.31h4.573a2.278,2.278,0,0,0,2.128-1.474,2.262,2.262,0,0,1-.822.159H15.046A2.293,2.293,0,0,1,12.76,7.6V6.825a4.624,4.624,0,0,1,.786-2.571Z" transform="translate(21.317 7.268)" fill="#a5c004"/>
      <path id="path5037" d="M14.754,4.366A5.472,5.472,0,0,1,18.87,9.687V10.6a2.733,2.733,0,0,1-2.733,2.744H10.671A2.733,2.733,0,0,1,7.937,10.6V9.687a5.472,5.472,0,0,1,4.116-5.321" transform="translate(14.457 7.487)" fill="#549ad4"/>
      <path id="path5039" d="M10.439,4.6a5.479,5.479,0,0,0-2.5,4.615v.915a2.732,2.732,0,0,0,2.733,2.744h5.466a2.723,2.723,0,0,0,2.544-1.751,2.72,2.72,0,0,1-.982.189H12.232A2.732,2.732,0,0,1,9.5,8.573V7.658a5.466,5.466,0,0,1,.94-3.053Z" transform="translate(14.457 7.954)" fill="#3588cb"/>
      <path id="path5041" d="M32.838,10.586a2.675,2.675,0,0,0-1.534.358l-7.769,4.5a2.266,2.266,0,0,0,.209-.944,2.364,2.364,0,0,0-2.405-2.332H10.118L6.5,13.714H3.44V24.873H6.267c1.418,0,6.382,2.117,9.218,2.117C19.009,26.817,34,15.627,34,15.627a2.708,2.708,0,0,0-1.158-5.041Z" transform="translate(5.68 19.613)" fill="#ffc6a0"/>
      <path id="path5043" d="M3.44,11.642V22.8H6.267c1.418,0,6.382,2.117,9.218,2.117a12.265,12.265,0,0,0,4.071-1.682,3.727,3.727,0,0,1-.7.122c-3.263,0-8.973-2.344-10.6-2.344H5V11.642Z" transform="translate(5.68 21.686)" fill="#ffaf7a"/>
      <path id="path5045" d="M2.212,10.848H7.185A1.446,1.446,0,0,1,8.6,12.326V24.988a1.446,1.446,0,0,1-1.418,1.478H2.212A1.446,1.446,0,0,1,.794,24.988V12.326a1.446,1.446,0,0,1,1.418-1.478Z" transform="translate(0.516 20.137)" fill="#22cac5"/>
      <path id="path5047" d="M2.212,10.848A1.446,1.446,0,0,0,.794,12.326V24.988a1.446,1.446,0,0,0,1.418,1.478H7.184A1.446,1.446,0,0,0,8.6,24.988V24.9H3.774a1.446,1.446,0,0,1-1.418-1.478V10.848Z" transform="translate(0.516 20.137)" fill="#116562"/>
      <path id="path5050" d="M10.918,5.011A2.613,2.613,0,1,1,8.3,2.381,2.622,2.622,0,0,1,10.918,5.011Z" transform="translate(10.073 3.614)" fill="#ffc6a0"/>
      <path id="path5053" d="M5.691,4.855a2.609,2.609,0,0,0,4.994,1.079A2.6,2.6,0,0,1,7,3.54,2.644,2.644,0,0,1,7.23,2.461,2.631,2.631,0,0,0,5.691,4.855Z" transform="translate(10.073 3.77)" fill="#ffaf7a"/>
      <path id="path5055" d="M17.344,5.011a2.613,2.613,0,1,1-2.613-2.63A2.622,2.622,0,0,1,17.344,5.011Z" transform="translate(22.613 3.614)" fill="#ffc6a0"/>
      <path id="path5058" d="M12.117,4.855a2.609,2.609,0,0,0,4.994,1.079A2.6,2.6,0,0,1,13.424,3.54a2.645,2.645,0,0,1,.232-1.079,2.631,2.631,0,0,0-1.539,2.394Z" transform="translate(22.613 3.77)" fill="#ffaf7a"/>
      <path id="path5060" d="M14.978,5.5a3.124,3.124,0,1,1-3.124-3.124A3.124,3.124,0,0,1,14.978,5.5Z" transform="translate(16.006 3.614)" fill="#ffc6a0"/>
      <path id="path5062" d="M8.731,5.319A3.122,3.122,0,0,0,14.7,6.6a3.118,3.118,0,0,1-4.13-4.124A3.124,3.124,0,0,0,8.731,5.319Z" transform="translate(16.006 3.8)" fill="#ffaf7a"/>
      <path id="path5064" d="M10.681.529A2.333,2.333,0,0,0,8.341,2.87V23.95a2.332,2.332,0,0,0,2.34,2.341H23.9c.827.858,1.69,1.707,2.52,2.536a2.034,2.034,0,0,0,2.877,0c.835-.833,1.687-1.69,2.514-2.536h13.23a2.339,2.339,0,0,0,2.34-2.341V2.87A2.337,2.337,0,0,0,45.044.529Zm0,1.563H45.044a.774.774,0,0,1,.778.778V23.95a.773.773,0,0,1-.778.779H31.491a.781.781,0,0,0-.564.236c-.883.91-1.819,1.843-2.733,2.755a.469.469,0,0,1-.668,0c-.92-.92-1.859-1.837-2.727-2.75a.781.781,0,0,0-.564-.241H10.681A.77.77,0,0,1,9.9,23.95V2.87a.772.772,0,0,1,.778-.778Zm7.7,3.124A3.41,3.41,0,0,0,15.7,10.724a5.4,5.4,0,0,0-2.683,4.684v.773a3.077,3.077,0,0,0,3.073,3.089h4.571a2.936,2.936,0,0,0,1.086-.2,3.526,3.526,0,0,0,3.375,2.547h5.465a3.516,3.516,0,0,0,3.378-2.547,2.959,2.959,0,0,0,1.091.2h4.571A3.076,3.076,0,0,0,42.7,16.181v-.773a5.393,5.393,0,0,0-2.677-4.685,3.392,3.392,0,1,0-5.349,0,5.347,5.347,0,0,0-2.131,2.288,6.035,6.035,0,0,0-1.711-1.36,3.9,3.9,0,1,0-6.873-2.533,3.922,3.922,0,0,0,.935,2.535,6.152,6.152,0,0,0-1.708,1.359,5.384,5.384,0,0,0-2.132-2.289,3.41,3.41,0,0,0-2.674-5.508Zm0,1.562a1.848,1.848,0,1,1-1.833,1.845,1.838,1.838,0,0,1,1.833-1.845Zm9.482,0a2.34,2.34,0,1,1-2.34,2.341,2.346,2.346,0,0,1,2.34-2.341Zm9.485,0a1.848,1.848,0,1,1-1.833,1.845,1.836,1.836,0,0,1,1.833-1.845Zm-17.7,5.007a3.822,3.822,0,0,1,2.462,2.927,6.2,6.2,0,0,0-.494,2.46v.194a1.484,1.484,0,0,1-.952.342H16.094a1.516,1.516,0,0,1-1.51-1.527v-.773a3.841,3.841,0,0,1,2.521-3.621,3.34,3.34,0,0,0,1.272.249,3.3,3.3,0,0,0,1.272-.25Zm18.97,0a3.826,3.826,0,0,1,2.515,3.621v.773a1.509,1.509,0,0,1-1.5,1.527H35.06a1.482,1.482,0,0,1-.952-.339v-.2a6.262,6.262,0,0,0-.5-2.449,3.8,3.8,0,0,1,2.457-2.933,3.414,3.414,0,0,0,2.55,0Zm-9.24.929a4.7,4.7,0,0,1,3.166,4.457v.917a1.955,1.955,0,0,1-1.955,1.966H25.126a1.961,1.961,0,0,1-1.954-1.966v-.917a4.7,4.7,0,0,1,3.172-4.454,3.833,3.833,0,0,0,1.515.3,3.9,3.9,0,0,0,1.521-.305Zm9.043,16.7a3.434,3.434,0,0,0-1.83.471l-6.43,3.726A3.169,3.169,0,0,0,27.017,31H15.8a.783.783,0,0,0-.305.063l-3.47,1.482H9.9v-.081A2.231,2.231,0,0,0,7.7,30.2H2.725a2.222,2.222,0,0,0-2.2,2.26V45.125a2.227,2.227,0,0,0,2.2,2.259H7.7A2.223,2.223,0,0,0,9.9,45.268h2.053a6.59,6.59,0,0,1,1.425.3c.69.193,1.533.459,2.427.726a20.547,20.547,0,0,0,5.367,1.089H21.2a13.556,13.556,0,0,0,4.727-1.948c1.931-1.091,4.145-2.516,6.249-3.932C36.345,38.7,40,35.97,40.068,35.918a3.493,3.493,0,0,0-1.045-6.438,3.146,3.146,0,0,0-.6-.069Zm.038,1.565a1.892,1.892,0,0,1,1.521.958,1.924,1.924,0,0,1-.7,2.629.8.8,0,0,0-.075.052s-3.736,2.786-7.9,5.591c-2.084,1.4-4.275,2.812-6.145,3.868a12.814,12.814,0,0,1-4.023,1.74,20.009,20.009,0,0,1-4.888-1.02c-.88-.263-1.719-.536-2.449-.732a7.752,7.752,0,0,0-1.852-.357H9.9v-9.6h2.282a.78.78,0,0,0,.307-.064l3.464-1.481H27.017a1.555,1.555,0,1,1,0,3.107H19.269a.782.782,0,0,0,0,1.563h7.748a3.222,3.222,0,0,0,2.8-1.617l7.562-4.385a1.887,1.887,0,0,1,1.084-.255Zm-35.736.792H7.7a.665.665,0,0,1,.641.7q0,6.32,0,12.659a.671.671,0,0,1-.641.7H2.725a.659.659,0,0,1-.633-.7V32.465a.663.663,0,0,1,.633-.7ZM4.434,42.7a.781.781,0,1,0,.781.781A.781.781,0,0,0,4.434,42.7Z" transform="translate(0 0)"/>
    </g>
  </g>
</svg>
