<svg xmlns="http://www.w3.org/2000/svg" width="83" height="83" viewBox="0 0 83 83">
  <g id="Grupo_1149618" data-name="Grupo 1149618" transform="translate(-1231.668 -1258)">
    <circle id="Elipse_9665" data-name="Elipse 9665" cx="41.5" cy="41.5" r="41.5" transform="translate(1231.668 1258)" fill="#d1ced9"/>
    <g id="Grupo_1149608" data-name="Grupo 1149608" transform="translate(1245.928 1272.259)">
      <g id="Grupo_1149566" data-name="Grupo 1149566" transform="translate(4.235 1.741)">
        <g id="Grupo_1149527" data-name="Grupo 1149527" transform="translate(2.268 0.377)">
          <g id="Grupo_1149526" data-name="Grupo 1149526">
            <path id="Trazado_1008625" data-name="Trazado 1008625" d="M0,0H44.743V31.894H0Z" transform="translate(0 43.982) rotate(-79.342)" fill="#d5dce5"/>
          </g>
        </g>
        <g id="Grupo_1149529" data-name="Grupo 1149529" transform="translate(1.866)">
          <g id="Grupo_1149528" data-name="Grupo 1149528">
            <path id="Trazado_1008626" data-name="Trazado 1008626" d="M38.861,52.389a.224.224,0,0,1-.073-.008l-31.344-5.9a.384.384,0,0,1-.251-.162.412.412,0,0,1-.065-.292L15.416,2.056a.387.387,0,0,1,.454-.308l31.344,5.9a.384.384,0,0,1,.251.162.4.4,0,0,1,.065.292L39.242,52.073a.383.383,0,0,1-.381.316Zm-30.882-6.6,30.574,5.76,8.134-43.2L16.113,2.583Z" transform="translate(-7.124 -1.741)"/>
          </g>
        </g>
        <g id="Grupo_1149530" data-name="Grupo 1149530" transform="translate(0.397 5.516)">
          <path id="Trazado_1008627" data-name="Trazado 1008627" d="M5.31,8.55H38.525V53.293H5.31Z" transform="translate(-5.31 -8.55)" fill="#f1f3f6"/>
        </g>
        <g id="Grupo_1149531" data-name="Grupo 1149531" transform="translate(0.389 5.516)">
          <path id="Trazado_1008628" data-name="Trazado 1008628" d="M5.3,8.55H38.515V53.293H5.3Z" transform="translate(-5.3 -8.55)" fill="#f1f3f6"/>
        </g>
        <g id="Grupo_1149532" data-name="Grupo 1149532" transform="translate(0.389 24.546)">
          <path id="Trazado_1008629" data-name="Trazado 1008629" d="M38.515,32.04V57.753H5.3S38.515,55.914,38.515,32.04Z" transform="translate(-5.3 -32.04)" fill="#d5dce5"/>
        </g>
        <g id="Grupo_1149533" data-name="Grupo 1149533" transform="translate(0 5.127)">
          <path id="Trazado_1008630" data-name="Trazado 1008630" d="M38.424,53.591H5.209A.389.389,0,0,1,4.82,53.2V8.459a.389.389,0,0,1,.389-.389H38.424a.389.389,0,0,1,.389.389V53.2A.389.389,0,0,1,38.424,53.591ZM5.606,52.813H38.035V8.848H5.606Z" transform="translate(-4.82 -8.07)"/>
        </g>
        <g id="Grupo_1149544" data-name="Grupo 1149544" transform="translate(6.141 9.072)">
          <g id="Grupo_1149540" data-name="Grupo 1149540" transform="translate(0 4.683)">
            <g id="Grupo_1149534" data-name="Grupo 1149534" transform="translate(0.381 7.947)">
              <path id="Trazado_1008631" data-name="Trazado 1008631" d="M12.87,28.53h3.192v3.621H12.87Z" transform="translate(-12.87 -28.53)" fill="#22cac5"/>
            </g>
            <g id="Grupo_1149535" data-name="Grupo 1149535" transform="translate(0 7.558)">
              <path id="Trazado_1008632" data-name="Trazado 1008632" d="M15.981,32.449H12.789a.389.389,0,0,1-.389-.389V28.439a.389.389,0,0,1,.389-.389h3.192a.389.389,0,0,1,.389.389V32.06A.389.389,0,0,1,15.981,32.449Zm-2.811-.778h2.414V28.828H13.17Z" transform="translate(-12.4 -28.05)"/>
            </g>
            <g id="Grupo_1149536" data-name="Grupo 1149536" transform="translate(6.303 4.415)">
              <path id="Trazado_1008633" data-name="Trazado 1008633" d="M20.18,24.17h3.192v7.153H20.18Z" transform="translate(-20.18 -24.17)" fill="#b15815"/>
            </g>
            <g id="Grupo_1149537" data-name="Grupo 1149537" transform="translate(5.914 4.026)">
              <path id="Trazado_1008634" data-name="Trazado 1008634" d="M23.281,31.621H20.089a.389.389,0,0,1-.389-.389V24.079a.389.389,0,0,1,.389-.389h3.192a.389.389,0,0,1,.389.389v7.153A.384.384,0,0,1,23.281,31.621Zm-2.8-.778h2.414V24.468H20.478Z" transform="translate(-19.7 -23.69)"/>
            </g>
            <g id="Grupo_1149538" data-name="Grupo 1149538" transform="translate(12.225 0.389)">
              <path id="Trazado_1008635" data-name="Trazado 1008635" d="M27.49,19.2h3.192V30.38H27.49Z" transform="translate(-27.49 -19.2)" fill="#a59eb3"/>
            </g>
            <g id="Grupo_1149539" data-name="Grupo 1149539" transform="translate(11.828)">
              <path id="Trazado_1008636" data-name="Trazado 1008636" d="M30.589,30.677H27.4a.391.391,0,0,1-.4-.389V19.109a.389.389,0,0,1,.389-.389h3.192a.389.389,0,0,1,.389.389v11.18A.377.377,0,0,1,30.589,30.677Zm-2.8-.778H30.2V19.5H27.786Z" transform="translate(-27 -18.72)"/>
            </g>
          </g>
          <g id="Grupo_1149543" data-name="Grupo 1149543" transform="translate(17.75)">
            <g id="Grupo_1149541" data-name="Grupo 1149541" transform="translate(0.389 0.389)">
              <path id="Trazado_1008637" data-name="Trazado 1008637" d="M34.79,13.42h3.192V29.282H34.79Z" transform="translate(-34.79 -13.42)" fill="#22cac5"/>
            </g>
            <g id="Grupo_1149542" data-name="Grupo 1149542">
              <path id="Trazado_1008638" data-name="Trazado 1008638" d="M37.891,29.58H34.7a.389.389,0,0,1-.389-.389V13.329a.389.389,0,0,1,.389-.389h3.192a.389.389,0,0,1,.389.389V29.191A.379.379,0,0,1,37.891,29.58Zm-2.8-.778H37.5V13.718H35.088Z" transform="translate(-34.31 -12.94)"/>
            </g>
          </g>
        </g>
        <g id="Grupo_1149545" data-name="Grupo 1149545" transform="translate(4.018 28.337)">
          <path id="Trazado_1008639" data-name="Trazado 1008639" d="M9.78,36.72H35.744v2.892H9.78Z" transform="translate(-9.78 -36.72)" fill="#ff9a9a"/>
        </g>
        <g id="Grupo_1149546" data-name="Grupo 1149546" transform="translate(3.629 27.948)">
          <path id="Trazado_1008640" data-name="Trazado 1008640" d="M35.653,39.91H9.689a.389.389,0,0,1-.389-.389V36.629a.389.389,0,0,1,.389-.389H35.653a.389.389,0,0,1,.389.389v2.892A.389.389,0,0,1,35.653,39.91Zm-25.576-.778H35.264V37.018H10.078Z" transform="translate(-9.3 -36.24)"/>
        </g>
        <g id="Grupo_1149549" data-name="Grupo 1149549" transform="translate(6.133 9.072)">
          <g id="Grupo_1149547" data-name="Grupo 1149547" transform="translate(0 0.988)">
            <path id="Trazado_1008641" data-name="Trazado 1008641" d="M14.82,19.393H12.779a.389.389,0,0,1,0-.778H14.82a.453.453,0,0,0,.454-.454v-.543a.453.453,0,0,0-.454-.454h-1.2a1.231,1.231,0,0,1-1.231-1.231v-.543a1.231,1.231,0,0,1,1.231-1.231h2.042a.389.389,0,1,1,0,.778H13.621a.453.453,0,0,0-.454.454v.543a.453.453,0,0,0,.454.454h1.2a1.231,1.231,0,0,1,1.231,1.231v.543a1.231,1.231,0,0,1-1.231,1.231Z" transform="translate(-12.39 -14.16)"/>
          </g>
          <g id="Grupo_1149548" data-name="Grupo 1149548" transform="translate(1.45)">
            <path id="Trazado_1008642" data-name="Trazado 1008642" d="M14.569,20.15a.389.389,0,0,1-.389-.389V13.329a.389.389,0,0,1,.778,0v6.432A.394.394,0,0,1,14.569,20.15Z" transform="translate(-14.18 -12.94)"/>
          </g>
        </g>
        <g id="Grupo_1149561" data-name="Grupo 1149561" transform="translate(3.629 39.679)">
          <g id="Grupo_1149560" data-name="Grupo 1149560">
            <g id="Grupo_1149550" data-name="Grupo 1149550" transform="translate(0.389 0.389)">
              <path id="Trazado_1008643" data-name="Trazado 1008643" d="M9.78,51.2h6.23v6.23H9.78Z" transform="translate(-9.78 -51.2)" fill="#b9dd53"/>
            </g>
            <g id="Grupo_1149551" data-name="Grupo 1149551" transform="translate(0.389 0.389)">
              <path id="Trazado_1008644" data-name="Trazado 1008644" d="M9.78,51.2h6.23v6.23H9.78Z" transform="translate(-9.78 -51.2)" fill="#b9dd53"/>
            </g>
            <g id="Grupo_1149552" data-name="Grupo 1149552" transform="translate(0.389 0.389)">
              <path id="Trazado_1008645" data-name="Trazado 1008645" d="M16.01,51.2v6.23H9.78v-.948A5.325,5.325,0,0,0,15.062,51.2Z" transform="translate(-9.78 -51.2)" fill="#a3c134"/>
            </g>
            <g id="Grupo_1149553" data-name="Grupo 1149553">
              <path id="Trazado_1008646" data-name="Trazado 1008646" d="M15.919,57.728H9.689a.389.389,0,0,1-.389-.389v-6.23a.389.389,0,0,1,.389-.389h6.23a.389.389,0,0,1,.389.389v6.23A.389.389,0,0,1,15.919,57.728Zm-5.841-.778H15.53V51.5H10.078Z" transform="translate(-9.3 -50.72)"/>
            </g>
            <g id="Grupo_1149554" data-name="Grupo 1149554" transform="translate(1.91 0.006)">
              <path id="Trazado_1008647" data-name="Trazado 1008647" d="M13.247,55.42a.386.386,0,0,1-.275-.113l-1.2-1.2a.39.39,0,1,1,.551-.551l.924.924,3.637-3.637a.39.39,0,0,1,.551.551l-3.913,3.913a.386.386,0,0,1-.275.113Z" transform="translate(-11.658 -50.728)"/>
            </g>
            <g id="Grupo_1149555" data-name="Grupo 1149555" transform="translate(25.122 3.119)">
              <path id="Trazado_1008648" data-name="Trazado 1008648" d="M41.541,55.348H40.7a.389.389,0,0,1-.389-.389.394.394,0,0,1,.389-.389h.843a.389.389,0,1,1,0,.778Z" transform="translate(-40.31 -54.57)"/>
            </g>
            <g id="Grupo_1149556" data-name="Grupo 1149556" transform="translate(13.772 3.119)">
              <path id="Trazado_1008649" data-name="Trazado 1008649" d="M36.062,55.348H26.689a.389.389,0,0,1-.389-.389.394.394,0,0,1,.389-.389h9.373a.389.389,0,0,1,.389.389A.394.394,0,0,1,36.062,55.348Z" transform="translate(-26.3 -54.57)"/>
            </g>
            <g id="Grupo_1149557" data-name="Grupo 1149557" transform="translate(8.709 3.119)">
              <path id="Trazado_1008650" data-name="Trazado 1008650" d="M22.043,55.348h-1.6a.389.389,0,0,1-.389-.389.394.394,0,0,1,.389-.389h1.6a.389.389,0,0,1,0,.778Z" transform="translate(-20.05 -54.57)"/>
            </g>
            <g id="Grupo_1149558" data-name="Grupo 1149558" transform="translate(22.359 6.23)">
              <path id="Trazado_1008651" data-name="Trazado 1008651" d="M40.894,59.188H37.289a.389.389,0,0,1,0-.778h3.605a.389.389,0,0,1,.389.389A.384.384,0,0,1,40.894,59.188Z" transform="translate(-36.9 -58.41)"/>
            </g>
            <g id="Grupo_1149559" data-name="Grupo 1149559" transform="translate(8.709 6.23)">
              <path id="Trazado_1008652" data-name="Trazado 1008652" d="M22.043,59.188h-1.6a.389.389,0,0,1,0-.778h1.6a.389.389,0,0,1,.389.389A.384.384,0,0,1,22.043,59.188Z" transform="translate(-20.05 -58.41)"/>
            </g>
          </g>
        </g>
        <g id="Grupo_1149562" data-name="Grupo 1149562" transform="translate(9.859 33.481)">
          <path id="Trazado_1008653" data-name="Trazado 1008653" d="M37.113,43.848H17.379a.389.389,0,0,1,0-.778H37.113a.389.389,0,0,1,.389.389A.384.384,0,0,1,37.113,43.848Z" transform="translate(-16.99 -43.07)"/>
        </g>
        <g id="Grupo_1149563" data-name="Grupo 1149563" transform="translate(3.629 33.481)">
          <path id="Trazado_1008654" data-name="Trazado 1008654" d="M13.8,43.848H9.689a.389.389,0,0,1,0-.778h4.1a.389.389,0,0,1,.389.389.377.377,0,0,1-.381.389Z" transform="translate(-9.3 -43.07)"/>
        </g>
        <g id="Grupo_1149564" data-name="Grupo 1149564" transform="translate(23.89 36.39)">
          <path id="Trazado_1008655" data-name="Trazado 1008655" d="M40.4,47.438H34.7a.389.389,0,0,1,0-.778h5.7a.389.389,0,0,1,0,.778Z" transform="translate(-34.31 -46.66)"/>
        </g>
        <g id="Grupo_1149565" data-name="Grupo 1149565" transform="translate(3.629 36.39)">
          <path id="Trazado_1008656" data-name="Trazado 1008656" d="M27.746,47.438H9.689a.389.389,0,0,1,0-.778H27.746a.389.389,0,0,1,.389.389A.394.394,0,0,1,27.746,47.438Z" transform="translate(-9.3 -46.66)"/>
        </g>
      </g>
      <g id="Grupo_1149567" data-name="Grupo 1149567" transform="translate(51.133 51.611)">
        <path id="Trazado_1008657" data-name="Trazado 1008657" d="M63.577,64.078H63.1a.389.389,0,1,1,0-.778h.478a.389.389,0,0,1,.389.389A.394.394,0,0,1,63.577,64.078Z" transform="translate(-62.71 -63.3)"/>
      </g>
      <g id="Grupo_1149568" data-name="Grupo 1149568" transform="translate(45.803 51.611)">
        <path id="Trazado_1008658" data-name="Trazado 1008658" d="M60.472,64.078H56.519a.389.389,0,1,1,0-.778h3.953a.389.389,0,0,1,.389.389A.394.394,0,0,1,60.472,64.078Z" transform="translate(-56.13 -63.3)"/>
      </g>
      <g id="Grupo_1149569" data-name="Grupo 1149569" transform="translate(3.133 51.611)">
        <path id="Trazado_1008659" data-name="Trazado 1008659" d="M44.954,64.078H3.849a.389.389,0,1,1,0-.778H44.963a.389.389,0,0,1,.389.389.4.4,0,0,1-.4.389Z" transform="translate(-3.46 -63.3)"/>
      </g>
      <g id="Grupo_1149570" data-name="Grupo 1149570" transform="translate(1.74 51.611)">
        <path id="Trazado_1008660" data-name="Trazado 1008660" d="M2.429,64.078h-.3a.389.389,0,1,1,0-.778h.292a.389.389,0,0,1,.389.389A.382.382,0,0,1,2.429,64.078Z" transform="translate(-1.74 -63.3)"/>
      </g>
      <g id="Grupo_1149581" data-name="Grupo 1149581" transform="translate(45.009 19.968)">
        <g id="Grupo_1149571" data-name="Grupo 1149571" transform="translate(0.843 13.383)">
          <path id="Trazado_1008661" data-name="Trazado 1008661" d="M56.19,40.76h3.929V55.423H56.19Z" transform="translate(-56.19 -40.76)" fill="#ffca6b"/>
        </g>
        <g id="Grupo_1149572" data-name="Grupo 1149572" transform="translate(0.397 2.965)">
          <path id="Trazado_1008662" data-name="Trazado 1008662" d="M55.64,27.9h4.82V38.31H55.64Z" transform="translate(-55.64 -27.9)" fill="#22cac5"/>
        </g>
        <g id="Grupo_1149573" data-name="Grupo 1149573" transform="translate(1.782 0.381)">
          <path id="Trazado_1008663" data-name="Trazado 1008663" d="M59.392,25.731v1.564H57.35V25.731a1.021,1.021,0,1,1,2.042,0Z" transform="translate(-57.35 -24.71)" fill="#323535"/>
        </g>
        <g id="Grupo_1149574" data-name="Grupo 1149574" transform="translate(1.709 28.046)">
          <path id="Trazado_1008664" data-name="Trazado 1008664" d="M57.26,58.86h2.187V60.6H57.26Z" transform="translate(-57.26 -58.86)" fill="#726ad3"/>
        </g>
        <g id="Grupo_1149575" data-name="Grupo 1149575" transform="translate(0.454 12.994)">
          <path id="Trazado_1008665" data-name="Trazado 1008665" d="M60.028,55.721H56.1a.389.389,0,0,1-.389-.389V40.669a.389.389,0,0,1,.389-.389h3.929a.389.389,0,0,1,.389.389V55.332A.389.389,0,0,1,60.028,55.721Zm-3.54-.778h3.151V41.058H56.488Z" transform="translate(-55.71 -40.28)"/>
        </g>
        <g id="Grupo_1149576" data-name="Grupo 1149576" transform="translate(0.008 2.576)">
          <path id="Trazado_1008666" data-name="Trazado 1008666" d="M60.369,38.616h-4.82a.389.389,0,0,1-.389-.389V27.809a.389.389,0,0,1,.389-.389h4.82a.389.389,0,0,1,.389.389v10.41A.4.4,0,0,1,60.369,38.616Zm-4.431-.778H59.98V28.206H55.938Z" transform="translate(-55.16 -27.42)"/>
        </g>
        <g id="Grupo_1149577" data-name="Grupo 1149577" transform="translate(1.393)">
          <path id="Trazado_1008667" data-name="Trazado 1008667" d="M59.3,27.6H57.259a.389.389,0,0,1-.389-.389V25.65a1.41,1.41,0,0,1,2.819,0v1.564a.389.389,0,0,1-.389.389Zm-1.645-.786h1.256V25.642a.632.632,0,1,0-1.264,0v1.175Z" transform="translate(-56.87 -24.24)"/>
        </g>
        <g id="Grupo_1149578" data-name="Grupo 1149578" transform="translate(0 4.585)">
          <path id="Trazado_1008668" data-name="Trazado 1008668" d="M62.141,40.1a.389.389,0,0,1-.389-.389V31.617a.94.94,0,0,0-.94-.94H55.539a.389.389,0,1,1,0-.778h5.274a1.718,1.718,0,0,1,1.717,1.717V39.7a.4.4,0,0,1-.389.4Z" transform="translate(-55.15 -29.9)"/>
        </g>
        <g id="Grupo_1149579" data-name="Grupo 1149579" transform="translate(1.32 27.666)">
          <path id="Trazado_1008669" data-name="Trazado 1008669" d="M59.356,60.909H57.169a.389.389,0,0,1-.389-.389V58.779a.389.389,0,0,1,.389-.389h2.187a.389.389,0,0,1,.389.389v1.742A.389.389,0,0,1,59.356,60.909Zm-1.8-.786h1.41V59.16h-1.41Z" transform="translate(-56.78 -58.39)"/>
        </g>
        <g id="Grupo_1149580" data-name="Grupo 1149580" transform="translate(2.414 29.407)">
          <path id="Trazado_1008670" data-name="Trazado 1008670" d="M58.519,63.554a.389.389,0,0,1-.389-.389V60.929a.389.389,0,0,1,.778,0v2.236A.389.389,0,0,1,58.519,63.554Z" transform="translate(-58.13 -60.54)"/>
        </g>
      </g>
      <g id="Grupo_1149582" data-name="Grupo 1149582" transform="translate(40.586 14.898)">
        <path id="Trazado_1008671" data-name="Trazado 1008671" d="M51.612,18.45,50.17,26.106" transform="translate(-49.782 -18.07)"/>
        <path id="Trazado_1008672" data-name="Trazado 1008672" d="M50.079,26.414a.224.224,0,0,1-.073-.008.387.387,0,0,1-.308-.454L51.14,18.3a.388.388,0,0,1,.762.146L50.46,26.1A.391.391,0,0,1,50.079,26.414Z" transform="translate(-49.691 -17.981)" fill="#fff"/>
      </g>
      <g id="Grupo_1149583" data-name="Grupo 1149583" transform="translate(42.401 11.771)">
        <path id="Trazado_1008673" data-name="Trazado 1008673" d="M52.621,14.61l-.211,1.11" transform="translate(-52.022 -14.214)"/>
        <path id="Trazado_1008674" data-name="Trazado 1008674" d="M52.319,16.016a.224.224,0,0,1-.073-.008.387.387,0,0,1-.308-.454l.211-1.118a.388.388,0,0,1,.762.146L52.7,15.7a.383.383,0,0,1-.381.316Z" transform="translate(-51.931 -14.121)" fill="#fff"/>
      </g>
      <g id="Grupo_1149607" data-name="Grupo 1149607" transform="translate(20.049 42.311)">
        <g id="Grupo_1149596" data-name="Grupo 1149596">
          <g id="Grupo_1149586" data-name="Grupo 1149586" transform="translate(6.287 4.65)">
            <g id="Grupo_1149584" data-name="Grupo 1149584" transform="translate(0.389 0.389)">
              <path id="Trazado_1008675" data-name="Trazado 1008675" d="M32.58,58.04H48.839v4.65H32.58Z" transform="translate(-32.58 -58.04)" fill="#7b3d0e"/>
            </g>
            <g id="Grupo_1149585" data-name="Grupo 1149585">
              <path id="Trazado_1008676" data-name="Trazado 1008676" d="M48.748,62.988H32.489A.389.389,0,0,1,32.1,62.6v-4.65a.389.389,0,0,1,.389-.389H48.748a.389.389,0,0,1,.389.389V62.6A.394.394,0,0,1,48.748,62.988Zm-15.87-.778H48.359V58.338H32.878Z" transform="translate(-32.1 -57.56)"/>
            </g>
          </g>
          <g id="Grupo_1149589" data-name="Grupo 1149589" transform="translate(3.751)">
            <g id="Grupo_1149587" data-name="Grupo 1149587" transform="translate(0.389 0.381)">
              <path id="Trazado_1008677" data-name="Trazado 1008677" d="M29.45,52.29H45.709v4.65H29.45Z" transform="translate(-29.45 -52.29)" fill="#7b3d0e"/>
            </g>
            <g id="Grupo_1149588" data-name="Grupo 1149588">
              <path id="Trazado_1008678" data-name="Trazado 1008678" d="M45.61,57.248H29.359a.389.389,0,0,1-.389-.389v-4.65a.389.389,0,0,1,.389-.389H45.618a.389.389,0,0,1,.389.389v4.65a.4.4,0,0,1-.4.389ZM29.748,56.47H45.229V52.6H29.748Z" transform="translate(-28.97 -51.82)"/>
            </g>
          </g>
          <g id="Grupo_1149592" data-name="Grupo 1149592" transform="translate(2.536 4.65)">
            <g id="Grupo_1149590" data-name="Grupo 1149590" transform="translate(0.389 0.389)">
              <path id="Trazado_1008679" data-name="Trazado 1008679" d="M27.95,58.04H44.209v4.65H27.95Z" transform="translate(-27.95 -58.04)" fill="#b15815"/>
            </g>
            <g id="Grupo_1149591" data-name="Grupo 1149591">
              <path id="Trazado_1008680" data-name="Trazado 1008680" d="M44.118,62.988H27.859a.389.389,0,0,1-.389-.389v-4.65a.389.389,0,0,1,.389-.389H44.118a.389.389,0,0,1,.389.389V62.6A.389.389,0,0,1,44.118,62.988ZM28.256,62.21H43.737V58.338H28.256Z" transform="translate(-27.47 -57.56)"/>
            </g>
          </g>
          <g id="Grupo_1149595" data-name="Grupo 1149595">
            <g id="Grupo_1149593" data-name="Grupo 1149593" transform="translate(0.389 0.381)">
              <path id="Trazado_1008681" data-name="Trazado 1008681" d="M24.82,52.29H41.079v4.65H24.82Z" transform="translate(-24.82 -52.29)" fill="#b15815"/>
            </g>
            <g id="Grupo_1149594" data-name="Grupo 1149594">
              <path id="Trazado_1008682" data-name="Trazado 1008682" d="M40.988,57.248H24.729a.389.389,0,0,1-.389-.389v-4.65a.389.389,0,0,1,.389-.389H40.988a.389.389,0,0,1,.389.389v4.65A.389.389,0,0,1,40.988,57.248Zm-15.87-.778H40.6V52.6H25.118Z" transform="translate(-24.34 -51.82)"/>
            </g>
          </g>
        </g>
        <g id="Grupo_1149601" data-name="Grupo 1149601" transform="translate(5.695 4.65)">
          <g id="Grupo_1149597" data-name="Grupo 1149597">
            <path id="Trazado_1008683" data-name="Trazado 1008683" d="M31.759,62.988a.389.389,0,0,1-.389-.389v-4.65a.389.389,0,0,1,.778,0V62.6A.394.394,0,0,1,31.759,62.988Z" transform="translate(-31.37 -57.56)"/>
          </g>
          <g id="Grupo_1149598" data-name="Grupo 1149598" transform="translate(3.313)">
            <path id="Trazado_1008684" data-name="Trazado 1008684" d="M35.849,62.988a.389.389,0,0,1-.389-.389v-4.65a.389.389,0,0,1,.778,0V62.6A.389.389,0,0,1,35.849,62.988Z" transform="translate(-35.46 -57.56)"/>
          </g>
          <g id="Grupo_1149599" data-name="Grupo 1149599" transform="translate(6.635)">
            <path id="Trazado_1008685" data-name="Trazado 1008685" d="M39.949,62.988a.389.389,0,0,1-.389-.389v-4.65a.389.389,0,0,1,.778,0V62.6A.394.394,0,0,1,39.949,62.988Z" transform="translate(-39.56 -57.56)"/>
          </g>
          <g id="Grupo_1149600" data-name="Grupo 1149600" transform="translate(9.948)">
            <path id="Trazado_1008686" data-name="Trazado 1008686" d="M44.039,62.988a.389.389,0,0,1-.389-.389v-4.65a.389.389,0,0,1,.389-.389.394.394,0,0,1,.389.389V62.6A.394.394,0,0,1,44.039,62.988Z" transform="translate(-43.65 -57.56)"/>
          </g>
        </g>
        <g id="Grupo_1149606" data-name="Grupo 1149606" transform="translate(3.159)">
          <g id="Grupo_1149602" data-name="Grupo 1149602">
            <path id="Trazado_1008687" data-name="Trazado 1008687" d="M28.629,57.248a.389.389,0,0,1-.389-.389v-4.65a.389.389,0,1,1,.778,0v4.65A.394.394,0,0,1,28.629,57.248Z" transform="translate(-28.24 -51.82)"/>
          </g>
          <g id="Grupo_1149603" data-name="Grupo 1149603" transform="translate(3.313)">
            <path id="Trazado_1008688" data-name="Trazado 1008688" d="M32.719,57.248a.389.389,0,0,1-.389-.389v-4.65a.389.389,0,1,1,.778,0v4.65A.394.394,0,0,1,32.719,57.248Z" transform="translate(-32.33 -51.82)"/>
          </g>
          <g id="Grupo_1149604" data-name="Grupo 1149604" transform="translate(6.627)">
            <path id="Trazado_1008689" data-name="Trazado 1008689" d="M36.809,57.248a.389.389,0,0,1-.389-.389v-4.65a.389.389,0,0,1,.778,0v4.65A.389.389,0,0,1,36.809,57.248Z" transform="translate(-36.42 -51.82)"/>
          </g>
          <g id="Grupo_1149605" data-name="Grupo 1149605" transform="translate(9.948)">
            <path id="Trazado_1008690" data-name="Trazado 1008690" d="M40.909,57.248a.389.389,0,0,1-.389-.389v-4.65a.389.389,0,1,1,.778,0v4.65A.394.394,0,0,1,40.909,57.248Z" transform="translate(-40.52 -51.82)"/>
          </g>
        </g>
      </g>
    </g>
  </g>
</svg>
