<svg xmlns="http://www.w3.org/2000/svg" xmlns:xlink="http://www.w3.org/1999/xlink" width="140" height="140" viewBox="0 0 140 140"><defs><filter id="a" x="0" y="0" width="140" height="140" filterUnits="userSpaceOnUse"><feOffset dy="3" input="SourceAlpha"/><feGaussianBlur stdDeviation="3" result="b"/><feFlood flood-opacity="0.161"/><feComposite operator="in" in2="b"/><feComposite in="SourceGraphic"/></filter></defs><g transform="translate(-730.151 -822.955)"><g transform="translate(739.151 828.955)"><g transform="matrix(1, 0, 0, 1, -9, -6)" filter="url(#a)"><circle cx="61" cy="61" r="61" transform="translate(9 6)" fill="#fff" opacity="0.45"/></g><circle cx="49" cy="49" r="49" transform="translate(12 12)" fill="#fff"/></g><g transform="translate(758.046 848.002)"><path d="M64.088,27.771a26.126,26.126,0,0,1,3.544,8.565,1.279,1.279,0,0,0,1.261,1.016h2.546A1.286,1.286,0,0,1,72.721,38.5a31.144,31.144,0,0,1,0,6.911,1.286,1.286,0,0,1-1.283,1.147H68.893a1.279,1.279,0,0,0-1.261,1.016,26.129,26.129,0,0,1-3.544,8.565,1.279,1.279,0,0,0,.173,1.61l1.8,1.8a1.286,1.286,0,0,1,.1,1.718,31.262,31.262,0,0,1-4.886,4.886,1.286,1.286,0,0,1-1.718-.1l-1.8-1.8a1.279,1.279,0,0,0-1.61-.173,26.126,26.126,0,0,1-8.566,3.544,1.28,1.28,0,0,0-1.016,1.261v2.545a1.286,1.286,0,0,1-1.147,1.282,31.136,31.136,0,0,1-6.911,0,1.286,1.286,0,0,1-1.147-1.283V68.89a1.28,1.28,0,0,0-1.016-1.261,26.128,26.128,0,0,1-8.565-3.545,1.279,1.279,0,0,0-1.61.173l-1.8,1.8a1.286,1.286,0,0,1-1.718.1,31.27,31.27,0,0,1-4.886-4.886,1.286,1.286,0,0,1,.1-1.718l1.8-1.8a1.28,1.28,0,0,0,.173-1.61,26.132,26.132,0,0,1-3.545-8.565,1.279,1.279,0,0,0-1.261-1.016H12.478A1.286,1.286,0,0,1,11.2,45.41a31.145,31.145,0,0,1,0-6.911,1.286,1.286,0,0,1,1.283-1.147h2.545a1.279,1.279,0,0,0,1.261-1.016,26.126,26.126,0,0,1,3.545-8.565,1.279,1.279,0,0,0-.173-1.61l-1.8-1.8a1.286,1.286,0,0,1-.1-1.719,31.254,31.254,0,0,1,4.886-4.886,1.286,1.286,0,0,1,1.719.1l1.8,1.8a1.279,1.279,0,0,0,1.61.173A26.127,26.127,0,0,1,36.34,16.28a1.279,1.279,0,0,0,1.016-1.261V12.474A1.286,1.286,0,0,1,38.5,11.192a31.145,31.145,0,0,1,6.911,0,1.286,1.286,0,0,1,1.147,1.283v2.545a1.279,1.279,0,0,0,1.016,1.261,26.129,26.129,0,0,1,8.565,3.545,1.279,1.279,0,0,0,1.61-.173l1.8-1.8a1.286,1.286,0,0,1,1.718-.1,31.249,31.249,0,0,1,4.886,4.886,1.286,1.286,0,0,1-.1,1.718l-1.8,1.8a1.279,1.279,0,0,0-.173,1.61Z" transform="translate(-0.004 -0.001)" fill="#a6eae8" fill-rule="evenodd"/><path d="M41.958,72.909a31.151,31.151,0,0,1-3.455-.192,1.286,1.286,0,0,1-1.147-1.283V68.889a1.28,1.28,0,0,0-1.016-1.261,26.128,26.128,0,0,1-8.565-3.545,1.279,1.279,0,0,0-1.61.173l-1.8,1.8a1.286,1.286,0,0,1-1.718.1,31.27,31.27,0,0,1-4.886-4.886,1.286,1.286,0,0,1,.1-1.718l1.8-1.8a1.28,1.28,0,0,0,.173-1.61,26.132,26.132,0,0,1-3.545-8.565,1.279,1.279,0,0,0-1.261-1.016H12.478A1.286,1.286,0,0,1,11.2,45.409a31.145,31.145,0,0,1,0-6.911,1.286,1.286,0,0,1,1.283-1.147h2.545a1.279,1.279,0,0,0,1.261-1.016,26.126,26.126,0,0,1,3.545-8.565,1.279,1.279,0,0,0-.173-1.61l-1.8-1.8a1.286,1.286,0,0,1-.1-1.719,31.254,31.254,0,0,1,4.886-4.886,1.286,1.286,0,0,1,1.719.1l1.8,1.8a1.279,1.279,0,0,0,1.61.173,26.127,26.127,0,0,1,8.566-3.544,1.279,1.279,0,0,0,1.016-1.261V12.473A1.286,1.286,0,0,1,38.5,11.19,31.124,31.124,0,0,1,41.959,11V72.909Z" transform="translate(-0.004)" fill="#e8faf9" fill-rule="evenodd"/><circle cx="14.872" cy="14.872" r="14.872" transform="translate(24.926 54.371) rotate(-80.905)" fill="#b7e0ff"/><g transform="translate(46.545 41.44)"><path d="M292.337,255.76l6.617,3.82,6.617-3.82-6.617-3.821Z" transform="translate(-292.337 -251.939)" fill="#d3b493" fill-rule="evenodd"/><path d="M292.337,282.177v7.641l6.617,3.821V286Z" transform="translate(-292.337 -278.356)" fill="#cab193" fill-rule="evenodd"/><path d="M351.326,282.177v7.641l-6.617,3.821V286Z" transform="translate(-338.092 -278.356)" fill="#c3a98f" fill-rule="evenodd"/></g><circle cx="7.047" cy="7.047" r="7.047" transform="translate(34.928 20.918)" fill="#dfbba0"/><path d="M207.418,103.612a7.047,7.047,0,0,1,0-14.094Z" transform="translate(-165.464 -68.599)" fill="#f6ede6" fill-rule="evenodd"/><path d="M7.116,0A7.116,7.116,0,1,1,0,7.116,7.116,7.116,0,0,1,7.116,0Z" transform="matrix(0.958, -0.286, 0.286, 0.958, 20.709, 44.771)" fill="#22cac5"/><path d="M108.655,274.217a7.116,7.116,0,1,1,0-14.231v14.231Z" transform="translate(-79.101 -217.529)" fill="#a6eae8" fill-rule="evenodd"/><g transform="translate(10.998 10.998)"><path d="M27.484,62.409a2.109,2.109,0,0,1,1.146.339,24.489,24.489,0,0,0,8.045,3.33,2.1,2.1,0,0,1,1.664,2.066v2.474a.39.39,0,0,0,.351.392,29.442,29.442,0,0,0,6.528,0,.389.389,0,0,0,.351-.392V68.143a2.1,2.1,0,0,1,1.665-2.066,24.481,24.481,0,0,0,8.046-3.329,2.1,2.1,0,0,1,2.637.284l1.75,1.749a.389.389,0,0,0,.525.03,29.622,29.622,0,0,0,2.436-2.18,29.183,29.183,0,0,0,2.18-2.436.389.389,0,0,0-.029-.526l-1.749-1.749a2.1,2.1,0,0,1-.284-2.639,24.473,24.473,0,0,0,3.329-8.045,2.1,2.1,0,0,1,2.066-1.664h2.476a.388.388,0,0,0,.391-.351,29.442,29.442,0,0,0,0-6.528.388.388,0,0,0-.392-.351H68.141a2.1,2.1,0,0,1-2.067-1.665,24.453,24.453,0,0,0-3.329-8.045s0,0,0,0a2.1,2.1,0,0,1,.284-2.637l1.75-1.749a.39.39,0,0,0,.029-.526A29.581,29.581,0,0,0,60.191,19.1a.39.39,0,0,0-.526.029L57.917,20.88a2.1,2.1,0,0,1-2.638.284,24.462,24.462,0,0,0-8.046-3.329,2.1,2.1,0,0,1-1.665-2.066V13.294a.39.39,0,0,0-.351-.392,29.434,29.434,0,0,0-6.528,0,.391.391,0,0,0-.351.393v2.474a2.1,2.1,0,0,1-1.664,2.066,24.487,24.487,0,0,0-8.046,3.329,2.1,2.1,0,0,1-2.637-.284l-1.749-1.749a.389.389,0,0,0-.526-.028A29.5,29.5,0,0,0,19.1,23.718a.393.393,0,0,0,.03.526l1.749,1.749a2.1,2.1,0,0,1,.284,2.639,24.477,24.477,0,0,0-3.329,8.045,2.1,2.1,0,0,1-2.066,1.665H13.293a.391.391,0,0,0-.393.351,29.449,29.449,0,0,0,0,6.528.39.39,0,0,0,.392.351h2.475a2.1,2.1,0,0,1,2.066,1.664,24.478,24.478,0,0,0,3.329,8.046,2.1,2.1,0,0,1-.284,2.637l-1.749,1.749a.39.39,0,0,0-.03.526,29.581,29.581,0,0,0,4.616,4.616.39.39,0,0,0,.526-.029l1.749-1.749a2.1,2.1,0,0,1,1.492-.623Zm14.472,10.5A31.216,31.216,0,0,1,38.5,72.72a2.113,2.113,0,0,1-1.881-2.1V68.144a.381.381,0,0,0-.311-.386A26.236,26.236,0,0,1,27.7,64.195a.383.383,0,0,0-.493.053L25.458,66a2.111,2.111,0,0,1-2.816.156,31.239,31.239,0,0,1-2.578-2.307,31.928,31.928,0,0,1-2.307-2.577,2.116,2.116,0,0,1,.156-2.817L19.662,56.7a.382.382,0,0,0,.053-.491,26.226,26.226,0,0,1-3.562-8.61.382.382,0,0,0-.386-.311H13.293a2.112,2.112,0,0,1-2.1-1.879,31.1,31.1,0,0,1,0-6.91,2.113,2.113,0,0,1,2.1-1.881h2.474a.383.383,0,0,0,.385-.311A26.206,26.206,0,0,1,19.715,27.7a.382.382,0,0,0-.053-.493L17.914,25.46a2.113,2.113,0,0,1-.157-2.815,31.172,31.172,0,0,1,4.885-4.885,2.112,2.112,0,0,1,2.815.156l1.749,1.749a.383.383,0,0,0,.492.053,26.206,26.206,0,0,1,8.609-3.562.382.382,0,0,0,.311-.386V13.294a2.113,2.113,0,0,1,1.881-2.1,31.09,31.09,0,0,1,6.91,0,2.112,2.112,0,0,1,1.879,2.1v2.475a.383.383,0,0,0,.311.386,26.194,26.194,0,0,1,8.609,3.562.382.382,0,0,0,.493-.053l1.75-1.749a2.112,2.112,0,0,1,2.815-.156,31.18,31.18,0,0,1,4.885,4.885,2.111,2.111,0,0,1-.156,2.816l-1.749,1.749a.383.383,0,0,0-.053.493h0a26.208,26.208,0,0,1,3.562,8.608.383.383,0,0,0,.386.311h2.476a2.113,2.113,0,0,1,2.1,1.881,31.228,31.228,0,0,1,0,6.91,2.113,2.113,0,0,1-2.1,1.879H68.141a.383.383,0,0,0-.386.311,26.189,26.189,0,0,1-3.562,8.609.384.384,0,0,0,.053.493l1.749,1.749a2.111,2.111,0,0,1,.156,2.816,31.179,31.179,0,0,1-4.885,4.885A2.111,2.111,0,0,1,58.449,66L56.7,64.248a.384.384,0,0,0-.493-.053,26.2,26.2,0,0,1-8.61,3.562.383.383,0,0,0-.311.386v2.475a2.113,2.113,0,0,1-1.879,2.1,31.2,31.2,0,0,1-3.454.192Z" transform="translate(-10.998 -11.001)" fill-rule="evenodd"/><path d="M135.8,165.893a.86.86,0,0,1-.858-.812c-.016-.287-.025-.58-.025-.87a15.383,15.383,0,0,1,7.626-13.251.86.86,0,0,1,.865,1.488,13.655,13.655,0,0,0-6.771,11.763c0,.258.007.518.022.774a.861.861,0,0,1-.811.907H135.8Zm28.826.625c-.028,0-.057,0-.086,0a.86.86,0,0,1-.77-.941,13.653,13.653,0,0,0-6.7-13.125.86.86,0,0,1,.865-1.488,15.382,15.382,0,0,1,7.55,14.784.859.859,0,0,1-.855.774ZM150.236,179.53a15.307,15.307,0,0,1-7.841-2.156.86.86,0,0,1,.882-1.478,13.61,13.61,0,0,0,14.041-.074.86.86,0,1,1,.9,1.468A15.3,15.3,0,0,1,150.236,179.53Z" transform="translate(-119.26 -133.175)" fill-rule="evenodd"/><path d="M287.1,249.823l4.713,2.721,4.713-2.721-4.713-2.722Zm4.713,4.575a.868.868,0,0,1-.43-.115l-6.433-3.715a.859.859,0,0,1,0-1.489l6.433-3.715a.86.86,0,0,1,.86,0l6.433,3.715a.86.86,0,0,1,0,1.489l-6.433,3.715a.866.866,0,0,1-.43.115Z" transform="translate(-249.964 -215.652)" fill-rule="evenodd"/><path d="M286.244,282.439l4.714,2.722v-5.443L286.244,277Zm5.573,5.071a.857.857,0,0,1-.43-.115l-6.433-3.714a.862.862,0,0,1-.43-.746v-7.428a.86.86,0,0,1,1.29-.744l6.433,3.714a.859.859,0,0,1,.43.746v7.428a.861.861,0,0,1-.86.86Z" transform="translate(-249.964 -241.336)" fill-rule="evenodd"/><path d="M337.159,279.718v5.443l4.714-2.722V277Zm-.86,7.792a.861.861,0,0,1-.86-.86v-7.428a.862.862,0,0,1,.43-.746l6.434-3.713a.86.86,0,0,1,1.29.744v7.428a.859.859,0,0,1-.43.744l-6.433,3.715a.854.854,0,0,1-.43.115Z" transform="translate(-294.446 -241.337)" fill-rule="evenodd"/><path d="M199.365,85.08a6.494,6.494,0,1,0,6.494,6.493,6.5,6.5,0,0,0-6.494-6.493Zm0,14.707a8.214,8.214,0,1,1,8.214-8.214A8.224,8.224,0,0,1,199.365,99.787Z" transform="translate(-168.389 -74.218)" fill-rule="evenodd"/><path d="M238.79,117.007a.86.86,0,0,1-.86-.86v-.638a2.871,2.871,0,0,1-1.281-.787.86.86,0,1,1,1.247-1.184,1.086,1.086,0,0,0,1.171.3.7.7,0,0,0,.5-.544c.021-.267-.345-.549-.932-.72-2-.583-2.314-1.795-2.355-2.289a2.3,2.3,0,0,1,1.383-2.228,2.7,2.7,0,0,1,.263-.108v-.683a.86.86,0,1,1,1.72,0v.641a3.392,3.392,0,0,1,1.386.819.86.86,0,1,1-1.184,1.248,1.238,1.238,0,0,0-1.44-.366.638.638,0,0,0-.414.536c.017.214.322.545,1.122.779,1.705.5,2.237,1.62,2.166,2.507a2.372,2.372,0,0,1-1.635,2.026v.7a.86.86,0,0,1-.86.86Z" transform="translate(-207.813 -94.348)" fill-rule="evenodd"/><path d="M106.8,254.792a6.058,6.058,0,1,0,6.058,6.057A6.065,6.065,0,0,0,106.8,254.792Zm0,13.836a7.778,7.778,0,1,1,7.778-7.778A7.787,7.787,0,0,1,106.8,268.627Z" transform="translate(-87.901 -222.487)" fill-rule="evenodd"/><path d="M136.306,299.625H136.3a.863.863,0,0,1-.612-.263l-1.712-1.779a.86.86,0,1,1,1.239-1.193l1.1,1.147,2.733-2.733a.86.86,0,0,1,1.216,1.216l-3.353,3.352a.856.856,0,0,1-.608.252Z" transform="translate(-118.226 -258.726)" fill-rule="evenodd"/></g></g></g></svg>