<svg xmlns="http://www.w3.org/2000/svg" xmlns:xlink="http://www.w3.org/1999/xlink" width="118.618" height="119.458" viewBox="0 0 118.618 119.458"><defs><radialGradient id="a" cx="0.076" cy="0.019" r="1.465" gradientTransform="translate(0.001)" gradientUnits="objectBoundingBox"><stop offset="0" stop-color="#f6f6f7"/><stop offset="0.477" stop-color="#f9f9fa"/><stop offset="0.715" stop-color="#fff"/></radialGradient><filter id="b" x="0" y="0.962" width="118.618" height="118.496" filterUnits="userSpaceOnUse"><feOffset dy="7" input="SourceAlpha"/><feGaussianBlur stdDeviation="2.5" result="c"/><feFlood flood-opacity="0.102"/><feComposite operator="in" in2="c"/><feComposite in="SourceGraphic"/></filter></defs><g transform="translate(-1308.882 -1154)"><g transform="translate(1315.041 1154)"><g transform="translate(0 0)"><path d="M299.581,2198.2a52.479,52.479,0,1,1-52.478-52.478A52.479,52.479,0,0,1,299.581,2198.2Z" transform="translate(-194.623 -2145.721)" fill="#fff"/><g transform="matrix(1, 0, 0, 1, -6.16, 0)" filter="url(#b)"><path d="M299.095,2197.668a52.478,52.478,0,1,0-52.478,52.48A52.271,52.271,0,0,0,299.095,2197.668Z" transform="translate(-187.98 -2145.19)" fill="url(#a)"/></g><g transform="translate(9.297 29.463)"><path d="M290.9,2164.488a52.485,52.485,0,0,1-90.355,52.261,52.319,52.319,0,0,0,90.355-52.261Z" transform="translate(-200.545 -2164.488)" fill="#eceef0"/></g></g></g><g transform="translate(1304.067 1165.319)"><path d="M405.756,125.907h6.363l-6.545-6.759v6.577a.183.183,0,0,0,.182.182Z" transform="translate(-322.904 -95.256)" fill="#ccc4cc"/><path d="M137.577,108.508v-.686a.757.757,0,1,1,1.515,0v.686a2.629,2.629,0,0,1,2,1.675.758.758,0,1,1-1.447.45.981.981,0,0,0-.557-.539v1.668c.993.229,2.093.7,2.093,2.222a2.482,2.482,0,0,1-2.093,2.276v.686a.757.757,0,1,1-1.515,0v-.682a2.624,2.624,0,0,1-1.983-1.626.758.758,0,0,1,1.433-.493,1.007,1.007,0,0,0,.55.529v-1.668c-.993-.232-2.093-.7-2.093-2.226a2.485,2.485,0,0,1,2.093-2.272Zm.757,9.978a6.1,6.1,0,1,0-6.105-6.1A6.111,6.111,0,0,0,138.334,118.486Z" transform="translate(-84.008 -84.009)" fill="#f6ca56"/><path d="M229.514,377.242h2.719v4.551h-2.719Z" transform="translate(-169.032 -320.823)" fill="#fd7a6e"/><path d="M56.329,45.979a.755.755,0,0,1-.693.457.694.694,0,0,1-.146-.014.756.756,0,0,1-.6-.89l.307-1.558a.046.046,0,0,0,0-.021c0-.011.007-.025.011-.036s.007-.021.011-.036.011-.025.014-.036l.011-.032a.163.163,0,0,0,.018-.036.1.1,0,0,0,.014-.029l.025-.036c0-.007.011-.018.014-.025s.018-.025.029-.036a.093.093,0,0,1,.018-.021c.007-.011.018-.021.029-.036l.021-.021a.234.234,0,0,0,.032-.029l.029-.021a.2.2,0,0,1,.029-.021.05.05,0,0,0,.014-.011l.021-.011a.035.035,0,0,1,.018-.014s.007,0,.014,0a.164.164,0,0,1,.032-.021c.011,0,.021-.011.032-.014a.239.239,0,0,1,.036-.014c.014,0,.025-.011.039-.014l.029-.007.043-.011.029-.007a.241.241,0,0,0,.047-.007h.025a.223.223,0,0,1,.047,0h.029a.223.223,0,0,1,.047,0,.09.09,0,0,1,.029,0,.175.175,0,0,1,.043.007h.011l1.558.307a.758.758,0,0,1-.011,1.49,9.6,9.6,0,0,0,8.788,3.13.758.758,0,1,1,.257,1.493,11.062,11.062,0,0,1-10.353-3.819Zm-1.6-4.266a.756.756,0,0,1-.74-.6,11.12,11.12,0,0,1,3.39-10.41.756.756,0,0,1,.375-1.45l1.575.179h0a.766.766,0,0,1,.6.35.756.756,0,0,1,.039.747l-.154,1.318a.757.757,0,0,1-1.5.05,9.592,9.592,0,0,0-2.847,8.91.758.758,0,0,1-.589.9.745.745,0,0,1-.154.014Zm10.1-10.449a7.618,7.618,0,1,1-7.62,7.62,7.629,7.629,0,0,1,7.62-7.62ZM62.234,28.12a11.138,11.138,0,0,1,11.221,3.83A.757.757,0,0,1,74.9,32.4l-.407,1.533a.751.751,0,0,1-.35.457.767.767,0,0,1-.382.1.719.719,0,0,1-.193-.025l-1.533-.407a.757.757,0,0,1-.007-1.461,9.612,9.612,0,0,0-9.435-3.012.757.757,0,0,1-.357-1.472Zm13.44,8.538A11.149,11.149,0,0,1,71.6,47.64a.756.756,0,0,1-.3,1.45.711.711,0,0,1-.189-.025l-1.536-.393h0a.817.817,0,0,1-.121-.043.1.1,0,0,0-.029-.014.955.955,0,0,1-.1-.064.026.026,0,0,1-.014-.007.745.745,0,0,1-.1-.089l-.021-.021c-.021-.029-.043-.057-.064-.089,0-.007-.007-.011-.011-.018a.027.027,0,0,1-.007-.014s0-.007-.007-.011-.007-.014-.011-.018a.335.335,0,0,0-.018-.036.1.1,0,0,0-.014-.036c0-.014-.007-.021-.011-.036s-.011-.025-.014-.039,0-.021,0-.029l-.011-.047a.09.09,0,0,0,0-.029.176.176,0,0,1,0-.043c0-.011,0-.018,0-.029v-.043c0-.011,0-.021,0-.032a.136.136,0,0,1,0-.039c0-.014,0-.025.007-.036a.149.149,0,0,1,.007-.039.054.054,0,0,1,0-.021l.393-1.536a.757.757,0,0,1,1.475.046,9.613,9.613,0,0,0,3.294-9.3.757.757,0,0,1,1.483-.307ZM66.932,54.775l.714-3.144a.755.755,0,0,1,.539-.561,12.637,12.637,0,0,0,2.883-1.2.753.753,0,0,1,.779.018l2.729,1.718c.214.132.736.411,1.043.1l2.036-2.036c.311-.307.032-.832-.1-1.043L75.838,45.9a.747.747,0,0,1-.018-.775,12.691,12.691,0,0,0,1.193-2.883.761.761,0,0,1,.561-.539l3.144-.714c.243-.054.815-.229.815-.664V37.445c0-.432-.568-.611-.815-.664l-3.144-.714a.755.755,0,0,1-.561-.539,12.6,12.6,0,0,0-1.058-2.633v0c-.047-.086-.089-.164-.136-.247a.753.753,0,0,1,.018-.779l1.715-2.729c.136-.214.414-.736.107-1.043l-2.04-2.04c-.307-.3-.829-.029-1.043.1l-2.729,1.718a.755.755,0,0,1-.775.021A12.693,12.693,0,0,0,68.186,26.7a.765.765,0,0,1-.539-.564l-.714-3.144c-.054-.243-.232-.815-.664-.815h-2.88c-.432,0-.607.572-.664.815l-.714,3.144a.759.759,0,0,1-.539.564,12.654,12.654,0,0,0-2.879,1.19.753.753,0,0,1-.779-.018L55.082,26.16c-.211-.136-.74-.411-1.047-.107L52,28.092c-.307.3-.029.832.107,1.043l1.715,2.729a.753.753,0,0,1,.018.779,12.6,12.6,0,0,0-1.193,2.883.765.765,0,0,1-.564.539l-3.144.714c-.243.054-.815.232-.815.664v2.879c0,.436.572.611.815.664l3.144.714a.771.771,0,0,1,.564.539,12.693,12.693,0,0,0,1.193,2.887.763.763,0,0,1-.018.775L52.106,48.63c-.136.214-.414.74-.107,1.047l2.036,2.036c.307.307.836.029,1.047-.1l2.729-1.718a.756.756,0,0,1,.4-.118.765.765,0,0,1,.375.1,12.543,12.543,0,0,0,2.879,1.2.749.749,0,0,1,.539.561l.714,3.144c.057.247.232.815.664.815h2.88c.432,0,.611-.568.664-.815Z" transform="translate(-10.502 -10.509)" fill="#7b849b"/><path d="M170.651,137.9v-1.343a.866.866,0,0,0-.579.686C170.072,137.568,170.158,137.743,170.651,137.9Z" transform="translate(-117.082 -110.467)" fill="#f6ca56"/><path d="M341.256,318.679h2.719v12.157h-2.719Z" transform="translate(-266.691 -269.64)" fill="#f6ca56"/><path d="M212.98,123.936l.036.011a.34.34,0,0,1,.036.014.128.128,0,0,1,.032.014l.036.014.029.018a.335.335,0,0,1,.036.021.2.2,0,0,1,.029.021.211.211,0,0,1,.029.021.268.268,0,0,1,.032.025c.007.007.018.014.025.021l.032.032a.09.09,0,0,0,.018.021.19.19,0,0,1,.025.032.146.146,0,0,0,.021.025.113.113,0,0,1,.018.036.087.087,0,0,1,.021.029c0,.007,0,.007.007.011a.18.18,0,0,1,.011.025.128.128,0,0,1,.014.032.232.232,0,0,1,.014.036.1.1,0,0,1,.014.036c0,.011.007.025.011.036a.153.153,0,0,0,.007.036c0,.011,0,.025.007.039a.1.1,0,0,1,0,.032c0,.014,0,.025.007.039v.107a.187.187,0,0,0-.007.039c0,.011,0,.025,0,.036l-.011.043c0,.007,0,.014,0,.021l-1.072,4.008a.755.755,0,0,1-.732.561.755.755,0,0,1-.732-.954l.618-2.308-23.5,12.722a.77.77,0,0,1-.361.089.757.757,0,0,1-.361-1.422L210.74,124.9l-2.172-.582a.758.758,0,1,1,.393-1.465l4.008,1.075a.013.013,0,0,0,.011,0Zm.865,25.161a1.252,1.252,0,0,1-1.25,1.25h-3.247a1.252,1.252,0,0,1-1.25-1.25V132.61a1.252,1.252,0,0,1,1.25-1.25h3.247a1.252,1.252,0,0,1,1.25,1.25Zm-7.041-.111a1.252,1.252,0,0,1-1.25,1.25h-3.247a1.252,1.252,0,0,1-1.25-1.25V136.3a1.252,1.252,0,0,1,1.25-1.25h3.247a1.252,1.252,0,0,1,1.25,1.25Zm-7.041-.114a1.252,1.252,0,0,1-1.25,1.25h-3.247a1.252,1.252,0,0,1-1.25-1.25V139.99a1.252,1.252,0,0,1,1.25-1.25h3.247a1.252,1.252,0,0,1,1.25,1.25Zm-7.041-.111a1.252,1.252,0,0,1-1.25,1.25h-3.247a1.252,1.252,0,0,1-1.25-1.25v-5.08a1.252,1.252,0,0,1,1.25-1.25h3.247a1.252,1.252,0,0,1,1.25,1.25Zm16.44-30.766V110.3H195.332a14,14,0,0,1,.518,1.4l2.708.615a2.272,2.272,0,0,1,1.993,2.144v2.879a2.269,2.269,0,0,1-1.993,2.143l-2.708.614a14.653,14.653,0,0,1-.99,2.39l1.479,2.351a2.268,2.268,0,0,1-.107,2.926L194.2,129.8a2.263,2.263,0,0,1-2.922.1l-2.351-1.479a13.85,13.85,0,0,1-2.394.99l-.614,2.712a2.272,2.272,0,0,1-2.143,1.993h-1.2v22.256a1.8,1.8,0,0,0,1.8,1.8h32.088a1.8,1.8,0,0,0,1.8-1.8V119.691h-7.395a1.7,1.7,0,0,1-1.7-1.7Z" transform="translate(-128.005 -87.526)" fill="#e8ecf9"/><path d="M285.385,347.96H288.1v8.352h-2.719Z" transform="translate(-217.862 -295.231)" fill="#29ce69"/><path d="M397.127,289.4h2.719v15.958h-2.719Z" transform="translate(-315.521 -244.049)" fill="#00aede"/><path d="M187.262,162.889c0-.329-.086-.5-.579-.654v1.343A.859.859,0,0,0,187.262,162.889Z" transform="translate(-131.599 -132.913)" fill="#f6ca56"/><g transform="translate(36.107 10.156)"><path d="M127.83,95.774a6.1,6.1,0,1,1-6.105,6.105A6.114,6.114,0,0,1,127.83,95.774Zm-7.62,6.105a7.62,7.62,0,1,0,7.62-7.62A7.626,7.626,0,0,0,120.21,101.879Z" transform="translate(-109.611 -83.66)" fill="#030403"/><path d="M94.565,89.787a9.592,9.592,0,0,1,2.847-8.91.757.757,0,0,0,1.5-.05l.154-1.318a.756.756,0,0,0-.039-.747.766.766,0,0,0-.6-.35h0l-1.575-.179a.756.756,0,0,0-.375,1.45,11.12,11.12,0,0,0-3.39,10.41.756.756,0,0,0,.74.6.746.746,0,0,0,.154-.014.758.758,0,0,0,.589-.9Z" transform="translate(-85.705 -69.649)" fill="#030403"/><path d="M221.729,371.29h-2.719v-4.551h2.719Zm.264-6.066h-3.247a1.252,1.252,0,0,0-1.25,1.25v5.08a1.252,1.252,0,0,0,1.25,1.25h3.247a1.252,1.252,0,0,0,1.25-1.25v-5.08A1.252,1.252,0,0,0,221.994,365.224Z" transform="translate(-194.636 -320.475)" fill="#030403"/><path d="M114.144,195.828a.758.758,0,0,0-.875-.618,9.594,9.594,0,0,1-8.788-3.13.758.758,0,0,0,.011-1.49l-1.558-.307h-.011a.181.181,0,0,0-.043-.007.09.09,0,0,0-.029,0,.224.224,0,0,0-.047,0h-.029a.224.224,0,0,0-.047,0H102.7a.249.249,0,0,1-.047.007l-.029.007-.043.011-.029.007c-.014,0-.025.011-.039.014a.257.257,0,0,0-.036.014c-.011,0-.021.011-.032.014a.169.169,0,0,0-.032.021c-.007,0-.011,0-.014,0a.036.036,0,0,0-.018.014l-.021.011a.05.05,0,0,1-.014.011.2.2,0,0,0-.029.021l-.029.021a.236.236,0,0,1-.032.029l-.021.021c-.011.014-.021.025-.029.036a.1.1,0,0,0-.018.021c-.011.011-.018.025-.029.036l-.014.025-.025.036a.108.108,0,0,1-.014.029.162.162,0,0,1-.018.036l-.011.032c0,.011-.011.025-.014.036s-.007.021-.011.036-.007.025-.011.036a.045.045,0,0,1,0,.021l-.307,1.558a.756.756,0,0,0,.6.89.7.7,0,0,0,.146.014.755.755,0,0,0,.693-.457,11.062,11.062,0,0,0,10.353,3.819.758.758,0,0,0,.618-.875Z" transform="translate(-93.452 -167.57)" fill="#030403"/><path d="M219,133.194a9.613,9.613,0,0,1-3.294,9.3.757.757,0,0,0-1.475-.046l-.393,1.536a.053.053,0,0,0,0,.021.153.153,0,0,0-.007.039c0,.011,0,.021-.007.036a.136.136,0,0,0,0,.039c0,.011,0,.021,0,.032v.043c0,.011,0,.018,0,.029a.176.176,0,0,0,0,.043.089.089,0,0,1,0,.029l.011.047c0,.007,0,.018,0,.029s.011.029.014.039.007.021.011.036a.108.108,0,0,1,.014.036.338.338,0,0,1,.018.036s.007.014.011.018,0,.007.007.011a.027.027,0,0,0,.007.014c0,.007.007.011.011.018.021.032.043.061.064.089l.021.021a.762.762,0,0,0,.1.089.027.027,0,0,0,.014.007.953.953,0,0,0,.1.064.109.109,0,0,1,.029.014.819.819,0,0,0,.122.043h0l1.536.393a.706.706,0,0,0,.189.025.756.756,0,0,0,.3-1.45,11.149,11.149,0,0,0,4.073-10.982.757.757,0,0,0-1.483.307Z" transform="translate(-191.415 -116.893)" fill="#030403"/><path d="M160.146,115.545v1.343c-.493-.154-.579-.329-.579-.657A.866.866,0,0,1,160.146,115.545Zm1.515,3.237c.493.154.579.325.579.654a.859.859,0,0,1-.579.689Zm-1.515-.325v1.668a1.009,1.009,0,0,1-.55-.529.758.758,0,0,0-1.433.493,2.624,2.624,0,0,0,1.983,1.626v.682a.757.757,0,1,0,1.515,0v-.686a2.481,2.481,0,0,0,2.093-2.276c0-1.518-1.1-1.993-2.093-2.222v-1.668a.981.981,0,0,1,.557.539.758.758,0,1,0,1.447-.45,2.629,2.629,0,0,0-2-1.675v-.686a.757.757,0,1,0-1.515,0v.686a2.485,2.485,0,0,0-2.093,2.272c0,1.522,1.1,1.993,2.093,2.226Z" transform="translate(-142.683 -99.616)" fill="#030403"/><path d="M156.434,68.67a9.612,9.612,0,0,1,9.435,3.012.757.757,0,0,0,.007,1.461l1.533.407a.714.714,0,0,0,.193.025.767.767,0,0,0,.382-.1.752.752,0,0,0,.35-.457l.407-1.533a.757.757,0,0,0-1.443-.454,11.138,11.138,0,0,0-11.221-3.83.757.757,0,1,0,.357,1.472Z" transform="translate(-140.45 -59.743)" fill="#030403"/><path d="M90.248,68.852a1.8,1.8,0,0,1-1.8,1.8H56.363a1.8,1.8,0,0,1-1.8-1.8V46.6h1.2A2.272,2.272,0,0,0,57.91,44.6l.614-2.712a13.84,13.84,0,0,0,2.394-.99l2.351,1.479a2.264,2.264,0,0,0,2.922-.1l2.036-2.036a2.268,2.268,0,0,0,.107-2.926l-1.479-2.351a14.646,14.646,0,0,0,.99-2.39l2.708-.614a2.269,2.269,0,0,0,1.993-2.143V26.936a2.272,2.272,0,0,0-1.993-2.143l-2.708-.615a14.042,14.042,0,0,0-.518-1.4H81.156v7.692a1.7,1.7,0,0,0,1.7,1.7h7.395V68.852ZM52.887,45.08c-.432,0-.607-.568-.664-.815l-.714-3.144a.749.749,0,0,0-.539-.561,12.543,12.543,0,0,1-2.879-1.2.766.766,0,0,0-.375-.1.757.757,0,0,0-.4.118L44.581,41.1c-.211.132-.74.411-1.047.1L41.5,39.168c-.307-.307-.029-.832.107-1.047L43.32,35.4a.763.763,0,0,0,.018-.775,12.693,12.693,0,0,1-1.193-2.887.771.771,0,0,0-.564-.539l-3.144-.714c-.243-.054-.815-.229-.815-.664V26.936c0-.432.572-.611.815-.664l3.144-.714a.765.765,0,0,0,.564-.539,12.6,12.6,0,0,1,1.193-2.883.753.753,0,0,0-.018-.779L41.6,18.627c-.136-.211-.414-.74-.107-1.043l2.036-2.04c.307-.3.836-.029,1.047.107l2.729,1.715a.753.753,0,0,0,.779.018,12.648,12.648,0,0,1,2.879-1.19.759.759,0,0,0,.539-.564l.714-3.144c.057-.243.232-.815.664-.815h2.88c.432,0,.611.572.664.815l.714,3.144a.765.765,0,0,0,.539.564,12.688,12.688,0,0,1,2.887,1.193.755.755,0,0,0,.775-.021l2.729-1.718c.214-.132.736-.407,1.043-.1l2.04,2.04c.307.307.029.829-.107,1.043l-1.715,2.729a.753.753,0,0,0-.018.779c.046.082.089.161.136.247v0a12.606,12.606,0,0,1,1.058,2.633.755.755,0,0,0,.561.539l3.144.714c.247.054.815.232.815.664v2.879c0,.436-.572.611-.815.664l-3.144.714a.761.761,0,0,0-.561.539,12.692,12.692,0,0,1-1.193,2.883.747.747,0,0,0,.018.775l1.715,2.733c.136.211.414.736.1,1.043L65.119,41.2c-.307.307-.829.029-1.043-.1l-2.729-1.718a.753.753,0,0,0-.779-.018,12.638,12.638,0,0,1-2.883,1.2.755.755,0,0,0-.539.561l-.714,3.144c-.054.247-.232.815-.664.815h-2.88ZM82.67,23.892l6.545,6.759H82.853a.183.183,0,0,1-.182-.182V23.892Zm9.074,7.381a.487.487,0,0,0-.032-.129.014.014,0,0,0-.007-.014.612.612,0,0,0-.061-.118c0-.007,0-.011,0-.014l-.089-.111s-.007,0-.007,0L82.46,21.495l0,0a.569.569,0,0,0-.114-.093,0,0,0,0,0,0,0,.564.564,0,0,0-.129-.071.789.789,0,0,0-.139-.043.825.825,0,0,0-.136-.018H67.184l1.147-1.826a2.255,2.255,0,0,0-.1-2.926l-2.036-2.04a2.269,2.269,0,0,0-2.922-.1l-2.354,1.479a14.33,14.33,0,0,0-2.39-.986l-.614-2.712a2.269,2.269,0,0,0-2.143-1.993h-2.88a2.275,2.275,0,0,0-2.143,1.993l-.614,2.712a14.173,14.173,0,0,0-2.386.986l-2.354-1.479a2.273,2.273,0,0,0-2.926.1l-2.033,2.04a2.258,2.258,0,0,0-.107,2.922L41.8,21.788a13.931,13.931,0,0,0-.99,2.39l-2.712.615a2.272,2.272,0,0,0-1.993,2.143v2.879A2.269,2.269,0,0,0,38.1,31.959l2.712.614a14.053,14.053,0,0,0,.99,2.39l-1.479,2.351a2.272,2.272,0,0,0,.1,2.926l2.036,2.036a2.272,2.272,0,0,0,2.926.1L47.742,40.9a13.667,13.667,0,0,0,2.386.99l.618,2.712a2.269,2.269,0,0,0,2.14,1.993h.164V68.851a3.316,3.316,0,0,0,3.312,3.312H88.451a3.313,3.313,0,0,0,3.308-3.312V31.409a.376.376,0,0,0-.014-.125Z" transform="translate(-36.107 -10.156)" fill="#030403"/><path d="M238.559,210.272a.76.76,0,0,0,.536.929l2.172.582L217.9,224.437a.757.757,0,0,0,.361,1.422.77.77,0,0,0,.361-.089l23.5-12.722-.618,2.308a.758.758,0,0,0,1.465.393l1.072-4.008c0-.007,0-.014,0-.021l.011-.043c0-.011,0-.025,0-.036a.18.18,0,0,1,.007-.039v-.107c0-.014,0-.025-.007-.039a.1.1,0,0,0,0-.032c0-.014,0-.029-.007-.039a.159.159,0,0,1-.007-.036c0-.011-.007-.025-.011-.036a.108.108,0,0,0-.014-.036.248.248,0,0,0-.014-.036.124.124,0,0,0-.014-.032.168.168,0,0,0-.011-.025s-.007,0-.007-.011a.087.087,0,0,0-.021-.029.109.109,0,0,0-.018-.036.157.157,0,0,1-.021-.025.2.2,0,0,0-.025-.032.1.1,0,0,1-.018-.021l-.032-.032c-.007-.007-.018-.014-.025-.021a.242.242,0,0,0-.032-.025,11825717781.288,11825717781.288,0,0,1-.057-.043.3.3,0,0,0-.036-.021l-.029-.018-.036-.014a.124.124,0,0,0-.032-.014c-.011,0-.021-.011-.036-.014l-.036-.011a.013.013,0,0,1-.011,0l-4.008-1.075a.761.761,0,0,0-.929.536Z" transform="translate(-194.639 -184.561)" fill="#030403"/><path d="M333.47,320.332h-2.719V308.175h2.719Zm.264-13.672h-3.247a1.252,1.252,0,0,0-1.25,1.25V320.6a1.252,1.252,0,0,0,1.25,1.25h3.247a1.252,1.252,0,0,0,1.25-1.25V307.91A1.252,1.252,0,0,0,333.735,306.66Z" transform="translate(-292.294 -269.292)" fill="#030403"/><path d="M389.341,294.851h-2.719V278.893h2.719Zm.264-17.473h-3.247a1.252,1.252,0,0,0-1.25,1.25v16.487a1.252,1.252,0,0,0,1.25,1.25h3.247a1.252,1.252,0,0,0,1.25-1.25V278.628A1.252,1.252,0,0,0,389.606,277.378Z" transform="translate(-341.124 -243.7)" fill="#030403"/><path d="M277.6,345.809h-2.719v-8.352H277.6Zm.264-9.867h-3.247a1.252,1.252,0,0,0-1.25,1.25v8.881a1.252,1.252,0,0,0,1.25,1.25h3.247a1.252,1.252,0,0,0,1.25-1.25v-8.881A1.252,1.252,0,0,0,277.865,335.942Z" transform="translate(-243.465 -294.884)" fill="#030403"/></g></g></g></svg>