<svg xmlns="http://www.w3.org/2000/svg" width="84.345" height="74.831" viewBox="0 0 84.345 74.831"><g transform="translate(-0.995 -29.759)"><g transform="translate(2.319 44.736)"><g transform="translate(0)"><path d="M9,141.966a4.114,4.114,0,1,1,4.114,4.114A4.114,4.114,0,0,1,9,141.966ZM87.27,159.5a4.114,4.114,0,1,0-4.114,4.114A4.114,4.114,0,0,0,87.27,159.5Zm0-35.065a4.114,4.114,0,1,1-4.114-4.114A4.114,4.114,0,0,1,87.27,124.433ZM90.7,141.966a4.114,4.114,0,1,0-4.114,4.114A4.114,4.114,0,0,0,90.7,141.966ZM12.428,159.5a4.114,4.114,0,1,1,4.114,4.114,4.114,4.114,0,0,1-4.114-4.114Zm0-35.065a4.114,4.114,0,1,0,4.114-4.114,4.114,4.114,0,0,0-4.114,4.114Z" transform="translate(-9 -120.319)" fill="#ffda2d" fill-rule="evenodd"/><path d="M18.727,142.939a4.114,4.114,0,1,1-5.989,5.442,4.115,4.115,0,0,0,5.989-5.442Zm71.662,20.805a4.107,4.107,0,0,0-1.621-3.273,4.114,4.114,0,0,1-5.989,5.442,4.115,4.115,0,0,0,7.61-2.17Zm0-35.065a4.115,4.115,0,0,1-7.61,2.17,4.115,4.115,0,0,0,5.989-5.443A4.107,4.107,0,0,1,90.389,128.679Zm3.428,17.532a4.108,4.108,0,0,0-1.621-3.273,4.114,4.114,0,0,1-5.989,5.442,4.114,4.114,0,0,0,7.61-2.17Zm-71.662,14.26a4.114,4.114,0,1,1-5.989,5.442,4.115,4.115,0,0,0,5.989-5.442Zm-5.989-29.622a4.114,4.114,0,1,0,5.989-5.442,4.115,4.115,0,0,1-5.989,5.442Z" transform="translate(-12.12 -124.565)" fill="#ffc700" fill-rule="evenodd"/><g transform="translate(19.369 0.169)"><path d="M232.122,415.4v5.375a4.366,4.366,0,0,1-4.356,4.356h-3.089a4.365,4.365,0,0,1-4.356-4.356v-3.912Z" transform="translate(-204.742 -366.77)" fill="#e2e3e3" fill-rule="evenodd"/><path d="M258.589,415.4v5.375a4.366,4.366,0,0,1-4.356,4.356h-2.2a4.366,4.366,0,0,0,4.356-4.356v-5.1Z" transform="translate(-231.209 -366.77)" fill="#ddd" fill-rule="evenodd"/><path d="M147.6,121.34a21.482,21.482,0,0,1,10.98,39.945,4.252,4.252,0,0,0-2.126,3.742v5.237a2.958,2.958,0,0,1-2.953,2.953H141.7a2.958,2.958,0,0,1-2.953-2.953v-5.237a4.252,4.252,0,0,0-2.126-3.742A21.482,21.482,0,0,1,147.6,121.34Z" transform="translate(-126.121 -121.34)" fill="#e6f8ff" fill-rule="evenodd"/><path d="M247.3,121.34a21.482,21.482,0,0,1,10.98,39.945,4.252,4.252,0,0,0-2.126,3.742v5.237a2.958,2.958,0,0,1-2.953,2.953h-3.446a2.958,2.958,0,0,0,2.953-2.953v-5.237a4.252,4.252,0,0,1,2.126-3.742,21.482,21.482,0,0,0-9.257-39.876q.853-.068,1.723-.069Z" transform="translate(-225.825 -121.34)" fill="#d0f1ff" fill-rule="evenodd"/><path d="M202.467,404.123v2.157a2.958,2.958,0,0,0,2.953,2.953h11.8a2.958,2.958,0,0,0,2.953-2.953v-2.157H202.467Z" transform="translate(-189.841 -357.357)" fill="#eff4f7" fill-rule="evenodd"/><path d="M270.841,409.233h3.446a2.958,2.958,0,0,0,2.953-2.953v-2.157h-3.446v2.157A2.958,2.958,0,0,1,270.841,409.233Z" transform="translate(-246.907 -357.357)" fill="#e2e3e3" fill-rule="evenodd"/></g><g transform="translate(24.659 5.434)"><circle cx="15.862" cy="15.862" r="15.862" transform="matrix(1, -0.022, 0.022, 1, 0, 0.698)" fill="#fdb800"/><path d="M205.328,178.178a15.862,15.862,0,1,1-22.36,22.36,15.862,15.862,0,0,0,22.36-22.36Z" transform="translate(-178.856 -174.043)" fill="#f4a40e" fill-rule="evenodd"/><ellipse cx="11.072" cy="11.072" rx="11.072" ry="11.072" transform="translate(4.906 5.369) rotate(-1.088)" fill="#ffda2d"/><path d="M200.125,184.263a11.041,11.041,0,0,1,8.106,3.532,11.071,11.071,0,0,0-14.667,16.459,11.072,11.072,0,0,1,6.561-19.99Z" transform="translate(-183.935 -179.122)" fill="#ffc700" fill-rule="evenodd"/></g></g><g transform="translate(38.717 14.79)"><path d="M245.675,211.074a1.323,1.323,0,0,1,2.646,0v.751a3.691,3.691,0,0,1,2.084,1.4,1.321,1.321,0,1,1-2.14,1.55,1.007,1.007,0,0,0-.352-.309.973.973,0,0,0-.447-.1h-.726a.982.982,0,0,0,0,1.965h.515a3.629,3.629,0,0,1,1.065,7.1v.807a1.323,1.323,0,0,1-2.646,0v-.752a3.691,3.691,0,0,1-2.084-1.4,1.321,1.321,0,0,1,2.14-1.55,1.01,1.01,0,0,0,.352.309.973.973,0,0,0,.447.1h.726a.982.982,0,0,0,0-1.965h-.515a3.629,3.629,0,0,1-1.065-7.1Z" transform="translate(-243.112 -209.751)" fill="#ffc700" fill-rule="evenodd"/></g></g><path d="M47.055,68.688a3.639,3.639,0,0,1-2.566,3.469v.806a1.322,1.322,0,1,1-2.644,0v-.75a3.637,3.637,0,0,1-2.082-1.4,1.32,1.32,0,1,1,2.137-1.55,1,1,0,0,0,.8.412h.725a.982.982,0,1,0,0-1.965h-.522a3.628,3.628,0,0,1-1.061-7.1V59.8a1.322,1.322,0,1,1,2.644,0v.75a3.675,3.675,0,0,1,2.09,1.4,1.323,1.323,0,1,1-2.145,1.55.987.987,0,0,0-.8-.412h-.733a.982.982,0,0,0,0,1.965h.522A3.633,3.633,0,0,1,47.055,68.688Zm-3.884,7.443a9.749,9.749,0,1,0-9.749-9.749A9.761,9.761,0,0,0,43.172,76.131Zm0-22.143A12.395,12.395,0,1,0,55.564,66.383,12.41,12.41,0,0,0,43.172,53.988Zm0,26.933A14.539,14.539,0,1,0,28.627,66.383,14.553,14.553,0,0,0,43.172,80.921Zm0-31.724A17.185,17.185,0,1,0,60.352,66.383,17.208,17.208,0,0,0,43.172,49.2Zm-18.8-12.724a1.32,1.32,0,1,1,2.285-1.323L29.812,40.6a1.323,1.323,0,0,1-2.293,1.323ZM56.523,40.6l3.151-5.451a1.324,1.324,0,1,1,2.293,1.323l-3.151,5.451a1.314,1.314,0,0,1-1.146.661,1.281,1.281,0,0,1-.655-.177,1.318,1.318,0,0,1-.492-1.807ZM41.846,37.376V31.082a1.322,1.322,0,1,1,2.644,0v6.294a1.322,1.322,0,1,1-2.644,0Zm11.62,46.333a20.156,20.156,0,1,0-20.6,0,5.555,5.555,0,0,1,2.769,4.878V89.2H50.7v-.615a5.57,5.57,0,0,1,2.769-4.878Zm-4.4,11.745h-11.8a1.633,1.633,0,0,1-1.63-1.629V91.849H50.7v1.976a1.632,1.632,0,0,1-1.63,1.629Zm-4.352,6.489H41.627a3.033,3.033,0,0,1-3.034-3.033V98.1H47.75v.81A3.039,3.039,0,0,1,44.716,101.944Zm34.549-18.03a2.792,2.792,0,1,1-2.792-2.79A2.792,2.792,0,0,1,79.265,83.914Zm-69.4,2.792a2.791,2.791,0,1,1,2.792-2.792,2.8,2.8,0,0,1-2.792,2.792ZM6.431,69.174a2.792,2.792,0,1,1,2.792-2.791A2.8,2.8,0,0,1,6.431,69.174ZM7.07,48.85a2.792,2.792,0,1,1,2.792,2.791A2.8,2.8,0,0,1,7.07,48.85Zm69.4-2.791a2.791,2.791,0,1,1-2.792,2.791A2.792,2.792,0,0,1,76.473,46.059ZM79.9,63.591a2.792,2.792,0,1,1-2.792,2.792A2.8,2.8,0,0,1,79.9,63.591Zm-5.272,4.115a5.438,5.438,0,1,0,0-2.646h-8.7a22.832,22.832,0,0,0-1-5.494h4.555a1.316,1.316,0,0,0,1.061-.533L74.39,53.87a5.458,5.458,0,1,0-2.121-1.582l-3.447,4.63H63.909a22.8,22.8,0,0,0-41.482,0H17.513l-3.447-4.63A5.388,5.388,0,0,0,15.3,48.85a5.436,5.436,0,1,0-5.436,5.437,5.365,5.365,0,0,0,2.082-.417l3.845,5.161a1.316,1.316,0,0,0,1.061.533H21.4a22.833,22.833,0,0,0-1,5.494h-8.7a5.438,5.438,0,1,0,0,2.646h8.7A22.6,22.6,0,0,0,21.412,73.2H16.85a1.317,1.317,0,0,0-1.061.535L11.945,78.9a5.335,5.335,0,0,0-2.082-.417A5.437,5.437,0,1,0,15.3,83.914a5.388,5.388,0,0,0-1.232-3.438l3.447-4.631h4.905a21.362,21.362,0,0,0,1.022,1.973,22.963,22.963,0,0,0,8.072,8.165,2.937,2.937,0,0,1,1.482,2.6v5.238a4.285,4.285,0,0,0,2.948,4.066v1.02a5.688,5.688,0,0,0,5.685,5.679h3.088a5.687,5.687,0,0,0,5.678-5.679v-1.02a4.285,4.285,0,0,0,2.948-4.066V88.588a2.937,2.937,0,0,1,1.482-2.6A22.836,22.836,0,0,0,62.9,77.818a21.4,21.4,0,0,0,1.022-1.973h4.905l3.447,4.631a5.389,5.389,0,0,0-1.232,3.438,5.436,5.436,0,1,0,5.436-5.436,5.364,5.364,0,0,0-2.082.417l-3.845-5.161a1.317,1.317,0,0,0-1.061-.535H64.93a22.962,22.962,0,0,0,1-5.494Z" fill-rule="evenodd"/></g></svg>