<svg xmlns="http://www.w3.org/2000/svg" xmlns:xlink="http://www.w3.org/1999/xlink" width="140" height="140" viewBox="0 0 140 140"><defs><filter id="a" x="0" y="0" width="140" height="140" filterUnits="userSpaceOnUse"><feOffset dy="3" input="SourceAlpha"/><feGaussianBlur stdDeviation="3" result="b"/><feFlood flood-opacity="0.161"/><feComposite operator="in" in2="b"/><feComposite in="SourceGraphic"/></filter></defs><g transform="translate(-782.814 -1752.371)"><g transform="translate(487.007 -1864.68)"><g transform="matrix(1, 0, 0, 1, 295.81, 3617.05)" filter="url(#a)"><circle cx="61" cy="61" r="61" transform="translate(9 6)" fill="#fff" opacity="0.45"/></g><circle cx="49" cy="49" r="49" transform="translate(316.808 3635.051)" fill="#fff"/></g><g transform="translate(819.719 1784.43)"><path d="M26.85,53.52H40.09a4.172,4.172,0,0,0,4.18-3.34,4.015,4.015,0,0,0-3.96-4.69H33.03a8.457,8.457,0,0,1-5.27-1.89c-3.12-2.49-9.71-5.92-18.38-.29V59.3s4.73-.6,12.7,2.51a30.137,30.137,0,0,0,17.41,1.47,73.762,73.762,0,0,0,22.59-8.85,4.084,4.084,0,0,0-.22-7.06l-.03-.02a4.064,4.064,0,0,0-3.29-.24L42.29,52.94" fill="#ffbfad"/><path d="M62.07,50.84a73.349,73.349,0,0,1-22.59,8.85,30.3,30.3,0,0,1-17.41-1.47c-7.97-3.12-12.7-2.51-12.7-2.51v3.58s4.73-.6,12.7,2.51a30.137,30.137,0,0,0,17.41,1.47,73.762,73.762,0,0,0,22.59-8.85,4.1,4.1,0,0,0,1.82-2.55,4,4,0,0,0-.32-2.71A3.931,3.931,0,0,1,62.07,50.84Z" fill="#f0a696"/><path d="M9.37,61.13V40.09a1.229,1.229,0,0,0-1.23-1.23H3.23A1.242,1.242,0,0,0,2,40.09V61.13a1.229,1.229,0,0,0,1.23,1.23H8.15A1.227,1.227,0,0,0,9.37,61.13Z" fill="#22cac5"/><path d="M8.15,38.87H6.52V58.28a1.229,1.229,0,0,1-1.23,1.23H2v1.63a1.229,1.229,0,0,0,1.23,1.23H8.15a1.229,1.229,0,0,0,1.23-1.23V40.09A1.24,1.24,0,0,0,8.15,38.87Z" fill="#178d89"/><path d="M57.28,40.96H32.14a2.49,2.49,0,0,1-2.49-2.49V23.27H59.78v15.2A2.492,2.492,0,0,1,57.28,40.96Z" fill="#efddcf"/><path d="M56.68,23.27A14.587,14.587,0,0,1,42.09,37.86H29.65v.6a2.49,2.49,0,0,0,2.49,2.49H57.28a2.49,2.49,0,0,0,2.49-2.49V23.26H56.68Z" fill="#dfbba0"/><path d="M63.1,21.52l-3.32-6.46H29.65l-3.32,6.46a1.245,1.245,0,0,0,1.14,1.75h34.5a1.24,1.24,0,0,0,1.13-1.75Z" fill="#efddcf"/><path d="M63.1,21.52l-3.32-6.46H57.57a5.017,5.017,0,0,1-4.95,5.83H26.65l-.33.63a1.245,1.245,0,0,0,1.14,1.75h34.5a1.242,1.242,0,0,0,1.14-1.75Z" fill="#dfbba0"/><path d="M32.68,12.17v2.89H39.4a5.4,5.4,0,1,1,10.62,0h6.72V12.17l-2.46-.43a9.538,9.538,0,0,0-1.14-2.75l1.43-2.04L51.85,4.23,49.81,5.66a10.132,10.132,0,0,0-2.75-1.14l-.43-2.46H42.79l-.43,2.46a9.538,9.538,0,0,0-2.75,1.14L37.57,4.23,34.85,6.95l1.43,2.04a10.132,10.132,0,0,0-1.14,2.75Z" fill="#22cac5"/><path d="M33.26,64.69A31.553,31.553,0,0,1,21.8,62.5c-7.66-3-12.28-2.47-12.33-2.47a.742.742,0,0,1-.84-.74V43.3a.765.765,0,0,1,.34-.63C18,36.8,24.91,40.36,28.22,43a7.667,7.667,0,0,0,4.8,1.73H40.3A4.77,4.77,0,0,1,45,50.29a4.4,4.4,0,0,1-.27.96l13.55-4.86a4.837,4.837,0,0,1,4.19,8.66A74.533,74.533,0,0,1,39.65,64,29.353,29.353,0,0,1,33.26,64.69Zm-22.79-6.2a33.264,33.264,0,0,1,11.88,2.62,29.307,29.307,0,0,0,16.98,1.44,73.467,73.467,0,0,0,22.36-8.76,3.331,3.331,0,0,0-2.89-5.96l-16.18,5.8a5.137,5.137,0,0,1-2.52.65H30.93a.75.75,0,0,1,0-1.5H40.1a3.663,3.663,0,0,0,1.75-.44.638.638,0,0,1,.14-.08,3.182,3.182,0,0,0,1.54-2.19,3.265,3.265,0,0,0-3.22-3.82H33.03a9.261,9.261,0,0,1-5.74-2.06c-2.95-2.36-9.08-5.52-17.16-.46V58.51a1.777,1.777,0,0,1,.34-.02Z"/><path d="M8.15,63.11H3.23a1.985,1.985,0,0,1-1.98-1.98V40.09a1.985,1.985,0,0,1,1.98-1.98H8.15a1.985,1.985,0,0,1,1.98,1.98V61.13A1.991,1.991,0,0,1,8.15,63.11ZM3.23,39.62a.48.48,0,0,0-.48.48V61.14a.48.48,0,0,0,.48.48H8.15a.48.48,0,0,0,.48-.48V40.09a.48.48,0,0,0-.48-.48H3.23Z"/><path d="M57.28,41.71H32.14a3.246,3.246,0,0,1-3.24-3.24V23.27a.755.755,0,0,1,.75-.75H59.78a.755.755,0,0,1,.75.75v15.2A3.248,3.248,0,0,1,57.28,41.71ZM30.4,24.02V38.47a1.741,1.741,0,0,0,1.74,1.74H57.28a1.741,1.741,0,0,0,1.74-1.74V24.02Z"/><path d="M61.96,24.02H27.46a2,2,0,0,1-1.82-2.81l3.34-6.5a.76.76,0,0,1,.67-.41H59.78a.76.76,0,0,1,.67.41l3.32,6.46c.01.01.01.02.02.04a2,2,0,0,1-1.83,2.81ZM30.1,15.81l-3.12,6.05a.469.469,0,0,0,.06.44.479.479,0,0,0,.42.23h34.5a.51.51,0,0,0,.42-.23.5.5,0,0,0,.04-.46l-3.1-6.03Z"/><path d="M39.4,15.81a.749.749,0,0,1-.74-.62,6.15,6.15,0,1,1,12.1,0,.747.747,0,1,1-1.47-.27,4.648,4.648,0,0,0-7.86-4.13,4.636,4.636,0,0,0-1.28,4.13.751.751,0,0,1-.6.87.887.887,0,0,1-.15.02Z"/><path d="M56.75,15.81a.755.755,0,0,1-.75-.75V12.8l-1.84-.32a.751.751,0,0,1-.6-.56,8.973,8.973,0,0,0-1.05-2.54.761.761,0,0,1,.03-.82l1.07-1.53L51.78,5.2,50.25,6.27a.762.762,0,0,1-.82.03,8.973,8.973,0,0,0-2.54-1.05.751.751,0,0,1-.56-.6L46,2.81H43.42L43.1,4.65a.751.751,0,0,1-.56.6A8.581,8.581,0,0,0,40,6.3a.761.761,0,0,1-.82-.03L37.65,5.2,35.82,7.03l1.07,1.53a.761.761,0,0,1,.03.82,8.973,8.973,0,0,0-1.05,2.54.751.751,0,0,1-.6.56l-1.84.32v2.26a.75.75,0,0,1-1.5,0V12.17a.751.751,0,0,1,.62-.74l1.99-.35a10.807,10.807,0,0,1,.85-2.05L34.23,7.38a.757.757,0,0,1,.08-.96L37.03,3.7a.744.744,0,0,1,.96-.08l1.65,1.16a10.807,10.807,0,0,1,2.05-.85l.35-1.99a.743.743,0,0,1,.74-.62h3.84a.751.751,0,0,1,.74.62l.35,1.99a10.807,10.807,0,0,1,2.05.85l1.65-1.16a.757.757,0,0,1,.96.08l2.72,2.72a.744.744,0,0,1,.08.96L54.01,9.03a10.193,10.193,0,0,1,.85,2.05l1.99.35a.743.743,0,0,1,.62.74v2.89A.712.712,0,0,1,56.75,15.81Z"/></g></g></svg>