<svg xmlns="http://www.w3.org/2000/svg" xmlns:xlink="http://www.w3.org/1999/xlink" width="140" height="140" viewBox="0 0 140 140"><defs><filter id="a" x="0" y="0" width="140" height="140" filterUnits="userSpaceOnUse"><feOffset dy="3" input="SourceAlpha"/><feGaussianBlur stdDeviation="3" result="b"/><feFlood flood-opacity="0.161"/><feComposite operator="in" in2="b"/><feComposite in="SourceGraphic"/></filter></defs><g transform="translate(-1097.814 -1752.371)"><g transform="translate(802.007 -1864.68)"><g transform="matrix(1, 0, 0, 1, 295.81, 3617.05)" filter="url(#a)"><circle cx="61" cy="61" r="61" transform="translate(9 6)" fill="#fff" opacity="0.45"/></g><circle cx="49" cy="49" r="49" transform="translate(316.808 3635.051)" fill="#fff"/></g><g transform="translate(1089.22 1776.661)"><path d="M82.907,45.648a.955.955,0,1,1,1.861-.429c.326,1.421,1.907,1.606,2.788,1.492a1.564,1.564,0,0,0,1.312-.841.917.917,0,0,0-.2-.955c-.431-.519-.852-.6-1.684-.726a7.39,7.39,0,0,1-1.5-.342l-.029-.012a3.064,3.064,0,0,1-2.127-2.847,3.161,3.161,0,0,1,2.165-2.862,4.293,4.293,0,0,1,.479-.147v-.8a.955.955,0,0,1,1.911,0v.779a4.078,4.078,0,0,1,2.851,2.625.955.955,0,1,1-1.787.677,2.082,2.082,0,0,0-2.79-1.339,1.292,1.292,0,0,0-.919,1.1c-.007.426.32.8.919,1.043a5.731,5.731,0,0,0,1.112.24,4.1,4.1,0,0,1,2.869,1.393,2.831,2.831,0,0,1,.513,2.876A3.391,3.391,0,0,1,87.877,48.6v.722a.955.955,0,1,1-1.911,0v-.777a3.847,3.847,0,0,1-3.06-2.892Zm-1.375-16.9,1.7,1.3v3.607a10.193,10.193,0,0,0-3.4,2.133V30.048Zm11.224,8.605a8.338,8.338,0,1,0,2.443,5.9,8.338,8.338,0,0,0-2.443-5.9Zm-3.4-12.919,1.7-1.3,1.7,1.3V34.864a10.11,10.11,0,0,0-3.4-1.563Zm9.525-4.675,1.7-1.3,1.7,1.3V41.879h-3.4V19.755ZM67.308,47.3H77.451a10.252,10.252,0,0,0,18.824,0h8.494a.955.955,0,1,0,0-1.911H96.884a10.317,10.317,0,0,0,.224-2.069.955.955,0,0,0,.819.465h5.313a.955.955,0,0,0,.955-.955V19.284a.952.952,0,0,0-.374-.758l-2.656-2.038a.954.954,0,0,0-1.163,0l-2.657,2.038a.955.955,0,0,0-.374.757V41.569a10.142,10.142,0,0,0-2.3-4.958V23.959A.951.951,0,0,0,94.3,23.2L91.64,21.163a.955.955,0,0,0-1.163,0L87.82,23.2a.951.951,0,0,0-.374.757v9.056C87.252,33,87.057,33,86.86,33a10.356,10.356,0,0,0-1.715.146V29.576a.958.958,0,0,0-.374-.757l-2.657-2.038a.958.958,0,0,0-1.163,0l-2.656,2.038a.954.954,0,0,0-.374.757v8.659a10.278,10.278,0,0,0-1.077,7.159H67.308a.955.955,0,0,0,0,1.911Zm-.082-18.283a.956.956,0,0,0,.9.635.944.944,0,0,0,.321-.056,100.567,100.567,0,0,0,30.8-17.138l-.1.823a.955.955,0,0,0,.831,1.066,1.155,1.155,0,0,0,.117.007.955.955,0,0,0,.947-.838l.4-3.267a.954.954,0,0,0-.9-1.07L97.245,9a.955.955,0,1,0-.1,1.908l.921.05A98.613,98.613,0,0,1,67.806,27.8a.957.957,0,0,0-.58,1.222Zm6.481,12.858H70.3V34.933l1.7-1.3,1.7,1.3ZM72.588,31.667,75.244,33.7a.952.952,0,0,1,.374.758v8.372a.955.955,0,0,1-.955.955H69.349a.955.955,0,0,1-.955-.955V34.462a.955.955,0,0,1,.374-.758l2.657-2.038a.954.954,0,0,1,1.163,0Zm-14.445,30.1a.955.955,0,1,1-1.655.955l-1.1-1.908a.955.955,0,1,1,1.654-.955l1.1,1.908Zm46.19-4.874c-.048.92-.808,1.765-2.142,2.376a.791.791,0,0,0-.094.051L84.939,69.666l-.015.01a5.708,5.708,0,0,1-5.212.468l-.061-.019L68.531,67.068c-.118-.033-.2-.062-.277-.087a1.406,1.406,0,0,0-1.463.233l-.646.414-5.606-9.71c4.687-2.831,7.284-4.4,7.521-4.539,2.528-1.363,10.374.046,14.5,2.611,1.407.873,2.2,1.781,2.167,2.492-.027.643-.755,1.368-2.049,2.049a35.538,35.538,0,0,1-7.729-1.818.956.956,0,1,0-.6,1.815c6.8,2.238,11.158,2.544,13.322.931L99.167,55.2a.532.532,0,0,0,.046-.027,3.64,3.64,0,0,1,3.906-.276,2.266,2.266,0,0,1,1.213,2Zm-39.5,14.788a1.256,1.256,0,0,0,.459-1.71L58.286,57.839a1.251,1.251,0,0,0-1.709-.457l-4.3,2.48,8.256,14.3Zm39.258-18.429a5.611,5.611,0,0,0-5.861.282L86.7,59.816a1.143,1.143,0,0,0-.13.086,2.471,2.471,0,0,1-.5.3,3.094,3.094,0,0,0,.569-1.635c.063-1.482-.969-2.893-3.068-4.2-4.4-2.732-13.027-4.53-16.446-2.653l-.034.019s-2.633,1.586-7.579,4.574a3.168,3.168,0,0,0-3.89-.579L50.5,58.684a.956.956,0,0,0-.349,1.306L59.36,75.944a.954.954,0,0,0,.828.478.942.942,0,0,0,.476-.128l5.124-2.958a3.166,3.166,0,0,0,1.3-4.043l.7-.45c.065.02.143.044.232.068l11.088,3.046a8.718,8.718,0,0,0,2.856.509A7.346,7.346,0,0,0,85.934,71.3L103.04,60.983c2.669-1.243,3.153-3.033,3.2-3.991a4.16,4.16,0,0,0-2.15-3.74Z" fill="#242222" fill-rule="evenodd"/><path d="M127.083,335.358l5.606,9.71.646-.414a1.406,1.406,0,0,1,1.463-.233c.074.026.159.055.277.087l11.119,3.056c.02.005.041.012.061.019a5.708,5.708,0,0,0,5.212-.468l.015-.01,17.158-10.345a.786.786,0,0,1,.094-.051c1.333-.611,2.094-1.456,2.142-2.376a2.266,2.266,0,0,0-1.213-2,3.64,3.64,0,0,0-3.906.276c-.015.009-.03.019-.046.027L154.222,338.9c-2.164,1.613-6.524,1.307-13.322-.931a.956.956,0,1,1,.6-1.815,35.536,35.536,0,0,0,7.729,1.818c1.294-.681,2.021-1.406,2.049-2.049.03-.711-.76-1.619-2.167-2.492-4.13-2.565-11.976-3.974-14.5-2.611-.237.143-2.835,1.708-7.521,4.539Z" transform="translate(-66.545 -277.44)" fill="#f6dccd" fill-rule="evenodd"/><path d="M229.838,368.616a.955.955,0,0,1,.391.044,35.538,35.538,0,0,0,7.729,1.818,7.61,7.61,0,0,0,1.1-.687l-8.18-1.835a.868.868,0,0,0-1.034.655Z" transform="translate(-155.275 -309.947)" fill="#f1cbbc" fill-rule="evenodd"/><path d="M127.083,335.357l2.373,4.11,13.5-8.455c-3.4-.832-6.837-1.014-8.356-.195C134.367,330.961,131.77,332.526,127.083,335.357Z" transform="translate(-66.545 -277.439)" fill="#f1cbbc" fill-rule="evenodd"/><path d="M79.6,375.026,72.6,362.894a1.251,1.251,0,0,0-1.709-.457l-4.3,2.48,8.256,14.3,4.295-2.48A1.256,1.256,0,0,0,79.6,375.026Zm-7.149-8.2a.955.955,0,1,1-1.655.955l-1.1-1.908a.955.955,0,1,1,1.654-.955Z" transform="translate(-14.31 -305.055)" fill="#22cac5" fill-rule="evenodd"/><path d="M198.642,190.764v6.946h3.4v-6.946l-1.7-1.3Z" transform="translate(-128.337 -155.831)" fill="#b15815" fill-rule="evenodd"/><path d="M268.441,154.974v5.741a10.193,10.193,0,0,1,3.4-2.133v-3.607l-1.7-1.3Z" transform="translate(-188.61 -124.925)" fill="#116562" fill-rule="evenodd"/><path d="M261.284,201.262a8.338,8.338,0,1,0,5.9-2.443A8.338,8.338,0,0,0,261.284,201.262Zm1.944,8.3a.955.955,0,1,1,1.861-.429c.326,1.421,1.907,1.606,2.788,1.492a1.564,1.564,0,0,0,1.312-.841.917.917,0,0,0-.2-.955c-.431-.519-.852-.6-1.684-.726a7.39,7.39,0,0,1-1.5-.342l-.029-.012a3.064,3.064,0,0,1-2.127-2.847,3.161,3.161,0,0,1,2.165-2.862,4.289,4.289,0,0,1,.479-.147v-.8a.955.955,0,0,1,1.911,0v.779a4.078,4.078,0,0,1,2.851,2.625.955.955,0,1,1-1.787.677,2.082,2.082,0,0,0-2.79-1.339,1.292,1.292,0,0,0-.919,1.1c-.007.426.319.8.919,1.043a5.73,5.73,0,0,0,1.112.24,4.1,4.1,0,0,1,2.869,1.393,2.831,2.831,0,0,1,.513,2.876,3.39,3.39,0,0,1-2.769,2.027v.722a.955.955,0,1,1-1.911,0v-.777A3.847,3.847,0,0,1,263.228,209.562Z" transform="translate(-180.321 -163.913)" fill="#fdc72e" fill-rule="evenodd"/><path d="M338.232,113.8v8.871a10.11,10.11,0,0,1,3.4,1.563V113.8l-1.7-1.3Z" transform="translate(-248.875 -89.375)" fill="#a6eae8" fill-rule="evenodd"/><path d="M408.022,79.555v22.124h3.4V79.555l-1.7-1.3Z" transform="translate(-309.14 -59.8)" fill="#22cac5" fill-rule="evenodd"/></g></g></svg>