<svg xmlns="http://www.w3.org/2000/svg" width="65.632" height="72.001" viewBox="0 0 65.632 72.001"><g transform="translate(-11.808)"><g transform="translate(11.808 0)"><g transform="translate(8.777 8.297)"><path d="M90.82,90.669V30.9a1.405,1.405,0,0,0-1.4-1.4h-45a1.405,1.405,0,0,0-1.4,1.4V90.669A1.832,1.832,0,0,0,44.847,92.5H88.988A1.831,1.831,0,0,0,90.82,90.669Z" transform="translate(-43.015 -29.5)" fill="#dae6f1"/></g><g transform="translate(13.063 24.002)"><path d="M89.682,106.961l-2.426-1.943a1.082,1.082,0,0,1-.4-1,12.836,12.836,0,0,0,0-3.79,1.082,1.082,0,0,1,.4-1l.36-.289a.5.5,0,0,0-.086-.048,6.184,6.184,0,0,1-1.59-.919.521.521,0,0,0-.514-.074l-1.4.546a.528.528,0,0,1-.649-.228l-1.2-2.076a.528.528,0,0,1,.127-.676l1.172-.939a.523.523,0,0,0,.192-.484,6.19,6.19,0,0,1,0-1.831.513.513,0,0,0,0-.139l-.449.175a1.078,1.078,0,0,1-1.063-.152,12.808,12.808,0,0,0-3.292-1.9,1.077,1.077,0,0,1-.662-.844l-.47-3.072a1.093,1.093,0,0,0-1.081-.928H71.692a1.093,1.093,0,0,0-1.081.928l-.47,3.072a1.077,1.077,0,0,1-.662.844,12.809,12.809,0,0,0-3.292,1.9,1.078,1.078,0,0,1-1.063.152l-2.9-1.131a1.093,1.093,0,0,0-1.344.472l-2.481,4.3a1.093,1.093,0,0,0,.264,1.4l2.426,1.943a1.082,1.082,0,0,1,.4,1,12.836,12.836,0,0,0,0,3.79,1.082,1.082,0,0,1-.4,1l-2.426,1.943a1.093,1.093,0,0,0-.264,1.4l2.481,4.3a1.093,1.093,0,0,0,1.344.472l2.9-1.131a1.078,1.078,0,0,1,1.063.152,12.809,12.809,0,0,0,3.292,1.9,1.077,1.077,0,0,1,.662.844l.47,3.072a1.093,1.093,0,0,0,1.081.928h4.962a1.093,1.093,0,0,0,1.081-.928l.47-3.072a1.077,1.077,0,0,1,.662-.844,12.809,12.809,0,0,0,3.292-1.9A1.078,1.078,0,0,1,83.221,112l2.9,1.131a1.094,1.094,0,0,0,1.344-.472l2.481-4.3a1.092,1.092,0,0,0-.263-1.4Z" transform="translate(-58.255 -85.341)" fill="#70d6f9"/></g><g transform="translate(36.915 23.676)"><path d="M158.242,94.624l-1.172-.939a.523.523,0,0,1-.192-.484,6.218,6.218,0,0,0,0-1.831.523.523,0,0,1,.192-.484l1.172-.939a.528.528,0,0,0,.127-.676l-1.2-2.076a.528.528,0,0,0-.649-.228l-1.4.546a.521.521,0,0,1-.514-.074,6.191,6.191,0,0,0-1.59-.919.52.52,0,0,1-.319-.408l-.227-1.484a.528.528,0,0,0-.522-.448h-2.4a.528.528,0,0,0-.522.448l-.227,1.484a.52.52,0,0,1-.32.408,6.179,6.179,0,0,0-1.59.919.521.521,0,0,1-.514.074l-1.4-.546a.528.528,0,0,0-.649.228l-1.2,2.076a.528.528,0,0,0,.127.676l1.172.939a.523.523,0,0,1,.192.484,6.215,6.215,0,0,0,0,1.831.523.523,0,0,1-.192.484l-1.172.939a.528.528,0,0,0-.127.676l1.2,2.076a.528.528,0,0,0,.649.228l1.4-.546a.521.521,0,0,1,.514.074,6.191,6.191,0,0,0,1.59.919.52.52,0,0,1,.319.408l.227,1.484a.528.528,0,0,0,.522.448h2.4a.528.528,0,0,0,.522-.448l.227-1.484a.52.52,0,0,1,.32-.408,6.178,6.178,0,0,0,1.59-.919.521.521,0,0,1,.514-.074l1.4.546a.528.528,0,0,0,.649-.228l1.2-2.076A.528.528,0,0,0,158.242,94.624Zm-7.492.88a3.219,3.219,0,1,1,3.219-3.219A3.222,3.222,0,0,1,150.75,95.5Z" transform="translate(-143.06 -84.18)" fill="#f5c84c"/></g><g transform="translate(19.46 31.259)"><path d="M90.519,130.188a9.522,9.522,0,1,1,9.522-9.522A9.533,9.533,0,0,1,90.519,130.188Z" transform="translate(-80.997 -111.143)" fill="#fcdd86"/></g><g transform="translate(22.319 34.119)"><circle cx="6.663" cy="6.663" r="6.663" fill="#f5c84c"/></g><g transform="translate(8.777 8.297)"><path d="M90.82,34.8V30.9a1.405,1.405,0,0,0-1.4-1.4h-45a1.405,1.405,0,0,0-1.4,1.4v3.9h47.8Z" transform="translate(-43.015 -29.5)" fill="#5290db"/></g><g transform="translate(8.777 8.297)"><path d="M48.991,29.5H44.416a1.405,1.405,0,0,0-1.4,1.4v3.9h5.976Z" transform="translate(-43.015 -29.5)" fill="#fc657e"/></g><g transform="translate(2.371 55.133)"><path d="M23.831,197.762a2.193,2.193,0,0,1-1.744-1.716c0-.028-.084-.028-.084,0a2.193,2.193,0,0,1-1.744,1.716c-.028,0-.028.056,0,.084A2.192,2.192,0,0,1,22,199.562c0,.028.084.028.084,0a2.192,2.192,0,0,1,1.744-1.716C23.859,197.818,23.859,197.762,23.831,197.762Z" transform="translate(-20.238 -196.025)" fill="#70d6f9"/></g><g transform="translate(0 6.356)"><path d="M12.709,25.947h.647v.647a.889.889,0,0,0,.9.9.9.9,0,0,0,.9-.872v-.675H15.8a.888.888,0,0,0,.9-.9.9.9,0,0,0-.872-.9h-.675V23.5a.888.888,0,0,0-.9-.9.9.9,0,0,0-.9.872v.675h-.647a.888.888,0,0,0-.9.9.871.871,0,0,0,.9.9Z" transform="translate(-11.808 -22.6)" fill="#87d147"/></g><g transform="translate(60.527 53.86)"><circle cx="0.956" cy="0.956" r="0.956" fill="#fc657e"/></g><g transform="translate(16.933 0)"><circle cx="0.956" cy="0.956" r="0.956" fill="#f5c84c"/></g><g transform="translate(60.429 41.161)"><path d="M226.705,148.839a3.121,3.121,0,0,0,2.5-2.447c0-.056.112-.056.112,0a3.121,3.121,0,0,0,2.5,2.447c.056,0,.056.084,0,.113a3.121,3.121,0,0,0-2.5,2.447c0,.056-.112.056-.112,0a3.121,3.121,0,0,0-2.5-2.447C226.649,148.923,226.649,148.839,226.705,148.839Z" transform="translate(-226.663 -146.35)" fill="#f5c84c"/></g><g transform="translate(49.188 10.165)"><path d="M190.707,37.548H187.4a.7.7,0,0,1,0-1.406h3.308a.7.7,0,0,1,0,1.406Z" transform="translate(-186.695 -36.142)"/></g><g transform="translate(17.199 10.165)"><path d="M102.539,37.548H73.662a.7.7,0,0,1,0-1.406h28.877a.7.7,0,1,1,0,1.406Z" transform="translate(-72.959 -36.142)"/></g><g transform="translate(8.308 12.897)"><path d="M89.343,47.26H42.049a.7.7,0,1,1,0-1.406H89.343a.7.7,0,1,1,0,1.406Z" transform="translate(-41.346 -45.854)"/></g><g transform="translate(14.05 7.859)"><path d="M62.467,34.158a.7.7,0,0,1-.7-.7V28.644a.7.7,0,0,1,1.406,0v4.811A.7.7,0,0,1,62.467,34.158Z" transform="translate(-61.764 -27.941)"/></g><g transform="translate(8.074 7.594)"><path d="M87.191,91.407H43.049a2.538,2.538,0,0,1-2.535-2.535V29.1a2.107,2.107,0,0,1,2.1-2.1h45a2.107,2.107,0,0,1,2.1,2.1V88.872a2.537,2.537,0,0,1-2.534,2.535Zm-44.572-63a.7.7,0,0,0-.7.7V88.872A1.13,1.13,0,0,0,43.049,90H87.191a1.13,1.13,0,0,0,1.129-1.128V29.1a.7.7,0,0,0-.7-.7Z" transform="translate(-40.514 -27)"/></g><g transform="translate(26.033 35.907)"><g transform="translate(0 0.642)"><path d="M107.959,138.415h-1.283a2.31,2.31,0,0,1-2.308-2.308.7.7,0,0,1,1.406,0,.9.9,0,0,0,.9.9h1.283a.9.9,0,0,0,.9-.9v-.642a.9.9,0,0,0-.9-.9h-1.283a2.308,2.308,0,0,1,0-4.615h1.283a2.31,2.31,0,0,1,2.308,2.308.7.7,0,0,1-1.406,0,.9.9,0,0,0-.9-.9h-1.283a.9.9,0,1,0,0,1.8h1.283a2.31,2.31,0,0,1,2.308,2.308v.642A2.31,2.31,0,0,1,107.959,138.415Z" transform="translate(-104.368 -129.949)"/></g><g transform="translate(2.246)"><path d="M113.057,137.418a.7.7,0,0,1-.7-.7v-8.343a.7.7,0,1,1,1.406,0v8.343A.7.7,0,0,1,113.057,137.418Z" transform="translate(-112.354 -127.668)"/></g></g><g transform="translate(12.358 23.3)"><path d="M74.851,117.808H69.89a1.787,1.787,0,0,1-1.776-1.525l-.47-3.073a.372.372,0,0,0-.224-.3,13.489,13.489,0,0,1-3.473-2.007.374.374,0,0,0-.369-.047l-2.9,1.131a1.787,1.787,0,0,1-2.209-.775l-2.481-4.3a1.786,1.786,0,0,1,.433-2.3l2.426-1.943a.381.381,0,0,0,.142-.35,13.549,13.549,0,0,1,0-4,.38.38,0,0,0-.142-.35l-2.426-1.943a1.786,1.786,0,0,1-.433-2.3l2.481-4.3a1.788,1.788,0,0,1,2.209-.775l2.9,1.131a.373.373,0,0,0,.369-.047,13.494,13.494,0,0,1,3.473-2.008.373.373,0,0,0,.224-.3l.47-3.072a1.787,1.787,0,0,1,1.776-1.525h4.962a1.786,1.786,0,0,1,1.776,1.525l.47,3.072a.372.372,0,0,0,.224.3,13.5,13.5,0,0,1,3.473,2.008.374.374,0,0,0,.369.047l.314-.122a.7.7,0,1,1,.511,1.31l-.314.122a1.785,1.785,0,0,1-1.756-.258,12.093,12.093,0,0,0-3.112-1.8,1.784,1.784,0,0,1-1.1-1.392l-.47-3.072a.388.388,0,0,0-.386-.331H69.89a.389.389,0,0,0-.386.332l-.469,3.072a1.784,1.784,0,0,1-1.1,1.392,12.09,12.09,0,0,0-3.111,1.8,1.784,1.784,0,0,1-1.757.258l-2.9-1.131a.388.388,0,0,0-.48.168l-2.481,4.3a.388.388,0,0,0,.094.5l2.426,1.943a1.791,1.791,0,0,1,.654,1.655,12.123,12.123,0,0,0,0,3.582,1.792,1.792,0,0,1-.654,1.655L57.3,105.716a.389.389,0,0,0-.094.5l2.481,4.3a.388.388,0,0,0,.48.168l2.9-1.131a1.784,1.784,0,0,1,1.756.258,12.091,12.091,0,0,0,3.111,1.8,1.784,1.784,0,0,1,1.1,1.392l.47,3.072a.388.388,0,0,0,.386.331h4.962a.388.388,0,0,0,.386-.331l.47-3.072a1.784,1.784,0,0,1,1.1-1.392,12.078,12.078,0,0,0,3.112-1.8,1.785,1.785,0,0,1,1.757-.258l2.9,1.131a.387.387,0,0,0,.48-.168l2.481-4.3a.389.389,0,0,0-.094-.5l-2.426-1.943a1.791,1.791,0,0,1-.654-1.655,12.125,12.125,0,0,0,0-3.582,1.79,1.79,0,0,1,.654-1.655l.246-.2a.7.7,0,1,1,.879,1.1l-.246.2a.381.381,0,0,0-.142.35,13.547,13.547,0,0,1,0,4,.381.381,0,0,0,.142.35l2.426,1.943a1.786,1.786,0,0,1,.433,2.3l-2.481,4.3a1.787,1.787,0,0,1-2.209.775l-2.9-1.131a.375.375,0,0,0-.369.047,13.482,13.482,0,0,1-3.473,2.007.373.373,0,0,0-.224.3l-.47,3.072A1.786,1.786,0,0,1,74.851,117.808Z" transform="translate(-55.746 -82.844)"/></g><g transform="translate(36.21 22.974)"><path d="M150.148,99.3h-2.4a1.225,1.225,0,0,1-1.217-1.045l-.212-1.385a6.891,6.891,0,0,1-1.581-.914l-1.307.51a1.225,1.225,0,0,1-1.514-.531l-1.2-2.076a1.224,1.224,0,0,1,.3-1.576l1.094-.876a6.905,6.905,0,0,1,0-1.828l-1.094-.876a1.225,1.225,0,0,1-.3-1.577l1.2-2.076a1.224,1.224,0,0,1,1.514-.532l1.307.51a6.885,6.885,0,0,1,1.581-.914l.212-1.385a1.225,1.225,0,0,1,1.217-1.045h2.4a1.224,1.224,0,0,1,1.217,1.046l.212,1.385a6.881,6.881,0,0,1,1.581.914l1.307-.51a1.225,1.225,0,0,1,1.514.531l1.2,2.076a1.224,1.224,0,0,1-.3,1.576l-1.094.876a6.905,6.905,0,0,1,0,1.828l1.094.876a1.225,1.225,0,0,1,.3,1.577l-1.2,2.076a1.224,1.224,0,0,1-1.514.532l-1.307-.51a6.877,6.877,0,0,1-1.581.914l-.212,1.385a1.224,1.224,0,0,1-1.217,1.045ZM147.9,97.895H150l.2-1.336a1.227,1.227,0,0,1,.757-.955,5.482,5.482,0,0,0,1.41-.815,1.226,1.226,0,0,1,1.207-.179l1.26.492,1.048-1.816-1.055-.845a1.23,1.23,0,0,1-.448-1.137,5.506,5.506,0,0,0,0-1.624,1.229,1.229,0,0,1,.448-1.137l1.055-.845-1.048-1.816-1.26.492a1.226,1.226,0,0,1-1.207-.179,5.482,5.482,0,0,0-1.409-.815,1.226,1.226,0,0,1-.757-.955L150,83.09h-2.1l-.2,1.336a1.225,1.225,0,0,1-.757.955,5.482,5.482,0,0,0-1.41.815,1.229,1.229,0,0,1-1.207.179l-1.26-.492L142.014,87.7l1.055.845a1.23,1.23,0,0,1,.448,1.137,5.506,5.506,0,0,0,0,1.624,1.229,1.229,0,0,1-.448,1.137l-1.055.845,1.048,1.816,1.26-.492a1.227,1.227,0,0,1,1.207.179,5.478,5.478,0,0,0,1.41.815,1.225,1.225,0,0,1,.757.956ZM156,93.38h0Z" transform="translate(-140.554 -81.685)"/></g><g transform="translate(40.683 27.86)"><path d="M160.38,106.9a3.922,3.922,0,1,1,3.922-3.922A3.926,3.926,0,0,1,160.38,106.9Zm0-6.437a2.516,2.516,0,1,0,2.516,2.516A2.518,2.518,0,0,0,160.38,100.462Z" transform="translate(-156.458 -99.056)"/></g><g transform="translate(18.757 30.556)"><path d="M88.723,129.094a10.226,10.226,0,1,1,10.226-10.226A10.237,10.237,0,0,1,88.723,129.094Zm0-19.045a8.819,8.819,0,1,0,8.819,8.819A8.829,8.829,0,0,0,88.723,110.049Z" transform="translate(-78.497 -108.643)"/></g><g transform="translate(21.616 33.416)"><path d="M96.031,133.542a7.366,7.366,0,1,1,7.366-7.366A7.374,7.374,0,0,1,96.031,133.542Zm0-13.326a5.96,5.96,0,1,0,5.96,5.96A5.966,5.966,0,0,0,96.031,120.216Z" transform="translate(-88.665 -118.81)"/></g></g></g></svg>