<svg xmlns="http://www.w3.org/2000/svg" xmlns:xlink="http://www.w3.org/1999/xlink" width="140" height="140" viewBox="0 0 140 140"><defs><filter id="a" x="0" y="0" width="140" height="140" filterUnits="userSpaceOnUse"><feOffset dy="3" input="SourceAlpha"/><feGaussianBlur stdDeviation="3" result="b"/><feFlood flood-opacity="0.161"/><feComposite operator="in" in2="b"/><feComposite in="SourceGraphic"/></filter></defs><g transform="translate(-1150.151 -822.955)"><g transform="translate(1159.151 828.955)"><g transform="matrix(1, 0, 0, 1, -9, -6)" filter="url(#a)"><circle cx="61" cy="61" r="61" transform="translate(9 6)" fill="#fff" opacity="0.45"/></g><circle cx="49" cy="49" r="49" transform="translate(12 12)" fill="#fff"/></g><g transform="translate(1162.879 831.213)"><path d="M61.81,199.293a15.467,15.467,0,0,0,0-4.453,1.914,1.914,0,0,0-1.905-1.645,3.869,3.869,0,0,1-3.354-5.811,1.914,1.914,0,0,0-.475-2.476,15.644,15.644,0,0,0-3.852-2.224,1.914,1.914,0,0,0-2.381.826,3.869,3.869,0,0,1-6.709,0,1.914,1.914,0,0,0-2.377-.827,15.471,15.471,0,0,0-3.859,2.223,1.914,1.914,0,0,0-.474,2.475,3.869,3.869,0,0,1-3.356,5.812,1.914,1.914,0,0,0-1.907,1.648,15.462,15.462,0,0,0,0,4.453,1.913,1.913,0,0,0,1.905,1.645,3.869,3.869,0,0,1,3.354,5.811,1.914,1.914,0,0,0,.475,2.476,15.641,15.641,0,0,0,3.852,2.224,1.914,1.914,0,0,0,2.381-.827,3.869,3.869,0,0,1,6.709,0,1.914,1.914,0,0,0,2.377.827,15.465,15.465,0,0,0,3.859-2.223,1.913,1.913,0,0,0,.473-2.475,3.869,3.869,0,0,1,3.355-5.812A1.914,1.914,0,0,0,61.81,199.293Z" transform="translate(-4.321 -133.816)" fill="#d2f5f4" fill-rule="evenodd"/><circle cx="8.898" cy="8.898" r="8.898" transform="translate(32.243 55.524) rotate(-7.004)" fill="#ffd266"/><path d="M240.79,49.549a15.466,15.466,0,0,0,0-4.453,1.913,1.913,0,0,0-1.905-1.645,3.869,3.869,0,0,1-3.354-5.811,1.914,1.914,0,0,0-.475-2.476A15.644,15.644,0,0,0,231.2,32.94a1.914,1.914,0,0,0-2.381.827,3.869,3.869,0,0,1-6.709,0,1.914,1.914,0,0,0-2.377-.827,15.468,15.468,0,0,0-3.859,2.223,1.914,1.914,0,0,0-.474,2.475,3.869,3.869,0,0,1-3.356,5.812,1.914,1.914,0,0,0-1.907,1.648,15.461,15.461,0,0,0,0,4.453,1.913,1.913,0,0,0,1.905,1.645,3.869,3.869,0,0,1,3.354,5.811,1.914,1.914,0,0,0,.475,2.476,15.641,15.641,0,0,0,3.852,2.224,1.914,1.914,0,0,0,2.381-.827,3.869,3.869,0,0,1,6.709,0,1.914,1.914,0,0,0,2.377.827,15.469,15.469,0,0,0,3.859-2.223,1.913,1.913,0,0,0,.473-2.475,3.869,3.869,0,0,1,3.355-5.812A1.914,1.914,0,0,0,240.79,49.549Z" transform="translate(-159.083 -4.334)" fill="#22cac5" fill-rule="evenodd"/><circle cx="8.898" cy="8.898" r="8.898" transform="translate(56.477 35.256) rotate(-7.004)" fill="#ffd266"/><path d="M282.924,281.281a15.467,15.467,0,0,0,0-4.453,1.914,1.914,0,0,0-1.905-1.645,3.869,3.869,0,0,1-3.354-5.811,1.914,1.914,0,0,0-.475-2.476,15.65,15.65,0,0,0-3.852-2.224,1.914,1.914,0,0,0-2.382.826,3.869,3.869,0,0,1-6.709,0,1.913,1.913,0,0,0-2.377-.827,15.47,15.47,0,0,0-3.859,2.223,1.914,1.914,0,0,0-.474,2.475,3.869,3.869,0,0,1-3.355,5.812,1.914,1.914,0,0,0-1.907,1.648,15.467,15.467,0,0,0,0,4.453,1.914,1.914,0,0,0,1.905,1.645,3.869,3.869,0,0,1,3.354,5.811,1.914,1.914,0,0,0,.475,2.476,15.643,15.643,0,0,0,3.852,2.224,1.914,1.914,0,0,0,2.381-.826,3.869,3.869,0,0,1,6.709,0,1.914,1.914,0,0,0,2.377.827,15.464,15.464,0,0,0,3.859-2.223,1.913,1.913,0,0,0,.473-2.475,3.869,3.869,0,0,1,3.355-5.812A1.913,1.913,0,0,0,282.924,281.281Z" transform="translate(-195.516 -204.71)" fill="#b15815" fill-rule="evenodd"/><circle cx="8.898" cy="8.898" r="8.898" transform="translate(63.183 65.447)" fill="#ffd266"/><path d="M76.018,76.209a2.542,2.542,0,0,1-2.539,2.539h-.722v1.339a.676.676,0,1,1-1.353,0V78.748H69.211a.677.677,0,0,1,0-1.353h4.268a1.186,1.186,0,1,0,0-2.372h-2.8a2.54,2.54,0,1,1,0-5.079H71.4V68.6a.676.676,0,1,1,1.353,0v1.339h2.195a.677.677,0,0,1,0,1.353H70.683a1.186,1.186,0,1,0,0,2.373h2.8A2.543,2.543,0,0,1,76.018,76.209Zm-3.938,6.359a8.222,8.222,0,1,0-8.221-8.222A8.232,8.232,0,0,0,72.081,82.568Zm0-17.8a9.575,9.575,0,1,0,9.577,9.576,9.586,9.586,0,0,0-9.577-9.576Zm14.657,11.7a14.752,14.752,0,0,0,0-4.258A1.239,1.239,0,0,0,85.5,71.149h-.006a4.544,4.544,0,0,1-3.934-6.827,1.238,1.238,0,0,0-.309-1.6,14.865,14.865,0,0,0-3.684-2.127,1.237,1.237,0,0,0-1.544.536,4.547,4.547,0,0,1-7.882,0,1.242,1.242,0,0,0-1.541-.537,14.833,14.833,0,0,0-3.69,2.126,1.238,1.238,0,0,0-.307,1.6,4.545,4.545,0,0,1-3.934,6.828h-.01a1.238,1.238,0,0,0-1.234,1.069,14.776,14.776,0,0,0,0,4.258,1.237,1.237,0,0,0,1.234,1.066h.006A4.546,4.546,0,0,1,62.6,84.369a1.237,1.237,0,0,0,.307,1.6A14.922,14.922,0,0,0,66.6,88.1a1.238,1.238,0,0,0,1.543-.536,4.546,4.546,0,0,1,7.882,0,1.239,1.239,0,0,0,1.541.537,14.775,14.775,0,0,0,3.691-2.126,1.237,1.237,0,0,0,.306-1.6,4.545,4.545,0,0,1,3.934-6.827h.01A1.237,1.237,0,0,0,86.738,76.475Zm1.336-4.455A2.583,2.583,0,0,0,85.5,69.8h-.006A3.191,3.191,0,0,1,82.73,65a2.583,2.583,0,0,0-.642-3.348,16.282,16.282,0,0,0-4.02-2.32,2.583,2.583,0,0,0-3.219,1.118,3.192,3.192,0,0,1-5.536,0A2.582,2.582,0,0,0,66.1,59.334a16.178,16.178,0,0,0-4.028,2.32A2.582,2.582,0,0,0,61.432,65a3.192,3.192,0,0,1-2.764,4.8h-.011a2.581,2.581,0,0,0-2.572,2.227,16.146,16.146,0,0,0,0,4.649A2.582,2.582,0,0,0,58.662,78.9h.006a3.194,3.194,0,0,1,2.764,4.8,2.579,2.579,0,0,0,.642,3.346,16.254,16.254,0,0,0,4.019,2.321,2.643,2.643,0,0,0,.978.189,2.578,2.578,0,0,0,2.241-1.306,3.194,3.194,0,0,1,5.537,0,2.581,2.581,0,0,0,3.214,1.12,16.127,16.127,0,0,0,4.026-2.32,2.58,2.58,0,0,0,.641-3.347,3.193,3.193,0,0,1,2.764-4.8h.01a2.581,2.581,0,0,0,2.573-2.227,16.135,16.135,0,0,0,0-4.648ZM62.443,41.127a2.542,2.542,0,0,1,2.54-2.539H65.7v-1.34a.677.677,0,1,1,1.353,0v1.34h2.195a.676.676,0,1,1,0,1.353H64.983a1.186,1.186,0,1,0,0,2.372h2.8a2.54,2.54,0,1,1,0,5.079h-.721v1.34a.677.677,0,1,1-1.353,0v-1.34H63.509a.676.676,0,1,1,0-1.353h4.269a1.187,1.187,0,0,0,0-2.373h-2.8A2.542,2.542,0,0,1,62.443,41.127Zm3.938-6.359A8.222,8.222,0,1,0,74.6,42.989,8.231,8.231,0,0,0,66.38,34.768Zm0,17.8a9.575,9.575,0,1,0-9.575-9.576A9.586,9.586,0,0,0,66.38,52.565Zm-14.657-11.7a14.808,14.808,0,0,0,0,4.259,1.24,1.24,0,0,0,1.234,1.066h.006A4.546,4.546,0,0,1,56.9,53.013a1.237,1.237,0,0,0,.308,1.6A14.868,14.868,0,0,0,60.9,56.745a1.237,1.237,0,0,0,1.544-.535,4.546,4.546,0,0,1,7.882,0,1.239,1.239,0,0,0,1.541.537,14.8,14.8,0,0,0,3.689-2.126,1.237,1.237,0,0,0,.307-1.6,4.546,4.546,0,0,1,3.934-6.827H79.8a1.238,1.238,0,0,0,1.234-1.068h0a14.776,14.776,0,0,0,0-4.258A1.238,1.238,0,0,0,79.8,39.794h-.006a4.547,4.547,0,0,1-3.935-6.827,1.236,1.236,0,0,0-.307-1.6,14.885,14.885,0,0,0-3.684-2.127,1.235,1.235,0,0,0-1.544.535,4.547,4.547,0,0,1-7.882,0,1.238,1.238,0,0,0-1.541-.537,14.815,14.815,0,0,0-3.691,2.126,1.238,1.238,0,0,0-.307,1.6,4.546,4.546,0,0,1-3.934,6.828h-.011a1.237,1.237,0,0,0-1.233,1.067Zm1.238,6.678h.006a3.193,3.193,0,0,1,2.764,4.8,2.581,2.581,0,0,0,.642,3.347A16.257,16.257,0,0,0,60.393,58a2.628,2.628,0,0,0,.978.189,2.58,2.58,0,0,0,2.241-1.307,3.195,3.195,0,0,1,5.537,0A2.579,2.579,0,0,0,72.361,58a16.152,16.152,0,0,0,4.028-2.32,2.583,2.583,0,0,0,.64-3.347,3.192,3.192,0,0,1,2.763-4.8H79.8a2.583,2.583,0,0,0,2.574-2.227,16.187,16.187,0,0,0-.005-4.648A2.581,2.581,0,0,0,79.8,38.44h-.006a3.192,3.192,0,0,1-2.763-4.8,2.582,2.582,0,0,0-.643-3.347,16.257,16.257,0,0,0-4.019-2.32A2.579,2.579,0,0,0,69.149,29.1a3.194,3.194,0,0,1-5.537,0A2.582,2.582,0,0,0,60.4,27.978a16.165,16.165,0,0,0-4.028,2.32,2.581,2.581,0,0,0-.641,3.347,3.192,3.192,0,0,1-2.763,4.8h-.011a2.582,2.582,0,0,0-2.573,2.227,16.138,16.138,0,0,0,0,4.648,2.582,2.582,0,0,0,2.573,2.225ZM46.1,65.116a2.542,2.542,0,0,1-2.54,2.538h-.721v1.341a.677.677,0,0,1-1.353,0V67.654H39.291a.677.677,0,0,1,0-1.353H43.56a1.186,1.186,0,1,0,0-2.371h-2.8a2.54,2.54,0,0,1,0-5.08h.721V57.509a.677.677,0,1,1,1.353,0v1.339h2.195a.677.677,0,0,1,0,1.353H40.764a1.187,1.187,0,0,0,0,2.373h2.8a2.543,2.543,0,0,1,2.54,2.54Zm-3.938,6.358a8.221,8.221,0,1,1,8.222-8.221A8.232,8.232,0,0,1,42.162,71.474Zm0-17.8a9.575,9.575,0,1,1-9.575,9.575A9.586,9.586,0,0,1,42.162,53.678Zm14.657,11.7a1.237,1.237,0,0,1-1.234,1.068h-.01a4.546,4.546,0,0,0-3.934,6.828,1.238,1.238,0,0,1-.307,1.6,14.785,14.785,0,0,1-3.691,2.126A1.237,1.237,0,0,1,46.1,76.47a4.546,4.546,0,0,0-7.882,0,1.237,1.237,0,0,1-1.543.536,14.934,14.934,0,0,1-3.685-2.128,1.237,1.237,0,0,1-.308-1.6,4.546,4.546,0,0,0-3.935-6.827h-.006a1.238,1.238,0,0,1-1.233-1.066,14.8,14.8,0,0,1,0-4.258,1.239,1.239,0,0,1,1.234-1.069h.011a4.545,4.545,0,0,0,3.934-6.827,1.236,1.236,0,0,1,.307-1.6A14.728,14.728,0,0,1,36.68,49.5a1.239,1.239,0,0,1,1.541.535,4.545,4.545,0,0,0,7.882,0,1.239,1.239,0,0,1,1.543-.536,14.993,14.993,0,0,1,3.685,2.128,1.237,1.237,0,0,1,.307,1.6,4.545,4.545,0,0,0,3.935,6.826h.006a1.239,1.239,0,0,1,1.234,1.068A14.774,14.774,0,0,1,56.819,65.38Zm1.339.194A2.581,2.581,0,0,1,55.586,67.8h-.011a3.193,3.193,0,0,0-2.763,4.8,2.581,2.581,0,0,1-.641,3.347,16.118,16.118,0,0,1-4.028,2.319,2.582,2.582,0,0,1-3.214-1.118,3.193,3.193,0,0,0-5.536,0,2.579,2.579,0,0,1-2.242,1.308,2.627,2.627,0,0,1-.978-.191,16.246,16.246,0,0,1-4.019-2.321,2.58,2.58,0,0,1-.642-3.346,3.193,3.193,0,0,0-2.764-4.8h-.006a2.581,2.581,0,0,1-2.572-2.223,16.147,16.147,0,0,1,0-4.649A2.581,2.581,0,0,1,28.739,58.7h.011a3.192,3.192,0,0,0,2.763-4.8,2.581,2.581,0,0,1,.64-3.347,16.21,16.21,0,0,1,4.028-2.321,2.583,2.583,0,0,1,3.214,1.12,3.192,3.192,0,0,0,5.537,0,2.579,2.579,0,0,1,3.219-1.116,16.289,16.289,0,0,1,4.02,2.319,2.583,2.583,0,0,1,.641,3.348A3.192,3.192,0,0,0,55.575,58.7h.006a2.582,2.582,0,0,1,2.573,2.225,16.148,16.148,0,0,1,0,4.648Z" fill-rule="evenodd"/></g></g></svg>