<svg xmlns="http://www.w3.org/2000/svg" width="74.218" height="74.218" viewBox="0 0 74.218 74.218">
  <g id="Grupo_1159130" data-name="Grupo 1159130" transform="translate(-183.378 -1051.521)">
    <rect id="Rectángulo_405442" data-name="Rectángulo 405442" width="74.218" height="74.218" rx="37" transform="translate(183.378 1051.521)" fill="#201144"/>
    <rect id="Rectángulo_405308" data-name="Rectángulo 405308" width="65.736" height="65.736" rx="32.868" transform="translate(187.614 1055.615)" fill="#178d89"/>
    <g id="_x30_7_x2C__growth_x2C__sustainable_x2C__plant_x2C__grow_x2C__business_x2C__finance" transform="translate(-1519.996 -1267.004)">
      <g id="Grupo_1147679" data-name="Grupo 1147679" transform="translate(1713.996 2330.005)">
        <path id="Trazado_1004564" data-name="Trazado 1004564" d="M1894.347,2335A10.348,10.348,0,1,1,1884,2345.347,10.347,10.347,0,0,1,1894.347,2335Z" transform="translate(-1866.41 -2334.483)" fill="#eec158"/>
        <path id="Trazado_1004565" data-name="Trazado 1004565" d="M1994.758,2515a8.8,8.8,0,0,0-8.568,6.8l3.6,2.132,4.077-1.571a8.783,8.783,0,0,0,3.991-7.366Z" transform="translate(-1958.027 -2495.859)" fill="#bde65e"/>
        <path id="Trazado_1004566" data-name="Trazado 1004566" d="M1872.1,2515H1869a8.79,8.79,0,0,0,4.563,7.71l4.516,1.731,2.617-2.528A8.8,8.8,0,0,0,1872.1,2515Z" transform="translate(-1852.962 -2495.859)" fill="#bde65e"/>
        <path id="Trazado_1004567" data-name="Trazado 1004567" d="M1889.348,2581.226a27.43,27.43,0,0,0-12.47,1.369,3.1,3.1,0,0,0-2.846,3.584l13.929,7.03,9.821-7.311A5.7,5.7,0,0,0,1889.348,2581.226Z" transform="translate(-1857.437 -2554.133)" fill="#c7865b"/>
        <rect id="Rectángulo_415856" data-name="Rectángulo 415856" width="7.271" height="11.4" transform="translate(5.628 34.579)" fill="#dfe8eb"/>
        <path id="Trazado_1004568" data-name="Trazado 1004568" d="M1725.725,2648.545a2.789,2.789,0,0,1-2.788,2.789H1719V2633.6h3.937a2.789,2.789,0,0,1,2.788,2.79Z" transform="translate(-1718.482 -2602.188)" fill="#7ed7f5"/>
        <path id="Trazado_1004569" data-name="Trazado 1004569" d="M1842.35,2605.881l17.472-8.736a2.906,2.906,0,0,1,3.093,4.887l-16.349,12.816a12.994,12.994,0,0,1-10.148,2.588l-13.357-2.227v-11.4l3.8-2.534h12.6A3.183,3.183,0,0,1,1842.35,2605.881Z" transform="translate(-1811.776 -2569.23)" fill="#f6decf"/>
        <path id="Trazado_1004570" data-name="Trazado 1004570" d="M1925.725,2370a6.725,6.725,0,1,1-6.725,6.726A6.725,6.725,0,0,1,1925.725,2370Z" transform="translate(-1897.789 -2365.862)" fill="#f6df5b"/>
        <g id="Grupo_1147678" data-name="Grupo 1147678" transform="translate(0 0)">
          <path id="Trazado_1004571" data-name="Trazado 1004571" d="M1765.762,2358.1a3.421,3.421,0,0,0-3.951-.642l-7.041,3.52a6.168,6.168,0,0,0-3.8-4.655,9.285,9.285,0,0,0,3.379-7.177.517.517,0,0,0-.517-.517h-3.1a9.41,9.41,0,0,0-1.291.089,10.864,10.864,0,1,0-15.006,0,36.016,36.016,0,0,0-4.4-.09.517.517,0,0,0-.517.517,9.315,9.315,0,0,0,4.242,7.81,4.684,4.684,0,0,0-.675,1.031,3.635,3.635,0,0,0-3.049,3.546h-.953c-.277,0-.055-.034-3.955,2.534h-3.373a3.31,3.31,0,0,0-3.3-3.167h-3.937a.518.518,0,0,0-.517.518v17.734a.517.517,0,0,0,.517.517h3.937a3.31,3.31,0,0,0,3.3-3.167h3.485c13.463,2.188,13.588,2.4,15.524,2.4a13.544,13.544,0,0,0,8.342-2.875l16.35-12.815A3.421,3.421,0,0,0,1765.762,2358.1Zm-12.464-8.437a8.251,8.251,0,0,1-3.572,6.3,6.142,6.142,0,0,0-3.733.506,4.629,4.629,0,0,0-.745-.521l2.18-1.745a.517.517,0,1,0-.646-.808l-2.634,2.107a4.672,4.672,0,0,0-1.285-.15,8.275,8.275,0,0,1,7.864-5.691Zm-21.194-8.795a9.829,9.829,0,1,1,9.829,9.829A9.841,9.841,0,0,1,1732.1,2340.869Zm11.861,10.672a9.336,9.336,0,0,0-2.032,3.34,9.3,9.3,0,0,0-2.034-3.34A10.883,10.883,0,0,0,1743.965,2351.541Zm-13.4-1.877h2.571a8.323,8.323,0,0,1,7.979,6.075,4.643,4.643,0,0,0-.666.354l-3.368-2.695a.517.517,0,0,0-.646.808l1.493,1.195a4.684,4.684,0,0,0-3.38.83A8.281,8.281,0,0,1,1730.567,2349.664Zm2.906,9.319a.518.518,0,0,0,.444-.323,3.6,3.6,0,0,1,.981-1.385.482.482,0,0,0,.066-.058,3.628,3.628,0,0,1,4.8.165.517.517,0,0,0,.712,0,3.622,3.622,0,0,1,5.061.08.517.517,0,0,0,.618.088,5.181,5.181,0,0,1,7.638,3.915l-8.39,4.2a3.716,3.716,0,0,0-3.723-4.127h-10.613a2.593,2.593,0,0,1,2.4-2.551Zm-12.75,17.38a2.274,2.274,0,0,1-2.271,2.271h-3.419v-16.7h3.419a2.274,2.274,0,0,1,2.271,2.271Zm1.035-11.26h3.007v10.366h-3.007Zm43.058-2.7-16.349,12.815a12.5,12.5,0,0,1-9.743,2.486l-12.924-2.154v-10.685l3.439-2.293h12.445a2.65,2.65,0,1,1,.065,5.3h-8.866a.517.517,0,0,0,0,1.035h8.866a3.674,3.674,0,0,0,3.2-1.855l17.326-8.663a2.389,2.389,0,0,1,2.543,4.017Z" transform="translate(-1713.996 -2330.005)"/>
          <path id="Trazado_1004572" data-name="Trazado 1004572" d="M1744.517,2656.89a.517.517,0,0,0-.517.517v.517a.517.517,0,0,0,1.035,0v-.517A.517.517,0,0,0,1744.517,2656.89Z" transform="translate(-1740.896 -2623.068)"/>
          <path id="Trazado_1004573" data-name="Trazado 1004573" d="M1744.517,2681.89a.517.517,0,0,0-.517.517v.517a.517.517,0,0,0,1.035,0v-.517A.517.517,0,0,0,1744.517,2681.89Z" transform="translate(-1740.896 -2645.481)"/>
          <path id="Trazado_1004574" data-name="Trazado 1004574" d="M1921.243,2379.485a7.243,7.243,0,1,0-7.243-7.243A7.251,7.251,0,0,0,1921.243,2379.485Zm0-13.451a6.208,6.208,0,1,1-6.208,6.208A6.215,6.215,0,0,1,1921.243,2366.035Z" transform="translate(-1893.306 -2361.379)"/>
          <path id="Trazado_1004575" data-name="Trazado 1004575" d="M1959.517,2393.277a.517.517,0,0,0,0,1.035h1.552v.518a.517.517,0,0,0,1.035,0v-.532a2.328,2.328,0,0,0,0-4.626v-2.6h1.552a.517.517,0,0,0,0-1.035H1962.1v-.518a.517.517,0,0,0-1.035,0v.532a2.328,2.328,0,0,0,0,4.627v2.6Zm3.621-1.293a1.3,1.3,0,0,1-1.035,1.268v-2.535A1.3,1.3,0,0,1,1963.139,2391.984Zm-3.1-3.621a1.3,1.3,0,0,1,1.035-1.267v2.534A1.3,1.3,0,0,1,1960.035,2388.363Z" transform="translate(-1933.65 -2379.31)"/>
        </g>
      </g>
    </g>
  </g>
</svg>
