<svg xmlns="http://www.w3.org/2000/svg" xmlns:xlink="http://www.w3.org/1999/xlink" width="190" height="114" viewBox="0 0 190 114"><defs><clipPath id="a"><rect width="190" height="114" rx="13" transform="translate(180 548)" fill="#e8faf9"/></clipPath><clipPath id="b"><rect width="225.333" height="86.217" fill="#e8faf9"/></clipPath></defs><g transform="translate(-1229.668 -527)"><g transform="translate(1049.668 -21)" clip-path="url(#a)"><path d="M0,0H190V114H0Z" transform="translate(180 548)" fill="#d2f5f4"/><g transform="translate(240.183 623.165)"><g transform="translate(0 0)"><rect width="15.15" height="18.98" fill="#ff794c"/><path d="M508.82,5.374l-1.634-1.921c-.3-.348-.015-.958.374-.811l2.145.812c.212.08.434-.08.485-.351L510.7.371a.374.374,0,0,1,.747,0l.511,2.733c.05.27.273.431.485.351l2.145-.812c.388-.147.669.463.374.811l-1.634,1.921a.568.568,0,0,0,0,.7L514.962,8c.3.348.015.958-.374.811L512.443,8c-.212-.08-.434.08-.485.351l-.511,2.733a.374.374,0,0,1-.747,0l-.511-2.733c-.051-.27-.273-.431-.485-.351l-2.145.812c-.388.147-.669-.463-.374-.811l1.634-1.921a.568.568,0,0,0,0-.7" transform="translate(-503.485 3.372)" fill="#ff794c" opacity="0.5" style="mix-blend-mode:multiply;isolation:isolate"/></g></g><g transform="translate(164.667 561.891)"><g clip-path="url(#b)"><path d="M225.333,76.149h0V10.067a30.251,30.251,0,0,0-45.067,0,30.251,30.251,0,0,1-45.067,0,30.251,30.251,0,0,0-45.067,0h0a30.251,30.251,0,0,1-45.067,0h0A30.536,30.536,0,0,0,22.533,0,30.539,30.539,0,0,0,0,10.068V76.151A30.542,30.542,0,0,1,22.533,66.078,30.543,30.543,0,0,1,45.066,76.151h0a30.251,30.251,0,0,0,45.066,0h0a30.251,30.251,0,0,1,45.067,0,30.251,30.251,0,0,0,45.067,0,30.251,30.251,0,0,1,45.067,0" transform="translate(0 0)" fill="#e8faf9"/></g></g></g><g transform="translate(1281.377 539.5)"><path d="M58.1,58A2.815,2.815,0,0,1,60.9,60.806,2.827,2.827,0,0,1,58.1,63.613H18.806A2.815,2.815,0,0,1,16,60.806,2.827,2.827,0,0,1,18.806,58H58.1Z" transform="translate(4.839 22.984)" fill="#969faa"/><path d="M45.855,52l4.21,8.419H22L26.21,52Z" transform="translate(7.258 20.565)" fill="#aab2bd"/><path d="M61.129,67.323H10.613A5.611,5.611,0,0,1,5,61.71v-42.1A5.611,5.611,0,0,1,10.613,14h8.419v5.613H12.016a1.407,1.407,0,0,0-1.4,1.4V54.694a1.407,1.407,0,0,0,1.4,1.4H73.758a1.407,1.407,0,0,0,1.4-1.4V21.016a1.407,1.407,0,0,0-1.4-1.4H66.742V14h8.419a5.611,5.611,0,0,1,5.613,5.613v42.1a5.611,5.611,0,0,1-5.613,5.613H69.548a2.827,2.827,0,0,0,2.806-2.806,2.815,2.815,0,0,0-2.806-2.806H61.129a2.827,2.827,0,0,0-2.806,2.806A2.815,2.815,0,0,0,61.129,67.323Z" transform="translate(0.403 5.242)" fill="#ccd1d9"/><path d="M54.226,48a2.815,2.815,0,0,1,2.806,2.806,2.827,2.827,0,0,1-2.806,2.806H45.806A2.815,2.815,0,0,1,43,50.806,2.827,2.827,0,0,1,45.806,48Z" transform="translate(15.726 18.952)" fill="#ff826e"/><path d="M17.419,18V54.484H10.4a1.407,1.407,0,0,1-1.4-1.4V19.4A1.407,1.407,0,0,1,10.4,18Z" transform="translate(2.016 6.855)" fill="#69d6f4"/><path d="M57.419,19.4V53.081a1.407,1.407,0,0,1-1.4,1.4H49V18h7.016A1.407,1.407,0,0,1,57.419,19.4Z" transform="translate(18.145 6.855)" fill="#69d6f4"/><path d="M18.226,7.613v5.613H7V7.613a5.613,5.613,0,1,1,11.226,0Z" transform="translate(1.21 0.403)" fill="#ffeaa7"/><path d="M58.71,2H11a5.611,5.611,0,0,1,5.613,5.613V60.935h47.71V7.613A5.611,5.611,0,0,0,58.71,2Z" transform="translate(2.823 0.403)" fill="#e6e9ed"/><g transform="translate(33.468 8.016)"><path d="M41,6h5.613V25.645H41Z" transform="translate(-18.548 -6)" fill="#b4dd7f"/><path d="M33,10h5.613V24.032H33Z" transform="translate(-21.774 -4.387)" fill="#b4dd7f"/><path d="M25,14h5.613v8.419H25Z" transform="translate(-25 -2.774)" fill="#b4dd7f"/></g><path d="M43.032,24A14.032,14.032,0,1,1,29,38.032,14.037,14.037,0,0,1,43.032,24Z" transform="translate(10.081 9.274)" fill="#fcd770"/><path d="M75.565,17.839H68.548V8.016A7.024,7.024,0,0,0,61.532,1H13.823A7.024,7.024,0,0,0,6.806,8.016v7.016H18.032v2.806H11.016A7.024,7.024,0,0,0,4,24.855v42.1a7.024,7.024,0,0,0,7.016,7.016H31.2l-2.806,5.613H23.645a4.21,4.21,0,0,0,0,8.419h39.29a4.21,4.21,0,0,0,0-8.419H58.19l-2.806-5.613H75.565a7.024,7.024,0,0,0,7.016-7.016v-42.1A7.024,7.024,0,0,0,75.565,17.839ZM65.742,56.154v3.782H61.96A15.564,15.564,0,0,0,65.742,56.154ZM53.113,59.935A12.629,12.629,0,1,1,65.742,47.306,12.644,12.644,0,0,1,53.113,59.935ZM68.548,26.258h5.613V59.935H68.548ZM65.742,8.016V38.459A15.423,15.423,0,1,0,44.266,59.935H20.839V8.016a6.944,6.944,0,0,0-1.44-4.21H61.532A4.215,4.215,0,0,1,65.742,8.016ZM18.032,59.935H12.419V26.258h5.613ZM9.613,12.226V8.016a4.21,4.21,0,1,1,8.419,0v4.21ZM64.339,83.79a1.406,1.406,0,0,1-1.4,1.4H23.645a1.4,1.4,0,1,1,0-2.806h39.29A1.406,1.406,0,0,1,64.339,83.79Zm-9.287-4.21H31.528l2.806-5.613H52.246Zm6.48-8.419a1.4,1.4,0,1,1,0-2.806h8.419a1.4,1.4,0,1,1,0,2.806Zm18.242-4.21a4.215,4.215,0,0,1-4.21,4.21H73.9a4.162,4.162,0,0,0,.258-1.4,4.215,4.215,0,0,0-4.21-4.21H61.532a4.215,4.215,0,0,0-4.21,4.21,4.162,4.162,0,0,0,.258,1.4H11.016a4.215,4.215,0,0,1-4.21-4.21v-42.1a4.215,4.215,0,0,1,4.21-4.21h7.016v2.806H12.419a2.809,2.809,0,0,0-2.806,2.806V59.935a2.809,2.809,0,0,0,2.806,2.806H74.161a2.809,2.809,0,0,0,2.806-2.806V26.258a2.809,2.809,0,0,0-2.806-2.806H68.548V20.645h7.016a4.215,4.215,0,0,1,4.21,4.21Z" transform="translate(0 0)"/><path d="M10,47h2.806v2.806H10Z" transform="translate(2.419 18.548)"/><path d="M14,47h2.806v2.806H14Z" transform="translate(4.032 18.548)"/><path d="M18,47h2.806v2.806H18Z" transform="translate(5.645 18.548)"/><path d="M40.21,32.613a1.406,1.406,0,0,1,1.4,1.4h2.806a4.2,4.2,0,0,0-2.806-3.951V27H38.806v2.806H36v4.21a4.215,4.215,0,0,0,4.21,4.21,1.406,1.406,0,0,1,1.4,1.4v1.4h-1.4a1.406,1.406,0,0,1-1.4-1.4H36a4.2,4.2,0,0,0,2.806,3.951v3.065h2.806V43.839h2.806v-4.21a4.215,4.215,0,0,0-4.21-4.21,1.406,1.406,0,0,1-1.4-1.4v-1.4Z" transform="translate(12.903 10.484)"/><circle cx="1.328" cy="1.328" r="1.328" transform="translate(43.183 46.16)"/><circle cx="1.328" cy="1.328" r="1.328" transform="translate(60.45 46.16)"/><path d="M54.871,5H46.452V24.645H43.645V10.613H35.226V24.645H32.419V16.226H24V27.452H54.871ZM29.613,24.645H26.806V19.032h2.806Zm8.419-11.226h2.806V24.645H38.032ZM52.065,24.645H49.258V7.806h2.806Z" transform="translate(8.065 1.613)"/><path d="M18,39H29.226v2.806H18Z" transform="translate(5.645 15.323)"/><path d="M18,35H29.226v2.806H18Z" transform="translate(5.645 13.71)"/><path d="M18,31H29.226v2.806H18Z" transform="translate(5.645 12.097)"/><path d="M18,27H29.226v2.806H18Z" transform="translate(5.645 10.484)"/><path d="M18,23H29.226v2.806H18Z" transform="translate(5.645 8.871)"/><path d="M18,5h2.806V7.806H18Z" transform="translate(5.645 1.613)"/><path d="M18,9h2.806v2.806H18Z" transform="translate(5.645 3.226)"/><path d="M18,13h2.806v2.806H18Z" transform="translate(5.645 4.839)"/></g></g></svg>