<svg xmlns="http://www.w3.org/2000/svg" width="400" height="233.596" viewBox="0 0 400 233.596"><g transform="translate(-4.897 -10.1)"><g transform="translate(4.897 10.1)"><g transform="translate(30.109 21.785)"><path d="M276.689,54.921l24.444,27.307-98.388,82.536-71.286-30.989-3.375,2.864-93.377,75.99a.7.7,0,0,0,.818,1.125L133.3,153.718,199.778,188.9l6.648,3.784,6.546-5.523,111.377-80.695,24.444,26.489L380.5,31.5,276.791,54.819Z" transform="translate(-34.334 -31.398)" fill="#d2f5f4"/><path d="M35.22,214.063a1.035,1.035,0,0,1-.716-.409.748.748,0,0,1,.2-1.125l93.377-75.99,3.477-2.966h0l71.183,30.989L300.93,82.231l-24.546-27.41L380.6,31.4v.2L348.794,133.266l-.2-.2-24.341-26.387L212.973,187.267l-6.546,5.625-6.75-3.886L133.3,153.823,35.629,213.756c-.2,0-.307.1-.511.1Zm96.343-80.183-3.375,2.864-93.377,75.99c-.307.2-.2.511-.1.716a.477.477,0,0,0,.716.1L133.2,153.516h0L199.677,188.8l6.546,3.784,6.443-5.421,111.48-80.8h0l24.239,26.387,31.5-100.945L276.69,55.025l24.341,27.307h-.1l-98.388,82.638h0l-71.183-30.989Z" transform="translate(-34.336 -31.4)" fill="#27191c"/></g><g transform="translate(0 167.114)"><g transform="translate(0.31 0.207)"><path d="M149.139,195.894a25.557,25.557,0,0,1-.716,5.523,15.944,15.944,0,0,0-8.591-2.557,16.4,16.4,0,0,0-15.443,10.227,12.636,12.636,0,0,0-9.716-4.6h-.1a12.973,12.973,0,0,0-10.841,6.034.634.634,0,0,0-.2-.409v-.1c0-.307-.2-.511-.307-.818a21.453,21.453,0,0,0-5.625-7.875,23.246,23.246,0,0,0-8.387-4.909,25.109,25.109,0,0,0-4.807-1.023c-1.023,0-2.045-.1-3.171,0a23.047,23.047,0,0,0-6.239.92,27.979,27.979,0,0,0-5.625,2.659,21.113,21.113,0,0,0-4.091,3.375c-.614.614-1.227,1.33-1.739,1.943,0,0-.409.614-.818,1.125-.2.307-.409.511-.511.716a.317.317,0,0,1-.1.2,20.721,20.721,0,0,0-12.375-4.4,20.256,20.256,0,0,0-19.534,14.318,12.925,12.925,0,0,0-4.6-5.83,12.63,12.63,0,0,0-7.568-2.455,13.379,13.379,0,0,0-4.5.716,17.575,17.575,0,0,1-1.023-6.136,18.355,18.355,0,0,1,18.409-18.2h.2a18.4,18.4,0,0,1,11.762,4.4h.2a17.3,17.3,0,0,1,17.08-13.4A17.08,17.08,0,0,1,70.8,179.121a17.905,17.905,0,0,1,6.136,9.409h.2s.307-.307,1.33-1.125a.357.357,0,0,1,.2-.1,41.16,41.16,0,0,1,4.3-3.068,33.253,33.253,0,0,1,14.012-5.216,19.941,19.941,0,0,1,12.784,2.864h0a21.821,21.821,0,0,1,17.08-8.182h.2a21.825,21.825,0,0,1,21.682,22.091Z" transform="translate(-5.034 -173.7)" fill="#fff"/><path d="M150.328,227.21a13.959,13.959,0,0,1,1.125,5.727v1.33a12.533,12.533,0,0,1-1.432,4.807H10.211a12.307,12.307,0,0,1,0-1.943,12.938,12.938,0,0,1,.307-2.864,18.658,18.658,0,0,1,.716-2.557h0v-.2A13.083,13.083,0,0,1,5.2,220.46a12.89,12.89,0,0,1,8.591-12.068h0a11.242,11.242,0,0,1,4.5-.716,12.89,12.89,0,0,1,12.068,8.591v.409c.1,0,.2-.409.2-.409A19.978,19.978,0,0,1,50,201.846a19.2,19.2,0,0,1,12.273,4.4l.2-.2v.1a10.755,10.755,0,0,1,1.432-2.046,15.72,15.72,0,0,1,1.739-1.943,24.25,24.25,0,0,1,3.989-3.273,27.25,27.25,0,0,1,5.523-2.659,23.047,23.047,0,0,1,6.239-.92h3.068a19.183,19.183,0,0,1,4.807,1.023,22.021,22.021,0,0,1,8.284,4.909,22.434,22.434,0,0,1,5.523,7.875,7.049,7.049,0,0,1,.307.818v.1a2.625,2.625,0,0,0,.2.511h.2v.1a12.455,12.455,0,0,1,10.841-6.239h.1a12.212,12.212,0,0,1,9.614,4.7v.2c.1,0,.2-.2.2-.2a16.3,16.3,0,0,1,15.137-10.33h.2a15.944,15.944,0,0,1,8.591,2.557h0a16.223,16.223,0,0,1,1.739,25.876h0v.1Z" transform="translate(-5.2 -173.209)" fill="#fff"/></g><path d="M13.525,208.989h-.1a19.154,19.154,0,0,1-1.023-6.341,18.749,18.749,0,0,1,18.716-18.512h.2a18.88,18.88,0,0,1,11.762,4.3,17.652,17.652,0,0,1,34.16-.2c.2-.2.614-.511,1.227-1.023a.357.357,0,0,1,.2-.1,33.707,33.707,0,0,1,4.4-3.068,34.15,34.15,0,0,1,14.114-5.216,19.8,19.8,0,0,1,12.784,2.864,22.288,22.288,0,0,1,33.137-1.534,22.136,22.136,0,0,1,5.523,21.478.162.162,0,0,1-.307-.1,21.525,21.525,0,0,0,.818-5.727A22.054,22.054,0,0,0,142.9,180.25a21.511,21.511,0,0,0-15.443-6.546,21.764,21.764,0,0,0-17.284,8.182h0c0,.1-.1,0-.1,0a19.5,19.5,0,0,0-12.682-2.864,33.252,33.252,0,0,0-14.012,5.216,32.6,32.6,0,0,0-4.3,3.068l-.2.1c-1.023.716-1.33,1.023-1.33,1.125h-.307a17.357,17.357,0,0,0-33.751.2v.2l-.2-.2a18.4,18.4,0,0,0-11.762-4.4h-.2a18.421,18.421,0,0,0-18.409,18.2,18.151,18.151,0,0,0,1.023,6.239v.2h-.409Z" transform="translate(-4.726 -173.498)" fill="#27191c"/><path d="M150.13,239.494H10.014c0-.818-.1-1.534-.1-2.148a14.6,14.6,0,0,1,.307-2.966,23.878,23.878,0,0,1,.716-2.557A12.841,12.841,0,0,1,4.9,220.573,13.034,13.034,0,0,1,7.457,212.9,13.428,13.428,0,0,1,18.3,207.38a13.107,13.107,0,0,1,7.568,2.455,13.649,13.649,0,0,1,4.6,5.83,20.348,20.348,0,0,1,7.159-10.125A20,20,0,0,1,50,201.448a19.694,19.694,0,0,1,12.273,4.3.317.317,0,0,1,.1-.2c.1-.2.307-.409.511-.716a8.088,8.088,0,0,1,.818-1.125,15.72,15.72,0,0,1,1.739-1.943,26.617,26.617,0,0,1,4.091-3.375,21.665,21.665,0,0,1,5.625-2.659,23.63,23.63,0,0,1,6.239-.92h3.171a25.109,25.109,0,0,1,4.807,1.023,23.871,23.871,0,0,1,8.387,4.909,25.243,25.243,0,0,1,5.625,7.875,7.047,7.047,0,0,1,.307.818v.1c0,.1.1.2.1.307a12.736,12.736,0,0,1,10.841-6.034h.1a12.8,12.8,0,0,1,9.716,4.6,16.71,16.71,0,0,1,5.932-7.364,16.552,16.552,0,0,1,18.307-.2,12.659,12.659,0,0,1,1.841,1.432,9.229,9.229,0,0,0,8.489,2.046,13.7,13.7,0,0,0,5.216-2.455h.1c0-.1,3.068,5.727,3.068,5.727h-.2a21.925,21.925,0,0,0-8.9,3.477,4.463,4.463,0,0,0-2.148,3.784h0a16.335,16.335,0,0,1-5.625,12.273,13.959,13.959,0,0,1,1.125,5.727v1.33a16.628,16.628,0,0,1-1.432,5.011h0Zm-139.81-.307H150.028a16.244,16.244,0,0,0,1.432-4.807v-1.33a15.859,15.859,0,0,0-1.125-5.727h0v-.2a16.636,16.636,0,0,0,5.625-12.068h0a4.716,4.716,0,0,1,2.25-4.091,24.72,24.72,0,0,1,8.8-3.477l-2.659-5.114a13.576,13.576,0,0,1-5.216,2.352,9.333,9.333,0,0,1-8.693-2.148c-.614-.511-1.227-.92-1.841-1.432a15.944,15.944,0,0,0-8.591-2.557h-.2a16.3,16.3,0,0,0-15.137,10.33v.2l-.307-.2a12.528,12.528,0,0,0-9.614-4.7h-.1a12.291,12.291,0,0,0-10.739,6.239H103.6v-.1a2.625,2.625,0,0,1-.2-.511v-.1c0-.307-.2-.511-.307-.818a22.048,22.048,0,0,0-5.523-7.773,23.441,23.441,0,0,0-8.284-4.909,25.109,25.109,0,0,0-4.807-1.023c-1.023,0-2.045-.1-3.068,0a23.631,23.631,0,0,0-6.239.92,22.732,22.732,0,0,0-5.523,2.659,24.251,24.251,0,0,0-3.989,3.273c-.614.614-1.125,1.33-1.739,1.943a19.032,19.032,0,0,0-1.432,2.046v-.1l-.2.2h0A19.2,19.2,0,0,0,50,201.755a20.19,20.19,0,0,0-19.432,14.421v.409c-.1,0-.307-.409-.307-.409A12.938,12.938,0,0,0,18.2,207.687a13.379,13.379,0,0,0-4.5.716,12.927,12.927,0,0,0-2.557,23.114h.1v.2a11.965,11.965,0,0,0-.716,2.557,13.632,13.632,0,0,0-.307,2.864v1.841Z" transform="translate(-4.897 -173.013)" fill="#27191c"/></g><g transform="translate(283.305 162.617)"><path d="M368.422,174.107a21.194,21.194,0,0,0-11.25,3.171,15.49,15.49,0,0,0-13.6-7.977c-5.83,0-13.5,5.114-15.137,11.966a19.928,19.928,0,0,0-36.717,10.125A17.529,17.529,0,0,0,282,207.039v1.534H385.3a20.923,20.923,0,0,0,4.5-13.091,21.366,21.366,0,0,0-21.375-21.375Z" transform="translate(-281.898 -169.095)" fill="#fff"/><path d="M385.4,208.783H281.9v-1.739a16.892,16.892,0,0,1,2.761-9.409,17.561,17.561,0,0,1,7.057-6.341,20.378,20.378,0,0,1,6.034-13.7,20.077,20.077,0,0,1,14.012-5.727c5.216,0,12.989,3.375,16.773,9a15.554,15.554,0,0,1,5.421-8.284,15.766,15.766,0,0,1,9.818-3.477,15.939,15.939,0,0,1,13.7,7.977,21.56,21.56,0,0,1,32.728,18.409,19.464,19.464,0,0,1-4.5,13.193h0Zm-103.3-.307H385.2a21.224,21.224,0,0,0-16.773-34.16c-11.659,0-7.773,1.125-11.148,3.171h-.1a15.488,15.488,0,0,0-13.5-7.977c-5.625,0-13.3,4.909-15.034,11.864v.307l-.307-.307a19.729,19.729,0,0,0-36.41,10.023h0v.1a17.26,17.26,0,0,0-9.614,15.546v1.432Z" transform="translate(-281.9 -169.1)" fill="#27191c"/></g><g transform="translate(135.068 116.696)"><g transform="translate(0.347 0.409)"><path d="M158.625,198.033c.307-.409.716-.818,1.023-1.227s.716-.818,1.023-1.227.716-.818,1.023-1.227c.307-.307.511-.614.818-.92s.511-.614.818-.92h0c.307-.307.511-.614.818-.92.818-.92,1.534-1.739,2.352-2.557a6.17,6.17,0,0,1,.818-.818s.2-.2.2-.307c.2-.2.307-.409.511-.614l12.273-12.682c.818-.818,1.534-1.534,2.352-2.25s1.534-1.534,2.352-2.25a2.712,2.712,0,0,1,.614-.511c.716-.716,1.432-1.33,2.148-1.943.2-.1.307-.307.511-.409a16.987,16.987,0,0,0,1.432-1.33c1.432-1.33,2.864-2.557,4.3-3.784,3.375-2.864,6.546-5.523,9.716-7.977.409-.307.92-.716,1.33-1.023,1.534-1.125,3.068-2.352,4.5-3.375,15.546-11.25,28.739-17.591,38.762-21.069.2,0,.307-.1.511-.2a1.454,1.454,0,0,0,.614-.2c2.557-.818,4.909-1.534,6.955-2.045h0a2174017390255.484,2174017390255.484,0,0,0,.818-.2h.716a3.625,3.625,0,0,0,1.125-.307h.2c.409,0,.818-.2,1.125-.2h0l1.841-.307h0a2,2,0,0,0,.716-.1h.1c1.739-.307,3.068-.409,4.091-.511h2.046v.2h0v.2h0a1.454,1.454,0,0,1-.2.614v.307h0v.614a.376.376,0,0,1-.1.307,74.521,74.521,0,0,1-9.2,16.875c-6.034,8.693-15.648,19.637-30.682,31.705-1.432,1.125-2.966,2.25-4.5,3.477q-5.369,3.989-11.659,8.284c-1.534,1.023-3.171,2.046-4.807,3.171-3.477,2.148-7.057,4.4-10.943,6.648L181.535,205.4c-4.5,2.25-9.2,4.6-14.216,6.852l-7.159-9.409-2.659-3.477c.307-.409.716-.818,1.023-1.227Z" transform="translate(-136.84 -124.6)" fill="#22cac5"/><path d="M158.95,199.2l7.262,9.614-2.659,1.534-6.852-9.1Z" transform="translate(-136.859 -122.903)" fill="#27191c"/><path d="M227.065,145.933a7.2,7.2,0,0,1,10.125,1.432,7.231,7.231,0,1,1-10.125-1.432Z" transform="translate(-135.325 -124.148)" fill="#fff"/><circle cx="5.83" cy="5.83" r="5.83" transform="translate(90.309 21.784)" fill="#27191c"/><path d="M227.8,149.546a3.251,3.251,0,0,1,1.125-1.227,4.109,4.109,0,0,1,5.83.818.434.434,0,1,1-.614.614,3.273,3.273,0,0,0-4.6-.614,4,4,0,0,0-.818,1.023.492.492,0,0,1-.614.2l-.1-.1a.457.457,0,0,1,0-.511Z" transform="translate(-135.241 -124.08)" fill="#fff"/><path d="M137.3,205.9l31.705-35.8,11.864,3.682h0l4.807,1.432.92.307a10.049,10.049,0,0,1-.614,4.909c-2.557,6.443-11.046,11.25-11.046,11.25l-2.864-2.455-3.375-2.761h0l-1.432-1.227-28.739,21.887a.781.781,0,0,1-.511.2A.807.807,0,0,1,137.5,206Z" transform="translate(-137.3 -123.565)" fill="#178d89"/><path d="M153.707,227.359l28.739-21.785-.818-1.739-3.375-7.466s6.955-6.852,13.807-7.568a9.175,9.175,0,0,1,4.909.716l.2,5.932.307,12.375-42.955,20.864a.772.772,0,0,1-1.125-.818C153.4,227.666,153.5,227.564,153.707,227.359Z" transform="translate(-136.934 -123.141)" fill="#178d89"/><path d="M163.2,179.462l5.83-7.262,10.739,3.273a.906.906,0,0,1-.511,1.739l-9.614-2.966-5.114,6.341a.842.842,0,0,1-1.227.1s-.1,0-.1-.2a1.108,1.108,0,0,1,0-1.125Z" transform="translate(-136.714 -123.517)" fill="#fff"/><path d="M206.15,156.462c-.818-1.227-1.534-2.557-2.25-3.886,1.534-1.125,3.068-2.352,4.5-3.375.716,1.33,1.432,2.557,2.25,3.886a106.94,106.94,0,0,0,17.182,21.682c-1.432,1.125-2.966,2.25-4.5,3.477A109.2,109.2,0,0,1,212.7,166.075a99.561,99.561,0,0,1-6.546-9.614Z" transform="translate(-135.785 -124.04)" fill="#fff"/><path d="M193.2,161.4c.716,1.33,1.534,2.557,2.25,3.886a106.623,106.623,0,0,0,16.671,20.966c-1.534,1.023-3.171,2.046-4.807,3.171a119.331,119.331,0,0,1-10.023-11.557q-3.222-4.3-6.136-8.9c-.818-1.227-1.636-2.557-2.352-3.886,1.432-1.33,2.864-2.557,4.3-3.784Z" transform="translate(-136.128 -123.765)" fill="#fff"/></g><path d="M137.819,207.333h0a.959.959,0,0,1-.818-.614.981.981,0,0,1,.2-.92l31.807-35.9,17.694,5.421h0a9.4,9.4,0,0,1-.716,5.011,17.9,17.9,0,0,1-2.352,3.886,33.534,33.534,0,0,1-8.8,7.466h0l-6.443-5.318h0l-1.33-1.125-28.637,21.785a1.453,1.453,0,0,1-.614.2Zm0-.307c.2,0,.307,0,.409-.1l28.739-21.887,1.636,1.33h0l6.136,5.114a33.045,33.045,0,0,0,8.591-7.364,14.752,14.752,0,0,0,2.25-3.784,8.5,8.5,0,0,0,.614-4.7l-5.625-1.739-11.659-3.58L137.308,206a.482.482,0,0,0-.1.614c0,.2.307.409.511.409h.1Z" transform="translate(-136.961 -123.16)" fill="#27191c"/><path d="M196.666,197.02v-.307c3.58-2.148,7.262-4.4,10.739-6.648l.818-.511c1.432-.92,2.659-1.739,3.989-2.659q6.443-4.3,11.659-8.284c1.534-1.125,3.068-2.25,4.5-3.477,12.784-10.227,23.114-20.864,30.682-31.6,5.523-7.977,8.08-13.909,9.1-16.875a.376.376,0,0,1,.1-.307v-.1l.2-.511h0v-.307c.2-.2.2-.409.307-.614h0v-.2h-1.841a20.315,20.315,0,0,0-4.091.511h-.716a11.527,11.527,0,0,0-1.841.307h0c-.409,0-.818.2-1.125.2h-.2c-.409.1-.818.2-1.125.307h-.614l-.1.1H256.7a.615.615,0,0,0-.409.1h0c-2.352.614-4.6,1.33-6.955,2.046a1.454,1.454,0,0,0-.614.2.775.775,0,0,0-.409.2h0c-12.375,4.4-25.466,11.455-38.762,21.069-1.534,1.023-2.966,2.148-4.5,3.375-.409.307-.818.614-1.33,1.023-3.068,2.352-6.341,5.011-9.716,7.977-1.227,1.023-2.455,2.148-3.784,3.273l-.511.511a17.8,17.8,0,0,1-1.432,1.227h0c-.1.2-.307.307-.409.409-.818.716-1.432,1.33-2.148,1.943a2.712,2.712,0,0,1-.614.511c-.818.716-1.534,1.534-2.352,2.25-.818.818-1.636,1.534-2.352,2.25l-.2-.2c.716-.716,1.534-1.432,2.352-2.25.716-.716,1.534-1.432,2.352-2.25a2.712,2.712,0,0,1,.614-.511c.614-.614,1.33-1.227,2.148-1.943l.409-.409h0a16.982,16.982,0,0,1,1.432-1.33l.511-.511c1.33-1.125,2.557-2.25,3.784-3.273,3.375-2.966,6.648-5.625,9.716-7.977.511-.409.92-.716,1.33-1.023,1.534-1.227,3.068-2.352,4.5-3.375,13.3-9.614,26.387-16.671,38.762-21.069h0a.775.775,0,0,0,.409-.2,1.454,1.454,0,0,0,.614-.2,66,66,0,0,1,6.955-2.046h0a.615.615,0,0,0,.409-.1h.511l.307-.1h.307a3.625,3.625,0,0,0,1.125-.307h.2c.307,0,.716-.2,1.125-.2h0l1.841-.307h0a1.3,1.3,0,0,0,.614-.1h.1c1.432-.2,2.864-.409,4.091-.511h2.352v.307h0v.1h0v.1h0a1.454,1.454,0,0,1-.2.614v.307h0l-.2.511v.1a.773.773,0,0,1-.1.409,72.447,72.447,0,0,1-9.2,16.875c-7.568,10.841-17.9,21.478-30.682,31.705-1.432,1.125-2.966,2.352-4.5,3.477Q218.962,182.7,212.519,187c-1.33.92-2.659,1.739-3.989,2.659l-.818.511c-3.477,2.25-7.159,4.5-10.943,6.648Z" transform="translate(-135.977 -124.2)" fill="#27191c"/><path d="M223.434,178.555h0A111.67,111.67,0,0,1,212.8,166.282a108.406,108.406,0,0,1-6.648-9.716c-.818-1.227-1.534-2.557-2.25-3.886h0a.357.357,0,0,1,.1-.2c1.534-1.227,3.068-2.352,4.5-3.375h.1c.614,1.125,1.33,2.352,2.25,3.886a105.484,105.484,0,0,0,17.182,21.682h.1a.357.357,0,0,1-.1.2c-1.432,1.125-2.864,2.25-4.5,3.477h-.1ZM204.1,152.68c.716,1.227,1.432,2.557,2.148,3.682h0c2.046,3.273,4.3,6.546,6.546,9.614a118.689,118.689,0,0,0,10.534,12.068c1.432-1.125,2.864-2.148,4.193-3.273a110.9,110.9,0,0,1-17.08-21.58c-.818-1.432-1.534-2.557-2.148-3.682-1.432,1.023-2.864,2.046-4.3,3.171Z" transform="translate(-135.438 -123.634)" fill="#27191c"/><path d="M207.312,189.633h0a151.3,151.3,0,0,1-10.023-11.659q-3.222-4.3-6.136-8.9c-.716-1.125-1.534-2.455-2.352-3.886h0c0-.1.716-.716.716-.716,1.33-1.125,2.455-2.148,3.682-3.273h.1c.716,1.33,1.534,2.659,2.25,3.886a108.887,108.887,0,0,0,16.671,20.966h.1c0,.1-.2.2-.2.2-1.33.92-2.659,1.739-4.091,2.761l-.818.511Zm-18.2-24.444c.818,1.432,1.534,2.659,2.25,3.784a105.693,105.693,0,0,0,6.136,8.9,115.263,115.263,0,0,0,9.921,11.455l.614-.409c1.33-.92,2.659-1.739,3.989-2.659a111.752,111.752,0,0,1-16.569-20.864l-2.148-3.682c-1.227,1.023-2.352,2.045-3.58,3.171l-.511.409Z" transform="translate(-135.782 -123.359)" fill="#27191c"/><path d="M167.421,210.957,157.5,197.866h0c1.432-1.739,2.864-3.375,4.193-5.011,2.045-2.352,4.193-4.7,6.239-6.955l.2.2c-2.046,2.25-4.193,4.6-6.239,6.955-1.33,1.534-2.761,3.171-4.091,4.807l9.716,12.784c4.807-2.148,9.512-4.5,14.012-6.852v.307c-4.5,2.352-9.2,4.6-14.012,6.852Z" transform="translate(-136.494 -122.796)" fill="#27191c"/><path d="M154.221,228.9a.752.752,0,0,1-.614-.2.825.825,0,0,1-.307-.92h0c0-.2.2-.409.307-.614l28.637-21.682-4.091-9.2h0a34.562,34.562,0,0,1,8.9-6.239,13.813,13.813,0,0,1,5.011-1.432,8.627,8.627,0,0,1,4.909.716h0l.2,6.136.307,12.478h0L154.528,228.9h-.307Zm24.341-32.421v.2c.1,0,4.091,9,4.091,9l-28.841,21.887c-.1,0-.2.2-.2.409h0c0,.2,0,.511.2.614s.409.2.614,0l42.955-20.864-.307-12.273-.2-5.83a8.968,8.968,0,0,0-4.7-.614,16.443,16.443,0,0,0-4.909,1.432,37.5,37.5,0,0,0-8.8,6.034Z" transform="translate(-136.59 -122.737)" fill="#27191c"/></g><g transform="translate(156.967)"><g transform="translate(33.574 5.011)"><path d="M260.338,30.546V85.467a3.077,3.077,0,0,1-3.068,3.068h-63a3.077,3.077,0,0,1-3.068-3.068V30.546L225.769,15Z" transform="translate(-191.2 -15)" fill="#22cac5"/><path d="M221.716,41.407V79.965H203V41.407a9.341,9.341,0,0,1,9.307-9.307c5.114,0,4.909,1.023,6.648,2.761a9.06,9.06,0,0,1,2.148,3.375,8.48,8.48,0,0,1,.614,3.273Z" transform="translate(-190.932 -14.611)" fill="#fff"/><path d="M221.716,41.273v.92L203,62.444V57.637L221.1,38A8.48,8.48,0,0,1,221.716,41.273Z" transform="translate(-190.932 -14.477)" fill="#e5e6eb"/><path d="M221.6,64.7v4.7l-9,9.818h-4.4Z" transform="translate(-190.813 -13.869)" fill="#e5e6eb"/><path d="M247.516,41.407V79.965H228.8V41.407a9.341,9.341,0,0,1,9.307-9.307c5.114,0,4.909,1.023,6.648,2.761a9.06,9.06,0,0,1,2.148,3.375,8.48,8.48,0,0,1,.614,3.273Z" transform="translate(-190.345 -14.611)" fill="#fff"/><path d="M247.516,41.273v.92L228.8,62.444V57.637L246.9,38A8.48,8.48,0,0,1,247.516,41.273Z" transform="translate(-190.345 -14.477)" fill="#e5e6eb"/><path d="M247.4,64.7v4.7l-9.1,9.818h-4.4Z" transform="translate(-190.229 -13.869)" fill="#e5e6eb"/></g><g transform="translate(0.304 0.102)"><g transform="translate(4.241 148.074)"><rect width="0.716" height="21.478" transform="matrix(0.424, -0.906, 0.906, 0.424, 0.465, 6.558)" fill="#aeddff"/><rect width="0.716" height="21.478" transform="matrix(0.424, -0.906, 0.906, 0.424, 0, 7.523)" fill="#3895ea"/><path d="M166.1,155.614l9,4.193a1.17,1.17,0,0,0-.716-1.534l-6.75-3.171a1.286,1.286,0,0,0-1.636.511Z" transform="translate(-162.744 -154.98)" fill="#aeddff"/><path d="M181.226,162.905l-1.125,2.352a.457.457,0,0,0,.818.409l1.125-2.352a.457.457,0,0,0-.818-.409Z" transform="translate(-162.424 -154.806)" fill="#fff"/><path d="M178.826,161.805l-1.125,2.352a.457.457,0,0,0,.818.409l1.125-2.352a.457.457,0,0,0-.818-.409Z" transform="translate(-162.478 -154.831)" fill="#fff"/><path d="M176.526,160.705l-1.125,2.352a.457.457,0,0,0,.818.409l1.125-2.352a.457.457,0,1,0-.818-.409Z" transform="translate(-162.531 -154.856)" fill="#fff"/><path d="M166.05,155.8l-2.25,4.807,19.432,9.1a3.9,3.9,0,0,0,.307-1.023,6.273,6.273,0,0,0-.2-3.068,5.187,5.187,0,0,0-.92-1.636l-.818,1.841a.779.779,0,0,1-1.432-.614l1.023-2.25c-.2-.1-.511-.307-.716-.409h-.307c0-.1-1.125,2.148-1.125,2.148a.779.779,0,0,1-1.432-.614l1.125-2.352-1.023-.511-1.125,2.352a.779.779,0,0,1-1.432-.614l1.125-2.352L165.846,155.7Z" transform="translate(-162.794 -154.964)" fill="#3895ea"/><circle cx="1.534" cy="1.534" r="1.534" transform="translate(6.427 3.907)" fill="#fff"/><path d="M166.868,160.884l16.671,7.773a3.9,3.9,0,0,1-.307,1.023l-19.432-9.1,1.636-3.477a3.073,3.073,0,0,1,1.534,3.784Z" transform="translate(-162.794 -154.932)" fill="#fff"/></g><g transform="translate(40.113 121.133)"><rect width="0.716" height="21.478" transform="translate(0.323 7.382) rotate(-74.2)" fill="#aeddff"/><rect width="0.716" height="21.478" transform="translate(0 8.336) rotate(-74.2)" fill="#3895ea"/><path d="M199.9,129.52l9.614,2.659a1.448,1.448,0,0,0-.92-1.432l-7.159-2.045a1.216,1.216,0,0,0-1.534.716Z" transform="translate(-197.845 -128.638)" fill="#aeddff"/><path d="M216.016,134.307l-.716,2.557c0,.2,0,.511.307.511s.511,0,.511-.307l.716-2.557c0-.2,0-.511-.307-.511S216.016,134,216.016,134.307Z" transform="translate(-197.494 -128.516)" fill="#fff"/><path d="M213.516,133.507l-.716,2.557c0,.2,0,.511.307.511.2,0,.511,0,.511-.307l.716-2.557c0-.2,0-.511-.307-.511C213.823,133.2,213.516,133.2,213.516,133.507Z" transform="translate(-197.551 -128.535)" fill="#fff"/><path d="M211.016,132.807l-.716,2.557c0,.2,0,.511.307.511s.511,0,.511-.307l.716-2.557c0-.2,0-.511-.307-.511C211.323,132.5,211.016,132.5,211.016,132.807Z" transform="translate(-197.608 -128.55)" fill="#fff"/><path d="M199.832,129.8l-1.432,5.114,20.66,5.83a3.634,3.634,0,0,1,.2-1.023,6.053,6.053,0,0,0-.716-2.966,5.382,5.382,0,0,0-1.227-1.432l-.511,1.943a.745.745,0,1,1-1.432-.409l.716-2.352a7.046,7.046,0,0,0-.818-.307h-.307l-.716,2.352a.745.745,0,0,1-1.432-.409l.716-2.455-1.125-.307-.716,2.455a.745.745,0,1,1-1.432-.409l.716-2.455L199.832,129.8Z" transform="translate(-197.879 -128.612)" fill="#3895ea"/><path d="M203.6,133.124a1.62,1.62,0,0,0,1.023,1.943,1.553,1.553,0,0,0,.92-2.966A1.62,1.62,0,0,0,203.6,133.124Z" transform="translate(-197.762 -128.561)" fill="#fff"/><path d="M201.571,134.677l17.694,5.011a1.844,1.844,0,0,1-.2,1.023l-20.66-5.83,1.023-3.682a2.972,2.972,0,0,1,2.046,3.477Z" transform="translate(-197.879 -128.58)" fill="#fff"/></g><path d="M176.412,156.786,176,157.4l-.716,1.227a1.375,1.375,0,0,0-.716-.614l-6.75-3.171a1.444,1.444,0,0,0-.92-.1l.614-1.227.307-.614,8.591,3.989Z" transform="translate(-158.483 -6.954)" fill="#ffcec7"/><path d="M210.216,129.157l-.307.614-.511,1.33a2.227,2.227,0,0,0-.818-.511l-7.159-2.046h-.92l.307-1.227.2-.716,9.1,2.455Z" transform="translate(-157.718 -7.552)" fill="#ffcec7"/><path d="M176.4,156.786l-.409.614-8.489-3.886.2-.614Z" transform="translate(-158.469 -6.954)" fill="#ff9a95"/><path d="M210.207,129.157l-.307.614-9-2.455.2-.716Z" transform="translate(-157.709 -7.552)" fill="#ff9a95"/><path d="M187.378,131.8c-.614,5.727-8.284,22.4-9.818,25.671,0,.2-.307.2-.511.2l-.409-.2-8.9-4.091-.511-.2c-.1,0-.2-.2-.2-.409.511-2.352,2.864-14.421,2.864-18.1,0-4.6-2.148-13.807-3.989-20.966,4.4,3.58,11.046,3.886,20.046.818.818,5.932,1.739,13.7,1.33,17.284Z" transform="translate(-158.505 -7.846)" fill="#dfbba0"/><path d="M200.531,61.778h0a96.843,96.843,0,0,1-7.773,13.3h0a2.231,2.231,0,0,1-.409.511,37.387,37.387,0,0,1-3.477,4.3c-.307.307-.511.614-.818.92a35.823,35.823,0,0,1-2.864,2.761,19.964,19.964,0,0,1-2.352,1.739,25.142,25.142,0,0,1-5.216,2.659,17.314,17.314,0,0,1-7.568.818,13.57,13.57,0,0,1-6.546-2.557h0a12.843,12.843,0,0,1-2.455-2.25,9.573,9.573,0,0,1-2.352-7.057c.409-6.75,5.523-10.841,9.716-13.091a27.175,27.175,0,0,1,7.057,4.5,14.543,14.543,0,0,1,2.148,2.966c-.409.2-.716.409-1.125.614-.2,0-.307.2-.511.307a.145.145,0,0,0,.2.2c.2,0,.307-.2.511-.307l1.227-.614h0c4.5-2.352,9.1-5.011,12.682-9,.2-.2.307-.409.511-.614a27.256,27.256,0,0,0,1.841-2.352c.307-.409.511-.716.818-1.125,0-.1.307-.2.409-.1l.511.2h0l5.625,2.557s.2.1.2.2v.511Z" transform="translate(-158.67 -9.107)" fill="#b15815"/><path d="M204.427,51.884c0,.1-.1.2-.2.307l-.307.307-2.455,2.455s-.1,0-.1.2v.614a2.252,2.252,0,0,1-.1.818,8.521,8.521,0,0,1-.409,1.534,3.17,3.17,0,0,1-.614,1.33,6.151,6.151,0,0,1-.92,1.33s-.1.2-.2.2l-4.909-2.25c.2-.614.409-1.125.614-1.739a3.25,3.25,0,0,1,.307-.92v-.1h0c.1-.409.307-.818.409-1.227a8.52,8.52,0,0,0,.409-1.534c.2-.716.409-1.534.614-2.25,0-.409.2-.716.2-1.125a3.634,3.634,0,0,1,.2-1.023c0-.2.307-.511.511-.614a.874.874,0,0,1,.716,0,1.161,1.161,0,0,1,.307.818,3.479,3.479,0,0,1-.1,1.023,5.586,5.586,0,0,1-.614,1.841h0l-.614.92v.2h.2a24.889,24.889,0,0,1,2.046-2.557,6.616,6.616,0,0,0,.818-.92l.2-.2.1-.1h0l.2-.2h0s.2-.1.2-.2h.2s.1,0,.2.2v.2h0v.2c0,.307-.2.511-.409.818h0c0,.1-.1.2-.2.307a.317.317,0,0,1-.1.2h0c-.511.614-1.023,1.125-1.636,1.739-.2.307-.511.511-.716.818v.2h.2c.716-.818,1.33-1.636,2.046-2.352,0,0,.2-.2.2-.307h0c.307-.307.614-.716.92-1.023.2-.307.614-.716,1.023-.511h0a.317.317,0,0,1-.1.2c0,.1-.2.2-.307.307-.2.307-.409.511-.614.818-.409.511-.818,1.023-1.227,1.636a5.621,5.621,0,0,1-.716.92h0v.2h.2a12.951,12.951,0,0,1,2.557-2.148,4.446,4.446,0,0,1,.716-.409c.1,0,.2-.1.307-.2h.307s.1,0,.2.2v.307Z" transform="translate(-157.862 -9.337)" fill="#ffcec7"/><path d="M187.143,64.936l-1.534,1.227A13.813,13.813,0,0,0,185.2,63.3,14.955,14.955,0,0,1,187.143,64.936Z" transform="translate(-158.066 -8.992)" fill="#b15815"/><path d="M178.7,99.1l-1.227.409c-.409.2-.92.307-1.33.511l-1.943.716c.1-.511.307-1.023.409-1.534H178.7Z" transform="translate(-158.317 -8.178)" fill="#dfbba0"/><path d="M213.337,121.586a55.574,55.574,0,0,1-.92,5.727c-.2.818-.307,1.432-.511,2.046a.2.2,0,0,1-.2.2h-.511l-9.409-2.557h-.409a.531.531,0,0,1-.2-.409l-3.784-15.239a.891.891,0,0,0-.614-.818,1.108,1.108,0,0,0-1.125,0,71.973,71.973,0,0,1-9.512,4.091h0c-9.1,3.171-15.955,2.864-20.148-.92h0a13.635,13.635,0,0,1-3.784-8.182l9,1.841h.307a1.536,1.536,0,0,0,1.534-1.125c.409-1.227.818-2.557,1.33-4.3v-.307c.1-.1.1-.2.2-.307h0l2.148-.818c.409-.2.92-.307,1.33-.511l2.148-.716.614-.2h0l1.841-.614c.2,0,.409-.2.614-.2.511-.2,1.023-.307,1.534-.511.2,0,.307-.1.511-.2h0c1.125-.409,2.046-.716,3.068-1.023h0a33.887,33.887,0,0,1,4.5-1.023,7.9,7.9,0,0,0,1.534-.2h0a23.016,23.016,0,0,1,7.568.614,14.054,14.054,0,0,1,6.955,4.091,17.066,17.066,0,0,1,3.682,6.546,28.681,28.681,0,0,1,1.227,7.671,60.654,60.654,0,0,1-.2,7.364Z" transform="translate(-158.59 -8.266)" fill="#dfbba0"/><path d="M193.427,95.319a6.752,6.752,0,0,0-1.432.1c-1.33.2-2.659.511-4.3.92,0-3.886.1-9.512,0-14.83v-.2a38.157,38.157,0,0,0,3.477-4.807v7.364a3.147,3.147,0,0,0,1.841,2.864h0c0,1.023,0,2.045.1,3.068v2.25c0,1.023,0,2.045.1,3.171Z" transform="translate(-158.01 -8.692)" fill="#b15815"/><path d="M180.016,97.5v1.227l-.409.2H174.8l.307-1.227h5.011Z" transform="translate(-158.303 -8.214)" fill="#d2f5f4"/><path d="M184.4,97.114a.773.773,0,0,0-.409.1,9,9,0,0,1-1.534.511c-.2,0-.409.2-.716.2-.511.2-1.125.409-1.636.614V97.42a1.433,1.433,0,0,1,1.227-.92h1.943a.894.894,0,0,1,.92.614Z" transform="translate(-158.182 -8.237)" fill="#d2f5f4"/><path d="M183.541,67.534a13.325,13.325,0,0,0-1.534,1.023L181.7,66Z" transform="translate(-158.146 -8.931)" fill="#9fd3fb"/><path d="M185.35,66.4a6.209,6.209,0,0,1-1.023.716L183.1,61.9c.614.307,1.125.716,1.739,1.023a31.318,31.318,0,0,1,.511,3.273h0Z" transform="translate(-158.114 -9.024)" fill="#fff"/><path d="M181.591,69.046c-1.33.818-2.659,1.534-3.989,2.25a15.135,15.135,0,0,0-2.148-3.068,25.145,25.145,0,0,0-6.955-4.5c.2,0,.307-.2.511-.2.716-.307,1.534-.716,2.25-1.023l10.33,6.546Z" transform="translate(-158.446 -9.01)" fill="#fff"/><path d="M184.278,67.339s-.2.1-.2.2h0L181.618,65.5l.409,3.477h0L171.8,62.43a13.86,13.86,0,0,0,1.432-.511h0a38.473,38.473,0,0,1,8.08,3.273h0A12.9,12.9,0,0,0,181,61.1h.1a13.312,13.312,0,0,1,1.739.818l1.227,5.523h0Z" transform="translate(-158.371 -9.042)" fill="#d2f5f4"/><path d="M180.627,61a12.263,12.263,0,0,1,.409,4.091,38.293,38.293,0,0,0-7.773-3.068,6.362,6.362,0,0,0,.92-2.659v-.818a7.205,7.205,0,0,0-.92-2.966c0-.2-.2-.307-.2-.511,0,0,0-.1-.2-.1H171.73a2.338,2.338,0,0,1-1.023-.716h0a1.65,1.65,0,0,1-.307-.92,2.154,2.154,0,0,1,.511-1.33h0l.1-.1h0a.317.317,0,0,0,.2-.1h0a.505.505,0,0,0,.307-.1h0c.716-.2,1.227.307,2.148,1.432h.2a10.96,10.96,0,0,1,.2-2.864,4.182,4.182,0,0,0-.307-2.761,3.334,3.334,0,0,0,3.068,1.125,5.133,5.133,0,0,0,1.227-.2,8.222,8.222,0,0,0,2.659-.92,11.666,11.666,0,0,1,1.33,3.58v1.534l.1,3.068a3.982,3.982,0,0,1-2.148,3.682h-.1l.716,1.841h0Z" transform="translate(-158.403 -9.352)" fill="#ffcec7"/><path d="M177.164,89.107c-.409,1.841-1.432,6.341-1.943,8.489-.1.511-.307,1.023-.409,1.636-.2.614-.307,1.125-.511,1.841h0v.1a.922.922,0,0,1-.1.511v.307c-.614,1.739-1.023,3.068-1.33,4.3a1.34,1.34,0,0,1-1.534.92l-9.2-1.841h-.307c-.1,0-.2-.1-.307-.1-.92-.409-.716-1.534-.614-2.557V102.4c.2-1.432.511-2.966.818-4.6.511-2.966,1.023-5.932,1.432-8.8v-.2a25.47,25.47,0,0,0,12.273.818,11.891,11.891,0,0,0,1.841-.409Z" transform="translate(-158.621 -8.412)" fill="#b15815"/><path d="M184.657,84.6c0,2.352-.2,5.011-.307,7.364v.614l-1.227,2.659-1.023-2.25c0-1.023.2-3.477.409-6.648.716-.511,1.432-1.125,2.148-1.636Z" transform="translate(-158.137 -8.508)" fill="#9fd3fb"/><path d="M187.68,96.43c-.92.307-1.841.614-2.864.92a1.329,1.329,0,0,0-1.227-.818h-1.943a1.574,1.574,0,0,0-1.534,1.023H175.1c.614-2.25,1.534-6.546,1.943-8.387h0a17.93,17.93,0,0,0,5.216-2.659c-.1,3.171-.307,5.523-.409,6.443h0l1.33,2.966,1.432-3.273V91.93c.2-2.455.307-5.216.409-7.671a20.812,20.812,0,0,0,2.557-2.659V96.328Z" transform="translate(-158.296 -8.576)" fill="#fff"/><path d="M189.518,62.614a13.961,13.961,0,0,1-1.739,1.739A16.478,16.478,0,0,0,184.2,62a21.336,21.336,0,0,0,4.807.614h.511Z" transform="translate(-158.089 -9.022)" fill="#b15815"/><g transform="translate(33.372)"><path d="M260.335,13.268v5.625H191.3V13.268a3.077,3.077,0,0,1,3.068-3.068h63a3.077,3.077,0,0,1,3.068,3.068Z" transform="translate(-191.3 -10.2)" fill="#178d89"/><g transform="translate(0 8.591)"><rect width="8.591" height="12.989" fill="#fff"/><rect width="8.591" height="12.989" transform="translate(8.591)" fill="#d1ced9"/><rect width="8.591" height="12.989" transform="translate(17.284)" fill="#fff"/><rect width="8.591" height="12.989" transform="translate(25.876)" fill="#d1ced9"/><rect width="8.591" height="12.989" transform="translate(34.569)" fill="#fff"/><rect width="8.591" height="12.989" transform="translate(43.16)" fill="#d1ced9"/><rect width="8.591" height="12.989" transform="translate(51.751)" fill="#fff"/><rect width="8.591" height="12.989" transform="translate(60.444)" fill="#d1ced9"/></g><g transform="translate(0 21.58)"><g transform="translate(8.591)"><path d="M199.7,35.9a4.321,4.321,0,0,0,4.3,4.3h0a4.321,4.321,0,0,0,4.3-4.3V31.3H199.7Z" transform="translate(-199.7 -31.3)" fill="#178d89"/><path d="M216.6,35.9a4.321,4.321,0,0,0,4.3,4.3h0a4.321,4.321,0,0,0,4.3-4.3V31.3H216.6v4.6Z" transform="translate(-199.316 -31.3)" fill="#178d89"/><path d="M233.5,35.9a4.321,4.321,0,0,0,4.3,4.3h0a4.321,4.321,0,0,0,4.3-4.3V31.3H233.5Z" transform="translate(-198.931 -31.3)" fill="#178d89"/><path d="M250.4,31.3v4.6a4.321,4.321,0,0,0,4.3,4.3h0a4.321,4.321,0,0,0,4.3-4.3V31.3Z" transform="translate(-198.547 -31.3)" fill="#178d89"/></g><path d="M191.3,35.9a4.321,4.321,0,0,0,4.3,4.3h0a4.321,4.321,0,0,0,4.3-4.3V31.3H191.3Z" transform="translate(-191.3 -31.3)" fill="#d2f5f4"/><path d="M208.2,35.9a4.3,4.3,0,1,0,8.591,0V31.3H208.2Z" transform="translate(-190.916 -31.3)" fill="#d2f5f4"/><path d="M225.1,35.9a4.321,4.321,0,0,0,4.3,4.3h0a4.321,4.321,0,0,0,4.3-4.3V31.3H225.1v4.6Z" transform="translate(-190.531 -31.3)" fill="#d2f5f4"/><path d="M241.9,35.9a4.3,4.3,0,1,0,8.591,0V31.3H241.9Z" transform="translate(-190.149 -31.3)" fill="#d2f5f4"/></g></g></g><g transform="translate(40.018 118.946)"><path d="M209.3,131.458a.1.1,0,0,1-.1-.1h0l1.023-2.455a.145.145,0,0,1,.2.2l-1.023,2.352h-.1Z" transform="translate(-197.234 -126.344)" fill="#27191c"/><path d="M200.3,128.957a.1.1,0,0,1-.1-.1h0l.716-2.352a.162.162,0,1,1,.307.1l-.716,2.352a.1.1,0,0,1-.1.1Z" transform="translate(-197.439 -126.4)" fill="#27191c"/><path d="M219.073,141.964,197.8,135.93l.409-1.33,21.273,6.034Zm-20.966-6.136,20.66,5.83.2-.716-20.66-5.83Z" transform="translate(-197.493 -126.213)" fill="#27191c"/><path d="M218.773,142.964,197.5,136.93l.409-1.33,21.273,6.034Zm-20.966-6.239,20.66,5.83.2-.716-20.66-5.83Z" transform="translate(-197.5 -126.191)" fill="#27191c"/><path d="M215.832,134.416h0l-.92-.307H214.5c0-.1-.1-.2-.1-.307a.357.357,0,0,1,.2-.1h.409c.307.2.614.307.92.511a.142.142,0,0,1,0,.2h-.1Z" transform="translate(-197.116 -126.234)" fill="#27191c"/><path d="M219.273,141.162h-.1L198,135.127l1.636-5.727,11.557,3.273a.162.162,0,1,1-.1.307l-11.25-3.171-1.432,5.114,20.66,5.83a5.439,5.439,0,0,0-.511-3.989,6.677,6.677,0,0,0-1.33-1.636v-.2h.2a5.935,5.935,0,0,1,1.943,6.136h0Z" transform="translate(-197.489 -126.332)" fill="#27191c"/><path d="M213.434,133.616h0L212,133.207a.162.162,0,1,1,.1-.307l1.432.409a.357.357,0,0,1,.1.2.1.1,0,0,1-.1.1Z" transform="translate(-197.172 -126.252)" fill="#27191c"/><path d="M209.725,132.592,199.6,129.728h0a1.544,1.544,0,0,1,1.943-1.227l7.159,2.046a1.633,1.633,0,0,1,1.125,1.943h0Zm-9.818-3.068,9.614,2.659a1.448,1.448,0,0,0-.92-1.432l-7.159-2.045a1.216,1.216,0,0,0-1.534.716Z" transform="translate(-197.452 -126.353)" fill="#27191c"/><path d="M215.716,137.689h-.2a.732.732,0,0,1-.511-.92l.716-2.557a.732.732,0,0,1,.92-.511c.2,0,.307.2.409.409,0,.2.1.409,0,.614l-.716,2.557c0,.2-.2.307-.409.409h-.2Zm.716-3.784c-.2,0-.409.1-.409.307l-.716,2.557c0,.2,0,.511.307.511h.307c.1,0,.2-.2.2-.307l.716-2.557v-.307c0-.1-.2-.2-.307-.2Z" transform="translate(-197.102 -126.234)" fill="#27191c"/><path d="M213.215,136.992h-.2c-.2,0-.307-.2-.409-.409,0-.2-.1-.409,0-.614l.716-2.557a.745.745,0,1,1,1.432.409l-.716,2.557c0,.2-.2.307-.409.409h-.409Zm.716-3.784c-.2,0-.409.1-.409.307l-.716,2.557v.307c0,.1.2.2.307.2h.307c.1,0,.2-.2.2-.307l.716-2.557c0-.2,0-.511-.307-.511Z" transform="translate(-197.158 -126.253)" fill="#27191c"/><path d="M210.715,136.29h-.2c-.2,0-.307-.2-.409-.409,0-.2-.1-.409,0-.614l.716-2.557c0-.2.2-.307.409-.409.2,0,.409-.1.614,0a.732.732,0,0,1,.511.92l-.716,2.557c0,.307-.409.511-.716.511Zm-.1-.307c.2,0,.511,0,.511-.307l.716-2.557c0-.2,0-.511-.307-.511h-.307c-.1,0-.2.2-.2.307l-.716,2.557v.307c0,.1.2.2.307.2Z" transform="translate(-197.214 -126.267)" fill="#27191c"/></g><g transform="translate(4.221 145.696)"><path d="M175,159.055h-.2l1.534-2.455h.2v.2l-1.33,2.148h0Z" transform="translate(-162.22 -152.464)" fill="#27191c"/><path d="M166.6,155.158h0a.142.142,0,0,1,0-.2l1.125-2.352a.145.145,0,0,1,.2.2l-1.125,2.352h-.2Z" transform="translate(-162.408 -152.556)" fill="#27191c"/><path d="M182.946,171.037,162.9,161.627l.614-1.227,20.046,9.409Zm-19.637-9.512,19.432,9.1.307-.716-19.432-9.1Z" transform="translate(-162.491 -152.377)" fill="#27191c"/><path d="M182.546,171.934,162.5,162.525l.511-1.125h.1l19.841,9.409-.614,1.227Zm-19.637-9.614,19.432,9.2.307-.716-19.432-9.1-.307.614Z" transform="translate(-162.5 -152.354)" fill="#27191c"/><path d="M181.028,163.021h0a5.71,5.71,0,0,0-.818-.511l-.409-.2a.145.145,0,0,1,.2-.2l.409.2a2.227,2.227,0,0,1,.818.511v.2h-.2Z" transform="translate(-162.107 -152.339)" fill="#27191c"/><path d="M183.346,170.23,163.3,160.821l2.557-5.421,10.841,5.114a.145.145,0,1,1-.2.2l-10.534-5.011-2.25,4.807,19.432,9.1a5.174,5.174,0,0,0,.1-4.091,4.28,4.28,0,0,0-1.125-1.841v-.2h.2a4.636,4.636,0,0,1,1.125,1.943,5.936,5.936,0,0,1-.2,4.4h0Z" transform="translate(-162.482 -152.491)" fill="#27191c"/><path d="M178.731,161.819h0l-1.33-.614a.145.145,0,1,1,.2-.2l1.33.614a.142.142,0,0,1,0,.2h-.2Z" transform="translate(-162.162 -152.364)" fill="#27191c"/><path d="M175.314,160.223l-9.614-4.5h0a1.652,1.652,0,0,1,2.148-.92l6.75,3.171a1.563,1.563,0,0,1,.716,2.148h0Zm-9.2-4.6,9,4.193a1.137,1.137,0,0,0-.716-1.534l-6.75-3.171a1.188,1.188,0,0,0-1.023,0c-.307,0-.511.307-.614.511Z" transform="translate(-162.427 -152.507)" fill="#27191c"/><path d="M180.517,166.185h-.307a.838.838,0,0,1-.409-1.023l1.125-2.352a.779.779,0,1,1,1.432.614l-1.125,2.352A.685.685,0,0,1,180.517,166.185Zm1.125-3.58c-.2,0-.307,0-.409.307l-1.125,2.352a.457.457,0,0,0,.818.409l1.125-2.352a.492.492,0,0,0-.2-.614h-.2Z" transform="translate(-162.107 -152.332)" fill="#27191c"/><path d="M178.117,165.085h-.307a.838.838,0,0,1-.409-1.023l1.125-2.352a.779.779,0,0,1,1.432.614l-1.125,2.352A.685.685,0,0,1,178.117,165.085Zm-.1-.307a.492.492,0,0,0,.614-.2l1.125-2.352a.457.457,0,0,0-.818-.409l-1.125,2.352a.492.492,0,0,0,.2.614Z" transform="translate(-162.162 -152.357)" fill="#27191c"/><path d="M175.816,163.985h-.307c-.2,0-.307-.2-.409-.409v-.614l1.125-2.352a.779.779,0,0,1,1.432.614l-1.125,2.352c0,.2-.2.307-.409.409Zm1.125-3.58c-.2,0-.307,0-.409.307l-1.125,2.352v.307c0,.1.1.2.2.307h.307c.1,0,.2-.1.307-.2l1.125-2.352a.492.492,0,0,0-.2-.614h-.2Z" transform="translate(-162.213 -152.382)" fill="#27191c"/></g><path d="M177.259,158h-.307l-9.716-4.5a.685.685,0,0,1-.409-.716c.511-2.352,2.864-14.421,2.864-18,0-3.682-1.33-11.046-4.091-21.273h0c0-.2,0-.307.2-.307h.1c1.841,7.262,4.091,16.773,4.091,21.58,0,3.682-2.352,15.648-2.864,18.1,0,.2,0,.307.2.409l9.716,4.5c.2,0,.409,0,.511-.2,1.534-3.273,9.2-19.841,9.818-25.671.409-3.58-.511-11.455-1.33-17.387h0c0-.1,0-.2.1-.2s.1,0,.1.1c.818,5.932,1.739,13.807,1.33,17.489-.614,5.83-8.387,22.5-9.921,25.773a.691.691,0,0,1-.614.409Z" transform="translate(-158.208 -7.755)" fill="#27191c"/><path d="M211.71,129.984h-.2l-10.125-2.761c-.2,0-.409-.2-.511-.511l-3.784-15.239a.691.691,0,0,0-.409-.614,1.12,1.12,0,0,0-.818,0,77.371,77.371,0,0,1-9.409,4.091h-.1c-9.307,3.171-16.159,2.864-20.557-1.023h0a14.988,14.988,0,0,1-3.989-8.693s0-.2.1-.2c0,0,.2,0,.2.1a14.007,14.007,0,0,0,3.886,8.387h0c4.3,3.886,11.046,4.193,20.148,1.023h0a80.1,80.1,0,0,0,9.512-4.193,1.1,1.1,0,0,1,1.125,0,1.591,1.591,0,0,1,.614.818l3.784,15.239a.22.22,0,0,0,.2.2h.409c0,.1,9.716,2.761,9.716,2.761h.307l.2-.2c.2-.614.307-1.33.511-2.045a51.444,51.444,0,0,0,.92-5.727,36.042,36.042,0,0,0,.2-7.364,28.681,28.681,0,0,0-1.227-7.671,16.339,16.339,0,0,0-3.682-6.546,14.517,14.517,0,0,0-6.955-4.091,23.015,23.015,0,0,0-7.568-.614,3.975,3.975,0,0,0-1.534.2,33.885,33.885,0,0,0-4.5,1.023c-1.125.307-2.148.716-3.068,1.023a.615.615,0,0,0-.409.1h0a9,9,0,0,1-1.534.511c-.2,0-.409.2-.614.2l-1.841.614-1.636.614c-.409.1-.716.307-1.125.409-.409.2-.92.307-1.33.511l-2.25.818h0a.1.1,0,0,1-.1-.1c0-.1,0-.1.1-.1l2.148-.818c.409-.2.92-.307,1.33-.511.409-.1.716-.307,1.125-.409l1.636-.614,1.841-.614c.2,0,.409-.2.716-.2.511-.2,1.023-.307,1.534-.511h0a.775.775,0,0,0,.409-.2c.92-.307,2.046-.716,3.068-1.023a33.887,33.887,0,0,1,4.5-1.023,7.9,7.9,0,0,0,1.534-.2,21.32,21.32,0,0,1,7.671.716,14.531,14.531,0,0,1,7.159,4.193,18.269,18.269,0,0,1,3.784,6.648,29.473,29.473,0,0,1,1.227,7.773,47,47,0,0,1-.307,7.466,55.578,55.578,0,0,1-.92,5.727c-.2.818-.307,1.432-.511,2.045,0,.2-.1.307-.307.409h-.307Z" transform="translate(-158.295 -8.175)" fill="#27191c"/><path d="M208.333,103.726h-.1a10.459,10.459,0,0,0-5.83-5.421.145.145,0,0,1,.2-.2,10.365,10.365,0,0,1,6.034,5.523v.2h0Z" transform="translate(-157.372 -8.099)" fill="#27191c"/><path d="M206.943,106.186a.1.1,0,0,1-.1-.1A6.076,6.076,0,0,0,205,102.5v-.2h.2a6.453,6.453,0,0,1,1.943,3.784s0,.2-.1.2h0Z" transform="translate(-157.312 -8.003)" fill="#27191c"/><g transform="translate(36.131 38.251)"><path d="M194.109,58.729l.614-1.841a3.25,3.25,0,0,1,.307-.92,6.614,6.614,0,0,0,.409-1.33,8.52,8.52,0,0,0,.409-1.534c0-.2-.2-.307-.307,0-.307.92-.511,1.841-.818,2.659a4.275,4.275,0,0,1-.409,1.023,2.6,2.6,0,0,1-.2.716c-.1.409-.307.818-.409,1.227,0,0,0,.2.1.2,0,0,.2,0,.2-.1h0Z" transform="translate(-193.7 -47.377)" fill="#27191c"/><path d="M201.5,50.445a2.056,2.056,0,0,0,.409-.818,1.154,1.154,0,0,0,.1-.818c0-.307-.307-.409-.614-.409a1.263,1.263,0,0,0-.818.409l-1.227,1.227a12.955,12.955,0,0,0-1.125,1.33c-.409.511-.818,1.023-1.227,1.636v.2h.2a24.889,24.889,0,0,1,2.046-2.557c.409-.409.716-.818,1.125-1.227a2.711,2.711,0,0,1,.614-.511c.2-.1.409-.2.614,0v.716a3.063,3.063,0,0,1-.409.818c-.1.2.2.307.307.1h0Z" transform="translate(-193.625 -47.48)" fill="#27191c"/><path d="M198.707,53.664c.716-.818,1.33-1.636,2.046-2.352,0,0,.2-.2.2-.307v-.2h-.2c-.511.614-1.125,1.227-1.636,1.739-.2.307-.511.511-.716.818v.2h.2Z" transform="translate(-193.593 -47.425)" fill="#27191c"/><path d="M195.9,53.227c.2-.716.409-1.534.614-2.25,0-.409.2-.716.2-1.125a1.973,1.973,0,0,1,.307-1.023c0-.2.307-.511.511-.614a.874.874,0,0,1,.716,0,1.161,1.161,0,0,1,.307.818,3.479,3.479,0,0,1-.1,1.023,5.586,5.586,0,0,1-.614,1.841c0,.1.1.307.2.2,0-.1.2-.2.2-.307s.2-.2.2-.307c.2-.2.307-.409.511-.614.409-.409.716-.818,1.125-1.227l.307-.307.1-.1.1-.1c.2-.2.409-.409.614-.409h.307s.1,0,.2.2v.614c0,.307-.2.511-.409.818,0,.1-.2.307-.2.409a.317.317,0,0,1-.1.2h0a.153.153,0,1,0,.307,0h0v.1a3832.483,3832.483,0,0,1,.2-.409c0-.1.2-.2.2-.409a6.071,6.071,0,0,0,.409-.818c0-.2.2-.511.1-.716,0-.2-.2-.409-.511-.511a1.1,1.1,0,0,0-.818.2c-.1,0-.2.2-.307.307h0l-.1.1-1.227,1.227c-.2.2-.409.511-.614.716-.1.1-.2.307-.307.409,0,.1-.2.307-.307.409,0,0,.2.1.2.2a5.036,5.036,0,0,0,.614-1.739c0-.409.1-.716.1-1.125a1.344,1.344,0,0,0-.307-1.023.93.93,0,0,0-.818-.409c-.307,0-.614.307-.818.511a3.633,3.633,0,0,0-.409.92,4.35,4.35,0,0,1-.2,1.125,25.616,25.616,0,0,1-.716,2.659c0,.2.2.307.307,0h0Z" transform="translate(-193.655 -47.5)" fill="#27191c"/><path d="M200.945,51.043c.409-.409.716-.818,1.125-1.227a1.3,1.3,0,0,1,.614-.409c.2,0,.409,0,.409.307a.884.884,0,0,1-.307.614,4.329,4.329,0,0,0-.511.716c-.307.409-.716.92-1.023,1.33l-1.227,1.534v.2h.2a12.951,12.951,0,0,1,2.557-2.148,4.447,4.447,0,0,1,.716-.409c.1,0,.2-.1.307-.2h.307c.2,0,.2.2.1.409,0,.1-.1.2-.2.307l-.307.307-2.455,2.455a.357.357,0,0,0-.1.2v.614a2.252,2.252,0,0,1-.1.818A8.521,8.521,0,0,1,200.639,58a3.17,3.17,0,0,1-.614,1.33,6.152,6.152,0,0,1-.92,1.33c0,.1-.2.2-.2.307v.2h.2c.511-.716,1.023-1.432,1.432-2.148a11.131,11.131,0,0,0,.716-2.455c0-.511.2-1.023.2-1.432h0l1.534-1.534.818-.818.409-.409a1.412,1.412,0,0,0,.307-.409.763.763,0,0,0,0-.92.978.978,0,0,0-.92,0,2.227,2.227,0,0,0-.818.511,5.672,5.672,0,0,0-.818.614c-.614.511-1.227,1.023-1.739,1.534,0,0,.2.1.2.2.716-.92,1.534-1.943,2.25-2.864a3.108,3.108,0,0,0,.511-.716,1.527,1.527,0,0,0,.307-.716.548.548,0,0,0-.511-.511.933.933,0,0,0-.818.307l-.614.614a4.725,4.725,0,0,1-.716.716v.2h.2Z" transform="translate(-193.582 -47.464)" fill="#27191c"/></g><path d="M173.066,62.173h0v-.2a6.542,6.542,0,0,0,1.023-2.659v-.716a7.247,7.247,0,0,0-.92-2.864c0-.1-.2-.307-.2-.409h-1.33a2.9,2.9,0,0,1-1.125-.818h0a2.16,2.16,0,0,1-.409-1.023,2.081,2.081,0,0,1,.614-1.534h0l.2-.2a2.056,2.056,0,0,1,.818-.409,6.425,6.425,0,0,1,1.432-4.091,4.873,4.873,0,0,1,5.318-1.636,5.128,5.128,0,0,1,3.989,4.807v2.148l.2,3.068a4.506,4.506,0,0,1-2.148,3.886l.614,1.534v.2h-.2l-.716-1.841h.1a4.3,4.3,0,0,0,2.148-3.682V50.513a4.891,4.891,0,0,0-3.784-4.5,4.526,4.526,0,0,0-5.011,1.534,5.817,5.817,0,0,0-1.33,4.091h0a.1.1,0,0,1-.1.1c-.307,0-.511.2-.818.409a.317.317,0,0,0-.2.1h0a1.41,1.41,0,0,0-.511,1.33,1.65,1.65,0,0,0,.307.92h0a2.611,2.611,0,0,0,1.023.716h0c.2,0,.511.1.716,0h.409a.317.317,0,0,1,.2.1c0,.2.2.307.2.511a5.958,5.958,0,0,1,.92,2.966v.818a6.974,6.974,0,0,1-1.023,2.761h-.1Z" transform="translate(-158.106 -9.297)" fill="#27191c"/><path d="M171,53.523h0a.142.142,0,0,1,0-.2c.2-.716,1.023-.818,1.432-.818,0,0,.2,0,.2.1s0,.2-.1.2c-.614,0-1.023.2-1.125.614a.1.1,0,0,1-.1.1Z" transform="translate(-158.086 -9.135)" fill="#27191c"/><path d="M172.12,53.723h0a1.087,1.087,0,0,1-.92-.818s0-.2.1-.2c0,0,.2,0,.2.1,0,.307.307.511.614.614,0,0,.1,0,.1.2a.1.1,0,0,1-.1.1Z" transform="translate(-158.081 -9.131)" fill="#27191c"/><path d="M177.812,53.836h0c-.2,0-.409,0-.511-.2a.145.145,0,1,1,.2-.2c.1,0,.307.1.409.1,0,0,.2,0,.2-.1a.5.5,0,0,0-.1-.307l-.511-.716v-.2h.2l.511.716c0,.1.2.307.2.614,0,.2-.307.307-.511.307Z" transform="translate(-157.943 -9.142)" fill="#27191c"/><path d="M177.841,56.13A2.4,2.4,0,0,1,176,55.311v-.2h.2a1.947,1.947,0,0,0,1.739.716A2.086,2.086,0,0,0,179.58,54.8h.2V55a2.714,2.714,0,0,1-1.841,1.125h-.1Z" transform="translate(-157.972 -9.083)" fill="#27191c"/><path d="M187.355,65.1h-.1a21.576,21.576,0,0,0-2.352-1.943,22.658,22.658,0,0,0-4.4-2.352.1.1,0,0,1-.1-.1c0-.1,0-.1.1-.1h0a23.508,23.508,0,0,1,4.5,2.352,21.576,21.576,0,0,1,2.352,1.943v.2h0Z" transform="translate(-157.871 -8.951)" fill="#27191c"/><path d="M171.345,107.482h-.307l-9.512-1.943h-.307c-1.227-.511-.92-1.841-.716-2.864v-.307c.2-1.432.511-2.966.818-4.6.511-2.966,1.023-6.034,1.432-8.9l.511-2.966s0-.1.2-.1c0,0,.1,0,.1.2l-.511,2.966c-.511,2.966-1.023,5.932-1.432,8.9-.307,1.636-.511,3.171-.818,4.6v.307c-.2,1.023-.409,2.148.614,2.557h.614l9.2,1.943a1.38,1.38,0,0,0,1.534-.92c.409-1.227.818-2.557,1.33-4.3v-.307a.775.775,0,0,0,.2-.409h0c.2-.716.307-1.33.511-1.943.1-.511.307-1.023.409-1.636.614-2.25,1.636-6.75,2.046-8.591a1.241,1.241,0,0,1,.1-.511s0-.1.2-.1c0,0,.1,0,.1.2a1.79,1.79,0,0,1-.1.511c-.409,1.841-1.432,6.341-2.045,8.591-.1.511-.307,1.125-.409,1.636-.2.614-.307,1.227-.511,1.943h0v.716c-.614,1.739-1.023,3.068-1.33,4.3a1.625,1.625,0,0,1-1.534,1.125Z" transform="translate(-158.328 -8.378)" fill="#27191c"/><path d="M177.613,71.576h-.1a12.423,12.423,0,0,0-2.25-3.068,24.243,24.243,0,0,0-7.159-4.6.145.145,0,0,1,.2-.2,24.243,24.243,0,0,1,7.159,4.6,16.336,16.336,0,0,1,2.25,3.171v.2h0Z" transform="translate(-158.152 -8.882)" fill="#27191c"/><path d="M193.407,95.4a.1.1,0,0,1-.1-.1c0-1.125,0-2.148-.1-3.273v-2.25c0-1.023,0-2.045-.1-3.068h0c0-.1,0-.2.1-.2,0,0,.2,0,.2.1h0c0,1.023,0,2.045.1,3.068v2.25c0,1.023,0,2.148.1,3.273,0,0,0,.2-.1.2h-.1Z" transform="translate(-157.583 -8.362)" fill="#27191c"/><path d="M187.5,96.755h0s-.1,0-.1-.2c0-3.886.2-9.614,0-15.034V81a.162.162,0,1,1,.307-.1v.511c.1,5.421,0,11.148,0,15.034a.1.1,0,0,1-.1.1Z" transform="translate(-157.712 -8.492)" fill="#27191c"/><path d="M181.011,65.1h0s-.1,0-.1-.2a10.224,10.224,0,0,0-.409-4.3v-.2h.2a10.682,10.682,0,0,1,.409,4.4.1.1,0,0,1-.1.1Z" transform="translate(-157.869 -8.956)" fill="#27191c"/><path d="M181.184,65.08h0A39.6,39.6,0,0,0,173,61.807a.162.162,0,1,1,.1-.307,42.067,42.067,0,0,1,8.182,3.273v.2h-.1Z" transform="translate(-158.042 -8.931)" fill="#27191c"/><path d="M185.414,66.382a.1.1,0,0,1-.1-.1A17.89,17.89,0,0,0,184.8,62.9s0-.2.1-.2c0,0,.2,0,.2.1a33.366,33.366,0,0,1,.511,3.375s0,.2-.1.2h-.1Z" transform="translate(-157.771 -8.903)" fill="#27191c"/><path d="M172.105,89.288a12.378,12.378,0,0,1-1.943-.1,15.976,15.976,0,0,1-6.75-2.557,13.975,13.975,0,0,1-2.557-2.352,10.144,10.144,0,0,1-2.455-7.262c.409-6.955,5.625-11.148,10.023-13.4.307-.1.511-.307.818-.409a16.317,16.317,0,0,1,2.352-1.023,15.916,15.916,0,0,1,1.841-.614s.2,0,.2.1c0,0,0,.2-.1.2,0,0-.716.2-1.739.614a23.394,23.394,0,0,0-2.352,1.023,6.03,6.03,0,0,0-.818.409c-4.3,2.25-9.409,6.341-9.818,13.091a10.023,10.023,0,0,0,2.352,7.057,12.843,12.843,0,0,0,2.455,2.25,15.665,15.665,0,0,0,6.546,2.557,17.477,17.477,0,0,0,7.568-.818,22.846,22.846,0,0,0,5.216-2.659c.818-.511,1.534-1.125,2.352-1.739a35.829,35.829,0,0,0,2.864-2.761c.307-.307.511-.614.818-.92a48.933,48.933,0,0,0,3.477-4.3,2.231,2.231,0,0,1,.409-.511,123.547,123.547,0,0,0,7.773-13.3h0v-.307a.2.2,0,0,0-.2-.2L194.3,58.5a.615.615,0,0,0-.409.1c-.2.307-.511.716-.818,1.125-.716.92-1.227,1.636-1.841,2.352a2.712,2.712,0,0,0-.511.614c-3.58,3.989-8.182,6.648-12.682,9l-1.227.614h0c-.2,0-.307.2-.511.307h-.2v-.2c.2,0,.307-.2.511-.2h0l1.227-.614c4.5-2.352,9.1-5.011,12.58-8.9.2-.2.307-.409.511-.614.511-.614,1.125-1.432,1.841-2.352.307-.409.511-.716.818-1.125a.8.8,0,0,1,.818-.2l6.136,2.864c.2,0,.307.2.307.409v.511h0a97.626,97.626,0,0,1-7.773,13.4,2.231,2.231,0,0,1-.409.511,37.387,37.387,0,0,1-3.477,4.3c-.307.307-.511.614-.818.92a35.827,35.827,0,0,1-2.864,2.761c-.818.614-1.534,1.227-2.352,1.739a22.054,22.054,0,0,1-5.318,2.761,17.993,17.993,0,0,1-5.625.92Z" transform="translate(-158.372 -9.002)" fill="#27191c"/><path d="M183.13,95.966,181.8,93h0c0-1.023.2-3.784.409-7.364,0,0,0-.1.2-.1,0,0,.1,0,.1.2-.2,3.477-.307,6.239-.409,7.262l1.023,2.25,1.125-2.659v-.614c.2-2.557.307-5.421.409-7.875a.1.1,0,0,1,.1-.1h0s.1,0,.1.2c0,2.455-.2,5.318-.307,7.875V92.8h0l-1.432,3.273Z" transform="translate(-157.84 -8.419)" fill="#27191c"/><path d="M174.5,99.207a.1.1,0,0,1-.1-.1.317.317,0,0,1,.1-.2h5.114a.1.1,0,0,1,.1.1.317.317,0,0,1-.1.2Z" transform="translate(-158.008 -8.08)" fill="#27191c"/><path d="M175,97.6a.1.1,0,1,1,0-.2h5.318v.2Z" transform="translate(-157.997 -8.114)" fill="#27191c"/><path d="M180,98.961a.1.1,0,0,1-.1-.1V97.325a1.536,1.536,0,0,1,1.534-1.125h1.943a1.412,1.412,0,0,1,1.33,1.023s0,.2-.1.2c0,0-.2,0-.2-.1a1.016,1.016,0,0,0-1.023-.716h-1.943a1.228,1.228,0,0,0-1.227.92v1.432a.1.1,0,0,1-.1.1Z" transform="translate(-157.883 -8.141)" fill="#27191c"/><path d="M181.911,68.88a.1.1,0,0,1-.1-.1L181.4,65.3l2.455,2.045v.1a.1.1,0,0,1-.1.1h0l-1.841-1.636.307,2.659s0,.2-.1.2h0Z" transform="translate(-157.849 -8.844)" fill="#27191c"/><path d="M184.13,67.432a.1.1,0,0,1-.1-.1L182.8,61.7s0-.2.1-.2c0,0,.2,0,.2.1h0l1.227,5.625s0,.2-.1.2h-.1Z" transform="translate(-157.817 -8.931)" fill="#27191c"/><path d="M181.834,69.152h0L171.3,62.5v-.2h.2l10.534,6.648v.2h-.2Z" transform="translate(-158.078 -8.913)" fill="#27191c"/><path d="M189.09,62.647a22.573,22.573,0,0,1-5.523-.818h0a23.016,23.016,0,0,1-2.455-.818h-.1a.775.775,0,0,1-.409-.2.145.145,0,0,1,.2-.2c.2,0,.307.1.511.2h0a23.017,23.017,0,0,0,2.455.818h0a18.029,18.029,0,0,0,6.341.818s.2,0,.2.1c0,0,0,.2-.1.2H189.4Z" transform="translate(-157.868 -8.952)" fill="#27191c"/><g transform="translate(33.574 21.58)"><path d="M257.369,88.269h-63a2.594,2.594,0,0,1-1.227-.2h0A3.187,3.187,0,0,1,191.3,85.1V76.917a.1.1,0,0,1,.1-.1c.1,0,.1,0,.1.1V85.1a3.046,3.046,0,0,0,1.739,2.659h0a1.844,1.844,0,0,0,1.023.2h63a2.859,2.859,0,0,0,2.864-2.864V31.3a.1.1,0,0,1,.1-.1c.1,0,.1,0,.1.1V85.1a3.186,3.186,0,0,1-3.171,3.171Z" transform="translate(-191.198 -31.2)" fill="#27191c"/><path d="M191.3,61.471a.1.1,0,0,1-.1-.1V31.4a.1.1,0,0,1,.1-.1c.1,0,.1,0,.1.1V61.369A.1.1,0,0,1,191.3,61.471Z" transform="translate(-191.2 -31.198)" fill="#27191c"/><path d="M191.3,34.675a.1.1,0,0,1-.1-.1V31.4a.1.1,0,0,1,.1-.1c.1,0,.1,0,.1.1v3.171A.1.1,0,0,1,191.3,34.675Z" transform="translate(-191.2 -31.198)" fill="#27191c"/><path d="M258.8,34.675a.1.1,0,0,1-.1-.1V31.4a.1.1,0,0,1,.1-.1c.1,0,.1,0,.1.1v3.171A.1.1,0,0,1,258.8,34.675Z" transform="translate(-189.665 -31.198)" fill="#27191c"/><path d="M203.1,51.836a.1.1,0,0,1-.1-.1V50.3a.1.1,0,0,1,.1-.1c.1,0,.1,0,.1.1v1.432A.1.1,0,0,1,203.1,51.836Z" transform="translate(-190.932 -30.768)" fill="#27191c"/><path d="M221.923,79.992H202.9V53.5a.1.1,0,0,1,.1-.1c.1,0,.1,0,.1.1V79.685h18.409V40.1s0-.2.1-.2c0,0,.2,0,.2.1V79.992h.1Z" transform="translate(-190.934 -31.002)" fill="#27191c"/><path d="M203.1,49.821a.1.1,0,0,1-.1-.1V40s0-.1.2-.1c0,0,.1,0,.1.2v9.716a.1.1,0,0,1-.1.1Z" transform="translate(-190.932 -31.002)" fill="#27191c"/><path d="M247.623,79.994H228.6V40s0-.1.2-.1c0,0,.1,0,.1.2v39.58h18.409V40s0-.2.1-.2c0,0,.2,0,.2.1V79.892h0Z" transform="translate(-190.349 -31.004)" fill="#27191c"/></g><g transform="translate(33.472)"><g transform="translate(0.102 8.591)"><path d="M200.1,31.8h-8.9V18.5h8.9Zm-8.693-.307h8.284V18.807H191.4Z" transform="translate(-191.2 -18.5)" fill="#27191c"/><path d="M208.5,31.8h-8.9V18.5h8.9Zm-8.591-.307h8.284V18.807h-8.284Z" transform="translate(-191.009 -18.5)" fill="#27191c"/><path d="M217,31.8h-8.9V18.5H217Zm-8.693-.307h8.284V18.807H208.3Z" transform="translate(-190.816 -18.5)" fill="#27191c"/><path d="M225.4,31.8h-8.9V18.5h8.9Zm-8.591-.307h8.284V18.807h-8.284Z" transform="translate(-190.624 -18.5)" fill="#27191c"/><path d="M233.8,31.8h-8.9V18.5h8.9Zm-8.591-.307h8.284V18.807h-8.284Z" transform="translate(-190.433 -18.5)" fill="#27191c"/><path d="M242.3,31.8h-8.9V18.5h8.9Zm-8.693-.307h8.284V18.807H233.6Z" transform="translate(-190.24 -18.5)" fill="#27191c"/><path d="M250.7,31.8h-8.9V18.5h8.9Zm-8.591-.307h8.284V18.807h-8.284Z" transform="translate(-190.049 -18.5)" fill="#27191c"/></g><g transform="translate(0 21.478)"><g transform="translate(8.591)"><path d="M204,40.407a4.54,4.54,0,0,1-4.5-4.5V31.1h8.9v4.807a4.54,4.54,0,0,1-4.5,4.5Zm-4.091-8.9v4.5A4.212,4.212,0,0,0,204.1,40.2a4.147,4.147,0,0,0,4.193-4.193v-4.5h-8.387Z" transform="translate(-199.5 -31.1)" fill="#27191c"/><path d="M220.9,40.407a4.54,4.54,0,0,1-4.5-4.5V31.1h8.9v4.807a4.54,4.54,0,0,1-4.5,4.5Zm-4.091-8.9v4.5A4.212,4.212,0,0,0,221,40.2a4.147,4.147,0,0,0,4.193-4.193v-4.5h-8.387Z" transform="translate(-199.116 -31.1)" fill="#27191c"/><path d="M237.8,40.407a4.54,4.54,0,0,1-4.5-4.5V31.1h8.9v4.807a4.54,4.54,0,0,1-4.5,4.5Zm-4.193-8.9v4.5A4.212,4.212,0,0,0,237.8,40.2a4.147,4.147,0,0,0,4.193-4.193v-4.5h-8.387Z" transform="translate(-198.731 -31.1)" fill="#27191c"/><path d="M254.7,40.407a4.54,4.54,0,0,1-4.5-4.5V31.1h8.9v4.807a4.54,4.54,0,0,1-4.5,4.5Zm-4.193-8.9v4.5A4.212,4.212,0,0,0,254.7,40.2a4.147,4.147,0,0,0,4.193-4.193v-4.5h-8.387Z" transform="translate(-198.347 -31.1)" fill="#27191c"/></g><path d="M195.6,40.407a4.54,4.54,0,0,1-4.5-4.5V31.1H200v4.807a4.54,4.54,0,0,1-4.5,4.5Zm-4.193-8.9v4.5A4.212,4.212,0,0,0,195.6,40.2a4.147,4.147,0,0,0,4.193-4.193v-4.5h-8.387Z" transform="translate(-191.1 -31.1)" fill="#27191c"/><path d="M212.5,40.407a4.54,4.54,0,0,1-4.5-4.5V31.1h8.9v4.807a4.54,4.54,0,0,1-4.5,4.5Zm-4.193-8.9v4.5A4.212,4.212,0,0,0,212.5,40.2a4.147,4.147,0,0,0,4.193-4.193v-4.5h-8.387Z" transform="translate(-190.716 -31.1)" fill="#27191c"/><path d="M229.4,40.407a4.54,4.54,0,0,1-4.5-4.5V31.1h8.9v4.807a4.54,4.54,0,0,1-4.5,4.5Zm-4.193-8.9v4.5A4.212,4.212,0,0,0,229.4,40.2a4.147,4.147,0,0,0,4.193-4.193v-4.5h-8.387Z" transform="translate(-190.331 -31.1)" fill="#27191c"/><path d="M246.3,40.407a4.54,4.54,0,0,1-4.5-4.5V31.1h8.9v4.807a4.54,4.54,0,0,1-4.5,4.5Zm-4.193-8.9v4.5A4.212,4.212,0,0,0,246.3,40.2a4.147,4.147,0,0,0,4.193-4.193v-4.5h-8.387Z" transform="translate(-189.947 -31.1)" fill="#27191c"/></g><path d="M260.542,19H191.2V13.271a3.186,3.186,0,0,1,3.171-3.171h63a3.186,3.186,0,0,1,3.171,3.171ZM191.4,18.691h68.729V13.271a2.859,2.859,0,0,0-2.864-2.864h-63a2.859,2.859,0,0,0-2.864,2.864v5.421Z" transform="translate(-191.098 -10.1)" fill="#27191c"/></g><g transform="translate(4.733 31.06)"><path d="M182.3,52.467a10.756,10.756,0,0,0-1.534-5.114,6.362,6.362,0,0,1-2.659.92,5.133,5.133,0,0,0-1.227.2,3.584,3.584,0,0,1-3.068-1.125,3.58,3.58,0,0,1,.307,2.761,10.96,10.96,0,0,0-.2,2.864h-.2c-1.125-1.432-1.636-1.841-2.761-1.125v-.1h0l-.2.2a2,2,0,0,0-.2,2.455,1.809,1.809,0,0,0,1.125.716h1.33a8.434,8.434,0,0,1,1.227,3.375v.716a11.306,11.306,0,0,1-1.33-.409,6.889,6.889,0,0,1-2.25-1.943,9.38,9.38,0,0,1-1.432-7.568,3.559,3.559,0,0,1,.716-1.534,8.832,8.832,0,0,1,1.432-1.33h.1v-.511a2,2,0,0,1,.1-.716c.614-1.534,2.148-1.432,3.477-1.534a2.323,2.323,0,0,0,1.841-.92,12.659,12.659,0,0,1,1.432-1.841,2.293,2.293,0,0,1,3.171.511,1.648,1.648,0,0,1,.409.716,4.669,4.669,0,0,1-.307,4.193,12.945,12.945,0,0,1,.614,6.034Z" transform="translate(-162.864 -40.469)" fill="#27191c"/><path d="M180.43,51.514a.667.667,0,0,0-1.33.1c0,.409.307.614.716.614A.684.684,0,0,0,180.43,51.514Z" transform="translate(-162.634 -40.232)" fill="#27191c"/><path d="M175.414,50.9a.667.667,0,1,0,.716.614A.684.684,0,0,0,175.414,50.9Z" transform="translate(-162.732 -40.232)" fill="#27191c"/><path d="M192.66,75.1a39.131,39.131,0,0,1-4.6,6.648h0a38.5,38.5,0,0,1-2.864,2.966h0a20.74,20.74,0,0,1-2.352,1.841h0a19.962,19.962,0,0,1-5.523,2.761h0c-.614.2-1.33.307-1.943.511A25.783,25.783,0,0,1,163,89.009c.2-.92.307-1.943.511-2.864a14.353,14.353,0,0,0,6.648,2.557,16.986,16.986,0,0,0,7.568-.818,23.511,23.511,0,0,0,5.318-2.659c.818-.511,1.534-1.125,2.352-1.739a24.211,24.211,0,0,0,2.864-2.761,65.406,65.406,0,0,0,4.193-5.114l.409-.409Z" transform="translate(-163 -39.682)" fill="#27191c"/><path d="M187.85,64.48c-.2.2-.307.2-.409.409h0c-.1,0-.614-.614-1.227-1.023-.409-.409-.92-.716-1.125-.92a4.447,4.447,0,0,0-.716-.409l-1.227-.614L181.3,61.1h0l-.2-.2a12.617,12.617,0,0,1,1.943.716,19.042,19.042,0,0,1,5.011,3.171Z" transform="translate(-162.588 -40.005)" fill="#27191c"/></g><path d="M258.8,31.793h0a.1.1,0,0,1-.1-.1V18.7a.1.1,0,0,1,.1-.1h0a.1.1,0,0,1,.1.1V31.691a.1.1,0,0,1-.1.1Z" transform="translate(-156.09 -9.907)" fill="#27191c"/></g><g transform="translate(327.18 7.875)"><g transform="translate(0.205 0.205)"><path d="M355.235,76.769a28.535,28.535,0,1,1,28.535-28.535A28.546,28.546,0,0,1,355.235,76.769Zm0-53.49A24.955,24.955,0,1,0,380.19,48.235,24.989,24.989,0,0,0,355.235,23.28Z" transform="translate(-324.961 -17.961)" fill="#ffe59d"/><path d="M378.592,29.046a28.984,28.984,0,0,0-14.625-9.716A31.432,31.432,0,0,0,355.273,18,30.336,30.336,0,0,0,325,48.273c0,16.671,1.943,12.375,5.523,17.489a31.545,31.545,0,0,0,10.943,9.512A30.238,30.238,0,0,0,378.49,29.046ZM355.273,76.092a27.819,27.819,0,1,1,27.819-27.819A27.848,27.848,0,0,1,355.273,76.092Z" transform="translate(-325 -18)" fill="#b15815"/><path d="M355.212,20.6a27.512,27.512,0,1,0,27.512,27.512A27.52,27.52,0,0,0,355.212,20.6Zm0,53.49A25.978,25.978,0,1,1,381.19,48.112,26.015,26.015,0,0,1,355.212,74.09Z" transform="translate(-324.939 -17.941)" fill="#ffe59d"/></g><path d="M355.278,78.756A30.553,30.553,0,0,1,324.8,48.278c0-6.341,3.171-15.853,8.9-21.58a30.318,30.318,0,0,1,21.58-8.9c8.182,0,5.932.409,8.8,1.33A30.118,30.118,0,0,1,378.8,28.948a28.766,28.766,0,0,1,5.114,8.9,30.458,30.458,0,0,1-28.637,41.012Zm0-60.751A30.336,30.336,0,0,0,325,48.278c0,16.671,1.943,12.375,5.523,17.489a31.545,31.545,0,0,0,10.943,9.512,30.284,30.284,0,0,0,43.978-27c0-16.671-2.455-13.807-6.955-19.228a28.984,28.984,0,0,0-14.625-9.716A31.432,31.432,0,0,0,355.176,18Z" transform="translate(-324.8 -17.8)" fill="#241614"/><path d="M355.171,22.5a25.671,25.671,0,1,0,25.671,25.671A25.753,25.753,0,0,0,355.171,22.5Z" transform="translate(-324.693 -17.693)" fill="#b15815"/><path d="M364.637,55.141A7.826,7.826,0,0,1,362.8,60.46a8.691,8.691,0,0,1-4.7,2.455h-.1v2.25H351.75v-2.25h-.1a8.648,8.648,0,0,1-4.807-2.455A7.386,7.386,0,0,1,345,55.244V52.687h7.057V55.55c0,1.023.307,2.25,2.659,2.25s2.659-1.227,2.659-2.25a3.054,3.054,0,0,0-.614-2.045,6.226,6.226,0,0,0-1.636-1.636c-.716-.511-1.636-1.125-2.864-1.841a34.839,34.839,0,0,1-3.58-2.455,12.817,12.817,0,0,1-2.455-2.761,7.247,7.247,0,0,1-1.023-3.989,7.386,7.386,0,0,1,1.841-5.216,8.382,8.382,0,0,1,4.6-2.455h.1V30.8h6.239v2.25h.1a8.34,8.34,0,0,1,4.7,2.455,7.386,7.386,0,0,1,1.841,5.216v1.534H357.58V40.414a2.106,2.106,0,0,0-.614-1.739,2.608,2.608,0,0,0-1.943-.511,3.161,3.161,0,0,0-1.943.511,2.106,2.106,0,0,0-.614,1.739,3.456,3.456,0,0,0,.614,2.045,5,5,0,0,0,1.636,1.636c.716.511,1.636,1.125,2.864,1.841a34.84,34.84,0,0,1,3.58,2.455,15.731,15.731,0,0,1,1.33,1.227,14.64,14.64,0,0,1,1.125,1.534,7.247,7.247,0,0,1,1.023,3.989Z" transform="translate(-324.34 -17.504)" fill="#ffe59d"/></g><g transform="translate(13.197 6.136)"><g transform="translate(0.102 0.307)"><path d="M392.448,60.993h-.307v-.307a3.885,3.885,0,0,0-3.886-3.886,3.344,3.344,0,0,0-3.477,2.045,2.663,2.663,0,0,0-1.534.409,4.288,4.288,0,0,0-1.636-.409,3.828,3.828,0,0,0-3.886,3.58,4.1,4.1,0,0,0-1.534-.307A3.889,3.889,0,0,0,372.3,65.6h24.137V64.88a3.885,3.885,0,0,0-3.886-3.886Z" transform="translate(-9.838 -15.481)" fill="#fff"/><path d="M41.219,66.973a1.845,1.845,0,0,0-1.227.307c0-.307.1-.716.1-1.023a3.667,3.667,0,0,0-3.682-3.682c-2.045,0-1.227.2-1.739.409A5.5,5.5,0,0,0,29.559,59.2a5.712,5.712,0,0,0-5.318,5.318v.409h-.409a2.968,2.968,0,0,0-2.966,2.966V68.4h0A3.074,3.074,0,0,0,17.9,71.064H43.878a2.023,2.023,0,0,0,.2-1.125,2.968,2.968,0,0,0-2.966-2.966Z" transform="translate(-17.9 -15.426)" fill="#fff"/><path d="M156.8,46.118h0v-.307a1.724,1.724,0,0,0-1.739-1.739h-.2v-.2a3.077,3.077,0,0,0-3.068-3.068,2.923,2.923,0,0,0-2.966,2.148,1.728,1.728,0,0,0-1.023-.307,2.1,2.1,0,0,0-2.148,2.148V45.4c-.2,0-.409-.1-.716-.1a1.724,1.724,0,0,0-1.739,1.739c0,1.023,0,.511.1.716h14.932a1.593,1.593,0,0,0-1.636-1.534Z" transform="translate(-15.05 -15.845)" fill="#fff"/><path d="M100.364,26.218a3.267,3.267,0,0,0,.307-1.432A3.775,3.775,0,0,0,96.887,21h-.511a5.934,5.934,0,0,0-5.83-4.6,5.654,5.654,0,0,0-5.523,3.682,4.24,4.24,0,0,0-1.636-.307A3.775,3.775,0,0,0,79.6,23.559v.511h-.818A3.775,3.775,0,0,0,75,27.855v.511h27.205a3.631,3.631,0,0,0-1.841-2.045Z" transform="translate(-16.601 -16.4)" fill="#fff"/><path d="M297.844,18.83a5.742,5.742,0,0,0-3.171.92,4.349,4.349,0,0,0-3.886-2.25,4.776,4.776,0,0,0-4.3,3.375,5.621,5.621,0,0,0-10.33,2.864,4.9,4.9,0,0,0-2.761,4.4v.409h29.148a5.913,5.913,0,0,0,1.227-3.682,5.981,5.981,0,0,0-6.034-6.034Z" transform="translate(-12.088 -16.375)" fill="#fff"/></g><path d="M396.441,65.707H372.1v-.2a4.109,4.109,0,0,1,4.091-3.682c2.148,0,.92,0,1.432.2a4.15,4.15,0,0,1,3.989-3.58c1.943,0,1.125.1,1.636.307a3.609,3.609,0,0,1,1.432-.307,4.114,4.114,0,0,1,7.671,2.045v.2h.1a4.1,4.1,0,0,1,4.091,4.091V65.5h0ZM372.407,65.4h23.83v-.511a3.843,3.843,0,0,0-3.784-3.784h-.511v-.511a3.843,3.843,0,0,0-3.784-3.784c-2.045,0-2.659.716-3.273,1.943h0a4.1,4.1,0,0,0-1.534.307h0a4.24,4.24,0,0,0-1.636-.307,3.866,3.866,0,0,0-3.784,3.477v.2h-.2a3.609,3.609,0,0,0-1.432-.307,3.657,3.657,0,0,0-3.682,3.171Z" transform="translate(-9.74 -15.183)" fill="#27191c"/><path d="M43.982,71.175H17.8v-.2a3.178,3.178,0,0,1,2.966-2.864V67.7a3.077,3.077,0,0,1,3.068-3.068h.2v-.307A5.5,5.5,0,0,1,29.562,58.8a4.929,4.929,0,0,1,5.216,3.682,4.814,4.814,0,0,1,1.636-.409A3.885,3.885,0,0,1,40.3,65.959v.818a3.026,3.026,0,0,1,1.023-.2,3.077,3.077,0,0,1,3.068,3.068c0,1.636,0,.818-.2,1.227h0Zm-25.876-.2H43.778a3.026,3.026,0,0,0,.2-1.023,2.75,2.75,0,0,0-2.761-2.761c-1.534,0-.818,0-1.125.2h-.307v-.2c0-.307.1-.614.1-1.023a3.624,3.624,0,0,0-3.58-3.58c-1.943,0-1.125.1-1.739.409h-.2a5.155,5.155,0,0,0-5.011-3.682,5.6,5.6,0,0,0-5.216,5.216v.614h-.614A2.75,2.75,0,0,0,20.766,67.9v.716h-.2A2.765,2.765,0,0,0,17.8,70.971Z" transform="translate(-17.8 -15.129)" fill="#27191c"/><path d="M158.641,47.859H143.4c0-.307-.1-.614-.1-.818a1.833,1.833,0,0,1,1.841-1.841h.511v-.307a2.27,2.27,0,0,1,2.25-2.25c1.227,0,.614,0,.92.2a3.337,3.337,0,0,1,3.068-2.148,3.514,3.514,0,0,1,3.273,3.273h0A1.833,1.833,0,0,1,157,45.814v.1a1.86,1.86,0,0,1,1.739,1.636v.2Zm-15.034-.307h14.728a1.542,1.542,0,0,0-1.534-1.227h-.2v-.511a1.573,1.573,0,0,0-1.534-1.534h-.409v-.409a2.968,2.968,0,0,0-2.966-2.966,2.539,2.539,0,0,0-2.761,2.045v.2h-.2a1.52,1.52,0,0,0-.92-.2,1.942,1.942,0,0,0-1.943,1.943v.818l-.2-.1c-.2,0-.409-.1-.614-.1a1.573,1.573,0,0,0-1.534,1.534v.511Z" transform="translate(-14.945 -15.54)" fill="#27191c"/><path d="M102.512,28.475H75v-.614a3.994,3.994,0,0,1,3.989-3.989H79.6v-.409a3.994,3.994,0,0,1,3.989-3.989c2.25,0,1.023,0,1.534.307A6.149,6.149,0,0,1,90.75,16.1c2.455,0,2.761.511,3.784,1.33A5.818,5.818,0,0,1,96.58,20.7h.409a3.994,3.994,0,0,1,3.989,3.989c0,2.25,0,.92-.2,1.33a4.477,4.477,0,0,1,1.841,2.045v.2ZM75.2,28.168H102a2.922,2.922,0,0,0-1.739-1.739h-.1v-.2a3.149,3.149,0,0,0,.307-1.33,3.667,3.667,0,0,0-3.682-3.682h-.614v-.1a5.786,5.786,0,0,0-5.625-4.5,5.4,5.4,0,0,0-5.318,3.58h0c0,.1-.1,0-.1,0a4.1,4.1,0,0,0-1.534-.307,3.667,3.667,0,0,0-3.682,3.682v.716h-.92a3.667,3.667,0,0,0-3.682,3.682v.307Z" transform="translate(-16.499 -16.1)" fill="#27191c"/><path d="M302.653,28.755H273.3v-.614a4.876,4.876,0,0,1,2.761-4.5,5.7,5.7,0,0,1,1.739-3.886,6.028,6.028,0,0,1,3.989-1.636,6.754,6.754,0,0,1,4.7,2.352,4.61,4.61,0,0,1,4.3-3.171,4.061,4.061,0,0,1,3.886,2.25,6.643,6.643,0,0,1,3.171-.818,6.155,6.155,0,0,1,6.136,6.136c0,3.375-.409,2.659-1.33,3.784h0ZM273.5,28.448h28.944a5.628,5.628,0,0,0,1.227-3.58,5.827,5.827,0,0,0-5.83-5.83c-3.171,0-2.148.307-3.068.92h-.1a4.173,4.173,0,0,0-3.682-2.148,4.529,4.529,0,0,0-4.091,3.273v.307l-.307-.307a5.4,5.4,0,0,0-4.6-2.557,5.526,5.526,0,0,0-5.523,5.318h0v.1a4.771,4.771,0,0,0-2.659,4.3v.307Z" transform="translate(-11.988 -16.073)" fill="#27191c"/></g><g transform="translate(26.799 26.898)"><g transform="translate(0.205 0.102)"><rect width="79.672" height="92.456" transform="translate(20.66 17.284)" fill="#fff"/><g transform="translate(25.16 90.411)"><rect width="70.263" height="1.227" fill="#d2f5f4"/><rect width="70.263" height="1.227" transform="translate(0 11.659)" fill="#d2f5f4"/><rect width="70.263" height="1.227" transform="translate(0 5.83)" fill="#d2f5f4"/></g><g transform="translate(30.273 28.739)"><path d="M60.9,102.1v19.432h7.466V97.8H60.9Z" transform="translate(-60.9 -63.845)" fill="#d2f5f4"/><path d="M70.3,97.9v23.728h7.466V93.6H70.3Z" transform="translate(-60.686 -63.94)" fill="#d2f5f4"/><path d="M79.7,93.7v28.023h7.466V89.4H79.7Z" transform="translate(-60.472 -64.036)" fill="#d2f5f4"/><path d="M89.1,89.5v32.319h7.466V85.2H89.1Z" transform="translate(-60.259 -64.131)" fill="#d2f5f4"/><path d="M98.5,82.1v39.887h7.466V77.4H98.5Z" transform="translate(-60.045 -64.309)" fill="#d2f5f4"/><path d="M107.9,76.9V122.11h7.466V72.2H107.9Z" transform="translate(-59.831 -64.427)" fill="#d2f5f4"/><path d="M117.3,64.6v57.683h7.466V64.6Z" transform="translate(-59.617 -64.6)" fill="#d2f5f4"/></g><path d="M95.222,73.933a153.931,153.931,0,0,0,26.8-26.694L125.7,49.8l1.023-13.3-11.966,5.727,3.58,2.455c-16.159,21.069-38.558,35.8-54.615,44.49a224.818,224.818,0,0,1-23.012,10.841c-5.727,2.352-9.307,3.477-9.409,3.477h0l.614,2.045.716,2.148c.1,0,3.784-1.227,9.614-3.58A212.627,212.627,0,0,0,65.664,93.058,213.157,213.157,0,0,0,95.222,73.83Z" transform="translate(-31.3 -36.5)" fill="#178d89"/></g><g transform="translate(20.66 17.182)"><path d="M51.3,94.928V53.2h59.217l-.2.2C94.971,70.075,76.255,81.837,63.368,88.792h0c-3.784,2.045-7.773,4.091-11.762,5.932h-.2Zm.307-41.319v40.91c3.886-1.841,7.773-3.784,11.557-5.83h0c12.887-6.955,31.4-18.614,46.637-35.08H51.607ZM63.164,88.792Z" transform="translate(-51.3 -53.2)" fill="#27191c"/><path d="M131.279,146.063H51.3V99.528h0c4.7-2.148,9.307-4.5,13.807-6.852A213.157,213.157,0,0,0,94.665,73.448,161.508,161.508,0,0,0,116.04,53.3h15.239v92.763Zm-79.672-.307h79.365V53.607h-14.83A155.41,155.41,0,0,1,94.767,73.755,207.226,207.226,0,0,1,65.209,92.983c-4.4,2.352-9,4.7-13.7,6.852v46.024h0Z" transform="translate(-51.3 -53.198)" fill="#27191c"/></g><g transform="translate(30.376 28.739)"><path d="M68.573,121.735H60.8V97.7h7.773Zm-7.466-.307h7.159V98.007H61.107Z" transform="translate(-60.8 -63.745)" fill="#27191c"/><path d="M77.973,121.83H70.2V93.5h7.773v28.33Zm-7.466-.307h7.159V93.807H70.507Z" transform="translate(-60.586 -63.84)" fill="#27191c"/><path d="M87.373,121.926H79.6V89.3h7.773Zm-7.568-.307h7.159V89.607H79.8v32.012h0Z" transform="translate(-60.372 -63.936)" fill="#27191c"/><path d="M96.773,122.021H89V85.1h7.773Zm-7.568-.307h7.159V85.407H89.2Z" transform="translate(-60.159 -64.031)" fill="#27191c"/><path d="M106.173,122.2H98.4V77.3h7.773Zm-7.568-.307h7.159V77.607H98.6v44.285Z" transform="translate(-59.945 -64.209)" fill="#27191c"/><path d="M115.573,122.317H107.8V72.1h7.773ZM108,122.01h7.159v-49.6H108Z" transform="translate(-59.731 -64.327)" fill="#27191c"/><path d="M124.873,122.49H117.1V64.5h7.773Zm-7.466-.307h7.159V64.807h-7.159Z" transform="translate(-59.519 -64.5)" fill="#27191c"/></g><path d="M32.532,106.589l-1.432-4.6h.2c.614-.2,4.091-1.33,9.307-3.477,3.682-1.432,7.466-3.171,11.25-4.909h.2v.2c-3.784,1.739-7.568,3.375-11.25,4.909a86.149,86.149,0,0,1-9.307,3.375l1.227,3.989c.716-.2,4.193-1.33,9.512-3.477,3.171-1.227,6.443-2.659,9.716-4.193h.2v.2c-3.273,1.534-6.546,2.864-9.716,4.193-6.034,2.455-9.614,3.58-9.614,3.58h-.1Z" transform="translate(-31.1 -35.099)" fill="#27191c"/><path d="M114.83,53.991h0v-.2c1.841-2.148,3.682-4.4,5.421-6.546h0c0-.1,3.58,2.352,3.58,2.352l1.023-12.784L113.3,42.332l3.58,2.455h0c-.2.409-.511.716-.716,1.125-2.148,2.761-4.5,5.523-6.955,8.182H109v-.2c2.455-2.659,4.807-5.421,6.955-8.182.2-.307.409-.511.614-.818l-3.682-2.557L125.364,36.4l-1.125,13.807-3.784-2.557c-1.636,2.148-3.477,4.4-5.318,6.546h-.1Z" transform="translate(-29.328 -36.4)" fill="#27191c"/></g></g></g></svg>