<svg xmlns="http://www.w3.org/2000/svg" width="84.696" height="81.342" viewBox="0 0 84.696 81.342"><g transform="translate(-810.304 -1101.514)"><g transform="translate(0 -312.637)"><g transform="translate(810.304 1414.15)"><path d="M32.829,61.313A32.866,32.866,0,0,0,0,28.484V0A61.382,61.382,0,0,1,61.313,61.313Z" transform="translate(23.383 20.029)" fill="#22cac5"/><path d="M40.671,0A40.671,40.671,0,1,1,0,40.671,40.671,40.671,0,0,1,40.671,0Z" transform="translate(0)" fill="#31313c" opacity="0.444" style="mix-blend-mode:multiply;isolation:isolate"/><g transform="translate(15.879 16.813)"><path d="M415.319,50.752a.553.553,0,1,1-.553-.528A.541.541,0,0,1,415.319,50.752Z" transform="translate(-414.214 -50.224)" fill="#fff"/><path d="M423.765,50.752a.553.553,0,1,1-.552-.528A.54.54,0,0,1,423.765,50.752Z" transform="translate(-417.69 -50.224)" fill="#fff"/><path d="M432.21,50.752a.553.553,0,1,1-.552-.528A.54.54,0,0,1,432.21,50.752Z" transform="translate(-421.166 -50.224)" fill="#fff"/><path d="M440.658,50.752a.553.553,0,1,1-.553-.528A.541.541,0,0,1,440.658,50.752Z" transform="translate(-424.642 -50.224)" fill="#fff"/><path d="M449.1,50.752a.553.553,0,1,1-.552-.528A.541.541,0,0,1,449.1,50.752Z" transform="translate(-428.118 -50.224)" fill="#fff"/><path d="M457.55,50.752a.553.553,0,1,1-.552-.528A.541.541,0,0,1,457.55,50.752Z" transform="translate(-431.594 -50.224)" fill="#fff"/><path d="M466,50.752a.553.553,0,1,1-.553-.528A.541.541,0,0,1,466,50.752Z" transform="translate(-435.07 -50.224)" fill="#fff"/><path d="M474.443,50.752a.553.553,0,1,1-.552-.528A.54.54,0,0,1,474.443,50.752Z" transform="translate(-438.546 -50.224)" fill="#fff"/><path d="M482.888,50.752a.553.553,0,1,1-.552-.528A.541.541,0,0,1,482.888,50.752Z" transform="translate(-442.022 -50.224)" fill="#fff"/><path d="M491.335,50.752a.553.553,0,1,1-.552-.528A.541.541,0,0,1,491.335,50.752Z" transform="translate(-445.498 -50.224)" fill="#fff"/><path d="M499.782,50.752a.553.553,0,1,1-.553-.528A.541.541,0,0,1,499.782,50.752Z" transform="translate(-448.974 -50.224)" fill="#fff"/><g transform="translate(0 4.225)"><path d="M415.319,58.26a.553.553,0,1,1-.553-.528A.541.541,0,0,1,415.319,58.26Z" transform="translate(-414.214 -57.732)" fill="#fff"/><path d="M423.765,58.26a.553.553,0,1,1-.552-.528A.54.54,0,0,1,423.765,58.26Z" transform="translate(-417.69 -57.732)" fill="#fff"/><path d="M432.21,58.26a.553.553,0,1,1-.552-.528A.54.54,0,0,1,432.21,58.26Z" transform="translate(-421.166 -57.732)" fill="#fff"/><path d="M440.658,58.26a.553.553,0,1,1-.553-.528A.541.541,0,0,1,440.658,58.26Z" transform="translate(-424.642 -57.732)" fill="#fff"/><path d="M449.1,58.26a.553.553,0,1,1-.552-.528A.54.54,0,0,1,449.1,58.26Z" transform="translate(-428.118 -57.732)" fill="#fff"/><path d="M457.55,58.26a.553.553,0,1,1-.552-.528A.54.54,0,0,1,457.55,58.26Z" transform="translate(-431.594 -57.732)" fill="#fff"/><path d="M466,58.26a.553.553,0,1,1-.553-.528A.541.541,0,0,1,466,58.26Z" transform="translate(-435.07 -57.732)" fill="#fff"/><path d="M474.443,58.26a.553.553,0,1,1-.552-.528A.54.54,0,0,1,474.443,58.26Z" transform="translate(-438.546 -57.732)" fill="#fff"/><path d="M482.888,58.26a.553.553,0,1,1-.552-.528A.541.541,0,0,1,482.888,58.26Z" transform="translate(-442.022 -57.732)" fill="#fff"/><path d="M491.335,58.26a.553.553,0,1,1-.552-.528A.541.541,0,0,1,491.335,58.26Z" transform="translate(-445.498 -57.732)" fill="#fff"/><path d="M499.782,58.26a.553.553,0,1,1-.553-.528A.541.541,0,0,1,499.782,58.26Z" transform="translate(-448.974 -57.732)" fill="#fff"/></g><g transform="translate(0 8.45)"><ellipse cx="0.552" cy="0.528" rx="0.552" ry="0.528" fill="#fff"/><path d="M423.765,65.768a.553.553,0,1,1-.552-.528A.541.541,0,0,1,423.765,65.768Z" transform="translate(-417.69 -65.24)" fill="#fff"/><ellipse cx="0.552" cy="0.528" rx="0.552" ry="0.528" transform="translate(9.941)" fill="#fff"/><path d="M440.658,65.768a.553.553,0,1,1-.553-.528A.541.541,0,0,1,440.658,65.768Z" transform="translate(-424.642 -65.24)" fill="#fff"/><path d="M449.1,65.768a.553.553,0,1,1-.552-.528A.541.541,0,0,1,449.1,65.768Z" transform="translate(-428.118 -65.24)" fill="#fff"/><ellipse cx="0.552" cy="0.528" rx="0.552" ry="0.528" transform="translate(24.852)" fill="#fff"/><path d="M466,65.768a.553.553,0,1,1-.553-.528A.541.541,0,0,1,466,65.768Z" transform="translate(-435.07 -65.24)" fill="#fff"/><ellipse cx="0.552" cy="0.528" rx="0.552" ry="0.528" transform="translate(34.792)" fill="#fff"/><ellipse cx="0.552" cy="0.528" rx="0.552" ry="0.528" transform="translate(39.763)" fill="#fff"/><path d="M491.335,65.768a.553.553,0,1,1-.552-.528A.541.541,0,0,1,491.335,65.768Z" transform="translate(-445.498 -65.24)" fill="#fff"/><path d="M499.782,65.768a.553.553,0,1,1-.553-.528A.541.541,0,0,1,499.782,65.768Z" transform="translate(-448.974 -65.24)" fill="#fff"/></g><g transform="translate(0 12.675)"><ellipse cx="0.552" cy="0.528" rx="0.552" ry="0.528" transform="translate(0 0)" fill="#fff"/><path d="M423.765,73.275a.553.553,0,1,1-.552-.528A.54.54,0,0,1,423.765,73.275Z" transform="translate(-417.69 -72.747)" fill="#fff"/><ellipse cx="0.552" cy="0.528" rx="0.552" ry="0.528" transform="translate(9.941 0)" fill="#fff"/><path d="M440.658,73.275a.553.553,0,1,1-.553-.528A.541.541,0,0,1,440.658,73.275Z" transform="translate(-424.642 -72.747)" fill="#fff"/><path d="M449.1,73.275a.553.553,0,1,1-.552-.528A.54.54,0,0,1,449.1,73.275Z" transform="translate(-428.118 -72.747)" fill="#fff"/><ellipse cx="0.552" cy="0.528" rx="0.552" ry="0.528" transform="translate(24.852 0)" fill="#fff"/><path d="M466,73.275a.553.553,0,1,1-.553-.528A.541.541,0,0,1,466,73.275Z" transform="translate(-435.07 -72.747)" fill="#fff"/><ellipse cx="0.552" cy="0.528" rx="0.552" ry="0.528" transform="translate(34.792 0)" fill="#fff"/><ellipse cx="0.552" cy="0.528" rx="0.552" ry="0.528" transform="translate(39.763 0)" fill="#fff"/><path d="M491.335,73.275a.553.553,0,1,1-.552-.528A.541.541,0,0,1,491.335,73.275Z" transform="translate(-445.498 -72.747)" fill="#fff"/><path d="M499.782,73.275a.553.553,0,1,1-.553-.528A.541.541,0,0,1,499.782,73.275Z" transform="translate(-448.974 -72.747)" fill="#fff"/></g><g transform="translate(0 16.9)"><path d="M415.319,80.783a.553.553,0,1,1-.553-.528A.541.541,0,0,1,415.319,80.783Z" transform="translate(-414.214 -80.255)" fill="#fff"/><path d="M423.765,80.783a.553.553,0,1,1-.552-.528A.54.54,0,0,1,423.765,80.783Z" transform="translate(-417.69 -80.255)" fill="#fff"/><path d="M432.21,80.783a.553.553,0,1,1-.552-.528A.54.54,0,0,1,432.21,80.783Z" transform="translate(-421.166 -80.255)" fill="#fff"/><path d="M440.658,80.783a.553.553,0,1,1-.553-.528A.541.541,0,0,1,440.658,80.783Z" transform="translate(-424.642 -80.255)" fill="#fff"/><path d="M449.1,80.783a.553.553,0,1,1-.552-.528A.54.54,0,0,1,449.1,80.783Z" transform="translate(-428.118 -80.255)" fill="#fff"/><path d="M457.55,80.783a.553.553,0,1,1-.552-.528A.54.54,0,0,1,457.55,80.783Z" transform="translate(-431.594 -80.255)" fill="#fff"/><path d="M466,80.783a.553.553,0,1,1-.553-.528A.541.541,0,0,1,466,80.783Z" transform="translate(-435.07 -80.255)" fill="#fff"/><path d="M474.443,80.783a.553.553,0,1,1-.552-.528A.54.54,0,0,1,474.443,80.783Z" transform="translate(-438.546 -80.255)" fill="#fff"/><path d="M482.888,80.783a.553.553,0,1,1-.552-.528A.54.54,0,0,1,482.888,80.783Z" transform="translate(-442.022 -80.255)" fill="#fff"/><path d="M491.335,80.783a.553.553,0,1,1-.552-.528A.541.541,0,0,1,491.335,80.783Z" transform="translate(-445.498 -80.255)" fill="#fff"/><path d="M499.782,80.783a.553.553,0,1,1-.553-.528A.541.541,0,0,1,499.782,80.783Z" transform="translate(-448.974 -80.255)" fill="#fff"/></g><g transform="translate(0 21.125)"><ellipse cx="0.552" cy="0.528" rx="0.552" ry="0.528" transform="translate(0 0)" fill="#fff"/><path d="M423.765,88.291a.553.553,0,1,1-.552-.528A.54.54,0,0,1,423.765,88.291Z" transform="translate(-417.69 -87.763)" fill="#fff"/><ellipse cx="0.552" cy="0.528" rx="0.552" ry="0.528" transform="translate(9.941 0)" fill="#fff"/><path d="M440.658,88.291a.553.553,0,1,1-.553-.528A.541.541,0,0,1,440.658,88.291Z" transform="translate(-424.642 -87.763)" fill="#fff"/><path d="M449.1,88.291a.553.553,0,1,1-.552-.528A.54.54,0,0,1,449.1,88.291Z" transform="translate(-428.118 -87.763)" fill="#fff"/><ellipse cx="0.552" cy="0.528" rx="0.552" ry="0.528" transform="translate(24.852 0)" fill="#fff"/><path d="M466,88.291a.553.553,0,1,1-.553-.528A.541.541,0,0,1,466,88.291Z" transform="translate(-435.07 -87.763)" fill="#fff"/><ellipse cx="0.552" cy="0.528" rx="0.552" ry="0.528" transform="translate(34.792 0)" fill="#fff"/><ellipse cx="0.552" cy="0.528" rx="0.552" ry="0.528" transform="translate(39.763 0)" fill="#fff"/><path d="M491.335,88.291a.553.553,0,1,1-.552-.528A.541.541,0,0,1,491.335,88.291Z" transform="translate(-445.498 -87.763)" fill="#fff"/><path d="M499.782,88.291a.553.553,0,1,1-.553-.528A.541.541,0,0,1,499.782,88.291Z" transform="translate(-448.974 -87.763)" fill="#fff"/></g><g transform="translate(0 25.35)"><ellipse cx="0.552" cy="0.528" rx="0.552" ry="0.528" fill="#fff"/><path d="M423.765,95.8a.553.553,0,1,1-.552-.528A.54.54,0,0,1,423.765,95.8Z" transform="translate(-417.69 -95.271)" fill="#fff"/><ellipse cx="0.552" cy="0.528" rx="0.552" ry="0.528" transform="translate(9.941)" fill="#fff"/><path d="M440.658,95.8a.553.553,0,1,1-.553-.528A.541.541,0,0,1,440.658,95.8Z" transform="translate(-424.642 -95.271)" fill="#fff"/><path d="M449.1,95.8a.553.553,0,1,1-.552-.528A.541.541,0,0,1,449.1,95.8Z" transform="translate(-428.118 -95.271)" fill="#fff"/><ellipse cx="0.552" cy="0.528" rx="0.552" ry="0.528" transform="translate(24.852)" fill="#fff"/><path d="M466,95.8a.553.553,0,1,1-.553-.528A.541.541,0,0,1,466,95.8Z" transform="translate(-435.07 -95.271)" fill="#fff"/><ellipse cx="0.552" cy="0.528" rx="0.552" ry="0.528" transform="translate(34.792)" fill="#fff"/><ellipse cx="0.552" cy="0.528" rx="0.552" ry="0.528" transform="translate(39.763)" fill="#fff"/><path d="M491.335,95.8a.553.553,0,1,1-.552-.528A.541.541,0,0,1,491.335,95.8Z" transform="translate(-445.498 -95.271)" fill="#fff"/><path d="M499.782,95.8a.553.553,0,1,1-.553-.528A.541.541,0,0,1,499.782,95.8Z" transform="translate(-448.974 -95.271)" fill="#fff"/></g><g transform="translate(0 29.576)"><path d="M415.319,103.307a.553.553,0,1,1-.553-.528A.541.541,0,0,1,415.319,103.307Z" transform="translate(-414.214 -102.779)" fill="#fff"/><path d="M423.765,103.307a.553.553,0,1,1-.552-.528A.54.54,0,0,1,423.765,103.307Z" transform="translate(-417.69 -102.779)" fill="#fff"/><path d="M432.21,103.307a.553.553,0,1,1-.552-.528A.54.54,0,0,1,432.21,103.307Z" transform="translate(-421.166 -102.779)" fill="#fff"/><path d="M440.658,103.307a.553.553,0,1,1-.553-.528A.541.541,0,0,1,440.658,103.307Z" transform="translate(-424.642 -102.779)" fill="#fff"/><path d="M449.1,103.307a.553.553,0,1,1-.552-.528A.541.541,0,0,1,449.1,103.307Z" transform="translate(-428.118 -102.779)" fill="#fff"/><path d="M457.55,103.307a.553.553,0,1,1-.552-.528A.541.541,0,0,1,457.55,103.307Z" transform="translate(-431.594 -102.779)" fill="#fff"/><path d="M466,103.307a.553.553,0,1,1-.553-.528A.541.541,0,0,1,466,103.307Z" transform="translate(-435.07 -102.779)" fill="#fff"/><path d="M474.443,103.307a.553.553,0,1,1-.552-.528A.54.54,0,0,1,474.443,103.307Z" transform="translate(-438.546 -102.779)" fill="#fff"/><path d="M482.888,103.307a.553.553,0,1,1-.552-.528A.541.541,0,0,1,482.888,103.307Z" transform="translate(-442.022 -102.779)" fill="#fff"/><path d="M491.335,103.307a.553.553,0,1,1-.552-.528A.541.541,0,0,1,491.335,103.307Z" transform="translate(-445.498 -102.779)" fill="#fff"/><path d="M499.782,103.307a.553.553,0,1,1-.553-.528A.541.541,0,0,1,499.782,103.307Z" transform="translate(-448.974 -102.779)" fill="#fff"/></g><g transform="translate(0 33.801)"><ellipse cx="0.552" cy="0.528" rx="0.552" ry="0.528" fill="#fff"/><path d="M423.765,110.815a.553.553,0,1,1-.552-.528A.541.541,0,0,1,423.765,110.815Z" transform="translate(-417.69 -110.287)" fill="#fff"/><ellipse cx="0.552" cy="0.528" rx="0.552" ry="0.528" transform="translate(9.941)" fill="#fff"/><path d="M440.658,110.815a.553.553,0,1,1-.553-.528A.541.541,0,0,1,440.658,110.815Z" transform="translate(-424.642 -110.287)" fill="#fff"/><path d="M449.1,110.815a.553.553,0,1,1-.552-.528A.541.541,0,0,1,449.1,110.815Z" transform="translate(-428.118 -110.287)" fill="#fff"/><ellipse cx="0.552" cy="0.528" rx="0.552" ry="0.528" transform="translate(24.852)" fill="#fff"/><path d="M466,110.815a.553.553,0,1,1-.553-.528A.541.541,0,0,1,466,110.815Z" transform="translate(-435.07 -110.287)" fill="#fff"/><ellipse cx="0.552" cy="0.528" rx="0.552" ry="0.528" transform="translate(34.792)" fill="#fff"/><ellipse cx="0.552" cy="0.528" rx="0.552" ry="0.528" transform="translate(39.763)" fill="#fff"/><path d="M491.335,110.815a.553.553,0,1,1-.552-.528A.541.541,0,0,1,491.335,110.815Z" transform="translate(-445.498 -110.287)" fill="#fff"/><path d="M499.782,110.815a.553.553,0,1,1-.553-.528A.541.541,0,0,1,499.782,110.815Z" transform="translate(-448.974 -110.287)" fill="#fff"/></g><g transform="translate(0 38.025)"><path d="M415.319,118.322a.553.553,0,1,1-.553-.528A.541.541,0,0,1,415.319,118.322Z" transform="translate(-414.214 -117.794)" fill="#fff"/><path d="M423.765,118.322a.553.553,0,1,1-.552-.528A.541.541,0,0,1,423.765,118.322Z" transform="translate(-417.69 -117.794)" fill="#fff"/><path d="M432.21,118.322a.553.553,0,1,1-.552-.528A.541.541,0,0,1,432.21,118.322Z" transform="translate(-421.166 -117.794)" fill="#fff"/><path d="M440.658,118.322a.553.553,0,1,1-.553-.528A.541.541,0,0,1,440.658,118.322Z" transform="translate(-424.642 -117.794)" fill="#fff"/><path d="M449.1,118.322a.553.553,0,1,1-.552-.528A.541.541,0,0,1,449.1,118.322Z" transform="translate(-428.118 -117.794)" fill="#fff"/><path d="M457.55,118.322a.553.553,0,1,1-.552-.528A.541.541,0,0,1,457.55,118.322Z" transform="translate(-431.594 -117.794)" fill="#fff"/><path d="M466,118.322a.553.553,0,1,1-.553-.528A.541.541,0,0,1,466,118.322Z" transform="translate(-435.07 -117.794)" fill="#fff"/><path d="M474.443,118.322a.553.553,0,1,1-.552-.528A.541.541,0,0,1,474.443,118.322Z" transform="translate(-438.546 -117.794)" fill="#fff"/><path d="M482.888,118.322a.553.553,0,1,1-.552-.528A.541.541,0,0,1,482.888,118.322Z" transform="translate(-442.022 -117.794)" fill="#fff"/><path d="M491.335,118.322a.553.553,0,1,1-.552-.528A.541.541,0,0,1,491.335,118.322Z" transform="translate(-445.498 -117.794)" fill="#fff"/><path d="M499.782,118.322a.553.553,0,1,1-.553-.528A.541.541,0,0,1,499.782,118.322Z" transform="translate(-448.974 -117.794)" fill="#fff"/></g><g transform="translate(0 42.251)"><ellipse cx="0.552" cy="0.528" rx="0.552" ry="0.528" transform="translate(0 0)" fill="#fff"/><path d="M423.765,125.83a.553.553,0,1,1-.552-.528A.54.54,0,0,1,423.765,125.83Z" transform="translate(-417.69 -125.302)" fill="#fff"/><ellipse cx="0.552" cy="0.528" rx="0.552" ry="0.528" transform="translate(9.941 0)" fill="#fff"/><path d="M440.658,125.83a.553.553,0,1,1-.553-.528A.541.541,0,0,1,440.658,125.83Z" transform="translate(-424.642 -125.302)" fill="#fff"/><path d="M449.1,125.83a.553.553,0,1,1-.552-.528A.54.54,0,0,1,449.1,125.83Z" transform="translate(-428.118 -125.302)" fill="#fff"/><ellipse cx="0.552" cy="0.528" rx="0.552" ry="0.528" transform="translate(24.852 0)" fill="#fff"/><path d="M466,125.83a.553.553,0,1,1-.553-.528A.541.541,0,0,1,466,125.83Z" transform="translate(-435.07 -125.302)" fill="#fff"/><ellipse cx="0.552" cy="0.528" rx="0.552" ry="0.528" transform="translate(34.792 0)" fill="#fff"/><ellipse cx="0.552" cy="0.528" rx="0.552" ry="0.528" transform="translate(39.763 0)" fill="#fff"/><path d="M491.335,125.83a.553.553,0,1,1-.552-.528A.541.541,0,0,1,491.335,125.83Z" transform="translate(-445.498 -125.302)" fill="#fff"/><path d="M499.782,125.83a.553.553,0,1,1-.553-.528A.541.541,0,0,1,499.782,125.83Z" transform="translate(-448.974 -125.302)" fill="#fff"/></g><g transform="translate(0 46.476)"><ellipse cx="0.552" cy="0.528" rx="0.552" ry="0.528" transform="translate(0 0)" fill="#fff"/><path d="M423.765,133.338a.553.553,0,1,1-.552-.528A.54.54,0,0,1,423.765,133.338Z" transform="translate(-417.69 -132.81)" fill="#fff"/><ellipse cx="0.552" cy="0.528" rx="0.552" ry="0.528" transform="translate(9.941 0)" fill="#fff"/><path d="M440.658,133.338a.553.553,0,1,1-.553-.528A.541.541,0,0,1,440.658,133.338Z" transform="translate(-424.642 -132.81)" fill="#fff"/><path d="M449.1,133.338a.553.553,0,1,1-.552-.528A.54.54,0,0,1,449.1,133.338Z" transform="translate(-428.118 -132.81)" fill="#fff"/><ellipse cx="0.552" cy="0.528" rx="0.552" ry="0.528" transform="translate(24.852 0)" fill="#fff"/><path d="M466,133.338a.553.553,0,1,1-.553-.528A.541.541,0,0,1,466,133.338Z" transform="translate(-435.07 -132.81)" fill="#fff"/><ellipse cx="0.552" cy="0.528" rx="0.552" ry="0.528" transform="translate(34.792 0)" fill="#fff"/><ellipse cx="0.552" cy="0.528" rx="0.552" ry="0.528" transform="translate(39.763 0)" fill="#fff"/><path d="M491.335,133.338a.553.553,0,1,1-.552-.528A.541.541,0,0,1,491.335,133.338Z" transform="translate(-445.498 -132.81)" fill="#fff"/><path d="M499.782,133.338a.553.553,0,1,1-.553-.528A.541.541,0,0,1,499.782,133.338Z" transform="translate(-448.974 -132.81)" fill="#fff"/></g></g></g></g><g transform="translate(806.012 1113.721)"><g transform="translate(22.323 0)"><g transform="translate(12.66 5.029)"><path d="M101.716,22.615H80.349a1.094,1.094,0,0,0-1.094,1.094v4.243H96.379l5.938,5.938V66.816h4.243a1.094,1.094,0,0,0,1.094-1.094V28.553Z" transform="translate(-79.255 -22.615)" fill="#22cac5"/></g><g transform="translate(7.323 10.366)"><path d="M77.716,46.615H56.349a1.094,1.094,0,0,0-1.094,1.094V71.168h1.4a.622.622,0,0,1,.622.622V86.448H55.255v3.274a1.094,1.094,0,0,0,1.094,1.094H82.56a1.094,1.094,0,0,0,1.094-1.094V52.553Z" transform="translate(-55.255 -46.615)" fill="#edf4fc"/></g><g transform="translate(1.277 43.768)"><path d="M32.1,203.255H28.067v-5.809a.622.622,0,0,1,.622-.622H32.1Z" transform="translate(-28.067 -196.824)" fill="#70d6f9"/></g><g transform="translate(5.312 34.919)"><path d="M50.247,172.309H46.212V157.651a.622.622,0,0,1,.622-.622h2.791a.622.622,0,0,1,.622.622v14.658Z" transform="translate(-46.212 -157.029)" fill="#87d147"/></g><g transform="translate(9.347 43.768)"><path d="M64.357,196.824h4.035v6.431H64.357Z" transform="translate(-64.357 -196.824)" fill="#f5c84c"/></g><g transform="translate(13.382 38.701)"><path d="M86.537,185.537H82.5V174.662a.622.622,0,0,1,.622-.622h2.791a.622.622,0,0,1,.622.622v10.875Z" transform="translate(-82.502 -174.04)" fill="#fc657e"/></g><g transform="translate(29.784 10.366)"><path d="M157.355,52.553H162.2l-5.938-5.938v4.844A1.094,1.094,0,0,0,157.355,52.553Z" transform="translate(-156.261 -46.615)" fill="#edf4fc"/></g><g transform="translate(35.121 5.029)"><path d="M181.355,28.553H186.2l-5.938-5.938v4.844A1.094,1.094,0,0,0,181.355,28.553Z" transform="translate(-180.261 -22.615)" fill="#9be5f9"/></g><g transform="translate(16.23 14.964)"><circle cx="5.085" cy="5.085" r="5.085" fill="#fcdd86"/></g><g transform="translate(16.589 23.816)"><path d="M98.234,107.1l-1.27,3.806a.8.8,0,0,0,.5,1.005l1.761.587a.8.8,0,0,0,1.005-.5l1.2-3.583A5.066,5.066,0,0,1,98.234,107.1Z" transform="translate(-96.924 -107.102)" fill="#116562"/></g><g transform="translate(21.538 23.816)"><path d="M122.374,107.1a5.066,5.066,0,0,1-3.194,1.313l1.2,3.583a.8.8,0,0,0,1.005.5l1.761-.588a.8.8,0,0,0,.5-1.005Z" transform="translate(-119.18 -107.102)" fill="#116562"/></g><g transform="translate(18.773 17.507)"><circle cx="2.543" cy="2.543" r="2.543" fill="#f5c84c"/></g><g transform="translate(42.124 5.12)"><path d="M214.594,24.4a1.733,1.733,0,0,1-1.379-1.356c0-.022-.067-.022-.067,0A1.733,1.733,0,0,1,211.77,24.4c-.022,0-.022.044,0,.067a1.733,1.733,0,0,1,1.379,1.356c0,.022.067.022.067,0a1.733,1.733,0,0,1,1.379-1.356C214.616,24.443,214.616,24.4,214.594,24.4Z" transform="translate(-211.753 -23.025)" fill="#87d147"/></g><g transform="translate(0 18.145)"><path d="M23.036,84.246h.511v.511a.7.7,0,0,0,.712.712.712.712,0,0,0,.712-.689v-.534h.511a.7.7,0,0,0,.712-.712.712.712,0,0,0-.689-.712H24.97v-.511a.7.7,0,0,0-.712-.712.712.712,0,0,0-.712.689v.534h-.511a.7.7,0,0,0-.712.712.689.689,0,0,0,.712.712Z" transform="translate(-22.323 -81.6)" fill="#fc657e"/></g><g transform="translate(38.738 55.415)"><circle cx="0.756" cy="0.756" r="0.756" fill="#70d6f9"/></g><g transform="translate(8.051 0)"><circle cx="0.756" cy="0.756" r="0.756" fill="#f5c84c"/></g><g transform="translate(43.552 37.658)"><path d="M218.211,171.318a2.468,2.468,0,0,0,1.979-1.935c0-.044.089-.044.089,0a2.468,2.468,0,0,0,1.979,1.935c.044,0,.044.067,0,.089a2.468,2.468,0,0,0-1.979,1.935c0,.044-.089.044-.089,0a2.468,2.468,0,0,0-1.979-1.935C218.167,171.385,218.167,171.318,218.211,171.318Z" transform="translate(-218.178 -169.35)" fill="#f5c84c"/></g><g transform="translate(12.104 4.473)"><path d="M104.615,65.427h-4.243a.556.556,0,0,1-.556-.556v-32.7L94.2,26.564H77.31a.556.556,0,0,1-.556-.556V21.765a1.652,1.652,0,0,1,1.65-1.65H99.771a.556.556,0,0,1,.393.163l5.938,5.938a.556.556,0,0,1,.163.393v37.17A1.651,1.651,0,0,1,104.615,65.427Zm-3.687-1.112h3.687a.538.538,0,0,0,.538-.538V26.839l-5.612-5.612H78.4a.538.538,0,0,0-.538.538v3.687H94.434a.556.556,0,0,1,.393.163l5.938,5.938a.556.556,0,0,1,.163.393Z" transform="translate(-76.754 -20.115)"/></g><g transform="translate(6.767 9.81)"><path d="M80.616,89.427H54.4a1.651,1.651,0,0,1-1.65-1.65V84.5a.556.556,0,0,1,.556-.556h1.468v-14.1a.066.066,0,0,0-.066-.066h-1.4a.556.556,0,0,1-.556-.556V45.765a1.651,1.651,0,0,1,1.65-1.65H75.772a.556.556,0,0,1,.393.163L82.1,50.215a.556.556,0,0,1,.163.393V87.778a1.652,1.652,0,0,1-1.65,1.65ZM53.867,85.06v2.718a.538.538,0,0,0,.538.538H80.615a.538.538,0,0,0,.538-.538V50.839l-5.612-5.612H54.4a.538.538,0,0,0-.538.538v22.9h.846a1.179,1.179,0,0,1,1.178,1.178V84.5a.556.556,0,0,1-.556.556Z" transform="translate(-52.755 -44.115)"/></g><g transform="translate(19.982 38.175)"><path d="M123.854,172.783H112.736a.556.556,0,0,1,0-1.112h11.119a.556.556,0,1,1,0,1.112Z" transform="translate(-112.18 -171.671)"/></g><g transform="translate(19.982 43.909)"><path d="M123.854,198.569H112.736a.556.556,0,0,1,0-1.112h11.119a.556.556,0,1,1,0,1.112Z" transform="translate(-112.18 -197.457)"/></g><g transform="translate(19.982 41.042)"><path d="M123.854,185.676H112.736a.556.556,0,1,1,0-1.112h11.119a.556.556,0,1,1,0,1.112Z" transform="translate(-112.18 -184.564)"/></g><g transform="translate(19.982 46.776)"><path d="M123.854,211.462H112.736a.556.556,0,1,1,0-1.112h11.119a.556.556,0,1,1,0,1.112Z" transform="translate(-112.18 -210.35)"/></g><g transform="translate(11.531 35.308)"><path d="M94.3,159.89H74.736a.556.556,0,0,1,0-1.112H94.3a.556.556,0,0,1,0,1.112Z" transform="translate(-74.18 -158.778)"/></g><g transform="translate(11.531 32.441)"><path d="M94.3,147H74.736a.556.556,0,1,1,0-1.112H94.3a.556.556,0,1,1,0,1.112Z" transform="translate(-74.18 -145.885)"/></g><g transform="translate(19.982 49.643)"><path d="M123.854,224.355H112.736a.556.556,0,1,1,0-1.112h11.119a.556.556,0,1,1,0,1.112Z" transform="translate(-112.18 -223.243)"/></g><g transform="translate(0.721 43.212)"><path d="M30.158,201.867H26.123a.556.556,0,0,1-.556-.556V195.5a1.179,1.179,0,0,1,1.178-1.178h3.413a.556.556,0,0,1,.556.556v6.431A.556.556,0,0,1,30.158,201.867Zm-3.479-1.112H29.6v-5.319H26.745a.066.066,0,0,0-.066.066Z" transform="translate(-25.567 -194.324)"/></g><g transform="translate(4.756 34.363)"><path d="M48.3,170.921H44.268a.556.556,0,0,1-.556-.556V155.707a1.179,1.179,0,0,1,1.178-1.178h2.791a1.179,1.179,0,0,1,1.178,1.178v14.658A.555.555,0,0,1,48.3,170.921Zm-3.479-1.112h2.923v-14.1a.066.066,0,0,0-.066-.066H44.89a.066.066,0,0,0-.066.066Z" transform="translate(-43.712 -154.529)"/></g><g transform="translate(8.791 43.212)"><path d="M66.448,201.867H62.413a.556.556,0,0,1-.556-.556V194.88a.556.556,0,0,1,.556-.556h4.035a.556.556,0,0,1,.556.556v6.431A.556.556,0,0,1,66.448,201.867Zm-3.479-1.112h2.923v-5.319H62.969Z" transform="translate(-61.857 -194.324)"/></g><g transform="translate(12.826 38.145)"><path d="M84.593,184.149H80.558a.556.556,0,0,1-.556-.556V172.718a1.179,1.179,0,0,1,1.178-1.178h2.791a1.179,1.179,0,0,1,1.178,1.178v10.875A.556.556,0,0,1,84.593,184.149Zm-3.479-1.112h2.923v-10.32a.066.066,0,0,0-.066-.066H81.18a.066.066,0,0,0-.066.066Z" transform="translate(-80.002 -171.54)"/></g><g transform="translate(29.228 9.81)"><path d="M160.254,51.164h-4.844a1.651,1.651,0,0,1-1.65-1.65V44.67a.556.556,0,0,1,.949-.393l5.938,5.938a.556.556,0,0,1-.393.949Zm-5.382-5.151v3.5a.538.538,0,0,0,.538.538h3.5Z" transform="translate(-153.761 -44.114)"/></g><g transform="translate(34.565 4.473)"><path d="M184.254,27.164h-4.844a1.652,1.652,0,0,1-1.65-1.65V20.67a.556.556,0,0,1,.949-.393l5.938,5.938a.556.556,0,0,1-.393.949Zm-5.382-5.151v3.5a.538.538,0,0,0,.538.538h3.5Z" transform="translate(-177.761 -20.114)"/></g><g transform="translate(15.674 14.408)"><path d="M98.452,76.076a5.641,5.641,0,1,1,5.641-5.641A5.648,5.648,0,0,1,98.452,76.076Zm0-10.171a4.529,4.529,0,1,0,4.529,4.529A4.535,4.535,0,0,0,98.452,65.9Z" transform="translate(-92.811 -64.793)"/></g><g transform="translate(16.033 23.261)"><path d="M97.532,111.153a1.344,1.344,0,0,1-.426-.07l-1.761-.588a1.35,1.35,0,0,1-.854-1.708l1.27-3.806a.556.556,0,0,1,.9-.236,4.53,4.53,0,0,0,2.844,1.169.556.556,0,0,1,.5.731l-1.2,3.583A1.354,1.354,0,0,1,97.532,111.153Zm-.965-5.074-1.021,3.06a.239.239,0,0,0,.151.3l1.761.587a.239.239,0,0,0,.3-.151l.977-2.93A5.656,5.656,0,0,1,96.567,106.08Z" transform="translate(-94.421 -104.603)"/></g><g transform="translate(20.982 23.26)"><path d="M119.183,111.153a1.353,1.353,0,0,1-1.28-.924l-1.2-3.583a.556.556,0,0,1,.5-.731,4.531,4.531,0,0,0,2.844-1.169.556.556,0,0,1,.9.236l1.27,3.806a1.352,1.352,0,0,1-.854,1.708l-1.761.588A1.359,1.359,0,0,1,119.183,111.153Zm-1.2-4.205.977,2.93a.238.238,0,0,0,.3.151l1.761-.588a.239.239,0,0,0,.151-.3l-1.021-3.06A5.646,5.646,0,0,1,117.981,106.948Z" transform="translate(-116.68 -104.602)"/></g><g transform="translate(18.217 16.951)"><path d="M107.344,82.424a3.1,3.1,0,1,1,3.1-3.1A3.1,3.1,0,0,1,107.344,82.424Zm0-5.085a1.987,1.987,0,1,0,1.987,1.987A1.989,1.989,0,0,0,107.344,77.339Z" transform="translate(-104.245 -76.227)"/></g></g></g></g></svg>