<svg xmlns="http://www.w3.org/2000/svg" width="49" height="61.632" viewBox="0 0 49 61.632"><g transform="translate(-52.48 -0.014)"><g transform="translate(53.445 0.975)"><g transform="translate(24.573 22.23)"><path d="M279.9,192.828l7.068,7.071a.551.551,0,0,1,0,.784L279.9,207.75a.552.552,0,0,1-.946-.39v-3.071a.557.557,0,0,0-.555-.555H265.183a.554.554,0,0,1-.553-.555V197.4a.553.553,0,0,1,.553-.553H278.4a.558.558,0,0,0,.555-.555v-3.071a.554.554,0,0,1,.945-.395Z" transform="translate(-264.63 -192.666)" fill="#22cac5" fill-rule="evenodd"/></g><g transform="translate(0 15.335)"><path d="M75.018,164.429A14.52,14.52,0,1,0,60.5,149.908,14.548,14.548,0,0,0,75.018,164.429Z" transform="translate(-60.5 -135.39)" fill="#dfbba0" fill-rule="evenodd"/></g><g transform="translate(4.162 19.497)"><path d="M105.426,190.673A10.356,10.356,0,1,0,95.07,180.316,10.375,10.375,0,0,0,105.426,190.673Z" transform="translate(-95.07 -169.96)" fill="#b15815" fill-rule="evenodd"/></g><g transform="translate(9.628 0)"><path d="M155.746,8.166l7.068,7.068a.558.558,0,0,1,0,.784l-7.068,7.071a.556.556,0,0,1-.606.119.546.546,0,0,1-.341-.513V19.624a.558.558,0,0,0-.555-.555H141.033a.553.553,0,0,1-.553-.553V12.738a.554.554,0,0,1,.553-.555h13.213a.556.556,0,0,0,.555-.555V8.556a.552.552,0,0,1,.945-.39Z" transform="translate(-140.48 -8.001)" fill="#22cac5" fill-rule="evenodd"/></g><g transform="translate(9.628 44.459)"><path d="M155.746,377.484l7.068,7.068a.558.558,0,0,1,0,.784l-7.068,7.071a.554.554,0,0,1-.946-.394v-3.071a.556.556,0,0,0-.555-.553H141.033a.556.556,0,0,1-.553-.555v-5.778a.555.555,0,0,1,.553-.555h13.213a.555.555,0,0,0,.555-.553v-3.071a.554.554,0,0,1,.945-.394Z" transform="translate(-140.48 -377.32)" fill="#22cac5" fill-rule="evenodd"/></g><g transform="translate(9.628)"><path d="M155.746,8.166l.737.737v2.724a.554.554,0,0,1-.553.555h-1.685a.556.556,0,0,0,.555-.555V8.556a.552.552,0,0,1,.946-.39Zm.738,14.182-.737.74a.556.556,0,0,1-.605.119.545.545,0,0,1-.341-.513V19.624a.558.558,0,0,0-.555-.555h1.685a.556.556,0,0,1,.553.555Zm-13.766-3.28h-1.685a.553.553,0,0,1-.553-.553V12.737a.554.554,0,0,1,.553-.555h1.685a.556.556,0,0,0-.555.555v5.778A.555.555,0,0,0,142.718,19.068Z" transform="translate(-140.48 -8.001)" fill="#178d89" fill-rule="evenodd"/></g><g transform="translate(38.338 22.23)"><path d="M380.471,192.825l.74.74v2.724a.558.558,0,0,1-.555.555h-1.685a.558.558,0,0,0,.555-.555v-3.071a.554.554,0,0,1,.945-.394Zm.74,14.184-.74.737a.552.552,0,0,1-.946-.39v-3.071a.557.557,0,0,0-.555-.555h1.685a.556.556,0,0,1,.555.555v2.724Z" transform="translate(-378.97 -192.663)" fill="#116562" fill-rule="evenodd"/></g><g transform="translate(9.628 44.459)"><path d="M155.746,377.484l.737.74v2.724a.553.553,0,0,1-.553.553h-1.685a.555.555,0,0,0,.555-.553v-3.071a.554.554,0,0,1,.946-.394Zm.738,14.182-.737.74a.554.554,0,0,1-.946-.394v-3.071a.556.556,0,0,0-.555-.553h1.685a.553.553,0,0,1,.553.553Zm-13.766-3.277h-1.685a.556.556,0,0,1-.553-.555v-5.778a.555.555,0,0,1,.553-.555h1.685a.558.558,0,0,0-.555.555v5.778A.558.558,0,0,0,142.718,388.389Z" transform="translate(-140.48 -377.32)" fill="#116562" fill-rule="evenodd"/></g><g transform="translate(0 15.335)"><path d="M75.018,135.39c.358,0,.708.013,1.055.036a14.52,14.52,0,0,0,0,28.964c-.347.026-.7.04-1.055.04a14.52,14.52,0,0,1,0-29.039Z" transform="translate(-60.5 -135.39)" fill="#b15815" fill-rule="evenodd"/></g></g><path d="M101.033,29.761l-7.075-7.077a1.517,1.517,0,0,0-2.581,1.08v2.662h-8.57a15.484,15.484,0,1,0,0,8.815h8.571V37.9a1.514,1.514,0,0,0,.932,1.4,1.5,1.5,0,0,0,.583.118,1.535,1.535,0,0,0,1.075-.444l7.062-7.065a1.511,1.511,0,0,0,0-2.149ZM67.966,44.391A13.559,13.559,0,1,1,81.523,30.83,13.576,13.576,0,0,1,67.966,44.391ZM93.3,36.915V34.83a1.519,1.519,0,0,0-1.519-1.516H83.248a15.524,15.524,0,0,0,0-4.966h8.536A1.519,1.519,0,0,0,93.3,26.833V24.748l6.08,6.083ZM70.9,31.036a2.834,2.834,0,0,1,.88,2.337,3.061,3.061,0,0,1-1.375,2.235,3.866,3.866,0,0,1-1.482.569V37.2A.962.962,0,1,1,67,37.2V36.058l-.028-.007a4.418,4.418,0,0,1-2.771-2.611.962.962,0,0,1,1.776-.743,2.476,2.476,0,0,0,1.559,1.514A2.213,2.213,0,0,0,69.356,34a1.118,1.118,0,0,0,.513-.809.924.924,0,0,0-.308-.774,3.6,3.6,0,0,0-1.41-.51,5.437,5.437,0,0,1-2.833-1.31A3.019,3.019,0,0,1,66.6,25.661a4.142,4.142,0,0,1,.4-.113V24.464a.962.962,0,1,1,1.924,0v1.049a3.943,3.943,0,0,1,1.13.4,3.126,3.126,0,0,1,1.578,2.033.962.962,0,0,1-1.868.462,1.217,1.217,0,0,0-.634-.808,2.536,2.536,0,0,0-1.915-.116,1.084,1.084,0,0,0-.757.793,1.065,1.065,0,0,0,.234.974,3.934,3.934,0,0,0,1.9.78,4.669,4.669,0,0,1,2.311,1ZM67.966,19.512A11.321,11.321,0,1,0,79.285,30.831,11.332,11.332,0,0,0,67.966,19.512Zm0,20.716a9.4,9.4,0,1,1,9.395-9.4A9.407,9.407,0,0,1,67.966,40.228Zm-4.34-27.221H76.432v2.662a1.516,1.516,0,0,0,2.589,1.071l7.066-7.066a1.514,1.514,0,0,0,0-2.145L79.022.462A1.5,1.5,0,0,0,77.377.128l-.012,0a1.514,1.514,0,0,0-.932,1.4V4.2H63.626A1.518,1.518,0,0,0,62.11,5.712v5.781a1.517,1.517,0,0,0,1.516,1.514Zm.409-6.887h12.8A1.52,1.52,0,0,0,78.358,4.6V2.52L84.44,8.6l-6.082,6.082V12.6a1.519,1.519,0,0,0-1.519-1.516h-12.8Zm14.985,38.8a1.518,1.518,0,0,0-1.644-.335l-.012,0a1.514,1.514,0,0,0-.932,1.4v2.665H63.626a1.518,1.518,0,0,0-1.516,1.516v5.781a1.518,1.518,0,0,0,1.516,1.516H76.432v2.662A1.516,1.516,0,0,0,79.022,61.2l7.062-7.062a1.514,1.514,0,0,0,.006-2.151Zm-.663,14.222V57.057a1.519,1.519,0,0,0-1.519-1.516h-12.8V50.581h12.8a1.52,1.52,0,0,0,1.519-1.518V46.98l6.082,6.082Z" transform="translate(0 0)"/></g></svg>