<svg xmlns="http://www.w3.org/2000/svg" xmlns:xlink="http://www.w3.org/1999/xlink" width="140" height="140" viewBox="0 0 140 140"><defs><filter id="a" x="0" y="0" width="140" height="140" filterUnits="userSpaceOnUse"><feOffset dy="3" input="SourceAlpha"/><feGaussianBlur stdDeviation="3" result="b"/><feFlood flood-opacity="0.161"/><feComposite operator="in" in2="b"/><feComposite in="SourceGraphic"/></filter></defs><g transform="translate(9402.854 9840.63)"><g transform="translate(-9698.661 -13457.681)"><g transform="matrix(1, 0, 0, 1, 295.81, 3617.05)" filter="url(#a)"><circle cx="61" cy="61" r="61" transform="translate(9 6)" fill="#fff" opacity="0.45"/></g><circle cx="49" cy="49" r="49" transform="translate(316.808 3635.051)" fill="#fff"/></g><g transform="translate(-9384.646 -9773.318)"><path d="M76.939,138.66l-9.366-9.366H35.821l-9.366,9.366v12.495l9.366,9.366H67.573l9.366-9.366Z" transform="translate(0 -141.495)" fill="#d2f5f4"/><path d="M51.7,138.943a13.194,13.194,0,0,0,12.692-9.649H35.821l-9.366,9.366v12.495l9.366,9.366H55.338c-12.132-4.53-13.03-16.246-12.14-24.695A13.112,13.112,0,0,0,51.7,138.943Z" transform="translate(0 -141.495)" fill="#a6eae8"/><ellipse cx="4.512" cy="4.702" rx="4.512" ry="4.702" transform="translate(47.185 -6.956)" fill="#22cac5"/><path d="M220.413,181.4a13.111,13.111,0,0,0,4.4-.756,4.474,4.474,0,0,0-8.794,0A13.111,13.111,0,0,0,220.413,181.4Z" transform="translate(-168.716 -183.947)" fill="#178d89"/><path d="M35.821,131.791v-2.5H33.181a6.726,6.726,0,0,0-6.726,6.726v2.639h2.5A6.869,6.869,0,0,0,35.821,131.791Z" transform="translate(0 -141.495)" fill="#116562"/><path d="M400.376,131.791v-2.5h2.639a6.726,6.726,0,0,1,6.726,6.726v2.639h-2.5A6.869,6.869,0,0,1,400.376,131.791Z" transform="translate(-332.803 -141.495)" fill="#178d89"/><path d="M35.821,334.955v2.5H33.181a6.726,6.726,0,0,1-6.726-6.726v-2.639h2.5A6.869,6.869,0,0,1,35.821,334.955Z" transform="translate(0 -318.426)" fill="#116562"/><path d="M400.376,334.955v2.5h2.639a6.726,6.726,0,0,0,6.726-6.726v-2.639h-2.5A6.869,6.869,0,0,0,400.376,334.955Z" transform="translate(-332.803 -318.426)" fill="#116562"/><path d="M260.012,367.471l-5.207-5.207a2.24,2.24,0,0,0-3.824,1.584v.888a.564.564,0,0,1-.564.564h-.113c-1.961,3.3,1.749,9.979,6.312,9.546l3.4-3.4A2.813,2.813,0,0,0,260.012,367.471Z" transform="translate(-198.757 -348.258)" fill="#a6eae8"/><path d="M171.818,395.211h-7.79a2.444,2.444,0,0,0-2.444,2.444v3.435a2.444,2.444,0,0,0,2.444,2.444h7.9a.564.564,0,0,1,.564.564v.888a2.24,2.24,0,0,0,3.824,1.584l1.812-1.812C173.763,403.846,171.625,398.156,171.818,395.211Z" transform="translate(-120.269 -378.17)" fill="#22cac5"/><g transform="translate(41.825 -25.594)"><path d="M204.891,8.227c-5.513,6.354-.028,19.386,12.746,13.143v.005A9.876,9.876,0,0,0,204.889,8.226Z" transform="translate(-198.739 -7.5)" fill="#e8faf9"/><path d="M172.381,14.115a9.872,9.872,0,1,0,12.746,13.143C171.524,29.642,169.922,18.774,172.381,14.115Z" transform="translate(-166.229 -13.388)" fill="#a6eae8"/></g><g transform="translate(26.455 -29.683)"><path d="M174.75,361.1h0a2.705,2.705,0,0,1,1.921.807l5.207,5.208a3.313,3.313,0,0,1,0,4.685l-5.207,5.207a2.705,2.705,0,0,1-1.921.807,2.814,2.814,0,0,1-1.9-.75,2.7,2.7,0,0,1-.855-1.994v-.888a.064.064,0,0,0-.064-.064h-7.9a2.947,2.947,0,0,1-2.944-2.944v-3.435a2.943,2.943,0,0,1,2.944-2.944h7.9a.064.064,0,0,0,.064-.064v-.888a2.7,2.7,0,0,1,.855-1.994A2.814,2.814,0,0,1,174.75,361.1Zm0,15.714a1.687,1.687,0,0,0,1.214-.514l5.207-5.207a2.313,2.313,0,0,0,0-3.271l-5.207-5.208a1.687,1.687,0,0,0-1.214-.514,1.8,1.8,0,0,0-1.218.481,1.682,1.682,0,0,0-.537,1.263v.888a1.065,1.065,0,0,1-1.064,1.064h-7.9a1.943,1.943,0,0,0-1.944,1.944v3.435a1.946,1.946,0,0,0,1.944,1.944h7.9a1.065,1.065,0,0,1,1.064,1.064v.888A1.733,1.733,0,0,0,174.75,376.818Z" transform="translate(-146.724 -318.576)"/><path d="M9.872-.5A10.372,10.372,0,1,1-.5,9.872,10.384,10.384,0,0,1,9.872-.5Zm0,19.744A9.372,9.372,0,1,0,.5,9.872,9.382,9.382,0,0,0,9.872,19.244Z" transform="translate(11.281 13.961) rotate(-45)"/><path d="M354.456,158.461a.5.5,0,0,1-.392-.81,6.162,6.162,0,0,0,1.338-3.856V136.021a6.233,6.233,0,0,0-6.226-6.226h-9.291a.5.5,0,0,1,0-1h9.291a7.234,7.234,0,0,1,7.226,7.226v17.773a7.152,7.152,0,0,1-1.553,4.476A.5.5,0,0,1,354.456,158.461Z" transform="translate(-305.418 -111.813)"/><path d="M350.36,410.919h-9.145a.5.5,0,0,1,0-1h9.145a6.218,6.218,0,0,0,1.989-.324.5.5,0,1,1,.319.948A7.216,7.216,0,0,1,350.36,410.919Z" transform="translate(-306.602 -361.711)"/><path d="M41.358,174.253H33.181a7.234,7.234,0,0,1-7.226-7.226V149.253a7.224,7.224,0,0,1,2.5-5.47.5.5,0,1,1,.654.757,6.225,6.225,0,0,0-2.158,4.713v17.773a6.233,6.233,0,0,0,6.226,6.226h8.177a.5.5,0,0,1,0,1Z" transform="translate(-26.455 -125.045)"/><path d="M79.3,129.856a.5.5,0,0,1-.067-1,7.318,7.318,0,0,1,.982-.066h9.291a.5.5,0,0,1,0,1H80.217a6.313,6.313,0,0,0-.848.057A.5.5,0,0,1,79.3,129.856Z" transform="translate(-73.491 -111.812)"/><path d="M28.952,139.16h-2.5a.5.5,0,1,1,0-1h2.5a6.376,6.376,0,0,0,6.369-6.369v-2.5a.5.5,0,0,1,1,0v2.5A7.377,7.377,0,0,1,28.952,139.16Z" transform="translate(-26.455 -111.812)"/><path d="M35.821,337.953a.5.5,0,0,1-.5-.5v-2.5a6.376,6.376,0,0,0-6.369-6.369h-2.5a.5.5,0,1,1,0-1h2.5a7.377,7.377,0,0,1,7.369,7.369v2.5A.5.5,0,0,1,35.821,337.953Z" transform="translate(-26.455 -288.745)"/><path d="M409.742,139.16h-2.5a7.377,7.377,0,0,1-7.369-7.369v-2.5a.5.5,0,0,1,1,0v2.5a6.376,6.376,0,0,0,6.369,6.369h2.5a.5.5,0,0,1,0,1Z" transform="translate(-359.258 -111.812)"/><path d="M400.376,337.953a.5.5,0,0,1-.5-.5v-2.5a7.377,7.377,0,0,1,7.369-7.369h2.5a.5.5,0,0,1,0,1h-2.5a6.376,6.376,0,0,0-6.369,6.369v2.5A.5.5,0,0,1,400.376,337.953Z" transform="translate(-359.258 -288.745)"/><path d="M219.482,193.258a5.115,5.115,0,0,1-5.012-5.2,5.251,5.251,0,0,1,2.229-4.326.5.5,0,0,1,.57.822,4.251,4.251,0,0,0-1.8,3.5,4.016,4.016,0,1,0,8.024,0,4.251,4.251,0,0,0-1.8-3.5.5.5,0,1,1,.57-.822,5.251,5.251,0,0,1,2.229,4.326A5.115,5.115,0,0,1,219.482,193.258Z" transform="translate(-194.24 -160.628)"/><g transform="translate(8.386 33.095)"><path d="M2.806.5H0A.5.5,0,0,1-.5,0,.5.5,0,0,1,0-.5H2.806a.5.5,0,0,1,.5.5A.5.5,0,0,1,2.806.5Z"/><path d="M2.806.5H0A.5.5,0,0,1-.5,0,.5.5,0,0,1,0-.5H2.806a.5.5,0,0,1,.5.5A.5.5,0,0,1,2.806.5Z" transform="translate(30.907)"/></g><g transform="translate(22.44 11.158)"><path d="M0,6.1a.5.5,0,0,1-.354-.146.5.5,0,0,1,0-.707l5.6-5.6a.5.5,0,0,1,.707,0,.5.5,0,0,1,0,.707l-5.6,5.6A.5.5,0,0,1,0,6.1Z"/><path d="M5.6,6.1a.5.5,0,0,1-.354-.146l-5.6-5.6a.5.5,0,0,1,0-.707.5.5,0,0,1,.707,0l5.6,5.6A.5.5,0,0,1,5.6,6.1Z"/></g><path d="M3.67.5h0L0,.5A.5.5,0,0,1-.5,0,.5.5,0,0,1,0-.5l3.67,0a.5.5,0,0,1,0,1Z" transform="translate(23.409 37.873)"/></g></g></g></svg>