<svg xmlns="http://www.w3.org/2000/svg" xmlns:xlink="http://www.w3.org/1999/xlink" width="140" height="140" viewBox="0 0 140 140"><defs><filter id="a" x="0" y="0" width="140" height="140" filterUnits="userSpaceOnUse"><feOffset dy="3" input="SourceAlpha"/><feGaussianBlur stdDeviation="3" result="b"/><feFlood flood-opacity="0.161"/><feComposite operator="in" in2="b"/><feComposite in="SourceGraphic"/></filter></defs><g transform="translate(9724.854 9840.63)"><g transform="translate(-10020.661 -13457.681)"><g transform="matrix(1, 0, 0, 1, 295.81, 3617.05)" filter="url(#a)"><circle cx="61" cy="61" r="61" transform="translate(9 6)" fill="#fff" opacity="0.45"/></g><circle cx="49" cy="49" r="49" transform="translate(316.808 3635.051)" fill="#fff"/></g><g transform="translate(-9687.645 -9813.631)"><g transform="translate(7.5 15.628)"><path d="M56.225,116.048H9.17a1.67,1.67,0,0,0-1.67,1.67v27.1a1.67,1.67,0,0,0,1.67,1.67H26.842a1.284,1.284,0,0,1,1.207,1.724l-2.331,6.4H39.677l-2.331-6.4a1.284,1.284,0,0,1,1.207-1.724H56.225a1.67,1.67,0,0,0,1.67-1.67v-27.1A1.67,1.67,0,0,0,56.225,116.048Z" transform="translate(-7.5 -105.866)" fill="#f3f0f3"/><g transform="translate(26.514 10.182)"><g transform="translate(18.958)"><path d="M459.2,116.048h-3.253a1.67,1.67,0,0,1,1.67,1.67v27.1a1.67,1.67,0,0,1-1.67,1.67H459.2a1.67,1.67,0,0,0,1.67-1.67v-27.1A1.67,1.67,0,0,0,459.2,116.048Z" transform="translate(-455.952 -116.048)" fill="#e2dee2"/></g><g transform="translate(0 30.438)"><path d="M273.523,416.235H270.27a1.284,1.284,0,0,0-1.207,1.724l2.331,6.4h3.253l-2.331-6.4A1.284,1.284,0,0,1,273.523,416.235Z" transform="translate(-268.985 -416.235)" fill="#e2dee2"/></g></g><rect width="21.38" height="43.888" transform="translate(47.141 13.435) rotate(90)" fill="#e8faf9"/><path d="M194.548,270.317H181.9a1.322,1.322,0,0,1-1.322-1.322v-3.2a1.322,1.322,0,0,1,1.322-1.322h12.652a1.322,1.322,0,0,1,1.322,1.322v3.2A1.322,1.322,0,0,1,194.548,270.317Z" transform="translate(-163.025 -239.237)" fill="#b15815"/><path d="M25.528,335.651l-10.952,1.425a1.087,1.087,0,0,0-.628,1.846l2.153,2.153L11.173,346a1.573,1.573,0,0,0,0,2.224l3,3a1.573,1.573,0,0,0,2.224,0l4.928-4.928,2.153,2.153a1.087,1.087,0,0,0,1.846-.628l1.425-10.952A1.087,1.087,0,0,0,25.528,335.651Z" transform="translate(-10.387 -303.194)" fill="#a6eae8"/><g transform="translate(2.639 32.449)"><path d="M37.925,441.057l-3.008,3.008a1.57,1.57,0,0,1-1.4.434l1.143,1.143a1.573,1.573,0,0,0,2.224,0l4.928-4.928H38.752A1.17,1.17,0,0,0,37.925,441.057Z" transform="translate(-33.522 -430.06)" fill="#22cac5"/><path d="M124.686,335.651l-2.51.327a1.079,1.079,0,0,1,.269.864l-1.385,10.034,1.573,1.573a1.087,1.087,0,0,0,1.846-.628l1.425-10.952A1.087,1.087,0,0,0,124.686,335.651Z" transform="translate(-112.183 -335.642)" fill="#22cac5"/></g><path d="M164.38,37.508H141.073v-20.6a1.039,1.039,0,0,1,1.477-.941l3.1,1.443a2.965,2.965,0,0,0,2.5,0l3.139-1.462a3.4,3.4,0,0,1,2.872,0l3.139,1.462a2.965,2.965,0,0,0,2.5,0l3.1-1.443a1.039,1.039,0,0,1,1.477.941Z" transform="translate(-127.529 -15.628)" fill="#d2f5f4"/><path d="M342.211,18.082l-1.6.744a1.03,1.03,0,0,1,.538.908V39.624h2.536v-20.6A1.038,1.038,0,0,0,342.211,18.082Z" transform="translate(-306.837 -17.745)" fill="#a6eae8"/></g><g transform="translate(7.5 15.628)"><path d="M194.548,270.817H181.9a1.824,1.824,0,0,1-1.822-1.822v-3.2a1.824,1.824,0,0,1,1.822-1.822h12.652a1.824,1.824,0,0,1,1.822,1.822v3.2A1.824,1.824,0,0,1,194.548,270.817ZM181.9,264.969a.823.823,0,0,0-.822.822v3.2a.823.823,0,0,0,.822.822h12.652a.823.823,0,0,0,.822-.822v-3.2a.823.823,0,0,0-.822-.822Z" transform="translate(-163.025 -239.237)"/><path d="M25.671,335.142a1.587,1.587,0,0,1,1.571,1.792l-1.425,10.951a1.586,1.586,0,0,1-2.7.917l-1.8-1.8-4.575,4.575a2.073,2.073,0,0,1-2.932,0l-3-3a2.075,2.075,0,0,1,0-2.932l4.575-4.575-1.8-1.8a1.587,1.587,0,0,1,.917-2.7l10.952-1.425A1.613,1.613,0,0,1,25.671,335.142Zm-1.434,13.127a.586.586,0,0,0,.588-.513l1.425-10.952a.578.578,0,0,0-.14-.462.587.587,0,0,0-.517-.2l-10.951,1.425a.587.587,0,0,0-.339,1l2.153,2.153a.5.5,0,0,1,0,.707l-4.928,4.928a1.073,1.073,0,0,0,0,1.517l3,3a1.073,1.073,0,0,0,1.517,0l4.928-4.928a.5.5,0,0,1,.707,0l2.153,2.153A.568.568,0,0,0,24.237,348.269Z" transform="translate(-10.387 -303.194)"/><path d="M39.58,170.007a.5.5,0,0,1-.5-.5V148.131a.5.5,0,0,1,.5-.5H49.871a.5.5,0,0,1,0,1H40.08v20.876A.5.5,0,0,1,39.58,170.007Z" transform="translate(-36.327 -134.696)"/><path d="M198.31,170.011H167.38a.5.5,0,0,1,0-1h30.43v-20.38h-6.233a.5.5,0,0,1,0-1h6.733a.5.5,0,0,1,.5.5v21.38A.5.5,0,0,1,198.31,170.011Z" transform="translate(-151.169 -134.696)"/><path d="M10.478,146.988H9.17A2.172,2.172,0,0,1,7,144.819v-27.1a2.172,2.172,0,0,1,2.17-2.169H21.044a.5.5,0,0,1,0,1H9.17A1.171,1.171,0,0,0,8,117.72v27.1a1.171,1.171,0,0,0,1.17,1.169h1.308a.5.5,0,0,1,0,1Z" transform="translate(-7.5 -105.868)"/><path d="M162.683,424.857a.5.5,0,0,1-.47-.671l2.331-6.4a.784.784,0,0,0-.737-1.053H159.92a.5.5,0,0,1,0-1h3.888a1.784,1.784,0,0,1,1.676,2.395l-2.331,6.4A.5.5,0,0,1,162.683,424.857Z" transform="translate(-144.465 -375.611)"/><path d="M303.474,155.115a.5.5,0,0,1-.47-.329l-2.331-6.4a1.784,1.784,0,0,1,1.676-2.395h17.673a1.171,1.171,0,0,0,1.17-1.169v-27.1a1.171,1.171,0,0,0-1.17-1.169H308.148a.5.5,0,0,1,0-1h11.874a2.172,2.172,0,0,1,2.17,2.169v27.1a2.172,2.172,0,0,1-2.17,2.169H302.349a.784.784,0,0,0-.737,1.053l2.331,6.4a.5.5,0,0,1-.47.671Z" transform="translate(-271.297 -105.868)"/><path d="M2.278.5H0A.5.5,0,0,1-.5,0,.5.5,0,0,1,0-.5H2.278a.5.5,0,0,1,.5.5A.5.5,0,0,1,2.278.5Z" transform="translate(41.866 37.718)"/><path d="M3.933.5H0A.5.5,0,0,1-.5,0,.5.5,0,0,1,0-.5H3.933a.5.5,0,0,1,.5.5A.5.5,0,0,1,3.933.5Z" transform="translate(14.285 48.746)"/><path d="M14.239.5H0A.5.5,0,0,1-.5,0,.5.5,0,0,1,0-.5H14.239a.5.5,0,0,1,.5.5A.5.5,0,0,1,14.239.5Z" transform="translate(21.871 48.746)"/><path d="M164.38,38.008H141.073a.5.5,0,0,1-.5-.5v-20.6a1.536,1.536,0,0,1,2.188-1.395l3.1,1.443a2.465,2.465,0,0,0,2.081,0l3.139-1.462a3.9,3.9,0,0,1,3.294,0l3.139,1.462a2.465,2.465,0,0,0,2.081,0l3.1-1.443a1.536,1.536,0,0,1,2.188,1.395v20.6A.5.5,0,0,1,164.38,38.008Zm-22.807-1H163.88v-20.1a.536.536,0,0,0-.766-.488l-3.1,1.443a3.465,3.465,0,0,1-2.926,0L153.951,16.4a2.9,2.9,0,0,0-2.45,0l-3.139,1.462a3.465,3.465,0,0,1-2.926,0l-3.1-1.443a.536.536,0,0,0-.766.488Z" transform="translate(-127.529 -15.628)"/><path d="M31.491.5H0A.5.5,0,0,1-.5,0,.5.5,0,0,1,0-.5H31.491a.5.5,0,0,1,.5.5A.5.5,0,0,1,31.491.5Z" transform="translate(9.452 21.88)"/><g transform="translate(18.431 3.803)"><g transform="translate(5.097)"><path d="M241.079,68.045a2.8,2.8,0,0,1-1.818-.521.5.5,0,0,1,.547-.837,1.9,1.9,0,0,0,1.353.357,1.205,1.205,0,0,0,1.2-1.017.959.959,0,0,0-.682-1.111,6.6,6.6,0,0,1-1.89-.906,1.629,1.629,0,0,1-.536-1.605,1.842,1.842,0,0,1,1.263-1.445,2.394,2.394,0,0,1,2.258.431l-.678.735,0,0a1.4,1.4,0,0,0-1.3-.213.852.852,0,0,0-.568.672.652.652,0,0,0,.17.633,6.271,6.271,0,0,0,1.606.75,1.94,1.94,0,0,1,1.335,2.22,2.219,2.219,0,0,1-2.176,1.851Z" transform="translate(-239.534 -60.515)"/><path d="M0,1.4A.5.5,0,0,1-.5.9V0A.5.5,0,0,1,0-.5.5.5,0,0,1,.5,0V.9A.5.5,0,0,1,0,1.4Z" transform="translate(1.63 7.029)"/><path d="M0,1.335a.5.5,0,0,1-.5-.5V0A.5.5,0,0,1,0-.5.5.5,0,0,1,.5,0V.835A.5.5,0,0,1,0,1.335Z" transform="translate(1.63)"/></g><path d="M13.533.5H0A.5.5,0,0,1-.5,0,.5.5,0,0,1,0-.5H13.533a.5.5,0,0,1,.5.5A.5.5,0,0,1,13.533.5Z" transform="translate(0 11.687)"/><path d="M6.158.5H0A.5.5,0,0,1-.5,0,.5.5,0,0,1,0-.5H6.158a.5.5,0,0,1,.5.5A.5.5,0,0,1,6.158.5Z" transform="translate(3.687 14.274)"/></g></g></g></g></svg>