<svg xmlns="http://www.w3.org/2000/svg" xmlns:xlink="http://www.w3.org/1999/xlink" width="140" height="140" viewBox="0 0 140 140"><defs><filter id="a" x="0" y="0" width="140" height="140" filterUnits="userSpaceOnUse"><feOffset dy="3" input="SourceAlpha"/><feGaussianBlur stdDeviation="3" result="b"/><feFlood flood-opacity="0.161"/><feComposite operator="in" in2="b"/><feComposite in="SourceGraphic"/></filter></defs><g transform="translate(10046.854 9840.63)"><g transform="translate(-10342.661 -13457.681)"><g transform="matrix(1, 0, 0, 1, 295.81, 3617.05)" filter="url(#a)"><circle cx="61" cy="61" r="61" transform="translate(9 6)" fill="#fff" opacity="0.45"/></g><circle cx="49" cy="49" r="49" transform="translate(316.808 3635.051)" fill="#fff"/></g><g transform="translate(-10013.395 -9810.077)"><g transform="translate(12.796 41.175)"><g transform="translate(2.704)"><path d="M109.121,300.115H77.114a.941.941,0,0,1-.941-.941v-1.647a.941.941,0,0,1,.941-.941h32.006a.941.941,0,0,1,.941.941v1.647A.941.941,0,0,1,109.121,300.115Z" transform="translate(-76.173 -296.585)" fill="#dfbba0"/><path d="M109.121,330.42H77.114a.941.941,0,0,1-.941-.941v-1.647a.941.941,0,0,1,.941-.941h32.006a.941.941,0,0,1,.941.941v1.647A.941.941,0,0,1,109.121,330.42Z" transform="translate(-76.173 -323.36)" fill="#dfbba0"/><path d="M260.959,333.772a.941.941,0,0,0,.941-.941v-1.647a.935.935,0,0,0-.144-.5,13.9,13.9,0,0,0-1.968.889l-2.42,1.329a5.143,5.143,0,0,1-2.476.635h-5.1a6.739,6.739,0,0,0-1.763.234Z" transform="translate(-228.011 -326.712)" fill="#efddcf"/><path d="M109.121,360.725H77.114a.941.941,0,0,1-.941-.941v-1.647a.941.941,0,0,1,.941-.941h32.006a.941.941,0,0,1,.941.941v1.647A.941.941,0,0,1,109.121,360.725Z" transform="translate(-76.173 -350.135)" fill="#dfbba0"/><path d="M228.4,360.725a.941.941,0,0,0,.941-.941v-1.647a.941.941,0,0,0-.941-.941H215.472a6.785,6.785,0,0,0-4.292,3.53H228.4Z" transform="translate(-195.454 -350.135)" fill="#efddcf"/><path d="M109.121,391.8H77.114a.941.941,0,0,1-.941-.941V388.44a.941.941,0,0,1,.941-.941h32.006a.941.941,0,0,1,.941.941v2.415A.941.941,0,0,1,109.121,391.8Z" transform="translate(-76.173 -376.909)" fill="#efddcf"/><rect width="5.648" height="14.888" transform="translate(14.12)" fill="#d9e7ec"/><path d="M203.04,357.82a6.788,6.788,0,0,0-4.279,3.99h-1.369v3.765h5.648Z" transform="translate(-183.272 -350.687)" fill="#c5d3dd"/></g><path d="M55.82,363.831H74.754a2.978,2.978,0,0,1-.3-1.306h0a2.991,2.991,0,0,1,2.991-2.991h7.384l4.423-2.43a10.181,10.181,0,0,1,4.9-1.258h0a10.182,10.182,0,0,1,4.84,1.224l4.562,2.464h1.059a.941.941,0,0,1,.941.941v9.574a.941.941,0,0,1-.941.941h-1.059l-19.923,2.094a14.124,14.124,0,0,1-3.45-.061l-24.763-3.5a2.862,2.862,0,0,1-2.462-2.834h0A2.862,2.862,0,0,1,55.82,363.831Z" transform="translate(-52.958 -348.943)" fill="#fed2a4"/><path d="M355.12,371.574h-1.059l-3.889-2.1a37.433,37.433,0,0,1-13.682,15.4l17.571-1.847h1.059a.941.941,0,0,0,.941-.941v-9.574A.941.941,0,0,0,355.12,371.574Z" transform="translate(-303.462 -360.982)" fill="#ffbd86"/></g><path d="M21.495,7.508A14.467,14.467,0,0,0,9.945,30.013L8.777,33.76a1.34,1.34,0,0,0,1.678,1.678l3.845-1.2A14.472,14.472,0,1,0,21.495,7.508Z" transform="translate(0)" fill="#d2f5f4"/><path d="M42.366,52.972q.025.465.025.937A17.49,17.49,0,0,1,19.087,70.4l-1.1,3.539a1.34,1.34,0,0,0,1.678,1.678l3.845-1.2A14.466,14.466,0,0,0,42.366,52.972Z" transform="translate(-9.207 -40.175)" fill="#a6eae8"/><circle cx="9.917" cy="9.917" r="9.917" transform="translate(12.325 12.057)" fill="#efddcf"/><path d="M77.077,61.016A9.917,9.917,0,0,1,63.318,74.775,9.917,9.917,0,1,0,77.077,61.016Z" transform="translate(-49.315 -47.282)" fill="#dfbba0"/><path d="M0,15.388a.5.5,0,0,1-.5-.5V0A.5.5,0,0,1,0-.5.5.5,0,0,1,.5,0V14.888A.5.5,0,0,1,0,15.388Z" transform="translate(29.62 41.175)"/><path d="M0,11.754a.5.5,0,0,1-.5-.5V0A.5.5,0,0,1,0-.5.5.5,0,0,1,.5,0V11.254A.5.5,0,0,1,0,11.754Z" transform="translate(35.269 41.175)"/><path d="M13.179.5H0A.5.5,0,0,1-.5,0,.5.5,0,0,1,0-.5H13.179a.5.5,0,0,1,.5.5A.5.5,0,0,1,13.179.5Z" transform="translate(16.441 44.705)"/><path d="M13.179.5H0A.5.5,0,0,1-.5,0,.5.5,0,0,1,0-.5H13.179a.5.5,0,0,1,.5.5A.5.5,0,0,1,13.179.5Z" transform="translate(16.441 48.235)"/><path d="M13.179.5H0A.5.5,0,0,1-.5,0,.5.5,0,0,1,0-.5H13.179a.5.5,0,0,1,.5.5A.5.5,0,0,1,13.179.5Z" transform="translate(16.441 51.765)"/><path d="M13.179.5H0A.5.5,0,0,1-.5,0,.5.5,0,0,1,0-.5H13.179a.5.5,0,0,1,.5.5A.5.5,0,0,1,13.179.5Z" transform="translate(35.269 44.705)"/><path d="M13.179.5H0A.5.5,0,0,1-.5,0,.5.5,0,0,1,0-.5H13.179a.5.5,0,0,1,.5.5A.5.5,0,0,1,13.179.5Z" transform="translate(35.269 48.235)"/><path d="M319.948,305.092a.5.5,0,0,1-.5-.5.442.442,0,0,0-.441-.442.5.5,0,0,1,0-1,.442.442,0,0,0,.441-.441v-1.648a.442.442,0,0,0-.441-.441.5.5,0,0,1,0-1,.442.442,0,0,0,.441-.441v-1.647a.442.442,0,0,0-.441-.441h-5.276a.5.5,0,0,1,0-1h5.276a1.443,1.443,0,0,1,1.441,1.441v1.647a1.439,1.439,0,0,0,0,1.882v1.648a1.439,1.439,0,0,0,0,1.882A.5.5,0,0,1,319.948,305.092Z" transform="translate(-270.559 -255.415)"/><path d="M77.112,311.977a1.443,1.443,0,0,1-1.441-1.441v-2.415a1.439,1.439,0,0,0,0-1.882v-1.647a1.439,1.439,0,0,0,0-1.882v-1.648a1.439,1.439,0,0,0,0-1.882v-1.647a1.443,1.443,0,0,1,1.441-1.441H99.767a.5.5,0,0,1,0,1H77.112a.442.442,0,0,0-.441.441v1.647a.442.442,0,0,0,.441.441.5.5,0,0,1,0,1,.442.442,0,0,0-.441.441v1.648a.442.442,0,0,0,.441.441.5.5,0,0,1,0,1,.442.442,0,0,0-.441.441v1.647a.442.442,0,0,0,.441.441.5.5,0,0,1,0,1,.442.442,0,0,0-.441.441v2.415a.442.442,0,0,0,.441.441.5.5,0,0,1,0,1Z" transform="translate(-60.671 -255.415)"/><path d="M82.16,373.666a14.587,14.587,0,0,1-2.044-.144l-24.764-3.5a3.377,3.377,0,0,1-2.891-3.329,3.363,3.363,0,0,1,3.362-3.362H74.05a3.492,3.492,0,0,1,3.4-4.3H84.7l4.311-2.368a10.69,10.69,0,0,1,10.221-.037l4.451,2.4h.932a1.443,1.443,0,0,1,1.441,1.441v9.574a1.443,1.443,0,0,1-1.441,1.441h-1.033l-5.175.544a.5.5,0,1,1-.1-.995l5.2-.546.052,0h1.059a.442.442,0,0,0,.441-.441v-9.574a.442.442,0,0,0-.441-.441h-1.059a.5.5,0,0,1-.238-.06l-4.562-2.465a9.685,9.685,0,0,0-9.264.033l-4.423,2.43a.5.5,0,0,1-.241.062H77.448a2.491,2.491,0,0,0-2.241,3.578.5.5,0,0,1-.45.719H55.823a2.363,2.363,0,0,0-2.362,2.362,2.373,2.373,0,0,0,2.031,2.339l24.764,3.5a13.647,13.647,0,0,0,3.328.06l10.666-1.122a.5.5,0,0,1,.1.995l-10.667,1.122A14.711,14.711,0,0,1,82.16,373.666Z" transform="translate(-40.165 -307.772)"/><path d="M250.929,417.463a.5.5,0,0,1-.354-.146l-.643-.643h-9.449a3.488,3.488,0,0,1-3.491-3.491.5.5,0,0,1,1,0,2.488,2.488,0,0,0,2.491,2.491h9.656a.5.5,0,0,1,.354.146l.789.789a.5.5,0,0,1-.354.854Z" transform="translate(-203.201 -358.426)"/><path d="M58.837,66.953a10.418,10.418,0,0,1-8.752-16.066.5.5,0,0,1,.839.543,9.418,9.418,0,1,0,2.709-2.742.5.5,0,1,1-.554-.833,10.417,10.417,0,1,1,5.757,19.1Z" transform="translate(-36.596 -34.563)"/><path d="M21.972,7h0A14.973,14.973,0,0,1,36.939,22.472,15.007,15.007,0,0,1,22.518,36.937c-.181.006-.364.01-.544.01a14.914,14.914,0,0,1-7.742-2.162L10.6,35.916a1.829,1.829,0,0,1-2.033-.67A1.818,1.818,0,0,1,8.3,33.612l1.1-3.521A14.986,14.986,0,0,1,21.479,7.008C21.645,7,21.807,7,21.972,7Zm0,28.947c.168,0,.339,0,.508-.009A13.977,13.977,0,0,0,27.515,9.146,13.846,13.846,0,0,0,21.974,8c-.155,0-.306,0-.463.008A13.967,13.967,0,0,0,10.36,29.735a.5.5,0,0,1,.062.427L9.255,33.909a.819.819,0,0,0,.122.744A.843.843,0,0,0,10.05,35a.862.862,0,0,0,.257-.04l3.845-1.2a.5.5,0,0,1,.415.054A13.915,13.915,0,0,0,21.974,35.947Z" transform="translate(0)"/><g transform="translate(22.242 16.14)"><path d="M0,9.208a.5.5,0,0,1-.5-.5V0A.5.5,0,0,1,0-.5.5.5,0,0,1,.5,0V8.708A.5.5,0,0,1,0,9.208Z"/><path transform="translate(0 11.667)"/></g></g></g></svg>