<svg xmlns="http://www.w3.org/2000/svg" width="56.458" height="48.309" viewBox="0 0 56.458 48.309"><path d="M417.186,104.2a1.487,1.487,0,1,1-1.487-1.42A1.454,1.454,0,0,1,417.186,104.2Z" transform="translate(-414.214 -102.779)" fill="#59836b"/><path d="M425.632,104.2a1.487,1.487,0,1,1-1.485-1.42A1.454,1.454,0,0,1,425.632,104.2Z" transform="translate(-409.289 -102.779)" fill="#59836b"/><path d="M434.078,104.2a1.487,1.487,0,1,1-1.485-1.42A1.454,1.454,0,0,1,434.078,104.2Z" transform="translate(-404.363 -102.779)" fill="#59836b"/><path d="M442.525,104.2a1.487,1.487,0,1,1-1.487-1.42A1.454,1.454,0,0,1,442.525,104.2Z" transform="translate(-399.438 -102.779)" fill="#59836b"/><path d="M450.971,104.2a1.487,1.487,0,1,1-1.485-1.42A1.454,1.454,0,0,1,450.971,104.2Z" transform="translate(-394.512 -102.779)" fill="#59836b"/><ellipse cx="1.486" cy="1.421" rx="1.486" ry="1.421" transform="translate(0 11.367)" fill="#59836b"/><path d="M425.632,111.707a1.487,1.487,0,1,1-1.485-1.42A1.455,1.455,0,0,1,425.632,111.707Z" transform="translate(-409.289 -98.92)" fill="#59836b"/><ellipse cx="1.486" cy="1.421" rx="1.486" ry="1.421" transform="translate(26.743 11.367)" fill="#59836b"/><path d="M442.525,111.707a1.487,1.487,0,1,1-1.487-1.42A1.455,1.455,0,0,1,442.525,111.707Z" transform="translate(-399.438 -98.92)" fill="#59836b"/><path d="M450.971,111.707a1.487,1.487,0,1,1-1.485-1.42A1.455,1.455,0,0,1,450.971,111.707Z" transform="translate(-394.512 -98.92)" fill="#59836b"/><path d="M417.186,119.216a1.487,1.487,0,1,1-1.487-1.422A1.455,1.455,0,0,1,417.186,119.216Z" transform="translate(-414.214 -95.062)" fill="#59836b"/><path d="M425.632,119.216a1.487,1.487,0,1,1-1.485-1.422A1.455,1.455,0,0,1,425.632,119.216Z" transform="translate(-409.289 -95.062)" fill="#59836b"/><path d="M434.078,119.216a1.487,1.487,0,1,1-1.485-1.422A1.455,1.455,0,0,1,434.078,119.216Z" transform="translate(-404.363 -95.062)" fill="#59836b"/><path d="M442.525,119.216a1.487,1.487,0,1,1-1.487-1.422A1.455,1.455,0,0,1,442.525,119.216Z" transform="translate(-399.438 -95.062)" fill="#59836b"/><path d="M450.971,119.216a1.487,1.487,0,1,1-1.485-1.422A1.455,1.455,0,0,1,450.971,119.216Z" transform="translate(-394.512 -95.062)" fill="#59836b"/><ellipse cx="1.486" cy="1.421" rx="1.486" ry="1.421" transform="translate(0 34.1)" fill="#59836b"/><path d="M425.632,126.724a1.487,1.487,0,1,1-1.485-1.422A1.454,1.454,0,0,1,425.632,126.724Z" transform="translate(-409.289 -91.202)" fill="#59836b"/><ellipse cx="1.486" cy="1.421" rx="1.486" ry="1.421" transform="translate(26.743 34.1)" fill="#59836b"/><path d="M442.525,126.724a1.487,1.487,0,1,1-1.487-1.422A1.454,1.454,0,0,1,442.525,126.724Z" transform="translate(-399.438 -91.202)" fill="#59836b"/><path d="M450.971,126.724a1.487,1.487,0,1,1-1.485-1.422A1.454,1.454,0,0,1,450.971,126.724Z" transform="translate(-394.512 -91.202)" fill="#59836b"/><ellipse cx="1.486" cy="1.421" rx="1.486" ry="1.421" transform="translate(0 45.467)" fill="#59836b"/><path d="M425.632,134.232a1.487,1.487,0,1,1-1.485-1.422A1.454,1.454,0,0,1,425.632,134.232Z" transform="translate(-409.289 -87.343)" fill="#59836b"/><ellipse cx="1.486" cy="1.421" rx="1.486" ry="1.421" transform="translate(26.743 45.467)" fill="#59836b"/><path d="M442.525,134.232a1.487,1.487,0,1,1-1.487-1.422A1.454,1.454,0,0,1,442.525,134.232Z" transform="translate(-399.438 -87.343)" fill="#59836b"/><path d="M450.971,134.232a1.487,1.487,0,1,1-1.485-1.422A1.454,1.454,0,0,1,450.971,134.232Z" transform="translate(-394.512 -87.343)" fill="#59836b"/></svg>