<svg xmlns="http://www.w3.org/2000/svg" width="84.696" height="81.342" viewBox="0 0 84.696 81.342"><g transform="translate(-6103.639 10267.85)"><g transform="translate(0 -304)"><g transform="translate(6103.639 -9963.85)"><path d="M32.829,61.313A32.866,32.866,0,0,0,0,28.484V0A61.382,61.382,0,0,1,61.313,61.313Z" transform="translate(23.383 20.029)" fill="#22cac5"/><path d="M40.671,0A40.671,40.671,0,1,1,0,40.671,40.671,40.671,0,0,1,40.671,0Z" transform="translate(0)" fill="#31313c" opacity="0.444" style="mix-blend-mode:multiply;isolation:isolate"/><g transform="translate(15.879 16.813)"><path d="M415.319,50.752a.553.553,0,1,1-.553-.528A.541.541,0,0,1,415.319,50.752Z" transform="translate(-414.214 -50.224)" fill="#fff"/><path d="M423.765,50.752a.553.553,0,1,1-.552-.528A.54.54,0,0,1,423.765,50.752Z" transform="translate(-417.69 -50.224)" fill="#fff"/><path d="M432.21,50.752a.553.553,0,1,1-.552-.528A.54.54,0,0,1,432.21,50.752Z" transform="translate(-421.166 -50.224)" fill="#fff"/><path d="M440.658,50.752a.553.553,0,1,1-.553-.528A.541.541,0,0,1,440.658,50.752Z" transform="translate(-424.642 -50.224)" fill="#fff"/><path d="M449.1,50.752a.553.553,0,1,1-.552-.528A.541.541,0,0,1,449.1,50.752Z" transform="translate(-428.118 -50.224)" fill="#fff"/><path d="M457.55,50.752a.553.553,0,1,1-.552-.528A.541.541,0,0,1,457.55,50.752Z" transform="translate(-431.594 -50.224)" fill="#fff"/><path d="M466,50.752a.553.553,0,1,1-.553-.528A.541.541,0,0,1,466,50.752Z" transform="translate(-435.07 -50.224)" fill="#fff"/><path d="M474.443,50.752a.553.553,0,1,1-.552-.528A.54.54,0,0,1,474.443,50.752Z" transform="translate(-438.546 -50.224)" fill="#fff"/><path d="M482.888,50.752a.553.553,0,1,1-.552-.528A.541.541,0,0,1,482.888,50.752Z" transform="translate(-442.022 -50.224)" fill="#fff"/><path d="M491.335,50.752a.553.553,0,1,1-.552-.528A.541.541,0,0,1,491.335,50.752Z" transform="translate(-445.498 -50.224)" fill="#fff"/><path d="M499.782,50.752a.553.553,0,1,1-.553-.528A.541.541,0,0,1,499.782,50.752Z" transform="translate(-448.974 -50.224)" fill="#fff"/><g transform="translate(0 4.225)"><path d="M415.319,58.26a.553.553,0,1,1-.553-.528A.541.541,0,0,1,415.319,58.26Z" transform="translate(-414.214 -57.732)" fill="#fff"/><path d="M423.765,58.26a.553.553,0,1,1-.552-.528A.54.54,0,0,1,423.765,58.26Z" transform="translate(-417.69 -57.732)" fill="#fff"/><path d="M432.21,58.26a.553.553,0,1,1-.552-.528A.54.54,0,0,1,432.21,58.26Z" transform="translate(-421.166 -57.732)" fill="#fff"/><path d="M440.658,58.26a.553.553,0,1,1-.553-.528A.541.541,0,0,1,440.658,58.26Z" transform="translate(-424.642 -57.732)" fill="#fff"/><path d="M449.1,58.26a.553.553,0,1,1-.552-.528A.54.54,0,0,1,449.1,58.26Z" transform="translate(-428.118 -57.732)" fill="#fff"/><path d="M457.55,58.26a.553.553,0,1,1-.552-.528A.54.54,0,0,1,457.55,58.26Z" transform="translate(-431.594 -57.732)" fill="#fff"/><path d="M466,58.26a.553.553,0,1,1-.553-.528A.541.541,0,0,1,466,58.26Z" transform="translate(-435.07 -57.732)" fill="#fff"/><path d="M474.443,58.26a.553.553,0,1,1-.552-.528A.54.54,0,0,1,474.443,58.26Z" transform="translate(-438.546 -57.732)" fill="#fff"/><path d="M482.888,58.26a.553.553,0,1,1-.552-.528A.541.541,0,0,1,482.888,58.26Z" transform="translate(-442.022 -57.732)" fill="#fff"/><path d="M491.335,58.26a.553.553,0,1,1-.552-.528A.541.541,0,0,1,491.335,58.26Z" transform="translate(-445.498 -57.732)" fill="#fff"/><path d="M499.782,58.26a.553.553,0,1,1-.553-.528A.541.541,0,0,1,499.782,58.26Z" transform="translate(-448.974 -57.732)" fill="#fff"/></g><g transform="translate(0 8.45)"><ellipse cx="0.552" cy="0.528" rx="0.552" ry="0.528" fill="#fff"/><path d="M423.765,65.768a.553.553,0,1,1-.552-.528A.541.541,0,0,1,423.765,65.768Z" transform="translate(-417.69 -65.24)" fill="#fff"/><ellipse cx="0.552" cy="0.528" rx="0.552" ry="0.528" transform="translate(9.941)" fill="#fff"/><path d="M440.658,65.768a.553.553,0,1,1-.553-.528A.541.541,0,0,1,440.658,65.768Z" transform="translate(-424.642 -65.24)" fill="#fff"/><path d="M449.1,65.768a.553.553,0,1,1-.552-.528A.541.541,0,0,1,449.1,65.768Z" transform="translate(-428.118 -65.24)" fill="#fff"/><ellipse cx="0.552" cy="0.528" rx="0.552" ry="0.528" transform="translate(24.852)" fill="#fff"/><path d="M466,65.768a.553.553,0,1,1-.553-.528A.541.541,0,0,1,466,65.768Z" transform="translate(-435.07 -65.24)" fill="#fff"/><ellipse cx="0.552" cy="0.528" rx="0.552" ry="0.528" transform="translate(34.792)" fill="#fff"/><ellipse cx="0.552" cy="0.528" rx="0.552" ry="0.528" transform="translate(39.763)" fill="#fff"/><path d="M491.335,65.768a.553.553,0,1,1-.552-.528A.541.541,0,0,1,491.335,65.768Z" transform="translate(-445.498 -65.24)" fill="#fff"/><path d="M499.782,65.768a.553.553,0,1,1-.553-.528A.541.541,0,0,1,499.782,65.768Z" transform="translate(-448.974 -65.24)" fill="#fff"/></g><g transform="translate(0 12.675)"><ellipse cx="0.552" cy="0.528" rx="0.552" ry="0.528" transform="translate(0 0)" fill="#fff"/><path d="M423.765,73.275a.553.553,0,1,1-.552-.528A.54.54,0,0,1,423.765,73.275Z" transform="translate(-417.69 -72.747)" fill="#fff"/><ellipse cx="0.552" cy="0.528" rx="0.552" ry="0.528" transform="translate(9.941 0)" fill="#fff"/><path d="M440.658,73.275a.553.553,0,1,1-.553-.528A.541.541,0,0,1,440.658,73.275Z" transform="translate(-424.642 -72.747)" fill="#fff"/><path d="M449.1,73.275a.553.553,0,1,1-.552-.528A.54.54,0,0,1,449.1,73.275Z" transform="translate(-428.118 -72.747)" fill="#fff"/><ellipse cx="0.552" cy="0.528" rx="0.552" ry="0.528" transform="translate(24.852 0)" fill="#fff"/><path d="M466,73.275a.553.553,0,1,1-.553-.528A.541.541,0,0,1,466,73.275Z" transform="translate(-435.07 -72.747)" fill="#fff"/><ellipse cx="0.552" cy="0.528" rx="0.552" ry="0.528" transform="translate(34.792 0)" fill="#fff"/><ellipse cx="0.552" cy="0.528" rx="0.552" ry="0.528" transform="translate(39.763 0)" fill="#fff"/><path d="M491.335,73.275a.553.553,0,1,1-.552-.528A.541.541,0,0,1,491.335,73.275Z" transform="translate(-445.498 -72.747)" fill="#fff"/><path d="M499.782,73.275a.553.553,0,1,1-.553-.528A.541.541,0,0,1,499.782,73.275Z" transform="translate(-448.974 -72.747)" fill="#fff"/></g><g transform="translate(0 16.9)"><path d="M415.319,80.783a.553.553,0,1,1-.553-.528A.541.541,0,0,1,415.319,80.783Z" transform="translate(-414.214 -80.255)" fill="#fff"/><path d="M423.765,80.783a.553.553,0,1,1-.552-.528A.54.54,0,0,1,423.765,80.783Z" transform="translate(-417.69 -80.255)" fill="#fff"/><path d="M432.21,80.783a.553.553,0,1,1-.552-.528A.54.54,0,0,1,432.21,80.783Z" transform="translate(-421.166 -80.255)" fill="#fff"/><path d="M440.658,80.783a.553.553,0,1,1-.553-.528A.541.541,0,0,1,440.658,80.783Z" transform="translate(-424.642 -80.255)" fill="#fff"/><path d="M449.1,80.783a.553.553,0,1,1-.552-.528A.54.54,0,0,1,449.1,80.783Z" transform="translate(-428.118 -80.255)" fill="#fff"/><path d="M457.55,80.783a.553.553,0,1,1-.552-.528A.54.54,0,0,1,457.55,80.783Z" transform="translate(-431.594 -80.255)" fill="#fff"/><path d="M466,80.783a.553.553,0,1,1-.553-.528A.541.541,0,0,1,466,80.783Z" transform="translate(-435.07 -80.255)" fill="#fff"/><path d="M474.443,80.783a.553.553,0,1,1-.552-.528A.54.54,0,0,1,474.443,80.783Z" transform="translate(-438.546 -80.255)" fill="#fff"/><path d="M482.888,80.783a.553.553,0,1,1-.552-.528A.54.54,0,0,1,482.888,80.783Z" transform="translate(-442.022 -80.255)" fill="#fff"/><path d="M491.335,80.783a.553.553,0,1,1-.552-.528A.541.541,0,0,1,491.335,80.783Z" transform="translate(-445.498 -80.255)" fill="#fff"/><path d="M499.782,80.783a.553.553,0,1,1-.553-.528A.541.541,0,0,1,499.782,80.783Z" transform="translate(-448.974 -80.255)" fill="#fff"/></g><g transform="translate(0 21.125)"><ellipse cx="0.552" cy="0.528" rx="0.552" ry="0.528" transform="translate(0 0)" fill="#fff"/><path d="M423.765,88.291a.553.553,0,1,1-.552-.528A.54.54,0,0,1,423.765,88.291Z" transform="translate(-417.69 -87.763)" fill="#fff"/><ellipse cx="0.552" cy="0.528" rx="0.552" ry="0.528" transform="translate(9.941 0)" fill="#fff"/><path d="M440.658,88.291a.553.553,0,1,1-.553-.528A.541.541,0,0,1,440.658,88.291Z" transform="translate(-424.642 -87.763)" fill="#fff"/><path d="M449.1,88.291a.553.553,0,1,1-.552-.528A.54.54,0,0,1,449.1,88.291Z" transform="translate(-428.118 -87.763)" fill="#fff"/><ellipse cx="0.552" cy="0.528" rx="0.552" ry="0.528" transform="translate(24.852 0)" fill="#fff"/><path d="M466,88.291a.553.553,0,1,1-.553-.528A.541.541,0,0,1,466,88.291Z" transform="translate(-435.07 -87.763)" fill="#fff"/><ellipse cx="0.552" cy="0.528" rx="0.552" ry="0.528" transform="translate(34.792 0)" fill="#fff"/><ellipse cx="0.552" cy="0.528" rx="0.552" ry="0.528" transform="translate(39.763 0)" fill="#fff"/><path d="M491.335,88.291a.553.553,0,1,1-.552-.528A.541.541,0,0,1,491.335,88.291Z" transform="translate(-445.498 -87.763)" fill="#fff"/><path d="M499.782,88.291a.553.553,0,1,1-.553-.528A.541.541,0,0,1,499.782,88.291Z" transform="translate(-448.974 -87.763)" fill="#fff"/></g><g transform="translate(0 25.35)"><ellipse cx="0.552" cy="0.528" rx="0.552" ry="0.528" fill="#fff"/><path d="M423.765,95.8a.553.553,0,1,1-.552-.528A.54.54,0,0,1,423.765,95.8Z" transform="translate(-417.69 -95.271)" fill="#fff"/><ellipse cx="0.552" cy="0.528" rx="0.552" ry="0.528" transform="translate(9.941)" fill="#fff"/><path d="M440.658,95.8a.553.553,0,1,1-.553-.528A.541.541,0,0,1,440.658,95.8Z" transform="translate(-424.642 -95.271)" fill="#fff"/><path d="M449.1,95.8a.553.553,0,1,1-.552-.528A.541.541,0,0,1,449.1,95.8Z" transform="translate(-428.118 -95.271)" fill="#fff"/><ellipse cx="0.552" cy="0.528" rx="0.552" ry="0.528" transform="translate(24.852)" fill="#fff"/><path d="M466,95.8a.553.553,0,1,1-.553-.528A.541.541,0,0,1,466,95.8Z" transform="translate(-435.07 -95.271)" fill="#fff"/><ellipse cx="0.552" cy="0.528" rx="0.552" ry="0.528" transform="translate(34.792)" fill="#fff"/><ellipse cx="0.552" cy="0.528" rx="0.552" ry="0.528" transform="translate(39.763)" fill="#fff"/><path d="M491.335,95.8a.553.553,0,1,1-.552-.528A.541.541,0,0,1,491.335,95.8Z" transform="translate(-445.498 -95.271)" fill="#fff"/><path d="M499.782,95.8a.553.553,0,1,1-.553-.528A.541.541,0,0,1,499.782,95.8Z" transform="translate(-448.974 -95.271)" fill="#fff"/></g><g transform="translate(0 29.576)"><path d="M415.319,103.307a.553.553,0,1,1-.553-.528A.541.541,0,0,1,415.319,103.307Z" transform="translate(-414.214 -102.779)" fill="#fff"/><path d="M423.765,103.307a.553.553,0,1,1-.552-.528A.54.54,0,0,1,423.765,103.307Z" transform="translate(-417.69 -102.779)" fill="#fff"/><path d="M432.21,103.307a.553.553,0,1,1-.552-.528A.54.54,0,0,1,432.21,103.307Z" transform="translate(-421.166 -102.779)" fill="#fff"/><path d="M440.658,103.307a.553.553,0,1,1-.553-.528A.541.541,0,0,1,440.658,103.307Z" transform="translate(-424.642 -102.779)" fill="#fff"/><path d="M449.1,103.307a.553.553,0,1,1-.552-.528A.541.541,0,0,1,449.1,103.307Z" transform="translate(-428.118 -102.779)" fill="#fff"/><path d="M457.55,103.307a.553.553,0,1,1-.552-.528A.541.541,0,0,1,457.55,103.307Z" transform="translate(-431.594 -102.779)" fill="#fff"/><path d="M466,103.307a.553.553,0,1,1-.553-.528A.541.541,0,0,1,466,103.307Z" transform="translate(-435.07 -102.779)" fill="#fff"/><path d="M474.443,103.307a.553.553,0,1,1-.552-.528A.54.54,0,0,1,474.443,103.307Z" transform="translate(-438.546 -102.779)" fill="#fff"/><path d="M482.888,103.307a.553.553,0,1,1-.552-.528A.541.541,0,0,1,482.888,103.307Z" transform="translate(-442.022 -102.779)" fill="#fff"/><path d="M491.335,103.307a.553.553,0,1,1-.552-.528A.541.541,0,0,1,491.335,103.307Z" transform="translate(-445.498 -102.779)" fill="#fff"/><path d="M499.782,103.307a.553.553,0,1,1-.553-.528A.541.541,0,0,1,499.782,103.307Z" transform="translate(-448.974 -102.779)" fill="#fff"/></g><g transform="translate(0 33.801)"><ellipse cx="0.552" cy="0.528" rx="0.552" ry="0.528" fill="#fff"/><path d="M423.765,110.815a.553.553,0,1,1-.552-.528A.541.541,0,0,1,423.765,110.815Z" transform="translate(-417.69 -110.287)" fill="#fff"/><ellipse cx="0.552" cy="0.528" rx="0.552" ry="0.528" transform="translate(9.941)" fill="#fff"/><path d="M440.658,110.815a.553.553,0,1,1-.553-.528A.541.541,0,0,1,440.658,110.815Z" transform="translate(-424.642 -110.287)" fill="#fff"/><path d="M449.1,110.815a.553.553,0,1,1-.552-.528A.541.541,0,0,1,449.1,110.815Z" transform="translate(-428.118 -110.287)" fill="#fff"/><ellipse cx="0.552" cy="0.528" rx="0.552" ry="0.528" transform="translate(24.852)" fill="#fff"/><path d="M466,110.815a.553.553,0,1,1-.553-.528A.541.541,0,0,1,466,110.815Z" transform="translate(-435.07 -110.287)" fill="#fff"/><ellipse cx="0.552" cy="0.528" rx="0.552" ry="0.528" transform="translate(34.792)" fill="#fff"/><ellipse cx="0.552" cy="0.528" rx="0.552" ry="0.528" transform="translate(39.763)" fill="#fff"/><path d="M491.335,110.815a.553.553,0,1,1-.552-.528A.541.541,0,0,1,491.335,110.815Z" transform="translate(-445.498 -110.287)" fill="#fff"/><path d="M499.782,110.815a.553.553,0,1,1-.553-.528A.541.541,0,0,1,499.782,110.815Z" transform="translate(-448.974 -110.287)" fill="#fff"/></g><g transform="translate(0 38.025)"><path d="M415.319,118.322a.553.553,0,1,1-.553-.528A.541.541,0,0,1,415.319,118.322Z" transform="translate(-414.214 -117.794)" fill="#fff"/><path d="M423.765,118.322a.553.553,0,1,1-.552-.528A.541.541,0,0,1,423.765,118.322Z" transform="translate(-417.69 -117.794)" fill="#fff"/><path d="M432.21,118.322a.553.553,0,1,1-.552-.528A.541.541,0,0,1,432.21,118.322Z" transform="translate(-421.166 -117.794)" fill="#fff"/><path d="M440.658,118.322a.553.553,0,1,1-.553-.528A.541.541,0,0,1,440.658,118.322Z" transform="translate(-424.642 -117.794)" fill="#fff"/><path d="M449.1,118.322a.553.553,0,1,1-.552-.528A.541.541,0,0,1,449.1,118.322Z" transform="translate(-428.118 -117.794)" fill="#fff"/><path d="M457.55,118.322a.553.553,0,1,1-.552-.528A.541.541,0,0,1,457.55,118.322Z" transform="translate(-431.594 -117.794)" fill="#fff"/><path d="M466,118.322a.553.553,0,1,1-.553-.528A.541.541,0,0,1,466,118.322Z" transform="translate(-435.07 -117.794)" fill="#fff"/><path d="M474.443,118.322a.553.553,0,1,1-.552-.528A.541.541,0,0,1,474.443,118.322Z" transform="translate(-438.546 -117.794)" fill="#fff"/><path d="M482.888,118.322a.553.553,0,1,1-.552-.528A.541.541,0,0,1,482.888,118.322Z" transform="translate(-442.022 -117.794)" fill="#fff"/><path d="M491.335,118.322a.553.553,0,1,1-.552-.528A.541.541,0,0,1,491.335,118.322Z" transform="translate(-445.498 -117.794)" fill="#fff"/><path d="M499.782,118.322a.553.553,0,1,1-.553-.528A.541.541,0,0,1,499.782,118.322Z" transform="translate(-448.974 -117.794)" fill="#fff"/></g><g transform="translate(0 42.251)"><ellipse cx="0.552" cy="0.528" rx="0.552" ry="0.528" transform="translate(0 0)" fill="#fff"/><path d="M423.765,125.83a.553.553,0,1,1-.552-.528A.54.54,0,0,1,423.765,125.83Z" transform="translate(-417.69 -125.302)" fill="#fff"/><ellipse cx="0.552" cy="0.528" rx="0.552" ry="0.528" transform="translate(9.941 0)" fill="#fff"/><path d="M440.658,125.83a.553.553,0,1,1-.553-.528A.541.541,0,0,1,440.658,125.83Z" transform="translate(-424.642 -125.302)" fill="#fff"/><path d="M449.1,125.83a.553.553,0,1,1-.552-.528A.54.54,0,0,1,449.1,125.83Z" transform="translate(-428.118 -125.302)" fill="#fff"/><ellipse cx="0.552" cy="0.528" rx="0.552" ry="0.528" transform="translate(24.852 0)" fill="#fff"/><path d="M466,125.83a.553.553,0,1,1-.553-.528A.541.541,0,0,1,466,125.83Z" transform="translate(-435.07 -125.302)" fill="#fff"/><ellipse cx="0.552" cy="0.528" rx="0.552" ry="0.528" transform="translate(34.792 0)" fill="#fff"/><ellipse cx="0.552" cy="0.528" rx="0.552" ry="0.528" transform="translate(39.763 0)" fill="#fff"/><path d="M491.335,125.83a.553.553,0,1,1-.552-.528A.541.541,0,0,1,491.335,125.83Z" transform="translate(-445.498 -125.302)" fill="#fff"/><path d="M499.782,125.83a.553.553,0,1,1-.553-.528A.541.541,0,0,1,499.782,125.83Z" transform="translate(-448.974 -125.302)" fill="#fff"/></g><g transform="translate(0 46.476)"><ellipse cx="0.552" cy="0.528" rx="0.552" ry="0.528" transform="translate(0 0)" fill="#fff"/><path d="M423.765,133.338a.553.553,0,1,1-.552-.528A.54.54,0,0,1,423.765,133.338Z" transform="translate(-417.69 -132.81)" fill="#fff"/><ellipse cx="0.552" cy="0.528" rx="0.552" ry="0.528" transform="translate(9.941 0)" fill="#fff"/><path d="M440.658,133.338a.553.553,0,1,1-.553-.528A.541.541,0,0,1,440.658,133.338Z" transform="translate(-424.642 -132.81)" fill="#fff"/><path d="M449.1,133.338a.553.553,0,1,1-.552-.528A.54.54,0,0,1,449.1,133.338Z" transform="translate(-428.118 -132.81)" fill="#fff"/><ellipse cx="0.552" cy="0.528" rx="0.552" ry="0.528" transform="translate(24.852 0)" fill="#fff"/><path d="M466,133.338a.553.553,0,1,1-.553-.528A.541.541,0,0,1,466,133.338Z" transform="translate(-435.07 -132.81)" fill="#fff"/><ellipse cx="0.552" cy="0.528" rx="0.552" ry="0.528" transform="translate(34.792 0)" fill="#fff"/><ellipse cx="0.552" cy="0.528" rx="0.552" ry="0.528" transform="translate(39.763 0)" fill="#fff"/><path d="M491.335,133.338a.553.553,0,1,1-.552-.528A.541.541,0,0,1,491.335,133.338Z" transform="translate(-445.498 -132.81)" fill="#fff"/><path d="M499.782,133.338a.553.553,0,1,1-.553-.528A.541.541,0,0,1,499.782,133.338Z" transform="translate(-448.974 -132.81)" fill="#fff"/></g></g></g><g transform="translate(6071.918 -9946.18)"><rect width="30.247" height="33.128" transform="translate(56.784 7.877)" fill="#dfbba0"/><rect width="30.247" height="28.807" transform="translate(58.945 12.198)" fill="#b15815"/><rect width="30.247" height="33.128" transform="translate(61.105 12.198)" fill="#a6eae8"/><path d="M91.352,11.523H87.707V7.877a.675.675,0,0,0-.675-.675h-12.3l0-.774a6.441,6.441,0,0,0-12.881.009V7.2H56.784a.675.675,0,0,0-.675.675V41a.675.675,0,0,0,.675.675H60.43v3.646a.675.675,0,0,0,.675.675H91.352a.675.675,0,0,0,.675-.675V12.2A.675.675,0,0,0,91.352,11.523ZM63.2,6.437a5.09,5.09,0,0,1,10.18-.007V7.2H71.141l0-.746a2.848,2.848,0,1,0-5.7-.007V7.2H63.2V6.437Zm10.2,8.265a3.3,3.3,0,1,1-6.6,0V12.873h2.977l-.006,2.2a.675.675,0,0,0,.673.677h0a.675.675,0,0,0,.675-.673l.006-2.207h2.265Zm-3.6-7.5H66.8V6.449a1.5,1.5,0,1,1,3,0Zm0,1.35-.008,2.971H66.8V8.552Zm1.342,2.971.008-2.971h2.244l.006,2.971ZM57.459,40.33V8.552h7.987v2.971H61.105a.675.675,0,0,0-.675.675V40.33H57.459Zm33.218,4.321H61.78V12.873h3.666v1.833a4.648,4.648,0,1,0,9.3-.007l0-1.826h3.6a.675.675,0,1,0,0-1.35H74.737l-.006-2.971H86.356v2.971H81.675a.675.675,0,1,0,0,1.35h9V44.651Z" transform="translate(0 0)"/><path d="M152.972,241.819h13.683a.675.675,0,1,0,0-1.35H152.972a.675.675,0,1,0,0,1.35Z" transform="translate(-87.546 -218.864)"/><path d="M278.154,320.626H265.191a.675.675,0,0,0,0,1.35h12.963a.675.675,0,1,0,0-1.35Z" transform="translate(-189.683 -291.819)"/><path d="M166.655,400.783H152.972a.675.675,0,1,0,0,1.35h13.683a.675.675,0,1,0,0-1.35Z" transform="translate(-87.546 -364.774)"/><path d="M336.658,241.144a.675.675,0,0,0,.675.675h6.482a.675.675,0,0,0,0-1.35h-6.482A.675.675,0,0,0,336.658,241.144Z" transform="translate(-255.343 -218.864)"/><path d="M152.972,321.976h7.2a.675.675,0,1,0,0-1.35h-7.2a.675.675,0,1,0,0,1.35Z" transform="translate(-87.546 -291.819)"/><path d="M343.814,400.783h-6.482a.675.675,0,0,0,0,1.35h6.482a.675.675,0,0,0,0-1.35Z" transform="translate(-255.342 -364.774)"/></g></g></g></svg>