<svg xmlns="http://www.w3.org/2000/svg" xmlns:xlink="http://www.w3.org/1999/xlink" width="83" height="83" viewBox="0 0 83 83"><defs><clipPath id="a"><path d="M0-682.665H48.5v48.5H0Z" transform="translate(0 682.665)"/></clipPath></defs><g transform="translate(9469 8667.282)"><circle cx="41.5" cy="41.5" r="41.5" transform="translate(-9469 -8667.282)" fill="#d1ced9"/><g transform="translate(-9451.751 -7967.367)"><g transform="translate(0 -682.665)"><g clip-path="url(#a)"><g transform="translate(17.399 0.71)"><path d="M-158.112,0H-169.73a.475.475,0,0,0-.475.475v7.2a.475.475,0,0,0,.475.475h3.457a.574.574,0,0,1,.461.232l1.374,1.852a.644.644,0,0,0,1.035,0l1.374-1.852a.574.574,0,0,1,.461-.232h3.456a.475.475,0,0,0,.475-.475V.475A.475.475,0,0,0-158.112,0" transform="translate(170.205)" fill="#a6eae8"/></g><g transform="translate(2.256 24.531)"><path d="M0-6.214V12.769a.95.95,0,0,0,.95.95H26.687V-6.214a.475.475,0,0,0-.475-.475H.475A.475.475,0,0,0,0-6.214" transform="translate(0 6.689)" fill="#efddcf"/></g><g transform="translate(26.1 24.531)"><path d="M-30.965,0h-2.368a.475.475,0,0,1,.475.475V20.409h2.368V.475A.475.475,0,0,0-30.965,0" transform="translate(33.333)" fill="#dfbba0"/></g><g transform="translate(2.256 40.594)"><path d="M0,0V3.4a.95.95,0,0,0,.95.95H26.687V0Z" fill="#ffe177"/></g><path d="M374.059-106.951h2.368V-111.3h-2.368Z" transform="translate(-347.484 151.891)" fill="#fec165"/><g transform="translate(28.944 27.291)"><path d="M0,0H9.784a1.638,1.638,0,0,1,1.5.988l2.591,5.989,2.487,2.1A2.641,2.641,0,0,1,17.3,11.1v6.076a.475.475,0,0,1-.475.475H0Z" fill="#a6eae8"/></g><g transform="translate(36.359 27.291)"><path d="M-117.028-118.744l-2.487-2.1-2.591-5.989a1.638,1.638,0,0,0-1.5-.988h-2.368a1.639,1.639,0,0,1,1.5.988l2.591,5.989,2.487,2.1a2.641,2.641,0,0,1,.935,2.016v6.076a.475.475,0,0,1-.475.475h2.368a.475.475,0,0,0,.475-.475v-6.076a2.641,2.641,0,0,0-.935-2.016" transform="translate(125.978 127.825)" fill="#22cac5"/></g><g transform="translate(37.229 30.228)"><path d="M-6.212-52.821h5.119l-1.748-4.04H-6.212a.475.475,0,0,0-.475.475v3.09a.475.475,0,0,0,.475.475" transform="translate(6.687 56.861)" fill="#3692bc"/></g><g transform="translate(38.707 30.228)"><path d="M-30.965,0h-2.368l1.748,4.04h2.368Z" transform="translate(33.333)" fill="#0681af"/></g><g transform="translate(31.693 30.228)"><path d="M-37.6-6.213v3.09a.475.475,0,0,1-.475.475H-40a.475.475,0,0,1-.475-.475v-3.09A.475.475,0,0,1-40-6.688h1.925a.475.475,0,0,1,.475.475" transform="translate(40.472 6.688)" fill="#3692bc"/></g><g transform="translate(33.506 39.007)"><path d="M-57.424-114.847a4.4,4.4,0,0,1-4.392-4.392,4.4,4.4,0,0,1,4.392-4.392,4.4,4.4,0,0,1,4.392,4.392,4.4,4.4,0,0,1-4.392,4.392" transform="translate(61.816 123.63)" fill="#3692bc"/></g><g transform="translate(36.357 41.857)"><path d="M-20.151,0a1.541,1.541,0,0,0-1.541,1.541,1.541,1.541,0,0,0,1.541,1.541A1.541,1.541,0,0,0-18.61,1.541,1.541,1.541,0,0,0-20.151,0" transform="translate(21.692)" fill="#fff9df"/></g><g transform="translate(7.364 39.007)"><path d="M-57.424-114.847a4.4,4.4,0,0,1-4.392-4.392,4.4,4.4,0,0,1,4.392-4.392,4.4,4.4,0,0,1,4.392,4.392,4.4,4.4,0,0,1-4.392,4.392" transform="translate(61.816 123.63)" fill="#3692bc"/></g><g transform="translate(10.215 41.857)"><path d="M-20.151,0a1.541,1.541,0,0,0-1.541,1.541,1.541,1.541,0,0,0,1.541,1.541A1.541,1.541,0,0,0-18.61,1.541,1.541,1.541,0,0,0-20.151,0" transform="translate(21.692)" fill="#fff9df"/></g><g transform="translate(2.138 13.984)"><path d="M-276.078-14.443h-16.45a2.555,2.555,0,0,0-2.105-1.1,2.559,2.559,0,0,0-2.559,2.559,2.559,2.559,0,0,0,2.559,2.559,2.555,2.555,0,0,0,2.105-1.1h16.45Z" transform="translate(297.193 15.548)" fill="#22cac5"/></g><g transform="translate(21.085 13.984)"><path d="M-195.565-14.443h-10.293a2.556,2.556,0,0,0-2.105-1.1,2.559,2.559,0,0,0-2.559,2.559,2.559,2.559,0,0,0,2.559,2.559,2.556,2.556,0,0,0,2.105-1.1h10.293Z" transform="translate(210.522 15.548)" fill="#ffe177"/></g><g transform="translate(35.431 11.076)"><path d="M-71.466-94.108A1.732,1.732,0,0,1-73.2-95.839a1.732,1.732,0,0,1,1.732-1.732,1.732,1.732,0,0,1,1.732,1.732,1.732,1.732,0,0,1-1.732,1.732m0-7.2a5.466,5.466,0,0,0-5.466,5.466c0,3.374,3.739,6.2,5.032,7.079a.772.772,0,0,0,.868,0c1.293-.877,5.032-3.7,5.032-7.079a5.466,5.466,0,0,0-5.466-5.466" transform="translate(76.932 101.305)" fill="#fe5694"/></g><g transform="translate(39.76 11.077)"><path d="M-14.862,0A5.48,5.48,0,0,0-16,.119,5.467,5.467,0,0,1-11.67,5.466c0,2.882-2.728,5.365-4.329,6.575.273.207.514.376.7.5a.772.772,0,0,0,.868,0c1.293-.877,5.032-3.7,5.032-7.079A5.466,5.466,0,0,0-14.862,0" transform="translate(15.999)" fill="#fd3581"/></g><g transform="translate(15.868 44.94)"><path d="M-63.156.5h-4.83a.5.5,0,0,1-.5-.5.5.5,0,0,1,.5-.5h4.83a.5.5,0,0,1,.5.5A.5.5,0,0,1-63.156.5Z" transform="translate(67.987)"/></g><g transform="translate(2.256 24.531)"><path d="M-70.442-266.353h-4.437a1.452,1.452,0,0,1-1.45-1.45v-18.984a.976.976,0,0,1,.975-.975h4.318a.5.5,0,0,1,.5.5.5.5,0,0,1-.5.5h-4.293V-267.8a.451.451,0,0,0,.45.45h4.437a.5.5,0,0,1,.5.5A.5.5,0,0,1-70.442-266.353Z" transform="translate(75.829 287.262)"/></g><g transform="translate(10.34 24.531)"><path d="M-173.5-266.353h-4.956a.5.5,0,0,1-.5-.5.5.5,0,0,1,.5-.5H-174v-19.409h-18.1a.5.5,0,0,1-.5-.5.5.5,0,0,1,.5-.5h18.129a.976.976,0,0,1,.975.975v19.934A.5.5,0,0,1-173.5-266.353Z" transform="translate(192.106 287.262)"/></g><g transform="translate(2.256 40.594)"><path d="M-80.066.5h-6.123a.5.5,0,0,1-.5-.5.5.5,0,0,1,.5-.5h6.123a.5.5,0,0,1,.5.5A.5.5,0,0,1-80.066.5Z" transform="translate(86.189)"/></g><g transform="translate(15.132 40.594)"><path d="M-180.592.5H-194.4a.5.5,0,0,1-.5-.5.5.5,0,0,1,.5-.5h13.812a.5.5,0,0,1,.5.5A.5.5,0,0,1-180.592.5Z" transform="translate(194.404)"/></g><g transform="translate(28.944 44.94)"><path d="M-63.314.5h-4.842a.5.5,0,0,1-.5-.5.5.5,0,0,1,.5-.5h4.842a.5.5,0,0,1,.5.5A.5.5,0,0,1-63.314.5Z" transform="translate(68.156)"/></g><g transform="translate(28.944 27.291)"><path d="M16.826,18.149h-3.76a.5.5,0,0,1,0-1H16.8V11.1a2.138,2.138,0,0,0-.758-1.635l-2.487-2.1a.5.5,0,0,1-.136-.183L10.829,1.186A1.138,1.138,0,0,0,9.784.5H0A.5.5,0,0,1-.5,0,.5.5,0,0,1,0-.5H9.784A2.137,2.137,0,0,1,11.747.789l2.545,5.882,2.4,2.029A3.136,3.136,0,0,1,17.8,11.1v6.076A.976.976,0,0,1,16.826,18.149Z"/></g><g transform="translate(37.229 30.228)"><path d="M-48.537,4.54h-5.119a.976.976,0,0,1-.975-.975V.475A.976.976,0,0,1-53.655-.5h3.371a.5.5,0,0,1,.5.5.5.5,0,0,1-.5.5h-3.346V3.54h5.094a.5.5,0,0,1,.5.5A.5.5,0,0,1-48.537,4.54Z" transform="translate(54.131)"/></g><g transform="translate(31.693 30.228)"><path d="M-40-7.188h1.925a.976.976,0,0,1,.975.975v3.09a.976.976,0,0,1-.975.975H-40a.976.976,0,0,1-.975-.975v-3.09A.976.976,0,0,1-40-7.188Zm1.9,1h-1.875v3.04H-38.1Z" transform="translate(40.472 6.688)"/></g><g transform="translate(33.506 39.007)"><path d="M-57.424-114.347a4.9,4.9,0,0,1-4.892-4.892,4.9,4.9,0,0,1,4.892-4.892,4.9,4.9,0,0,1,4.892,4.892A4.9,4.9,0,0,1-57.424-114.347Zm0-8.783a3.9,3.9,0,0,0-3.892,3.892,3.9,3.9,0,0,0,3.892,3.892,3.9,3.9,0,0,0,3.892-3.892A3.9,3.9,0,0,0-57.424-123.13Z" transform="translate(61.816 123.63)"/></g><g transform="translate(36.357 41.857)"><path d="M-20.151-.5A2.043,2.043,0,0,1-18.11,1.541a2.043,2.043,0,0,1-2.041,2.041,2.043,2.043,0,0,1-2.041-2.041A2.043,2.043,0,0,1-20.151-.5Zm0,3.082A1.042,1.042,0,0,0-19.11,1.541,1.042,1.042,0,0,0-20.151.5a1.042,1.042,0,0,0-1.041,1.041A1.042,1.042,0,0,0-20.151,2.582Z" transform="translate(21.692)"/></g><g transform="translate(7.364 39.007)"><path d="M-57.424-114.347a4.9,4.9,0,0,1-4.892-4.892,4.9,4.9,0,0,1,4.892-4.892,4.9,4.9,0,0,1,4.892,4.892A4.9,4.9,0,0,1-57.424-114.347Zm0-8.783a3.9,3.9,0,0,0-3.892,3.892,3.9,3.9,0,0,0,3.892,3.892,3.9,3.9,0,0,0,3.892-3.892A3.9,3.9,0,0,0-57.424-123.13Z" transform="translate(61.816 123.63)"/></g><g transform="translate(10.215 41.857)"><path d="M-20.151-.5A2.043,2.043,0,0,1-18.11,1.541a2.043,2.043,0,0,1-2.041,2.041,2.043,2.043,0,0,1-2.041-2.041A2.043,2.043,0,0,1-20.151-.5Zm0,3.082A1.042,1.042,0,0,0-19.11,1.541,1.042,1.042,0,0,0-20.151.5a1.042,1.042,0,0,0-1.041,1.041A1.042,1.042,0,0,0-20.151,2.582Z" transform="translate(21.692)"/></g><g transform="translate(2.138 13.984)"><path d="M-270.5-50.862a3.062,3.062,0,0,1-3.059-3.059A3.062,3.062,0,0,1-270.5-56.98a3.059,3.059,0,0,1,2.353,1.1h14.488a.5.5,0,0,1,.5.5.5.5,0,0,1-.5.5H-268.4a.5.5,0,0,1-.411-.216,2.059,2.059,0,0,0-1.694-.889,2.061,2.061,0,0,0-2.059,2.059,2.061,2.061,0,0,0,2.059,2.059,2.061,2.061,0,0,0,1.694-.889.5.5,0,0,1,.411-.216h14.736a.5.5,0,0,1,.5.5.5.5,0,0,1-.5.5h-14.488A3.06,3.06,0,0,1-270.5-50.862Z" transform="translate(273.063 56.48)"/></g><g transform="translate(21.085 13.984)"><path d="M-202.135-9.93a3.062,3.062,0,0,1-3.059-3.059,3.062,3.062,0,0,1,3.059-3.059,3.061,3.061,0,0,1,2.353,1.1h9.631a.5.5,0,0,1,.5.5.5.5,0,0,1-.5.5h-9.879a.5.5,0,0,1-.411-.215,2.062,2.062,0,0,0-1.694-.889,2.061,2.061,0,0,0-2.059,2.059,2.061,2.061,0,0,0,2.059,2.059,2.064,2.064,0,0,0,1.695-.89.5.5,0,0,1,.411-.215h9.908a.5.5,0,0,1,.5.5.5.5,0,0,1-.5.5h-9.661A3.063,3.063,0,0,1-202.135-9.93Z" transform="translate(204.694 15.548)"/></g><g transform="translate(35.431 11.076)"><path d="M-71.466-88.127a1.268,1.268,0,0,1-.715-.22,17.117,17.117,0,0,1-3.094-2.685,7.372,7.372,0,0,1-2.157-4.807,5.972,5.972,0,0,1,5.966-5.966A5.972,5.972,0,0,1-65.5-95.839a7.372,7.372,0,0,1-2.157,4.807,17.117,17.117,0,0,1-3.095,2.685A1.268,1.268,0,0,1-71.466-88.127Zm0-12.678a4.971,4.971,0,0,0-4.966,4.966c0,3.156,3.684,5.9,4.813,6.665a.276.276,0,0,0,.306,0c1.129-.766,4.813-3.509,4.813-6.665A4.971,4.971,0,0,0-71.466-100.805Zm0,7.2A2.234,2.234,0,0,1-73.7-95.839a2.234,2.234,0,0,1,2.232-2.232,2.234,2.234,0,0,1,2.232,2.232A2.234,2.234,0,0,1-71.466-93.608Zm0-3.463A1.233,1.233,0,0,0-72.7-95.839a1.233,1.233,0,0,0,1.232,1.232,1.233,1.233,0,0,0,1.232-1.232A1.233,1.233,0,0,0-71.466-97.071Z" transform="translate(76.932 101.305)"/></g><g transform="translate(17.399 0.71)"><path d="M-169.73-.5h11.618a.976.976,0,0,1,.975.975v7.2a.976.976,0,0,1-.975.975h-3.456a.075.075,0,0,0-.06.03L-163,10.533a1.134,1.134,0,0,1-.919.463,1.134,1.134,0,0,1-.919-.462l-1.374-1.852a.075.075,0,0,0-.06-.03h-3.457a.976.976,0,0,1-.975-.975V.475A.976.976,0,0,1-169.73-.5Zm11.592,1H-169.7V7.651h3.431a1.079,1.079,0,0,1,.863.434l1.374,1.852a.141.141,0,0,0,.116.058.141.141,0,0,0,.116-.058l1.374-1.852a1.079,1.079,0,0,1,.863-.434h3.431Z" transform="translate(170.205)"/></g><g transform="translate(21.184 3.388)"><path d="M3.1.5H0A.5.5,0,0,1-.5,0,.5.5,0,0,1,0-.5H3.1a.5.5,0,0,1,.5.5A.5.5,0,0,1,3.1.5Z"/></g><g transform="translate(21.184 6.088)"><path d="M5,.5H0A.5.5,0,0,1-.5,0,.5.5,0,0,1,0-.5H5a.5.5,0,0,1,.5.5A.5.5,0,0,1,5,.5Z"/></g></g></g></g></g></svg>