<svg xmlns="http://www.w3.org/2000/svg" width="83" height="83" viewBox="0 0 83 83"><g transform="translate(7782.898 8667.282)"><circle cx="41.5" cy="41.5" r="41.5" transform="translate(-7782.898 -8667.282)" fill="#d1ced9"/><g transform="translate(-7766.291 -8674.069)"><rect width="32.786" height="39.568" transform="translate(4.826 30.446)" fill="#aeb9cc"/><rect width="31.144" height="37.459" transform="translate(4.826 30.446)" fill="#9ca6b5"/><path d="M40.5,29.423V68.907H7.564V38.92l9.5-9.5Z" transform="translate(-6.829 -3.168)" fill="#aeb9cc"/><path d="M17.061,29.423v9.716h-9.5V38.92Z" transform="translate(-6.829 -3.168)" fill="#c8d0e2"/><path d="M44.1,61.628v6.585H37.514Z" transform="translate(-33.866 -32.241)" fill="#dde6f2"/><path d="M57.943,88.17v.192h0a8.317,8.317,0,0,0-8.318,8.318v17.753H78.467V79.852H66.26A8.318,8.318,0,0,0,57.943,88.17Z" transform="translate(-44.8 -48.693)" fill="#c8d0e2"/><path d="M228.763,106.4a2.741,2.741,0,0,1-.807,1.949l-1.024,1.024-1.477,1.478L211.1,125.2a37.666,37.666,0,0,1-4.441,3.34,20.165,20.165,0,0,1-2.77,1.57,3.719,3.719,0,0,1-1.345.369,1.1,1.1,0,0,1-.169-.012l-.237-.034-.482.482-.055-.054-.271-.271.482-.483-.034-.237a3.325,3.325,0,0,1,.356-1.515,20.162,20.162,0,0,1,1.57-2.771,37.545,37.545,0,0,1,3.34-4.44l15.835-15.834,1.024-1.025a2.756,2.756,0,0,1,3.9,0l.16.16A2.739,2.739,0,0,1,228.763,106.4Z" transform="translate(-181.752 -70.026)" fill="#22cac5"/><path d="M228.76,106.3a2.742,2.742,0,0,1-.806,2.044l-1.024,1.024-1.477,1.478h0a2.716,2.716,0,0,0-3.84,0L201.6,130.864l-.271-.271.482-.483-.034-.237a3.325,3.325,0,0,1,.356-1.515,20.162,20.162,0,0,1,1.57-2.771,37.545,37.545,0,0,1,3.34-4.44l15.835-15.834,1.024-1.025a2.736,2.736,0,0,1,1.9-.806,2.84,2.84,0,0,1,2.037.852l.074.074A2.83,2.83,0,0,1,228.76,106.3Z" transform="translate(-181.75 -70.026)" fill="#a6eae8"/><path d="M428.828,106.4a2.741,2.741,0,0,1-.807,1.949L427,109.371l-4.056-4.056,1.024-1.025a2.756,2.756,0,0,1,3.9,0l.16.16a2.733,2.733,0,0,1,.8,1.71C428.824,106.239,428.828,106.319,428.828,106.4Z" transform="translate(-381.816 -70.027)" fill="#213847"/><path d="M448.139,128.865a2.741,2.741,0,0,1-.807,1.949l-1.024,1.024-1.976-1.976.685-.685a2.759,2.759,0,0,1,3.111-.55C448.135,128.706,448.139,128.786,448.139,128.865Z" transform="translate(-401.127 -92.494)" fill="#324a5e"/><path d="M280.039,55.193h1.436V51.365h-5.1V52.8h3.666Z" transform="translate(-249.499 -22.976)"/><rect width="1.436" height="1.314" transform="translate(30.539 33.968)"/><path d="M264.538,375.886H263.1v2.747h-5.49v1.436h6.926Z" transform="translate(-232.563 -315.942)"/><rect width="1.751" height="1.436" transform="translate(21.255 62.69)"/><rect width="25.591" height="1.436" transform="translate(4.59 38.819)"/><rect width="25.591" height="1.436" transform="translate(4.59 43.3)"/><path d="M48.769,38.268,47.1,39.932l-.824-.824.4-.4a3.28,3.28,0,0,0,0-4.634l-.122-.122a3.276,3.276,0,0,0-4.634,0l-.4.4-2.941,2.941V29.972H34.45V25.914H9.5L0,35.418V66.6H4.134V70.66h34.45V46.8l6.681-6.681.824.824-7.343,7.343,1.016,1.016L49.785,39.283ZM1.436,36.434H10.52V27.351H33.014V42.864L28.1,47.78H4.59v1.436H26.662l-1.612,1.612a18.157,18.157,0,0,0-1.2,1.431H4.59V53.7H22.778c-.382.531-.772,1.1-1.14,1.661a20.676,20.676,0,0,0-1.612,2.849,3.58,3.58,0,0,0-.394,1.78l-.65.65L20,61.651l.65-.65a1.693,1.693,0,0,0,.235.016,4.112,4.112,0,0,0,1.544-.41A20.691,20.691,0,0,0,25.276,59,38.2,38.2,0,0,0,29.8,55.584l3.209-3.209V65.165H1.436Zm7.647-8.068V35H2.452Zm19.705,26.2a36.307,36.307,0,0,1-3.938,2.987,13.4,13.4,0,0,1-3.783,2.011,13.406,13.406,0,0,1,2.011-3.783,36.29,36.29,0,0,1,2.987-3.939L28.4,49.507l2.724,2.724Zm3.353-3.353-2.724-2.724L41.525,36.384l1.362,1.362,1.362,1.362Zm10.8-16.25a1.84,1.84,0,0,1,2.6,0l.122.122a1.842,1.842,0,0,1,0,2.6l-.4.4L43.9,36.73l-1.362-1.362Zm-5.8-3.557V38.73l-2.7,2.7V31.408Zm0,37.815H5.57V66.6h28.88V50.938l2.7-2.7V69.223Z"/><path d="M52.618,346.707a4.423,4.423,0,0,0,2.831-1.188c.243-.181.473-.352.7-.492a1.6,1.6,0,0,1,2.256.271c.158.186.312.407.474.642a3.88,3.88,0,0,0,2.129,1.818,2.705,2.705,0,0,0,.666.084,2.51,2.51,0,0,0,1.359-.39l-.777-1.208a1.154,1.154,0,0,1-.894.122c-.534-.136-.89-.649-1.3-1.244-.175-.253-.357-.515-.561-.755a3.016,3.016,0,0,0-4.109-.558c-.276.172-.541.369-.8.559a3.28,3.28,0,0,1-1.912.9,1.737,1.737,0,0,1-1.512-.962,1.983,1.983,0,0,1,.372-1.851l-1.225-.75a3.475,3.475,0,0,0-.469,3.162A3.172,3.172,0,0,0,52.618,346.707Z" transform="translate(-44.801 -285.089)"/><path d="M160.563,58.4a2.992,2.992,0,0,0-.682.368,1.5,1.5,0,0,0-.491.532,1.58,1.58,0,0,0-.147.72,1.213,1.213,0,0,0,.224.737,2.1,2.1,0,0,0,1.294.742l.731.164a2.377,2.377,0,0,1,.561.19.369.369,0,0,1,.225.345q0,.409-.52.568a2.433,2.433,0,0,1-.659.066,2.179,2.179,0,0,1-1.124-.295,1.93,1.93,0,0,1-.764-.819V63.19a5.837,5.837,0,0,0,1.4.622l.011,1.113a.029.029,0,0,0,.033.033h.95a.039.039,0,0,0,.044-.044V63.889a2.811,2.811,0,0,0,1.36-.856,1.425,1.425,0,0,0,.353-.88,1.273,1.273,0,0,0-.786-1.223,3.15,3.15,0,0,0-.726-.246q-.388-.082-.726-.164a2.084,2.084,0,0,1-.562-.213.445.445,0,0,1-.224-.415.377.377,0,0,1,.224-.382,1.339,1.339,0,0,1,.54-.1,2.457,2.457,0,0,1,1.779.677V58.835a2.272,2.272,0,0,0-1.277-.426V57.154q0-.033-.044-.033h-.95a.039.039,0,0,0-.044.044V58.4Z" transform="translate(-143.729 -28.173)"/></g></g></svg>