<svg xmlns="http://www.w3.org/2000/svg" width="83" height="83" viewBox="0 0 83 83"><g transform="translate(6939.848 8667.283)"><circle cx="41.5" cy="41.5" r="41.5" transform="translate(-6939.848 -8667.283)" fill="#d1ced9"/><g transform="translate(-6924.233 -8672.749)"><g transform="translate(1.003 24.5)"><path d="M47.676,55.453V26.491A1.984,1.984,0,0,0,45.695,24.5H24.559a.58.58,0,0,0-.371.156h-.01v.01l-7.3,7.3a.4.4,0,0,0-.117.2.57.57,0,0,0-.039.176v6.626a4.865,4.865,0,0,0-7.192,1.23c-2.342.751-3.249,3.064-2.674,5.582a1.616,1.616,0,0,0,.683,2.879,6,6,0,0,0,3.152,3.991l-.283.986A7.379,7.379,0,0,0,2.9,59.591L1.012,69.076a.548.548,0,0,0,.107.439.525.525,0,0,0,.41.185H24.49c3.376,0,14.823-.01,18.365,0a7.962,7.962,0,0,0,4.821-14.247Zm-40.419-8.4v-.059a.683.683,0,0,1,.088.361A.548.548,0,0,1,7.257,47.051ZM24.032,26.3v4.577a.937.937,0,0,1-.937.937H18.518ZM8.116,45.8A1.537,1.537,0,0,0,8,45.949c-.673-2.176-.049-4.274,2.049-4.811a.512.512,0,0,0,.351-.312,3.4,3.4,0,0,1,3.093-1.874A4.954,4.954,0,0,1,18.3,43.733a4.494,4.494,0,0,1-.146,1.347c-.049.185-.283.634-.146.8a4.26,4.26,0,0,0-2.723-1.669,8,8,0,0,1-4.567,0,.585.585,0,0,0-.342.02A6,6,0,0,0,8.116,45.8Zm8.041,13.964c.127.39.82.39,1.317.546l-3.386,5.894c.351-1.883,1.835-9.856,2.166-11.573a6.09,6.09,0,0,1,2.41.664l-2.459,3.991A.553.553,0,0,0,16.157,59.766Zm-4.8-5.631.322-1.122A5.315,5.315,0,0,0,14.332,53l.322,1.132L13,55.053ZM11.99,55.7c-.293.185-.576.371-.859.556l-.224-1.161Zm3.113-.605-.215,1.132c-.283-.176-.566-.361-.849-.537Zm.215-2.459a5.466,5.466,0,0,0,1.405-.966v1.952a2.9,2.9,0,0,0-1.122-.01ZM8.487,48.047A5.012,5.012,0,0,1,8.4,47.2c-.01-.215.5-.683.634-.829a5.012,5.012,0,0,1,1.581-1.1,9.075,9.075,0,0,0,4.684.029c.371-.1.927.351,1.2.566a4.33,4.33,0,0,1,1.122,1.327c-.02,2.859-2.9,5.67-5.826,4.772a5.018,5.018,0,0,1-3.308-3.913ZM7.5,55.229a6.073,6.073,0,0,1,2.254-.585l2.166,11.573L8.536,60.322l.956-.234a.526.526,0,0,0,.322-.79L7.355,55.317a.451.451,0,0,1,.146-.088Zm-5.328,13.4L3.93,59.776a6.421,6.421,0,0,1,2.518-3.933L8.536,59.22l-.927.224a.539.539,0,0,0-.342.771l4.821,8.412Zm9.163-11.251L13,56.283c.556.351,1.112.712,1.669,1.054L13,66.295Zm2.576,11.251,4.821-8.412a.527.527,0,0,0-.332-.771l-.927-.224,2.088-3.376a6.453,6.453,0,0,1,2.518,3.923c.107.556,1.708,8.617,1.756,8.851H13.912Zm13.359-2.6a2.156,2.156,0,0,0-.351,2.605H24.91c-.059-.283-1.688-8.529-1.8-9.065a7.557,7.557,0,0,0-5.338-5.738V50.369a9.859,9.859,0,0,0,.732-1.727,1.623,1.623,0,0,0,.625-2.888,6.366,6.366,0,0,0-1.356-5.894V32.873h5.318a1.993,1.993,0,0,0,1.991-1.991V25.544H45.695a.931.931,0,0,1,.927.947V54.76c-.146-.078-.3-.137-.449-.215a2.179,2.179,0,0,0-2.118-1.961H42.211a2.149,2.149,0,0,0-1.835-3.21H27.018a2.132,2.132,0,0,0,0,4.264h1.844a2.156,2.156,0,0,0,.01,2.157,2.15,2.15,0,0,0-1.513,3.737,2.17,2.17,0,0,0,0,3.21,2.162,2.162,0,0,0,.01,3.21A.382.382,0,0,0,27.271,66.031Zm-8.607-18.7a.739.739,0,0,1,.078-.351A.416.416,0,0,1,18.665,47.334ZM34.922,62.216H28.755a1.083,1.083,0,1,1,0-2.166h6.333A8.512,8.512,0,0,0,34.922,62.216Zm-7.231,1.991a1.083,1.083,0,0,1,1.064-.947h6.3a8.491,8.491,0,0,0,.761,2.157H28.755A1.065,1.065,0,0,1,27.691,64.206ZM35.8,58.117a9.058,9.058,0,0,0-.39.888H28.764a1.078,1.078,0,0,1,0-2.157H36.61A6.659,6.659,0,0,0,35.8,58.117Zm-5.1-2.322a1.079,1.079,0,0,1-.029-2.157H44.056a1.086,1.086,0,0,1,.859.439A8.025,8.025,0,0,0,37.6,55.795Zm-3.679-3.21a1.078,1.078,0,0,1,0-2.157H40.377a1.087,1.087,0,0,1,1.083,1.083,1.1,1.1,0,0,1-1.054,1.083C37.8,52.584,29.477,52.584,27.018,52.584Zm1.737,16.043a1.083,1.083,0,0,1-.468-2.049,1.1,1.1,0,0,1,.468-.107h7.719a8.63,8.63,0,0,0,2.41,2.157Zm18.98-2.039a6.9,6.9,0,0,1-11.69-5.894,7.081,7.081,0,0,1,5.7-5.748,6.9,6.9,0,0,1,5.992,11.642Z" transform="translate(-1.003 -24.5)"/></g><g transform="translate(14.039 55.092)"><path d="M135.664,338l-.215,1.132c-.283-.176-.566-.361-.849-.537Z" transform="translate(-134.6 -338)" fill="#e8f2f2"/></g><g transform="translate(10.907 55.092)"><path d="M103.583,338.605c-.293.185-.576.371-.859.556L102.5,338Z" transform="translate(-102.5 -338)" fill="#e8f2f2"/></g><g transform="translate(11.336 56.283)"><path d="M110.237,351.254l-1.669,8.958-1.669-8.919,1.669-1.093C109.125,350.551,109.691,350.912,110.237,351.254Z" transform="translate(-106.9 -350.2)" fill="#e8f2f2"/></g><g transform="translate(27.683 66.47)"><path d="M285.627,456.757H275.488a1.078,1.078,0,1,1,0-2.157h7.719A8.39,8.39,0,0,0,285.627,456.757Z" transform="translate(-274.417 -454.6)" fill="#b15815"/></g><g transform="translate(35.962 54.892)"><path d="M372.263,339.653a6.9,6.9,0,0,0-12.92,2.1c-.654,3.972,2.7,8.07,6.8,7.894A6.879,6.879,0,0,0,372.263,339.653Zm-6.118,9.378a6.231,6.231,0,1,1,6.236-6.226A6.23,6.23,0,0,1,366.145,349.03Z" transform="translate(-359.262 -335.949)" fill="#b15815"/></g><g transform="translate(27.693 63.269)"><path d="M282.651,423.957h-7.065a1.078,1.078,0,0,1,0-2.157h6.3A9.479,9.479,0,0,0,282.651,423.957Z" transform="translate(-274.525 -421.8)" fill="#b15815"/></g><g transform="translate(27.671 60.049)"><path d="M281.715,388.838a8.66,8.66,0,0,0-.166,2.127h-6.167a1.083,1.083,0,0,1,0-2.166h6.333c.01.02.01.029,0,.039Z" transform="translate(-274.299 -388.799)" fill="#b15815"/></g><g transform="translate(27.682 56.849)"><path d="M283.321,356a8.071,8.071,0,0,0-1.2,2.157h-6.645a1.078,1.078,0,0,1,0-2.157Z" transform="translate(-274.402 -356)" fill="#b15815"/></g><g transform="translate(29.613 53.628)"><path d="M309.5,323.449a8.025,8.025,0,0,0-7.319,1.717h-6.9a1.087,1.087,0,0,1-1.083-1.083A1.115,1.115,0,0,1,295.254,323h13.388A1.1,1.1,0,0,1,309.5,323.449Z" transform="translate(-294.2 -323)" fill="#b15815"/></g><g transform="translate(25.953 50.428)"><path d="M272.185,291.273a1.1,1.1,0,0,1-1.054,1.083H257.752a1.078,1.078,0,0,1,0-2.157h13.359A1.07,1.07,0,0,1,272.185,291.273Z" transform="translate(-256.687 -290.2)" fill="#b15815"/></g><g transform="translate(7.73 38.949)"><path d="M80.363,178.691c-.049.185-.283.634-.146.8a4.26,4.26,0,0,0-2.723-1.669,8,8,0,0,1-4.567,0,.585.585,0,0,0-.342.02,6.072,6.072,0,0,0-2.381,1.727c-.673-2.176-.049-4.274,2.049-4.811a.512.512,0,0,0,.351-.312,3.4,3.4,0,0,1,3.093-1.874C78.753,172.455,81.173,175.822,80.363,178.691Z" transform="translate(-69.946 -172.57)" fill="#3b4949"/></g><g transform="translate(11.356 53.004)"><path d="M110.4,317.732l-1.649.917-1.649-.917.322-1.122a5.315,5.315,0,0,0,2.654-.01Z" transform="translate(-107.1 -316.6)" fill="#f8daae"/></g><g transform="translate(8.399 45.275)"><path d="M86.01,239.313c-.02,2.859-2.9,5.67-5.826,4.772a5.076,5.076,0,0,1-3.386-4.752c-.01-.215.5-.683.634-.829a5.012,5.012,0,0,1,1.581-1.1,9.075,9.075,0,0,0,4.684.029c.371-.1.927.351,1.2.566A3.934,3.934,0,0,1,86.01,239.313Z" transform="translate(-76.799 -237.4)" fill="#f8daae"/></g><g transform="translate(7.345 54.643)"><path d="M68.5,338.523a.551.551,0,0,0-.039-.478L66,334.064a5.823,5.823,0,0,1,2.41-.664l2.166,11.573-3.386-5.894C67.659,338.913,68.381,338.913,68.5,338.523Z" transform="translate(-66 -333.4)" fill="#93d6f3"/></g><g transform="translate(2.173 55.843)"><path d="M22.924,358.483H13l1.756-8.851a6.421,6.421,0,0,1,2.518-3.933l2.088,3.376-.927.224a.539.539,0,0,0-.342.771C18.094,350.081,22.924,358.483,22.924,358.483Z" transform="translate(-13 -345.7)" fill="#93d6f3"/></g><g transform="translate(14.098 54.633)"><path d="M137.63,338.745l.956.234-3.386,5.894c.351-1.883,1.835-9.856,2.166-11.573a6.09,6.09,0,0,1,2.41.664l-2.469,3.991A.526.526,0,0,0,137.63,338.745Z" transform="translate(-135.2 -333.3)" fill="#93d6f3"/></g><g transform="translate(13.912 55.853)"><path d="M138.13,350.172a.527.527,0,0,0-.332-.771l-.927-.224,2.088-3.376a6.453,6.453,0,0,1,2.518,3.923c.107.556,1.708,8.617,1.756,8.851H133.3Z" transform="translate(-133.3 -345.8)" fill="#93d6f3"/></g><g transform="translate(17.777 25.544)"><path d="M200.818,35.2H180.209v5.318a1.993,1.993,0,0,1-1.991,1.991H172.9V49.5a6.392,6.392,0,0,1,1.356,5.894,1.623,1.623,0,0,1-.625,2.888,9.859,9.859,0,0,1-.732,1.727V63.47a7.541,7.541,0,0,1,5.338,5.738c.107.556,1.727,8.734,1.8,9.065h2.01a2.132,2.132,0,0,1,.439-2.684,2.17,2.17,0,0,1-.01-3.21,2.17,2.17,0,0,1,0-3.21,2.15,2.15,0,0,1,1.513-3.737,2.2,2.2,0,0,1-.01-2.157h-1.844a2.132,2.132,0,0,1,0-4.264H195.49a2.147,2.147,0,0,1,1.835,3.21h1.844a2.179,2.179,0,0,1,2.118,1.961c.146.078.3.137.449.215V36.147a.923.923,0,0,0-.917-.947Zm-2.849,20.619H177.457a.527.527,0,0,1,0-1.054h20.512A.527.527,0,0,1,197.969,55.819Zm0-4.83H177.457a.527.527,0,0,1,0-1.054h20.512A.527.527,0,0,1,197.969,50.989Zm0-4.84H177.457a.527.527,0,0,1,0-1.054h20.512A.527.527,0,0,1,197.969,46.149Zm0-4.84H184.22a.527.527,0,0,1,0-1.054h13.749A.527.527,0,0,1,197.969,41.309Z" transform="translate(-172.9 -35.2)" fill="#e8f2f2"/></g><g transform="translate(18.518 26.296)"><path d="M186.013,42.9v4.577a.937.937,0,0,1-.937.937H180.5Z" transform="translate(-180.5 -42.9)" fill="#e8f2f2"/></g><g transform="translate(36.62 55.512)"><path d="M372.226,342.3a6.231,6.231,0,1,0,6.236,6.226A6.23,6.23,0,0,0,372.226,342.3Zm0,11.407a5.177,5.177,0,1,1,5.172-5.182A5.191,5.191,0,0,1,372.226,353.707Z" transform="translate(-366 -342.3)"/></g><g transform="translate(37.664 56.566)"><path d="M381.882,353.1a5.177,5.177,0,1,0,5.172,5.182A5.191,5.191,0,0,0,381.882,353.1Zm2.4,6.665a1.919,1.919,0,0,1-1.864,1.913v.42a.527.527,0,0,1-1.054,0v-.42h-1.337a.527.527,0,1,1,0-1.054h1.337v-1.737a1.919,1.919,0,0,1,0-3.835v-.6a.527.527,0,1,1,1.054,0v.6h1.337a.527.527,0,0,1,0,1.054h-1.337v1.737A1.934,1.934,0,0,1,384.282,359.765Z" transform="translate(-376.7 -353.1)" fill="#e8f2f2"/></g><g transform="translate(40.465 57.395)"><path d="M408.308,365.513v-1.737h1.347a.527.527,0,0,0,0-1.054h-1.337v-.6a.527.527,0,1,0-1.054,0v.6a1.919,1.919,0,0,0,0,3.835v1.737h-1.337a.527.527,0,1,0,0,1.054h1.337v.42a.527.527,0,1,0,1.054,0v-.42A1.919,1.919,0,0,0,408.308,365.513Zm-1.054-.01a.866.866,0,0,1,0-1.727Zm1.054,2.791v-1.727A.866.866,0,0,1,408.308,368.294Z" transform="translate(-405.4 -361.6)"/></g><g transform="translate(43.373 62.362)"><path d="M436.02,413.368a.866.866,0,0,1-.82.859V412.5A.868.868,0,0,1,436.02,413.368Z" transform="translate(-435.2 -412.5)" fill="#e8f2f2"/></g><g transform="translate(41.521 59.571)"><path d="M417.023,383.9v1.727A.866.866,0,0,1,417.023,383.9Z" transform="translate(-416.225 -383.9)" fill="#e8f2f2"/></g><g transform="translate(28.569 30.609)"><path d="M298.3,87.627a.525.525,0,0,1-.527.527H284.027a.527.527,0,1,1,0-1.054h13.749A.525.525,0,0,1,298.3,87.627Z" transform="translate(-283.5 -87.1)"/></g><g transform="translate(21.807 35.439)"><path d="M235.766,137.127a.525.525,0,0,1-.527.527H214.727a.527.527,0,0,1,0-1.054h20.512A.525.525,0,0,1,235.766,137.127Z" transform="translate(-214.2 -136.6)"/></g><g transform="translate(21.807 40.279)"><path d="M235.766,186.727a.525.525,0,0,1-.527.527H214.727a.527.527,0,0,1,0-1.054h20.512A.525.525,0,0,1,235.766,186.727Z" transform="translate(-214.2 -186.2)"/></g><g transform="translate(21.807 45.109)"><path d="M235.766,236.227a.525.525,0,0,1-.527.527H214.727a.527.527,0,0,1,0-1.054h20.512A.525.525,0,0,1,235.766,236.227Z" transform="translate(-214.2 -235.7)"/></g></g></g></svg>