<svg xmlns="http://www.w3.org/2000/svg" width="295" height="173.269" viewBox="0 0 295 173.269"><g transform="translate(-13.6 -18)"><g transform="translate(13.6 18)"><path d="M308.2,236.279H13.916c-.079,0-.237,0-.237.079a.8.8,0,0,0-.079.237.373.373,0,0,0,.4.4H308.2a.4.4,0,1,0,0-.79Z" transform="translate(-13.6 -63.722)" fill="#27191c"/><g transform="translate(20.17)"><g transform="translate(27.1 14.544)"><g transform="translate(0.237 0.237)"><path d="M236.6,232.193H137.4L151.786,216.7h70.43Z" transform="translate(-87.048 -74.417)" fill="#a6eae8"/><rect width="70.351" height="14.861" transform="translate(64.818 127.264)" fill="#ececec"/><path d="M155.7,197.7v2.688h70.351V197.7Z" transform="translate(-90.882 -70.436)" fill="#d4d8f3"/><path d="M265.861,36.7H81.367A7.675,7.675,0,0,0,73.7,44.367V156.059a7.675,7.675,0,0,0,7.667,7.667H265.861a7.675,7.675,0,0,0,7.667-7.667V44.367A7.675,7.675,0,0,0,265.861,36.7Zm.949,96.12a7.581,7.581,0,0,1-1.344,4.268,8.069,8.069,0,0,1-3.4,2.688,8.212,8.212,0,0,1-2.767.553H87.928a7.506,7.506,0,0,1-7.509-7.509V52.43a7.506,7.506,0,0,1,7.509-7.509h174.3a4.5,4.5,0,0,1,4.506,4.506V132.82Z" transform="translate(-73.7 -36.7)" fill="#22cac5"/><circle cx="5.77" cy="5.77" r="5.77" transform="translate(94.144 109.637)" fill="#ececec"/><path d="M268.416,51.668v83.394a7.2,7.2,0,0,1-4.585,6.719,7.7,7.7,0,0,1-2.688.474H89.772a7.253,7.253,0,0,1-7.272-7.272V54.672A7.253,7.253,0,0,1,89.772,47.4h174.3a4.251,4.251,0,0,1,4.268,4.268Z" transform="translate(-75.544 -38.942)" fill="#fff"/></g><path d="M226.146,212.677H155.4V197.5h.237v15.019h70.272V197.5h.237Z" transform="translate(-90.582 -70.157)" fill="#27191c"/><path d="M236.951,232.388H136.8l.158-.158,14.624-15.73h70.667Zm-99.677-.237H236.4l-14.386-15.493h-70.43L137.2,232.151Z" transform="translate(-86.685 -74.138)" fill="#27191c"/><path d="M265.8,163.9H81.3a7.928,7.928,0,0,1-7.9-7.9V44.3a7.928,7.928,0,0,1,7.9-7.9H265.8a7.928,7.928,0,0,1,7.9,7.9V156A7.928,7.928,0,0,1,265.8,163.9ZM81.3,36.637A7.675,7.675,0,0,0,73.637,44.3V156a7.675,7.675,0,0,0,7.667,7.667H265.8A7.675,7.675,0,0,0,273.465,156V44.3a7.675,7.675,0,0,0-7.667-7.667Z" transform="translate(-73.4 -36.4)" fill="#27191c"/><path d="M261.081,142.508H89.709A7.506,7.506,0,0,1,82.2,135V54.609A7.506,7.506,0,0,1,89.709,47.1h174.3a4.5,4.5,0,0,1,4.506,4.506V135a7.581,7.581,0,0,1-1.344,4.268,8.068,8.068,0,0,1-3.4,2.688,8.211,8.211,0,0,1-2.767.553ZM89.709,47.337a7.253,7.253,0,0,0-7.272,7.272V135a7.253,7.253,0,0,0,7.272,7.272H261.081a7.7,7.7,0,0,0,2.688-.474,7.2,7.2,0,0,0,4.585-6.719V51.606a4.251,4.251,0,0,0-4.268-4.268H89.709Z" transform="translate(-75.244 -38.642)" fill="#27191c"/><path d="M198.549,187a5.849,5.849,0,1,1,5.849-5.849A5.836,5.836,0,0,1,198.549,187Zm0-11.462a5.612,5.612,0,1,0,5.612,5.612A5.634,5.634,0,0,0,198.549,175.537Z" transform="translate(-98.398 -65.505)" fill="#27191c"/></g><g transform="translate(67.255)"><g transform="translate(0.079 0.079)"><rect width="119.834" height="108.688" rx="3.5" fill="#fff"/><path d="M244.134,20.867v6.719H124.3V20.867a2.749,2.749,0,0,1,2.767-2.767h114.38a2.749,2.749,0,0,1,2.767,2.767Z" transform="translate(-124.3 -18.1)" fill="#178d89"/><circle cx="1.028" cy="1.028" r="1.028" transform="translate(115.012 3.715)" fill="#fff"/><circle cx="1.028" cy="1.028" r="1.028" transform="translate(111.376 3.715)" fill="#fff"/><circle cx="1.028" cy="1.028" r="1.028" transform="translate(107.74 3.715)" fill="#fff"/><g transform="translate(4.189 2.609)"><rect width="7.272" height="0.79" fill="#fff"/><rect width="7.272" height="0.79" transform="translate(0 1.739)" fill="#fff"/><rect width="7.272" height="0.79" transform="translate(0 3.478)" fill="#fff"/></g><g transform="translate(7.984 49.246)"><g transform="translate(68.612 4.268)"><g transform="translate(0.079 13.912)"><rect width="35.255" height="0.87" fill="#d4d8f3"/><rect width="0.87" height="0.87" transform="translate(0 7.905)" fill="#d4d8f3"/><rect width="35.255" height="0.87" transform="translate(0 7.905)" fill="#d4d8f3"/><rect width="0.87" height="0.87" transform="translate(0 11.304)" fill="#838ee8"/><rect width="35.255" height="0.87" transform="translate(0 11.304)" fill="#d4d8f3"/><rect width="0.87" height="0.87" transform="translate(0 14.703)" fill="#6292ff"/><rect width="35.255" height="0.87" transform="translate(0 14.703)" fill="#d4d8f3"/><rect width="0.87" height="0.87" transform="translate(0 18.102)" fill="#d4d8f3"/><rect width="35.255" height="0.87" transform="translate(0 18.102)" fill="#d4d8f3"/><rect width="35.255" height="0.87" transform="translate(0 21.501)" fill="#d4d8f3"/><rect width="35.255" height="0.87" transform="translate(0 24.899)" fill="#d4d8f3"/><rect width="35.255" height="0.87" transform="translate(0 28.219)" fill="#d4d8f3"/><rect width="35.255" height="0.87" transform="translate(0 28.219)" fill="#d4d8f3"/><rect width="35.255" height="3.004" transform="translate(0 2.45)" fill="#d4d8f3"/><rect width="35.255" height="3.004" transform="translate(0 30.907)" fill="#d4d8f3"/><rect width="0.79" height="0.87" transform="translate(0 7.905)" fill="#838ee8"/><rect width="20.71" height="0.87" transform="translate(0 7.905)" fill="#838ee8"/><rect width="0.79" height="0.87" transform="translate(0 11.304)" fill="#838ee8"/><rect width="29.642" height="0.87" transform="translate(0 11.304)" fill="#838ee8"/><rect width="0.79" height="0.87" transform="translate(0 14.703)" fill="#838ee8"/><rect width="23.002" height="0.87" transform="translate(0 14.703)" fill="#838ee8"/><rect width="0.79" height="0.87" transform="translate(0 18.102)" fill="#838ee8"/><rect width="34.069" height="0.87" transform="translate(0 18.102)" fill="#838ee8"/><rect width="14.228" height="0.87" transform="translate(0 21.501)" fill="#838ee8"/><rect width="26.164" height="0.87" transform="translate(0 24.899)" fill="#838ee8"/><rect width="29.642" height="0.87" transform="translate(0 28.219)" fill="#838ee8"/><rect width="32.804" height="0.87" transform="translate(0 28.219)" fill="#838ee8"/></g><path d="M222.86,90.385a3.083,3.083,0,0,1,2.925-2.925V85.8a4.515,4.515,0,0,0-3.162,1.423,4.87,4.87,0,0,0-1.423,3.162Z" transform="translate(-221.2 -85.8)" fill="#838ee8"/><path d="M227.6,87.46a3.083,3.083,0,0,1,2.925,2.925h1.66a4.515,4.515,0,0,0-1.423-3.162A4.871,4.871,0,0,0,227.6,85.8Z" transform="translate(-222.541 -85.8)" fill="#838ee8"/><path d="M225.785,95.125A3.083,3.083,0,0,1,222.86,92.2H221.2a4.515,4.515,0,0,0,1.423,3.162,4.87,4.87,0,0,0,3.162,1.423v-1.66Z" transform="translate(-221.2 -87.141)" fill="#838ee8"/><path d="M230.525,92.2a3.083,3.083,0,0,1-2.925,2.925v1.66a4.515,4.515,0,0,0,3.162-1.423,4.87,4.87,0,0,0,1.423-3.162h-1.66Z" transform="translate(-222.541 -87.141)" fill="#838ee8"/><rect width="3.715" height="1.739" transform="translate(3.004 4.031)" fill="#d4d8f3"/><g transform="translate(12.805)"><path d="M239.06,90.385a3.083,3.083,0,0,1,2.925-2.925V85.8a4.515,4.515,0,0,0-3.162,1.423,4.871,4.871,0,0,0-1.423,3.162Z" transform="translate(-237.4 -85.8)" fill="#838ee8"/><path d="M243.8,87.46a3.083,3.083,0,0,1,2.925,2.925h1.66a4.515,4.515,0,0,0-1.423-3.162A4.87,4.87,0,0,0,243.8,85.8Z" transform="translate(-238.741 -85.8)" fill="#838ee8"/><path d="M242.085,95.125A3.083,3.083,0,0,1,239.16,92.2H237.5a4.515,4.515,0,0,0,1.423,3.162,4.87,4.87,0,0,0,3.162,1.423v-1.66Z" transform="translate(-237.421 -87.141)" fill="#838ee8"/><path d="M246.725,92.2a3.083,3.083,0,0,1-2.925,2.925v1.66a4.515,4.515,0,0,0,3.162-1.423,4.87,4.87,0,0,0,1.423-3.162h-1.66Z" transform="translate(-238.741 -87.141)" fill="#838ee8"/><rect width="3.715" height="1.739" transform="translate(3.004 4.031)" fill="#d4d8f3"/></g><g transform="translate(25.69)"><path d="M255.36,90.385a3.083,3.083,0,0,1,2.925-2.925V85.8a4.515,4.515,0,0,0-3.162,1.423,4.87,4.87,0,0,0-1.423,3.162Z" transform="translate(-253.7 -85.8)" fill="#838ee8"/><path d="M260.1,87.46a3.083,3.083,0,0,1,2.925,2.925h1.66a4.515,4.515,0,0,0-1.423-3.162A4.87,4.87,0,0,0,260.1,85.8v1.66Z" transform="translate(-255.041 -85.8)" fill="#838ee8"/><path d="M258.285,95.125A3.083,3.083,0,0,1,255.36,92.2H253.7a4.515,4.515,0,0,0,1.423,3.162,4.87,4.87,0,0,0,3.162,1.423v-1.66Z" transform="translate(-253.7 -87.141)" fill="#838ee8"/><path d="M263.025,92.2a3.083,3.083,0,0,1-2.925,2.925v1.66a4.515,4.515,0,0,0,3.162-1.423,4.87,4.87,0,0,0,1.423-3.162h-1.66Z" transform="translate(-255.041 -87.141)" fill="#838ee8"/><rect width="3.715" height="1.739" transform="translate(2.925 4.031)" fill="#d4d8f3"/></g></g><g transform="translate(0 0)"><g transform="translate(0 5.849)"><rect width="4.743" height="19.445" transform="translate(5.928 28.14)" fill="#178d89"/><rect width="4.743" height="22.923" transform="translate(11.778 24.662)" fill="#ffc001"/><rect width="4.743" height="11.462" transform="translate(0 36.124)" fill="#116562"/><rect width="4.743" height="20.947" transform="translate(17.627 26.638)" fill="#22cac5"/><rect width="4.743" height="20.947" transform="translate(23.556 26.638)" fill="#838ee8"/><rect width="4.743" height="32.646" transform="translate(29.405 14.94)" fill="#ffc001"/><rect width="4.743" height="38.337" transform="translate(35.334 9.248)" fill="#b15815"/><rect width="4.743" height="29.721" transform="translate(41.183 17.864)" fill="#ffc001"/><rect width="4.743" height="35.334" transform="translate(47.111 12.252)" fill="#22cac5"/><rect width="4.743" height="43.871" transform="translate(52.961 3.715)" fill="#b15815"/><rect width="4.743" height="47.586" transform="translate(58.889)" fill="#178d89"/><rect width="4.743" height="28.615" transform="translate(23.556 18.971)" fill="#b15815"/></g><g transform="translate(1.581)"><path d="M137.516,111.3l-.316-.474,12.568-9.169,5.217,3.4,17.706-15.335,5.849,4.585L196.01,81.1l.4.474L178.541,95.091l-5.849-4.585-17.627,15.335-5.217-3.478Z" transform="translate(-136.568 -80.547)" fill="#3897e9"/><circle cx="0.79" cy="0.79" r="0.79" transform="translate(0 29.721)" fill="#3897e9"/><circle cx="0.79" cy="0.79" r="0.79" transform="translate(12.568 20.789)" fill="#3897e9"/><path d="M160.381,111.59a.792.792,0,0,1-.79.79.79.79,0,1,1,.79-.79Z" transform="translate(-141.094 -86.77)" fill="#3897e9"/><circle cx="0.79" cy="0.79" r="0.79" transform="translate(35.334 8.774)" fill="#3897e9"/><circle cx="0.79" cy="0.79" r="0.79" transform="translate(41.183 13.517)" fill="#3897e9"/><path d="M212.481,81.19a.792.792,0,0,1-.79.79.79.79,0,1,1,.79-.79Z" transform="translate(-152.011 -80.4)" fill="#3897e9"/></g></g><g transform="translate(0.079 1.976)"><path d="M146.744,94.948,145.4,93.525a4.136,4.136,0,0,0,1.265-2.925h1.976a5.979,5.979,0,0,1-1.9,4.348Z" transform="translate(-136.784 -84.513)" fill="#d4d8f3"/><path d="M147.384,88.908h-1.976a3.964,3.964,0,0,0-3.952-3.952c-2.134,0-.949.079-1.344.237l-.711-1.9a5.866,5.866,0,0,1,7.984,5.533Z" transform="translate(-135.527 -82.9)" fill="#838ee8"/><path d="M140.428,95.041a5.92,5.92,0,0,1-5.928-5.928,5.381,5.381,0,0,1,3.873-5.612l.711,1.9a3.921,3.921,0,0,0-2.609,3.715,4.379,4.379,0,0,0,3.952,3.952c2.134,0,1.976-.4,2.688-1.028l1.344,1.423a5.884,5.884,0,0,1-4.031,1.581Z" transform="translate(-134.5 -83.026)" fill="#3897e9"/><g transform="translate(14.861 2.213)"><rect width="15.019" height="0.87" fill="#d4d8f3"/><rect width="15.019" height="0.87" transform="translate(0 3.399)" fill="#d4d8f3"/><rect width="15.019" height="0.87" transform="translate(0 6.798)" fill="#d4d8f3"/></g></g></g><g transform="translate(8.695 15.098)"><g transform="translate(19.682 6.956)"><path d="M169.224,58.718a4.615,4.615,0,0,1,3.873-3.794V53.106L172.86,48.6a10.884,10.884,0,0,0-9.96,9.723l4.506.316h1.818Z" transform="translate(-160.766 -46.545)" fill="#ffc001"/><path d="M176.574,67.753a4.254,4.254,0,0,1-1.739.316,4.792,4.792,0,0,1-2.767-.869L170.8,68.544l-3,3.32a10.94,10.94,0,0,0,7.035,2.529,8.467,8.467,0,0,0,4.664-1.028l-2.055-3.952-.87-1.66Z" transform="translate(-161.793 -50.442)" fill="#838ee8"/><path d="M188.272,65.19l-4.427-.79A6.184,6.184,0,0,1,181,68.273l2.055,3.952.949,1.9a13.01,13.01,0,0,0,6.245-8.616l-2.055-.4Z" transform="translate(-164.558 -49.856)" fill="#838ee8"/><path d="M166.84,62.374l-4.506-.316L160.2,61.9v.316a13.021,13.021,0,0,0,3.873,9.248l1.423-1.581,3-3.32a6.713,6.713,0,0,1-1.739-4.268Z" transform="translate(-160.2 -49.332)" fill="#ff7bac"/><path d="M180.87,54.473l-.87,1.66a4.586,4.586,0,0,1,2.055,3.873v.316l1.818.316,4.427.79c0-.474.079-.87.079-1.344a11.127,11.127,0,0,0-5.454-9.486l-2.055,3.952Z" transform="translate(-164.349 -46.964)" fill="#d4d8f3"/><path d="M177.016,52.561a5.749,5.749,0,0,1,2.292.553l2.055-3.952.949-1.9A13.01,13.01,0,0,0,176.7,46v2.134l.237,4.506Z" transform="translate(-163.657 -46)" fill="#d4d8f3"/></g><rect width="33.041" height="1.818" fill="#d4d8f3"/><g transform="translate(50.51 6.403)"><rect width="52.328" height="1.028" transform="translate(0 24.346)" fill="#d4d8f3"/><rect width="52.328" height="1.028" transform="translate(0 15.335)" fill="#d4d8f3"/><rect width="52.328" height="1.028" transform="translate(0 11.462)" fill="#d4d8f3"/><rect width="52.328" height="1.028" transform="translate(0 7.667)" fill="#d4d8f3"/><rect width="52.328" height="1.028" transform="translate(0 3.794)" fill="#d4d8f3"/><rect width="52.328" height="1.028" fill="#d4d8f3"/><rect width="52.328" height="3.399" transform="translate(0 19.208)" fill="#d4d8f3"/></g><g transform="translate(0 6.324)"><rect width="14.703" height="1.028" transform="translate(0 24.425)" fill="#d4d8f3"/><path d="M136.328,65.728H135.3V64.7h14.782v1.028Z" transform="translate(-135.3 -49.286)" fill="#d4d8f3"/><path d="M135.3,60.849V59.9h14.782v.949H135.3Z" transform="translate(-135.3 -48.28)" fill="#d4d8f3"/><path d="M135.3,56.028V55h14.782v1.028H135.3Z" transform="translate(-135.3 -47.254)" fill="#d4d8f3"/><path d="M135.3,51.128V50.1h14.782v1.028H135.3Z" transform="translate(-135.3 -46.227)" fill="#d4d8f3"/><path d="M135.3,46.228V45.2h14.782v1.028H135.3Z" transform="translate(-135.3 -45.2)" fill="#d4d8f3"/><rect width="14.703" height="3.399" transform="translate(0 19.287)" fill="#d4d8f3"/></g></g></g><g transform="translate(0)"><path d="M244.113,30.158H124.279a.077.077,0,0,1-.079-.079c0-.079,0-.079.079-.079H244.113a.077.077,0,0,1,.079.079c0,.079,0,.079-.079.079Z" transform="translate(-124.2 -20.514)" fill="#27191c"/><path d="M241.425,126.846H127.046A2.834,2.834,0,0,1,124.2,124V20.846A2.834,2.834,0,0,1,127.046,18h114.38a2.834,2.834,0,0,1,2.846,2.846V124a2.834,2.834,0,0,1-2.846,2.846ZM127.046,18.237a2.632,2.632,0,0,0-2.609,2.609V124a2.632,2.632,0,0,0,2.609,2.609h114.38A2.632,2.632,0,0,0,244.034,124V20.846a2.632,2.632,0,0,0-2.608-2.609Z" transform="translate(-124.2 -18)" fill="#27191c"/></g></g><g transform="translate(0 55.654)"><g transform="translate(0.303 0.236)"><path d="M122.758,133a1.724,1.724,0,0,0,.4.316s.158,0,.158.079h0c.079,0,.158.079.237.158h0a3.387,3.387,0,0,0,1.028.4,1.175,1.175,0,0,0,.711-.158c.079-.158,0-.316-.237-.553a2.1,2.1,0,0,0-.474-.4h0a1.728,1.728,0,0,1-.4-.237H123a.39.39,0,0,0-.237.079l-.158.158c0,.158,0,.237.079.316Z" transform="translate(-56.913 -97.904)" fill="#ffcec7"/><path d="M123.674,131.607s.158,0,.158.079a.6.6,0,0,1,.316.158h.79a1.3,1.3,0,0,0,.79-.158c.079,0,.158-.158.237-.237v-.237a.584.584,0,0,0-.474-.4,1.336,1.336,0,0,1-.4-.158,4.079,4.079,0,0,0-.87-.158,1.317,1.317,0,0,0-.87.316l-.158.158c0,.158.237.4.316.474Z" transform="translate(-57.039 -97.464)" fill="#ffcec7"/><rect width="1.186" height="5.928" transform="translate(49.805 40.733) rotate(-77.1)" fill="#9fd3fb"/><path d="M96.9,164.389a.534.534,0,0,0,.474.316l4.348.949h.474a.836.836,0,0,0,.474-.553l1.107-4.9a3.849,3.849,0,0,1-.949.079H97.69l-.79,3.4a1.345,1.345,0,0,0,.079.553Z" transform="translate(-51.528 -103.687)" fill="#3897e9"/><path d="M99.3,151.108a28.6,28.6,0,0,0,4.268-1.739,1.654,1.654,0,0,0,.474-.316c.4-.237.632-.474.949-.237a.726.726,0,0,1,.316.474,1.589,1.589,0,0,1-.316,1.028,2.1,2.1,0,0,1-.474.4h.949l.949-3.952h0l.949-4.031h0l.237-1.186-5.77-1.344-1.107,4.98h0l-.553,2.371h0l-.79,3.32Z" transform="translate(-52.031 -99.496)" fill="#3897e9"/><path d="M120.137,134.932h0c0,.079.079.158.158.237a.245.245,0,0,0,.079.158l.869.869h0a1.053,1.053,0,0,0,.711.474h.079c.079,0,.158,0,.237-.158a.866.866,0,0,0,0-.632.525.525,0,0,0-.316-.4h0l-.4-.4c-.158-.158-.4-.316-.553-.474h0c-.158-.079-.237-.158-.4-.237a3.423,3.423,0,0,1-.4-.079h-.158c-.079,0-.158.158-.158.237v.4Z" transform="translate(-56.347 -98.26)" fill="#ffcec7"/><path d="M121.7,133.932a.245.245,0,0,0,.079.158h0v.079a1.091,1.091,0,0,0,.237.316.245.245,0,0,0,.079.158h0l.316.316v.079h0a1.133,1.133,0,0,0,.79.316c.237,0,.553-.079.553-.316a1.6,1.6,0,0,0-.632-1.107,1.136,1.136,0,0,1-.237-.158h0c-.079,0-.158-.079-.237-.158h0a2.576,2.576,0,0,0-1.028-.316h0c-.158,0-.316,0-.316.237v.316Z" transform="translate(-56.64 -98.05)" fill="#ffcec7"/><g transform="translate(41.167 2.446)" opacity="0.5"><path d="M92.07,111.008h0a9.191,9.191,0,0,0,.316,1.423h0a1.86,1.86,0,0,0,.158.632,18.031,18.031,0,0,0,1.581,3.557A22.785,22.785,0,0,0,96.5,119.7a16.334,16.334,0,0,0,7.984,4.427,14.245,14.245,0,0,0,3.636.4,16.368,16.368,0,0,0,3.636-32.33,14.857,14.857,0,0,0-3.715-.4A16.458,16.458,0,0,0,96.26,96.78a5.441,5.441,0,0,0-.87,1.028h0a1.388,1.388,0,0,1-.316.4,10.064,10.064,0,0,0-1.028,1.5.245.245,0,0,1-.079.158c-.237.316-.4.711-.632,1.107a20.1,20.1,0,0,0-1.344,3.636,16.284,16.284,0,0,0-.158,6.482Z" transform="translate(-91.58 -91.8)" fill="#9fd3fb"/></g><path d="M123.5,97.475a18.494,18.494,0,0,0-11.7-8.3,18.868,18.868,0,0,0-22.528,14.149,19.307,19.307,0,0,0,.632,10.592,17.875,17.875,0,0,0,1.739,3.478,20.965,20.965,0,0,0,2.609,3.32l.632.632.316.316c.4.316.79.711,1.265,1.028h0l2.371,3.715h0l.316.553.632,1.028,5.77,1.344,4.743-2.925h0l.632-.4h0a13.17,13.17,0,0,0,2.371-.632v-.4a.525.525,0,0,1,.316-.4c.158-.079.474,0,.711,0,.158,0,.237.158.316.237a.245.245,0,0,0-.079-.158c0-.079-.079-.316,0-.474,0-.237.237-.4.553-.4h.316c-.079-.158-.158-.316,0-.474q0-.119.237-.237c.079,0,.158-.158.316-.158h.316A.581.581,0,0,1,116,122.3c0-.079.079-.158.237-.316a1.883,1.883,0,0,1,1.976-.158.6.6,0,0,1,.4.158c.158,0,.316.158.474.4a19.288,19.288,0,0,0,6.956-10.75,18.851,18.851,0,0,0-2.371-14.149Zm.316,13.754A16.562,16.562,0,0,1,107.7,124.114a9.279,9.279,0,0,1-3.715-.4,16.1,16.1,0,0,1-8.063-4.506,16.471,16.471,0,0,1-4.11-6.719c0-.237-.158-.4-.158-.632h0a10.166,10.166,0,0,1-.316-1.5h0a17.079,17.079,0,0,1,.158-6.64A16.107,16.107,0,0,1,92.835,100a7.9,7.9,0,0,1,.632-1.107.245.245,0,0,1,.079-.158,10.068,10.068,0,0,1,1.028-1.5c.079-.158.237-.237.316-.4h0a11.819,11.819,0,0,1,.87-1.028,16.25,16.25,0,0,1,7.114-4.348,16.459,16.459,0,0,1,8.537-.316,16.628,16.628,0,0,1,12.489,19.92Z" transform="translate(-49.834 -88.706)" fill="#3897e9"/><path d="M76.063,131.765a3.41,3.41,0,0,1-2.45,1.66c-1.581.237-3.478-.711-5.612-2.767a10.8,10.8,0,0,0,1.5-.158h0a5.858,5.858,0,0,0,3.636,1.739h.553a2.033,2.033,0,0,0,1.5-1.186l.711.474.158.158h0Z" transform="translate(-45.472 -97.464)" fill="#fff"/><path d="M100.861,153.4a.435.435,0,0,1-.237.4c-.079,0-.158.079-.237.079h0c.079,0,.237.237.237.316,0,.158-.079.237-.237.316a.848.848,0,0,1-.474.158h0a.789.789,0,0,1,.316.4v.158c-.079.158-.316.237-.632.237,0,0-.079,0-.079.158h0a.76.76,0,0,1-.316.949h-.079a2.512,2.512,0,0,1-1.107.158H92.324c-.079,0-11.462.632-19.05-2.371-.158,0-.316-.158-.474-.158L75.646,147a.672.672,0,0,1,.4.237c.632.316,1.265.553,1.818.79s1.107.4,1.66.632c1.265.474,2.45.869,3.636,1.265h0a2.512,2.512,0,0,1,.711.237c2.134.632,4.11,1.186,6.007,1.66a.592.592,0,0,1,.4.079,21.677,21.677,0,0,0,2.213.4h.079a2.7,2.7,0,0,0,1.186-.158h0a33.467,33.467,0,0,0,4.506-1.818c.158-.079.316-.237.474-.316.4-.237.553-.316.711-.237.079,0,.158.158.158.316a1.132,1.132,0,0,1-.237.87,3.44,3.44,0,0,1-1.186.632h.158a5.839,5.839,0,0,1,1.66,0h.158a.854.854,0,0,1,.553.237.719.719,0,0,1,.316.632Z" transform="translate(-46.478 -100.921)" fill="#ffcec7"/><path d="M75.246,148a.672.672,0,0,1,.4.237l-2.767,7.193c-.158,0-.316-.158-.474-.158l2.846-7.193Z" transform="translate(-46.394 -101.131)" fill="#ff9a95"/><path d="M79.444,147.046c-1.186-.4-2.292-.79-3.478-1.265a40.764,40.764,0,0,1-3.873-1.66l.474-1.265a.53.53,0,0,0-.237-.632c-3.32-1.818-5.375-3.478-6.245-4.9h-.158v.158c.87,1.5,3,3.241,6.324,5.059.079,0,.158.237.079.316l-3.478,8.774-.553,1.344s0,.079-.158.158H67.9c-.4-.158-1.265-.553-1.818-.79h0c-2.529-1.265-7.035-3.952-8.774-8.063h0a7.732,7.732,0,0,1-.711-3.241c-.079-3.557,1.5-6.877,4.189-8.458A12.37,12.37,0,0,1,65.215,131h0c2.055,1.976,3.873,2.925,5.454,2.925h.474a3.792,3.792,0,0,0,2.609-1.739h.158l.949.949.079.079.079.158.079.079.079.079.158.158.079.079a.245.245,0,0,0,.079.158l.079.079c.079.079.158.237.237.316a10.062,10.062,0,0,1,1.581,3v.079a29.764,29.764,0,0,1,1.423,6.4v.237a2.188,2.188,0,0,0,.079.711h0v.237a20.291,20.291,0,0,0,.237,2.134Z" transform="translate(-43.082 -97.568)" fill="#a6eae8"/><path d="M119.623,137.018c-.158,0-.4.079-.553.079a1.665,1.665,0,0,1-1.028-.4h0s-.079,0-.158-.158l-.237-.237h-.158v.158c.079,0,.158.158.237.237h0a10.776,10.776,0,0,1-1.818,1.107h0c-.079,0-2.609,1.265-6.007,2.609l.237-1.186h0c0-.079,5.217-3.4,5.217-3.4a13.169,13.169,0,0,0,2.371-.632c0,.079.079.158.158.237a.245.245,0,0,0,.079.158l.87.87h0l.474.474Z" transform="translate(-54.252 -98.448)" fill="#ffcec7"/><path d="M100.84,138.249l-.316,1.5-.87,3.636a27.629,27.629,0,0,1-3.952.87,1,1,0,0,0-.474.079L94.2,137.616h.553a53.805,53.805,0,0,0,5.454-.316l.632.949Z" transform="translate(-50.962 -98.888)" fill="#ffcec7"/><path d="M79.87,160.829a1.387,1.387,0,0,1-.474,1.186h0a2.081,2.081,0,0,1-1.186.553,18.063,18.063,0,0,1-2.925,0h-1.66a29.218,29.218,0,0,0-3.715.158c-1.028,0-2.055.158-3.083.158h-2.45c-2.292,0-4.743.158-7.114,0A1.24,1.24,0,0,1,56,161.7L57.025,150c2.688,4.268,6.4,6.007,10.671,7.272h.237a.252.252,0,0,0,.237-.237l.474-1.265a38.912,38.912,0,0,0,10.987,2.371v2.688Z" transform="translate(-42.955 -101.55)" fill="#a6eae8"/><path d="M78.869,213.544a.252.252,0,0,1-.237.237H71.2a.21.21,0,0,1-.237-.237l-3.478-19.366c.87-2.846,2.45-9.327,1.66-19.762h0a.079.079,0,0,0-.158,0v.711a114.475,114.475,0,0,1-2.134,16.363h0q-.237,1.067-.474,1.9a15.6,15.6,0,0,1-.79,2.134c-2.688,5.059-11.936,13.754-13.833,15.414a.353.353,0,0,1-.4,0l-.474-.553-4.585-4.9-.711-.711c0-.079-.079-.237,0-.316L53.1,190.937h0L54.6,166.2a1.489,1.489,0,0,0,.632.158c.949,0,1.976.079,2.925.079,1.423,0,2.767,0,4.189-.079H64.8c1.028,0,2.055-.079,3.083-.158,1.186,0,2.45-.158,3.636-.158h1.66a18.065,18.065,0,0,0,2.925,0,1.335,1.335,0,0,0,.79-.237c2.213,9.09,4.743,21.026,4.9,24.741.237,5.454-2.529,21.184-2.846,23Z" transform="translate(-40.769 -104.86)" fill="#116562"/><path d="M95.7,144.34a1,1,0,0,0-.474.079L94.2,137.7h.553l.949,6.64Z" transform="translate(-50.962 -98.972)" fill="#ff9a95"/><path d="M91.726,144.552a37.9,37.9,0,0,1-6.64.4h0c-.553-7.588-4.348-11.3-6.087-12.647a19.6,19.6,0,0,0,3,1.344,31.7,31.7,0,0,0,7.272,1.739,6.1,6.1,0,0,1,1.186.158.252.252,0,0,1,.237.237v.711h.079l1.028,6.956.158.79c0,.158,0,.237-.237.316Z" transform="translate(-47.777 -97.841)" fill="#a6eae8"/><path d="M74.487,119.086h0c-1.66-.316-2.134-.87-2.213-1.186a12.212,12.212,0,0,0-.949,1.739,7.078,7.078,0,0,1,.158,1.818,2.39,2.39,0,0,1-.316,1.265c-.158-2.609-1.344-2.688-1.5-2.767h0a.581.581,0,0,0-.474.158,1.334,1.334,0,0,0-.79,1.186,1.269,1.269,0,0,0,.4.87,1.622,1.622,0,0,0,1.344.4h0a5.71,5.71,0,0,1,.316,4.189,2.8,2.8,0,0,1-.79,1.107c1.581,1.344,2.846,1.818,3.952,1.581a2.188,2.188,0,0,0,1.423-1.107l-.158-2.134h.079a704.423,704.423,0,0,0,.316-.158,2.993,2.993,0,0,0,1.423-2.213l.237-2.45a3.581,3.581,0,0,0-2.609-2.134Zm-4.585,1.9h-.553c0,.237.237.4.4.474,0,0,.079,0,0,.158a.077.077,0,0,1-.079.079h0c-.237,0-.474-.316-.553-.553l-.158.158h-.079a.109.109,0,0,1,0-.158c.237-.474.79-.474,1.107-.474a.079.079,0,1,1,0,.158Zm3.715,1.265h.158c.079,0,.158.079.237.158h.158v-.237l-.316-.553v-.158h.158l.316.553c0,.079.158.237,0,.4,0,.158-.237.237-.316.237h0c-.158,0-.237-.079-.4-.158v-.237Zm-1.581-1.581a.474.474,0,1,1,.474.474A.51.51,0,0,1,72.036,120.667Zm2.688,3.241c-.237.316-.553.711-.949.711h-.158a.581.581,0,0,1-.474-.158,1.561,1.561,0,0,1-.474-.949.29.29,0,0,1,.079-.237s.158-.079.237,0l1.5.237c.079,0,.158,0,.237.158v.237Zm.949-2.371a.474.474,0,1,1,.474-.474A.51.51,0,0,1,75.672,121.536Z" transform="translate(-45.556 -94.823)" fill="#ffcec7"/><path d="M75.957,128.277v1.186l-.079-.079a8.787,8.787,0,0,1-1.265-.553,9.411,9.411,0,0,1-1.186-.711l-.237-.237c0-.079-.079-.237,0-.316,0-.158.237-.158.4-.079.632.158,1.265.474,1.9.632.158,0,.316.079.474.079h.079Z" transform="translate(-46.552 -96.821)" fill="#ff9a95"/><path d="M75.66,125.216c-.158.237-.474.632-.79.632a.581.581,0,0,1-.474-.158c-.237-.158-.316-.553-.4-.79h0l1.5.237h0Z" transform="translate(-46.729 -96.29)" fill="#ff9a95"/><path d="M78,230.932v3c0,.632.316,1.107.79,1.107H92.94a.332.332,0,0,0,.316-.316.919.919,0,0,0-.158-.79L88.276,230.3H87.96c-.158.079-.237.4-.316.711a.813.813,0,0,1-.79.87H81.162a3.412,3.412,0,0,1-2.055-.711l-.79-.553h-.158a.552.552,0,0,0-.158.316Z" transform="translate(-47.567 -118.376)" fill="#116562"/><path d="M39.579,222.257,49.3,232.533c.158.158.4,0,.474,0a.592.592,0,0,0,.4-.632l-.711-6.007c0-.158-.158-.158-.237-.237a.955.955,0,0,0-.711.237.854.854,0,0,1-1.186,0l-3.873-4.11a4.488,4.488,0,0,1-.949-2.055v-.949a.276.276,0,0,1-.158-.079.788.788,0,0,0-.316.079L39.9,220.834a1.093,1.093,0,0,0-.4.711.852.852,0,0,0,.158.632Z" transform="translate(-39.5 -115.945)" fill="#116562"/><path d="M78.5,229.783l.711.553a3.2,3.2,0,0,0,1.976.711h5.691a.639.639,0,0,0,.553-.711.667.667,0,0,1,.158-.553.6.6,0,0,1-.316-.158c-1.028-.474-1.9-.87-2.134-2.371V226.7H78.658v3.083Z" transform="translate(-47.672 -117.621)" fill="#ffcec7"/><path d="M43.358,218.476v.87a3.606,3.606,0,0,0,.949,1.9l3.873,4.11c.158.237.553.158.87,0a.683.683,0,0,1,.474-.237.475.475,0,0,0-.079-.316,2.764,2.764,0,0,1,.237-3.162v-.079c0-.079.158-.158.237-.316L45.413,216.5a1.724,1.724,0,0,1-.4.316c-.553.553-1.265,1.186-1.818,1.739Z" transform="translate(-40.275 -115.484)" fill="#ffcec7"/><path d="M78.6,226.8v.553h6.561V226.8H78.6Z" transform="translate(-47.693 -117.642)" fill="#ff9a95"/><path d="M45.658,216.8l4.506,4.743v-.079c0-.079.158-.158.237-.316L45.9,216.4a1.723,1.723,0,0,1-.4.316Z" transform="translate(-40.757 -115.463)" fill="#ff9a95"/></g><g transform="translate(39.151)"><path d="M100.15,150.927h-.237l-4.348-.949c-.237,0-.474-.237-.632-.4a1.175,1.175,0,0,1-.158-.711l.79-3.478s0-.079.158-.079c0,0,.079,0,.079.158l-.79,3.478a1.345,1.345,0,0,0,.079.553.534.534,0,0,0,.474.316l4.348.949h.474a.836.836,0,0,0,.474-.553l1.186-5.138s0-.079.158-.079c0,0,.079,0,.079.158l-1.186,5.138c0,.316-.316.553-.553.711h-.4Zm-3.241-10.355h0s-.079,0-.079-.158l2.846-12.489-3.32-5.217a14.425,14.425,0,0,1-1.265-1.028c-.158-.079-.237-.237-.316-.316a4.772,4.772,0,0,1-.632-.632,17.222,17.222,0,0,1-2.609-3.32,18.554,18.554,0,0,1-1.739-3.557,18.2,18.2,0,0,1-.632-10.671,18.556,18.556,0,0,1,8.458-11.857,18.98,18.98,0,0,1,14.307-2.45,18.556,18.556,0,0,1,11.857,8.458,18.981,18.981,0,0,1,2.45,14.307,19.444,19.444,0,0,1-7.114,10.987h-.158v-.158a18.8,18.8,0,0,0,4.664-24.979,18.494,18.494,0,0,0-11.7-8.3A18.868,18.868,0,0,0,89.4,103.341a19.307,19.307,0,0,0,.632,10.592,17.874,17.874,0,0,0,1.739,3.478,20.967,20.967,0,0,0,2.609,3.32l.632.632.316.316c.4.316.79.711,1.265,1.028h0l3.4,5.375h0c0,.079-2.055,9.011-2.055,9.011h0l-.79,3.557a.077.077,0,0,1-.079.079Zm6.324-.316h0s-.079,0-.079-.158l.949-4.11h0l1.581-6.8,5.375-3.32h0a22.19,22.19,0,0,0,2.45-.632h.158v.158c-.79.237-1.66.474-2.45.632L106,129.347h0v.079l-.316,1.265h0v.158l-1.265,5.217h0l-.949,4.11a.077.077,0,0,1-.079.079ZM114.774,125h0a.077.077,0,0,1-.079-.079v-.079h.158a.077.077,0,0,1,.079.079V125h-.158Zm1.423-.632a.077.077,0,0,1-.079-.079v-.079h0a.077.077,0,0,1,.079.079v.079Zm1.423-.79h-.079v-.158a1.138,1.138,0,0,0,.237-.158h.158v.158a1.137,1.137,0,0,0-.237.158h0Z" transform="translate(-88.646 -88.408)" fill="#27191c"/><path d="M108.3,124.694a19.1,19.1,0,0,1-3.715-.4,16.1,16.1,0,0,1-8.063-4.506h0a16.471,16.471,0,0,1-4.11-6.719c0-.237-.158-.4-.158-.632h0a9.192,9.192,0,0,1-.316-1.423h0a16.642,16.642,0,0,1,.158-6.561,16.106,16.106,0,0,1,1.344-3.715,7.9,7.9,0,0,1,.632-1.107.245.245,0,0,1,.079-.158,10.066,10.066,0,0,1,1.028-1.5c.079-.158.237-.237.316-.4h0a11.827,11.827,0,0,1,.87-1.028,16.25,16.25,0,0,1,7.114-4.348,16.459,16.459,0,0,1,8.537-.316,16.608,16.608,0,0,1-3.636,32.8ZM92.407,112.442a1.466,1.466,0,0,0,.158.553,16.355,16.355,0,0,0,4.031,6.64h0a16.334,16.334,0,0,0,7.984,4.427,14.245,14.245,0,0,0,3.636.4A16.37,16.37,0,1,0,96.439,96.712a5.443,5.443,0,0,0-.87,1.028h0a1.387,1.387,0,0,1-.316.4,10.067,10.067,0,0,0-1.028,1.5.245.245,0,0,1-.079.158c-.237.316-.4.711-.632,1.107a20.1,20.1,0,0,0-1.344,3.636,16.283,16.283,0,0,0-.158,6.482h0a9.192,9.192,0,0,0,.316,1.423h.079Z" transform="translate(-89.281 -89.05)" fill="#27191c"/><path d="M108.366,141.3l-6.166-1.423.4-1.581,6.166,1.423Zm-5.928-1.581,5.77,1.344.237-1.186-5.77-1.344Z" transform="translate(-91.486 -98.862)" fill="#27191c"/></g><path d="M83.982,147.383a.077.077,0,0,1-.079-.079c-.079-.949-.237-2.134-.237-2.292v-1.186a27.706,27.706,0,0,0-1.423-6.4v-.079a9.208,9.208,0,0,0-1.581-3,1.091,1.091,0,0,0-.237-.316l-.079-.079a.245.245,0,0,0-.079-.158l-.079-.079-.158-.158-.079-.079-.079-.079a.245.245,0,0,0-.079-.158l-.079-.079c-.316-.316-.632-.553-.949-.87h-.079c0-.079,0-.158-.079-.158l-.079-.079h-.079c0-.158-.079-.158-.158-.237-.237-.158-.553-.4-.79-.553h0v-.079a.077.077,0,0,1,.079-.079h0a6.835,6.835,0,0,1,.79.553s.158.079.158.158h.079c0,.079,0,.158.079.158h.158a10.732,10.732,0,0,0,.949.949l.079.079.158.158.079.079.079.079.158.158.079.079a.245.245,0,0,0,.079.158l.079.079c.079.079.158.237.237.316a10.4,10.4,0,0,1,1.581,3.083v.079a29.5,29.5,0,0,1,1.423,6.482v.237a2.188,2.188,0,0,0,.079.711v.237c0,.158.158,1.344.237,2.292a.245.245,0,0,1-.079.158h0Z" transform="translate(-47.159 -97.353)" fill="#27191c"/><path d="M60.248,162.7c-.949,0-1.976,0-2.925-.079a.852.852,0,0,1-.632-.158,1.284,1.284,0,0,1-.79-1.265l1.186-13.517s0-.079.158-.079c0,0,.079,0,.079.158l-1.186,13.517a1.134,1.134,0,0,0,.632,1.028c.158,0,.4.158.632.158,2.371.158,4.743,0,7.114,0h2.45c1.028,0,2.055-.079,3.083-.158,1.186,0,2.45-.158,3.715-.158h1.66a18.066,18.066,0,0,0,2.925,0,1.685,1.685,0,0,0,1.66-1.739v-2.767a.077.077,0,0,1,.079-.079h0a.077.077,0,0,1,.079.079v2.767c-.079,1.186-.711,1.739-1.9,1.976a18.063,18.063,0,0,1-2.925,0h-1.66a27.382,27.382,0,0,0-3.636.158c-1.028,0-2.055.158-3.083.158h-2.45c-1.344,0-2.767.079-4.189.079Z" transform="translate(-42.633 -100.811)" fill="#27191c"/><path d="M68.14,153.244h-.158c-.4-.158-1.265-.553-1.818-.79h0c-2.529-1.265-7.114-4.031-8.853-8.221a8.369,8.369,0,0,1-.711-3.32,9.818,9.818,0,0,1,4.348-8.7,12.539,12.539,0,0,1,6.245-1.818.079.079,0,0,1,0,.158,6.487,6.487,0,0,0-1.739.158,12.37,12.37,0,0,0-4.427,1.581,9.3,9.3,0,0,0-4.189,8.458A9.182,9.182,0,0,0,57.548,144c1.739,4.11,6.245,6.877,8.774,8.063h0c.553.237,1.423.632,1.818.79h.237s.079,0,.158-.158l4.031-10.2c0-.158,0-.237-.079-.316-3.32-1.818-5.454-3.478-6.324-5.059v-.158h.158c.87,1.5,2.925,3.162,6.245,4.9a.5.5,0,0,1,.237.632l-4.031,10.2a.252.252,0,0,1-.237.237h-.158Z" transform="translate(-42.779 -97.207)" fill="#27191c"/><path d="M73.415,132.376a6.412,6.412,0,0,1-3.715-1.818V130.4h.158c1.581,1.344,2.925,1.976,4.031,1.66a1.983,1.983,0,0,0,1.423-1.186.112.112,0,1,1,.158.158,2.444,2.444,0,0,1-1.581,1.265h-.553Z" transform="translate(-45.525 -97.207)" fill="#27191c"/><path d="M73.054,133.762c-1.581,0-3.478-1.028-5.454-3V130.6h.158c2.213,2.134,4.189,3.083,5.849,2.925a3.944,3.944,0,0,0,2.529-1.739H76.3v.158a3.932,3.932,0,0,1-2.688,1.9h-.474Z" transform="translate(-45.085 -97.249)" fill="#27191c"/><g transform="translate(63.54 33.314)"><path d="M121.081,137.649h0a2.062,2.062,0,0,1-1.344-.553l-.237-.237V136.7h.158c.079,0,.158.158.237.237a1.842,1.842,0,0,0,1.186.553,3.361,3.361,0,0,0,.87-.158h.158v.158a3.967,3.967,0,0,1-.949.158Z" transform="translate(-119.5 -131.841)" fill="#27191c"/><path d="M122.208,136.815a1.687,1.687,0,0,1-.949-.553h0a10.739,10.739,0,0,0-.949-.949h0a.245.245,0,0,0-.079-.158,1.131,1.131,0,0,1-.237-.869.525.525,0,0,1,.316-.4c.158-.079.474,0,.711,0A4.359,4.359,0,0,1,122.445,135a1.418,1.418,0,0,1,.4.553.9.9,0,0,1,0,.79.435.435,0,0,1-.4.237h0Zm-1.739-1.581.87.87h0c.237.237.553.553.869.553.079,0,.158,0,.237-.158a.866.866,0,0,0,0-.632c0-.158-.237-.316-.4-.474a5.078,5.078,0,0,0-1.344-1.028c-.237-.079-.4-.158-.553,0-.079,0-.158.158-.158.237a.9.9,0,0,0,.237.632.245.245,0,0,0,.079.158h0Z" transform="translate(-119.599 -131.245)" fill="#27191c"/><path d="M123.667,135.75h0a1.458,1.458,0,0,1-.949-.4l-.632-.632c0-.079-.158-.237-.237-.316l-.079-.079h0a.276.276,0,0,1-.079-.158c0-.079-.079-.316,0-.474,0-.237.237-.4.553-.4a2.828,2.828,0,0,1,1.66.711,2.247,2.247,0,0,1,.711,1.344c0,.4-.4.553-.79.553Zm-1.66-2.371c-.158,0-.316,0-.316.237v.316a.245.245,0,0,0,.079.158h0a.245.245,0,0,0,.079.158,1.09,1.09,0,0,0,.237.316c.158.237.4.4.553.632a1.132,1.132,0,0,0,.79.316c.237,0,.553-.079.553-.316a1.6,1.6,0,0,0-.632-1.107,2.313,2.313,0,0,0-1.5-.632h0Z" transform="translate(-119.952 -131.129)" fill="#27191c"/><path d="M124.763,134.1h-.237a2.354,2.354,0,0,1-1.107-.4c-.079,0-.158-.158-.237-.158a.245.245,0,0,1-.158-.079c-.158-.079-.316-.237-.474-.316a.489.489,0,0,1-.158-.553q0-.119.237-.237h0c.079,0,.158-.158.316-.158h.711a.712.712,0,0,1,.4.079h.158a3.008,3.008,0,0,1,1.028.711c.316.316.474.632.237.87C125.316,134.1,125,134.1,124.763,134.1Zm-1.976-1.66-.158.158c0,.158,0,.237.079.316a1.725,1.725,0,0,0,.4.316s.158,0,.158.079c.079,0,.158.079.237.158a3.386,3.386,0,0,0,1.028.4,1.175,1.175,0,0,0,.711-.158c.079-.158,0-.316-.237-.553a3.307,3.307,0,0,0-.949-.632h-1.186a.39.39,0,0,0-.237.079h0Z" transform="translate(-120.099 -130.898)" fill="#27191c"/><path d="M125.013,132.25h-.474a2.511,2.511,0,0,1-.711-.237h0a.39.39,0,0,1-.237-.079c-.316-.237-.474-.474-.4-.711,0-.079.079-.158.237-.316a1.883,1.883,0,0,1,1.976-.158.6.6,0,0,1,.4.158.945.945,0,0,1,.553.553v.4c0,.158-.158.237-.316.316a2.841,2.841,0,0,1-.87.158h-.079Zm-.632-1.5a1.189,1.189,0,0,0-.87.316l-.158.158c0,.158.237.4.316.474,0,0,.158,0,.158.079h0a5.446,5.446,0,0,1,.632.237h.553a1.3,1.3,0,0,0,.79-.158c.079,0,.158-.158.237-.237v-.237a.584.584,0,0,0-.474-.4,1.336,1.336,0,0,1-.4-.158,4.079,4.079,0,0,0-.869-.158Z" transform="translate(-120.27 -130.553)" fill="#27191c"/></g><path d="M107.092,155.494h0s-.079,0-.079-.158c0,0,0-.079.158-.079a.39.39,0,0,0,.237-.079.539.539,0,0,0,.237-.4.719.719,0,0,0-.316-.632,1.5,1.5,0,0,0-.711-.237,5.839,5.839,0,0,0-1.66,0,.125.125,0,0,1-.079-.237,4.3,4.3,0,0,1,1.739,0,1.472,1.472,0,0,1,.87.316.789.789,0,0,1,.4.79,1,1,0,0,1-.316.553c-.158.079-.237.158-.4.158Z" transform="translate(-52.88 -102.065)" fill="#27191c"/><path d="M106.879,157.007h0a.079.079,0,0,1,0-.158h0a.752.752,0,0,0,.553-.158c.158-.079.237-.158.237-.316a.423.423,0,0,0-.237-.316V155.9h.158c.158.079.4.316.316.553a.534.534,0,0,1-.316.474,1.489,1.489,0,0,1-.632.158Z" transform="translate(-53.299 -102.55)" fill="#27191c"/><path d="M106.379,158.386a.077.077,0,0,1-.079-.079.245.245,0,0,1,.079-.158.954.954,0,0,0,.632-.237v-.158a.525.525,0,0,0-.316-.4V157.2h.158a1.418,1.418,0,0,1,.4.553v.316a1.475,1.475,0,0,1-.79.4h0Z" transform="translate(-53.194 -102.822)" fill="#27191c"/><path d="M89.344,159.836c-3.952,0-11.7-.316-17.153-2.688a.112.112,0,1,1,.158-.158c7.509,3.162,19.445,2.609,19.6,2.609h5.691a2.512,2.512,0,0,0,1.107-.158h.158a.687.687,0,0,0,.316-.949v-.158h.158a.994.994,0,0,1-.4,1.265h-.158a3.073,3.073,0,0,1-1.186.158H89.5Z" transform="translate(-46.04 -102.771)" fill="#27191c"/><path d="M93.053,153.154h-.079a7.26,7.26,0,0,1-2.213-.4.592.592,0,0,1-.4-.079,84.654,84.654,0,0,1-10.434-3.162c-1.265-.474-2.688-1.028-4.031-1.66V147.7h.158c1.344.632,2.688,1.186,3.952,1.66a88.026,88.026,0,0,0,10.355,3.162,1,1,0,0,1,.474.079,9.952,9.952,0,0,0,2.134.316,3.276,3.276,0,0,0,1.265-.158,33.462,33.462,0,0,0,4.506-1.818,1.653,1.653,0,0,0,.474-.316c.4-.237.632-.474.949-.237a.726.726,0,0,1,.316.474,1.589,1.589,0,0,1-.316,1.028,2.9,2.9,0,0,1-1.265.711h-.158v-.158a3.44,3.44,0,0,0,1.186-.632,1.223,1.223,0,0,0,.237-.87.411.411,0,0,0-.158-.316c-.158-.079-.316,0-.711.237a1.653,1.653,0,0,0-.474.316A33.473,33.473,0,0,1,94.318,153a3.073,3.073,0,0,1-1.186.158Z" transform="translate(-46.824 -100.832)" fill="#27191c"/><path d="M117.679,138.523H117.6v-.158a6.527,6.527,0,0,0,1.9-1.265h.158v.158a10.8,10.8,0,0,1-1.976,1.265Z" transform="translate(-55.562 -98.611)" fill="#27191c"/><path d="M85.974,144.933H83.682a.079.079,0,1,1,0-.158h1.028a31.24,31.24,0,0,0,6.64-.4c.158,0,.237-.158.237-.316l-1.265-8.537a.252.252,0,0,0-.237-.237,6.1,6.1,0,0,1-1.186-.158,28.062,28.062,0,0,1-7.272-1.739,34.644,34.644,0,0,1-3.557-1.66h0l-.079-.079a7.308,7.308,0,0,0-.79-.4h0v-.079a.077.077,0,0,1,.079-.079h0c.237.158.553.237.79.4h.237a36.333,36.333,0,0,0,3.557,1.739,28.245,28.245,0,0,0,7.272,1.66,6.1,6.1,0,0,1,1.186.158.373.373,0,0,1,.4.4l1.265,8.537a.594.594,0,0,1-.4.553,42.009,42.009,0,0,1-5.375.4Z" transform="translate(-47.097 -97.353)" fill="#27191c"/><path d="M75.554,128.073a.077.077,0,0,1-.079-.079l-.158-2.213H75.4a3051.652,3051.652,0,0,1,.316-.158,2.993,2.993,0,0,0,1.423-2.213l.316-3.794a4.678,4.678,0,0,0-.553-2.292h0v-.079a2.839,2.839,0,0,0-1.66-1.186H72.629a1.137,1.137,0,0,0-.237.158,1.137,1.137,0,0,0-.237.158.245.245,0,0,0-.158.079c-.079,0-.158.158-.316.237-.079,0-.158.158-.237.237a4.346,4.346,0,0,0-1.107,2.609s0,.079-.158.079c0,0-.079,0-.079-.158a4.655,4.655,0,0,1,1.186-2.688l.237-.237a1.092,1.092,0,0,1,.316-.237.245.245,0,0,0,.158-.079,3199.1,3199.1,0,0,0,.474-.316h2.846a3.974,3.974,0,0,1,1.739,1.265h0a3.819,3.819,0,0,1,.632,2.45l-.316,3.794a2.905,2.905,0,0,1-1.5,2.371s-.158,0-.158.079c0,0-.158,0-.158.079h0l.158,2.055a.245.245,0,0,1-.079.158h0Z" transform="translate(-45.609 -94.168)" fill="#27191c"/><path d="M69.918,123.183a2.147,2.147,0,0,1-1.344-.474,1.275,1.275,0,0,1-.474-1.028,1.6,1.6,0,0,1,.949-1.423,1.466,1.466,0,0,1,.553-.158.125.125,0,0,1,.079.237.581.581,0,0,0-.474.158,1.334,1.334,0,0,0-.79,1.186,1.269,1.269,0,0,0,.4.869,1.622,1.622,0,0,0,1.344.4.125.125,0,0,1,.079.237h-.316Z" transform="translate(-45.19 -95.048)" fill="#27191c"/><path d="M68.991,122.132h0a.109.109,0,0,1,0-.158c.237-.474.79-.474,1.107-.474a.079.079,0,1,1,0,.158c-.4,0-.711,0-.869.316h-.079Z" transform="translate(-45.369 -95.342)" fill="#27191c"/><path d="M69.953,122.49h0a.749.749,0,0,1-.553-.632.125.125,0,0,1,.237-.079.5.5,0,0,0,.4.474s.079,0,0,.158A.077.077,0,0,1,69.953,122.49Z" transform="translate(-45.462 -95.384)" fill="#27191c"/><path d="M75.5,123.507h0c-.158,0-.237-.079-.4-.158v-.158h.158c.079,0,.158.079.237.158h.158v-.237l-.316-.553V122.4H75.5l.316.553c0,.079.158.237,0,.4,0,.158-.237.237-.316.237Z" transform="translate(-46.657 -95.53)" fill="#27191c"/><path d="M69.779,129.175H69.7v-.158a2.3,2.3,0,0,0,.87-1.107,5.107,5.107,0,0,0-.316-3.952V123.8h.158a5.71,5.71,0,0,1,.316,4.189,2.658,2.658,0,0,1-.949,1.186h0Z" transform="translate(-45.525 -95.824)" fill="#27191c"/><path d="M74.749,126.034a.581.581,0,0,1-.474-.158,1.561,1.561,0,0,1-.474-.949.29.29,0,0,1,.079-.237s.158-.079.237,0l1.5.237c.079,0,.158,0,.237.158v.237c-.237.316-.553.711-.949.711Zm-.632-1.186h0a1.1,1.1,0,0,0,.4.79.847.847,0,0,0,.474.158c.316,0,.632-.4.79-.632h0l-1.5-.237h0Z" transform="translate(-46.384 -96.003)" fill="#27191c"/><path d="M93.979,137.574a.079.079,0,0,1,0-.158,50.76,50.76,0,0,0,6.166-.316.125.125,0,0,1,.079.237c-2.767.316-4.9.316-6.166.4h0Z" transform="translate(-50.596 -98.611)" fill="#27191c"/><path d="M109.779,141.546H109.7v-.158c3.557-1.423,6.166-2.688,6.245-2.688h.158v.158s-2.688,1.265-6.245,2.688h0Z" transform="translate(-53.907 -98.946)" fill="#27191c"/><path d="M95.279,146.165a.077.077,0,0,1-.079-.079.245.245,0,0,1,.079-.158,40.934,40.934,0,0,0,4.585-1.028h.158v.158a42.051,42.051,0,0,1-4.664,1.028h0Z" transform="translate(-50.868 -100.245)" fill="#27191c"/><path d="M89.509,229.862h0c-.158,0-.316-.158-.4-.158-1.028-.474-1.976-.869-2.213-2.45v-.4h0c0-.158,0-.158.079-.158h0a.077.077,0,0,1,.079.079h0v.474c.237,1.5,1.028,1.818,2.055,2.292.158,0,.316.158.4.158v.158h0Z" transform="translate(-49.129 -117.385)" fill="#27191c"/><path d="M78.379,229.92h0a.077.077,0,0,1-.079-.079v-3.162a.077.077,0,0,1,.079-.079h0a.077.077,0,0,1,.079.079v3.162A.077.077,0,0,1,78.379,229.92Z" transform="translate(-47.327 -117.364)" fill="#27191c"/><path d="M78.728,235.222c-.553,0-1.028-.632-1.028-1.344v-3a.478.478,0,0,1,.237-.474h.4l.79.553a3.194,3.194,0,0,0,1.976.711H86.79a.639.639,0,0,0,.553-.711,1.02,1.02,0,0,1,.4-.87.668.668,0,0,1,.553,0h0l4.9,3.636a.862.862,0,0,1,.237,1.028.577.577,0,0,1-.553.474H78.728Zm0-.079Zm-.632-4.506h0a.552.552,0,0,0-.158.316v3c0,.632.316,1.107.79,1.107H92.877a.332.332,0,0,0,.316-.316.919.919,0,0,0-.158-.79l-4.822-3.636H87.9c-.158.079-.237.4-.316.711a.813.813,0,0,1-.79.87H81.1a3.639,3.639,0,0,1-2.134-.711l-.79-.553H78.1Z" transform="translate(-47.201 -118.082)" fill="#27191c"/><path d="M51.338,226.395h-.079a1.123,1.123,0,0,0-.158-.474c-.4-1.107-.711-2.055.316-3.32.079-.079.158-.237.316-.316h0c0-.079.079-.079.158,0v.158h0a1.091,1.091,0,0,1-.237.316c-.949,1.186-.632,1.976-.237,3.083a1.124,1.124,0,0,0,.158.474v.158h0Z" transform="translate(-41.549 -116.448)" fill="#27191c"/><path d="M43.279,218.492H43.2v-.158c.711-.711,1.739-1.581,2.292-2.134h.158v.158c-.632.553-1.581,1.5-2.371,2.134Z" transform="translate(-39.972 -115.185)" fill="#27191c"/><path d="M49.459,232.8c-.158,0-.316,0-.4-.158l-9.723-10.276c-.4-.4-.237-1.107.237-1.66l2.134-2.055a.524.524,0,0,1,.553-.158c.158,0,.237.158.237.316v.949a3.606,3.606,0,0,0,.949,1.9l3.873,4.11c.158.237.553.158.87,0a1.086,1.086,0,0,1,.87-.316.525.525,0,0,1,.4.316h0l.711,6.087a.972.972,0,0,1-.553.87c-.079,0-.237.079-.316.079ZM39.5,222.207l9.723,10.276c.158.158.4,0,.474,0a.592.592,0,0,0,.4-.632l-.711-6.007c0-.158-.158-.158-.237-.237a.955.955,0,0,0-.711.237.854.854,0,0,1-1.186,0l-3.873-4.11a4.488,4.488,0,0,1-.949-2.055v-.949a.276.276,0,0,1-.158-.079.787.787,0,0,0-.316.079l-2.134,2.055a.947.947,0,0,0-.237,1.344Z" transform="translate(-39.117 -115.659)" fill="#27191c"/><path d="M84.257,213.955h-7.43a.5.5,0,0,1-.474-.4L72.4,191.585a.125.125,0,1,1,.237-.079l3.952,21.975a.252.252,0,0,0,.237.237h7.43a.21.21,0,0,0,.237-.237c.316-1.739,3-17.469,2.846-23-.158-3.715-2.767-15.73-4.9-24.82,0,0,0-.158.079-.158,0,0,.158,0,.158.079.474,2.055,4.743,19.92,4.9,24.9.237,5.454-2.529,21.263-2.846,23a.443.443,0,0,1-.474.4Z" transform="translate(-46.091 -104.562)" fill="#27191c"/><path d="M89.732,198.845h0s-.079,0-.079-.158a16.647,16.647,0,0,0-.553-5.928V192.6h.158a17.086,17.086,0,0,1,.553,6.007.077.077,0,0,1-.079.079Z" transform="translate(-49.59 -110.24)" fill="#27191c"/><path d="M88.016,200.127h0s-.079,0-.079-.158a7.308,7.308,0,0,0-.237-4.11V195.7h.158a7.585,7.585,0,0,1,.237,4.189.077.077,0,0,1-.079.079Z" transform="translate(-49.297 -110.89)" fill="#27191c"/><path d="M51.334,211.293c-.158,0-.237,0-.316-.158l-5.849-6.166a.382.382,0,0,1,0-.553L52.678,190.9l1.5-24.82a.079.079,0,0,1,.158,0l-1.5,24.9h0L45.327,204.5v.316l5.849,6.166a.353.353,0,0,0,.4,0c1.818-1.66,11.145-10.355,13.833-15.414a9.348,9.348,0,0,0,.79-2.134q.237-.83.474-1.9A127.307,127.307,0,0,0,68.8,175.169v-.711a.079.079,0,1,1,.158,0v.711a116.693,116.693,0,0,1-2.134,16.442q-.237,1.067-.474,1.9a9.166,9.166,0,0,1-.869,2.134C62.8,200.7,53.468,209.4,51.65,211.135A.6.6,0,0,1,51.334,211.293Z" transform="translate(-40.36 -104.666)" fill="#27191c"/><g transform="translate(14.373 19.42)"><path d="M68.366,156.874h-.158c-4.348-1.186-7.588-2.529-10.908-6.245l.237-2.529a14.913,14.913,0,0,0,4.506,5.375A27.391,27.391,0,0,0,66.311,156h0C67.181,156.4,68.366,156.874,68.366,156.874Z" transform="translate(-57.3 -120.335)" fill="#27191c"/><path d="M83.933,144.922v.237h0a41.6,41.6,0,0,0-1.5-7.588v-.079a11.384,11.384,0,0,0-1.581-3.083c-.079-.079-.158-.237-.237-.316l-.079-.079a.245.245,0,0,0-.079-.158l-.079-.079-.158-.158-.079-.079-.079-.079s0-.079-.158-.158l-.079-.079c-.316-.316-.632-.553-.949-.87l-.079-.079h-.079l-.079-.079-.079-.079-.158-.158V131.8h0l.158.079c1.028.632,6.087,4.348,6.64,13.2H84.17Z" transform="translate(-61.721 -116.92)" fill="#27191c"/><g transform="translate(7.708)"><path d="M77.474,121.3a.474.474,0,0,0,0,.949.419.419,0,0,0,.474-.474A.456.456,0,0,0,77.474,121.3Z" transform="translate(-69.136 -114.719)" fill="#27191c"/><path d="M73.474,120.9a.456.456,0,0,0-.474.474.474.474,0,0,0,.949,0A.456.456,0,0,0,73.474,120.9Z" transform="translate(-68.298 -114.636)" fill="#27191c"/><path d="M78.077,120.978a.353.353,0,0,1,0-.4,7.182,7.182,0,0,0,.237-2.925,4.86,4.86,0,0,0-.237-.87,4.16,4.16,0,0,0-5.533-2.055l-.553.237a2.01,2.01,0,0,0-.316-1.344,2.523,2.523,0,0,0-3.4,0c-1.186.869-1.581,2.371-.869,3.241.079.158.237.237.316.316l.237.158a5.026,5.026,0,0,0-.4,3.715,4.067,4.067,0,0,0,.711,1.739,4.319,4.319,0,0,0,1.423,1.5s.711.316.869.4v-.158a14.665,14.665,0,0,0-.079-1.739l-.316-.949a.39.39,0,0,0-.079-.237h-.237a1.544,1.544,0,0,1-.553-.079.806.806,0,0,1-.632-.4,1.091,1.091,0,0,1-.237-.316c0-.158-.158-.237-.158-.4a2.964,2.964,0,0,1,.079-.87,1.122,1.122,0,0,1,.711-.632.29.29,0,0,0,.237-.079h.237c0,.079,1.344.079,1.5,2.846a2.39,2.39,0,0,0,.316-1.265,7.078,7.078,0,0,0-.158-1.818,12.215,12.215,0,0,1,.949-1.739c.079.316.474.87,2.213,1.186h0a3.581,3.581,0,0,1,2.609,2.134c.237.553.474,1.186.711,1.66.4.87-.237,1.344-.949,1.739a1.779,1.779,0,0,0-.237,2.688,1.678,1.678,0,0,1,.949-2.292,2.382,2.382,0,0,0,.87-3.162Z" transform="translate(-67.052 -112.975)" fill="#27191c"/></g><path d="M74.634,177.49A113.114,113.114,0,0,1,72.5,193.853l.553,2.846c.87-2.688,2.529-9.248,1.739-20l-.158.711Z" transform="translate(-60.485 -126.328)" fill="#27191c"/></g></g><g transform="translate(1.014 7.272)"><g transform="translate(0.158 0.079)"><rect width="41.499" height="49.72" rx="3.5" transform="translate(0 0.079)" fill="#fff"/><path d="M82.1,30.067v6.719H40.6V30.067A2.749,2.749,0,0,1,43.367,27.3H79.412a2.749,2.749,0,0,1,2.767,2.767Z" transform="translate(-40.6 -27.3)" fill="#178d89"/><circle cx="1.028" cy="1.028" r="1.028" transform="translate(36.598 3.715)" fill="#fff"/><circle cx="1.028" cy="1.028" r="1.028" transform="translate(32.962 3.715)" fill="#fff"/><circle cx="1.028" cy="1.028" r="1.028" transform="translate(29.405 3.715)" fill="#fff"/><g transform="translate(4.189 2.688)"><rect width="7.272" height="0.79" fill="#fff"/><rect width="7.272" height="0.79" transform="translate(0 1.66)" fill="#fff"/><rect width="7.272" height="0.79" transform="translate(0 3.399)" fill="#fff"/></g><g transform="translate(6.041 15.661)"><path d="M64.289,47.182,62.629,60.54,51.8,52.478A14.092,14.092,0,0,1,64.289,47.182Z" transform="translate(-48.988 -47.112)" fill="#ffc001"/><path d="M50.817,56.6l11.066,8.3L57.931,78.18A13.182,13.182,0,0,1,53.9,76.045a14.022,14.022,0,0,1-3.083-19.366Z" transform="translate(-48.242 -49.1)" fill="#d4d8f3"/><path d="M78.767,58.1A14.082,14.082,0,0,1,62.8,78.494l.316-1.186,3.636-12.173Z" transform="translate(-51.292 -49.415)" fill="#838ee8"/><path d="M75.684,50.409a15.064,15.064,0,0,1,3.557,3.873L75.6,56.416,67.7,61.08,69.36,47.8A14.378,14.378,0,0,1,75.684,50.409Z" transform="translate(-52.319 -47.256)" fill="#4450e4"/></g></g><path d="M79.291,77.157H43.246A2.834,2.834,0,0,1,40.4,74.311V30.046A2.834,2.834,0,0,1,43.246,27.2H79.291a2.834,2.834,0,0,1,2.846,2.846V74.311A2.834,2.834,0,0,1,79.291,77.157ZM43.246,27.437a2.632,2.632,0,0,0-2.609,2.609V74.311a2.632,2.632,0,0,0,2.609,2.609H79.291A2.632,2.632,0,0,0,81.9,74.311V30.046a2.632,2.632,0,0,0-2.609-2.609Z" transform="translate(-40.4 -27.2)" fill="#27191c"/><path d="M82.078,39.358h-41.5a.077.077,0,0,1-.079-.079c0-.079,0-.079.079-.079h41.5a.077.077,0,0,1,.079.079C82.157,39.358,82.157,39.358,82.078,39.358Z" transform="translate(-40.421 -29.714)" fill="#27191c"/></g><g transform="translate(193.966)"><g transform="translate(0.158 0.079)"><rect width="59.284" height="49.72" rx="3.5" fill="#fff"/><g transform="translate(0 12.094)"><path d="M342.72,33.4l1.265,2.846v2.292l-1.423-3.083-2.609,4.427-.474.87L333.55,51.027l-.79-2.45-.316-1.186-2.687-8.853L327.385,43.6l-.474.949-6.087,13.2L319.4,55.3l-.553-.949L315.291,48.1l-3.162,7.351-.4,1.028-.79,1.9-2.608-4.664-.474-.79-.316-.632-7.193,7.9-.632.632L298.3,62.41l-3.478-3.873-.632-.632-.79-.949L284.7,63.2V62.094l8.853-6.324,1.344,1.5.632.711,2.767,3.083.869-.949.632-.711,7.9-8.7.79,1.423.474.87,1.818,3.241.4-.79.4-1.107,3.557-8.3,4.268,7.43.553.87.79,1.423,5.533-12.015.474-.949,3.162-6.8,3.162,10.355.316,1.186.4,1.186,5.059-8.7.474-.87Z" transform="translate(-284.7 -33.4)" fill="#ffc001"/><path d="M342.8,44.2l1.186-1.107v1.265l-1.265,1.186-3.241-3.557-.632-.711-.4-.474-5.059,7.984-.632,1.028-1.344,2.055-4.506-6.087-.632-.79-.079-.158-6.245,10.75-.553.949-1.107,1.9-2.609-4.506-2.608,6.482-1.344-2.688-.553-1.028-1.66-3.083-.553.632-.632.711-7.351,8.7-1.265-1.581-.553-.711-2.45-3.083-1.186.949-.711.553-10.118,8.3V66.887l9.486-7.747.711-.632,1.976-1.581,2.925,3.715.553.79.632.79,6.877-8.063.632-.79,1.186-1.423,1.9,3.636.553,1.107.87,1.5,2.529-6.324,2.767,4.743.553-1.028.553-.87,6.719-11.541.632.87.632.79,4.031,5.454,1.028-1.66.632-1.028,5.217-8.3,1.028,1.107.632.711Z" transform="translate(-284.7 -34.636)" fill="#3897e9"/></g><path d="M343.984,20.867v6.719H284.7V20.867a2.749,2.749,0,0,1,2.767-2.767H341.3a2.749,2.749,0,0,1,2.767,2.767Z" transform="translate(-284.7 -18.1)" fill="#178d89"/><circle cx="1.028" cy="1.028" r="1.028" transform="translate(54.384 3.715)" fill="#fff"/><circle cx="1.028" cy="1.028" r="1.028" transform="translate(50.827 3.715)" fill="#fff"/><circle cx="1.028" cy="1.028" r="1.028" transform="translate(47.19 3.715)" fill="#fff"/><g transform="translate(4.189 2.609)"><rect width="7.272" height="0.79" fill="#fff"/><rect width="7.272" height="0.79" transform="translate(0 1.739)" fill="#fff"/><rect width="7.272" height="0.79" transform="translate(0 3.478)" fill="#fff"/></g></g><path d="M341.176,67.957h-53.83a2.834,2.834,0,0,1-2.846-2.846V20.846A2.834,2.834,0,0,1,287.346,18h53.83a2.834,2.834,0,0,1,2.846,2.846V65.111A2.834,2.834,0,0,1,341.176,67.957Zm-53.751-49.72a2.632,2.632,0,0,0-2.608,2.609V65.111a2.632,2.632,0,0,0,2.608,2.609h53.83a2.632,2.632,0,0,0,2.608-2.609V20.846a2.632,2.632,0,0,0-2.608-2.609Z" transform="translate(-284.5 -18)" fill="#27191c"/><path d="M343.964,30.158H284.679a.077.077,0,0,1-.079-.079c0-.079,0-.079.079-.079h59.284a.077.077,0,0,1,.079.079C344.043,30.158,344.043,30.158,343.964,30.158Z" transform="translate(-284.521 -20.514)" fill="#27191c"/></g><g transform="translate(168.598 14.076)"><g transform="translate(0.108 0.394)"><path d="M307.979,170.8v1.818a.525.525,0,0,1-.4.316h-7.43a.21.21,0,0,1-.237-.237l-.316-1.9Z" transform="translate(-262.404 -64.488)" fill="#fff"/><path d="M333.337,172.639v.237a.276.276,0,0,1-.158.079h-7.351a.435.435,0,0,1-.4-.237L324.8,170.9h8.458l.158,1.818Z" transform="translate(-267.684 -64.509)" fill="#fff"/><path d="M318.842,78.379c-2.134,2.055-4.031,2.925-5.691,2.767a3.41,3.41,0,0,1-2.45-1.66h0l.158-.158.711-.474h0a2.727,2.727,0,0,0,1.5,1.186h.553a6.324,6.324,0,0,0,3.636-1.739,10.081,10.081,0,0,1,1.5.079Z" transform="translate(-264.73 -45.106)" fill="#9fd3fb"/><path d="M317.53,67.215h-.079a3.324,3.324,0,0,0-.711-1.818c-.632-.869-1.423-1.028-3-.316a4.305,4.305,0,0,1-3.241.316,6.316,6.316,0,0,0-.4,1.739v3.4a3.379,3.379,0,0,0,1.9,2.688h0l-.4,2.529h0a1.98,1.98,0,0,0,1.423,1.107c1.107.237,2.371-.316,3.952-1.66-1.581-2.292-.948-3.873-.87-3.952h0a8.79,8.79,0,0,0,.553-1.265h0c.079-.237.079-.237.158-.237h.316a1.415,1.415,0,0,0,1.5-1.265,1.284,1.284,0,0,0-1.186-1.265Z" transform="translate(-264.604 -42.242)" fill="#ffcec7"/><path d="M312.458,75.54l-.158,1.186a.39.39,0,0,0,.237-.079c.474-.158.87-.316,1.265-.474a5.647,5.647,0,0,0,1.186-.632c.079,0,.158-.079.237-.158,0-.079.158-.237,0-.316,0-.158-.237-.158-.4-.079a17.167,17.167,0,0,0-1.9.553,1,1,0,0,0-.474.079h-.079Z" transform="translate(-265.065 -44.4)" fill="#ff9a95"/><path d="M314.66,71.7a1.1,1.1,0,0,1-.4.79.847.847,0,0,1-.474.158c-.316,0-.632-.4-.79-.632h0l1.5-.237h0Z" transform="translate(-265.212 -43.723)" fill="#ff9a95"/><path d="M327.093,158.577h-8.537l-5.3-15.414a75.785,75.785,0,0,1-1.66-10.276q-.119-1.067-.237-1.9h0c-.237-2.134-.474-3.952-.632-5.217v-.711s0-.079-.158-.079c0,0-.079,0-.079.158h0l-.316,9.248-1.9,6.64c0,.237-.079.4-.079.632l-.87,16.995h-8.458l-2.53-16.125a18.384,18.384,0,0,1,.474-7.746l5.454-21.184.711.237a18.066,18.066,0,0,0,2.925,0h1.66A27.388,27.388,0,0,1,311.2,114c1.028,0,2.055.158,3.083.158h2.45c1.344,0,2.767.079,4.189.079s1.976,0,2.925-.079a1.346,1.346,0,0,0,.553-.079l.711,25.216v.87l1.9,18.418Z" transform="translate(-261.677 -52.502)" fill="#116562"/><path d="M309.924,91.385a.758.758,0,0,1-.158-.711.739.739,0,0,1,.4-.553c3.557-1.9,5.77-3.636,6.64-5.138h.158v.158c-.87,1.581-3.162,3.32-6.8,5.217a.525.525,0,0,0-.316.4.752.752,0,0,0,.158.553l.474.632h0l6.166,7.747a.8.8,0,0,0,.237.079h.079c2.371-1.186,6.64-3.873,8.379-7.826h0V91.78a7.733,7.733,0,0,0,.711-3.241v-.474a9.253,9.253,0,0,0-4.189-7.984,12.369,12.369,0,0,0-4.427-1.581h0c-2.055,1.976-3.873,2.925-5.454,2.925H311.5a3.792,3.792,0,0,1-2.609-1.739h-.079c-.316.316-.632.553-.949.869l-.079.079-.079.158-.079.079-.079.079-.158.158-.079.079a.245.245,0,0,1-.079.158l-.079.079c-.079.079-.158.237-.237.316a10.062,10.062,0,0,0-1.581,3v.079a29.771,29.771,0,0,0-1.423,6.4v.237a2.19,2.19,0,0,1-.079.711h0v.237c0,.158-.158,1.265-.237,2.134a56.8,56.8,0,0,0,6.877-2.767l-.4-.553Z" transform="translate(-263.242 -45.147)" fill="#a6eae8"/><path d="M266.7,84.639c.158,0,.4.079.553.079h0a1.665,1.665,0,0,0,1.028-.4h0a.245.245,0,0,0,.158-.079l.237-.237h.158v.158c-.079,0-.158.158-.237.237h0a18.508,18.508,0,0,0,4.506,2.529c1.028.474,2.134.869,3.32,1.344l-.316-1.344h0c0-.079-5.217-3.4-5.217-3.4a13.169,13.169,0,0,1-2.371-.632c0,.079-.079.158-.158.237a.245.245,0,0,1-.079.158,9.472,9.472,0,0,1-.949.87h0l-.474.474Z" transform="translate(-255.51 -46.069)" fill="#ffcec7"/><path d="M280.7,101.024a.435.435,0,0,0,.237.4c.079,0,.158.079.237.079h0c-.079,0-.237.237-.237.316,0,.158.079.237.237.316a.921.921,0,0,0,.553.158h0a.789.789,0,0,0-.316.4v.158c.079.158.316.237.632.237,0,0,.079,0,.079.158h0a.76.76,0,0,0,.316.949h.079a2.513,2.513,0,0,0,1.107.158h5.77a50.855,50.855,0,0,0,6.877.158,41.621,41.621,0,0,0,13.833-3.162c.158,0,.316-.158.474-.237l-5.059-6.4c-.158,0-.316.158-.474.237a29.949,29.949,0,0,1-3.32,1.423c-1.107.4-2.213.79-3.241,1.186h0a1.509,1.509,0,0,0-.632.237,79.807,79.807,0,0,1-8.7,2.292h0a11.258,11.258,0,0,1-1.265-.4h0a33.467,33.467,0,0,1-4.506-1.818c-.158-.079-.316-.237-.474-.316-.4-.237-.553-.316-.711-.237-.079,0-.158.158-.158.316a1.132,1.132,0,0,0,.237.87,3.441,3.441,0,0,0,1.186.632h0a5.839,5.839,0,0,0-1.66,0h-.158a1.261,1.261,0,0,0-.632.237.719.719,0,0,0-.316.632Z" transform="translate(-258.443 -48.542)" fill="#ffcec7"/><path d="M286.4,85.786l.316,1.5.87,3.636c.79.237,1.581.4,2.292.553a8.271,8.271,0,0,1,1.344.316,1.543,1.543,0,0,1,.553.079l-.237-6.956h-.553c-1.265-.079-2.529-.237-3.794-.316l-.79,1.186Z" transform="translate(-259.638 -46.426)" fill="#ffcec7"/><path d="M293.1,83.794v.158h0l.237,7.193v.79a.21.21,0,0,0,.237.237,26.241,26.241,0,0,0,6.8.474h0c.553-7.588,4.427-11.383,6.086-12.647a32.753,32.753,0,0,1-6.482,2.45,27.355,27.355,0,0,1-6.245.79.68.68,0,0,0-.632.632Z" transform="translate(-261.042 -45.462)" fill="#a6eae8"/><path d="M302.7,108.974a1.461,1.461,0,0,0,.87,1.5c.237.079.474.158.79.237a18.058,18.058,0,0,0,2.925,0h1.66a29.21,29.21,0,0,1,3.715.158c1.028,0,2.055.158,3.083.158h2.45c2.292,0,4.743.158,7.114,0a.951.951,0,0,0,.632-.158h0a.948.948,0,0,0,.632-1.028l-.87-9.644a24.38,24.38,0,0,1-8.537,4.189h-.316c-.158,0-.316,0-.4-.158l-.869-1.107a38.68,38.68,0,0,1-12.726,3.241V108.9Z" transform="translate(-263.053 -49.694)" fill="#a6eae8"/><g transform="translate(29.608 108.525)"><rect width="15.651" height="0.553" transform="translate(0 6.798)" fill="#aeddff"/><rect width="15.651" height="0.553" transform="translate(0 7.588)" fill="#3895ea"/><g transform="translate(8.379)"><path d="M307.893,176.59H300.7a.885.885,0,0,1,.949-.79h5.375a1.017,1.017,0,0,1,.949.79Z" transform="translate(-300.621 -174.061)" fill="#aeddff"/><path d="M307.7,173.7v1.581a.9.9,0,0,0-.632-.237H301.69a.656.656,0,0,0-.632.237L300.9,173.7h6.8Z" transform="translate(-300.663 -173.621)" fill="#ffcec7"/><path d="M300.6,174.232h7.114V173.6H300.6Z" transform="translate(-300.6 -173.6)" fill="#ff9a95"/></g><path d="M293.832,176.916v1.9a.316.316,0,0,1-.632,0v-1.9a.316.316,0,1,1,.632,0Z" transform="translate(-290.671 -174.229)" fill="#fff"/><path d="M296.332,176.916v1.9a.316.316,0,0,1-.632,0v-1.9a.316.316,0,0,1,.632,0Z" transform="translate(-291.194 -174.229)" fill="#fff"/><g transform="translate(0 2.371)"><path d="M298.732,176.916v1.9a.316.316,0,0,1-.632,0v-1.9a.316.316,0,0,1,.632,0Z" transform="translate(-291.697 -176.6)" fill="#fff"/><path d="M305.651,177v3.873H290a2.689,2.689,0,0,1,.079-.79,4.041,4.041,0,0,1,1.028-1.9,3.564,3.564,0,0,1,1.107-.79v1.5a.553.553,0,0,0,1.107,0v-1.818h.87v1.9a.553.553,0,0,0,1.107,0v-1.9h.87v1.9a.553.553,0,0,0,1.107,0v-1.9h8.379Z" transform="translate(-290 -176.684)" fill="#3895ea"/></g><circle cx="1.107" cy="1.107" r="1.107" transform="translate(10.039 3.162)" fill="#fff"/><path d="M303.538,180.455H290.179c0,.237-.079.553-.079.79h15.651V178.4a2.221,2.221,0,0,0-2.134,2.055Z" transform="translate(-290.021 -174.606)" fill="#fff"/><g transform="translate(20.157)"><rect width="15.651" height="0.553" transform="translate(0 6.798)" fill="#aeddff"/><rect width="15.651" height="0.553" transform="translate(0 7.588)" fill="#3895ea"/><g transform="translate(8.379)"><path d="M333.393,176.59H326.2a.885.885,0,0,1,.949-.79h5.375a1.017,1.017,0,0,1,.949.79Z" transform="translate(-326.121 -174.061)" fill="#aeddff"/><path d="M333.2,173.7v1.581a.9.9,0,0,0-.632-.237H327.19a.655.655,0,0,0-.632.237L326.4,173.7h6.8Z" transform="translate(-326.163 -173.621)" fill="#ffcec7"/><path d="M326.1,174.232h7.114V173.6H326.1Z" transform="translate(-326.1 -173.6)" fill="#ff9a95"/></g><path d="M319.332,176.916v1.9a.316.316,0,0,1-.632,0v-1.9a.316.316,0,1,1,.632,0Z" transform="translate(-316.171 -174.229)" fill="#fff"/><path d="M321.832,176.916v1.9a.316.316,0,0,1-.632,0v-1.9a.316.316,0,0,1,.632,0Z" transform="translate(-316.694 -174.229)" fill="#fff"/><g transform="translate(0 2.371)"><path d="M324.232,176.916v1.9a.316.316,0,1,1-.632,0v-1.9a.316.316,0,1,1,.632,0Z" transform="translate(-317.197 -176.6)" fill="#fff"/><path d="M331.151,177v3.873H315.5a2.687,2.687,0,0,1,.079-.79,4.041,4.041,0,0,1,1.028-1.9,3.563,3.563,0,0,1,1.107-.79v1.5a.553.553,0,0,0,1.107,0v-1.818h.869v1.9a.553.553,0,0,0,1.107,0v-1.9h.87v1.9a.553.553,0,1,0,1.107,0v-1.9h8.379Z" transform="translate(-315.5 -176.684)" fill="#3895ea"/></g><circle cx="1.107" cy="1.107" r="1.107" transform="translate(10.039 3.162)" fill="#fff"/><path d="M329.038,180.455H315.679c0,.237-.079.553-.079.79h15.651V178.4a2.221,2.221,0,0,0-2.134,2.055Z" transform="translate(-315.521 -174.606)" fill="#fff"/></g></g><rect width="5.928" height="1.186" transform="translate(20.759 40.733) rotate(-12.9)" fill="#4450e4"/><path d="M290.177,111.989a.534.534,0,0,1-.474.316l-4.348.949h-.474a.836.836,0,0,1-.474-.553l-1.107-4.9a3.848,3.848,0,0,0,.949.079h5.138l.79,3.4a1.345,1.345,0,0,1-.079.553Z" transform="translate(-258.988 -51.287)" fill="#838ee8"/><path d="M287.5,98.787a28.6,28.6,0,0,1-4.268-1.739,1.653,1.653,0,0,1-.474-.316c-.4-.237-.632-.474-.949-.237a.726.726,0,0,0-.316.474A1.589,1.589,0,0,0,281.809,98a2.1,2.1,0,0,0,.474.4h-.949l-.949-4.031h0l-.949-4.031h0l-.237-1.186,5.77-1.344,1.107,4.98h0l.553,2.371h0l.79,3.32Z" transform="translate(-258.129 -47.096)" fill="#838ee8"/><path d="M268.119,82.532h0c0,.079-.079.158-.158.237a.245.245,0,0,1-.079.158l-.87.87h0a1.053,1.053,0,0,1-.711.474h-.079c-.079,0-.158,0-.237-.158a.866.866,0,0,1,0-.632.525.525,0,0,1,.316-.4h0l.4-.4c.158-.158.4-.316.553-.474h0c.158-.079.237-.158.4-.237a3.425,3.425,0,0,0,.4-.079h.158c.079,0,.158.158.158.237v.4Z" transform="translate(-255.348 -45.86)" fill="#ffcec7"/><path d="M266.655,81.632a.245.245,0,0,1-.079.158h0v.079a1.091,1.091,0,0,1-.237.316.245.245,0,0,1-.079.158h0l-.316.316v.079h0a1.132,1.132,0,0,1-.79.316c-.237,0-.553-.079-.553-.316a1.6,1.6,0,0,1,.632-1.107,1.137,1.137,0,0,0,.237-.158h0c.079,0,.158-.079.237-.158h0A2.576,2.576,0,0,1,266.734,81h0c.158,0,.316,0,.316.237v.316Z" transform="translate(-255.07 -45.671)" fill="#ffcec7"/><path d="M265.422,80.6a1.723,1.723,0,0,1-.4.316s-.158,0-.158.079h0c-.079,0-.158.079-.237.158h0a3.387,3.387,0,0,1-1.028.4,1.175,1.175,0,0,1-.711-.158c-.079-.158,0-.316.237-.553a2.1,2.1,0,0,1,.474-.4h0a1.73,1.73,0,0,0,.4-.237h1.186a.39.39,0,0,1,.237.079l.158.158c0,.158,0,.237-.079.316Z" transform="translate(-254.706 -45.504)" fill="#ffcec7"/><path d="M264.492,79.307s-.158,0-.158.079a.6.6,0,0,0-.316.158h-.79a1.3,1.3,0,0,1-.79-.158c-.079,0-.158-.158-.237-.237v-.237a.584.584,0,0,1,.474-.4,1.335,1.335,0,0,0,.4-.158,4.08,4.08,0,0,1,.87-.158,1.317,1.317,0,0,1,.87.316l.158.158c0,.158-.237.4-.316.474Z" transform="translate(-254.567 -45.085)" fill="#ffcec7"/><path d="M289.661,50.925a18.83,18.83,0,0,0-22.528-14.149,18.577,18.577,0,0,0-11.7,8.3,18.218,18.218,0,0,0-2.371,14.149,18.631,18.631,0,0,0,6.956,10.75,2.094,2.094,0,0,1,.474-.4c.158,0,.237-.158.4-.158a2.074,2.074,0,0,1,1.976.158,1.091,1.091,0,0,1,.237.316.631.631,0,0,1-.316.632h.316a.6.6,0,0,1,.316.158c.079,0,.158.158.237.237V71.4h.316c.316,0,.553.079.553.4v.474a.245.245,0,0,1-.079.158c.079,0,.237-.158.316-.237q.474-.237.711,0a.79.79,0,0,1,.316.4v.4c.79.237,1.581.474,2.371.632h0l.632.4h0l4.743,2.925,5.77-1.344,1.028-1.581h0l2.371-3.715h0a14.435,14.435,0,0,0,1.265-1.028l.316-.316a4.764,4.764,0,0,0,.632-.632,17.218,17.218,0,0,0,2.609-3.32,20.411,20.411,0,0,0,1.739-3.478,18.6,18.6,0,0,0,.632-10.592Zm-1.976,7.035h0a7.522,7.522,0,0,1-.316,1.423h0a1.489,1.489,0,0,1-.158.632,16.471,16.471,0,0,1-4.11,6.719,16.713,16.713,0,0,1-8.063,4.506,15.253,15.253,0,0,1-3.715.4,16.626,16.626,0,0,1-8.774-2.529A16.167,16.167,0,0,1,255.2,58.75a16.377,16.377,0,0,1,2.134-12.568,16.167,16.167,0,0,1,10.355-7.351,16.459,16.459,0,0,1,8.537.316,16.25,16.25,0,0,1,7.114,4.348,9.475,9.475,0,0,1,.87.949h0a1.388,1.388,0,0,0,.316.4,10.062,10.062,0,0,1,1.028,1.5.245.245,0,0,0,.079.158c.237.4.4.711.632,1.107a20.869,20.869,0,0,1,1.344,3.715,16.713,16.713,0,0,1,.158,6.561Z" transform="translate(-252.544 -36.306)" fill="#838ee8"/><g transform="translate(2.565 2.446)" opacity="0.5"><path d="M288.206,58.608h0a9.191,9.191,0,0,1-.316,1.423h0a1.86,1.86,0,0,1-.158.632,18.032,18.032,0,0,1-1.581,3.557A22.78,22.78,0,0,1,283.78,67.3,16.334,16.334,0,0,1,275.8,71.73a14.244,14.244,0,0,1-3.636.4,16.368,16.368,0,0,1-3.636-32.33,14.856,14.856,0,0,1,3.715-.4,16.458,16.458,0,0,1,11.778,4.98,5.444,5.444,0,0,1,.87,1.028h0a1.388,1.388,0,0,0,.316.4,10.066,10.066,0,0,1,1.028,1.5.245.245,0,0,0,.079.158c.237.316.4.711.632,1.107a20.1,20.1,0,0,1,1.344,3.636,16.283,16.283,0,0,1,.158,6.482Z" transform="translate(-255.789 -39.4)" fill="#d4d8f3"/></g><path d="M312.174,95.7c-.158,0-.316.158-.474.237l5.059,6.4c.158,0,.316-.158.474-.237Z" transform="translate(-264.939 -48.752)" fill="#ff9a95"/><path d="M292.2,85l.237,6.877a1.543,1.543,0,0,1,.553.079L292.753,85Z" transform="translate(-260.853 -46.509)" fill="#ff9a95"/></g><path d="M278.724,98.485h-.4a.875.875,0,0,1-.553-.711l-1.186-5.138a.125.125,0,1,1,.237-.079l1.186,5.138c0,.237.237.4.474.553h.474l4.348-.949a.65.65,0,0,0,.474-.316.694.694,0,0,0,.079-.553l-.79-3.478a.125.125,0,0,1,.237-.079l.79,3.478a1.175,1.175,0,0,1-.158.711.7.7,0,0,1-.632.4l-4.347.949h-.237Zm3.32-10.355a.077.077,0,0,1-.079-.079l-.79-3.557h0l-2.055-9.011,3.4-5.375h0a14.434,14.434,0,0,0,1.265-1.028l.316-.316a4.769,4.769,0,0,0,.632-.632,17.222,17.222,0,0,0,2.608-3.32,20.411,20.411,0,0,0,1.739-3.478,18.6,18.6,0,0,0,.632-10.592,18.83,18.83,0,0,0-22.528-14.149,18.577,18.577,0,0,0-11.7,8.3,18.218,18.218,0,0,0-2.371,14.149,18.941,18.941,0,0,0,7.035,10.829v.158h-.158a19.188,19.188,0,0,1-7.114-10.987,18.92,18.92,0,0,1,2.45-14.307,19.129,19.129,0,0,1,11.857-8.458,18.92,18.92,0,0,1,14.307,2.45,19.129,19.129,0,0,1,8.458,11.857,19.59,19.59,0,0,1-.632,10.671,18.547,18.547,0,0,1-1.739,3.557,17.9,17.9,0,0,1-2.608,3.32l-.632.632-.316.316c-.4.316-.79.711-1.265,1.028l-3.32,5.217h0l2.846,12.489a.245.245,0,0,1-.079.158h0Zm-6.4-.237a.077.077,0,0,1-.079-.079l-.949-4.11h0l-1.265-5.454h0l-.237-1.186h0c0-.079-5.217-3.4-5.217-3.4a22.181,22.181,0,0,1-2.45-.632.112.112,0,0,1,.158-.158c.79.237,1.66.474,2.45.632h0l5.375,3.32h0c0,.079.316,1.581.316,1.581h0l1.186,5.217h0l.949,4.11a.245.245,0,0,1-.079.158h-.158ZM264.179,72.637h-.158v-.079c0-.079,0-.079.079-.079h0a.245.245,0,0,1,.158.079v.079c0,.079,0,.079-.079.079Zm-1.5-.711h0v-.079c0-.079,0-.079.079-.079h0v.079C262.757,71.926,262.757,71.926,262.678,71.926Zm-1.344-.79h0a.245.245,0,0,1-.158-.079H261.1V70.9h0a.077.077,0,0,1,.079-.079h0l.158.158v.158h0Z" transform="translate(-252.407 -35.808)" fill="#27191c"/><path d="M271.908,72.294a16.626,16.626,0,0,1-8.774-2.529,16.167,16.167,0,0,1-7.351-10.355,16.377,16.377,0,0,1,2.134-12.568,16.167,16.167,0,0,1,10.355-7.351,16.459,16.459,0,0,1,8.537.316,16.25,16.25,0,0,1,7.114,4.348,9.483,9.483,0,0,1,.87.949h0a1.387,1.387,0,0,0,.316.4,10.067,10.067,0,0,1,1.028,1.5.245.245,0,0,0,.079.158c.237.4.4.711.632,1.107a20.871,20.871,0,0,1,1.344,3.715,16.713,16.713,0,0,1,.158,6.561h0a9.188,9.188,0,0,1-.316,1.423h0a1.861,1.861,0,0,1-.158.632,16.47,16.47,0,0,1-4.11,6.719h0A16.713,16.713,0,0,1,275.7,71.82a15.253,15.253,0,0,1-3.715.4Zm.079-33.041a19.776,19.776,0,0,0-3.715.4,16.017,16.017,0,0,0-10.2,7.272,16.693,16.693,0,0,0-2.134,12.41,16.434,16.434,0,0,0,15.967,12.726,18.958,18.958,0,0,0,3.636-.4,16.689,16.689,0,0,0,7.984-4.427h0a16.9,16.9,0,0,0,4.031-6.64,1.465,1.465,0,0,1,.158-.553h0a9.188,9.188,0,0,0,.316-1.423h0a16.284,16.284,0,0,0-.158-6.482,14.318,14.318,0,0,0-1.344-3.636,7.894,7.894,0,0,0-.632-1.107.245.245,0,0,0-.079-.158,16.942,16.942,0,0,0-1.028-1.5.617.617,0,0,0-.316-.316h0a11.824,11.824,0,0,0-.869-1.028,16.325,16.325,0,0,0-11.778-4.98Z" transform="translate(-253.022 -36.492)" fill="#27191c"/><path d="M278.9,89l-.4-1.581L284.666,86l.4,1.581Zm-.079-1.423.237,1.186,5.77-1.344-.237-1.186Z" transform="translate(-257.875 -46.325)" fill="#27191c"/><path d="M298.412,92.533a26.56,26.56,0,0,1-4.98-.474.443.443,0,0,1-.4-.474l-.237-8.063a.812.812,0,0,1,.79-.869,27.356,27.356,0,0,0,6.245-.79,33.686,33.686,0,0,0,7.035-2.688h0s.158,0,.158-.079a3.692,3.692,0,0,1,.79-.4h.158v.158c-.237.158-.553.237-.79.4a.39.39,0,0,0-.237.079h0a29.8,29.8,0,0,1-7.035,2.688,27.357,27.357,0,0,1-6.245.79.68.68,0,0,0-.632.632l.237,8.063a.21.21,0,0,0,.237.237,26.242,26.242,0,0,0,6.8.474h1.028a.079.079,0,0,1,0,.158h-2.925Z" transform="translate(-260.871 -44.795)" fill="#27191c"/><g transform="translate(29.478 108.919)"><path d="M307.693,175.655a.077.077,0,0,1-.079-.079v-1.818h-6.877l.237,1.818a.125.125,0,0,1-.237.079L300.5,173.6h7.351v2.055a.077.077,0,0,1-.079.079Z" transform="translate(-291.963 -173.6)" fill="#27191c"/><path d="M305.825,182.949H289.7V182h16.125Zm-15.888-.237h15.651v-.553H289.937Z" transform="translate(-289.7 -175.36)" fill="#27191c"/><path d="M305.825,183.849H289.7V182.9h16.125Zm-15.888-.158h15.651v-.553H289.937Z" transform="translate(-289.7 -175.549)" fill="#27191c"/><path d="M294.079,177.037a.077.077,0,0,1-.079-.079.245.245,0,0,1,.079-.158h1.028a.077.077,0,0,1,.079.079c0,.079,0,.079-.079.079h-1.028Z" transform="translate(-290.601 -174.271)" fill="#27191c"/><path d="M305.825,181.068H289.7a4.229,4.229,0,0,1,1.265-3.083,3.571,3.571,0,0,1,1.344-.869h.158v.158a4.515,4.515,0,0,0-1.265.869,4.205,4.205,0,0,0-1.186,2.688h15.651v-3.873H297.13a.077.077,0,0,1-.079-.079c0-.079,0-.079.079-.079h8.7v4.348Z" transform="translate(-289.7 -174.271)" fill="#27191c"/><path d="M297.607,176.958h-1.028a.077.077,0,0,1-.079-.079c0-.079,0-.079.079-.079h1.028a.077.077,0,0,1,.079.079C297.686,176.958,297.686,176.958,297.607,176.958Z" transform="translate(-291.125 -174.271)" fill="#27191c"/><path d="M308.067,176.665H300.4a1.234,1.234,0,0,1,1.186-1.265h5.375a1.216,1.216,0,0,1,1.186,1.186h0Zm-7.509-.158h7.272a.885.885,0,0,0-.949-.79h-5.375A1.017,1.017,0,0,0,300.558,176.507Z" transform="translate(-291.942 -173.977)" fill="#27191c"/><path d="M293.453,179.3a.54.54,0,0,1-.553-.553v-1.9a.553.553,0,0,1,1.107,0v1.9A.54.54,0,0,1,293.453,179.3Zm0-2.767a.34.34,0,0,0-.316.316v1.9a.316.316,0,0,0,.632,0v-1.9A.34.34,0,0,0,293.453,176.537Z" transform="translate(-290.371 -174.166)" fill="#27191c"/><path d="M295.853,179.3a.54.54,0,0,1-.553-.553v-1.9a.553.553,0,0,1,1.107,0v1.9A.54.54,0,0,1,295.853,179.3Zm0-2.767a.34.34,0,0,0-.316.316v1.9a.316.316,0,0,0,.632,0v-1.9A.34.34,0,0,0,295.853,176.537Z" transform="translate(-290.873 -174.166)" fill="#27191c"/><path d="M298.353,179.3a.54.54,0,0,1-.553-.553v-1.9a.553.553,0,0,1,1.107,0v1.9A.54.54,0,0,1,298.353,179.3Zm0-2.767a.34.34,0,0,0-.316.316v1.9a.316.316,0,0,0,.632,0v-1.9A.34.34,0,0,0,298.353,176.537Z" transform="translate(-291.397 -174.166)" fill="#27191c"/></g><path d="M308.1,170.758h-8.616a.077.077,0,0,1-.079-.079c0-.079,0-.079.079-.079H308.1a.077.077,0,0,1,.079.079C308.174,170.758,308.174,170.758,308.1,170.758Z" transform="translate(-262.254 -64.052)" fill="#27191c"/><g transform="translate(49.635 108.919)"><path d="M333.193,175.655a.077.077,0,0,1-.079-.079v-1.818h-6.877l.237,1.818a.125.125,0,0,1-.237.079L326,173.6h7.351v2.055a.077.077,0,0,1-.079.079Z" transform="translate(-317.463 -173.6)" fill="#27191c"/><path d="M331.325,182.949H315.2V182h16.125Zm-15.888-.237h15.651v-.553H315.437Z" transform="translate(-315.2 -175.36)" fill="#27191c"/><path d="M331.325,183.849H315.2V182.9h16.125Zm-15.888-.158h15.651v-.553H315.437Z" transform="translate(-315.2 -175.549)" fill="#27191c"/><path d="M319.679,177.037a.077.077,0,0,1-.079-.079.245.245,0,0,1,.079-.158h1.028a.077.077,0,0,1,.079.079c0,.079,0,.079-.079.079h-1.028Z" transform="translate(-316.122 -174.271)" fill="#27191c"/><path d="M331.325,181.068H315.2a4.228,4.228,0,0,1,1.265-3.083,3.571,3.571,0,0,1,1.344-.869h.158v.158a4.515,4.515,0,0,0-1.265.869,4.205,4.205,0,0,0-1.186,2.688h15.651v-3.873H322.63a.077.077,0,0,1-.079-.079c0-.079,0-.079.079-.079h8.7v4.348Z" transform="translate(-315.2 -174.271)" fill="#27191c"/><path d="M323.107,176.958h-1.028a.077.077,0,0,1-.079-.079c0-.079,0-.079.079-.079h1.028a.077.077,0,0,1,.079.079C323.186,176.958,323.186,176.958,323.107,176.958Z" transform="translate(-316.625 -174.271)" fill="#27191c"/><path d="M333.568,176.665H325.9a1.234,1.234,0,0,1,1.186-1.265h5.375a1.216,1.216,0,0,1,1.186,1.186h0Zm-7.509-.158h7.272a.885.885,0,0,0-.949-.79h-5.375A1.017,1.017,0,0,0,326.058,176.507Z" transform="translate(-317.442 -173.977)" fill="#27191c"/><path d="M318.953,179.3a.54.54,0,0,1-.553-.553v-1.9a.553.553,0,0,1,1.107,0v1.9A.54.54,0,0,1,318.953,179.3Zm0-2.767a.34.34,0,0,0-.316.316v1.9a.316.316,0,1,0,.632,0v-1.9A.34.34,0,0,0,318.953,176.537Z" transform="translate(-315.871 -174.166)" fill="#27191c"/><path d="M321.353,179.3a.54.54,0,0,1-.553-.553v-1.9a.553.553,0,0,1,1.107,0v1.9A.54.54,0,0,1,321.353,179.3Zm0-2.767a.34.34,0,0,0-.316.316v1.9a.316.316,0,0,0,.632,0v-1.9A.34.34,0,0,0,321.353,176.537Z" transform="translate(-316.373 -174.166)" fill="#27191c"/><path d="M323.853,179.3a.54.54,0,0,1-.553-.553v-1.9a.553.553,0,0,1,1.107,0v1.9A.54.54,0,0,1,323.853,179.3Zm0-2.767a.34.34,0,0,0-.316.316v1.9a.316.316,0,1,0,.632,0v-1.9A.34.34,0,0,0,323.853,176.537Z" transform="translate(-316.897 -174.166)" fill="#27191c"/></g><path d="M333.074,170.758h-8.7a.077.077,0,0,1-.079-.079c0-.079,0-.079.079-.079h8.7a.077.077,0,0,1,.079.079C333.153,170.758,333.153,170.758,333.074,170.758Z" transform="translate(-267.472 -64.052)" fill="#27191c"/><path d="M306.873,161.055h-7.43a.443.443,0,0,1-.474-.4l-2.925-18.181a18.677,18.677,0,0,1,.474-7.826l5.533-21.263s0-.079.158,0c0,0,.079,0,0,.158l-5.533,21.263a18.306,18.306,0,0,0-.474,7.746l2.925,18.181a.252.252,0,0,0,.237.237h7.43a.34.34,0,0,0,.316-.316v-1.976c.079,0,.949-17.074.949-17.074a1.741,1.741,0,0,1,.079-.632l2.846-10.039a.077.077,0,0,1,.079-.079c.079,0,.079,0,.079.079h0L308.3,140.978c0,.158-.079.4-.079.553l-.869,17.074v1.976a.689.689,0,0,1-.632.474Z" transform="translate(-261.507 -52.057)" fill="#27191c"/><path d="M330.821,161.128h-7.351a.594.594,0,0,1-.553-.4l-6.007-17.548a97.883,97.883,0,0,1-1.739-10.355c0-.553-.158-1.107-.237-1.9h0c-.237-2.134-.474-4.031-.632-5.217V125a.125.125,0,0,1,.237-.079v.711c.158,1.186.316,3.083.632,5.217h0c.079.79.158,1.344.237,1.9a92.321,92.321,0,0,0,1.66,10.276l6.008,17.548c0,.158.237.237.4.237h7.351s.158,0,.158-.079V160.5l-2.134-20.473v-.869l-.711-25.374a.079.079,0,0,1,.158,0L329,139.153v.869l2.134,20.473a.435.435,0,0,1-.158.4.6.6,0,0,1-.316.158Z" transform="translate(-265.376 -52.129)" fill="#27191c"/><path d="M311.577,75.453h0s-.079,0-.079-.158l.4-2.371a3.762,3.762,0,0,1-1.9-2.846V66.284a3.484,3.484,0,0,1,2.609-3.636,3.641,3.641,0,0,1,3.952,1.028,4.413,4.413,0,0,1,1.186,2.925,1.516,1.516,0,0,1,1.265,1.5,1.38,1.38,0,0,1-.553,1.107,1.552,1.552,0,0,1-1.186.4h-.237v.079h0c-.158.4-.316.79-.553,1.265h-.158v-.158a8.78,8.78,0,0,0,.553-1.265h0c.079-.237.079-.237.158-.237h.316a1.5,1.5,0,0,0,1.028-.4,1.127,1.127,0,0,0,.474-.949,1.284,1.284,0,0,0-1.186-1.265h-.079V66.6a4.413,4.413,0,0,0-1.186-2.925,3.626,3.626,0,0,0-6.245,2.45V69.92a3.557,3.557,0,0,0,1.9,2.688h0l-.4,2.529a.077.077,0,0,1-.079.079Z" transform="translate(-264.471 -41.39)" fill="#27191c"/><path d="M320.128,69.653h-.079c-.079-.316-.4-.4-.87-.4a.079.079,0,0,1,0-.158h0c.237,0,.87,0,1.028.553v.158h0Z" transform="translate(-266.382 -42.784)" fill="#27191c"/><path d="M319.279,69.99a.077.077,0,0,1-.079-.079.245.245,0,0,1,.079-.158c.237,0,.4-.237.474-.474,0,0,0-.079.158-.079,0,0,.079,0,.079.158,0,.316-.316.553-.632.632h-.079Z" transform="translate(-266.403 -42.805)" fill="#27191c"/><path d="M313.9,70.186c-.158,0-.316,0-.4-.237a.592.592,0,0,1,.079-.4L313.9,69h.158v.158l-.316.553c0,.079-.079.158,0,.237a.276.276,0,0,0,.158.079.6.6,0,0,0,.316-.079h.158v.158c-.079,0-.237.158-.4.158h0Z" transform="translate(-265.209 -42.763)" fill="#27191c"/><path d="M303.279,94.983h0s-.079,0-.079-.158c.079-.869.237-2.134.237-2.292V92.3h0v-.949a29.508,29.508,0,0,1,1.423-6.482v-.079a10.4,10.4,0,0,1,1.581-3.083,1.092,1.092,0,0,1,.237-.316l.079-.079a.245.245,0,0,1,.079-.158l.079-.079.158-.158.079-.079.079-.079.158-.158.079-.079c.316-.316.632-.553.949-.869h0V79.57h.079l.079-.079.079-.079s.158-.079.158-.158c.237-.158.553-.4.79-.553h.158v.4l-.158-.158-.711.474-.158.158h-.079l-.079.079H308.5c-.316.316-.632.553-.948.87l-.079.079a.276.276,0,0,0-.079.158l-.079.079-.079.079-.158.158-.079.079a.245.245,0,0,1-.079.158l-.079.079c-.079.079-.158.237-.237.316a10.063,10.063,0,0,0-1.581,3v.079a29.766,29.766,0,0,0-1.423,6.4v.237a2.189,2.189,0,0,1-.079.711h0v.237c0,.158-.158,1.423-.237,2.292a.077.077,0,0,1-.079.079Z" transform="translate(-263.051 -44.795)" fill="#27191c"/><path d="M322.241,110.34c-1.423,0-2.767,0-4.189-.079H315.6c-1.028,0-2.055-.079-3.083-.158-1.186,0-2.45-.158-3.636-.158h-1.66a18.065,18.065,0,0,1-2.925,0,2.8,2.8,0,0,1-.87-.237,1.9,1.9,0,0,1-1.028-1.66v-2.609a.079.079,0,1,1,.158,0c0,1.344-.079,2.213,0,2.609a1.461,1.461,0,0,0,.87,1.5c.237.079.474.158.79.237a17.105,17.105,0,0,0,2.846,0h1.66a29.213,29.213,0,0,1,3.715.158c1.028,0,2.055.158,3.083.158h2.45c2.292,0,4.743.158,7.114,0a1.24,1.24,0,0,0,1.265-1.186l-1.265-13.359a.125.125,0,1,1,.237-.079l1.265,13.359a1.284,1.284,0,0,1-.79,1.265,1.49,1.49,0,0,1-.632.158C324.217,110.261,323.189,110.34,322.241,110.34Z" transform="translate(-262.883 -48.295)" fill="#27191c"/><path d="M318.585,99.938c-.158,0-.316,0-.4-.158l-6.64-8.458a.758.758,0,0,1-.158-.711.739.739,0,0,1,.4-.553c3.557-1.9,5.77-3.636,6.64-5.138h.158v.158c-.87,1.581-3.162,3.32-6.719,5.217a.525.525,0,0,0-.316.4.752.752,0,0,0,.158.553l6.64,8.458a.8.8,0,0,0,.237.079h.079c2.371-1.186,6.64-3.873,8.379-7.826V91.8a7.733,7.733,0,0,0,.711-3.241v-.474a9.253,9.253,0,0,0-4.189-7.984,12.828,12.828,0,0,0-6.166-1.739.079.079,0,0,1,0-.158h0a6.485,6.485,0,0,1,1.739.158,11.506,11.506,0,0,1,4.506,1.66,7.749,7.749,0,0,1,3.162,3.557,10.393,10.393,0,0,1,1.107,4.664v.474a9.61,9.61,0,0,1-.711,3.32v.158c-1.739,4.031-6.087,6.719-8.537,7.9h-.237Z" transform="translate(-264.761 -44.69)" fill="#27191c"/><path d="M318.78,77.222H318.7c-1.739-2.371-.949-3.952-.949-4.031a.109.109,0,0,1,.158,0v.158s-.711,1.581.949,3.873v.158h0Z" transform="translate(-266.062 -43.633)" fill="#27191c"/><path d="M313.907,72.744h-.158c-.4,0-.711-.4-.949-.711V71.8c0-.079.079-.158.237-.158l1.5-.237h.237a.8.8,0,0,1,.079.237,1.235,1.235,0,0,1-.474.949,1.123,1.123,0,0,1-.474.158Zm.632-1.186h0l-1.5.237h0c.158.237.474.632.79.632a.581.581,0,0,0,.474-.158c.237-.158.316-.553.4-.79h0Zm0-.079Z" transform="translate(-265.062 -43.266)" fill="#27191c"/><path d="M314.034,80h-.553a2.444,2.444,0,0,1-1.581-1.265v-.158h.158a2.173,2.173,0,0,0,1.423,1.186q1.66.356,4.031-1.66h.158v.158c-1.423,1.186-2.608,1.818-3.715,1.818Z" transform="translate(-264.874 -44.669)" fill="#27191c"/><path d="M313.662,81.341h-.474a3.714,3.714,0,0,1-2.688-1.9v-.158h.158a3.271,3.271,0,0,0,2.529,1.739c1.66.237,3.636-.711,5.849-2.925h.158v.158c-2.055,1.976-3.873,3-5.454,3Z" transform="translate(-264.58 -44.67)" fill="#27191c"/><g transform="translate(7.503 33.427)"><path d="M267.139,85.249a3.968,3.968,0,0,1-.949-.158.112.112,0,0,1,.158-.158,3.362,3.362,0,0,0,.87.158h0a1.842,1.842,0,0,0,1.186-.553l.237-.237h.158v.158c-.079,0-.158.158-.237.237a1.907,1.907,0,0,1-1.344.553h-.079Z" transform="translate(-262.792 -79.395)" fill="#27191c"/><path d="M265.964,84.556h0a.435.435,0,0,1-.4-.237.718.718,0,0,1,0-.79,1.417,1.417,0,0,1,.4-.553,5.8,5.8,0,0,1,1.423-1.107q.474-.237.711,0c.158,0,.237.237.316.4a1.594,1.594,0,0,1-.237.87.245.245,0,0,1-.079.158h0a9.474,9.474,0,0,1-.949.87h0a1.687,1.687,0,0,1-.949.553Zm1.818-2.688a.86.86,0,0,0-.4.079,5.079,5.079,0,0,0-1.344,1.028,2.1,2.1,0,0,0-.4.474.866.866,0,0,0,0,.632c0,.079.158.158.237.158a1.6,1.6,0,0,0,.87-.474h0a10.345,10.345,0,0,0,.87-.949h0a.245.245,0,0,1,.079-.158,1.051,1.051,0,0,0,.237-.632c0-.079,0-.158-.158-.237h-.158Zm.079,1.107Z" transform="translate(-262.644 -78.861)" fill="#27191c"/><path d="M264.59,83.409a.761.761,0,0,1-.79-.553,1.9,1.9,0,0,1,.711-1.344,2.828,2.828,0,0,1,1.66-.711c.316,0,.553.079.553.4v.474s0,.158-.079.158h0c0,.079,0,.158-.079.158a1.091,1.091,0,0,1-.237.316,4.768,4.768,0,0,1-.632.632,1.642,1.642,0,0,1-.949.4h0Zm1.581-2.371h0a2.808,2.808,0,0,0-1.5.632,2.008,2.008,0,0,0-.632,1.107c0,.237.316.316.553.316a1.4,1.4,0,0,0,.79-.316,3.961,3.961,0,0,0,.553-.632c0-.079.158-.158.237-.316a.245.245,0,0,1,.079-.158h0c0-.079,0-.158.079-.158V81.2c0-.158-.158-.237-.316-.237Zm.237.711Z" transform="translate(-262.298 -78.662)" fill="#27191c"/><path d="M263.29,81.7c-.237,0-.553,0-.711-.237s-.079-.553.237-.869a3.007,3.007,0,0,1,1.028-.711H264a.712.712,0,0,0,.4-.079h.711a.6.6,0,0,1,.316.158h0c.079,0,.158.158.237.237a.752.752,0,0,1-.158.553,1.654,1.654,0,0,1-.474.316s-.158,0-.158.079c-.079,0-.158.079-.237.158a2.354,2.354,0,0,1-1.107.4h-.237Zm1.581-1.739h-1.028a2.5,2.5,0,0,0-.949.632c-.237.237-.316.474-.237.553.158.237.632.158.711.158a2.107,2.107,0,0,0,1.028-.4c.079,0,.158-.079.237-.158,0,0,.158,0,.158-.079a.789.789,0,0,0,.4-.316s.158-.158.079-.316a.155.155,0,0,0-.158-.158h0a.8.8,0,0,0-.237-.079h-.158Z" transform="translate(-262.026 -78.452)" fill="#27191c"/><path d="M263.165,79.838h-.079a1.564,1.564,0,0,1-.87-.158.34.34,0,0,1-.316-.316v-.4a1.825,1.825,0,0,1,.553-.553c.158,0,.237-.158.4-.158a2.074,2.074,0,0,1,1.976.158,1.09,1.09,0,0,1,.237.316.688.688,0,0,1-.4.711.39.39,0,0,0-.237.079,2.512,2.512,0,0,1-.711.237h-.474Zm.632-1.5a1.853,1.853,0,0,0-.87.158c-.158,0-.237.079-.4.158-.158,0-.4.237-.474.4v.237q0,.119.237.237a2.808,2.808,0,0,0,.79.158h.553a1.509,1.509,0,0,0,.632-.237h0s.158,0,.158-.079c.079,0,.4-.237.316-.474a.155.155,0,0,0-.158-.158,1.657,1.657,0,0,0-.87-.316Z" transform="translate(-261.9 -78.095)" fill="#27191c"/></g><path d="M298.58,148.842a.077.077,0,0,1-.079-.079,10.985,10.985,0,0,1,.553-7.272.112.112,0,0,1,.158.158,10.983,10.983,0,0,0-.553,7.114v.158h0Z" transform="translate(-261.987 -57.945)" fill="#27191c"/><path d="M300.505,148.8h-.079a6.11,6.11,0,0,1,.158-4.11.112.112,0,1,1,.158.158,6.386,6.386,0,0,0-.158,4.031v.158h0Z" transform="translate(-262.411 -58.616)" fill="#27191c"/><g transform="translate(22.127 47.105)"><path d="M281.111,103.2a.435.435,0,0,1-.4-.158,1,1,0,0,1-.316-.553.973.973,0,0,1,.4-.79,2.832,2.832,0,0,1,.87-.316,6.406,6.406,0,0,1,1.739,0s.079,0,.079.158c0,0,0,.079-.158.079a5.84,5.84,0,0,0-1.66,0,1.275,1.275,0,0,0-.711.237.719.719,0,0,0-.316.632.435.435,0,0,0,.237.4c.079,0,.158.079.237.079a.125.125,0,1,1,.079.237h-.079Z" transform="translate(-280.4 -96.642)" fill="#27191c"/><path d="M281.749,104.686a.851.851,0,0,1-.632-.158.534.534,0,0,1-.316-.474.665.665,0,0,1,.316-.553h.158v.158c-.079,0-.237.237-.237.316,0,.158.079.237.237.316a.921.921,0,0,0,.553.158h0a.079.079,0,1,1,0,.158h0Z" transform="translate(-280.484 -97.097)" fill="#27191c"/><path d="M282.381,105.965h0a.872.872,0,0,1-.79-.4c0-.079-.079-.237,0-.316,0-.237.237-.4.4-.553h.158v.158a.79.79,0,0,0-.316.4v.158c.079.158.316.237.632.237,0,0,.079,0,.079.158a.077.077,0,0,1-.079.079Z" transform="translate(-280.642 -97.349)" fill="#27191c"/><path d="M289.8,107.823H284.1a3.073,3.073,0,0,1-1.186-.158h-.158a.921.921,0,0,1-.4-1.265h.158v.158a.76.76,0,0,0,.316.949H283a2.512,2.512,0,0,0,1.107.158h5.612s.079,0,.079.158a.077.077,0,0,1-.079.079Z" transform="translate(-280.785 -97.705)" fill="#27191c"/><path d="M289.425,101.012h0a11.262,11.262,0,0,1-1.265-.4,33.466,33.466,0,0,1-4.506-1.818c-.158-.079-.316-.237-.474-.316-.4-.237-.553-.316-.712-.237-.079,0-.158.158-.158.316a1.132,1.132,0,0,0,.237.87,3.439,3.439,0,0,0,1.186.632.112.112,0,0,1-.158.158,2.9,2.9,0,0,1-1.265-.711,1.245,1.245,0,0,1-.316-1.028.534.534,0,0,1,.316-.474c.316-.237.553,0,.949.237a1.654,1.654,0,0,1,.474.316,33.462,33.462,0,0,0,4.506,1.818c.4.158.869.237,1.186.4A72.935,72.935,0,0,0,305.866,95.4h.158v.158a75.615,75.615,0,0,1-16.521,5.375h0Z" transform="translate(-280.73 -95.4)" fill="#27191c"/></g><path d="M277.021,88.968h0q-1.9-.711-3.557-1.423a18.693,18.693,0,0,1-4.664-2.688V84.7h.158a21.517,21.517,0,0,0,4.664,2.688q1.66.711,3.557,1.423a.11.11,0,0,1,0,.158h-.158Z" transform="translate(-255.842 -46.052)" fill="#27191c"/><path d="M292.038,93.776h0a17.478,17.478,0,0,1-1.976-.4c-.711-.158-1.5-.4-2.371-.632,0,0-.079,0,0-.158,0,0,0-.079.158,0,.869.237,1.581.474,2.371.632a17.48,17.48,0,0,0,1.976.4s.079,0,.079.158a.077.077,0,0,1-.079.079Z" transform="translate(-259.793 -47.699)" fill="#27191c"/><path d="M295.969,107.515a32.734,32.734,0,0,1-4.189-.237s-.079,0-.079-.158c0,0,0-.079.158-.079a50.858,50.858,0,0,0,6.877.158,40.584,40.584,0,0,0,14.465-3.4h.158v.158a39.649,39.649,0,0,1-14.544,3.4h-2.687Z" transform="translate(-260.641 -50.055)" fill="#27191c"/><path d="M291.785,84.932h0c-1.5-.079-3-.237-4.506-.4,0,0-.079,0-.079-.158,0,0,0-.079.158-.079,1.423.158,3,.316,4.506.4a.079.079,0,1,1,0,.158Z" transform="translate(-259.698 -45.969)" fill="#27191c"/><g transform="translate(39.201 19.223)"><path d="M309.5,64.137a12.85,12.85,0,0,0,0,3.241,10.577,10.577,0,0,1,.474-2.925,4.305,4.305,0,0,0,3.241-.316c1.581-.711,2.371-.553,3,.316a4.334,4.334,0,0,1,.711,1.818c1.66-.316,2.213,3-.553,2.688a13.69,13.69,0,0,0-.79,1.9,2.82,2.82,0,0,0,.079,1.265s6.877-2.925,2.688-9.565c-1.818-2.925-3.715-2.529-5.375-2.213-2.134.4-3.32,1.107-4.031.87-.4-.158-.79-.474-.87-.237a3.05,3.05,0,0,0,.87,2.846,2.1,2.1,0,0,0,.474.4Z" transform="translate(-303.259 -60.126)" fill="#27191c"/><path d="M311.5,68.374a.474.474,0,1,0,.474-.474A.51.51,0,0,0,311.5,68.374Z" transform="translate(-303.991 -61.755)" fill="#27191c"/><path d="M315.5,68.174a.474.474,0,1,0,.474-.474A.51.51,0,0,0,315.5,68.174Z" transform="translate(-304.829 -61.713)" fill="#27191c"/><path d="M303.186,92.738h0a41.589,41.589,0,0,1,1.5-7.588V85.07a11.384,11.384,0,0,1,1.581-3.083c.079-.079.158-.237.237-.316l.079-.079a.245.245,0,0,1,.079-.158l.079-.079.158-.158.079-.079.079-.079s0-.079.158-.158l.079-.079c.316-.316.632-.553.949-.87h.079c0-.079,0-.158.079-.158a1.137,1.137,0,0,0,.237-.158l.158-.158V79.3s-6.166,3.478-6.8,13.28h1.028v.237Z" transform="translate(-302 -64.144)" fill="#27191c"/><path d="M320.5,103.563a24.5,24.5,0,0,0,8.932-4.427l-.316-3.636c-1.5,3.478-4.98,6.087-8.458,7.9H320.5Z" transform="translate(-305.877 -67.538)" fill="#27191c"/><path d="M314.116,128.079,313.8,137.8l.237-.87.87-3h0c-.237-2.292-.474-4.189-.632-5.217l-.158-.711Z" transform="translate(-304.473 -74.348)" fill="#27191c"/></g></g><g transform="translate(186.377 130.742)"><g transform="translate(0.395)"><path d="M290.554,225.5l-1.186,8.537H285.1l1.265-8.537Z" transform="translate(-277.433 -192.222)" fill="#d4d8f3"/><path d="M353.157,224.068h-2.925L349.6,219.8h2.134Z" transform="translate(-290.948 -191.027)" fill="#d4d8f3"/><path d="M350.673,204.669h-3.241L346.8,200.4h2.45Z" transform="translate(-290.361 -186.962)" fill="#d4d8f3"/><path d="M336.653,224.068H327.8l.632-4.268h7.588Z" transform="translate(-286.38 -191.027)" fill="#d4d8f3"/><path d="M334.948,204.669H330.6l.632-4.268h3.083Z" transform="translate(-286.967 -186.962)" fill="#d4d8f3"/><path d="M309.454,234.037h-4.189L304,225.5h4.189Z" transform="translate(-281.393 -192.222)" fill="#fff"/><path d="M349.265,226.514h-4.189l-4.189-28.536L339.7,189.6h4.189l1.186,8.3v.158l.632,4.506h0L348,217.9v.079Z" transform="translate(-288.873 -184.699)" fill="#d4d8f3"/><path d="M343.665,226.514h-4.189l-1.265-8.7-.711-4.506-1.581-10.829h0l-.632-4.506h0L334.1,189.6h4.189Z" transform="translate(-287.7 -184.699)" fill="#fff"/><rect width="14.149" height="4.11" transform="translate(42.527 0.553)" fill="#d4d8f3"/><path d="M276.507,183.953v4.11h7.509l-1.265,8.458H277.3l1.423,4.268h3.4l-1.581,10.829H275.4l1.423,4.268h3.083l-1.265,8.616h4.189l1.265-8.7h23.556l-.553,3.715h0l-.711,4.98h4.189l5.375-36.994h1.344V183.4H276.032Zm33.674,17.311L308.6,212.094H285.044l1.581-10.829H310.18Zm1.9-13.043-1.265,8.458H287.257l1.265-8.458h23.556Z" transform="translate(-275.4 -183.4)" fill="#fff"/><path d="M306.891,216.692H302.7L301.2,206.1h4.189Z" transform="translate(-280.806 -188.157)" fill="#fff"/><path d="M293.37,206.1l-1.581,10.592H287.6l1.5-10.592Z" transform="translate(-277.956 -188.157)" fill="#d4d8f3"/><path d="M295.854,189.6l-1.186,8.3H290.4l1.265-8.3Z" transform="translate(-278.543 -184.699)" fill="#d4d8f3"/><path d="M304.175,197.9h-4.189l-1.186-8.3h4.189Z" transform="translate(-280.303 -184.699)" fill="#fff"/><path d="M309.775,197.9h-4.189l-1.186-8.3h4.189Z" transform="translate(-281.477 -184.699)" fill="#d4d8f3"/><path d="M312.491,216.692H308.3L306.8,206.1h4.189Z" transform="translate(-281.98 -188.157)" fill="#d4d8f3"/><path d="M330.144,189.6l-1.265,8.379-.632,4.506-1.581,10.829-.632,4.506-1.265,8.7H320.5l5.454-36.914h4.189Z" transform="translate(-284.85 -184.699)" fill="#d4d8f3"/><path d="M314.343,229.057l-.79,4.98h-2.688L309.6,225.5h4.189Z" transform="translate(-282.566 -192.222)" fill="#d4d8f3"/></g><g transform="translate(0 0.316)"><path d="M284.579,198.1h0s-.079,0-.079-.158l1.265-8.458s0-.079.158-.079c0,0,.079,0,.079.158l-1.265,8.458a.077.077,0,0,1-.079.079Z" transform="translate(-276.912 -184.973)" fill="#27191c"/><path d="M290.279,198.1h0s-.079,0-.079-.158l1.265-8.458s0-.079.158-.079c0,0,.079,0,.079.158l-1.265,8.458a.077.077,0,0,1-.079.079Z" transform="translate(-278.106 -184.973)" fill="#27191c"/><path d="M281.779,216.866h0s-.079,0-.079-.158l1.581-10.829s0-.079.158-.079c0,0,.079,0,.079.158l-1.581,10.829a.077.077,0,0,1-.079.079Z" transform="translate(-276.325 -188.41)" fill="#27191c"/><path d="M287.379,216.866h0s-.079,0-.079-.158l1.581-10.829s0-.079.158-.079c0,0,.079,0,.079.158l-1.581,10.829a.077.077,0,0,1-.079.079Z" transform="translate(-277.498 -188.41)" fill="#27191c"/><path d="M283.864,234.232H279.2l1.265-8.853s0-.079.158-.079c0,0,.079,0,.079.158l-1.265,8.616h4.189l1.265-8.7s0-.079.158-.079c0,0,.079,0,.079.158l-1.265,8.853Z" transform="translate(-275.801 -192.496)" fill="#27191c"/><path d="M317.179,216.866h0s-.079,0-.079-.158l1.581-10.829s0-.079.158-.079c0,0,.079,0,.079.158l-1.581,10.829a.077.077,0,0,1-.079.079Z" transform="translate(-283.743 -188.41)" fill="#27191c"/><path d="M320.079,198.1h0s-.079,0-.079-.158l1.265-8.458s0-.079.158-.079c0,0,.079,0,.079.158l-1.265,8.458a.077.077,0,0,1-.079.079Z" transform="translate(-284.35 -184.973)" fill="#27191c"/><path d="M317.179,216.866h0s-.079,0-.079-.158l1.581-10.829s0-.079.158-.079c0,0,.079,0,.079.158l-1.581,10.829a.077.077,0,0,1-.079.079Z" transform="translate(-283.743 -188.41)" fill="#27191c"/><path d="M282.438,204.843h-3.557L277.3,200.1h5.77a.077.077,0,0,1,.079.079c0,.079,0,.079-.079.079h-5.454l1.423,4.268h3.4a.077.077,0,0,1,.079.079c0,.079,0,.079-.079.079Z" transform="translate(-275.403 -187.215)" fill="#27191c"/><path d="M312.935,206.058H289.379a.077.077,0,0,1-.079-.079c0-.079,0-.079.079-.079h23.556a.077.077,0,0,1,.079.079C313.014,206.058,313.014,206.058,312.935,206.058Z" transform="translate(-277.917 -188.431)" fill="#27191c"/><path d="M313.835,200.358H290.279a.077.077,0,0,1-.079-.079c0-.079,0-.079.079-.079h23.556a.077.077,0,0,1,.079.079C313.914,200.358,313.914,200.358,313.835,200.358Z" transform="translate(-278.106 -187.236)" fill="#27191c"/><path d="M310.935,219.758H287.379a.077.077,0,0,1-.079-.079c0-.079,0-.079.079-.079h23.556a.077.077,0,0,1,.079.079C311.014,219.758,311.014,219.758,310.935,219.758Z" transform="translate(-277.498 -191.302)" fill="#27191c"/><path d="M310.135,225.458H286.579a.077.077,0,0,1-.079-.079c0-.079,0-.079.079-.079h23.556a.077.077,0,0,1,.079.079C310.214,225.458,310.214,225.458,310.135,225.458Z" transform="translate(-277.331 -192.496)" fill="#27191c"/><path d="M279.722,224.243h-3.241L274.9,219.5h5.375a.077.077,0,0,1,.079.079c0,.079,0,.079-.079.079h-5.138l1.423,4.268h3.083a.077.077,0,0,1,.079.079c0,.079,0,.079-.079.079Z" transform="translate(-274.9 -191.281)" fill="#27191c"/><path d="M318.1,188.385h-1.423a.077.077,0,0,1-.079-.079c0-.079,0-.079.079-.079h1.344v-4.11H276.758v4.11h7.509a.077.077,0,0,1,.079.079c0,.079,0,.079-.079.079H276.6V183.8h41.657v4.585H318.1Z" transform="translate(-275.256 -183.8)" fill="#27191c"/><path d="M315.335,189.558H291.779a.077.077,0,0,1-.079-.079c0-.079,0-.079.079-.079h23.556a.077.077,0,0,1,.079.079C315.414,189.558,315.414,189.558,315.335,189.558Z" transform="translate(-278.42 -184.973)" fill="#27191c"/><path d="M295.879,198.1h0s-.079,0-.079-.158l1.265-8.458s0-.079.158-.079c0,0,.079,0,.079.158l-1.265,8.458a.077.077,0,0,1-.079.079Z" transform="translate(-279.279 -184.973)" fill="#27191c"/><path d="M292.979,216.866h0s-.079,0-.079-.158l1.581-10.829s0-.079.158-.079c0,0,.079,0,.079.158l-1.581,10.829a.077.077,0,0,1-.079.079Z" transform="translate(-278.672 -188.41)" fill="#27191c"/><path d="M289.485,234.232h-4.506a.077.077,0,0,1-.079-.079c0-.079,0-.079.079-.079h4.348l1.265-8.7s0-.079.158-.079c0,0,.079,0,.079.158l-1.265,8.853Z" transform="translate(-276.995 -192.496)" fill="#27191c"/><path d="M324.885,226.731h-4.506a.077.077,0,0,1-.079-.079c0-.079,0-.079.079-.079h4.348l5.375-36.994s0-.079.158-.079c0,0,.079,0,.079.158l-5.454,37.231Z" transform="translate(-284.413 -184.994)" fill="#27191c"/><path d="M346.244,198.1a.077.077,0,0,1-.079-.079l-1.265-8.458a.125.125,0,0,1,.237-.079l1.265,8.458a.245.245,0,0,1-.079.158h-.079Z" transform="translate(-289.568 -184.973)" fill="#27191c"/><path d="M350.864,234.232h-4.585a.077.077,0,0,1-.079-.079c0-.079,0-.079.079-.079h4.268l-1.265-8.616a.125.125,0,1,1,.237-.079l1.265,8.853Z" transform="translate(-289.84 -192.496)" fill="#27191c"/><path d="M313.76,216.866a.077.077,0,0,1-.079-.079L312.1,205.958a.125.125,0,1,1,.237-.079l1.581,10.829a.245.245,0,0,1-.079.158h-.079Z" transform="translate(-282.695 -188.41)" fill="#27191c"/><path d="M315.532,229.152a.077.077,0,0,1-.079-.079l-.553-3.715a.125.125,0,0,1,.237-.079l.553,3.715a.245.245,0,0,1-.079.158h-.079Z" transform="translate(-283.282 -192.475)" fill="#27191c"/><path d="M308.16,216.866a.077.077,0,0,1-.079-.079L306.5,205.958a.125.125,0,1,1,.237-.079l1.581,10.829a.245.245,0,0,1-.079.158h-.079Z" transform="translate(-281.521 -188.41)" fill="#27191c"/><path d="M305.444,198.1a.077.077,0,0,1-.079-.079l-1.265-8.458a.125.125,0,0,1,.237-.079l1.265,8.458a.245.245,0,0,1-.079.158h-.079Z" transform="translate(-281.019 -184.973)" fill="#27191c"/><path d="M315.07,234.211h-4.506l-1.265-8.853a.125.125,0,0,1,.237-.079l1.265,8.7h4.347a.077.077,0,0,1,.079.079c0,.079,0,.079-.079.079Z" transform="translate(-282.108 -192.475)" fill="#27191c"/><path d="M311.044,198.1a.077.077,0,0,1-.079-.079l-1.265-8.458a.125.125,0,1,1,.237-.079l1.265,8.458a.245.245,0,0,1-.079.158h-.079Z" transform="translate(-282.192 -184.973)" fill="#27191c"/><path d="M335.064,206.058h-4.585a.077.077,0,0,1-.079-.079c0-.079,0-.079.079-.079h4.585a.077.077,0,0,1,.079.079C335.143,206.058,335.143,206.058,335.064,206.058Z" transform="translate(-286.529 -188.431)" fill="#27191c"/><path d="M334.6,200.358h-3.32a.077.077,0,0,1-.079-.079c0-.079,0-.079.079-.079h3.32a.077.077,0,0,1,.079.079C334.678,200.358,334.678,200.358,334.6,200.358Z" transform="translate(-286.697 -187.236)" fill="#27191c"/><path d="M336.226,219.758h-7.747a.077.077,0,0,1-.079-.079c0-.079,0-.079.079-.079h7.747a.077.077,0,0,1,.079.079C336.3,219.758,336.3,219.758,336.226,219.758Z" transform="translate(-286.11 -191.302)" fill="#27191c"/><path d="M316.55,219.758h-2.371a.077.077,0,0,1-.079-.079c0-.079,0-.079.079-.079h2.371a.077.077,0,0,1,.079.079C316.629,219.758,316.629,219.758,316.55,219.758Z" transform="translate(-283.114 -191.302)" fill="#27191c"/><path d="M336.669,225.458h-9.09a.077.077,0,0,1-.079-.079c0-.079,0-.079.079-.079h9.09a.077.077,0,0,1,.079.079C336.748,225.458,336.748,225.458,336.669,225.458Z" transform="translate(-285.922 -192.496)" fill="#27191c"/><path d="M352.724,220.178h-3.4c0-.079-2.213-15.414-2.213-15.414h0L346.4,200.1h2.846l1.581,4.743h-3.478l1.581,10.671h2.292l1.581,4.743Zm-3.162-.237h2.846l-1.423-4.268H348.93Zm-2.213-15.335h3.241l-1.423-4.268h-2.45Z" transform="translate(-289.882 -187.215)" fill="#27191c"/><path d="M343.818,226.689h-4.664l-1.265-8.853L334.965,198l-1.265-8.458a.125.125,0,1,1,.237-.079l1.265,8.458,4.189,28.536h4.189l-5.375-36.993a.125.125,0,1,1,.237-.079l1.265,8.458L343.9,226.61Z" transform="translate(-287.221 -184.952)" fill="#27191c"/><path d="M309.47,234.211h-4.506l-1.265-8.853a.125.125,0,1,1,.237-.079l1.265,8.7h4.347a.077.077,0,0,1,.079.079c0,.079,0,.079-.079.079Z" transform="translate(-280.935 -192.475)" fill="#27191c"/><path d="M299.844,198.1a.077.077,0,0,1-.079-.079l-1.265-8.458a.125.125,0,0,1,.237-.079L300,197.937a.245.245,0,0,1-.079.158h-.079Z" transform="translate(-279.845 -184.973)" fill="#27191c"/><path d="M302.56,216.866a.077.077,0,0,1-.079-.079L300.9,205.958a.125.125,0,1,1,.237-.079l1.581,10.829a.245.245,0,0,1-.079.158h-.079Z" transform="translate(-280.348 -188.41)" fill="#27191c"/><path d="M343.523,188.385H328.9V183.8h14.623Zm-14.386-.158h14.149v-4.11H329.137Z" transform="translate(-286.215 -183.8)" fill="#27191c"/><path d="M319.264,226.731H314.6l1.265-8.853s0-.079.158-.079c0,0,.079,0,.079.158l-1.265,8.616h4.189l5.375-36.994s0-.079.158-.079c0,0,.079,0,.079.158l-1.265,8.458-4.189,28.694Z" transform="translate(-283.219 -184.994)" fill="#27191c"/></g></g></g></g></g></svg>