<svg xmlns="http://www.w3.org/2000/svg" xmlns:xlink="http://www.w3.org/1999/xlink" width="140" height="140" viewBox="0 0 140 140"><defs><filter id="a" x="0" y="0" width="140" height="140" filterUnits="userSpaceOnUse"><feOffset dy="3" input="SourceAlpha"/><feGaussianBlur stdDeviation="3" result="b"/><feFlood flood-opacity="0.161"/><feComposite operator="in" in2="b"/><feComposite in="SourceGraphic"/></filter></defs><g transform="translate(9402.854 7187.743)"><g transform="translate(-9698.661 -10804.794)"><g transform="matrix(1, 0, 0, 1, 295.81, 3617.05)" filter="url(#a)"><circle cx="61" cy="61" r="61" transform="translate(9 6)" fill="#fff" opacity="0.45"/></g><circle cx="49" cy="49" r="49" transform="translate(316.808 3635.051)" fill="#fff"/></g><g transform="translate(-9363.399 -7148.442)"><path d="M178.061,274v12.926h-7.386V274a.925.925,0,0,1,.923-.923h5.54A.925.925,0,0,1,178.061,274Zm0,0" transform="translate(-152.206 -243.528)" fill="#fb7b76"/><path d="M280.461,231.329v17.542h-7.386V231.329a.927.927,0,0,1,.923-.923h5.539A.927.927,0,0,1,280.461,231.329Zm0,0" transform="translate(-243.526 -205.476)" fill="#b0d3f0"/><path d="M382.862,188.665v22.158h-7.386V188.665a.925.925,0,0,1,.923-.923h5.539A.926.926,0,0,1,382.862,188.665Zm0,0" transform="translate(-334.849 -167.428)" fill="#f3d55b"/><path d="M62.092,406.613a5.548,5.548,0,0,1-5.54,5.539H14.083a5.539,5.539,0,1,1,0-11.079H56.552A5.544,5.544,0,0,1,62.092,406.613Zm0,0" transform="translate(-7.616 -357.679)" fill="#283593"/><path d="M59.321,406.613a5.548,5.548,0,0,1-5.539,5.539h-39.7a5.539,5.539,0,1,1,0-11.079h39.7A5.544,5.544,0,0,1,59.321,406.613Zm0,0" transform="translate(-7.615 -357.679)" fill="#116562"/><g transform="translate(4.621 47.087)"><path d="M46.369,437.053a1.846,1.846,0,1,1-1.846-1.846A1.846,1.846,0,0,1,46.369,437.053Zm0,0" transform="translate(-42.676 -435.207)" fill="#02a9f4"/><path d="M140.236,437.053a1.846,1.846,0,1,1-1.846-1.846A1.846,1.846,0,0,1,140.236,437.053Zm0,0" transform="translate(-126.387 -435.207)" fill="#02a9f4"/><path d="M336.5,437.053a1.846,1.846,0,1,1-1.846-1.846A1.846,1.846,0,0,1,336.5,437.053Zm0,0" transform="translate(-301.418 -435.207)" fill="#02a9f4"/><path d="M438.9,437.053a1.847,1.847,0,1,1-1.847-1.846A1.847,1.847,0,0,1,438.9,437.053Zm0,0" transform="translate(-392.738 -435.207)" fill="#02a9f4"/><path d="M242.634,437.053a1.846,1.846,0,1,1-1.846-1.846A1.846,1.846,0,0,1,242.634,437.053Zm0,0" transform="translate(-217.707 -435.207)" fill="#02a9f4"/></g><path d="M75.66,359.329v3.693H68.273v-3.693a.927.927,0,0,1,.923-.923h5.539a.927.927,0,0,1,.923.923Zm0,0" transform="translate(-60.883 -319.628)" fill="#7b3d0e"/><path d="M72.889,359.329v3.693H68.273v-3.693a.927.927,0,0,1,.923-.923h2.77a.926.926,0,0,1,.923.923Zm0,0" transform="translate(-60.883 -319.628)" fill="#b15815"/><path d="M170.676,358.406h7.386v4.616h-7.386Zm0,0" transform="translate(-152.206 -319.628)" fill="#22cac5"/><path d="M170.676,315.742h7.386v4.616h-7.386Zm0,0" transform="translate(-152.206 -281.58)" fill="#22cac5"/><path d="M178.061,274v3.693h-7.386V274a.925.925,0,0,1,.923-.923h5.54A.925.925,0,0,1,178.061,274Zm0,0" transform="translate(-152.206 -243.528)" fill="#22cac5"/><path d="M170.676,358.406h4.616v4.616h-4.616Zm0,0" transform="translate(-152.206 -319.628)" fill="#a6eae8"/><path d="M170.676,315.742h4.616v4.616h-4.616Zm0,0" transform="translate(-152.206 -281.58)" fill="#a6eae8"/><path d="M175.292,274v3.693h-4.616V274a.925.925,0,0,1,.923-.923h2.77A.926.926,0,0,1,175.292,274Zm0,0" transform="translate(-152.206 -243.528)" fill="#a6eae8"/><path d="M375.477,358.406h7.386v4.616h-7.386Zm0,0" transform="translate(-334.849 -319.628)" fill="#b15815"/><path d="M375.477,315.742h7.386v4.616h-7.386Zm0,0" transform="translate(-334.849 -281.58)" fill="#b15815"/><path d="M375.477,273.074h7.386v4.616h-7.386Zm0,0" transform="translate(-334.849 -243.528)" fill="#b15815"/><path d="M375.477,230.406h7.386v4.616h-7.386Zm0,0" transform="translate(-334.849 -205.477)" fill="#b15815"/><path d="M382.862,188.665v3.693h-7.386v-3.693a.925.925,0,0,1,.923-.923h5.539A.926.926,0,0,1,382.862,188.665Zm0,0" transform="translate(-334.849 -167.428)" fill="#b15815"/><path d="M375.477,358.406h4.616v4.616h-4.616Zm0,0" transform="translate(-334.849 -319.628)" fill="#dfbba0"/><path d="M375.477,315.742h4.616v4.616h-4.616Zm0,0" transform="translate(-334.849 -281.58)" fill="#dfbba0"/><path d="M375.477,273.074h4.616v4.616h-4.616Zm0,0" transform="translate(-334.849 -243.528)" fill="#dfbba0"/><path d="M375.477,230.406h4.616v4.616h-4.616Zm0,0" transform="translate(-334.849 -205.477)" fill="#dfbba0"/><path d="M380.093,188.665v3.693h-4.616v-3.693a.925.925,0,0,1,.923-.923h2.77A.925.925,0,0,1,380.093,188.665Zm0,0" transform="translate(-334.849 -167.428)" fill="#dfbba0"/><path d="M273.074,358.406h7.386v4.616h-7.386Zm0,0" transform="translate(-243.526 -319.628)" fill="#22cac5"/><path d="M273.074,315.742h7.386v4.616h-7.386Zm0,0" transform="translate(-243.526 -281.58)" fill="#22cac5"/><path d="M273.074,273.074h7.386v4.616h-7.386Zm0,0" transform="translate(-243.526 -243.528)" fill="#22cac5"/><path d="M280.461,231.329v3.693h-7.386v-3.693a.927.927,0,0,1,.923-.923h5.539A.927.927,0,0,1,280.461,231.329Zm0,0" transform="translate(-243.526 -205.477)" fill="#22cac5"/><path d="M273.074,358.406h4.616v4.616h-4.616Zm0,0" transform="translate(-243.526 -319.628)" fill="#a6eae8"/><path d="M273.074,315.742h4.616v4.616h-4.616Zm0,0" transform="translate(-243.526 -281.58)" fill="#a6eae8"/><path d="M273.074,273.074h4.616v4.616h-4.616Zm0,0" transform="translate(-243.526 -243.528)" fill="#a6eae8"/><path d="M277.69,231.329v3.693h-4.616v-3.693a.927.927,0,0,1,.923-.923h2.769A.927.927,0,0,1,277.69,231.329Zm0,0" transform="translate(-243.526 -205.477)" fill="#a6eae8"/><path d="M62.055,12.543a1.834,1.834,0,0,0,.025-.476v-.008c0-.009-.006-.018-.007-.027a1.837,1.837,0,0,0-.105-.433c-.013-.036-.026-.071-.041-.106a1.844,1.844,0,0,0-.234-.4c-.009-.012-.022-.022-.032-.034a1.818,1.818,0,0,0-.31-.293c-.031-.024-.062-.047-.1-.069a1.837,1.837,0,0,0-.43-.217L55.286,8.632a1.847,1.847,0,1,0-1.168,3.5l1.557.519L37.161,24.788V20.54a1.847,1.847,0,0,0-2.909-1.51L9.324,34.725a1.847,1.847,0,1,0,2.125,3.021L33.468,24.1v3.829a1.847,1.847,0,0,0,2.743,1.614L56.989,16.15l-.346,1.036a1.847,1.847,0,0,0,3.5,1.167l1.846-5.539c.016-.049.021-.1.033-.149s.02-.08.027-.122Zm0,0" transform="translate(-7.612 -7.612)" fill="#22cac5"/><path d="M48.94,405.465H6.47a6.463,6.463,0,0,1,0-12.926H48.94a6.463,6.463,0,0,1,0,12.926ZM6.47,394.386a4.616,4.616,0,1,0,0,9.233H48.94a4.616,4.616,0,1,0,0-9.233Zm0,0" transform="translate(-0.003 -350.068)"/><path d="M36.911,432.212a2.77,2.77,0,1,1,2.77-2.77A2.77,2.77,0,0,1,36.911,432.212Zm0-3.693a.923.923,0,1,0,.923.923A.923.923,0,0,0,36.911,428.519Zm0,0" transform="translate(-30.443 -380.508)"/><path d="M130.777,432.212a2.77,2.77,0,1,1,2.769-2.77A2.77,2.77,0,0,1,130.777,432.212Zm0-3.693a.923.923,0,1,0,.923.923A.923.923,0,0,0,130.777,428.519Zm0,0" transform="translate(-114.154 -380.508)"/><path d="M327.043,432.212a2.77,2.77,0,1,1,2.77-2.77A2.77,2.77,0,0,1,327.043,432.212Zm0-3.693a.923.923,0,1,0,.923.923A.923.923,0,0,0,327.043,428.519Zm0,0" transform="translate(-289.186 -380.508)"/><path d="M429.445,432.212a2.77,2.77,0,1,1,2.77-2.77A2.77,2.77,0,0,1,429.445,432.212Zm0-3.693a.923.923,0,1,0,.923.923A.923.923,0,0,0,429.445,428.519Zm0,0" transform="translate(-380.508 -380.508)"/><path d="M233.18,432.212a2.77,2.77,0,1,1,2.77-2.77A2.77,2.77,0,0,1,233.18,432.212Zm0-3.693a.923.923,0,1,0,.923.923A.923.923,0,0,0,233.18,428.519Zm0,0" transform="translate(-205.478 -380.508)"/><path d="M103.33,428.561a.929.929,0,0,1-.351-.074,1.073,1.073,0,0,1-.3-.194.936.936,0,0,1,0-1.311,1.066,1.066,0,0,1,.3-.194.929.929,0,0,1,.7,0,1.06,1.06,0,0,1,.3.194.972.972,0,0,1,.268.655,1.289,1.289,0,0,1-.019.185.606.606,0,0,1-.055.166.7.7,0,0,1-.083.166l-.111.139a1.077,1.077,0,0,1-.3.194A.926.926,0,0,1,103.33,428.561Zm0,0" transform="translate(-91.324 -380.55)"/><path d="M205.733,462.694a.929.929,0,0,1-.351-.074,1.065,1.065,0,0,1-.3-.194.936.936,0,0,1,0-1.311,1.063,1.063,0,0,1,.3-.194.93.93,0,0,1,.7,0,1.072,1.072,0,0,1,.3.194.974.974,0,0,1,.268.655,1.283,1.283,0,0,1-.019.185.591.591,0,0,1-.055.166.711.711,0,0,1-.083.166l-.111.139a1.074,1.074,0,0,1-.3.194A.928.928,0,0,1,205.733,462.694Zm0,0" transform="translate(-182.647 -410.99)"/><path d="M393.466,428.561a.926.926,0,0,0,.351-.074,1.062,1.062,0,0,0,.3-.194.936.936,0,0,0,0-1.311,1.06,1.06,0,0,0-.3-.194.929.929,0,0,0-.7,0,1.072,1.072,0,0,0-.3.194.972.972,0,0,0-.267.655,1.276,1.276,0,0,0,.018.185.618.618,0,0,0,.055.166.7.7,0,0,0,.083.166l.111.139a1.083,1.083,0,0,0,.3.194A.929.929,0,0,0,393.466,428.561Zm0,0" transform="translate(-350.069 -380.55)"/><path d="M103.33,462.694a.928.928,0,0,1-.351-.074,1.073,1.073,0,0,1-.3-.194.936.936,0,0,1,0-1.311,1.066,1.066,0,0,1,.3-.194.929.929,0,0,1,.7,0,1.06,1.06,0,0,1,.3.194.972.972,0,0,1,.268.655,1.283,1.283,0,0,1-.019.185.606.606,0,0,1-.055.166.7.7,0,0,1-.083.166l-.111.139a1.067,1.067,0,0,1-.3.194A.925.925,0,0,1,103.33,462.694Zm0,0" transform="translate(-91.324 -410.99)"/><path d="M393.466,462.694a.925.925,0,0,0,.351-.074,1.061,1.061,0,0,0,.3-.194.936.936,0,0,0,0-1.311,1.06,1.06,0,0,0-.3-.194.929.929,0,0,0-.7,0,1.072,1.072,0,0,0-.3.194.972.972,0,0,0-.267.655,1.27,1.27,0,0,0,.018.185.618.618,0,0,0,.055.166.7.7,0,0,0,.083.166l.111.139a1.073,1.073,0,0,0,.3.194A.928.928,0,0,0,393.466,462.694Zm0,0" transform="translate(-350.069 -410.99)"/><path d="M291.064,462.694a.928.928,0,0,0,.351-.074,1.073,1.073,0,0,0,.3-.194.936.936,0,0,0,0-1.311,1.066,1.066,0,0,0-.3-.194.929.929,0,0,0-.7,0,1.061,1.061,0,0,0-.3.194.972.972,0,0,0-.268.655,1.287,1.287,0,0,0,.019.185.6.6,0,0,0,.055.166.694.694,0,0,0,.083.166l.111.139a1.067,1.067,0,0,0,.3.194A.925.925,0,0,0,291.064,462.694Zm0,0" transform="translate(-258.746 -410.99)"/><path d="M205.733,428.515a.93.93,0,0,1-.351-.074,1.066,1.066,0,0,1-.3-.194.936.936,0,0,1,0-1.311,1.066,1.066,0,0,1,.3-.194.93.93,0,0,1,.7,0,1.086,1.086,0,0,1,.3.194.974.974,0,0,1,.268.656,1.283,1.283,0,0,1-.019.185.59.59,0,0,1-.055.166.716.716,0,0,1-.083.167l-.111.138a1.075,1.075,0,0,1-.3.194A.929.929,0,0,1,205.733,428.515Zm0,0" transform="translate(-182.647 -380.509)"/><path d="M291.064,428.515a.929.929,0,0,0,.351-.074,1.075,1.075,0,0,0,.3-.194.936.936,0,0,0,0-1.311,1.063,1.063,0,0,0-.3-.194.929.929,0,0,0-.7,0,1.074,1.074,0,0,0-.3.194.973.973,0,0,0-.268.656,1.287,1.287,0,0,0,.019.185.6.6,0,0,0,.055.166.7.7,0,0,0,.083.167l.111.138a1.069,1.069,0,0,0,.3.194A.926.926,0,0,0,291.064,428.515Zm0,0" transform="translate(-258.746 -380.509)"/><path d="M68.052,356.337H60.665a.923.923,0,0,1-.923-.923v-3.693a1.848,1.848,0,0,1,1.846-1.846h5.539a1.848,1.848,0,0,1,1.846,1.846v3.693A.923.923,0,0,1,68.052,356.337Zm-6.463-1.846h5.539v-2.77H61.589Zm0,0" transform="translate(-53.275 -312.02)"/><path d="M170.45,280.234h-7.386a.923.923,0,0,1-.923-.923V266.385a1.849,1.849,0,0,1,1.846-1.846h5.54a1.849,1.849,0,0,1,1.846,1.846v12.926A.923.923,0,0,1,170.45,280.234Zm-6.463-1.846h5.54v-12h-5.54Zm0,0" transform="translate(-144.594 -235.916)"/><path d="M375.251,204.134h-7.386a.923.923,0,0,1-.923-.923V181.053a1.848,1.848,0,0,1,1.846-1.846h5.539a1.848,1.848,0,0,1,1.846,1.846v22.158A.923.923,0,0,1,375.251,204.134Zm-6.463-1.846h5.539V181.053h-5.539Zm0,0" transform="translate(-327.237 -159.816)"/><path d="M272.853,242.186h-7.386a.923.923,0,0,1-.923-.923V223.721a1.848,1.848,0,0,1,1.846-1.846h5.539a1.848,1.848,0,0,1,1.846,1.846v17.542A.923.923,0,0,1,272.853,242.186Zm-6.463-1.846h5.539V223.721H266.39Zm0,0" transform="translate(-235.918 -197.868)"/><path d="M170.45,351.721h-7.386a.923.923,0,1,1,0-1.846h7.386a.923.923,0,1,1,0,1.846Zm0,0" transform="translate(-144.594 -312.02)"/><path d="M170.45,309.053h-7.386a.923.923,0,1,1,0-1.846h7.386a.923.923,0,1,1,0,1.846Zm0,0" transform="translate(-144.594 -273.968)"/><path d="M272.853,351.721h-7.386a.923.923,0,0,1,0-1.846h7.386a.923.923,0,0,1,0,1.846Zm0,0" transform="translate(-235.918 -312.02)"/><path d="M272.853,309.053h-7.386a.923.923,0,0,1,0-1.846h7.386a.923.923,0,0,1,0,1.846Zm0,0" transform="translate(-235.918 -273.968)"/><path d="M272.853,266.385h-7.386a.923.923,0,0,1,0-1.846h7.386a.923.923,0,0,1,0,1.846Zm0,0" transform="translate(-235.918 -235.916)"/><path d="M375.251,351.721h-7.386a.923.923,0,1,1,0-1.846h7.386a.923.923,0,0,1,0,1.846Zm0,0" transform="translate(-327.237 -312.02)"/><path d="M375.251,309.053h-7.386a.923.923,0,1,1,0-1.846h7.386a.923.923,0,0,1,0,1.846Zm0,0" transform="translate(-327.237 -273.968)"/><path d="M375.251,266.385h-7.386a.923.923,0,1,1,0-1.846h7.386a.923.923,0,0,1,0,1.846Zm0,0" transform="translate(-327.237 -235.916)"/><path d="M375.251,223.721h-7.386a.923.923,0,1,1,0-1.846h7.386a.923.923,0,0,1,0,1.846Zm0,0" transform="translate(-327.237 -197.868)"/><path d="M2.776,31.392a2.77,2.77,0,0,1-1.6-5.035L26.147,10.636a2.769,2.769,0,0,1,4.324,2.291v2.539l15.5-10.16A2.77,2.77,0,0,1,47.966.144l5.54,1.846a2.749,2.749,0,0,1,.647.323c.054.036.1.069.144.1a2.705,2.705,0,0,1,.864,1.093c.022.05.042.1.062.157a2.791,2.791,0,0,1,.149.593c.007.034.012.068.015.1s0,.037,0,.057a2.744,2.744,0,0,1-.039.673c-.009.056-.022.111-.035.165a1.888,1.888,0,0,1-.058.236l-1.847,5.542a2.77,2.77,0,0,1-5.376-.533L29.1,22.7a2.769,2.769,0,0,1-4.166-2.39v-2.17L4.323,30.918a2.7,2.7,0,0,1-1.547.475ZM27.7,12a.917.917,0,0,0-.53.169L2.2,27.893a.918.918,0,0,0-.185,1.26.948.948,0,0,0,1.286.224L25.369,15.7a.924.924,0,0,1,1.41.785v3.829a.923.923,0,0,0,1.372.807L48.877,7.761A.923.923,0,0,1,50.253,8.83l-.345,1.036a.924.924,0,0,0,.584,1.167.939.939,0,0,0,1.168-.584L53.506,4.91l.017-.1.919.119-.909-.159a1.044,1.044,0,0,0,.016-.205l0-.016a1.01,1.01,0,0,0-.058-.247,1.2,1.2,0,0,0-.116-.23l-.028-.032a.94.94,0,0,0-.164-.154,1.058,1.058,0,0,0-.261-.146L47.382,1.9A.923.923,0,0,0,46.8,3.647l1.557.519a.923.923,0,0,1,.215,1.648L30.055,17.948a.923.923,0,0,1-1.429-.772V12.927A.926.926,0,0,0,27.7,12Zm0,0" transform="translate(0 0)"/></g></g></svg>