<svg xmlns="http://www.w3.org/2000/svg" xmlns:xlink="http://www.w3.org/1999/xlink" width="140" height="140" viewBox="0 0 140 140"><defs><filter id="a" x="0" y="0" width="140" height="140" filterUnits="userSpaceOnUse"><feOffset dy="3" input="SourceAlpha"/><feGaussianBlur stdDeviation="3" result="b"/><feFlood flood-opacity="0.161"/><feComposite operator="in" in2="b"/><feComposite in="SourceGraphic"/></filter></defs><g transform="translate(9724.854 7187.743)"><g transform="translate(-10020.661 -10804.794)"><g transform="matrix(1, 0, 0, 1, 295.81, 3617.05)" filter="url(#a)"><circle cx="61" cy="61" r="61" transform="translate(9 6)" fill="#fff" opacity="0.45"/></g><circle cx="49" cy="49" r="49" transform="translate(316.808 3635.051)" fill="#fff"/></g><g transform="translate(-9700.614 -7154.227)"><g transform="translate(16.5)"><g transform="translate(19.167 50.974)"><path d="M109.354,206.7l-7.816-10.93a2.173,2.173,0,0,0-3.535,0L90.187,206.7a2.212,2.212,0,0,0,1.8,3.5h15.569A2.212,2.212,0,0,0,109.354,206.7Z" transform="translate(-89.77 -194.865)" fill="#22cac5"/></g><g transform="translate(0.654 46.752)"><path d="M74.13,178.723H20.9a1.9,1.9,0,1,0,0,3.793H74.13a1.9,1.9,0,1,0,0-3.793Z" transform="translate(-19 -178.723)" fill="#5290db"/></g><g transform="translate(0.654 30.998)"><circle cx="7.547" cy="7.547" r="7.547" fill="#f5c84c"/></g><g transform="translate(38.401 30.998)"><circle cx="7.547" cy="7.547" r="7.547" fill="#f5c84c"/></g><g transform="translate(48.039 30.998)"><path d="M202.239,118.5a7.519,7.519,0,0,0-2.093.3,7.547,7.547,0,0,1,0,14.5,7.547,7.547,0,1,0,2.093-14.8Z" transform="translate(-200.146 -118.5)" fill="#edb311"/></g><g transform="translate(38.401 15.826)"><circle cx="7.547" cy="7.547" r="7.547" fill="#edb311"/></g><g transform="translate(48.039 15.826)"><path d="M202.239,60.5a7.519,7.519,0,0,0-2.093.3,7.547,7.547,0,0,1,0,14.5,7.547,7.547,0,1,0,2.093-14.8Z" transform="translate(-200.146 -60.5)" fill="#f5c84c"/></g><g transform="translate(38.401 0.654)"><circle cx="7.547" cy="7.547" r="7.547" fill="#f5c84c"/></g><g transform="translate(48.039 0.654)"><path d="M202.239,2.5a7.519,7.519,0,0,0-2.093.3,7.547,7.547,0,0,1,0,14.5,7.547,7.547,0,1,0,2.093-14.8Z" transform="translate(-200.146 -2.5)" fill="#edb311"/></g><g transform="translate(27.137 5.761)"><path d="M123.58,23.64a2.039,2.039,0,0,1-1.622-1.6c0-.026-.078-.026-.078,0a2.039,2.039,0,0,1-1.622,1.6c-.026,0-.026.052,0,.078a2.039,2.039,0,0,1,1.622,1.6c0,.026.078.026.078,0a2.039,2.039,0,0,1,1.622-1.6C123.606,23.693,123.606,23.64,123.58,23.64Z" transform="translate(-120.238 -22.025)" fill="#70d6f9"/></g><g transform="translate(5.835 17.16)"><path d="M39.646,68.713h.6v.6a.826.826,0,0,0,.837.837.838.838,0,0,0,.837-.811v-.628h.6a.826.826,0,0,0,.837-.837.838.838,0,0,0-.811-.837h-.628v-.6a.826.826,0,0,0-.837-.837.838.838,0,0,0-.837.811v.628h-.6a.826.826,0,0,0-.837.837.81.81,0,0,0,.837.837Z" transform="translate(-38.808 -65.6)" fill="#178d89"/></g><g transform="translate(8.767 58.465)"><circle cx="0.889" cy="0.889" r="0.889" fill="#87d147"/></g><g transform="translate(23.154 25.112)"><circle cx="0.889" cy="0.889" r="0.889" fill="#f5c84c"/></g><g transform="translate(46.082 56.333)"><path d="M192.7,217.665a2.9,2.9,0,0,0,2.328-2.276c0-.052.1-.052.1,0a2.9,2.9,0,0,0,2.328,2.276c.052,0,.052.078,0,.1a2.9,2.9,0,0,0-2.328,2.276c0,.052-.1.052-.1,0a2.9,2.9,0,0,0-2.328-2.276C192.65,217.744,192.65,217.665,192.7,217.665Z" transform="translate(-192.663 -215.35)" fill="#f5c84c"/></g><g transform="translate(18.515 50.32)"><path d="M105.715,209.011H90.146a2.866,2.866,0,0,1-2.331-4.533l7.816-10.93a2.827,2.827,0,0,1,4.6,0l7.816,10.93a2.866,2.866,0,0,1-2.331,4.533ZM97.93,193.673a1.5,1.5,0,0,0-1.235.636l-7.816,10.93a1.558,1.558,0,0,0,1.267,2.464h15.569a1.558,1.558,0,0,0,1.267-2.464l-7.816-10.93A1.5,1.5,0,0,0,97.93,193.673Z" transform="translate(-87.278 -192.365)"/></g><g transform="translate(0 46.098)"><path d="M72.284,181.324H19.05a2.55,2.55,0,0,1,0-5.1H72.284a2.55,2.55,0,0,1,0,5.1ZM19.05,177.531a1.243,1.243,0,1,0,0,2.485H72.284a1.243,1.243,0,0,0,0-2.485Z" transform="translate(-16.5 -176.223)"/></g><g transform="translate(7.547 33.317)"><path d="M46,137.821a.654.654,0,0,1-.654-.654v-9.149a.654.654,0,1,1,1.308,0v9.149A.654.654,0,0,1,46,137.821Z" transform="translate(-45.351 -127.364)"/></g><g transform="translate(0 30.344)"><path d="M24.7,132.4a8.2,8.2,0,1,1,8.2-8.2,8.21,8.21,0,0,1-8.2,8.2Zm0-15.094a6.893,6.893,0,1,0,6.893,6.893,6.9,6.9,0,0,0-6.893-6.893Z" transform="translate(-16.5 -116)"/></g><g transform="translate(5.084 34.02)"><path d="M39.756,139.1H38.348a2.416,2.416,0,0,1-2.413-2.413.654.654,0,1,1,1.308,0,1.107,1.107,0,0,0,1.105,1.105h1.407a1.107,1.107,0,0,0,1.105-1.105v-.7a1.107,1.107,0,0,0-1.105-1.105H38.348a2.413,2.413,0,1,1,0-4.827h1.407a2.416,2.416,0,0,1,2.413,2.413.654.654,0,1,1-1.308,0,1.107,1.107,0,0,0-1.105-1.105H38.348a1.105,1.105,0,0,0,0,2.211h1.407a2.416,2.416,0,0,1,2.413,2.413v.7A2.416,2.416,0,0,1,39.756,139.1Z" transform="translate(-35.935 -130.053)"/></g><g transform="translate(45.294 33.317)"><path d="M190.3,137.821a.654.654,0,0,1-.654-.654v-9.149a.654.654,0,1,1,1.308,0v9.149A.654.654,0,0,1,190.3,137.821Z" transform="translate(-189.649 -127.364)"/></g><g transform="translate(37.747 30.344)"><path d="M169,132.4a8.2,8.2,0,1,1,8.2-8.2A8.21,8.21,0,0,1,169,132.4Zm0-15.094a6.893,6.893,0,1,0,6.893,6.893A6.9,6.9,0,0,0,169,117.308Z" transform="translate(-160.798 -116)"/></g><g transform="translate(42.83 34.02)"><path d="M184.054,139.1h-1.407a2.416,2.416,0,0,1-2.413-2.413.654.654,0,1,1,1.308,0,1.107,1.107,0,0,0,1.105,1.105h1.407a1.107,1.107,0,0,0,1.105-1.105v-.7a1.107,1.107,0,0,0-1.105-1.105h-1.407a2.413,2.413,0,0,1,0-4.827h1.407a2.416,2.416,0,0,1,2.413,2.413.654.654,0,1,1-1.308,0,1.107,1.107,0,0,0-1.105-1.105h-1.407a1.105,1.105,0,0,0,0,2.211h1.407a2.416,2.416,0,0,1,2.413,2.413v.7A2.416,2.416,0,0,1,184.054,139.1Z" transform="translate(-180.233 -130.053)"/></g><g transform="translate(47.386 30.345)"><path d="M200.393,132.4a8.2,8.2,0,0,1-2.275-.322.654.654,0,0,1,0-1.256,6.893,6.893,0,0,0,0-13.245.654.654,0,0,1,0-1.256,8.2,8.2,0,1,1,2.275,16.08Zm.259-15.089a8.193,8.193,0,0,1,0,13.776,6.893,6.893,0,0,0,0-13.776Z" transform="translate(-197.646 -116.003)"/></g><g transform="translate(45.294 18.145)"><path d="M190.3,79.821a.654.654,0,0,1-.654-.654V70.018a.654.654,0,1,1,1.308,0v9.149A.654.654,0,0,1,190.3,79.821Z" transform="translate(-189.649 -69.364)"/></g><g transform="translate(37.747 15.172)"><path d="M169,74.4a8.2,8.2,0,1,1,8.2-8.2A8.21,8.21,0,0,1,169,74.4Zm0-15.094a6.893,6.893,0,1,0,6.893,6.893A6.9,6.9,0,0,0,169,59.308Z" transform="translate(-160.798 -58)"/></g><g transform="translate(42.83 18.848)"><path d="M184.054,81.1h-1.407a2.416,2.416,0,0,1-2.413-2.413.654.654,0,1,1,1.308,0,1.107,1.107,0,0,0,1.105,1.105h1.407a1.107,1.107,0,0,0,1.105-1.105v-.7a1.107,1.107,0,0,0-1.105-1.105h-1.407a2.413,2.413,0,1,1,0-4.827h1.407a2.416,2.416,0,0,1,2.413,2.413.654.654,0,1,1-1.308,0,1.107,1.107,0,0,0-1.105-1.105h-1.407a1.105,1.105,0,0,0,0,2.211h1.407a2.416,2.416,0,0,1,2.413,2.413v.7A2.416,2.416,0,0,1,184.054,81.1Z" transform="translate(-180.233 -72.053)"/></g><g transform="translate(47.386 15.173)"><path d="M200.393,74.4a8.2,8.2,0,0,1-2.275-.322.654.654,0,0,1,0-1.256,6.893,6.893,0,0,0,0-13.245.654.654,0,0,1,0-1.256,8.2,8.2,0,1,1,2.275,16.08Zm.259-15.089a8.193,8.193,0,0,1,0,13.777,6.893,6.893,0,0,0,0-13.777Z" transform="translate(-197.646 -58.003)"/></g><g transform="translate(45.294 2.973)"><path d="M190.3,21.821a.654.654,0,0,1-.654-.654V12.018a.654.654,0,1,1,1.308,0v9.149A.654.654,0,0,1,190.3,21.821Z" transform="translate(-189.649 -11.364)"/></g><g transform="translate(37.747)"><path d="M169,16.4a8.2,8.2,0,1,1,8.2-8.2A8.21,8.21,0,0,1,169,16.4Zm0-15.094A6.893,6.893,0,1,0,175.892,8.2,6.9,6.9,0,0,0,169,1.308Z" transform="translate(-160.798)"/></g><g transform="translate(42.83 3.676)"><path d="M184.054,23.1h-1.407a2.416,2.416,0,0,1-2.413-2.413.654.654,0,1,1,1.308,0,1.107,1.107,0,0,0,1.105,1.105h1.407a1.107,1.107,0,0,0,1.105-1.105v-.7a1.107,1.107,0,0,0-1.105-1.105h-1.407a2.413,2.413,0,1,1,0-4.827h1.407a2.416,2.416,0,0,1,2.413,2.413.654.654,0,1,1-1.308,0,1.107,1.107,0,0,0-1.105-1.105h-1.407a1.105,1.105,0,1,0,0,2.211h1.407a2.416,2.416,0,0,1,2.413,2.413v.7A2.416,2.416,0,0,1,184.054,23.1Z" transform="translate(-180.233 -14.053)"/></g><g transform="translate(47.386 0.001)"><path d="M200.393,16.4a8.2,8.2,0,0,1-2.275-.322.654.654,0,0,1,0-1.256,6.893,6.893,0,0,0,0-13.245.654.654,0,0,1,0-1.256,8.2,8.2,0,1,1,2.275,16.08Zm.259-15.089a8.193,8.193,0,0,1,0,13.776,6.893,6.893,0,0,0,0-13.776Z" transform="translate(-197.646 -0.003)"/></g></g></g></g></svg>