<svg xmlns="http://www.w3.org/2000/svg" width="295" height="177.303" viewBox="0 0 295 177.303"><g transform="translate(-17.9 -20.9)"><g transform="translate(17.9 20.9)"><path d="M120.991,117.059c0,6.437-1.907,11.682-5.563,15.656-3.338,3.576-8.106,6.04-14.067,7.232h-.318v12.239H82.527V139.947h-.318c-6.119-1.272-10.888-3.735-14.226-7.311-3.656-3.974-5.484-9.219-5.484-15.656v-7.709H83.4v8.583c0,3.179.874,6.835,7.868,6.835s7.868-3.656,7.868-6.835-.556-4.212-1.828-5.96a20.336,20.336,0,0,0-4.768-5.007,96.908,96.908,0,0,0-8.424-5.563,85.463,85.463,0,0,1-10.729-7.232,31.063,31.063,0,0,1-7.311-8.345,22.5,22.5,0,0,1-3.1-11.841c0-6.358,1.828-11.523,5.4-15.5,3.258-3.576,7.868-6.04,13.749-7.311h.318V38.7h18.517V51.018h.318c6.04,1.272,10.729,3.656,13.987,7.232,3.656,3.974,5.484,9.219,5.484,15.577v4.45H99.931V72.952c0-2.464-.636-4.291-1.748-5.325-1.272-1.113-3.179-1.669-5.8-1.669s-4.53.556-5.8,1.669c-1.192,1.033-1.748,2.782-1.748,5.325a9.2,9.2,0,0,0,1.828,5.96,20.336,20.336,0,0,0,4.768,5.007,96.907,96.907,0,0,0,8.424,5.563,85.463,85.463,0,0,1,10.729,7.232,35.134,35.134,0,0,1,3.974,3.735,47.529,47.529,0,0,1,3.338,4.53,22.5,22.5,0,0,1,3.1,11.841Z" transform="translate(-27.055 -28.528)" fill="#d2f5f4"/><g transform="translate(108.32 56.823)"><g transform="translate(0.079)"><path d="M340.821,237.6c0,4.927-3.1,8.98-6.914,8.98H161.214c-3.815,0-6.914-4.053-6.914-8.98Z" transform="translate(-154.3 -126.18)" fill="#22cac5"/><path d="M327.757,97.4H172.945a5.24,5.24,0,0,0-5.245,5.245v99.181a5.24,5.24,0,0,0,5.245,5.245H191.3l.159-1.987H228.5l.159,1.987h43.471l.159-1.987h37.034l.159,1.987h18.358a5.24,5.24,0,0,0,5.245-5.245V102.645a5.24,5.24,0,0,0-5.245-5.245Z" transform="translate(-157.051 -97.4)" fill="#22cac5"/><rect width="149.566" height="93.936" transform="translate(18.517 7.868)" fill="#fff"/><rect width="123.42" height="9.139" transform="translate(31.55 29.564)" fill="#d2f5f4"/><rect width="118.731" height="4.609" transform="translate(33.935 31.789)" fill="#27191c"/><path d="M234.79,236.635H197.2l.159-1.669v-.079l.159-1.987h37.034l.159,1.987Z" transform="translate(-163.106 -125.215)" fill="#d2f5f4"/><path d="M336.47,236.635H298.8l.159-1.669v-.079l.159-1.987h37.034l.159,1.987Z" transform="translate(-183.963 -125.215)" fill="#d2f5f4"/></g><g transform="translate(0 0)"><path d="M333.886,246.619H161.194c-3.894,0-6.994-4.053-6.994-9.139h0c0-.079,186.68-.079,186.68-.079h0C340.88,242.566,337.7,246.619,333.886,246.619Zm-179.448-8.98c0,4.848,3.1,8.742,6.755,8.742H333.886c3.735,0,6.755-3.894,6.755-8.742h-186.2Z" transform="translate(-154.2 -126.139)" fill="#27191c"/><path d="M327.757,207.23H309.319l-.159-1.987h-36.8l-.159,1.987h-43.63l-.159-1.987h-36.8l-.159,1.987H173.025a5.325,5.325,0,0,1-5.325-5.325V102.725a5.325,5.325,0,0,1,5.325-5.325H327.836a5.325,5.325,0,0,1,5.325,5.325v99.181a5.325,5.325,0,0,1-5.325,5.325Zm-18.279-.238h18.279a5.071,5.071,0,0,0,5.086-5.086V102.725a5.071,5.071,0,0,0-5.086-5.086H172.945a5.071,5.071,0,0,0-5.086,5.086v99.181a5.071,5.071,0,0,0,5.086,5.086h18.279l.159-1.987h37.272l.159,1.987h43.233l.159-1.987H309.4l.159,1.987Z" transform="translate(-156.971 -97.4)" fill="#27191c"/><path d="M327.2,201.374H177.4V107.2H327.2Zm-149.566-.238H327.046v-93.7H177.638v93.7h0Z" transform="translate(-158.962 -99.412)" fill="#27191c"/><path d="M234.929,236.674H197.1l.318-3.974H234.69l.318,3.974Zm-37.67-.238h37.352l-.318-3.5H197.5l-.318,3.5Z" transform="translate(-163.006 -125.174)" fill="#27191c"/><path d="M336.529,236.674H298.7l.318-3.974h37.193Zm-37.59-.238H336.29l-.318-3.5h-36.8l-.318,3.5Z" transform="translate(-183.863 -125.174)" fill="#27191c"/></g></g><g transform="translate(51.498 108.162)"><g transform="translate(0.238 0.079)"><path d="M83,180.4h0a2.744,2.744,0,0,0,.4,1.43,2.111,2.111,0,0,0,1.748.874h24.318a2.206,2.206,0,0,0,2.146-2.225H83Z" transform="translate(-83 -165.857)" fill="#116562"/><path d="M98.21,172.352l2.7-7.232.636-1.589a2.255,2.255,0,0,1,2.146-1.43h13.113a2.3,2.3,0,0,1,2.146,3.1l-1.51,3.974h0c0,.079-1.589,4.212-1.589,4.212v.159l-.477,1.192-.715,1.748H96.7l1.589-4.053Z" transform="translate(-85.812 -162.1)" fill="#116562"/><path d="M109.469,172.468a1.4,1.4,0,0,0,.954,1.113c.954.238,1.987-.874,2.384-2.543a5.237,5.237,0,0,0,0-2.225,1.4,1.4,0,0,0-.954-1.113h-.238a1.67,1.67,0,0,0-1.113.556,4.719,4.719,0,0,0-1.033,1.987A5.237,5.237,0,0,0,109.469,172.468Z" transform="translate(-88.409 -163.25)" fill="#fff"/></g><path d="M109.4,182.8H85.084a2.622,2.622,0,0,1-1.907-.954,2.381,2.381,0,0,1-.477-1.431V180.1h29.087v.318A2.342,2.342,0,0,1,109.4,182.8Zm-26.464-2.464h0a2.744,2.744,0,0,0,.4,1.431,2.111,2.111,0,0,0,1.748.874H109.4a2.156,2.156,0,0,0,2.146-2.225H82.938Z" transform="translate(-82.7 -165.716)" fill="#27191c"/><path d="M114.5,176.623H96.3l1.669-4.291,3.338-8.821a2.318,2.318,0,0,1,2.225-1.51h13.113a2.485,2.485,0,0,1,1.987,1.033,2.219,2.219,0,0,1,.238,2.225l-3.576,9.537-.715,1.907Zm-17.8-.238H114.42l.715-1.828,3.576-9.537a2.178,2.178,0,0,0-1.987-2.94H103.611a2.166,2.166,0,0,0-1.987,1.351l-3.338,8.821-1.51,4.053ZM118.791,165.1Z" transform="translate(-85.492 -162)" fill="#27191c"/><path d="M110.62,173.795h-.238a1.825,1.825,0,0,1-1.113-1.272,5.6,5.6,0,0,1,0-2.3,3.972,3.972,0,0,1,1.033-1.987,1.422,1.422,0,0,1,2.623.636,5.6,5.6,0,0,1,0,2.3C112.528,172.682,111.574,173.795,110.62,173.795Zm.954-6.04a1.5,1.5,0,0,0-1.113.556,3.625,3.625,0,0,0-.954,1.907,4.873,4.873,0,0,0,0,2.146,1.394,1.394,0,0,0,.954,1.113c.874.238,1.907-.874,2.3-2.464a4.873,4.873,0,0,0,0-2.146,1.394,1.394,0,0,0-.954-1.113h-.238Z" transform="translate(-88.13 -163.146)" fill="#27191c"/></g><g transform="translate(0 93.096)"><g transform="translate(0.238 3.721)"><path d="M52,244.723a2.623,2.623,0,1,0,2.623-2.623A2.646,2.646,0,0,0,52,244.723Z" transform="translate(-25.138 -167.098)" fill="#a59eb3"/><path d="M43.959,236.611a2.907,2.907,0,0,1,1.272,2.146l6.6-3.815v1.43a3.331,3.331,0,0,1,1.192-.318,2.07,2.07,0,0,1,1.192.318V235.1h.159c0-.079,6.437,3.576,6.437,3.576A2.608,2.608,0,0,1,62,236.532L54.131,232V214.2H51.668V232l-7.868,4.53Z" transform="translate(-23.455 -161.371)" fill="#22cac5"/><path d="M38.6,244.723a2.623,2.623,0,0,0,5.245,0h0a2.623,2.623,0,1,0-5.245,0Z" transform="translate(-22.388 -167.098)" fill="#a59eb3"/><path d="M55.279,190.779l1.43,6.04h0l1.828,7.788h0l1.113,4.53h0v.238L64.9,231.549h0l1.192,5.166h3.258l-3.894-27.338h0v-.238l-.4-2.782h0l-1.907-13.113h0l-.4-2.543H55.2Z" transform="translate(-25.795 -156.547)" fill="#116562"/><path d="M59.04,212.625H53a4.04,4.04,0,0,0,2.7-3.815c0-1.748-.079-1.033-.318-1.51.874.318,1.748.636,2.543.874l1.033,4.45Z" transform="translate(-25.344 -159.955)" fill="#a59eb3"/><path d="M54.862,200.178h0l-1.907.954-.477.238a19.368,19.368,0,0,1-2.225,1.113h0a5.852,5.852,0,0,1-1.907.4h0a4.775,4.775,0,0,1-3.1-1.431h0l-.715-.715h0a7.031,7.031,0,0,1-1.43-1.987h0l1.907-7.947h7.629Z" transform="translate(-23.311 -156.567)" fill="#b15815"/><path d="M44.764,203.5H42.3l.556-2.3a9.365,9.365,0,0,0,1.351,1.748h0a3.67,3.67,0,0,0,.556.556Z" transform="translate(-23.147 -158.702)" fill="#22cac5"/><path d="M52.8,208.215a3.816,3.816,0,0,1-3.815,3.815H40l1.828-7.629h2.7a4.951,4.951,0,0,0,3.179,1.431h0a5.852,5.852,0,0,0,1.907-.4c.954.4,1.828.795,2.782,1.113a3.618,3.618,0,0,1,.4,1.589Z" transform="translate(-22.675 -159.359)" fill="#d2f5f4"/><path d="M57.845,207.053c-.874-.318-1.748-.556-2.623-.954h0c-.874-.318-1.748-.715-2.623-1.033.715-.318,1.351-.636,1.987-.954l.477-.238c.636-.318,1.272-.636,1.828-.874l.954,4.133Z" transform="translate(-25.262 -159.072)" fill="#22cac5"/><path d="M143.006,184.772v.159a1.255,1.255,0,0,1-1.272,1.272H77.6a28,28,0,0,0,5.96-1.669.532.532,0,0,0,.318-.556V183.5h57.856A1.255,1.255,0,0,1,143.006,184.772Z" transform="translate(-30.394 -155.069)" fill="#9fd3fb"/><path d="M48.479,186.2H19.472A1.255,1.255,0,0,1,18.2,184.93v-.159a1.255,1.255,0,0,1,1.272-1.272H42.836a18.113,18.113,0,0,0,5.563,2.7Z" transform="translate(-18.2 -155.069)" fill="#9fd3fb"/><path d="M126.214,188.472v.159a1.255,1.255,0,0,1-1.272,1.272H27.272A1.255,1.255,0,0,1,26,188.631v-.159a1.255,1.255,0,0,1,1.272-1.272H51.034a29.159,29.159,0,0,0,6.2.636h.159c.795,0,1.589,0,2.464-.079a10.666,10.666,0,0,0,1.669-.079c1.51-.079,2.861-.238,4.053-.4h59.445a1.24,1.24,0,0,1,1.192,1.272Z" transform="translate(-19.801 -155.828)" fill="#9fd3fb"/><path d="M62.32,150.884h0l-.556,3.5a2.906,2.906,0,0,1-2.066,2.384h0v1.192l-1.033,1.987-4.45-2.146a6.017,6.017,0,0,0,1.192-1.669v-.079l.238-.477h0a3.01,3.01,0,0,0,0-1.192c-.079-.318-.159-.636-.318-1.113v-.238h0c0-.238,0-.318-.159-.318h-.318A1.473,1.473,0,0,1,53.5,151.2a1.335,1.335,0,0,1,1.431-1.113h.079a3.928,3.928,0,0,1,.954-1.748c.715-.795,1.589-.874,3.1.079a4.654,4.654,0,0,0,3.258.795,9.651,9.651,0,0,1,.159,1.828Z" transform="translate(-25.445 -147.725)" fill="#ffcec7"/><path d="M96.7,178.735H94.872a15.311,15.311,0,0,1-1.907-.079h-.238a.078.078,0,0,0-.079.079c0,.079,0,.079.079.079h0a8.909,8.909,0,0,1,2.861.715,7404.352,7404.352,0,0,0,.636.318s.159.159.159.238,0,.159-.079.159h-.715a2.824,2.824,0,0,1-.795-.159,3.5,3.5,0,0,1-.795-.159h-.159a1.75,1.75,0,0,1-.636-.079h-.238a.6.6,0,0,0-.318.159,4.59,4.59,0,0,1-1.351.477,4.5,4.5,0,0,1-1.431.238h-2.3a3.869,3.869,0,0,1-.954-.079.078.078,0,0,0-.079.079c0,.079,0,.079.079.079H87a4.481,4.481,0,0,0-.954.318,1.13,1.13,0,0,0-.477.159l-.318-1.669c-.159-.954-.4-1.907-.556-2.543h3.179c.795-.238,1.589-.4,2.3-.636a18.338,18.338,0,0,0,2.225-.795c.715-.238,1.51-.556,2.225-.874a.97.97,0,0,1,1.033,0,.437.437,0,0,1,.238.4c0,.159-.079.238-.159.4a.793.793,0,0,1-.4.318l-.477.238a4.555,4.555,0,0,1-1.113.318h-.318a.078.078,0,0,0,.079.079h1.113a6.135,6.135,0,0,1,1.192.159,1.352,1.352,0,0,1,.556.079c.159,0,.4,0,.477.159a.349.349,0,0,1,.079.4c-.079.159-.238.159-.4.238a1.975,1.975,0,0,0-.636.079h-.954c-.636-.079-1.351-.159-1.987-.238h-.238a.078.078,0,0,0-.079.079c0,.079,0,.079.079.079.636,0,1.272.159,1.907.159a1.75,1.75,0,0,1,.636.079h0a6.135,6.135,0,0,1,1.192.159.716.716,0,0,1,.4.079c.079,0,.159.159.159.238v.238Z" transform="translate(-31.851 -153.244)" fill="#ffcec7"/><path d="M59.419,170.737a8.249,8.249,0,0,1-.795-.318h0l-4.291-3.338-1.43-3.5-2.7-1.43a12.859,12.859,0,0,1,1.43-.795h0c.159,0,.238-.079.4-.159a61.751,61.751,0,0,1,7.391,9.537Z" transform="translate(-24.769 -150.491)" fill="#ffe59d"/><path d="M69.63,172.757c-.795-.159-1.589-.238-2.464-.4l-.159-6.6L65.1,163.618V163.3a3.035,3.035,0,0,1,.715.715A9.347,9.347,0,0,1,67.4,166.24c.079.238.238.4.318.636h0a26.043,26.043,0,0,1,1.669,5.166,1.7,1.7,0,0,0,.079.477v.238Z" transform="translate(-27.828 -150.922)" fill="#b15815"/><path d="M66.62,171.775c-1.113-3.417-2.623-8.5-3.02-9.775a10.682,10.682,0,0,1,1.113.874v.636l1.828,2.146.159,6.2Z" transform="translate(-27.52 -150.655)" fill="#ffe59d"/><path d="M60.832,164.812l-.636-.477-1.113-.874h-.159s-.079,0-.079.159l-.159,1.192h0l-.159.874L53.6,160.759c.159,0,.238-.079.4-.159l4.768,2.3,1.192-2.3c.238.159.477.238.715.4l.238,3.735Z" transform="translate(-25.467 -150.368)" fill="#d2f5f4"/><path d="M85.451,181.753a1.13,1.13,0,0,0-.477.159l-.318-1.669c-.159-.954-.4-1.907-.556-2.543h.477C84.736,178.495,85.292,181.117,85.451,181.753Z" transform="translate(-31.728 -153.878)" fill="#ff9a95"/><path d="M76.64,180.063a29.786,29.786,0,0,1-7.311,1.828h0c-1.192.159-2.543.318-4.053.4a12.9,12.9,0,0,0-1.669.079c-.874,0-1.669.079-2.384.079a26.528,26.528,0,0,1-6.358-.636h0a16.975,16.975,0,0,1-6.437-2.861h0a12.339,12.339,0,0,1-2.066-1.987,8.477,8.477,0,0,1-1.589-3.02,11.277,11.277,0,0,1-.4-1.748h0a9.468,9.468,0,0,1,2.225-7.788,13.372,13.372,0,0,1,2.3-1.907l2.7,1.431,1.43,3.5,3.656,2.782a12.48,12.48,0,0,1-3.576-2.464h-.159v.159a13.413,13.413,0,0,0,4.45,2.861h0a6.994,6.994,0,0,0,1.192.4h0c.4.159.874.238,1.272.4h0c.556.159,1.113.318,1.748.477.4.079.715.159,1.113.238h.079c.874.159,1.828.318,2.7.477h.159c3.179.477,6.437.874,9.616,1.033a.211.211,0,0,1,.238.238v.318h0c.159.636.318,1.669.556,2.623l.4,1.748h0v.238h0l.159.636c0,.159,0,.238-.159.318Z" transform="translate(-23.552 -150.758)" fill="#b15815"/><path d="M61.383,171.152c-.4-.079-.715-.238-1.033-.318a60.3,60.3,0,0,0-7.55-9.775.6.6,0,0,0,.318-.159l5.086,5.086h.159s.079,0,.159-.159l.159-.795h.159v.079a35.482,35.482,0,0,1,2.543,5.96Z" transform="translate(-25.303 -150.43)" fill="#fff"/><path d="M61.313,165.295l-.079.954-.795-.477h0l-.238-.159.159-1.113Z" transform="translate(-26.822 -151.169)" fill="#22cac5"/><path d="M64.794,172.637c-.556-.159-1.033-.238-1.51-.4a46.556,46.556,0,0,0-2.384-5.722l.4.238h.159a.277.277,0,0,0,.079-.159v-.4a23.621,23.621,0,0,1,3.179,6.358Z" transform="translate(-26.965 -151.518)" fill="#a59eb3"/><path d="M66.112,171.87a3.38,3.38,0,0,1-.874-.159h0a25.417,25.417,0,0,0-3.338-6.755v-.238l.556.4h.238a.278.278,0,0,0,.079-.159l-.238-3.656h0c.159.079.238.159.4.238.159.556,1.987,6.437,3.179,10.252Z" transform="translate(-27.171 -150.512)" fill="#fff"/><path d="M66.677,190.8a1.662,1.662,0,0,0-.318.477H66.2V190.8h.556Z" transform="translate(-28.053 -156.567)" fill="#fff"/><path d="M69.879,191.118v.159c0,.238-.318.477-.636.556l-1.192.4a3.22,3.22,0,0,1-.874,0h0c-.238-.079-.318-.238-.477-.4v-.4c0-.238.238-.477.556-.636h2.623v.318Z" transform="translate(-28.156 -156.567)" fill="#a59eb3"/><path d="M66.777,192.536l-.477.159h0V191.9h.079a.716.716,0,0,0,.079.4.528.528,0,0,0,.318.4Z" transform="translate(-28.074 -156.793)" fill="#22cac5"/><path d="M65.895,193.184a3.024,3.024,0,0,1-.238,1.43L65.1,190.8h.477a2.2,2.2,0,0,0,.079.715h0v1.113h0v.556Z" transform="translate(-27.828 -156.567)" fill="#b15815"/><path d="M79.469,195.035,92.5,199.088h.079a6.928,6.928,0,0,1,2.464,1.43,6.761,6.761,0,0,1,2.225,3.656l.795,3.815,1.907,10.172h0l4.45,6.2,6.6-4.768-1.828-2.543L97.986,201.234a11.756,11.756,0,0,0-5.96-4.371h-.079l-15.259-4.848h0a.9.9,0,0,1-.636.238h0a16.018,16.018,0,0,1-1.828.556,4.48,4.48,0,0,0-.954.318h0a3.189,3.189,0,0,1-1.192.238,1.307,1.307,0,0,1-.795-.159,1.976,1.976,0,0,1-.874-.954c-.079-.238-.159-.556-.238-.874V191.3h-.318a1.2,1.2,0,0,1-.715.795l-1.192.4h-.477a1.352,1.352,0,0,1-.556-.079l-.715.238v.477a5.115,5.115,0,0,1-.4,1.907l1.589,11.285a59.318,59.318,0,0,0,9.934,1.033h0a56.885,56.885,0,0,0,7.311-.318,1.348,1.348,0,0,1,1.272.715l4.053,9.378h0l2.782,8.742h8.424l-3.417-18.04-.795-3.815a7.243,7.243,0,0,0-2.146-3.576,5.981,5.981,0,0,0-2.384-1.351h-.079L79.39,195.035a.112.112,0,0,1,.159-.159Zm14.623,12.08h0a.078.078,0,0,1-.079-.079,6.09,6.09,0,0,0-1.907-3.656v-.159h.159a6.279,6.279,0,0,1,1.907,3.815.246.246,0,0,1-.079.159Zm-2.464-6.6a.11.11,0,0,1,.159,0,5.986,5.986,0,0,1,3.815,5.007.246.246,0,0,1-.079.159h0a.078.078,0,0,1-.079-.079,5.92,5.92,0,0,0-3.735-4.848.11.11,0,0,1,0-.159Z" transform="translate(-27.971 -156.67)" fill="#22cac5"/><path d="M78.078,191.515c0,.079-.079.159-.159.238h0c-.159.079-.4.159-.556.238h0a16.019,16.019,0,0,1-1.828.556,4.48,4.48,0,0,0-.954.318h0a2.112,2.112,0,0,1-1.828.079,1.479,1.479,0,0,1-.715-.874c-.079-.238-.159-.477-.238-.795v-.238h0V190.8h5.96l.318.318h0c.159.159.238.238.238.4Z" transform="translate(-29.203 -156.567)" fill="#b15815"/><path d="M71,191.118h0V190.8h.159v.238H71Z" transform="translate(-29.039 -156.567)" fill="#22cac5"/><path d="M82.908,175.055l-.159.556H81v-.159a.5.5,0,0,0-.477-.4c-3.179-.159-6.358-.556-9.537-1.033h0A25.979,25.979,0,0,0,69,168.3a.392.392,0,0,0,.079.238A.392.392,0,0,0,69,168.3a46.3,46.3,0,0,0,9.934,4.927l2.861,1.192.954.4c.159,0,.159.159.159.318Z" transform="translate(-28.628 -151.949)" fill="#b15815"/><path d="M65.5,244.784h0a2.646,2.646,0,0,0,2.623,2.623L66.931,242.4a.246.246,0,0,0-.159.079A2.537,2.537,0,0,0,65.5,244.7Z" transform="translate(-27.91 -167.16)" fill="#a59eb3"/><path d="M34.3,164.679v14.146h4.609V161.5H37.558a3.273,3.273,0,0,0-3.258,3.258Z" transform="translate(-21.505 -150.553)" fill="#d2f5f4"/><path d="M34.3,190.8v5.96l.874-5.96Z" transform="translate(-21.505 -156.567)" fill="#d2f5f4"/><path d="M27.4,236.814h3.179l6.517-27.5h.079L39,201.529h0l.636-2.782,1.907-7.947H34l-1.113,7.55Z" transform="translate(-20.089 -156.567)" fill="#116562"/><path d="M63.3,161.4a14.384,14.384,0,0,1,2.384,1.987,11.943,11.943,0,0,1,1.431,1.907v-3.258a.684.684,0,0,0-.636-.636H63.3Z" transform="translate(-27.458 -150.532)" fill="#22cac5"/><path d="M40.4,161.479V178.8h2.464l.4-6.676h0v-.079a9.737,9.737,0,0,1,2.225-7.947,13.261,13.261,0,0,1,3.576-2.7H40.4Z" transform="translate(-22.757 -150.532)" fill="#22cac5"/><path d="M43.8,181.8h4.133a9.941,9.941,0,0,1-1.828-1.828,9.792,9.792,0,0,1-1.669-3.1c-.079-.318-.159-.556-.238-.874l-.318,5.722Z" transform="translate(-23.455 -153.529)" fill="#b15815"/><path d="M68,210.7l.4,2.7h6.119a3.882,3.882,0,0,0,3.179-1.669A49.589,49.589,0,0,1,68,210.7Z" transform="translate(-28.423 -160.652)" fill="#a59eb3"/><path d="M96.4,225.1v18.835h3.576v-5.722h0a.9.9,0,0,1,.238-.636l-.238-1.907c-.159,0-.238-.159-.318-.318L96.4,225.1Z" transform="translate(-34.253 -163.608)" fill="#116562"/><path d="M100,235.4l.636,1.987c0,.079.159.159.238.159H108.5a.392.392,0,0,0,.238-.079v-.238l-.318-1.828Z" transform="translate(-34.992 -165.723)" fill="#fff"/><path d="M120.679,231.113v1.907a4.141,4.141,0,0,1,.715,2.3h0v1.589h17.643V190.9H120.6v26.146l1.828,2.464h0c0,.079,1.192,1.748,1.192,1.748a3.443,3.443,0,0,1,.079.4.413.413,0,0,1-.159.318h0l.874,1.589a.81.81,0,0,1,.636.4l.795-.556v-.238a.437.437,0,0,1,.238-.4c.159-.079.238-.159.4-.079a.292.292,0,0,1,.238.079l.715-.556a.659.659,0,0,1,.238-.636.481.481,0,0,1,.636,0l.238-.159a1.281,1.281,0,0,1,.556-.318v-.318a.437.437,0,0,1,.238-.4c.159-.079.238-.159.4-.079a.437.437,0,0,1,.4.238v.159a3.919,3.919,0,0,1,1.669,0,4.124,4.124,0,0,1,2.782,1.669h0v.079l.4.556.159.159.477.636-13.351,9.7-.477-.636-.159-.159-.318-.477-.159-.159-.556-.715Z" transform="translate(-39.221 -156.588)" fill="#116562"/><g transform="translate(65.803 63.756)"><g transform="translate(0 8.146)"><rect width="16.053" height="0.556" transform="translate(0.159 7.073)" fill="#22cac5"/><rect width="16.053" height="0.556" transform="translate(0.159 7.868)" fill="#a59eb3"/><path d="M101.179,241.274h7.391a.954.954,0,0,0-.954-.874h-5.563a1.016,1.016,0,0,0-.954.874Z" transform="translate(-101.021 -238.652)" fill="#22cac5"/><path d="M101.2,238.4l.238,1.669a1.109,1.109,0,0,1,.715-.238h5.563a1.282,1.282,0,0,1,.715.238V238.4H101.2Z" transform="translate(-101.041 -238.241)" fill="#ffcec7"/><path d="M108.311,238.915H101V238.2h7.311Z" transform="translate(-101 -238.2)" fill="#ff9a95"/><path d="M117.3,241.618V243.6a.318.318,0,0,0,.636,0v-1.987a.318.318,0,0,0-.636,0Z" transform="translate(-104.346 -238.836)" fill="#fff"/><path d="M114.8,241.618V243.6a.318.318,0,0,0,.636,0v-1.987a.318.318,0,0,0-.636,0Z" transform="translate(-103.833 -238.836)" fill="#fff"/><g transform="translate(0.159 2.464)"><path d="M112.3,241.618V243.6a.318.318,0,0,0,.636,0v-1.987a.318.318,0,0,0-.636,0Z" transform="translate(-103.479 -241.3)" fill="#fff"/><path d="M101.2,241.8v3.974h16.053a2.7,2.7,0,0,0-.079-.795,4.151,4.151,0,0,0-1.113-1.987,3.582,3.582,0,0,0-1.113-.795v1.51a.556.556,0,1,1-1.113,0v-1.828h-.874v1.907a.556.556,0,1,1-1.113,0v-1.907h-.874v1.907a.556.556,0,1,1-1.113,0v-1.907h-8.583Z" transform="translate(-101.2 -241.403)" fill="#a59eb3"/></g><circle cx="1.192" cy="1.192" r="1.192" transform="translate(3.576 3.258)" fill="#fff"/><path d="M103.425,245.266h13.749c0,.238.079.556.079.795H101.2V243.2A2.249,2.249,0,0,1,103.425,245.266Z" transform="translate(-101.041 -239.226)" fill="#fff"/></g><g transform="translate(12.557)"><rect width="16.053" height="0.556" transform="matrix(0.808, -0.589, 0.589, 0.808, 4.041, 11.425)" fill="#22cac5"/><rect width="16.053" height="0.556" transform="matrix(0.808, -0.589, 0.589, 0.808, 4.563, 12.056)" fill="#a59eb3"/><g transform="translate(0 1.47)"><path d="M118.565,236.794l5.96-4.371a1.08,1.08,0,0,0-1.272-.159l-4.45,3.258a.975.975,0,0,0-.238,1.272Z" transform="translate(-117.135 -230.277)" fill="#22cac5"/><path d="M117,234.233l.954,1.351c0-.238.238-.4.4-.556l4.45-3.258a1.282,1.282,0,0,1,.715-.238l-.795-1.431L117,234.233Z" transform="translate(-116.841 -229.862)" fill="#ffcec7"/><path d="M123.078,230.356l-5.881,4.291-.4-.556,5.881-4.291Z" transform="translate(-116.8 -229.8)" fill="#ff9a95"/></g><path d="M131.669,228.546l1.192,1.589c.079.159.318.159.477,0a.3.3,0,0,0,0-.477l-1.192-1.589c-.079-.159-.318-.159-.477,0A.3.3,0,0,0,131.669,228.546Z" transform="translate(-119.828 -227.95)" fill="#fff"/><path d="M129.669,230.046l1.192,1.589c.079.159.318.159.477,0,.159-.079.159-.318,0-.477l-1.192-1.589c-.079-.159-.318-.159-.477,0C129.51,229.649,129.51,229.887,129.669,230.046Z" transform="translate(-119.417 -228.258)" fill="#fff"/><g transform="translate(1.192 0.358)"><path d="M127.669,231.446l1.192,1.589c.079.159.318.159.477,0a.3.3,0,0,0,0-.477l-1.192-1.589c-.079-.159-.318-.159-.477,0a.3.3,0,0,0,0,.477Z" transform="translate(-120.199 -228.903)" fill="#fff"/><path d="M118.618,236.188l2.3,3.179,12.954-9.457a1.856,1.856,0,0,0-.556-.556,4.513,4.513,0,0,0-2.066-.954h-1.43l.874,1.192a.573.573,0,0,1-.954.636l-1.113-1.51a3.454,3.454,0,0,1-.556.318l-.159.159,1.113,1.51a.573.573,0,0,1-.954.636l-1.113-1.51-.715.477,1.113,1.51a.573.573,0,1,1-.954.636l-1.113-1.51-6.994,5.086Z" transform="translate(-118.3 -228.4)" fill="#a59eb3"/></g><circle cx="1.192" cy="1.192" r="1.192" transform="translate(4.499 6.885) rotate(-45.4)" fill="#fff"/><path d="M122.54,237.706l11.126-8.106a3.671,3.671,0,0,1,.556.556l-12.954,9.457-1.669-2.3a2.322,2.322,0,0,1,3.02.4Z" transform="translate(-117.375 -228.289)" fill="#fff"/></g></g><path d="M110.351,235.793h-.238v1.828h0a1.6,1.6,0,0,1,.318.636h.954c0-.238.318-.4.556-.4a.6.6,0,0,1,.556.4h.874c0-.238.318-.4.556-.4a.6.6,0,0,1,.556.4h.874c0-.238.318-.477.556-.477a.6.6,0,0,1,.556.556v.159a5.123,5.123,0,0,1,1.272.874l.318.318V237.78l-1.589-2.146-.159-.159h0a1.181,1.181,0,0,1-.159-.715l-1.113-1.51h0c-.079.079-.159.079-.318.079h0a.413.413,0,0,1-.318-.159l-1.192-1.589h0V231.5L109,225.7l1.748,9.378a.6.6,0,0,1-.079.4.607.607,0,0,1-.4.159Z" transform="translate(-36.839 -163.732)" fill="#116562"/><path d="M114.679,231.989l1.113,1.51a.277.277,0,0,0,.159.079h.159l6.119-4.45h0a.278.278,0,0,0,.079-.159v-.159L121.2,227.3l-6.6,4.768Z" transform="translate(-37.989 -164.06)" fill="#fff"/><path d="M108.3,203.059l9.7,13.59V190.9Z" transform="translate(-36.696 -156.588)" fill="#116562"/><path d="M60.552,158.949v1.192l-.159-.079a9.484,9.484,0,0,1-1.272-.636,10.355,10.355,0,0,1-1.192-.795l-.238-.238c0-.079-.079-.238,0-.318.079-.159.238-.079.4-.079A19.413,19.413,0,0,1,60,158.79a1.13,1.13,0,0,1,.477.159h.079Z" transform="translate(-26.299 -149.829)" fill="#ff9a95"/></g><g transform="translate(0 2.127)"><g transform="translate(54.597 22.812)"><path d="M94.379,179.9a9.378,9.378,0,0,1,2.94.715,7404.352,7404.352,0,0,0,.636.318s.159.159.159.238,0,.159-.079.159H97.32a2.824,2.824,0,0,1-.795-.159c-.636-.079-1.192-.238-1.828-.318h-.159v.159c.556.079,1.113.238,1.748.318a3.38,3.38,0,0,1,.874.159h.795a.426.426,0,0,0,.318-.238v-.4c-.079-.238-.4-.318-.556-.477a11.586,11.586,0,0,0-1.51-.556,12.49,12.49,0,0,0-1.828-.318.079.079,0,0,0,0,.159h0Z" transform="translate(-88.181 -175.467)" fill="#27191c"/><path d="M86.6,182.195c.874,0,1.748.159,2.7.238a6.828,6.828,0,0,0,2.543-.4,2.526,2.526,0,0,0,.715-.238.6.6,0,0,0,.318-.159h.159s.159,0,.159-.079h-.079c.318,0,.715.159,1.033.159h.159v-.159a3.5,3.5,0,0,1-.795-.159h-.238a.6.6,0,0,0-.318.159,4.589,4.589,0,0,1-1.351.477,4.5,4.5,0,0,1-1.431.238h-1.51a13,13,0,0,1-1.748-.159.079.079,0,0,0,0,.159h0Z" transform="translate(-86.6 -175.857)" fill="#27191c"/><path d="M94.4,178.5c.636,0,1.272.159,1.907.159a15.627,15.627,0,0,1,1.907.238.716.716,0,0,1,.4.079c.079,0,.159.159.159.238v.238H96.943a15.314,15.314,0,0,1-1.907-.079H94.8a.078.078,0,0,0-.079.079c0,.079,0,.079.079.079a16.606,16.606,0,0,1,1.987.079h1.907c.238,0,.556-.079.556-.4a.717.717,0,0,0-.079-.4.426.426,0,0,0-.318-.238.716.716,0,0,1-.4-.079h-.477a5.47,5.47,0,0,1-1.033-.159c-.636-.079-1.351-.159-1.987-.238h-.238a.079.079,0,1,0,0,.159h0Z" transform="translate(-88.201 -175.179)" fill="#27191c"/><path d="M88.176,177.456c.4-.079.874-.238,1.272-.318.159,0,.079-.238,0-.238-.4.079-.874.238-1.272.318-.159,0-.079.238,0,.238Z" transform="translate(-86.905 -174.933)" fill="#27191c"/><path d="M88.156,177.028c.795-.238,1.589-.4,2.3-.636a18.338,18.338,0,0,0,2.225-.795c.715-.238,1.51-.556,2.225-.874a.97.97,0,0,1,1.033,0,.437.437,0,0,1,.238.4c0,.159-.079.238-.159.4a.793.793,0,0,1-.4.318l-.477.238a4.556,4.556,0,0,1-1.113.318H93.8a.078.078,0,0,0-.079.079c0,.079,0,.159.079.079a1.178,1.178,0,0,0,.556-.079,1.473,1.473,0,0,0,.556-.159,4.282,4.282,0,0,0,1.033-.556c.238-.238.556-.556.4-.874,0-.159-.238-.318-.4-.4a.679.679,0,0,0-.556,0,1.149,1.149,0,0,0-.556.159c-.159.079-.4.159-.556.238-.4.159-.715.318-1.113.477-.795.318-1.589.556-2.384.795l-2.384.715a.478.478,0,0,0-.318.079c-.159,0-.079.238,0,.238h0Z" transform="translate(-86.884 -174.425)" fill="#27191c"/><path d="M95.128,177h1.113a6.135,6.135,0,0,1,1.192.159,1.352,1.352,0,0,1,.556.079c.159,0,.4,0,.477.159a.349.349,0,0,1,.079.4c-.079.159-.238.159-.4.238a1.975,1.975,0,0,0-.636.079h-.556a.078.078,0,0,0-.079.079c0,.079,0,.079.079.079h.477a1.75,1.75,0,0,0,.636-.079.858.858,0,0,0,.556-.238.491.491,0,0,0,.159-.556.814.814,0,0,0-.477-.4,2.458,2.458,0,0,1-.636-.159c-.4-.079-.874-.159-1.351-.238H94.969a.119.119,0,0,0,0,.238h0Z" transform="translate(-88.294 -174.871)" fill="#27191c"/></g><g transform="translate(65.962 73.416)"><path d="M110.279,240.346a.078.078,0,0,1-.079-.079V238.2a.078.078,0,0,1,.079.079v2.066Z" transform="translate(-102.809 -238.121)" fill="#27191c"/><path d="M101.3,240.325a.078.078,0,0,1-.079-.079l-.318-1.987s0-.159.079-.159c0,0,.159,0,.159.079l.318,1.987s0,.159-.079.159h0Z" transform="translate(-100.9 -238.1)" fill="#27191c"/><path d="M117.43,247.833H100.9V246.8h16.53Zm-16.292-.238h16.053v-.556H101.138Z" transform="translate(-100.9 -239.886)" fill="#27191c"/><path d="M117.43,248.733H100.9V247.7h16.53Zm-16.292-.238h16.053v-.556H101.138Z" transform="translate(-100.9 -240.071)" fill="#27191c"/><path d="M116.913,241.859h-1.033a.078.078,0,0,1-.079-.079c0-.079,0-.079.079-.079h1.033s.079,0,.079.159a.078.078,0,0,1-.079.079Z" transform="translate(-103.959 -238.839)" fill="#27191c"/><path d="M117.43,245.95H100.9V241.5h8.98a.078.078,0,0,1,.079.079c0,.079,0,.079-.079.079h-8.742v3.974h16.053A4.047,4.047,0,0,0,116,242.851a4.542,4.542,0,0,0-1.272-.874.112.112,0,0,1,.159-.159,5.221,5.221,0,0,1,1.351.954,4.342,4.342,0,0,1,1.272,3.02h0v.079Z" transform="translate(-100.9 -238.798)" fill="#27191c"/><path d="M114.392,241.759h-1.113a.078.078,0,0,1-.079-.079c0-.079,0-.079.079-.079h1.113a.078.078,0,0,1,.079.079C114.472,241.759,114.472,241.759,114.392,241.759Z" transform="translate(-103.425 -238.818)" fill="#27191c"/><path d="M108.768,241.472H100.9a1.191,1.191,0,0,1,1.192-1.272h5.563a1.222,1.222,0,0,1,1.192,1.192h0Zm-7.629-.238h7.391a.954.954,0,0,0-.954-.874h-5.563a1.016,1.016,0,0,0-.954.874Z" transform="translate(-100.9 -238.531)" fill="#27191c"/><path d="M117.556,244.1a.543.543,0,0,1-.556-.556v-1.987a.556.556,0,0,1,1.113,0v1.987A.543.543,0,0,1,117.556,244.1Zm0-2.861a.342.342,0,0,0-.318.318v1.987a.318.318,0,1,0,.636,0v-1.987A.342.342,0,0,0,117.556,241.238Z" transform="translate(-104.205 -238.695)" fill="#27191c"/><path d="M115.056,244.1a.543.543,0,0,1-.556-.556v-1.987a.556.556,0,0,1,1.113,0v1.987A.543.543,0,0,1,115.056,244.1Zm0-2.861a.342.342,0,0,0-.318.318v1.987a.318.318,0,0,0,.636,0v-1.987A.342.342,0,0,0,115.056,241.238Z" transform="translate(-103.692 -238.695)" fill="#27191c"/><path d="M112.556,244.1a.543.543,0,0,1-.556-.556v-1.987a.556.556,0,0,1,1.113,0v1.987A.543.543,0,0,1,112.556,244.1Zm0-2.861a.342.342,0,0,0-.318.318v1.987a.318.318,0,0,0,.636,0v-1.987A.342.342,0,0,0,112.556,241.238Z" transform="translate(-103.179 -238.695)" fill="#27191c"/></g><g transform="translate(78.518 65.118)"><path d="M125.233,231.627h-.079l-.954-1.669h0V229.8h.079c0-.079,1.033,1.748,1.033,1.748v.159h0Z" transform="translate(-118.24 -228.098)" fill="#27191c"/><path d="M117.972,236.948h-.079l-1.192-1.589V235.2h.159l1.192,1.589v.159h0Z" transform="translate(-116.7 -229.207)" fill="#27191c"/><path d="M122.056,240.79,121.5,240l13.351-9.7.556.795Zm-.318-.795.318.477,12.954-9.457-.318-.477Z" transform="translate(-117.685 -228.201)" fill="#27191c"/><path d="M122.556,241.59,122,240.8l13.351-9.7.556.795Zm-.238-.795.318.477,12.954-9.457-.318-.477L122.318,240.8Z" transform="translate(-117.788 -228.365)" fill="#27191c"/><path d="M130.379,229.495H130.3v-.159l.318-.238c.238-.159.4-.238.636-.4h.159v.159a2.789,2.789,0,0,0-.636.4l-.318.238h0Z" transform="translate(-119.492 -227.872)" fill="#27191c"/><path d="M120.923,239.693l-2.623-3.576,7.232-5.245h.159v.159l-7.073,5.166,2.3,3.179,12.954-9.457a4.215,4.215,0,0,0-2.623-1.51,10.612,10.612,0,0,0-1.589,0s-.159,0-.159-.079,0-.159.079-.159a2.98,2.98,0,0,1,1.669,0,4.057,4.057,0,0,1,2.782,1.748h0c0,.079-13.351,9.775-13.351,9.775Z" transform="translate(-117.028 -227.739)" fill="#27191c"/><path d="M128.379,230.895H128.3v-.159l.874-.636h.159v.159l-.874.636h0Z" transform="translate(-119.081 -228.16)" fill="#27191c"/><path d="M118.438,237.045h0a2.116,2.116,0,0,1-.238-.954,1.211,1.211,0,0,1,.477-.795l4.45-3.258A1.6,1.6,0,0,1,124,231.8a1.211,1.211,0,0,1,.795.477h0c0,.079-6.358,4.768-6.358,4.768Zm5.325-5.007a.671.671,0,0,0-.556.159l-4.45,3.258a1.092,1.092,0,0,0-.4.636,1.75,1.75,0,0,0,.079.636l5.96-4.371a1.281,1.281,0,0,0-.556-.318h-.159Z" transform="translate(-117.008 -228.509)" fill="#27191c"/><path d="M133.04,230.394h-.079a.437.437,0,0,1-.4-.238l-1.192-1.589c-.079-.159-.159-.238-.079-.4a.437.437,0,0,1,.238-.4c.159-.079.238-.159.4-.079a.437.437,0,0,1,.4.238l1.192,1.589c.079.159.159.238.079.4s-.079.318-.238.4h0C133.278,230.314,133.119,230.394,133.04,230.394Zm-1.192-2.464h-.238s-.159.159-.159.238v.238L132.643,230c.079.159.318.159.477,0h0s.159-.159.159-.238v-.238l-1.192-1.589s-.159-.159-.238-.159h0Z" transform="translate(-119.689 -227.659)" fill="#27191c"/><path d="M131.04,231.894h-.079a.437.437,0,0,1-.4-.238l-1.192-1.589c-.079-.159-.159-.238-.079-.4s.079-.318.238-.4.238-.159.4-.079a.437.437,0,0,1,.4.238l1.192,1.589c.079.159.159.238.079.4s-.079.318-.238.4h0C131.278,231.814,131.119,231.894,131.04,231.894Zm-1.192-2.464h-.238s-.159.159-.159.238v.238l1.192,1.589s.159.159.238.159h.238s.159-.159.159-.238v-.238l-1.192-1.589s-.159-.159-.238-.159Z" transform="translate(-119.278 -227.967)" fill="#27191c"/><path d="M129.04,233.394h-.079a.437.437,0,0,1-.4-.238l-1.192-1.589c-.079-.159-.159-.238-.079-.4a.437.437,0,0,1,.238-.4c.159-.079.238-.159.4-.079a.437.437,0,0,1,.4.238l1.192,1.589a.544.544,0,0,1-.159.795h0c-.079,0-.238.079-.318.079Zm-1.192-2.543h-.238s-.159.159-.159.238v.238l1.192,1.589c.079.159.318.159.477,0h0c.159-.079.159-.318,0-.477l-1.192-1.589s-.159-.159-.238-.159h0Z" transform="translate(-118.867 -228.274)" fill="#27191c"/></g><g transform="translate(12.874 12.223)"><path d="M74.558,213.787H68.279a.078.078,0,0,1-.079-.079c0-.079,0-.079.079-.079h6.278a3.871,3.871,0,0,0,3.258-1.828h.159c.079,0,0,.079,0,.159a4.033,4.033,0,0,1-3.417,1.907Z" transform="translate(-41.1 -171.508)" fill="#27191c"/><path d="M58.565,214.259H50.379a.078.078,0,0,1-.079-.079c0-.079,0-.079.079-.079h8.186a.078.078,0,0,1,.079.079C58.645,214.259,58.645,214.259,58.565,214.259Z" transform="translate(-37.426 -171.98)" fill="#27191c"/><path d="M48.919,212.8H39.779s-.079,0-.079-.159,0-.079.159-.079H49a3.816,3.816,0,0,0,3.815-3.815c0-2.066-.159-1.113-.4-1.669h0A.078.078,0,0,1,52.5,207h.079a5.048,5.048,0,0,1,.4,1.828,4.07,4.07,0,0,1-4.053,4.053Z" transform="translate(-35.25 -170.522)" fill="#27191c"/><path d="M44.94,204.359H42.079a.078.078,0,0,1-.079-.079c0-.079,0-.079.079-.079H44.94a.078.078,0,0,1,.079.079C45.02,204.359,45.02,204.359,44.94,204.359Z" transform="translate(-35.722 -169.948)" fill="#27191c"/><path d="M34.179,178.9a.078.078,0,0,1-.079-.079V164.6a3.528,3.528,0,0,1,3.5-3.5H48.4a.078.078,0,0,1,.079.079c0,.079,0,.079-.079.079H37.6a3.273,3.273,0,0,0-3.258,3.258v14.225a.078.078,0,0,1-.079.079Z" transform="translate(-34.1 -161.1)" fill="#27191c"/><path d="M34.179,198.388a.078.078,0,0,1-.079-.079v-7.629a.078.078,0,0,1,.079-.079c.079,0,.079,0,.079.079v7.629A.078.078,0,0,1,34.179,198.388Z" transform="translate(-34.1 -167.156)" fill="#27191c"/><path d="M45.379,244.453H45.3v-.159l6.755-3.894v1.669a.078.078,0,0,1-.079.079c-.079,0-.079,0-.079-.079V240.8l-6.437,3.735h0Z" transform="translate(-36.399 -177.379)" fill="#27191c"/><path d="M63.6,244.494h0l-6.437-3.735v1.272a.078.078,0,0,1-.079.079c-.079,0-.079,0-.079-.079V240.6h.159c0-.079,6.6,3.735,6.6,3.735v.159H63.6Z" transform="translate(-38.801 -177.419)" fill="#27191c"/><path d="M43.679,236.77H43.6v-.159l7.868-4.53V214.2h2.94v17.722a.078.078,0,0,1-.079.079c-.079,0-.079,0-.079-.079V214.438H51.786v17.8l-8.027,4.609h0Z" transform="translate(-36.05 -172)" fill="#27191c"/><path d="M64.927,241.307h0L56.9,236.7v-.318a.078.078,0,0,1,.079-.079c.079,0,.079,0,.079.079v.238l7.868,4.53v.159h-.079Z" transform="translate(-38.78 -176.537)" fill="#27191c"/><path d="M54.661,247.522a2.861,2.861,0,1,1,2.861-2.861A2.849,2.849,0,0,1,54.661,247.522Zm0-5.484a2.623,2.623,0,1,0,2.623,2.623A2.646,2.646,0,0,0,54.661,242.038Z" transform="translate(-37.733 -177.666)" fill="#27191c"/><path d="M68.061,247.6a2.849,2.849,0,0,1-2.861-2.861h0a2.682,2.682,0,0,1,1.431-2.384.6.6,0,0,0,.318-.159h.159v.159c-.079,0-.159.079-.318.159a2.537,2.537,0,0,0-1.272,2.225h0a2.646,2.646,0,0,0,2.623,2.623H68.3a.079.079,0,1,1,0,.159H68.14Z" transform="translate(-40.484 -177.748)" fill="#27191c"/><path d="M41.161,247.522a2.861,2.861,0,1,1,2.861-2.861A2.849,2.849,0,0,1,41.161,247.522Zm0-5.484a2.623,2.623,0,1,0,2.623,2.623A2.646,2.646,0,0,0,41.161,242.038Z" transform="translate(-34.962 -177.666)" fill="#27191c"/><path d="M67.071,165.809a.078.078,0,0,1-.079-.079v-3.735a.684.684,0,0,0-.636-.636H62.779a.078.078,0,0,1-.079-.079c0-.079,0-.079.079-.079h3.576a.882.882,0,0,1,.874.874v3.735a.078.078,0,0,1-.079.079Z" transform="translate(-39.971 -161.121)" fill="#27191c"/><path d="M40.279,178.922a.078.078,0,0,1-.079-.079v-17.4a.254.254,0,0,1,.238-.238h9.139a.078.078,0,0,1,.079.079c0,.079,0,.079-.079.079H40.438v17.4a.078.078,0,0,1-.079.079Z" transform="translate(-35.352 -161.121)" fill="#27191c"/><path d="M44.94,204.359H42.079a.078.078,0,0,1-.079-.079c0-.079,0-.079.079-.079H44.94a.078.078,0,0,1,.079.079C45.02,204.359,45.02,204.359,44.94,204.359Z" transform="translate(-35.722 -169.948)" fill="#27191c"/></g><path d="M69.7,236.971H66.047c0-.079-1.272-5.4-1.272-5.4L59.45,209.235,55,190.4h8.027l2.7,18.755L69.7,236.891Zm-3.5-.238h3.258l-6.2-43.471-.4-2.543h-7.55l4.371,18.517,5.325,22.332,1.272,5.166Z" transform="translate(-25.516 -154.892)" fill="#27191c"/><path d="M49.371,186.379H19.41a1.509,1.509,0,0,1-1.51-1.51v-.159a1.509,1.509,0,0,1,1.51-1.51H42.854a.078.078,0,0,1,.079.079c0,.079,0,.079-.079.079H19.41a1.255,1.255,0,0,0-1.272,1.272v.159a1.255,1.255,0,0,0,1.272,1.272H49.291a.078.078,0,0,1,.079.079c0,.079,0,.079-.079.079Z" transform="translate(-17.9 -153.414)" fill="#27191c"/><path d="M141.467,186.42H76.379a.078.078,0,0,1-.079-.079c0-.079,0-.079.079-.079h65.088a1.255,1.255,0,0,0,1.272-1.272v-.159a1.255,1.255,0,0,0-1.272-1.272H83.373a.078.078,0,0,1-.079-.079c0-.079,0-.079.079-.079h58.094a1.444,1.444,0,0,1,1.43,1.51v.159a1.494,1.494,0,0,1-1.43,1.51Z" transform="translate(-29.888 -153.455)" fill="#27191c"/><path d="M124.9,190H27.23a1.425,1.425,0,0,1-1.43-1.43v-.159a1.494,1.494,0,0,1,1.43-1.51c.795,0,.079,0,.079.079s0,.079-.079.079a1.255,1.255,0,0,0-1.272,1.272v.159a1.255,1.255,0,0,0,1.272,1.272H124.9a1.255,1.255,0,0,0,1.272-1.272v-.159a1.358,1.358,0,0,0-1.192-1.272h0a.078.078,0,0,1-.079-.079c0-.079,0-.079.079-.079h0a1.477,1.477,0,0,1,1.431,1.43v.159a1.444,1.444,0,0,1-1.51,1.43Z" transform="translate(-19.522 -154.173)" fill="#27191c"/><path d="M30.756,236.991H27.1L33.776,190.5H41.8L30.756,236.991Zm-3.417-.238H30.6l6.517-27.5,1.828-7.868,2.543-10.649h-7.55l-6.6,46.014Z" transform="translate(-19.789 -154.912)" fill="#27191c"/><path d="M139.335,237.012H120.579a.078.078,0,0,1-.079-.079c0-.079,0-.079.079-.079H139.1V190.679a.078.078,0,0,1,.079-.079c.079,0,.079,0,.079.079v46.332Z" transform="translate(-38.962 -154.933)" fill="#27191c"/><path d="M115.571,243.868H96.1V224.079a.078.078,0,0,1,.079-.079c.079,0,.079,0,.079.079v19.55h19.232a.078.078,0,0,1,.079.079c0,.079,0,.079-.079.079Z" transform="translate(-33.953 -161.789)" fill="#27191c"/><path d="M120.579,243.464a.078.078,0,0,1-.079-.079v-2.3a.078.078,0,0,1,.079-.079c.079,0,.079,0,.079.079v2.3A.078.078,0,0,1,120.579,243.464Z" transform="translate(-38.962 -165.279)" fill="#27191c"/><path d="M120.579,217.064a.078.078,0,0,1-.079-.079V190.679a.078.078,0,0,1,.079-.079c.079,0,.079,0,.079.079v26.305A.078.078,0,0,1,120.579,217.064Z" transform="translate(-38.962 -154.933)" fill="#27191c"/><path d="M57.913,207.875h0c-.954-.318-1.907-.636-2.861-1.033h0l-2.861-1.192a.112.112,0,0,1,.159-.159l2.861,1.192h0c.954.4,1.907.715,2.861,1.033a.078.078,0,0,1,.079.079c0,.079,0,.079-.079.079Z" transform="translate(-24.932 -157.982)" fill="#27191c"/><path d="M113.309,231.637h-.079l-4.53-6.278V225.2h.159l4.53,6.278v.159h0Z" transform="translate(-36.539 -162.036)" fill="#27191c"/><path d="M114.082,220.006H114l-1.907-2.623-11.206-15.815a11.756,11.756,0,0,0-5.96-4.371H94.85L79.591,192.35a.112.112,0,1,1,.159-.159l15.338,4.848h.079a11.771,11.771,0,0,1,6.04,4.45L112.413,217.3l1.907,2.623v.159h0Z" transform="translate(-30.557 -155.252)" fill="#27191c"/><path d="M48.284,205.05a4.876,4.876,0,0,1-3.258-1.51l-.715-.715h0a7.679,7.679,0,0,1-1.51-2.066V200.6h.159a7.031,7.031,0,0,0,1.431,1.987h0a3.035,3.035,0,0,0,.715.715,4.616,4.616,0,0,0,3.1,1.43,6.3,6.3,0,0,0,1.907-.4,19.369,19.369,0,0,0,2.225-1.113l.477-.238,1.907-.954h.238v.159H54.88l-1.907.954-.477.238a19.369,19.369,0,0,1-2.225,1.113,6.3,6.3,0,0,1-1.987.4h0Z" transform="translate(-23.011 -156.986)" fill="#27191c"/><path d="M65.791,195.068h0a.11.11,0,0,1,0-.159,7.394,7.394,0,0,0,.4-1.907v-1.748a3.5,3.5,0,0,1-.159-.795.126.126,0,1,1,.238-.079,2.7,2.7,0,0,0,.079.795v.4c0,.159.079.318.079.556v.795a5.534,5.534,0,0,1-.4,1.987H65.95Z" transform="translate(-27.724 -154.871)" fill="#27191c"/><path d="M43.579,181.673h0s-.079,0-.079-.159l.4-6.755h0l.079-.159h.159l-.4,6.835a.078.078,0,0,1-.079.079Z" transform="translate(-23.155 -151.648)" fill="#27191c"/><path d="M68.95,172.5a.078.078,0,0,1-.079-.079v-.4a.947.947,0,0,1-.159-.477,23.086,23.086,0,0,0-1.669-5.166,4.719,4.719,0,0,0-.318-.636,9.347,9.347,0,0,0-1.589-2.225,9.066,9.066,0,0,0-.874-.874,8.675,8.675,0,0,0-1.351-1.033h0a1.734,1.734,0,0,1-.4-.318,1.144,1.144,0,0,1-.238-.159c-.318-.159-.556-.318-.874-.477V160.5h.159l.954.477a1.144,1.144,0,0,1,.238.159c.159.079.238.159.4.238h0a17.454,17.454,0,0,1,1.43,1.113,4.554,4.554,0,0,1,.874.874,11.282,11.282,0,0,1,1.589,2.225c.079.238.238.4.318.636a25.149,25.149,0,0,1,1.669,5.245,3.613,3.613,0,0,0,.079.477v.4c.079,0,0,.159,0,.159H68.95Z" transform="translate(-26.83 -148.754)" fill="#27191c"/><path d="M60.794,182.293a29.725,29.725,0,0,1-6.2-.636,16.9,16.9,0,0,1-6.517-2.94,13.2,13.2,0,0,1-2.146-2.066,9.793,9.793,0,0,1-1.669-3.1,11.278,11.278,0,0,1-.4-1.748h0a9.72,9.72,0,0,1,2.225-8.027,11.321,11.321,0,0,1,2.384-1.987,15.762,15.762,0,0,1,1.589-.874c.159,0,.318-.159.477-.238a3.873,3.873,0,0,0,.556-.238c.238,0,.4-.159.636-.238h.159v.159c-.238,0-.4.159-.636.238a1.683,1.683,0,0,0-.556.238c-.159,0-.318.159-.477.159a10.181,10.181,0,0,0-1.589.874,11.322,11.322,0,0,0-2.384,1.987,9.388,9.388,0,0,0-2.225,7.788h0a13.84,13.84,0,0,0,.4,1.748,9.2,9.2,0,0,0,1.589,3.02,12.338,12.338,0,0,0,2.066,1.987,16.44,16.44,0,0,0,6.437,2.861,30.734,30.734,0,0,0,6.358.636c.795,0,1.589,0,2.384-.079a10.666,10.666,0,0,0,1.669-.079c1.51-.079,2.861-.238,4.053-.4h0a32.7,32.7,0,0,0,7.311-1.828c.079,0,.159-.159.159-.318l-.556-2.782c-.238-.954-.4-1.907-.556-2.464v-.318c-.079-.079-.159-.238-.318-.238-3.179-.238-6.358-.556-9.616-1.033h-.159c-.874-.159-1.828-.318-2.7-.477h-.159a5.568,5.568,0,0,1-1.113-.238c-.636-.159-1.272-.318-1.748-.477s-.874-.238-1.351-.4a6.994,6.994,0,0,0-1.192-.4,12.647,12.647,0,0,1-4.45-2.861v-.159h.159a13.86,13.86,0,0,0,4.45,2.861,9.64,9.64,0,0,0,1.113.4c.4.159.874.238,1.272.4a11.278,11.278,0,0,0,1.748.4c.4.079.715.159,1.113.238h.159c.874.159,1.828.318,2.7.477H65.4c3.179.477,6.437.874,9.537,1.033a.5.5,0,0,1,.477.4v.318a23.988,23.988,0,0,1,.556,2.464l.556,2.782c0,.238,0,.477-.318.556a30.467,30.467,0,0,1-7.391,1.828h0c-1.192.159-2.543.318-4.053.4a12.9,12.9,0,0,0-1.669.079c-.874,0-1.669.079-2.464.079h-.159Z" transform="translate(-23.204 -148.692)" fill="#27191c"/><path d="M102.206,207.971a.078.078,0,0,1-.079-.079,5.92,5.92,0,0,0-3.735-4.848.11.11,0,0,1,0-.159c.079-.079.079-.079.159,0a5.986,5.986,0,0,1,3.815,5.007.246.246,0,0,1-.079.159h0Z" transform="translate(-34.416 -157.442)" fill="#27191c"/><path d="M100.887,210.194a.078.078,0,0,1-.079-.079,6.09,6.09,0,0,0-1.907-3.656V206.3h.159a6.279,6.279,0,0,1,1.907,3.815.246.246,0,0,1-.079.159h0Z" transform="translate(-34.528 -158.156)" fill="#27191c"/><path d="M94.482,229.708h-.238a.537.537,0,0,1-.477-.318l-3.5-10.967-4.053-9.378a1.065,1.065,0,0,0-1.033-.636c-2.464.238-5.007.318-7.391.318a52.189,52.189,0,0,1-10.013-1.033s-.079,0-.079-.159,0-.079.159-.079a59.4,59.4,0,0,0,10.013,1.033,56.885,56.885,0,0,0,7.311-.318,1.348,1.348,0,0,1,1.272.715l4.053,9.457,3.5,10.967c0,.079.159.159.238.159h7.629a.392.392,0,0,0,.238-.079v-.238L98.3,209.045,97.5,205.23a7.243,7.243,0,0,0-2.146-3.576,5.981,5.981,0,0,0-2.384-1.351h-.079L79.939,196.25a.112.112,0,0,1,.159-.159l13.033,4.053h.079a6.928,6.928,0,0,1,2.464,1.431A6.761,6.761,0,0,1,97.9,205.23l.795,3.815,3.815,20.106a.6.6,0,0,1-.079.4.607.607,0,0,1-.4.159h-7.55Z" transform="translate(-28.123 -156.053)" fill="#27191c"/><path d="M108.442,235.359H99.779a.078.078,0,0,1-.079-.079c0-.079,0-.079.079-.079h8.662a.078.078,0,0,1,.079.079C108.521,235.359,108.521,235.359,108.442,235.359Z" transform="translate(-34.692 -164.088)" fill="#27191c"/><path d="M115.969,233.773c-.159,0-.318,0-.4-.238l-1.272-1.748,6.914-5.086,1.272,1.748a.592.592,0,0,1-.079.715h0l-6.119,4.45c-.079,0-.159.079-.318.079Zm-1.351-1.907,1.113,1.51a.262.262,0,0,0,.4,0l6.119-4.45h0a.262.262,0,0,0,0-.4l-1.113-1.51-6.6,4.768Zm7.709-2.782Z" transform="translate(-37.689 -162.344)" fill="#27191c"/><path d="M58.578,159.85l-4.768-2.3h0a.277.277,0,0,0-.079-.159A6.253,6.253,0,0,0,55,155.638v-.079l.238-.477h0a2.619,2.619,0,0,0,0-1.113,10.131,10.131,0,0,1-.318-1.113v-.238h0v-.159H54.6a1.644,1.644,0,0,1-1.51-1.748,1.616,1.616,0,0,1,1.51-1.351,4.584,4.584,0,0,1,1.669-2.782,3.939,3.939,0,0,1,6.358,3.576L62,154.049a3.206,3.206,0,0,1-2.146,2.543v.954h0l-1.192,2.384Zm-4.609-2.464,4.45,2.146,1.113-2.146v-1.033h0a2.906,2.906,0,0,0,2.066-2.384l.636-3.894a3.524,3.524,0,0,0-2.066-3.815,3.613,3.613,0,0,0-3.894.4,4.335,4.335,0,0,0-1.589,2.782h0a.078.078,0,0,1-.079.079,1.392,1.392,0,0,0-1.43,1.113,1.416,1.416,0,0,0,1.351,1.51h.318c.079,0,.079,0,.159.238h0v.318c.079.4.238.795.318,1.113a1.55,1.55,0,0,1,0,1.192h0c0,.159-.159.318-.238.477v.079a6.017,6.017,0,0,1-1.192,1.669Z" transform="translate(-25.12 -145.72)" fill="#27191c"/><path d="M53.9,152.255h0V152.1c.238-.477.874-.4,1.113-.4,0,0,.079,0,.079.159,0,0,0,.079-.159.079-.4,0-.715,0-.874.238h-.079Z" transform="translate(-25.29 -146.946)" fill="#27191c"/><path d="M54.856,152.595h0a.763.763,0,0,1-.556-.715.079.079,0,1,1,.159,0,.6.6,0,0,0,.4.556.11.11,0,0,1,0,.159h0Z" transform="translate(-25.372 -146.968)" fill="#27191c"/><path d="M60.3,153.592h-.079c-.159,0-.238-.159-.318-.159v-.159h.159c.079,0,.159.159.238.159h.159v-.238l-.238-.636V152.4h.159l.238.636c0,.079.079.318,0,.477,0,.159-.238.159-.318.159Z" transform="translate(-26.522 -147.091)" fill="#27191c"/><path d="M59.889,155.833h-.238a1.727,1.727,0,0,1-1.351-.874V154.8h.159a1.8,1.8,0,0,0,1.192.795A2.158,2.158,0,0,0,61,155.118h.159v.159a1.917,1.917,0,0,1-1.351.556Z" transform="translate(-26.193 -147.584)" fill="#27191c"/><path d="M82.767,175.627h0a.11.11,0,0,1,0-.159l.238-.636c0-.159,0-.238-.159-.318l-.954-.4-2.861-1.192A48.3,48.3,0,0,1,68.7,167.759V167.6h.159a49.607,49.607,0,0,0,10.252,5.166l2.861,1.192.954.4a.5.5,0,0,1,.238.636l-.238.636h-.159Z" transform="translate(-28.328 -150.212)" fill="#27191c"/><path d="M84.515,177.659h-.636a.079.079,0,0,1,0-.159h3.338a.078.078,0,0,1,.079.079c0,.079,0,.079-.079.079H84.436Z" transform="translate(-31.428 -152.244)" fill="#27191c"/><path d="M85.079,183.074a.078.078,0,0,1-.079-.079v-.159c.715-.238,1.43-.4,2.146-.636H87.3v.159c-.715.238-1.43.4-2.146.636h0Z" transform="translate(-31.674 -153.209)" fill="#27191c"/><path d="M58.483,170.9h0l-4.371-3.338-1.43-3.5-2.782-1.51V162.4h.159l2.861,1.51,1.43,3.5,4.291,3.338v.159h-.159Z" transform="translate(-24.469 -149.144)" fill="#27191c"/><path d="M60.109,171.013h-.079a58.509,58.509,0,0,0-7.629-9.855V161h.159a59.943,59.943,0,0,1,7.629,9.934v.159h0Z" transform="translate(-24.982 -148.857)" fill="#27191c"/><path d="M67.046,172.537a.078.078,0,0,1-.079-.079l-.159-6.6L64.9,163.715v-.636c.079,0,.159-.079.238-.079,0,0,.079,0,.079.159v.556l1.828,2.146.159,6.676a.078.078,0,0,1-.079.079h0Z" transform="translate(-27.548 -149.267)" fill="#27191c"/><path d="M66.538,172.149h-.079c-1.272-3.974-3.258-10.411-3.258-10.49V161.5h.159s1.987,6.517,3.258,10.49v.159h-.079Z" transform="translate(-27.199 -148.959)" fill="#27191c"/><path d="M58.345,166.045h-.159L53.1,160.959V160.8h.159l5.086,5.086.318-2.146s0-.159.079-.159H58.9l1.748,1.272-.238-3.735a.126.126,0,1,1,.238-.079l.238,3.815s0,.159-.079.159H60.57l-1.748-1.351-.318,2.146a.156.156,0,0,1-.159.159h0Zm2.384-1.113Z" transform="translate(-25.126 -148.816)" fill="#27191c"/><path d="M61.172,166.73h-.079l-1.192-.795v-.159c0-.079.079,0,.159,0l1.113.715v-1.113c.159,0,.159-.079.238-.079,0,0,.079,0,.079.159l-.159,1.113s0,.159-.079.159h-.079Z" transform="translate(-26.522 -149.739)" fill="#27191c"/><path d="M73.207,193.361a1.572,1.572,0,0,1-.795-.159,1.976,1.976,0,0,1-.874-.954c-.079-.238-.159-.556-.238-.874v-.238h0v-.4s0-.159.079-.159c0,0,.159,0,.159.079v.4h0v.238a1.882,1.882,0,0,0,.238.795,2.484,2.484,0,0,0,.715.874,2.444,2.444,0,0,0,1.828-.079h0c.318-.079.636-.238.954-.318.636-.159,1.192-.4,1.828-.556h0a1.683,1.683,0,0,0,.556-.238c.159-.079.238-.159.238-.318s0-.238-.238-.4h0l-.4-.4V190.5h.159c.159.079.238.238.4.318h0a.826.826,0,0,1,.318.636c0,.159-.159.318-.4.477a.9.9,0,0,1-.636.238h0a16.016,16.016,0,0,1-1.828.556,4.481,4.481,0,0,0-.954.318h0a3.189,3.189,0,0,1-1.192.238Z" transform="translate(-28.862 -154.912)" fill="#27191c"/><path d="M63.1,172.469h-.079A31.671,31.671,0,0,0,60.4,166.35v-.159a.11.11,0,0,1,.159,0h0a41.356,41.356,0,0,1,2.7,6.2v.159h0Z" transform="translate(-26.624 -149.915)" fill="#27191c"/><path d="M65.1,172.914h-.079a23.21,23.21,0,0,0-3.417-6.755V166h.159a24.787,24.787,0,0,1,3.417,6.835v.159h0Z" transform="translate(-26.871 -149.883)" fill="#27191c"/><path d="M67.592,192.487a.67.67,0,0,1-.556-.159,1.118,1.118,0,0,1-.556-.477c0-.159-.079-.238-.079-.4v-.159c0-.318.318-.636.715-.795h.159v.159a.77.77,0,0,0-.556.636v.4a.814.814,0,0,0,.477.4.858.858,0,0,0,.874,0l1.192-.4a.908.908,0,0,0,.636-.556v-.477h0V190.5h.159v.079c0,.159.079.238.079.4v.238a1.075,1.075,0,0,1-.715.715l-1.192.4h-.477Z" transform="translate(-27.856 -154.912)" fill="#27191c"/><path d="M65.979,191.818H65.9v-.159l.4-.159h.159v.159l-.4.159h0Z" transform="translate(-27.753 -155.118)" fill="#27191c"/><path d="M66.179,193.077H66.1v-.159l.795-.318h.159v.159l-.795.318h0Z" transform="translate(-27.794 -155.344)" fill="#27191c"/><path d="M70.779,191.518H70.7v-.159l.477-.159h.159v.159l-.477.159h0Z" transform="translate(-28.739 -155.056)" fill="#27191c"/></g><g transform="translate(26.714)"><path d="M96.2,190.7v5.4l2.066.636h.079a12.3,12.3,0,0,1,6.04,4.371l1.43,1.987,9.7-12.318h.079c0-.079-19.391-.079-19.391-.079h0Z" transform="translate(-60.687 -152.826)" fill="#27191c"/><path d="M71.007,173.822h0v.079h-.318a5.621,5.621,0,0,0-.159-.954A37.28,37.28,0,0,0,69.1,168.1a31.966,31.966,0,0,1,1.987,5.722Z" transform="translate(-55.124 -148.187)" fill="#27191c"/><path d="M63.265,145c-.795.079-1.907-.715-3.974-1.431-1.669-.556-3.5-1.272-5.8,1.431-5.166,6.119,1.43,10.093,1.43,10.093a2.189,2.189,0,0,0,.238-1.272,14.178,14.178,0,0,0-.556-1.987c-2.782,0-1.748-3.338-.159-2.782A3.928,3.928,0,0,1,55.4,147.3c.715-.795,1.589-.874,3.1.079a4.654,4.654,0,0,0,3.258.795,8.827,8.827,0,0,1,.079,3.02,12.9,12.9,0,0,0,.477-3.258c.159-.079.4-.238.556-.318a3.478,3.478,0,0,0,1.272-2.7c0-.238-.477.079-.874.159Z" transform="translate(-51.514 -143.043)" fill="#27191c"/><path d="M61.9,152a.6.6,0,0,0,.4.556c.238.079.477-.159.556-.4s-.159-.477-.4-.556A.6.6,0,0,0,61.9,152Z" transform="translate(-53.646 -144.8)" fill="#27191c"/><path d="M57.9,151.193a.6.6,0,0,0,.4.556c.238.079.477-.159.556-.4s-.159-.477-.4-.556S57.979,150.955,57.9,151.193Z" transform="translate(-52.825 -144.631)" fill="#27191c"/></g></g><g transform="translate(85.432 99.658)"><g transform="translate(0 21.14)"><rect width="24.001" height="3.099" transform="translate(0.079 0.715)" fill="#fec02d"/><rect width="24.001" height="0.556" transform="translate(0.079 0.159)" fill="#ffe59d"/><rect width="24.001" height="0.556" transform="translate(0.079 3.815)" fill="#ffe59d"/><g transform="translate(1.51 0.715)"><rect width="0.556" height="3.099" fill="#f2aa19"/><rect width="0.556" height="3.099" transform="translate(2.066)" fill="#f2aa19"/><rect width="0.556" height="3.099" transform="translate(4.053)" fill="#f2aa19"/><rect width="0.556" height="3.099" transform="translate(6.119)" fill="#f2aa19"/><rect width="0.556" height="3.099" transform="translate(8.186)" fill="#f2aa19"/><rect width="0.556" height="3.099" transform="translate(10.252)" fill="#f2aa19"/><rect width="0.556" height="3.099" transform="translate(12.318)" fill="#f2aa19"/><rect width="0.556" height="3.099" transform="translate(14.305)" fill="#f2aa19"/><rect width="0.556" height="3.099" transform="translate(16.371)" fill="#f2aa19"/><rect width="0.556" height="3.099" transform="translate(18.438)" fill="#f2aa19"/><rect width="0.556" height="3.099" transform="translate(20.504)" fill="#f2aa19"/></g><path d="M149.56,182.35H125.4V177.9h24.16Zm-24-.159h23.762v-4.053H125.559Zm23.842-3.576Z" transform="translate(-125.4 -177.9)" fill="#241614"/></g><g transform="translate(1.748 16.928)"><rect width="24.001" height="3.099" transform="translate(0.079 0.636)" fill="#fec02d"/><rect width="24.001" height="0.556" transform="translate(0.079 0.079)" fill="#ffe59d"/><rect width="24.001" height="0.556" transform="translate(0.079 3.815)" fill="#ffe59d"/><g transform="translate(1.51 0.636)"><rect width="0.556" height="3.099" fill="#f2aa19"/><rect width="0.556" height="3.099" transform="translate(2.066)" fill="#f2aa19"/><rect width="0.556" height="3.099" transform="translate(4.133)" fill="#f2aa19"/><rect width="0.556" height="3.099" transform="translate(6.119)" fill="#f2aa19"/><rect width="0.556" height="3.099" transform="translate(8.186)" fill="#f2aa19"/><rect width="0.556" height="3.099" transform="translate(10.252)" fill="#f2aa19"/><rect width="0.556" height="3.099" transform="translate(12.318)" fill="#f2aa19"/><rect width="0.556" height="3.099" transform="translate(14.384)" fill="#f2aa19"/><rect width="0.556" height="3.099" transform="translate(16.371)" fill="#f2aa19"/><rect width="0.556" height="3.099" transform="translate(18.438)" fill="#f2aa19"/><rect width="0.556" height="3.099" transform="translate(20.504)" fill="#f2aa19"/></g><path d="M151.76,177.05H127.6V172.6h24.16Zm-24-.238h23.762v-4.053H127.759v4.053Zm23.842-3.5Z" transform="translate(-127.6 -172.6)" fill="#241614"/></g><g transform="translate(0.954 12.716)"><rect width="24.001" height="3.099" transform="translate(0.159 0.636)" fill="#fec02d"/><rect width="24.001" height="0.556" transform="translate(0.159 0.079)" fill="#ffe59d"/><rect width="24.001" height="0.556" transform="translate(0.159 3.735)" fill="#ffe59d"/><g transform="translate(1.589 0.636)"><rect width="0.556" height="3.099" fill="#f2aa19"/><rect width="0.556" height="3.099" transform="translate(2.066)" fill="#f2aa19"/><rect width="0.556" height="3.099" transform="translate(4.053)" fill="#f2aa19"/><rect width="0.556" height="3.099" transform="translate(6.119)" fill="#f2aa19"/><rect width="0.556" height="3.099" transform="translate(8.186)" fill="#f2aa19"/><rect width="0.556" height="3.099" transform="translate(10.252)" fill="#f2aa19"/><rect width="0.556" height="3.099" transform="translate(12.239)" fill="#f2aa19"/><rect width="0.556" height="3.099" transform="translate(14.305)" fill="#f2aa19"/><rect width="0.556" height="3.099" transform="translate(16.371)" fill="#f2aa19"/><rect width="0.556" height="3.099" transform="translate(18.438)" fill="#f2aa19"/><rect width="0.556" height="3.099" transform="translate(20.504)" fill="#f2aa19"/></g><path d="M150.76,171.75H126.6V167.3h24.16v4.45Zm-23.921-.238H150.6v-4.053H126.838v4.053Zm23.842-3.576Z" transform="translate(-126.6 -167.3)" fill="#241614"/></g><g transform="translate(2.782 8.424)"><rect width="24.001" height="3.099" transform="translate(0.079 0.715)" fill="#fec02d"/><rect width="24.001" height="0.556" transform="translate(0.079 0.159)" fill="#ffe59d"/><rect width="24.001" height="0.556" transform="translate(0.079 3.815)" fill="#ffe59d"/><g transform="translate(1.51 0.715)"><rect width="0.556" height="3.099" fill="#f2aa19"/><rect width="0.556" height="3.099" transform="translate(2.066)" fill="#f2aa19"/><rect width="0.556" height="3.099" transform="translate(4.133)" fill="#f2aa19"/><rect width="0.556" height="3.099" transform="translate(6.119)" fill="#f2aa19"/><rect width="0.556" height="3.099" transform="translate(8.186)" fill="#f2aa19"/><rect width="0.556" height="3.099" transform="translate(10.252)" fill="#f2aa19"/><rect width="0.556" height="3.099" transform="translate(12.318)" fill="#f2aa19"/><rect width="0.556" height="3.099" transform="translate(14.305)" fill="#f2aa19"/><rect width="0.556" height="3.099" transform="translate(16.371)" fill="#f2aa19"/><rect width="0.556" height="3.099" transform="translate(18.438)" fill="#f2aa19"/><rect width="0.556" height="3.099" transform="translate(20.504)" fill="#f2aa19"/></g><path d="M153.06,166.35H128.9V161.9h24.16v4.45Zm-24-.159h23.762v-4.053H129.059v4.053Zm23.842-3.576Z" transform="translate(-128.9 -161.9)" fill="#241614"/></g><g transform="translate(0.715)"><rect width="24.001" height="3.099" transform="translate(0.079 0.636)" fill="#fec02d"/><rect width="24.001" height="0.556" transform="translate(0.079 0.079)" fill="#ffe59d"/><rect width="24.001" height="0.556" transform="translate(0.079 3.735)" fill="#ffe59d"/><g transform="translate(1.51 0.636)"><rect width="0.556" height="3.099" fill="#f2aa19"/><rect width="0.556" height="3.099" transform="translate(2.066)" fill="#f2aa19"/><rect width="0.556" height="3.099" transform="translate(4.133)" fill="#f2aa19"/><rect width="0.556" height="3.099" transform="translate(6.119)" fill="#f2aa19"/><rect width="0.556" height="3.099" transform="translate(8.186)" fill="#f2aa19"/><rect width="0.556" height="3.099" transform="translate(10.252)" fill="#f2aa19"/><rect width="0.556" height="3.099" transform="translate(12.318)" fill="#f2aa19"/><rect width="0.556" height="3.099" transform="translate(14.384)" fill="#f2aa19"/><rect width="0.556" height="3.099" transform="translate(16.371)" fill="#f2aa19"/><rect width="0.556" height="3.099" transform="translate(18.438)" fill="#f2aa19"/><rect width="0.556" height="3.099" transform="translate(20.504)" fill="#f2aa19"/></g><path d="M150.46,155.75H126.3V151.3h24.16Zm-24-.238h23.762v-4.053H126.459v4.053Zm23.842-3.576Z" transform="translate(-126.3 -151.3)" fill="#241614"/></g><g transform="translate(1.748 4.212)"><rect width="24.001" height="3.099" transform="translate(0.079 0.636)" fill="#fec02d"/><rect width="24.001" height="0.556" transform="translate(0.079 0.079)" fill="#ffe59d"/><rect width="24.001" height="0.556" transform="translate(0.079 3.735)" fill="#ffe59d"/><g transform="translate(1.51 0.636)"><rect width="0.556" height="3.099" fill="#f2aa19"/><rect width="0.556" height="3.099" transform="translate(2.066)" fill="#f2aa19"/><rect width="0.556" height="3.099" transform="translate(4.133)" fill="#f2aa19"/><rect width="0.556" height="3.099" transform="translate(6.199)" fill="#f2aa19"/><rect width="0.556" height="3.099" transform="translate(8.186)" fill="#f2aa19"/><rect width="0.556" height="3.099" transform="translate(10.252)" fill="#f2aa19"/><rect width="0.556" height="3.099" transform="translate(12.318)" fill="#f2aa19"/><rect width="0.556" height="3.099" transform="translate(14.384)" fill="#f2aa19"/><rect width="0.556" height="3.099" transform="translate(16.451)" fill="#f2aa19"/><rect width="0.556" height="3.099" transform="translate(18.438)" fill="#f2aa19"/><rect width="0.556" height="3.099" transform="translate(20.504)" fill="#f2aa19"/></g><path d="M151.76,161.05H127.6V156.6h24.16v4.45Zm-23.921-.238H151.6v-4.053H127.838Zm23.842-3.576Z" transform="translate(-127.6 -156.6)" fill="#241614"/></g></g><g transform="translate(115.314 98.227)"><g transform="translate(0.159 0.159)"><path d="M163.2,217.251V151.925a2.221,2.221,0,0,1,2.225-2.225h47.127a2.221,2.221,0,0,1,2.225,2.225v65.326a2.221,2.221,0,0,1-2.225,2.225H165.425A2.221,2.221,0,0,1,163.2,217.251Z" transform="translate(-163.2 -149.7)" fill="#116562"/><rect width="9.298" height="9.298" transform="translate(4.689 22.967)" fill="#fff"/><rect width="42.12" height="11.365" transform="translate(4.689 4.768)" fill="#fff"/><rect width="9.298" height="9.298" transform="translate(15.656 22.967)" fill="#fff"/><rect width="9.298" height="9.298" transform="translate(26.623 22.967)" fill="#fff"/><rect width="9.298" height="9.298" transform="translate(37.511 22.967)" fill="#fff"/><rect width="9.298" height="9.298" transform="translate(4.689 33.935)" fill="#fff"/><rect width="9.298" height="9.298" transform="translate(15.656 33.935)" fill="#fff"/><rect width="9.298" height="9.298" transform="translate(26.623 33.935)" fill="#fff"/><rect width="9.298" height="9.298" transform="translate(4.689 44.822)" fill="#fff"/><rect width="9.298" height="9.298" transform="translate(15.656 44.822)" fill="#fff"/><rect width="9.298" height="9.298" transform="translate(26.623 44.822)" fill="#fff"/><rect width="9.298" height="9.298" transform="translate(4.689 55.789)" fill="#fff"/><rect width="9.298" height="9.298" transform="translate(15.656 55.789)" fill="#fff"/><rect width="9.298" height="9.298" transform="translate(26.623 55.789)" fill="#fff"/><rect width="9.298" height="31.153" transform="translate(37.511 33.935)" fill="#fff"/><rect width="9.298" height="1.669" transform="translate(4.689 19.709)" fill="#9fd3fb"/><rect width="9.298" height="1.669" transform="translate(15.656 19.709)" fill="#fff"/><rect width="9.298" height="1.669" transform="translate(26.623 19.709)" fill="#fff"/><rect width="9.298" height="1.669" transform="translate(37.511 19.709)" fill="#fff"/></g><path d="M212.511,219.594H165.384A2.391,2.391,0,0,1,163,217.21V151.884a2.391,2.391,0,0,1,2.384-2.384h47.127a2.391,2.391,0,0,1,2.384,2.384V217.21A2.391,2.391,0,0,1,212.511,219.594Zm-47.127-69.776a2.137,2.137,0,0,0-2.146,2.146V217.29a2.137,2.137,0,0,0,2.146,2.146h47.127a2.137,2.137,0,0,0,2.146-2.146V151.964a2.137,2.137,0,0,0-2.146-2.146Z" transform="translate(-163 -149.5)" fill="#27191c"/><path d="M178.537,188.037H169V178.5h9.537Zm-9.3-.238h9.06v-9.06h-9.06Z" transform="translate(-164.232 -155.453)" fill="#27191c"/><path d="M211.359,167.1H169V155.5h42.359Zm-42.12-.238H211.12V155.738H169.238Z" transform="translate(-164.232 -150.732)" fill="#27191c"/><path d="M192.337,188.037H182.8V178.5h9.537Zm-9.3-.238h9.06v-9.06h-9.06v9.06Z" transform="translate(-167.065 -155.453)" fill="#27191c"/><path d="M206.037,188.037H196.5V178.5h9.537Zm-9.3-.238h9.06v-9.06h-9.06Z" transform="translate(-169.877 -155.453)" fill="#27191c"/><path d="M219.837,188.037H210.3V178.5h9.537Zm-9.3-.238h9.06v-9.06h-9.06Z" transform="translate(-172.71 -155.453)" fill="#27191c"/><path d="M178.537,201.737H169V192.2h9.537Zm-9.3-.238h9.06v-9.06h-9.06Z" transform="translate(-164.232 -158.265)" fill="#27191c"/><path d="M192.337,201.737H182.8V192.2h9.537Zm-9.3-.238h9.06v-9.06h-9.06v9.06Z" transform="translate(-167.065 -158.265)" fill="#27191c"/><path d="M206.037,201.737H196.5V192.2h9.537Zm-9.3-.238h9.06v-9.06h-9.06Z" transform="translate(-169.877 -158.265)" fill="#27191c"/><path d="M178.537,215.537H169V206h9.537Zm-9.3-.238h9.06v-9.06h-9.06Z" transform="translate(-164.232 -161.098)" fill="#27191c"/><path d="M192.337,215.537H182.8V206h9.537Zm-9.3-.238h9.06v-9.06h-9.06v9.06Z" transform="translate(-167.065 -161.098)" fill="#27191c"/><path d="M206.037,215.537H196.5V206h9.537Zm-9.3-.238h9.06v-9.06h-9.06Z" transform="translate(-169.877 -161.098)" fill="#27191c"/><path d="M178.537,229.237H169V219.7h9.537Zm-9.3-.159h9.06v-9.06h-9.06Z" transform="translate(-164.232 -163.911)" fill="#27191c"/><path d="M192.337,229.237H182.8V219.7h9.537Zm-9.3-.159h9.06v-9.06h-9.06v9.06Z" transform="translate(-167.065 -163.911)" fill="#27191c"/><path d="M206.037,229.237H196.5V219.7h9.537Zm-9.3-.159h9.06v-9.06h-9.06Z" transform="translate(-169.877 -163.911)" fill="#27191c"/><path d="M219.837,223.591H210.3V192.2h9.537Zm-9.3-.159h9.06V192.438h-9.06Z" transform="translate(-172.71 -158.265)" fill="#27191c"/><path d="M178.537,176.228H169V174.4h9.537Zm-9.3-.238h9.06v-1.431h-9.06Z" transform="translate(-164.232 -154.611)" fill="#27191c"/><path d="M192.337,176.228H182.8V174.4h9.537Zm-9.3-.238h9.06v-1.431h-9.06v1.431Z" transform="translate(-167.065 -154.611)" fill="#27191c"/><path d="M206.037,176.228H196.5V174.4h9.537Zm-9.3-.238h9.06v-1.431h-9.06Z" transform="translate(-169.877 -154.611)" fill="#27191c"/><path d="M219.837,176.228H210.3V174.4h9.537Zm-9.3-.238h9.06v-1.431h-9.06Z" transform="translate(-172.71 -154.611)" fill="#27191c"/></g><g transform="translate(146.229)"><g transform="translate(0.159 0.159)"><g transform="translate(12.08 0.079)"><path d="M247.279,230.436h94.254a.584.584,0,0,0,.477-.159h1.113a.392.392,0,0,0,.238-.079.292.292,0,0,0,.238-.079.6.6,0,0,0,.318-.159c.079-.079.159-.079.318-.159.079,0,.159-.079.238-.159h0c.079,0,.159-.079.238-.159a11.825,11.825,0,0,0,5.96-10.252V202.7H258.326v16.848A11.434,11.434,0,0,1,247.2,230.992h0Z" transform="translate(-223.438 -62.432)" fill="#d2f5f4"/><path d="M252.268,165.912h0V182.76A11.434,11.434,0,0,1,241.142,194.2h-.318a11.482,11.482,0,0,1-11.444-11.365V165.912h0V36.929c0-5.325-5.4-10.729-12.08-10.729H320.455a12.074,12.074,0,0,1,12.08,12.08V165.912H252.268Z" transform="translate(-217.3 -26.2)" fill="#fff"/></g><g transform="translate(34.491 35.445)"><path d="M245.5,70.7V91.84h0V124.9h82.492V70.7H245.5Zm29.166,1.272h51.9v5.245h-51.9Zm-27.895,0h26.544v5.245H246.772Zm0,6.676h79.79V90.568h-79.79Zm26.544,44.9H246.772V118.3h26.544Zm0-6.6H246.772v-5.245h26.544Zm0-6.6H246.772v-5.245h26.544Zm0-6.676H246.772V98.436h26.544Zm25.352,19.868h-24V118.3h24v5.245Zm0-6.6h-24v-5.245h24v5.245Zm0-6.6h-24v-5.245h24v5.245Zm0-6.676h-24V98.436h24v5.245Zm27.895,19.868H300.018V118.3h26.544Zm0-6.6H300.018v-5.245h26.544Zm0-6.6H300.018v-5.245h26.544Zm0-6.676H300.018V98.436h26.544Zm0-6.6h-79.79V91.84h79.79Z" transform="translate(-245.5 -70.7)" fill="#a6eae8"/><rect width="82.413" height="1.351" transform="translate(0 59.445)" fill="#a6eae8"/><rect width="82.413" height="1.351" transform="translate(0 66.041)" fill="#a6eae8"/><rect width="54.2" height="1.351" transform="translate(0 72.637)" fill="#a6eae8"/><rect width="72.717" height="1.351" transform="translate(0 79.234)" fill="#a6eae8"/><rect width="51.657" height="1.351" transform="translate(0 85.83)" fill="#a6eae8"/><rect width="69.935" height="1.43" transform="translate(0 92.426)" fill="#a6eae8"/></g><path d="M226.26,38.18h0v45.7h0V117.1H202.1V38.18a12.083,12.083,0,0,1,24.16-.4V38.1Z" transform="translate(-202.1 -26.1)" fill="#d2f5f4"/></g><path d="M338.911,230.31H247.2v-.238a11.3,11.3,0,0,0,11.047-11.365V201.7h92.585v16.61a11.885,11.885,0,0,1-5.96,10.331c-.079,0-.159.079-.318.159h0a1.143,1.143,0,0,0-.238.159h0c-.079,0-.159.079-.318.159a.6.6,0,0,0-.318.159,416930094401.071,416930094401.071,0,0,0-.477.159h-.318a.392.392,0,0,0-.238.079h-.477a1.13,1.13,0,0,0-.477.159h-2.464Zm-89.724-.238h92.029a1.13,1.13,0,0,0,.477-.159h.477a.392.392,0,0,0,.238-.079h.318a.392.392,0,0,0,.238-.079.292.292,0,0,0,.238-.079.6.6,0,0,0,.318-.159c.079,0,.159-.079.318-.159h0c.079,0,.159-.079.238-.159h0c.079,0,.159-.079.318-.159a11.652,11.652,0,0,0,5.881-10.172V202.415H258.088v16.769a11.518,11.518,0,0,1-9.219,11.365Zm93.38-.556Z" transform="translate(-211.199 -61.988)" fill="#27191c"/><path d="M240.844,194.222a11.532,11.532,0,0,1-11.523-11.444V166.486h0V36.788c0-5.007-5.086-10.649-11.921-10.649V25.9H320.714a12.142,12.142,0,0,1,12.08,12.159V165.85H252.527v16.769a11.909,11.909,0,0,1-3.258,8.106,11.622,11.622,0,0,1-7.947,3.5h-.477Zm-11.365-28.53h0v17.087a11.329,11.329,0,0,0,11.365,11.206h.318a11.3,11.3,0,0,0,11.047-11.365V165.612h80.267V38.059a12.024,12.024,0,0,0-11.921-12l-.159.159v-.159H219.7a13.145,13.145,0,0,1,6.278,3.179,10.277,10.277,0,0,1,3.576,7.47v128.9Z" transform="translate(-205.082 -25.9)" fill="#27191c"/><path d="M226.3,117.154H201.9v-79A12.159,12.159,0,0,1,214.059,26c6.676,0,6.2,1.192,8.5,3.417a11.882,11.882,0,0,1,3.656,8.345v79.393Zm-24.16-.238H226.06V38.08h0v-.238a11.839,11.839,0,0,0-11.921-11.6,12.093,12.093,0,0,0-12,12V117h0Z" transform="translate(-201.9 -25.921)" fill="#27191c"/></g><g transform="translate(134.785 151.156)"><g transform="translate(1.748)"><rect width="24.001" height="3.099" transform="translate(0.079 0.636)" fill="#fec02d"/><rect width="24.001" height="0.556" transform="translate(0.079 3.815)" fill="#ffe59d"/><rect width="24.001" height="0.556" transform="translate(0.079 0.079)" fill="#ffe59d"/><g transform="translate(1.51 0.636)"><rect width="0.556" height="3.099" fill="#f2aa19"/><rect width="0.556" height="3.099" transform="translate(2.066)" fill="#f2aa19"/><rect width="0.556" height="3.099" transform="translate(4.053)" fill="#f2aa19"/><rect width="0.556" height="3.099" transform="translate(6.119)" fill="#f2aa19"/><rect width="0.556" height="3.099" transform="translate(8.186)" fill="#f2aa19"/><rect width="0.556" height="3.099" transform="translate(10.252)" fill="#f2aa19"/><rect width="0.556" height="3.099" transform="translate(12.318)" fill="#f2aa19"/><rect width="0.556" height="3.099" transform="translate(14.305)" fill="#f2aa19"/><rect width="0.556" height="3.099" transform="translate(16.371)" fill="#f2aa19"/><rect width="0.556" height="3.099" transform="translate(18.438)" fill="#f2aa19"/><rect width="0.556" height="3.099" transform="translate(20.504)" fill="#f2aa19"/></g><path d="M213.86,220.55H189.7V216.1h24.16Zm-24-.238h23.762v-4.053H189.859Z" transform="translate(-189.7 -216.1)" fill="#241614"/></g><g transform="translate(0.397 4.212)"><rect width="24.001" height="3.099" transform="translate(0.079 0.715)" fill="#fec02d"/><rect width="24.001" height="0.556" transform="translate(0.079 3.815)" fill="#ffe59d"/><rect width="24.001" height="0.556" transform="translate(0.079 0.159)" fill="#ffe59d"/><g transform="translate(1.51 0.715)"><rect width="0.556" height="3.099" fill="#f2aa19"/><rect width="0.556" height="3.099" transform="translate(2.066)" fill="#f2aa19"/><rect width="0.556" height="3.099" transform="translate(4.133)" fill="#f2aa19"/><rect width="0.556" height="3.099" transform="translate(6.199)" fill="#f2aa19"/><rect width="0.556" height="3.099" transform="translate(8.265)" fill="#f2aa19"/><rect width="0.556" height="3.099" transform="translate(10.252)" fill="#f2aa19"/><rect width="0.556" height="3.099" transform="translate(12.318)" fill="#f2aa19"/><rect width="0.556" height="3.099" transform="translate(14.384)" fill="#f2aa19"/><rect width="0.556" height="3.099" transform="translate(16.451)" fill="#f2aa19"/><rect width="0.556" height="3.099" transform="translate(18.517)" fill="#f2aa19"/><rect width="0.556" height="3.099" transform="translate(20.504)" fill="#f2aa19"/></g><path d="M212.16,225.85H188V221.4h24.16Zm-23.921-.159H212v-4.053H188.238Z" transform="translate(-188 -221.4)" fill="#241614"/></g><g transform="translate(1.431 12.716)"><rect width="24.001" height="3.099" transform="translate(0.079 0.715)" fill="#fec02d"/><rect width="24.001" height="0.556" transform="translate(0.079 3.815)" fill="#ffe59d"/><rect width="24.001" height="0.556" transform="translate(0.079 0.079)" fill="#ffe59d"/><g transform="translate(1.51 0.715)"><rect width="0.556" height="3.099" fill="#f2aa19"/><rect width="0.556" height="3.099" transform="translate(2.066)" fill="#f2aa19"/><rect width="0.556" height="3.099" transform="translate(4.133)" fill="#f2aa19"/><rect width="0.556" height="3.099" transform="translate(6.199)" fill="#f2aa19"/><rect width="0.556" height="3.099" transform="translate(8.186)" fill="#f2aa19"/><rect width="0.556" height="3.099" transform="translate(10.252)" fill="#f2aa19"/><rect width="0.556" height="3.099" transform="translate(12.318)" fill="#f2aa19"/><rect width="0.556" height="3.099" transform="translate(14.384)" fill="#f2aa19"/><rect width="0.556" height="3.099" transform="translate(16.451)" fill="#f2aa19"/><rect width="0.556" height="3.099" transform="translate(18.438)" fill="#f2aa19"/><rect width="0.556" height="3.099" transform="translate(20.504)" fill="#f2aa19"/></g><path d="M213.46,236.55H189.3V232.1h24.16v4.45Zm-24-.238h23.762v-4.053H189.459Z" transform="translate(-189.3 -232.1)" fill="#241614"/></g><g transform="translate(0 8.504)"><rect width="24.001" height="3.099" transform="translate(0.079 0.636)" fill="#fec02d"/><rect width="24.001" height="0.556" transform="translate(0.079 3.735)" fill="#ffe59d"/><rect width="24.001" height="0.556" transform="translate(0.079 0.079)" fill="#ffe59d"/><g transform="translate(1.589 0.636)"><rect width="0.556" height="3.099" fill="#f2aa19"/><rect width="0.556" height="3.099" transform="translate(1.987)" fill="#f2aa19"/><rect width="0.556" height="3.099" transform="translate(4.053)" fill="#f2aa19"/><rect width="0.556" height="3.099" transform="translate(6.119)" fill="#f2aa19"/><rect width="0.556" height="3.099" transform="translate(8.186)" fill="#f2aa19"/><rect width="0.556" height="3.099" transform="translate(10.252)" fill="#f2aa19"/><rect width="0.556" height="3.099" transform="translate(12.239)" fill="#f2aa19"/><rect width="0.556" height="3.099" transform="translate(14.305)" fill="#f2aa19"/><rect width="0.556" height="3.099" transform="translate(16.371)" fill="#f2aa19"/><rect width="0.556" height="3.099" transform="translate(18.438)" fill="#f2aa19"/><rect width="0.556" height="3.099" transform="translate(20.424)" fill="#f2aa19"/></g><path d="M211.66,231.25H187.5V226.8h24.16Zm-23.921-.238H211.5v-4.053H187.738Z" transform="translate(-187.5 -226.8)" fill="#241614"/></g></g><g transform="translate(124.056 104.824)"><path d="M175.272,163.027V164.7L174,165.968v-3.258l.477-.477Zm-1.192-1.669V158.1l1.272,1.272v1.669l-.795.795Z" transform="translate(-174 -157.862)" fill="#d2f5f4"/><path d="M178.572,162.966v1.669l-1.272,1.272v-3.258l.477-.477Zm3.815,3.179h-4.848l1.272-1.272h2.384l1.272,1.272ZM177.3,161.3v-3.258l1.272,1.272v1.669l-.795.795Zm5.086-3.5-1.272,1.272H178.73l-1.272-1.272h4.927Zm.238,4.927v3.258l-1.272-1.272v-1.669l.795-.795Zm-1.272-1.748V159.31l1.272-1.192v3.258l-.477.477-.795-.795Z" transform="translate(-174.677 -157.8)" fill="#d2f5f4"/><path d="M186.972,162.966v1.669l-1.272,1.272v-3.258l.477-.477Zm3.815,3.179h-4.848l1.272-1.272h2.384l1.272,1.272ZM185.7,161.3v-3.258l1.272,1.272v1.669l-.795.795Zm5.086-3.5-1.272,1.272H187.13l-1.272-1.272h4.927Zm.238,4.927v3.258l-1.272-1.272v-1.669l.795-.795Zm-1.272-1.748V159.31l1.272-1.192v3.258l-.477.477-.795-.795Z" transform="translate(-176.402 -157.8)" fill="#d2f5f4"/><path d="M194,167.972V166.7h1.272v1.272Z" transform="translate(-178.106 -159.627)" fill="#d2f5f4"/><path d="M198.372,162.966v1.669l-1.272,1.272v-3.258l.477-.477Zm3.815,3.179h-4.848l1.272-1.272h2.384l1.272,1.272ZM197.1,161.3v-3.258l1.272,1.272v1.669l-.795.795Zm5.086-3.5-1.272,1.272H198.53l-1.272-1.272h4.927Zm.238,4.927v3.258l-1.272-1.272v-1.669l.795-.795Zm-1.272-1.748V159.31l1.272-1.192v3.258l-.477.477-.795-.795Z" transform="translate(-178.742 -157.8)" fill="#d2f5f4"/><path d="M206.772,162.966v1.669l-1.272,1.272v-3.258l.477-.477Zm3.894,3.179h-4.848l1.272-1.272h2.384l1.272,1.272Zm-5.086-4.848v-3.258l1.272,1.272v1.669l-.795.795Zm5.086-3.5-1.272,1.272H207.01l-1.272-1.272h4.927Zm.159,4.927v3.258l-1.272-1.272v-1.669l.795-.795Zm-1.192-1.748V159.31l1.272-1.192v3.258l-.477.477-.795-.795Z" transform="translate(-180.466 -157.8)" fill="#d2f5f4"/></g></g></g></svg>